<svg width="85" height="84" viewBox="0 0 85 84" fill="none" xmlns="http://www.w3.org/2000/svg">
<g clip-path="url(#clip0)">
<g clip-path="url(#clip1)">
<path d="M34.8778 43.042C34.6384 42.5377 34.0353 42.3233 33.5311 42.5629C33.027 42.8025 32.8124 43.4055 33.0521 43.9096C33.2295 44.2831 33.3196 44.6844 33.3196 45.1022V47.2697C33.3196 48.8039 32.0714 50.0521 30.5372 50.0521C29.0031 50.0521 27.7549 48.8039 27.7549 47.2697V45.1022C27.7549 43.568 29.0031 42.3198 30.5372 42.3198C31.0954 42.3198 31.5479 41.8673 31.5479 41.3091C31.5479 40.7509 31.0954 40.2983 30.5372 40.2983C27.8884 40.2983 25.7334 42.4534 25.7334 45.1022V47.2697C25.7334 49.9186 27.8884 52.0735 30.5372 52.0735C33.186 52.0735 35.341 49.9186 35.341 47.2697V45.1022C35.341 44.3818 35.1852 43.6887 34.8778 43.042Z" fill="#4E3D35"/>
<path d="M59.8041 43.042C59.5645 42.5377 58.9616 42.323 58.4574 42.5629C57.9533 42.8025 57.7387 43.4055 57.9783 43.9096C58.1558 44.2831 58.2458 44.6844 58.2458 45.1022V47.2697C58.2458 48.8039 56.9976 50.0521 55.4635 50.0521C53.9293 50.0521 52.6811 48.8039 52.6811 47.2697V45.1022C52.6811 43.568 53.9293 42.3198 55.4635 42.3198C56.0217 42.3198 56.4742 41.8673 56.4742 41.3091C56.4742 40.7509 56.0217 40.2983 55.4635 40.2983C52.8146 40.2983 50.6597 42.4534 50.6597 45.1022V47.2697C50.6597 49.9186 52.8147 52.0735 55.4635 52.0735C58.1123 52.0735 60.2673 49.9186 60.2673 47.2697V45.1022C60.2673 44.3818 60.1115 43.6887 59.8041 43.042Z" fill="#4E3D35"/>
<path d="M53.5062 62.8113C53.1334 62.3957 52.4945 62.3609 52.0789 62.7336C51.0671 63.641 49.7671 64.1409 48.4187 64.1409C47.3094 64.1409 46.241 63.8115 45.3289 63.1883C43.936 62.2368 42.0641 62.2366 40.6709 63.1883C39.7588 63.8115 38.6904 64.1409 37.5812 64.1409C36.2327 64.1409 34.9329 63.6411 33.921 62.7336C33.5054 62.3609 32.8664 62.3957 32.4937 62.8113C32.1209 63.2267 32.1557 63.8658 32.5713 64.2386C33.9545 65.4792 35.7338 66.1623 37.5812 66.1623C37.6056 66.1623 37.6298 66.1612 37.6542 66.161V67.3191C37.6542 70.2668 40.0524 72.6648 42.9999 72.6648C45.9475 72.6648 48.3456 70.2668 48.3456 67.3191V66.161C48.37 66.1612 48.3943 66.1623 48.4187 66.1623C50.266 66.1623 52.0452 65.4791 53.4285 64.2386C53.8441 63.8658 53.8789 63.2269 53.5062 62.8113ZM46.3243 67.3191C46.3243 69.1522 44.833 70.6434 43.0001 70.6434C41.1671 70.6434 39.6758 69.1522 39.6758 67.3191V65.8649C40.4316 65.6458 41.1515 65.3083 41.8114 64.8574C41.8688 64.8182 41.9285 64.7834 41.9893 64.7507V66.2354C41.9893 66.7936 42.4419 67.2461 43.0001 67.2461C43.5582 67.2461 44.0108 66.7936 44.0108 66.2354V64.7507C44.0716 64.7834 44.1314 64.8182 44.1887 64.8574C44.8486 65.3083 45.5685 65.6458 46.3243 65.8649V67.3191Z" fill="#4E3D35"/>
<path d="M47.4146 54.2575C47.0391 53.4713 46.2647 52.9829 45.3934 52.9829H40.6071C39.7359 52.9829 38.9614 53.4714 38.5859 54.2575C38.2105 55.0437 38.3175 55.953 38.8652 56.6304L41.2584 59.5915C41.6858 60.12 42.3206 60.4231 43.0003 60.4231C43.6799 60.4231 44.3148 60.12 44.7421 59.5915L47.1354 56.6306C47.6829 55.953 47.7899 55.0437 47.4146 54.2575ZM45.5631 55.3598L43.1698 58.3205C43.1156 58.3876 43.0476 58.4017 43 58.4017C42.9524 58.4017 42.8844 58.3876 42.8302 58.3207L40.4369 55.3598C40.3798 55.2889 40.3706 55.2111 40.41 55.1286C40.4493 55.0462 40.5156 55.0044 40.607 55.0044H45.3933C45.4846 55.0044 45.5509 55.0462 45.5903 55.1286C45.6296 55.211 45.6205 55.2889 45.5631 55.3598Z" fill="#4E3D35"/>
<path d="M74.6911 56.5892C74.1351 56.4398 73.5432 56.306 72.9267 56.1857C73.8665 53.3376 74.3557 50.3397 74.3557 47.2696C74.3557 43.4765 73.6103 39.7931 72.1881 36.3674V11.1827C72.1881 9.94465 71.4937 8.84497 70.3758 8.31292C69.258 7.78087 67.9666 7.93531 67.0058 8.716L53.8874 19.3747C50.4482 18.1699 46.7752 17.5393 42.9998 17.5393C39.2243 17.5393 35.5513 18.1699 32.1121 19.3747L18.994 8.716C18.0331 7.93531 16.7417 7.78074 15.624 8.31292C14.5061 8.84497 13.8116 9.94465 13.8116 11.1827V36.3675C12.3896 39.7931 11.6441 43.4766 11.6441 47.2696C11.6441 50.3397 12.1334 53.3378 13.0731 56.1857C12.4566 56.306 11.8647 56.4396 11.3087 56.5892C10.7696 56.7341 10.4501 57.2885 10.5949 57.8276C10.7162 58.2789 11.1244 58.5762 11.5704 58.5762C11.6572 58.5762 11.7456 58.5649 11.8334 58.5413C12.4396 58.3784 13.0956 58.2351 13.785 58.1086C14.465 59.7579 15.3029 61.3471 16.2898 62.8606C15.2418 63.2948 14.224 63.7598 13.2723 64.2548C12.7771 64.5123 12.5843 65.1225 12.8419 65.6178C13.0219 65.9641 13.3743 66.1625 13.7394 66.1625C13.8964 66.1625 14.0558 66.1258 14.2049 66.0484C15.2257 65.5175 16.3362 65.0204 17.484 64.5589C18.4858 65.8821 19.6077 67.1378 20.8478 68.3116C26.7678 73.9144 34.6348 77 42.9998 77C51.3647 77 59.2319 73.9144 65.1517 68.3116C66.3919 67.1378 67.514 65.8821 68.5158 64.5588C69.6633 65.0202 70.7738 65.5175 71.7948 66.0484C71.9437 66.1258 72.1031 66.1625 72.2602 66.1625C72.6253 66.1625 72.9777 65.9641 73.1579 65.6178C73.4154 65.1225 73.2227 64.5123 72.7275 64.2548C71.7758 63.7599 70.758 63.2948 69.71 62.8608C70.6968 61.3472 71.5348 59.7581 72.2148 58.1087C72.904 58.2352 73.5602 58.3785 74.1662 58.5414C74.2541 58.565 74.3425 58.5763 74.4293 58.5763C74.8752 58.5763 75.2834 58.2789 75.4047 57.8277C75.5499 57.2885 75.2302 56.7341 74.6911 56.5892ZM68.2806 10.2849C68.6356 9.99654 69.0942 9.94155 69.5073 10.1383C69.9174 10.3334 70.1628 10.7201 70.1663 11.1733L68.213 13.3754C67.8425 13.793 67.8808 14.4318 68.2984 14.8022C68.4909 14.973 68.7304 15.0568 68.9688 15.0568C69.2477 15.0568 69.5256 14.9419 69.7253 14.7168L70.1669 14.219V32.4016C68.8047 30.1723 67.1269 28.0969 65.1521 26.2279C64.124 25.2549 63.0359 24.3596 61.8979 23.5413L66.8601 17.947C67.2306 17.5293 67.1923 16.8906 66.7747 16.5201C66.357 16.1498 65.7181 16.188 65.3478 16.6055L60.2041 22.4044C58.8756 21.5746 57.4875 20.8459 56.0506 20.2219L68.2806 10.2849ZM16.4926 10.1382C16.9058 9.94155 17.3643 9.99654 17.7193 10.2848L29.9493 20.2218C28.5124 20.8459 27.1244 21.5744 25.7958 22.4044L15.8336 11.1732C15.8372 10.72 16.0826 10.3333 16.4926 10.1382ZM15.8331 14.2188L24.1021 23.5412C22.9642 24.3595 21.8761 25.2546 20.848 26.2277C18.8731 28.0968 17.1953 30.1723 15.8331 32.4016V14.2188ZM70.8932 55.8486C64.7049 54.9791 57.2364 55.189 56.855 55.2005C56.2971 55.2173 55.8583 55.6832 55.8752 56.2411C55.892 56.7991 56.3567 57.2364 56.9158 57.221C57.0049 57.2183 64.1706 57.0171 70.1368 57.788C69.479 59.2966 68.6848 60.7393 67.7675 62.1014C61.8075 59.8982 55.5849 58.6704 55.25 58.6052C54.7022 58.4986 54.1713 58.8561 54.0646 59.4041C53.9579 59.952 54.3155 60.4827 54.8635 60.5894C54.9412 60.6045 60.8217 61.7645 66.5247 63.8045C61.172 70.5818 52.6195 74.9784 42.9999 74.9784C33.3805 74.9784 24.8281 70.582 19.4754 63.8048C25.1767 61.7657 31.0587 60.6045 31.1364 60.5893C31.6843 60.4826 32.0419 59.9519 31.9351 59.4039C31.8283 58.8561 31.2979 58.4988 30.7498 58.6052C30.4149 58.6704 24.1923 59.8982 18.2323 62.1014C17.315 60.7393 16.5208 59.2966 15.8629 57.7877C21.8289 57.017 28.9946 57.218 29.0838 57.2209C29.6424 57.2414 30.1076 56.7989 30.1245 56.241C30.1413 55.6831 29.7027 55.2171 29.1446 55.2003C28.7631 55.1888 21.2946 54.9789 15.1063 55.8486C14.1724 53.146 13.6654 50.263 13.6654 47.2697C13.6654 31.9911 26.8248 19.5609 42.9998 19.5609C59.1747 19.5609 72.3341 31.9911 72.3341 47.2697C72.3341 50.263 71.827 53.146 70.8932 55.8486Z" fill="#4E3D35"/>
</g>
</g>
<defs>
<clipPath id="clip0">
<rect width="84" height="84" fill="white" transform="translate(0.5)"/>
</clipPath>
<clipPath id="clip1">
<rect width="69" height="69" fill="white" transform="translate(8.5 8)"/>
</clipPath>
</defs>
</svg>
