<svg width="84" height="84" viewBox="0 0 84 84" fill="none" xmlns="http://www.w3.org/2000/svg">
<g clip-path="url(#clip0)">
<path d="M67.7734 59.9626C67.5942 60.2421 67.3672 60.4879 67.1027 60.6888C66.8088 60.903 66.4945 61.0879 66.1643 61.2407C66.0968 61.2594 66.0391 61.3035 66.0033 61.3638C65.9676 61.424 65.9565 61.4958 65.9724 61.564C65.9938 61.7131 65.9964 61.8659 66.0153 62.0162C66.1353 62.9736 65.9357 63.8463 65.3169 64.6003C64.7788 65.2558 64.237 65.91 63.5487 66.4228C63.0248 66.8408 62.3969 67.108 61.7325 67.1958C61.3011 67.2568 60.8614 67.1877 60.4695 66.9975C59.7761 66.6426 59.5917 66.0288 59.9504 65.3152C60.1802 64.896 60.5143 64.5432 60.9204 64.2909C61.3612 63.9869 61.7618 63.6283 62.1126 63.2236C62.3087 63.0165 62.4301 62.7498 62.4574 62.4658C62.4713 62.3054 62.5016 62.1463 62.5282 61.9695C62.393 61.9429 62.2541 61.924 62.1215 61.8861C61.7754 61.7889 61.49 61.6057 61.3763 61.2432C61.3738 61.215 61.3642 61.1877 61.3485 61.1641C61.3328 61.1404 61.3114 61.1211 61.2863 61.1078C61.2612 61.0945 61.2332 61.0877 61.2048 61.0879C61.1764 61.0882 61.1485 61.0956 61.1237 61.1094C60.0464 61.4137 58.9261 61.4011 57.8273 61.5476C56.6767 61.6992 55.5261 61.8495 54.3793 62.0314C52.1134 62.3888 49.8438 62.6742 47.5439 62.7096C46.0776 62.7311 44.615 62.7172 43.1512 62.6452C42.041 62.5909 40.9296 62.5795 39.8181 62.5669C39.6918 62.5669 39.5984 62.5669 39.5769 62.7222C39.5706 62.7628 39.5516 62.8004 39.5226 62.8296C39.2599 63.0822 39.3647 63.3853 39.419 63.6796C39.4405 63.7996 39.5112 63.8425 39.6312 63.845C39.8737 63.8526 40.1162 63.8627 40.3574 63.8892C40.7118 63.9259 41.0442 64.0781 41.3034 64.3224C41.4098 64.4185 41.491 64.5392 41.5397 64.674C41.5883 64.8088 41.6031 64.9535 41.5825 65.0954C41.4853 66.0805 40.8778 66.6565 39.8143 66.7373C38.9863 66.7979 38.1542 66.7041 37.3603 66.4607C36.6682 66.251 36.3171 65.7282 36.0973 65.0979C35.7997 64.2877 35.7103 63.4156 35.8372 62.5618C35.87 62.3534 35.8599 62.3711 35.6351 62.3092C35.5529 62.2782 35.4624 62.2768 35.3792 62.3051C35.2961 62.3335 35.2253 62.3898 35.1791 62.4646C34.458 63.36 33.7077 64.2328 33.1937 65.2785C32.9591 65.7503 32.6373 66.1733 32.2452 66.5251C31.5644 67.1452 30.7675 67.317 29.8821 67.1566C29.6743 67.1102 29.4799 67.0169 29.3138 66.8838C29.1841 66.7939 29.0819 66.6698 29.0186 66.5254C28.9553 66.3809 28.9333 66.2216 28.9551 66.0654C28.9872 65.7114 29.1215 65.3744 29.3415 65.0954C29.5979 64.7828 29.8953 64.5062 30.2256 64.2732C30.5832 64.0268 30.8991 63.7249 31.1615 63.379C31.4147 63.0245 31.5475 62.5982 31.5404 62.1627C31.5404 61.9202 31.5265 61.6752 31.6528 61.4415C31.0883 61.2925 30.5313 61.1498 29.9781 60.9982C29.3845 60.8353 28.7846 60.7027 28.1973 60.5195C26.8727 60.1296 25.681 59.3823 24.7531 58.3598C23.8563 57.362 22.9002 56.416 21.9858 55.4322C21.5272 54.9479 21.1125 54.4238 20.7468 53.8661C20.3852 53.3055 19.9721 52.78 19.5129 52.2961C19.0948 51.8554 18.7551 51.3489 18.3951 50.8652C18.2454 50.6659 18.1415 50.436 18.0907 50.192C18.0617 50.0657 18.0023 50.0518 17.9 50.077L17.6651 50.1351C17.002 50.3094 16.344 50.2526 15.686 50.1099C14.8751 49.9331 14.2967 49.4443 13.8736 48.7522C13.789 48.6145 13.7473 48.4149 13.621 48.348C13.4947 48.2811 13.3317 48.4326 13.1802 48.4743C12.7874 48.5918 12.3971 48.4996 12.0069 48.4617C11.7958 48.4404 11.5891 48.3885 11.393 48.3076C11.0493 48.1788 10.7607 47.9351 10.5759 47.618C10.2917 47.1241 10.0391 46.6152 10.0442 46.0304C10.0278 45.4936 10.1237 44.9593 10.3258 44.4617C10.3864 44.3253 10.3612 44.2736 10.2349 44.2091C9.90017 44.0437 9.568 43.8719 9.24594 43.6837C8.55815 43.2608 7.8964 42.7968 7.26429 42.2944C6.95864 42.0633 6.65679 41.8246 6.34483 41.601C5.73253 41.1533 5.18399 40.6243 4.71429 40.0286C4.25835 39.4603 3.76957 38.9222 3.277 38.3867C2.94728 38.0597 2.59985 37.7511 2.23628 37.4622C2.10998 37.3548 1.99253 37.399 1.86623 37.4091C1.26125 37.4597 0.750996 37.2765 0.364518 36.7953C0.134777 36.5219 0.00670721 36.1774 0.00203635 35.8203C-0.0170401 35.3531 0.0982386 34.8902 0.334206 34.4866C0.444208 34.2918 0.605255 34.1308 0.799997 34.0209C0.994738 33.911 1.21579 33.8562 1.43933 33.8626C1.78601 33.8548 2.13041 33.9207 2.44973 34.0559C2.77492 34.1773 3.04624 34.4106 3.21511 34.7139C3.23908 34.7734 3.28139 34.8237 3.33589 34.8576C3.3904 34.8914 3.45426 34.907 3.51823 34.9021C3.89713 34.9021 4.26467 34.9172 4.63851 34.9488C5.02223 34.9684 5.40683 34.9353 5.78153 34.8503C6.49386 34.7114 7.21125 34.5901 7.90211 34.3565C8.55303 34.142 9.18854 33.8834 9.80419 33.5822C10.3043 33.3358 10.7712 33.0268 11.1935 32.6628C12.0321 31.934 12.8846 31.2204 13.6917 30.4563C13.7709 30.3948 13.8344 30.3153 13.8768 30.2243C13.9192 30.1334 13.9393 30.0337 13.9355 29.9334C13.9375 29.762 13.9527 29.591 13.9809 29.4219C14.0024 29.2236 14.0453 29.0367 14.2601 28.9584C14.4748 28.8801 14.6478 28.99 14.7943 29.1933C15.0032 28.8787 15.2491 28.5903 15.5268 28.3345C15.3551 28.0932 15.1833 27.8697 15.0317 27.6323C14.8006 27.2723 14.663 26.8744 14.8132 26.4539C15.0254 25.8691 15.518 25.4536 16.1697 25.8135C16.3927 25.9312 16.6041 26.0694 16.8012 26.2265C16.9881 26.3806 17.1713 26.5398 17.3734 26.7115L17.6853 26.5044C17.5704 26.334 17.4318 26.1809 17.2736 26.0497C16.9616 25.7782 16.6294 25.5294 16.3427 25.2275C15.7529 24.6086 15.7239 23.5313 16.3251 22.9187C17.1372 22.0915 18.0768 21.465 19.2489 21.2516C19.595 21.1884 19.936 21.0937 20.2795 21.0091C20.5172 20.9609 20.7595 20.9397 21.0019 20.9459C21.8065 20.9308 22.5858 21.1013 23.3575 21.297C23.8753 21.4233 24.3893 21.5711 24.8996 21.7328C25.4407 21.9006 25.9469 22.1651 26.3937 22.5133C26.8635 22.8808 27.394 23.16 27.8525 23.5439C28.0293 23.693 28.2187 23.8294 28.3905 23.9847C28.4878 24.0719 28.5459 24.0744 28.633 23.9721C28.9082 23.6489 29.2076 23.347 29.5285 23.069C29.5805 23.0209 29.6348 22.9753 29.6914 22.9326C29.9213 22.7646 30.1852 22.7899 30.3355 22.992C30.3737 23.0454 30.4007 23.106 30.4147 23.1701C30.4286 23.2342 30.4294 23.3006 30.4169 23.365C30.4043 23.4294 30.3788 23.4906 30.3418 23.5448C30.3048 23.5991 30.2571 23.6452 30.2017 23.6803C29.8455 23.8862 29.5765 24.1855 29.2872 24.4684C29.0801 24.668 29.094 24.6819 29.2961 24.8701C29.8896 25.4331 30.5131 25.9634 31.1641 26.4589C31.7565 26.9192 32.2404 27.5044 32.5811 28.1728C33.0333 29.0026 33.4097 29.8564 33.584 30.7898C33.7418 31.6284 33.8063 32.4733 33.6294 33.3158C33.4956 33.9473 33.2215 34.5143 32.6847 34.9337C33.0813 35.1938 33.517 35.3505 33.9389 35.5349C35.1871 36.1051 36.5027 36.5142 37.8542 36.7524C38.3821 36.837 38.9176 36.8686 39.4468 36.9507C40.5129 37.1229 41.5502 37.4408 42.5298 37.8954C44.1651 38.6525 45.9393 39.0631 47.7409 39.1016C48.3671 39.0969 48.9907 39.0219 49.6001 38.878C50.819 38.626 52.07 38.568 53.307 38.7062C53.7266 38.7752 54.1573 38.7009 54.5296 38.4953C55.1257 38.148 55.7926 38.028 56.4746 37.9901C58.1683 37.9055 59.8632 37.8247 61.5607 37.7944C62.023 37.7855 62.4865 37.7224 62.95 37.6744C63.1918 37.6463 63.4236 37.5619 63.627 37.4281C64.0233 37.1662 64.4591 36.9696 64.9178 36.8458C65.5184 36.6978 66.1445 36.6857 66.7504 36.8105C66.9196 36.8446 67.032 36.8307 67.1065 36.6476C67.224 36.3571 67.4678 36.2017 67.7544 36.0956C68.157 35.9596 68.5787 35.8889 69.0036 35.886C69.6199 35.8645 70.2363 35.8733 70.8526 35.8695C71.0748 35.8767 71.2961 35.9016 71.5144 35.9441C71.6898 35.9686 71.8586 36.0282 72.0105 36.1193C72.1624 36.2104 72.2943 36.3313 72.3985 36.4745C72.6953 36.8534 72.9264 37.2639 72.9694 37.7539C72.982 37.8929 73.03 37.9484 73.1753 37.9434C73.4591 37.9103 73.7453 37.9822 73.9798 38.1455C74.0834 38.225 74.1238 38.1265 74.168 38.0684C74.4206 37.7375 74.6934 37.4281 74.9561 37.1073C75.6798 36.2232 76.4603 35.3909 77.1259 34.4613C77.3894 34.1038 77.6275 33.7282 77.8383 33.3372C78.2273 32.5933 78.7034 31.9025 79.1139 31.1724C79.7555 30.0357 80.2354 28.827 80.7141 27.6158C81.0471 26.7812 81.2815 25.9106 81.4125 25.0216C81.4567 24.7122 81.4896 24.4002 81.5047 24.0883C81.5287 23.6247 81.5502 23.1587 81.5439 22.699C81.5259 21.6264 81.3118 20.5661 80.9124 19.5705C80.732 19.1533 80.6129 18.7121 80.5588 18.2608C80.5283 18.0295 80.5424 17.7946 80.6004 17.5687C80.6289 17.4583 80.6818 17.3558 80.7553 17.2688C80.8288 17.1818 80.921 17.1124 81.0251 17.0659C81.1291 17.0195 81.2422 16.997 81.3561 17.0003C81.47 17.0036 81.5817 17.0325 81.6828 17.0849C81.872 17.1825 82.0345 17.3247 82.1565 17.4992C82.4749 17.9314 82.7065 18.4212 82.8385 18.9415C83.0456 19.6993 83.2616 20.4571 83.4043 21.2314C83.6461 22.4304 83.7562 23.6522 83.7327 24.8751C83.6937 25.4703 83.5934 26.0599 83.4333 26.6345C82.8952 28.7991 82.1526 30.9077 81.2155 32.9318C80.8405 33.7261 80.4078 34.4918 79.9209 35.2229C79.5586 35.7703 79.2309 36.3397 78.9396 36.9279C78.4975 37.8449 77.9822 38.7277 77.6021 39.675C77.3811 40.2256 77.1461 40.7738 77.0489 41.3674C77.0186 41.5543 77.0489 41.7551 76.9352 41.9244C76.8923 41.9863 76.9415 42.0418 76.968 42.0911C77.4139 42.936 77.6185 43.8467 77.7082 44.7876C77.7773 45.6245 77.7236 46.467 77.549 47.2883C77.1972 48.979 76.6203 50.6148 75.8339 52.1522C75.4714 52.8771 74.9902 53.5301 74.5431 54.2007C73.9747 55.0533 73.5428 55.969 73.1247 56.9048C72.9808 57.2398 72.9048 57.5999 72.9012 57.9645C72.8734 58.9951 72.809 60.0219 72.6903 61.0462C72.6498 61.3872 72.6385 61.7308 72.6094 62.073C72.5699 62.4761 72.4537 62.8679 72.2672 63.2274C72.055 63.6518 71.8504 64.0812 71.6066 64.4904C71.0294 65.4503 70.2388 66.15 69.1311 66.4481C68.64 66.5757 68.1253 66.5831 67.6307 66.4695C67.3845 66.4223 67.1646 66.2852 67.0139 66.085C66.8631 65.8847 66.7921 65.6355 66.8148 65.3859C66.8314 65.0217 66.9312 64.6661 67.1065 64.3464C67.2876 64.0318 67.4991 63.7356 67.738 63.4623C67.9621 63.2021 68.1625 62.9222 68.3367 62.6262C68.4697 62.4038 68.5445 62.1515 68.5542 61.8926C68.5639 61.6337 68.5082 61.3764 68.3923 61.1447C68.2053 60.7532 67.9894 60.3768 67.7734 59.9626ZM16.954 43.0548C17.449 42.9581 17.931 42.8039 18.3901 42.595C18.8548 42.3727 19.3259 42.1643 19.7945 41.9522C20.4197 41.668 21.0575 41.3926 21.6095 40.986C22.3748 40.4265 23.1162 39.8316 23.8664 39.2506C24.0092 39.1395 24.1317 38.998 24.3135 38.9475C24.4209 38.9172 24.4196 38.8414 24.3969 38.7568C24.3653 38.6393 24.3401 38.5206 24.3009 38.4057C24.1092 37.7885 23.9947 37.1501 23.9599 36.5048C23.9119 35.9782 23.9599 35.4553 23.97 34.9299C23.9852 33.4446 24.3489 32.0351 24.8945 30.6635C24.9476 30.5308 24.9577 30.4601 24.8251 30.3679C24.2972 29.9754 23.7084 29.6724 23.0821 29.4712C22.2595 29.2329 21.457 28.9297 20.6824 28.5643C19.8375 28.1614 18.9496 27.8268 18.2347 27.1321C18.209 27.1809 18.1767 27.226 18.1387 27.266C18.0583 27.3178 18.0016 27.3992 17.9808 27.4926C17.96 27.586 17.9768 27.6838 18.0276 27.7649C18.1031 27.9544 18.1262 28.1607 18.0945 28.3623C18.0892 28.5666 18.0091 28.7618 17.8695 28.9111C17.7298 29.0603 17.5402 29.1531 17.3367 29.1719C17.0337 29.2029 16.728 29.1504 16.4526 29.0203C16.2215 28.9306 16.2177 28.9205 16.0472 29.1011C15.6291 29.5406 15.2995 30.0534 14.8941 30.5043C14.7994 30.6104 14.8335 30.6912 14.9446 30.743C15.0331 30.7932 15.1342 30.8167 15.2357 30.8106C15.3372 30.8046 15.4348 30.7692 15.5167 30.7089C15.6632 30.6003 15.8034 30.4841 15.9575 30.3894C16.0306 30.3419 16.1175 30.3203 16.2043 30.3281C16.2911 30.3359 16.3728 30.3726 16.4362 30.4323C16.5029 30.4879 16.5509 30.5628 16.5735 30.6466C16.5961 30.7305 16.5923 30.8193 16.5625 30.9009C16.5298 31.0191 16.4593 31.1234 16.3617 31.1977C16.2275 31.3053 16.0879 31.406 15.9436 31.4996C15.6987 31.6538 15.4118 31.7277 15.1229 31.7109C14.8339 31.6942 14.5575 31.5876 14.332 31.4061C14.1552 31.2659 14.1527 31.2621 13.9734 31.4288C13.285 32.0692 12.5626 32.6691 11.8553 33.288C11.3595 33.7185 10.8138 34.0878 10.2298 34.388C9.78903 34.6179 9.32172 34.7796 8.86704 34.9728C8.01578 35.3353 7.11399 35.5134 6.21474 35.6965C5.555 35.8508 4.87409 35.8935 4.20025 35.8228C4.0108 35.7976 3.82135 35.8152 3.62559 35.8089C3.51192 35.8089 3.43614 35.8253 3.41466 35.9617C3.36345 36.2517 3.23222 36.5216 3.03576 36.741C2.87536 36.9317 2.8981 36.9418 3.09639 37.0846C3.43796 37.337 3.75932 37.6157 4.05753 37.9181C4.53543 38.3982 4.98658 38.9042 5.40894 39.4337C5.84563 39.9891 6.35545 40.4827 6.92454 40.9013C7.22135 41.1123 7.50931 41.3346 7.79475 41.5594C8.77578 42.355 9.8465 43.0332 10.9851 43.5802C11.1387 43.656 11.3055 43.7015 11.4764 43.714C12.3944 43.7702 13.3159 43.7121 14.2196 43.541C14.4787 43.4976 14.7247 43.3966 14.9395 43.2455C15.4309 42.8906 15.926 42.542 16.4135 42.182C16.73 41.9593 16.9683 41.6424 17.0942 41.2765C17.1223 41.2235 17.1306 41.1622 17.1176 41.1037C17.1047 41.0451 17.0713 40.9931 17.0235 40.9569C16.8798 40.8438 16.7665 40.6966 16.6939 40.5288C16.6416 40.4291 16.6256 40.3144 16.6487 40.2042C16.6717 40.0941 16.7323 39.9954 16.8202 39.925C17.0071 39.7836 17.2129 39.7987 17.4251 39.9781C17.5514 40.0854 17.6929 40.1587 17.8179 40.2572C17.9164 40.3454 18.0417 40.3979 18.1736 40.4064C18.3055 40.4149 18.4365 40.3788 18.5454 40.3039C18.5891 40.2781 18.6377 40.2614 18.6881 40.2551C18.7385 40.2488 18.7897 40.253 18.8384 40.2673C18.9181 40.2845 18.9915 40.3235 19.0503 40.3799C19.1092 40.4363 19.1513 40.508 19.1719 40.5869C19.1946 40.665 19.1948 40.7479 19.1724 40.8261C19.1501 40.9043 19.1061 40.9746 19.0456 41.0289C18.8404 41.2143 18.5731 41.3157 18.2966 41.3131C18.0781 41.3131 18.0023 41.4179 17.943 41.5985C17.7816 42.0808 17.4815 42.5047 17.0803 42.8173C17.0113 42.8597 16.9522 42.9166 16.9073 42.984C16.858 42.9929 16.781 43.0308 16.7974 43.056C16.8265 43.1204 16.8921 43.0851 16.9427 43.0636C16.9467 43.0609 16.9504 43.058 16.954 43.0548ZM18.8637 49.7992C18.8659 50.0374 18.9595 50.2658 19.1251 50.437C19.4535 50.8159 19.7491 51.2302 20.1014 51.5939C20.6233 52.1327 21.0919 52.7206 21.5008 53.3495C21.8635 53.8966 22.2739 54.4105 22.7272 54.8853C23.2261 55.4157 23.7515 55.921 24.234 56.4628C24.7518 57.045 25.3037 57.5995 25.8418 58.1539C26.2736 58.5958 26.7842 58.953 27.3473 59.2073C28.1134 59.5455 28.9108 59.8077 29.728 59.9903C31.2638 60.3692 32.7807 60.8239 34.3329 61.146C35.9749 61.4876 37.6471 61.6632 39.3243 61.6701C40.7679 61.6701 42.2128 61.6916 43.6564 61.7724C45.6355 61.8836 47.6146 61.8217 49.5925 61.7282C50.5536 61.6828 51.5009 61.5375 52.4519 61.4125C53.7932 61.2357 55.1257 61.002 56.467 60.8265C57.4387 60.6993 58.4116 60.5898 59.3858 60.4981C60.02 60.4571 60.6464 60.3357 61.25 60.1369C61.2976 60.1232 61.3408 60.0974 61.3754 60.062C61.4099 60.0266 61.4346 59.9827 61.447 59.9348C61.574 59.5819 61.7373 59.2433 61.9345 58.9244C62.1783 58.5051 62.4019 58.0756 62.6166 57.6412C63.2329 56.3996 63.7533 55.1265 64.0172 53.7549C64.2227 52.6536 64.4982 51.5664 64.842 50.5002C65.0119 50.0475 65.149 49.5832 65.2524 49.1109C65.3338 48.6439 65.4486 48.1834 65.596 47.7329C65.914 46.7833 66.079 45.7891 66.0848 44.7876C66.0848 44.1713 66.0848 43.5549 66.0961 42.9386C66.0968 42.6762 66.1107 42.414 66.1378 42.153C66.2275 41.5436 66.3634 40.9419 66.5445 40.3532C66.7215 39.6258 66.7955 38.8771 66.7643 38.1291C66.7643 37.831 66.6544 37.7173 66.3677 37.6769C65.5897 37.5626 64.797 37.7428 64.1448 38.1821C63.8065 38.4051 63.4206 38.5457 63.0182 38.5926C62.7479 38.6254 62.4764 38.6494 62.2048 38.6759C61.4192 38.7555 60.6299 38.729 59.843 38.7555C58.7631 38.7921 57.6845 38.8654 56.6047 38.9071C55.9732 38.9311 55.3783 39.0334 54.8365 39.3567C54.349 39.6459 53.8337 39.6838 53.288 39.6207C52.1726 39.4888 51.0434 39.5315 49.9411 39.747C49.1984 39.8935 48.4571 40.0412 47.6917 40.0223C45.7792 39.9698 43.8971 39.5312 42.1585 38.7328C41.281 38.3219 40.3518 38.0321 39.3963 37.8714C38.8772 37.7893 38.3505 37.7716 37.8352 37.6731C36.816 37.4799 35.8043 37.2664 34.8305 36.8774C33.9936 36.5532 33.1793 36.1735 32.393 35.7407C32.3614 35.723 32.3285 35.6927 32.2869 35.7294C32.2763 35.8087 32.2837 35.8894 32.3083 35.9655C32.4593 36.7073 32.6866 37.4315 32.9866 38.1265C33.3137 38.9083 33.6736 39.675 33.949 40.4782C34.4783 42.0252 34.5937 43.6837 34.2837 45.289C34.0194 46.6384 33.5608 47.9424 32.9221 49.1601C32.5507 49.892 32.0412 50.5452 31.4217 51.0837C30.285 52.0625 28.9917 52.5007 27.4988 52.2444C26.1184 52.0082 25.161 51.2188 24.5762 49.9558C24.2982 49.3392 24.0959 48.6912 23.9738 48.0259C23.9648 47.9175 23.9292 47.813 23.8702 47.7215C22.2584 48.5442 20.5844 49.2389 18.8637 49.7992ZM33.5145 43.7658C33.5647 42.4698 33.3193 41.1793 32.7971 39.992C32.523 39.3415 32.2313 38.6974 31.9736 38.0394C31.6012 37.11 31.3655 36.1315 31.2739 35.1345C31.2756 35.0552 31.2495 34.9779 31.2001 34.9158C31.1508 34.8538 31.0813 34.8109 31.0037 34.7947C30.0005 34.4682 29.0966 33.8924 28.3766 33.1213C28.0789 32.8046 27.7525 32.5163 27.4016 32.2599C26.8875 31.881 26.3773 31.5021 25.8658 31.1232C25.6523 30.9666 25.6473 30.9678 25.5639 31.2078C25.55 31.2457 25.5412 31.2848 25.5298 31.324C25.3114 32.0591 25.1343 32.8059 24.9994 33.5608C24.8629 34.2984 24.873 35.0473 24.8579 35.7938C24.8284 36.606 24.9369 37.4174 25.1787 38.1935C25.2722 38.4802 25.3378 38.777 25.4035 39.0776C25.5979 39.874 25.645 40.6993 25.5424 41.5126C25.4616 42.0822 25.3441 42.6493 25.209 43.2038C24.9463 44.295 24.7366 45.3888 24.7404 46.5217C24.7383 47.585 24.9657 48.6362 25.4073 49.6034C26.1019 51.1291 27.3649 51.5358 28.8174 51.3843C29.4732 51.2963 30.09 51.0219 30.5944 50.5936C31.1523 50.1426 31.6232 49.5934 31.9837 48.9732C32.2711 48.4631 32.5144 47.9294 32.7112 47.378C33.176 46.1643 33.5751 44.9366 33.5158 43.7658H33.5145ZM76.8354 45.4014C76.841 45.1414 76.8228 44.8814 76.7811 44.6247C76.6687 43.6698 76.4022 42.7605 75.8541 41.9623C75.3729 41.2537 74.8879 40.5427 74.2968 39.9149C74.099 39.7126 73.9236 39.4894 73.7739 39.2493C73.6913 39.1218 73.586 39.0105 73.4632 38.921C73.4092 38.8813 73.3454 38.8571 73.2787 38.8508C73.2119 38.8446 73.1448 38.8566 73.0843 38.8856C72.9833 38.9247 73.0237 39.0447 73.0224 39.1306C73.0146 39.4542 72.9723 39.7759 72.8961 40.0905C72.6019 41.3889 72.2356 42.6683 71.9918 43.9805C71.5384 46.4232 70.8551 48.8128 70.1756 51.1986C69.7576 52.6738 69.3408 54.149 68.9606 55.6343C68.6815 56.7305 68.5438 57.8559 68.2306 58.9446C68.2219 58.9784 68.2206 59.0138 68.2267 59.0482C68.2328 59.0826 68.2462 59.1153 68.266 59.1441C68.4478 59.4586 68.6209 59.7756 68.804 60.0926C68.9648 60.3372 69.1079 60.593 69.2322 60.858C69.3757 61.1764 69.4475 61.5225 69.4425 61.8717C69.4374 62.2209 69.3557 62.5647 69.2031 62.8788C69.0058 63.2652 68.7647 63.6275 68.4845 63.9587C68.2861 64.188 68.1054 64.432 67.9439 64.6887C67.8245 64.8769 67.7498 65.0899 67.7254 65.3114C67.7065 65.5463 67.7254 65.564 67.9502 65.612C68.2992 65.675 68.6581 65.6537 68.9972 65.5501C69.8182 65.2975 70.3865 64.7544 70.8185 64.0345C71.0559 63.6366 71.2568 63.2161 71.4664 62.8018C71.5794 62.5644 71.6564 62.3116 71.695 62.0516C71.7569 61.6815 71.7329 61.3064 71.7796 60.9351C71.8979 59.9629 71.9658 58.9853 71.983 58.0062C71.9874 57.4893 72.0969 56.9788 72.305 56.5057C72.7496 55.5206 73.203 54.5418 73.8206 53.6475C74.1718 53.1423 74.5191 52.6371 74.8209 52.0953C75.4375 50.9825 75.9281 49.8045 76.2835 48.5829C76.6191 47.5545 76.8041 46.4829 76.8329 45.4014H76.8354ZM69.9672 36.8042C69.654 36.8042 69.3357 36.7941 69.0276 36.8042C68.7144 36.8097 68.4027 36.8491 68.098 36.9216C68.0392 36.9331 67.9832 36.9564 67.9336 36.99C67.8839 37.0236 67.8416 37.0668 67.8091 37.1172C67.7765 37.1675 67.7545 37.2239 67.7442 37.283C67.734 37.342 67.7357 37.4026 67.7494 37.4609C67.7712 37.5392 67.7672 37.6225 67.738 37.6984C67.6711 37.8462 67.6466 38.0098 67.6673 38.1707C67.6974 39.1619 67.5651 40.1512 67.2758 41.0996C67.0692 41.777 66.9741 42.4833 66.9941 43.1912C67.0068 43.6458 66.9878 44.1005 66.9941 44.5552C67.0032 45.758 66.8089 46.9536 66.4195 48.0916C66.3157 48.3868 66.2367 48.6901 66.1833 48.9984C66.1001 49.4566 65.9828 49.9079 65.8322 50.3486C65.5796 51.1367 65.327 51.9236 65.1501 52.7331C65.0163 53.3444 64.8723 53.9532 64.746 54.5658C64.4934 55.7947 63.9478 56.9099 63.4211 58.034C63.1255 58.6655 62.7555 59.2565 62.4372 59.8754C62.3117 60.1065 62.2295 60.3586 62.1947 60.6193C62.1581 60.9553 62.2326 61.0525 62.5736 61.0386C63.1487 61.0228 63.7215 60.9599 64.2863 60.8504C64.7214 60.7635 65.1501 60.647 65.5695 60.5019C66.3475 60.2253 66.9802 59.7744 67.2796 58.9534C67.4577 58.4274 67.592 57.8875 67.6812 57.3393C67.9906 55.6974 68.3986 54.0871 68.8533 52.4869C69.1374 51.4891 69.4582 50.5001 69.7184 49.4948C70.1314 47.9022 70.5886 46.3221 70.9309 44.7131C71.229 43.3124 71.4702 41.8979 71.8769 40.5224C72.0952 39.7529 72.1726 38.9502 72.1055 38.1531C72.0965 37.7463 71.9475 37.3551 71.6837 37.0454C71.5922 36.9385 71.4662 36.867 71.3275 36.8433C70.8753 36.7562 70.4206 36.8042 69.9672 36.8042ZM32.8198 32.3256C32.8263 31.8121 32.7724 31.2996 32.6594 30.7986C32.4978 30.0193 32.1543 29.312 31.788 28.6149C31.4893 28.0274 31.0608 27.5156 30.5351 27.1182C29.6316 26.4371 28.7844 25.6844 28.0015 24.8675C27.8151 24.6823 27.6173 24.5089 27.4092 24.3484C26.8471 23.9026 26.2245 23.5427 25.6548 23.1069C25.3441 22.8809 24.9967 22.71 24.628 22.6017C23.7048 22.3036 22.7588 22.0965 21.8153 21.8869C21.3543 21.7713 20.8719 21.7713 20.4109 21.8869C19.9726 22.0043 19.5331 22.1167 19.0948 22.2291C18.3219 22.4287 17.6929 22.8821 17.1119 23.41C16.685 23.7978 16.68 24.3295 17.0942 24.7261C17.1662 24.7955 17.2483 24.8524 17.3228 24.9244C17.6739 25.2439 18.0705 25.5129 18.3547 25.9007C18.8109 26.5092 19.4159 26.9902 20.1115 27.2976C21.0449 27.732 21.9618 28.2044 22.9571 28.4772C24.0407 28.7727 24.9779 29.3297 25.862 29.9928C26.4859 30.4563 27.101 30.9325 27.7325 31.3821C28.1944 31.7088 28.6245 32.0784 29.017 32.486C29.5241 33.0235 30.1322 33.4557 30.8066 33.7578C31.1641 33.9182 31.5518 33.9776 31.9181 34.1114C32.206 34.2163 32.3487 34.1001 32.4953 33.8222C32.7336 33.3607 32.8456 32.8443 32.8198 32.3256ZM24.6255 39.8632C24.611 39.8525 24.5931 39.8478 24.5753 39.8499C24.5574 39.852 24.5411 39.8608 24.5295 39.8745C24.0117 40.2774 23.4939 40.6791 22.9785 41.0845C22.44 41.5274 21.8606 41.9181 21.2482 42.2515C20.4513 42.6658 19.6127 42.9866 18.8106 43.3882C18.1572 43.7073 17.4557 43.9168 16.7343 44.0083C16.2063 44.0828 15.6847 44.2091 15.1479 44.2268C15.0875 44.2315 15.0287 44.2482 14.9749 44.2761C14.8308 44.35 14.6739 44.3959 14.5127 44.4112C14.332 44.4201 14.2765 44.5211 14.2272 44.6638C14.2043 44.7407 14.1899 44.8199 14.1843 44.9C14.106 45.577 14.1653 46.2514 14.2234 46.9208C14.251 47.4578 14.4258 47.9769 14.7286 48.4212C14.9665 48.7872 15.3234 49.0598 15.739 49.193C16.5789 49.4455 17.3961 49.3369 18.2044 49.0667C18.673 48.9113 19.1314 48.7307 19.5937 48.5614C20.5971 48.2255 21.5761 47.8208 22.5239 47.3502C22.8725 47.1721 23.2362 47.0193 23.5962 46.8627C23.826 46.7642 23.8374 46.7705 23.8298 46.5255C23.8181 45.6065 23.9186 44.6895 24.1291 43.7949C24.2832 43.0661 24.4828 42.3462 24.599 41.6074C24.7 41.031 24.7089 40.4423 24.6255 39.8632ZM76.2153 40.8597C76.4325 40.1953 76.6624 39.5714 76.9276 38.9652C77.2282 38.2692 77.6109 37.615 77.938 36.9305C78.2788 36.2089 78.6683 35.5114 79.1038 34.8427C79.607 34.0975 80.0512 33.3142 80.4325 32.4999C81.3128 30.5816 82.0151 28.5865 82.5303 26.5398C82.6896 25.9736 82.7899 25.3925 82.8296 24.8057C82.8637 23.7321 82.7172 22.6699 82.5568 21.6128C82.4305 20.783 82.1426 19.9911 81.9645 19.1727C81.8883 18.8787 81.7714 18.5968 81.6171 18.3353C81.5818 18.2709 81.5679 18.1787 81.4593 18.1648C81.4593 18.2077 81.4593 18.2482 81.4593 18.2911C81.5215 18.6491 81.6271 18.9981 81.7738 19.3305C82.1025 20.1792 82.315 21.0684 82.4053 21.974C82.4949 22.7381 82.4053 23.506 82.3952 24.2727C82.3837 24.5266 82.3576 24.7796 82.3169 25.0305C82.1806 26.0209 81.9262 26.9915 81.5591 27.9215C81.0703 29.1719 80.5714 30.4172 79.9172 31.5943C79.5092 32.3256 79.0331 33.0202 78.639 33.7578C78.2021 34.544 77.6895 35.2855 77.1082 35.9718C76.3416 36.8989 75.5358 37.7893 74.7414 38.6898C74.5835 38.8679 74.5784 38.8768 74.7414 39.0561C75.2393 39.6001 75.7 40.1769 76.1206 40.7826C76.1498 40.8111 76.1815 40.8369 76.2153 40.8597ZM65.0504 61.5956L64.6955 61.6853C64.4535 61.7554 64.2058 61.8044 63.9553 61.8318C63.286 61.8773 63.392 61.775 63.3238 62.4633C63.2869 63.0098 63.064 63.5273 62.6923 63.9296C62.3367 64.3298 61.9333 64.6848 61.4912 64.9868C61.2172 65.1595 60.9806 65.3854 60.7953 65.6511C60.6008 65.9403 60.669 66.1563 61.0075 66.2472C61.2411 66.314 61.4867 66.3274 61.7261 66.2864C62.3892 66.1689 62.9285 65.8216 63.4022 65.372C63.8573 64.9411 64.2795 64.4767 64.6652 63.9827C64.9346 63.6388 65.0986 63.2243 65.1375 62.7892C65.1553 62.3893 65.1261 61.9887 65.0504 61.5956ZM38.5678 62.5782L36.8071 62.4519C36.6808 62.4418 36.6531 62.5252 36.6505 62.6237C36.643 62.846 36.6265 63.0683 36.6354 63.2893C36.6632 63.9147 36.8143 64.5285 37.08 65.0954C37.1391 65.2304 37.2295 65.3493 37.3437 65.4425C37.4579 65.5356 37.5926 65.6002 37.7367 65.6309C38.0873 65.7264 38.4457 65.7903 38.8077 65.8216C39.2195 65.8444 39.635 65.8822 40.0442 65.7812C40.1696 65.7612 40.2879 65.71 40.3883 65.6323C40.4887 65.5546 40.568 65.4529 40.6189 65.3366C40.7452 65.0373 40.6618 64.8744 40.3461 64.8087C40.1278 64.7657 39.9054 64.7467 39.683 64.7519C39.5419 64.76 39.4004 64.7486 39.2624 64.7178C38.8254 64.6003 38.6309 64.2669 38.5337 63.8678C38.4117 63.4447 38.4236 62.9943 38.5678 62.5782ZM13.3772 44.6436C13.3532 44.6259 13.3456 44.6146 13.3381 44.6146C12.6939 44.636 12.0511 44.6638 11.4069 44.631C11.1935 44.6196 11.1127 44.7017 11.0533 44.924C11.0127 45.0799 10.9815 45.238 10.9598 45.3976C10.8668 46.0224 11.013 46.6593 11.369 47.181C11.4112 47.262 11.4744 47.3301 11.5522 47.378C12.0273 47.6298 12.5802 47.6921 13.0994 47.5523C13.1183 47.5449 13.1369 47.5365 13.1549 47.5271C13.3734 47.426 13.3797 47.4247 13.352 47.1898C13.3047 46.7397 13.2845 46.2872 13.2913 45.8346C13.2913 45.433 13.352 45.0351 13.3772 44.6461V44.6436ZM34.3051 62.0503C33.6926 61.9354 33.1167 61.8192 32.5155 61.6638C32.4548 62.0591 32.3892 62.4216 32.3475 62.7904C32.3303 62.9815 32.2803 63.1682 32.1997 63.3424C31.9471 63.8475 31.6352 64.3212 31.1691 64.6698C30.9165 64.858 30.6639 65.0487 30.4277 65.2457C30.1897 65.4192 30.0051 65.6559 29.8947 65.929C29.8265 66.1273 29.8733 66.2132 30.0766 66.2548C30.3526 66.3227 30.6413 66.3199 30.916 66.2466C31.1906 66.1733 31.4423 66.0319 31.6478 65.8355C31.9657 65.539 32.2283 65.1884 32.4233 64.7999C32.8598 63.9559 33.3976 63.1683 34.0248 62.4545C34.146 62.3423 34.2416 62.2053 34.3051 62.0528V62.0503Z" fill="#4E3D35"/>
<path d="M16.8954 42.9949C16.9411 42.9276 17.0005 42.8708 17.0697 42.8281C17.4708 42.5156 17.7709 42.0916 17.9323 41.6093C17.9916 41.4287 18.0674 41.329 18.2859 41.3239C18.5624 41.3265 18.8297 41.2251 19.0349 41.0397C19.0954 40.9854 19.1394 40.9151 19.1617 40.8369C19.1841 40.7587 19.1839 40.6758 19.1612 40.5977C19.1406 40.5188 19.0985 40.4472 19.0397 40.3907C18.9808 40.3343 18.9074 40.2954 18.8277 40.2781C18.779 40.2638 18.7278 40.2597 18.6774 40.266C18.627 40.2723 18.5784 40.2889 18.5347 40.3148C18.4258 40.3896 18.2948 40.4257 18.1629 40.4172C18.031 40.4088 17.9057 40.3562 17.8072 40.268C17.6809 40.1695 17.5382 40.0963 17.4145 39.9889C17.2023 39.8058 16.9964 39.7944 16.8095 39.9359C16.7217 40.0062 16.661 40.1049 16.638 40.2151C16.6149 40.3252 16.6309 40.4399 16.6832 40.5396C16.7558 40.7075 16.8691 40.8546 17.0128 40.9677C17.0606 41.0039 17.094 41.056 17.1069 41.1145C17.1199 41.173 17.1116 41.2343 17.0835 41.2873C16.9576 41.6533 16.7194 41.9702 16.4028 42.1928C15.9153 42.5528 15.4202 42.9014 14.9289 43.2563C14.714 43.4074 14.468 43.5084 14.209 43.5518C13.3052 43.7229 12.3838 43.7811 11.4657 43.7249C11.2949 43.7123 11.128 43.6668 10.9744 43.591C9.83582 43.0441 8.7651 42.3659 7.78407 41.5702C7.49863 41.3454 7.21066 41.1231 6.91386 40.9122C6.34477 40.4936 5.83494 39.9999 5.39826 39.4446C4.97589 38.915 4.52474 38.409 4.04685 37.929C3.74863 37.6265 3.42728 37.3478 3.0857 37.0954C2.88741 36.9527 2.86468 36.9426 3.02508 36.7518C3.22153 36.5325 3.35277 36.2626 3.40398 35.9726C3.42545 35.8362 3.50123 35.816 3.6149 35.8197C3.80561 35.8261 4.00011 35.8084 4.18957 35.8336C4.8634 35.9043 5.54432 35.8616 6.20405 35.7073C7.10457 35.5242 8.00636 35.3461 8.85636 34.9836C9.31104 34.7904 9.77835 34.6287 10.2191 34.3989C10.8031 34.0986 11.3488 33.7293 11.8446 33.2988C12.5519 32.6799 13.2743 32.08 13.9627 31.4397C14.142 31.2729 14.1445 31.2767 14.3214 31.4169C14.5488 31.5996 14.8279 31.7061 15.1192 31.7213C15.4105 31.7365 15.6992 31.6596 15.9443 31.5015C16.087 31.4062 16.2249 31.3038 16.3573 31.1946C16.4549 31.1203 16.5255 31.0161 16.5581 30.8978C16.5879 30.8162 16.5917 30.7274 16.5691 30.6436C16.5465 30.5597 16.4986 30.4848 16.4318 30.4292C16.3684 30.3695 16.2867 30.3328 16.1999 30.325C16.1131 30.3172 16.0262 30.3388 15.9532 30.3863C15.7991 30.481 15.6589 30.5972 15.5124 30.7058C15.4302 30.7681 15.3316 30.8048 15.2288 30.8115C15.126 30.8183 15.0235 30.7947 14.9339 30.7437C14.8228 30.692 14.7887 30.6111 14.8834 30.505C15.2888 30.0541 15.6185 29.5414 16.0365 29.1018C16.207 28.9212 16.2108 28.9313 16.4419 29.021C16.7173 29.1512 17.023 29.2036 17.326 29.1726C17.5296 29.1538 17.7191 29.061 17.8588 28.9118C17.9984 28.7625 18.0785 28.5673 18.0838 28.363C18.1155 28.1614 18.0924 27.9551 18.0169 27.7656C17.9661 27.6845 17.9493 27.5867 17.9701 27.4933C17.9909 27.3999 18.0476 27.3185 18.128 27.2667C18.166 27.2267 18.1983 27.1816 18.224 27.1328C18.9389 27.8275 19.8268 28.1622 20.6717 28.5651C21.4463 28.9304 22.2488 29.2337 23.0714 29.4719C23.6977 29.6731 24.2866 29.9761 24.8144 30.3686C24.947 30.4608 24.9407 30.5316 24.8838 30.6642C24.342 32.0358 23.9745 33.4428 23.9593 34.9306C23.9593 35.456 23.9012 35.9789 23.9492 36.5056C23.984 37.1508 24.0986 37.7893 24.2902 38.4064C24.3294 38.5213 24.3546 38.64 24.3862 38.7575C24.409 38.8421 24.4102 38.9179 24.3029 38.9482C24.121 39 23.9985 39.1402 23.8558 39.2513C23.1055 39.8323 22.3642 40.4272 21.5988 40.9867C21.0431 41.3934 20.409 41.6687 19.7838 41.9529C19.3153 42.1651 18.8442 42.3735 18.3794 42.5957C17.924 42.8042 17.4459 42.9589 16.9547 43.0567L16.8954 42.9949ZM22.8315 37.1333C22.8403 36.9029 22.8006 36.6733 22.7149 36.4593C22.6292 36.2453 22.4993 36.0518 22.3338 35.8913C22.1683 35.7308 21.9709 35.607 21.7544 35.5278C21.5379 35.4487 21.3071 35.416 21.0772 35.432C20.608 35.4597 20.1635 35.6513 19.8211 35.9733C19.4788 36.2953 19.2604 36.7273 19.2041 37.1939C19.1513 37.5725 19.2303 37.9577 19.4279 38.2849C19.6254 38.6121 19.9295 38.8615 20.289 38.9911C21.4927 39.4117 22.8251 38.448 22.8315 37.1345V37.1333ZM20.5783 29.1524C20.2801 29.1319 19.9847 29.2218 19.7485 29.405C19.5633 29.5738 19.4063 29.7712 19.2837 29.9897C19.2225 30.0755 19.185 30.1759 19.175 30.2808C19.165 30.3857 19.1829 30.4914 19.2269 30.5871C19.3038 30.7635 19.4296 30.9143 19.5893 31.0216C19.924 31.2742 20.2625 31.5356 20.5997 31.7933C20.8961 32.0225 21.246 32.1725 21.6165 32.229C21.7356 32.2506 21.8579 32.2476 21.9759 32.2202C22.0938 32.1929 22.2049 32.1418 22.3025 32.07C22.4 31.9983 22.4819 31.9074 22.5431 31.8029C22.6043 31.6984 22.6435 31.5825 22.6584 31.4624C22.6945 31.2209 22.6478 30.9742 22.5258 30.7627C22.2385 30.2158 21.8175 29.7505 21.302 29.41C21.086 29.2653 20.8372 29.1772 20.5783 29.1536V29.1524ZM19.2142 34.6073C19.6424 34.5908 20.1198 34.3812 20.577 34.1147C20.6113 34.0926 20.642 34.0653 20.6679 34.0339C20.7231 33.9738 20.7598 33.899 20.7735 33.8185C20.7871 33.7381 20.7772 33.6554 20.745 33.5804C20.7167 33.5036 20.6648 33.4378 20.5967 33.3924C20.5286 33.347 20.4479 33.3244 20.3661 33.3278C20.2546 33.3237 20.1438 33.3462 20.0428 33.3935C19.8887 33.4655 19.7308 33.535 19.5717 33.5994C19.3109 33.7178 19.0146 33.7309 18.7444 33.636C18.6541 33.6148 18.5752 33.5604 18.5232 33.4837C18.4713 33.4069 18.4501 33.3134 18.464 33.2217C18.4666 33.1516 18.4729 33.0816 18.483 33.0121C18.5168 32.7212 18.5934 32.4369 18.7103 32.1684C18.7488 32.0852 18.7558 31.9908 18.7301 31.9027C18.7043 31.8147 18.6474 31.739 18.5701 31.6897C18.4878 31.6388 18.3899 31.6192 18.2944 31.6345C18.1989 31.6498 18.112 31.699 18.0497 31.7731C17.9985 31.8338 17.956 31.9014 17.9234 31.9739C17.7337 32.3769 17.6284 32.8144 17.614 33.2596C17.5966 33.5295 17.6701 33.7974 17.8228 34.0206C17.9755 34.2439 18.1986 34.4095 18.4564 34.4911C18.6995 34.5772 18.9565 34.617 19.2142 34.6085V34.6073Z" fill="#4E3D35" fill-opacity="0.6"/>
<path d="M33.516 43.7651C33.5754 44.9359 33.1763 46.1648 32.7191 47.3773C32.5223 47.9287 32.2789 48.4624 31.9916 48.9725C31.631 49.5927 31.1602 50.1419 30.6023 50.5929C30.0951 51.0191 29.476 51.2904 28.8189 51.3747C27.3703 51.5263 26.1073 51.1221 25.4088 49.5939C24.9673 48.6266 24.7398 47.5754 24.742 46.5122C24.742 45.3755 24.9478 44.2855 25.2105 43.1943C25.3457 42.6348 25.4631 42.0727 25.544 41.5031C25.6465 40.6897 25.5994 39.8645 25.405 39.068C25.3394 38.7725 25.2787 38.4757 25.1802 38.1839C24.94 37.4111 24.832 36.6032 24.8607 35.7944C24.8746 35.0479 24.8607 34.299 25.0021 33.5614C25.1371 32.8065 25.3142 32.0597 25.5326 31.3246C25.544 31.2855 25.5528 31.2463 25.5667 31.2084C25.6501 30.9684 25.6551 30.9672 25.8686 31.1238C26.3801 31.5027 26.8903 31.8816 27.4044 32.2605C27.7553 32.5169 28.0817 32.8052 28.3794 33.1219C29.0994 33.893 30.0033 34.4688 31.0065 34.7953C31.0841 34.8115 31.1536 34.8543 31.2029 34.9164C31.2523 34.9784 31.2784 35.0558 31.2767 35.1351C31.3683 36.1321 31.604 37.1106 31.9764 38.04C32.229 38.698 32.5258 39.3421 32.7999 39.9926C33.3215 41.1795 33.5664 42.4696 33.516 43.7651Z" fill="#4E3D35" fill-opacity="0.6"/>
<path d="M76.8334 45.3998C76.8079 46.4839 76.6254 47.5585 76.2915 48.5902C75.9361 49.8117 75.4456 50.9898 74.829 52.1026C74.5271 52.6381 74.1798 53.1496 73.8287 53.6548C73.2086 54.549 72.7551 55.5278 72.3131 56.513C72.105 56.9861 71.9954 57.4966 71.991 58.0134C71.9738 58.9926 71.906 59.9702 71.7877 60.9423C71.7409 61.3137 71.7649 61.6888 71.703 62.0588C71.6644 62.3188 71.5874 62.5717 71.4744 62.809C71.2648 63.2233 71.064 63.6439 70.8265 64.0417C70.4009 64.7553 69.8262 65.3047 69.0053 65.5573C68.6662 65.661 68.3072 65.6822 67.9583 65.6192C67.7309 65.5775 67.7145 65.5535 67.7334 65.3186C67.7578 65.0971 67.8325 64.8841 67.9519 64.696C68.1106 64.4365 68.2888 64.1895 68.4849 63.9571C68.766 63.6261 69.008 63.2637 69.2061 62.8772C69.3587 62.5631 69.4404 62.2193 69.4454 61.8701C69.4504 61.5209 69.3787 61.1748 69.2351 60.8564C69.1109 60.5914 68.9678 60.3357 68.807 60.0911C68.6238 59.7766 68.4508 59.4596 68.2689 59.1426C68.2492 59.1137 68.2358 59.081 68.2297 59.0466C68.2236 59.0122 68.2249 58.9769 68.2336 58.943C68.5468 57.8543 68.6845 56.729 68.9636 55.6327C69.3425 54.1474 69.7606 52.6722 70.1786 51.197C70.8556 48.8112 71.5414 46.4216 71.9948 43.979C72.2386 42.6667 72.6048 41.3873 72.8991 40.0889C72.9753 39.7744 73.0176 39.4526 73.0254 39.129C73.0254 39.0432 72.9863 38.9232 73.0873 38.884C73.1477 38.855 73.2149 38.843 73.2816 38.8493C73.3484 38.8555 73.4122 38.8797 73.4662 38.9194C73.589 39.0089 73.6943 39.1202 73.7769 39.2478C73.9266 39.4879 74.1019 39.711 74.2998 39.9134C74.8909 40.5449 75.3759 41.2521 75.8571 41.9607C76.3989 42.7589 76.6717 43.6683 76.7841 44.6231C76.8241 44.88 76.8406 45.14 76.8334 45.3998Z" fill="#4E3D35" fill-opacity="0.6"/>
<path d="M76.2156 40.8613C76.1815 40.8365 76.1498 40.8086 76.1209 40.778C75.7003 40.1722 75.2396 39.5954 74.7417 39.0515C74.58 38.8721 74.5851 38.8633 74.7417 38.6852C75.5361 37.7847 76.3419 36.8942 77.1085 35.9672C77.6897 35.2809 78.2024 34.5393 78.6393 33.7532C79.0384 33.0156 79.5095 32.3209 79.9174 31.5896C80.5742 30.4125 81.0731 29.1672 81.5593 27.9168C81.9265 26.9869 82.1809 26.0163 82.3171 25.0258C82.3579 24.775 82.384 24.5219 82.3955 24.268C82.4081 23.5014 82.4952 22.7335 82.4056 21.9694C82.3153 21.0638 82.1028 20.1745 81.7741 19.3259C81.6274 18.9935 81.5217 18.6444 81.4596 18.2865C81.4596 18.2473 81.4596 18.2069 81.4596 18.1602C81.5682 18.174 81.5859 18.2662 81.6174 18.3307C81.7717 18.5922 81.8886 18.8741 81.9648 19.168C82.1428 19.9865 82.4321 20.7784 82.5571 21.6082C82.7175 22.6653 82.864 23.7275 82.8299 24.801C82.7889 25.3854 82.6877 25.9639 82.5281 26.5275C82.0128 28.5743 81.3106 30.5694 80.4302 32.4876C80.049 33.302 79.6047 34.0853 79.1015 34.8305C78.6655 35.5037 78.276 36.2058 77.9358 36.9321C77.6112 37.6167 77.2285 38.2709 76.9254 38.9668C76.6627 39.5731 76.4328 40.197 76.2156 40.8613Z" fill="#4E3D35" fill-opacity="0.6"/>
<path d="M65.0505 61.5938C65.124 61.9866 65.1511 62.3868 65.1313 62.786C65.0924 63.2211 64.9284 63.6357 64.659 63.9796C64.2733 64.4736 63.8511 64.938 63.396 65.3689C62.9223 65.8185 62.3856 66.1658 61.72 66.2833C61.4805 66.3243 61.2349 66.3109 61.0013 66.2441C60.6691 66.1519 60.5946 65.9372 60.7891 65.648C60.9744 65.3823 61.211 65.1564 61.485 64.9836C61.9271 64.6816 62.3305 64.3266 62.6861 63.9265C63.0578 63.5241 63.2807 63.0067 63.3177 62.4602C63.3808 61.768 63.2747 61.8704 63.9492 61.8287C64.2017 61.8021 64.4515 61.7535 64.6956 61.6834L65.0505 61.5938Z" fill="#4E3D35" fill-opacity="0.6"/>
<path d="M38.5679 62.5801C38.4237 62.9962 38.4118 63.4466 38.5338 63.8697C38.6336 64.2688 38.8255 64.6022 39.2625 64.7197C39.4005 64.7505 39.542 64.762 39.6831 64.7538C39.9056 64.7486 40.1279 64.7676 40.3462 64.8106C40.6619 64.8763 40.7415 65.0392 40.619 65.3385C40.5681 65.4549 40.4888 65.5565 40.3884 65.6342C40.288 65.7119 40.1697 65.7631 40.0443 65.7831C39.6351 65.8842 39.2196 65.8463 38.8079 65.8235C38.4459 65.7922 38.0874 65.7284 37.7368 65.6328C37.5927 65.6021 37.458 65.5375 37.3438 65.4444C37.2296 65.3513 37.1392 65.2323 37.0801 65.0973C36.8139 64.5293 36.6628 63.9141 36.6355 63.2874C36.6266 63.0664 36.6431 62.8441 36.6506 62.6218C36.6506 62.5233 36.681 62.4399 36.8073 62.4501L38.5679 62.5801Z" fill="#4E3D35" fill-opacity="0.6"/>
<path d="M34.3054 62.0544C34.2421 62.2078 34.1465 62.3457 34.025 62.4586C33.3978 63.1724 32.86 63.96 32.4235 64.804C32.2285 65.1925 31.9659 65.5432 31.648 65.8396C31.4425 66.036 31.1908 66.1774 30.9162 66.2507C30.6415 66.324 30.3528 66.3268 30.0768 66.2589C29.8735 66.2173 29.8242 66.1326 29.8949 65.9331C30.0053 65.66 30.1899 65.4233 30.4279 65.2498C30.6692 65.0515 30.9192 64.8621 31.1693 64.6739C31.6354 64.3253 31.9448 63.8555 32.1999 63.3465C32.2805 63.1724 32.3305 62.9857 32.3477 62.7946C32.3932 62.427 32.4551 62.0633 32.5157 61.668C33.1207 61.8233 33.6928 61.9395 34.3054 62.0544Z" fill="#4E3D35" fill-opacity="0.6"/>
<path d="M16.9546 43.0567C16.9479 43.0641 16.9403 43.0705 16.9318 43.0757C16.8813 43.0972 16.8156 43.1326 16.7866 43.0681C16.774 43.0428 16.8472 43.0049 16.8965 42.9961L16.9546 43.0567Z" fill="#4E3D35" fill-opacity="0.6"/>
<path d="M22.8312 37.131C22.8312 38.4382 21.4924 39.4043 20.2888 38.9888C19.9292 38.8592 19.6251 38.6098 19.4276 38.2826C19.23 37.9554 19.151 37.5702 19.2038 37.1916C19.2601 36.725 19.4785 36.293 19.8208 35.971C20.1632 35.649 20.6077 35.4574 21.0769 35.4297C21.3068 35.4138 21.5376 35.4464 21.7541 35.5255C21.9706 35.6047 22.1681 35.7285 22.3335 35.889C22.499 36.0495 22.6289 36.243 22.7146 36.457C22.8003 36.671 22.8401 36.9006 22.8312 37.131ZM21.9319 37.131C21.9408 37.0147 21.9225 36.8981 21.8783 36.7902C21.8342 36.6823 21.7655 36.5862 21.6777 36.5096C21.5899 36.4329 21.4854 36.3778 21.3725 36.3487C21.2597 36.3195 21.1416 36.3171 21.0276 36.3416C20.7979 36.3807 20.5859 36.4899 20.4209 36.6543C20.2558 36.8187 20.1456 37.0303 20.1056 37.2598C20.08 37.3841 20.0853 37.5129 20.1213 37.6346C20.1572 37.7564 20.2225 37.8674 20.3115 37.9579C20.4005 38.0484 20.5105 38.1156 20.6316 38.1536C20.7528 38.1915 20.8814 38.199 21.0061 38.1755C21.2555 38.1324 21.4828 38.006 21.651 37.8169C21.8191 37.6279 21.9182 37.3874 21.9319 37.1348V37.131Z" fill="#4E3D35"/>
<path d="M20.5774 29.1519C20.8351 29.1747 21.083 29.2615 21.2986 29.4045C21.8141 29.7449 22.2351 30.2103 22.5224 30.7572C22.6444 30.9687 22.6911 31.2153 22.6551 31.4569C22.6402 31.577 22.6009 31.6929 22.5397 31.7974C22.4785 31.9018 22.3966 31.9927 22.2991 32.0645C22.2016 32.1362 22.0904 32.1874 21.9725 32.2147C21.8545 32.242 21.7322 32.245 21.6131 32.2235C21.2427 32.1669 20.8928 32.017 20.5964 31.7878C20.2617 31.5352 19.9232 31.275 19.586 31.0161C19.4262 30.9087 19.3005 30.758 19.2235 30.5816C19.1795 30.4858 19.1617 30.3802 19.1716 30.2753C19.1816 30.1704 19.2191 30.07 19.2803 29.9842C19.403 29.7657 19.5599 29.5682 19.7451 29.3994C19.9827 29.2175 20.279 29.1294 20.5774 29.1519Z" fill="#4E3D35"/>
<path d="M19.2138 34.6055C18.9537 34.6157 18.694 34.5767 18.4484 34.4905C18.1906 34.4089 17.9675 34.2433 17.8148 34.0201C17.6621 33.7969 17.5886 33.529 17.606 33.2591C17.6204 32.8139 17.7257 32.3763 17.9155 31.9734C17.948 31.9009 17.9905 31.8333 18.0418 31.7725C18.104 31.6985 18.1909 31.6493 18.2864 31.634C18.382 31.6187 18.4798 31.6383 18.5621 31.6892C18.6395 31.7385 18.6963 31.8142 18.7221 31.9022C18.7479 31.9902 18.7408 32.0846 18.7023 32.1679C18.5854 32.4363 18.5088 32.7207 18.475 33.0115C18.4649 33.081 18.4586 33.151 18.456 33.2212C18.4421 33.3129 18.4633 33.4064 18.5152 33.4831C18.5672 33.5599 18.6462 33.6143 18.7364 33.6355C19.0066 33.7304 19.303 33.7173 19.5637 33.5988C19.7228 33.5344 19.8807 33.465 20.0348 33.393C20.1358 33.3457 20.2466 33.3231 20.3581 33.3273C20.4399 33.3239 20.5206 33.3465 20.5887 33.3919C20.6568 33.4373 20.7087 33.5031 20.737 33.5799C20.7692 33.6549 20.7791 33.7375 20.7655 33.818C20.7518 33.8984 20.7152 33.9732 20.66 34.0333C20.634 34.0648 20.6033 34.0921 20.569 34.1141C20.1194 34.3794 19.642 34.589 19.2138 34.6055Z" fill="#4E3D35"/>
</g>
<defs>
<clipPath id="clip0">
<rect width="84" height="84" fill="white"/>
</clipPath>
</defs>
</svg>
