<svg width="84" height="84" viewBox="0 0 84 84" fill="none" xmlns="http://www.w3.org/2000/svg">
<path d="M44.4946 40.6006C44.6525 40.4097 44.7994 40.2308 44.9473 40.0529C45.0033 39.9849 45.0573 39.915 45.1172 39.853C45.3541 39.6011 45.6309 39.6081 45.8598 39.87C46.2709 40.3364 46.681 40.8058 47.0901 41.2782C47.7217 41.9998 48.3547 42.7213 48.989 43.4429C49.0597 43.5284 49.1446 43.6011 49.2399 43.6578C49.3299 43.7039 49.4035 43.7766 49.4507 43.866C49.498 43.9554 49.5165 44.0572 49.5037 44.1575C49.4949 44.2909 49.4989 44.4247 49.5157 44.5573C49.5627 45.2429 49.5897 45.9315 49.6646 46.6141C49.7429 47.3694 49.7612 48.1297 49.7196 48.8878C49.7096 49.0947 49.7196 49.3016 49.7196 49.5135C49.796 49.5205 49.8729 49.5049 49.9405 49.4685C51.2057 49.0537 52.477 48.653 53.7383 48.2172C54.1161 48.0863 54.4889 47.9464 54.8517 47.7795C55.3814 47.5356 55.919 47.3147 56.4687 47.1188C56.8587 46.9758 57.2396 46.809 57.6091 46.6191C57.9297 46.4572 58.2594 46.3141 58.5965 46.1904C59.0691 46.0173 59.5245 45.8005 59.9567 45.5427C60.2361 45.3717 60.533 45.231 60.8422 45.123C61.4099 44.9231 61.9336 44.6333 62.4823 44.3954C63.1819 44.0956 63.8685 43.7807 64.5661 43.4839C65.3297 43.1591 66.1152 42.8843 66.9008 42.6234C67.2918 42.5056 67.6935 42.4269 68.1001 42.3885C68.6718 42.3156 69.2304 42.1687 69.7991 42.1007C71.0234 41.9538 72.2547 41.8608 73.481 42.0347C74.3289 42.1516 75.1534 42.4001 75.9246 42.7713C76.4033 43.0014 76.809 43.3594 77.0969 43.8057C77.1395 43.8747 77.1855 43.9414 77.2349 44.0056C77.3411 44.126 77.4185 44.2691 77.4609 44.424C77.5033 44.5788 77.5098 44.7414 77.4797 44.8991C77.4627 44.9861 77.4897 45.024 77.5677 45.063C77.9065 45.2329 78.0464 45.5357 78.1044 45.8925C78.2177 46.5649 78.1767 47.2542 77.9844 47.9084C77.5417 49.4075 76.926 50.8187 76.0295 52.106C75.7597 52.4918 75.4829 52.8735 75.182 53.2373C74.8051 53.6842 74.4988 54.186 74.2736 54.7255C73.8948 55.66 73.3631 56.4965 72.7744 57.306C71.8291 58.5781 70.8078 59.792 69.7162 60.9409C69.3183 61.3452 68.8852 61.7131 68.4219 62.0403C68.0311 62.3321 67.6393 62.621 67.2606 62.9288C66.8818 63.2366 66.476 63.5285 66.0612 63.8103C65.7964 63.9882 65.5385 64.1781 65.2867 64.374C64.8185 64.7356 64.3164 65.0512 63.7875 65.3164C63.4387 65.4933 63.0879 65.6702 62.7521 65.8671C61.9696 66.3229 61.1411 66.6727 60.3065 67.0175C58.4696 67.777 56.5567 68.2697 54.6198 68.6925C52.9208 69.0623 51.2217 69.1283 49.4947 69.0123C49.2708 68.9973 49.048 68.9923 48.8241 68.9923C48.3124 68.9923 47.8007 68.9923 47.289 68.9923C46.7213 69 46.1551 68.9328 45.6049 68.7924C45.1702 68.6815 44.7204 68.6555 44.2867 68.5466C43.8529 68.4376 43.3732 68.3837 42.9515 68.1798C42.8645 68.1378 42.7965 68.1848 42.7246 68.2118C42.2608 68.3837 41.8101 68.5906 41.3254 68.7115C40.4756 68.9353 39.6118 69.1022 38.7399 69.2112C37.8824 69.3111 37.0358 69.2112 36.1953 69.0243C35.3958 68.8464 34.5962 68.6605 33.8107 68.4037C33.6889 68.3649 33.5698 68.3185 33.4539 68.2647C33.3407 68.2126 33.2417 68.1338 33.1655 68.0351C33.0893 67.9364 33.038 67.8208 33.0161 67.6981C32.9886 67.5846 32.9954 67.4655 33.0356 67.3559C33.0758 67.2463 33.1476 67.1512 33.242 67.0824C33.2913 67.0421 33.3458 67.0085 33.4039 66.9825C34.0715 66.6956 34.7032 66.3368 35.4028 66.118C35.8145 65.989 36.2283 65.8681 36.6301 65.7182C36.794 65.6552 36.9559 65.5873 37.1158 65.5183C37.1158 65.4324 37.0478 65.4314 37.0039 65.4094C36.6041 65.2095 36.2043 65.0096 35.8045 64.8097C34.6652 64.243 33.6178 63.5215 32.5384 62.8548C32.1996 62.646 31.9008 62.3741 31.577 62.1392C30.61 61.4357 29.6933 60.6656 28.8335 59.8346C28.2931 59.323 27.8034 58.7604 27.3714 58.1545C26.8876 57.4549 26.3499 56.8033 25.8632 56.1097C25.4541 55.5377 25.1048 54.9252 24.8208 54.2817C24.3561 53.2123 23.7674 52.2029 23.2737 51.1465C23.1418 50.8637 23.0129 50.5819 22.9059 50.288C22.5321 49.2606 22.1563 48.2339 21.7786 47.2078C21.6616 46.894 21.5277 46.5861 21.3998 46.2763C21.042 45.4088 20.8441 44.4953 20.6272 43.5869C20.4573 42.8773 20.3973 42.1527 20.3004 41.4321C20.2844 41.3141 20.2594 41.1962 20.2424 41.0783C20.2155 40.8874 20.1825 40.7145 19.9356 40.6785C19.8087 40.6605 19.7207 40.5456 19.6358 40.4506C19.3983 40.1909 19.1439 39.9471 18.8742 39.7211C18.737 39.6111 18.6083 39.4908 18.4894 39.3613C18.1454 38.9911 17.7272 38.6975 17.2621 38.4998C16.7568 38.2808 16.2813 37.9987 15.8469 37.6602C15.6724 37.5218 15.4698 37.4229 15.2533 37.3704C14.9998 37.2989 14.7531 37.2056 14.5157 37.0916C13.6002 36.6768 12.6838 36.264 11.7773 35.8313C11.0877 35.5035 10.478 35.0487 9.88636 34.571C9.66433 34.3882 9.46322 34.1814 9.2867 33.9544C8.69466 33.2089 8.14542 32.4304 7.64164 31.6227C7.16996 30.8453 6.90376 29.9607 6.86808 29.0522C6.84509 28.6454 6.8381 28.2366 6.84909 27.8299C6.87662 26.9435 7.06914 26.0701 7.41677 25.2543C7.73272 24.5025 8.1302 23.7877 8.60209 23.1226C8.66372 23.029 8.73581 22.9429 8.81697 22.8657C9.1038 22.6108 9.4596 22.6778 9.6395 23.0146C9.69792 23.1272 9.7355 23.2494 9.75043 23.3754C9.82739 24.013 10.0303 24.6197 10.2172 25.2303C10.2831 25.4274 10.3646 25.6189 10.461 25.803C10.4779 25.8566 10.515 25.9014 10.5645 25.928C10.614 25.9545 10.6719 25.9606 10.7259 25.9449C11.2476 25.83 11.6454 26.0569 11.9862 26.4177C12.6178 27.0853 13.2614 27.7419 13.8591 28.4405C13.9001 28.4895 13.944 28.5355 13.991 28.5884C14.5907 28.1577 15.1483 28.4085 15.7 28.6884C15.8892 28.7936 16.0583 28.9313 16.1997 29.0951C16.3896 29.295 16.5855 29.5009 16.7674 29.7128C17.0435 30.0139 17.3534 30.2822 17.6909 30.5123C17.8818 30.6522 17.9907 30.6383 18.1796 30.4913C18.3685 30.3444 18.5354 30.2195 18.7173 30.0916C19.3509 29.6443 19.9493 29.1491 20.5073 28.6104C20.7093 28.4167 20.9229 28.2355 21.1469 28.0677C21.3575 27.901 21.6002 27.7794 21.8598 27.7106C22.1195 27.6419 22.3905 27.6273 22.6561 27.668C22.7103 27.6791 22.7664 27.677 22.8196 27.6618C22.8728 27.6467 22.9216 27.619 22.9619 27.581C23.3029 27.2782 23.6885 27.0298 24.1052 26.8444C24.4466 26.687 24.7747 26.5025 25.0867 26.2927C25.3745 26.1009 25.6763 25.9739 26.0331 26.0659C26.0809 26.0725 26.1295 26.0697 26.1761 26.0575C26.2228 26.0454 26.2666 26.0241 26.305 25.9949C26.6765 25.7903 27.0184 25.5362 27.3214 25.2393C27.5838 24.9821 27.8611 24.7405 28.1519 24.5158C28.4517 24.2799 28.7336 24.016 29.0254 23.7672C29.1973 23.6079 29.4209 23.516 29.6551 23.5083C29.8075 23.4998 29.9594 23.5332 30.0942 23.6049C30.2289 23.6766 30.3415 23.7839 30.4196 23.9151C30.6329 24.2371 30.7571 24.6099 30.7794 24.9955C30.8044 25.5771 30.8484 26.1628 30.7504 26.7425C30.5992 27.6657 30.3214 28.5636 29.9249 29.411C29.8 29.6602 29.6478 29.8948 29.4712 30.1106C28.9325 30.8052 28.3998 31.5048 27.8001 32.1494C27.5725 32.3965 27.3288 32.6282 27.0705 32.843C26.4449 33.354 25.8663 33.9199 25.3415 34.534C25.0217 34.9108 24.6789 35.2716 24.3271 35.6204C24.1018 35.8481 23.9364 36.1279 23.8454 36.4349C23.8364 36.4649 23.8364 36.5029 23.8174 36.5249C23.6875 36.6808 23.7494 36.8247 23.8174 36.9856C24.2392 37.9431 24.6689 38.8955 25.2086 39.796C25.5334 40.3387 25.7253 40.9444 25.9482 41.534C26.271 42.4058 26.7632 43.205 27.3963 43.8857C27.6302 44.1365 27.8401 44.4094 28.085 44.6522C28.3068 44.8701 28.5847 44.9621 28.8645 45.052C28.877 45.058 28.8906 45.0614 28.9045 45.0618C28.9184 45.0623 28.9322 45.0599 28.9451 45.0547C28.958 45.0495 28.9696 45.0417 28.9793 45.0318C28.989 45.0219 28.9966 45.01 29.0014 44.997C29.0853 44.8582 29.2208 44.7583 29.3782 44.7192C29.4308 44.7036 29.4786 44.6752 29.5173 44.6364C29.5561 44.5977 29.5845 44.5499 29.6001 44.4973C29.6061 44.4823 29.6141 44.4683 29.6201 44.4534C29.834 43.9936 30.1038 43.8607 30.6045 43.9676C30.9425 44.0444 31.248 44.2251 31.478 44.4843C32.002 45.0456 32.4619 45.6634 32.8492 46.3263C33.0613 46.7119 33.3554 47.0462 33.7107 47.3057C34.0424 47.5574 34.352 47.837 34.6362 48.1412C34.9835 48.4848 35.3951 48.7564 35.8475 48.9408C36.4212 49.1817 36.9919 49.4305 37.5805 49.6344C37.9912 49.7663 38.413 49.8603 38.8408 49.9152C39.4175 50.0022 39.9881 50.1261 40.5728 50.1511C40.8846 50.1641 41.1955 50.1931 41.5063 50.2101C41.6632 50.2191 41.6702 50.2151 41.6632 50.0552C41.6302 49.2886 41.6382 48.521 41.6282 47.7565C41.6152 46.741 41.5712 45.7266 41.5283 44.7132C41.5171 44.3836 41.6089 44.0587 41.7911 43.7837C41.8491 43.6908 41.962 43.6838 42.028 43.5958C42.1979 43.364 42.3868 43.1461 42.5757 42.9292C42.6051 42.8927 42.6269 42.8506 42.6398 42.8054C42.6527 42.7603 42.6564 42.713 42.6506 42.6664C42.6292 42.1474 42.5771 41.6301 42.4947 41.1173C42.4368 40.6965 42.6366 40.4566 43.0594 40.4397C43.2985 40.4268 43.5365 40.3987 43.772 40.3557C44.1248 40.2957 44.2307 40.3357 44.4946 40.6006ZM76.5692 44.6872C76.2934 44.2155 75.9696 43.7997 75.4629 43.5689C74.8014 43.2655 74.1001 43.0579 73.3801 42.9522C72.2247 42.7903 71.0654 42.8753 69.912 43.0152C69.3424 43.0841 68.7827 43.2301 68.213 43.303C67.8465 43.3355 67.4844 43.4062 67.1326 43.5139C66.3871 43.7727 65.6335 44.0136 64.9119 44.3364C63.9125 44.7842 62.913 45.2129 61.9136 45.6667C61.225 45.9815 60.5144 46.2543 59.8608 46.6351C59.3751 46.9169 58.8244 47.0519 58.3227 47.2977C57.6351 47.6361 56.9294 47.9364 56.2089 48.1972C55.6092 48.4151 55.0455 48.7249 54.4429 48.9388C53.6433 49.2246 52.8278 49.4915 52.0163 49.7563C50.9089 50.1181 49.8065 50.4889 48.6672 50.7478C47.6226 50.9814 46.5613 51.1325 45.493 51.1995C44.7181 51.2348 43.9418 51.2301 43.1673 51.1855C41.7551 51.1335 40.3399 51.1335 38.9417 50.8647C38.2751 50.7358 37.6075 50.6368 36.9669 50.392C36.4822 50.2071 36.0074 49.9982 35.5267 49.8043C34.9521 49.5789 34.4304 49.2369 33.9946 48.7999C33.7462 48.5283 33.475 48.2786 33.184 48.0533C32.7115 47.7101 32.321 47.2664 32.0407 46.754C31.7014 46.1739 31.2992 45.6329 30.8414 45.141C30.7495 45.0406 30.6422 44.9556 30.5236 44.8891C30.4356 44.8381 30.3766 44.8501 30.3347 44.9471C30.2617 45.116 30.1908 45.2859 30.1048 45.4468C29.9469 45.7466 29.724 45.9465 29.3632 45.9705C28.8427 45.9895 28.3261 45.8731 27.8641 45.6327C27.7447 45.5674 27.635 45.4856 27.5383 45.3898C27.2504 45.134 27.0206 44.8251 26.7597 44.5443C26.0249 43.7612 25.4568 42.837 25.0897 41.8279C24.8252 41.057 24.4805 40.316 24.0613 39.6171C23.9223 39.3942 23.8144 39.1514 23.6975 38.9175C23.2537 38.018 22.8779 37.0806 22.4572 36.1661C22.3129 35.8278 22.1196 35.5126 21.8835 35.2306C21.6566 34.9718 21.4308 34.7139 21.2069 34.4521C20.8561 34.0585 20.4525 33.7154 20.0076 33.4327C19.8347 33.3165 19.6386 33.2395 19.4329 33.2068C19.2669 33.1847 19.1026 33.1513 18.9412 33.1068C18.8194 33.0634 18.7192 32.9745 18.6616 32.8588C18.6041 32.7431 18.5936 32.6095 18.6324 32.4862C18.7043 32.2553 18.9222 32.1534 19.194 32.2194C19.326 32.2513 19.4579 32.2833 19.5938 32.3063C19.9023 32.3559 20.1972 32.4686 20.4603 32.6371C20.9659 32.9463 21.4246 33.3263 21.8225 33.7655C22.3162 34.3361 22.8669 34.8648 23.2077 35.5854C23.4316 35.2056 23.7484 34.9438 24.0203 34.643C24.2411 34.4001 24.475 34.1692 24.6849 33.9184C25.1946 33.3122 25.7594 32.7544 26.3719 32.2523C26.6868 31.9933 26.9821 31.7113 27.2554 31.4088C27.7551 30.8561 28.2019 30.2625 28.6666 29.6828C28.984 29.2809 29.2295 28.8271 29.3922 28.3416C29.5371 27.9258 29.6531 27.504 29.762 27.0783C29.9449 26.3597 29.9129 25.6361 29.8519 24.9105C29.8287 24.7455 29.7682 24.588 29.675 24.4498C29.559 24.5201 29.4525 24.6051 29.3582 24.7026C28.8355 25.1854 28.2589 25.6021 27.7461 26.1018C27.4227 26.4123 27.0515 26.6687 26.6468 26.8614C26.4279 26.9674 26.197 27.0443 25.9532 26.9913C25.8873 26.9776 25.8192 26.9785 25.7537 26.994C25.6883 27.0096 25.627 27.0394 25.5744 27.0813C25.2372 27.3109 24.8811 27.5115 24.51 27.6809C24.1441 27.8437 23.8067 28.064 23.5106 28.3336C23.4038 28.4426 23.2718 28.5237 23.1263 28.5697C22.9807 28.6158 22.8261 28.6253 22.676 28.5974C22.2113 28.5125 21.8285 28.6654 21.4927 28.9762C21.3628 29.0951 21.2309 29.2111 21.1019 29.33C20.973 29.4489 20.8421 29.5679 20.7162 29.6908C19.9756 30.4184 19.0391 30.8851 18.2426 31.5397C18.1922 31.5872 18.1294 31.6194 18.0614 31.6325C17.9935 31.6455 17.9232 31.639 17.8588 31.6137C17.6209 31.5038 17.3711 31.4268 17.1542 31.2629C16.7122 30.9462 16.3078 30.58 15.9489 30.1715C15.821 30.0186 15.677 29.8787 15.5421 29.7318C15.3722 29.5497 15.157 29.4159 14.9185 29.344C14.7466 29.288 14.6186 29.289 14.4737 29.4439C14.2099 29.7258 13.9011 29.7268 13.5962 29.4849C13.4543 29.3679 13.3244 29.237 13.2085 29.0941C12.6088 28.3945 11.9662 27.7389 11.3385 27.0673C11.2771 26.9885 11.1952 26.9282 11.1017 26.893C11.0083 26.8577 10.907 26.8489 10.8088 26.8674C10.2951 26.9574 9.92433 26.7455 9.68847 26.2857C9.64849 26.2078 9.60552 26.1308 9.56754 26.0509C9.40252 25.6874 9.27073 25.3097 9.17376 24.9225C9.12097 24.6941 9.0484 24.4707 8.95689 24.2549C8.71759 24.6395 8.50521 25.0403 8.32125 25.4542C7.96112 26.2591 7.7719 27.13 7.76557 28.0118C7.76557 28.3116 7.76557 28.6034 7.77856 28.8992C7.7935 29.6868 8.01473 30.4567 8.42019 31.132C8.90527 31.9127 9.43485 32.6648 10.0063 33.3847C10.1497 33.5687 10.3129 33.7362 10.493 33.8844C11.2258 34.4923 12.0437 34.9896 12.9206 35.3606C13.3889 35.5445 13.8463 35.7547 14.2908 35.9902C14.5856 36.1644 14.9036 36.2959 15.2353 36.381C15.6877 36.4858 16.1108 36.6907 16.4736 36.9806C16.7687 37.2129 17.0909 37.4085 17.433 37.5633C18.1017 37.8631 18.7183 38.2349 19.217 38.7886C19.4109 38.9825 19.6158 39.165 19.8307 39.3353C19.8029 39.1255 19.7533 38.9192 19.6828 38.7196C19.3719 37.7962 18.9082 36.9347 18.5894 36.0122C18.3696 35.3782 18.1096 34.759 17.8108 34.1582C17.7382 34.0333 17.6964 33.8928 17.6889 33.7485C17.6813 33.6477 17.7096 33.5475 17.7689 33.4657C17.8282 33.3839 17.9146 33.3258 18.0127 33.3017C18.1116 33.2818 18.2143 33.3 18.3003 33.3527C18.3863 33.4053 18.4492 33.4885 18.4764 33.5856C18.528 33.7199 18.5894 33.8502 18.6603 33.9753C18.9423 34.4857 19.19 35.0142 19.4019 35.5574C19.6018 36.0382 19.7367 36.5409 19.9666 37.0076C20.1875 37.4509 20.3772 37.9091 20.5343 38.3788C20.9077 39.5596 21.1632 40.7745 21.2968 42.0058C21.465 43.4106 21.8084 44.7889 22.3192 46.1084C22.4192 46.3763 22.5461 46.6371 22.6451 46.908C23.0248 47.9344 23.3936 48.9638 23.7754 49.9882C24.0513 50.7308 24.427 51.4284 24.7888 52.13C25.1406 52.8116 25.4804 53.4982 25.7883 54.1978C25.9465 54.5462 26.134 54.8806 26.3489 55.1972C27.0026 56.1747 27.7481 57.0861 28.4278 58.0426C28.4837 58.1205 28.5477 58.1925 28.6107 58.2655C29.3502 59.132 30.2097 59.8775 31.0792 60.6041C31.533 60.9819 32.0207 61.3187 32.4924 61.6765C32.561 61.7305 32.6428 61.765 32.7293 61.7765C32.8674 61.8111 33.0098 61.8259 33.1521 61.8204C33.2041 61.8155 33.2566 61.8219 33.3059 61.8392C33.3552 61.8564 33.4003 61.8841 33.4379 61.9204C33.5255 61.9897 33.6282 62.0373 33.7377 62.0593C33.9076 62.1043 34.0785 62.1462 34.2484 62.1912C35.1553 62.4325 36.1023 62.4835 37.0298 62.3411C37.9223 62.2062 38.7948 61.9713 39.6683 61.7475C40.4879 61.5376 41.3034 61.3157 42.1049 61.0419C42.5817 60.879 43.0654 60.742 43.5041 60.4892C43.5646 60.4486 43.6326 60.4204 43.704 60.4062C43.7758 60.3955 43.8434 60.366 43.9001 60.3207C43.9568 60.2754 44.0005 60.216 44.0268 60.1484C44.1015 60.0072 44.2034 59.8822 44.3267 59.7806C44.3906 59.7197 44.4485 59.6528 44.4996 59.5807C44.8072 59.1918 45.1594 58.8402 45.549 58.5333C45.8122 58.299 46.1053 58.1004 46.4205 57.9426C47.167 57.5998 47.9096 57.243 48.6672 56.9292C49.3988 56.6234 50.1763 56.4675 50.9509 56.3106C51.1628 56.2686 51.3776 56.2436 51.5895 56.2046C52.0237 56.1372 52.4384 55.9777 52.8058 55.7369C53.0777 55.55 53.3885 55.637 53.5054 55.9198C53.5384 55.993 53.5544 56.0727 53.5524 56.153C53.5504 56.2333 53.5304 56.312 53.4939 56.3835C53.4573 56.455 53.4051 56.5174 53.3412 56.566C53.2773 56.6146 53.2033 56.6482 53.1246 56.6644C53.0471 56.6819 52.9722 56.7095 52.9018 56.7463C52.6397 56.8832 52.3603 56.9841 52.0712 57.0462C51.5795 57.1461 51.0828 57.2291 50.5921 57.336C50.0154 57.4619 49.4328 57.5849 48.8931 57.8357C48.2424 58.1355 47.5838 58.4254 46.9302 58.7232C46.8213 58.7727 46.7164 58.8305 46.6164 58.8961C46.234 59.1549 45.8709 59.4412 45.53 59.7526C45.49 59.7806 45.456 59.8163 45.43 59.8575C45.3241 60.0964 45.1442 60.2803 44.9773 60.4732C44.6025 60.909 44.2267 61.3457 43.8709 61.7974C43.3412 62.4711 42.7905 63.1247 42.1159 63.6614C42.0675 63.7027 42.0211 63.7464 41.977 63.7923C41.5807 64.1887 41.1239 64.5196 40.6238 64.7727C40.284 64.9496 39.9442 65.1285 39.6144 65.3234C39.2365 65.5492 38.8419 65.7456 38.434 65.9111C38.1162 66.038 37.7894 66.149 37.4826 66.2989C36.9218 66.5703 36.3403 66.7966 35.7436 66.9755C35.2639 67.1327 34.7996 67.3335 34.3564 67.5751C34.3734 67.6291 34.4083 67.6281 34.4373 67.6381C35.061 67.838 35.7036 67.9689 36.3362 68.1168C37.0893 68.3073 37.8691 68.3698 38.6429 68.3017C39.3185 68.2308 39.9822 68.0818 40.6468 67.9459C41.3314 67.805 41.966 67.5192 42.6156 67.2733C42.9902 67.1355 43.3523 66.966 43.698 66.7666C45.0543 65.9671 46.3335 65.0476 47.6438 64.1761C48.7866 63.4215 49.8203 62.5135 50.716 61.4776C50.9239 61.2368 51.1468 61.0069 51.3676 60.778C51.8217 60.328 52.2311 59.835 52.59 59.3059C52.8953 58.8454 53.2637 58.4299 53.6843 58.0716C54.1941 57.6107 54.6681 57.1119 55.1025 56.5794C55.3354 56.3036 55.5882 56.2946 55.8251 56.5684C55.8611 56.6104 55.8821 56.6684 55.951 56.6684C56.0715 56.6685 56.1899 56.6375 56.2948 56.5784C56.314 56.571 56.3308 56.5586 56.3437 56.5425C56.3565 56.5265 56.3648 56.5073 56.3677 56.4869C56.3707 56.4666 56.3681 56.4459 56.3604 56.4268C56.3527 56.4077 56.3401 56.3911 56.3238 56.3785C56.2928 56.3417 56.2564 56.3097 56.2159 56.2836C55.9041 56.1037 55.5922 55.9238 55.2164 55.9118C55.0405 55.9118 54.8647 55.8938 54.6898 55.8878C54.5149 55.8818 54.3489 55.8808 54.19 56.0018C54.0311 56.1227 53.8552 56.0867 53.7023 55.9658C53.6301 55.9073 53.5786 55.8271 53.5555 55.7371C53.5325 55.6471 53.5391 55.552 53.5744 55.4661C53.6143 55.352 53.6865 55.252 53.7823 55.1782C53.9444 55.0452 54.1472 54.9718 54.3569 54.9703C54.5648 54.9703 54.7727 54.9703 54.9806 54.9773C55.0435 54.9773 55.1075 54.9943 55.1595 54.9374C55.2986 54.8044 55.466 54.7046 55.6492 54.6455C55.7558 54.5911 55.8527 54.5196 55.936 54.4337C55.9684 54.4113 55.991 54.3774 55.999 54.3388C56.007 54.3003 55.9998 54.2602 55.979 54.2268C55.8881 54.0024 55.8881 53.7515 55.979 53.5272C56.0071 53.4475 56.0525 53.3751 56.1119 53.3151C56.1714 53.2552 56.2434 53.2091 56.3228 53.1804C56.4195 53.1408 56.5261 53.1321 56.6279 53.1555C56.7298 53.179 56.8218 53.2334 56.8915 53.3113C57.0234 53.4772 57.0164 53.6431 56.8465 53.85C56.7905 53.9189 56.7995 53.9499 56.8525 54.0069C57.0295 54.183 57.264 54.2895 57.5131 54.3067C58.1508 54.3657 58.7494 54.2008 59.3401 53.9939C59.9308 53.787 60.4585 53.4862 61.0091 53.2133C61.4193 53.0144 61.802 52.7632 62.1475 52.4658C62.5105 52.1635 62.9033 51.899 63.3198 51.6762C63.7536 51.4366 64.1491 51.1334 64.4931 50.7767C64.688 50.5645 64.9078 50.3765 65.1478 50.2171C65.6855 49.8693 66.1912 49.4795 66.6999 49.0927C67.5524 48.4441 68.4599 47.8744 69.3364 47.2598C69.4759 47.1665 69.6214 47.0827 69.7721 47.0089C70.3028 46.7321 70.8415 46.4692 71.3712 46.1834C71.7216 45.993 72.0842 45.8261 72.4566 45.6837C72.9333 45.5008 73.4081 45.3119 73.8828 45.124C74.0455 45.0564 74.2124 44.9993 74.3825 44.9531C75.0171 44.7856 75.6723 44.7095 76.3284 44.7272C76.4109 44.7437 76.4965 44.7295 76.5692 44.6872ZM44.1758 67.5571C44.2586 67.6049 44.3499 67.6361 44.4446 67.6491C44.8444 67.737 45.2521 67.765 45.6439 67.865C46.2244 68.0173 46.8228 68.0906 47.4229 68.0829C47.9016 68.0739 48.3824 68.0769 48.8611 68.0829C49.1089 68.0829 49.3608 68.0828 49.6047 68.1028C50.7214 68.1781 51.8425 68.1624 52.9567 68.0559C53.5384 68.0049 54.1051 67.862 54.6758 67.743C56.4467 67.3753 58.1847 66.9035 59.8608 66.2139C60.6294 65.8971 61.4019 65.5933 62.1245 65.1765C62.4843 64.9696 62.8491 64.7697 63.2239 64.5849C63.7775 64.3154 64.3017 63.9891 64.788 63.6114C65.4216 63.1117 66.1192 62.6979 66.7429 62.1832C67.0817 61.9034 67.4425 61.6455 67.7893 61.3837C68.261 61.0259 68.7317 60.6701 69.1355 60.2323C70.1569 59.1411 71.1152 57.9926 72.0058 56.7923C72.5595 56.0337 73.0642 55.2542 73.418 54.3787C73.6704 53.7809 74.007 53.2222 74.4175 52.7196C74.5614 52.5377 74.7063 52.3568 74.8452 52.1719C75.5069 51.2944 76.0875 50.373 76.4933 49.3436C76.6052 49.0607 76.7072 48.7749 76.8251 48.495C77.1125 47.814 77.2578 47.0814 77.2519 46.3423C77.2491 46.1977 77.2051 46.0569 77.1249 45.9365C77.0789 45.8815 77.0449 45.8175 77.025 45.7486C77.011 45.6487 76.949 45.6247 76.8601 45.6107C76.4156 45.5573 75.9656 45.5701 75.5248 45.6487C74.9155 45.7362 74.321 45.9066 73.7579 46.1554C73.0662 46.4642 72.3427 46.6911 71.669 47.0549C70.6626 47.5966 69.6322 48.0893 68.7197 48.7919C68.3409 49.0827 67.9202 49.3176 67.5364 49.6074C67.0207 49.9992 66.502 50.3863 65.9803 50.7687C65.6965 50.9756 65.3966 51.1685 65.1518 51.4194C64.7626 51.8209 64.3176 52.1642 63.8305 52.4388C63.4156 52.6656 63.0246 52.9334 62.6632 53.2383C62.35 53.4998 62.0112 53.7289 61.6518 53.9219C61.318 54.1108 60.9642 54.2597 60.6244 54.4366C59.9242 54.8071 59.1701 55.0648 58.3896 55.2002C57.9015 55.2998 57.3956 55.2685 56.9235 55.1093C56.8235 55.0713 56.7236 54.9643 56.6236 54.9893C56.5237 55.0143 56.4527 55.1482 56.3648 55.2282C56.351 55.2488 56.3412 55.2719 56.3358 55.2962C56.4228 55.3431 56.5077 55.3871 56.5917 55.4331C56.7964 55.5434 56.9745 55.6973 57.1134 55.8838C57.1905 55.9836 57.2473 56.0977 57.2803 56.2195C57.3133 56.3413 57.322 56.4684 57.3059 56.5935C57.2897 56.7187 57.2491 56.8394 57.1862 56.9488C57.1233 57.0582 57.0395 57.1541 56.9395 57.2311C56.7776 57.3559 56.5918 57.4462 56.3935 57.4962C56.1953 57.5463 55.9889 57.555 55.7871 57.5219C55.7061 57.5071 55.6226 57.5161 55.5465 57.5476C55.4705 57.5792 55.4051 57.632 55.3584 57.6998C55.0277 58.0907 54.6668 58.4549 54.279 58.7892C53.937 59.0782 53.6381 59.4148 53.3915 59.7886C53.1935 60.0886 52.9672 60.3691 52.7159 60.6261C52.2661 61.1028 51.8234 61.5866 51.3986 62.0843C51.1628 62.3766 50.9119 62.6565 50.6471 62.9228C49.8372 63.7075 48.9589 64.4182 48.0226 65.0466C47.6018 65.3234 47.167 65.5793 46.7613 65.8761C46.0707 66.3828 45.3481 66.8376 44.6155 67.2753C44.4696 67.3623 44.3307 67.4552 44.1758 67.5571ZM45.503 44.5803C44.5276 44.5503 43.5541 44.6742 42.5787 44.6263C42.4677 44.6203 42.4427 44.6682 42.4467 44.7672C42.4567 44.9741 42.4517 45.1829 42.4647 45.3898C42.5497 46.6991 42.5597 48.0093 42.5367 49.3206C42.5367 49.5514 42.5197 49.7833 42.5127 50.0152C42.5057 50.247 42.5077 50.24 42.7216 50.245C42.8415 50.245 42.9614 50.251 43.0804 50.259C44.9663 50.374 46.8332 50.268 48.6702 49.7973C48.8501 49.7513 48.8521 49.7543 48.8491 49.5854C48.8271 48.571 48.8491 47.5556 48.7361 46.5442C48.6742 46.0125 48.6412 45.4778 48.6242 44.9451C48.6122 44.5453 48.5992 44.5393 48.1875 44.5453C47.293 44.5553 46.3985 44.5943 45.503 44.5803ZM42.6236 61.8614C42.5507 61.8547 42.4775 61.8704 42.4138 61.9064C42.1489 61.9923 41.8871 62.0933 41.6202 62.1732C40.4579 62.518 39.2796 62.8049 38.0982 63.0787C37.3079 63.2779 36.4929 63.3611 35.6786 63.3256C35.4577 63.3126 35.2359 63.3046 34.998 63.2936C35.0546 63.3555 35.1224 63.406 35.1979 63.4425C35.9875 63.8939 36.8008 64.3022 37.6345 64.6658C37.6883 64.6816 37.7381 64.7089 37.7804 64.7458C37.9193 64.9057 38.1112 64.9207 38.2991 64.9526C38.3418 64.9619 38.3859 64.9622 38.4287 64.9536C38.4716 64.945 38.5122 64.9276 38.548 64.9027C38.9477 64.6389 39.3614 64.397 39.7873 64.1781C40.215 63.9452 40.6608 63.7423 41.0306 63.4165C41.2464 63.2266 41.4493 63.0167 41.6692 62.8378C42.021 62.5471 42.341 62.2198 42.6236 61.8614ZM45.487 40.8354C44.6755 41.8169 43.8879 42.7723 43.0674 43.7647C43.4672 43.7588 43.805 43.7647 44.1458 43.7268C44.5023 43.6841 44.8611 43.6624 45.2202 43.6618C45.571 43.6678 45.9198 43.6828 46.2726 43.6858C46.7723 43.6858 47.277 43.6458 47.7797 43.6198C47.8087 43.6198 47.8447 43.6138 47.8557 43.5399L45.487 40.8354ZM43.4742 41.8349C43.5741 41.7209 43.6451 41.635 43.722 41.542C43.7339 41.5283 43.7429 41.5124 43.7486 41.4952C43.7542 41.478 43.7564 41.4598 43.7549 41.4417C43.7534 41.4236 43.7483 41.4061 43.7399 41.39C43.7315 41.3739 43.72 41.3597 43.706 41.3481C43.6401 41.2722 43.5591 41.3321 43.4861 41.3481C43.4132 41.3641 43.4242 41.4261 43.4302 41.4791C43.4412 41.579 43.4562 41.6869 43.4742 41.8309V41.8349Z" fill="#4E3D35"/>
<path d="M44.1755 67.558C44.3324 67.458 44.4694 67.3631 44.6113 67.2771C45.3439 66.8364 46.0665 66.3777 46.7571 65.8779C47.1628 65.5781 47.5976 65.3253 48.0183 65.0484C48.9547 64.42 49.833 63.7093 50.6428 62.9246C50.9077 62.6583 51.1585 62.3784 51.3944 62.0861C51.8192 61.5864 52.2619 61.1047 52.7116 60.6279C52.963 60.3709 53.1892 60.0905 53.3873 59.7904C53.6339 59.4166 53.9327 59.0801 54.2748 58.791C54.6626 58.4568 55.0235 58.0925 55.3541 57.7016C55.4009 57.6339 55.4662 57.581 55.5423 57.5495C55.6183 57.5179 55.7019 57.509 55.7829 57.5237C55.9846 57.5568 56.1911 57.5481 56.3893 57.4981C56.5875 57.448 56.7734 57.3578 56.9352 57.2329C57.0352 57.1559 57.1191 57.06 57.1819 56.9506C57.2448 56.8412 57.2855 56.7205 57.3017 56.5953C57.3178 56.4702 57.3091 56.3431 57.2761 56.2213C57.243 56.0996 57.1863 55.9855 57.1091 55.8857C56.9702 55.6991 56.7922 55.5453 56.5874 55.4349C56.5035 55.3889 56.4185 55.345 56.3316 55.298C56.3369 55.2737 56.3468 55.2507 56.3606 55.23C56.4485 55.1501 56.5065 55.0182 56.6194 54.9912C56.7324 54.9642 56.8193 55.0731 56.9192 55.1111C57.3914 55.2703 57.8972 55.3017 58.3854 55.2021C59.1662 55.0667 59.9207 54.8091 60.6211 54.4385C60.9609 54.2616 61.3147 54.1127 61.6485 53.9238C62.009 53.7306 62.3489 53.5012 62.663 53.2392C63.0243 52.9343 63.4154 52.6664 63.8303 52.4396C64.3181 52.1636 64.7634 51.8186 65.1525 51.4152C65.3974 51.1594 65.6972 50.9715 65.9811 50.7646C66.5028 50.3828 67.0215 49.9957 67.5372 49.6033C67.918 49.3134 68.3367 49.0786 68.7205 48.7877C69.633 48.0881 70.6634 47.5884 71.6698 47.0507C72.3434 46.6889 73.069 46.4621 73.7586 46.1512C74.3217 45.9025 74.9162 45.732 75.5256 45.6445C75.9664 45.566 76.4163 45.5532 76.8608 45.6065C76.9498 45.6205 77.0117 45.6465 77.0257 45.7445C77.0456 45.8134 77.0797 45.8774 77.1257 45.9324C77.2064 46.0543 77.2502 46.1969 77.2516 46.3431C77.2561 47.0804 77.1102 47.8109 76.8229 48.4899C76.7049 48.7697 76.603 49.0556 76.491 49.3384C76.0853 50.3648 75.5046 51.2893 74.843 52.1668C74.7041 52.3517 74.5592 52.5326 74.4152 52.7145C74.0047 53.217 73.6682 53.7757 73.4158 54.3735C73.062 55.249 72.5573 56.0286 72.0036 56.7871C71.113 57.9874 70.1546 59.136 69.1333 60.2272C68.7335 60.6649 68.2588 61.0207 67.787 61.3785C67.4362 61.6434 67.0794 61.9012 66.7406 62.1781C66.117 62.6928 65.4194 63.1065 64.7857 63.6062C64.2989 63.9848 63.7741 64.3117 63.2196 64.5817C62.8479 64.7666 62.4831 64.9665 62.1203 65.1733C61.3977 65.5901 60.6211 65.8939 59.8566 66.2108C58.1805 66.9004 56.4425 67.3721 54.6715 67.7399C54.1009 67.8588 53.5342 68.0017 52.9525 68.0527C51.8383 68.1593 50.7172 68.175 49.6004 68.0997C49.3536 68.0807 49.1007 68.0817 48.8569 68.0797C48.3781 68.0797 47.8974 68.0797 47.4187 68.0797C46.8186 68.0874 46.2202 68.0141 45.6397 67.8618C45.2449 67.7619 44.8402 67.7339 44.4404 67.6459C44.3473 67.6337 44.2574 67.6038 44.1755 67.558Z" fill="#4E3D35" fill-opacity="0.6"/>
<path d="M42.6237 61.861C42.3411 62.2193 42.0211 62.5467 41.6693 62.8374C41.4494 63.0213 41.2465 63.2262 41.0306 63.4161C40.6608 63.7419 40.2151 63.9448 39.7873 64.1776C39.3614 64.3966 38.9477 64.6384 38.548 64.9022C38.5122 64.9272 38.4716 64.9445 38.4288 64.9531C38.386 64.9617 38.3419 64.9614 38.2992 64.9522C38.1113 64.9202 37.9194 64.9052 37.7805 64.7453C37.7382 64.7084 37.6884 64.6812 37.6346 64.6653C36.8006 64.3018 35.9868 63.8935 35.197 63.442C35.1215 63.4056 35.0536 63.355 34.9971 63.2931C35.2349 63.3041 35.4568 63.3121 35.6777 63.3251C36.4919 63.3606 37.307 63.2774 38.0973 63.0783C39.2786 62.8044 40.457 62.5176 41.6193 62.1728C41.8861 62.0928 42.148 61.9919 42.4128 61.9059C42.4769 61.8697 42.5505 61.8541 42.6237 61.861Z" fill="#4E3D35" fill-opacity="0.6"/>
<path d="M59.4437 53.4164C59.1169 53.4334 58.8141 53.3165 58.5073 53.2415C58.4212 53.2182 58.346 53.1654 58.2949 53.0923C58.2438 53.0193 58.2199 52.9306 58.2274 52.8417C58.2266 52.7527 58.2582 52.6663 58.3163 52.5989C58.3744 52.5314 58.4551 52.4873 58.5433 52.4749C58.6967 52.4482 58.8421 52.3867 58.968 52.295C59.1999 52.1385 59.4615 52.0313 59.7366 51.9802C59.8546 51.9597 59.9753 51.9597 60.0934 51.9802C60.2132 51.993 60.3263 52.0421 60.4176 52.1208C60.5088 52.1996 60.5739 52.3043 60.6041 52.421C60.6461 52.5426 60.6495 52.6743 60.6137 52.798C60.5779 52.9216 60.5047 53.0312 60.4042 53.1116C60.1848 53.3019 59.905 53.4081 59.6147 53.4114L59.4437 53.4164Z" fill="#4E3D35"/>
<path d="M45.43 48.9317C45.1501 48.9317 44.8703 48.9367 44.5914 48.9317C44.3126 48.9267 44.2026 48.8317 44.1107 48.5599C44.0565 48.392 44.0295 48.2166 44.0307 48.0402C44.0307 47.7404 44.0108 47.4495 44.0028 47.1537C43.9975 46.9699 44.0284 46.7869 44.0937 46.615C44.1937 46.3362 44.2996 46.2532 44.6064 46.2452C44.9652 46.2342 45.325 46.2342 45.6838 46.2042C45.8507 46.1892 46.0176 46.1832 46.1835 46.1603C46.5433 46.1103 46.7662 46.2992 46.7902 46.66C46.7902 46.7309 46.7902 46.8039 46.7902 46.8749C46.7674 47.2981 46.7929 47.7226 46.8662 48.1401C46.8882 48.2396 46.8864 48.3429 46.8609 48.4415C46.8354 48.5401 46.787 48.6314 46.7196 48.7078C46.6522 48.7841 46.5677 48.8435 46.4729 48.881C46.3782 48.9186 46.276 48.9332 46.1745 48.9237C45.9276 48.908 45.68 48.9063 45.433 48.9187L45.43 48.9317ZM45.1491 48.0772C45.381 48.0572 45.5879 48.0372 45.7948 48.0232C45.8717 48.0182 45.9127 47.9992 45.9017 47.9103C45.8732 47.6722 45.8612 47.4324 45.8657 47.1927C45.8657 47.1207 45.8347 47.0927 45.7658 47.0927C45.5019 47.0927 45.2381 47.0857 44.9752 47.0737C44.8583 47.0677 44.8423 47.1257 44.8503 47.2197C44.8723 47.4585 44.8883 47.6974 44.9093 47.9362C44.9232 48.0931 44.9252 48.0932 45.0782 48.0822L45.1491 48.0772Z" fill="#4E3D35"/>
</svg>
