<svg width="84" height="84" viewBox="0 0 84 84" fill="none" xmlns="http://www.w3.org/2000/svg">
<path d="M53.5842 65.1715C52.865 65.1989 52.206 65.2081 51.5496 65.2512C50.6827 65.3088 49.842 65.1649 49.0025 64.9832C48.3488 64.842 47.695 64.7099 47.0412 64.5805C46.6812 64.522 46.312 64.5674 45.9769 64.7112C45.9491 64.725 45.9203 64.7364 45.8906 64.7452C45.0354 64.9466 44.2274 65.2983 43.3775 65.5206C42.4896 65.752 41.6214 66.0606 40.7271 66.2724C39.9556 66.4568 39.209 66.7431 38.4192 66.8504C37.4059 66.9877 36.3965 67.1694 35.37 67.2152C34.8893 67.2389 34.4125 67.3134 33.9474 67.4375C33.856 67.4582 33.7703 67.4988 33.6964 67.5564C32.721 68.3619 31.6631 69.0614 30.6825 69.8603C29.9268 70.4884 29.1367 71.0738 28.3158 71.6138C27.9747 71.838 27.6512 72.088 27.3482 72.3617C26.7437 72.8937 26.1033 73.3835 25.4314 73.8274C24.0401 74.7558 22.7104 75.7718 21.2995 76.6727C20.7085 77.0492 20.1136 77.4154 19.4951 77.7462C19.041 77.9828 18.6005 78.2447 18.1758 78.5307C17.1533 79.2328 16.0288 79.7363 14.8925 80.2174C14.3864 80.4251 13.8311 80.4818 13.2934 80.3809C13.0668 80.3552 12.8585 80.244 12.711 80.0701C12.5635 79.8961 12.488 79.6724 12.4997 79.4447C12.4904 79.0439 12.6208 78.6524 12.8685 78.3372C13.1212 78.0043 13.4068 77.6976 13.721 77.4219C13.8764 77.2978 14.0236 77.1637 14.1616 77.0205C15.4169 75.6554 16.9075 74.5361 18.1797 73.1894C18.4523 72.9149 18.7414 72.6572 19.0453 72.4179C19.692 71.8862 20.299 71.3081 20.8615 70.688C21.1778 70.3393 21.5153 70.0104 21.8722 69.7034C22.6234 69.052 23.3028 68.3222 23.8989 67.5264C24.2389 67.0879 24.6242 66.6865 25.0483 66.3287C25.2131 66.2058 25.3578 66.058 25.4771 65.8906C25.1986 65.7716 24.9384 65.6383 24.6638 65.5441C24.1827 65.3679 23.7309 65.1202 23.3236 64.8093C22.8673 64.4759 22.4227 64.1267 21.9978 63.7554C21.4661 63.296 21.0187 62.7473 20.6758 62.134C19.7587 60.4907 19.0176 58.7551 18.4648 56.9562C18.1313 55.8709 18.0006 54.7477 17.9077 53.6219C17.7781 51.8898 17.7576 50.1512 17.8463 48.4166C17.8934 47.3091 17.9967 46.2042 18.1235 45.1032C18.385 42.8189 18.6936 40.5399 18.9446 38.2543C19.1081 36.7781 19.1761 35.2927 19.2192 33.8086C19.2833 31.6106 19.2101 29.4179 19.1146 27.2225C19.0331 25.4788 19.0672 23.7316 19.2166 21.9923C19.3016 21.0535 19.5147 20.1356 19.6925 19.2125C19.9122 18.0814 20.2953 16.9975 20.6353 15.9005C20.9555 14.85 21.4306 13.8531 22.0448 12.9428C22.6489 12.051 23.2909 11.1868 23.9342 10.3277C24.4664 9.61246 25.1699 9.08552 25.9126 8.60957C26.229 8.4069 26.6121 8.47882 26.9769 8.77563C27.1935 8.95609 27.3714 9.17847 27.4999 9.42941C28.1628 10.7108 28.7918 12.0066 29.1396 13.4174C29.1462 13.4728 29.1726 13.524 29.2139 13.5615C29.2552 13.5989 29.3087 13.6202 29.3645 13.6214C30.4059 13.7953 31.4562 13.9119 32.5104 13.9705C33.7736 14.0428 35.0304 14.2005 36.2723 14.4425C36.6214 14.5066 36.9692 14.5733 37.3183 14.6544C37.3826 14.6751 37.4515 14.6768 37.5167 14.6592C37.582 14.6415 37.6407 14.6053 37.6857 14.555C37.8426 14.3889 38.0165 14.2373 38.176 14.0712C38.6717 13.5605 39.222 13.1057 39.817 12.7153C40.4459 12.3008 41.0644 11.8719 41.658 11.4077C42.0952 11.0659 42.5725 10.7787 43.0793 10.5526C43.3341 10.431 43.6071 10.352 43.8874 10.3185C44.0654 10.2933 44.2467 10.326 44.4047 10.4117C44.5626 10.4974 44.6889 10.6316 44.7648 10.7945C44.9578 11.1666 45.0856 11.5691 45.1427 11.9844C45.2865 12.8617 45.3963 13.7417 45.4669 14.6282C45.5375 15.5147 45.6487 16.3751 45.7284 17.2433C45.7847 17.8265 45.8265 18.411 45.8592 18.9954C45.9102 19.7669 46.003 20.5357 46.0932 21.3032C46.1469 21.7609 46.1822 22.2185 46.1913 22.6801C46.2122 23.7889 46.3286 24.8925 46.3652 26.0013C46.3731 26.2706 46.3652 26.5426 46.3652 26.8329C46.663 26.791 46.9552 26.7156 47.236 26.608C48.294 26.283 49.3686 26.015 50.4552 25.8051C51.0031 25.7005 51.5588 25.7031 52.1119 25.6744C52.6964 25.6404 53.2756 25.5371 53.864 25.5672C53.9261 25.5683 53.9875 25.5542 54.0428 25.5262C54.0982 25.4982 54.1459 25.457 54.1817 25.4063C54.5974 24.9518 54.9839 24.4714 55.3389 23.968C55.529 23.7052 55.737 23.4557 55.9613 23.2214C56.06 23.1133 56.1731 23.0191 56.2973 22.9416C56.4568 22.8386 56.6458 22.7912 56.835 22.8068C57.0242 22.8224 57.203 22.9001 57.3434 23.0279C57.4767 23.1462 57.5859 23.2892 57.665 23.4489C57.7221 23.5488 57.7707 23.6534 57.8102 23.7614C58.1292 24.7369 58.5947 25.6508 58.987 26.5936C59.323 27.3951 59.51 28.2463 59.744 29.0779C60.2318 30.8196 60.5639 32.5965 60.9404 34.3643C61.0464 34.8638 61.1889 35.3555 61.3196 35.8772C61.4608 35.8223 61.5811 35.7765 61.7027 35.7281C61.9765 35.6185 62.2773 35.5957 62.5644 35.6627C62.6789 35.6802 62.7867 35.7278 62.8768 35.8007C62.9668 35.8735 63.0359 35.9689 63.077 36.0772C63.1092 36.1655 63.16 36.2458 63.226 36.3126C63.3116 36.4061 63.3656 36.5241 63.3803 36.6499C63.4954 37.3299 63.6131 38.0085 63.7177 38.6897C63.8492 39.6175 63.6998 40.5634 63.2888 41.4055C63.2609 41.4733 63.2294 41.5396 63.1947 41.6042C63.0992 41.7572 63.0482 41.8919 63.243 42.02C63.3203 42.0926 63.3713 42.1887 63.3882 42.2933C63.7804 43.5708 64.1727 44.8456 64.531 46.1362C64.9167 47.5497 65.1403 48.9958 65.4188 50.4315C65.7141 51.9185 65.9025 53.4247 65.9823 54.9386C66.049 56.3259 65.9418 57.6962 65.4018 59.0025C65.0242 59.9709 64.425 60.8374 63.6523 61.5326C63.1881 61.9392 62.7069 62.3263 62.231 62.7185C61.7333 63.1196 61.1653 63.4247 60.556 63.6181C60.4785 63.6411 60.4085 63.6846 60.3536 63.744C60.2986 63.8033 60.2606 63.8764 60.2435 63.9555C60.0186 64.6419 59.6264 65.2643 59.2341 65.8802C58.6758 66.7301 57.9619 67.4584 57.3408 68.2586C56.1339 69.8028 54.7505 71.1888 53.4809 72.6794C52.5636 73.7308 51.4473 74.5903 50.1963 75.2082C49.9341 75.3637 49.6343 75.4442 49.3294 75.441C48.8064 75.4096 48.4808 75.084 48.4586 74.5597C48.4478 74.1929 48.5046 73.8272 48.626 73.4809C48.8401 72.8692 49.1097 72.2784 49.4314 71.7158C50.0768 70.5187 50.8203 69.3773 51.6542 68.3031C52.069 67.777 52.4291 67.2101 52.729 66.6111C52.9461 66.1809 53.222 65.786 53.473 65.3768C53.5044 65.3232 53.5306 65.2695 53.5842 65.1715ZM26.314 9.636C25.8056 9.98324 25.3566 10.4102 24.9842 10.9004C24.3252 11.7791 23.6845 12.6717 23.0621 13.5783C22.4979 14.4086 22.0632 15.3199 21.7729 16.281C21.4211 17.4081 21.0354 18.5221 20.8092 19.6806C20.5765 20.8822 20.3568 22.0825 20.3228 23.3116C20.2901 24.4884 20.2653 25.6548 20.294 26.825C20.3149 27.7403 20.3855 28.6425 20.4156 29.5526C20.4583 30.8061 20.4627 32.0609 20.4287 33.317C20.3777 35.2626 20.2692 37.2017 20.056 39.1369C19.8325 41.1531 19.533 43.1589 19.316 45.1751C19.1983 46.2774 19.0845 47.381 19.0388 48.4885C18.9546 50.1709 18.9752 51.857 19.1002 53.5369C19.1996 54.7255 19.3526 55.9075 19.7449 57.0424C20.2094 58.3845 20.7611 59.6949 21.3963 60.9651C21.8347 61.8845 22.4926 62.682 23.3118 63.2873C23.4125 63.3618 23.5145 63.4364 23.61 63.5174C24.4285 64.2196 25.417 64.5844 26.4146 64.9296C26.5473 64.9646 26.6632 65.0457 26.7415 65.1584C26.9416 65.4827 26.9704 65.7311 26.7742 66.0331C26.5111 66.4355 26.2041 66.8074 25.8589 67.142C25.502 67.4805 25.1712 67.8455 24.8691 68.2337C24.2279 69.0876 23.4986 69.8716 22.6934 70.573C22.3207 70.8938 21.9683 71.2375 21.6382 71.602C21.0886 72.205 20.4955 72.767 19.8638 73.2835C19.4891 73.5858 19.1316 73.9089 18.793 74.2511C18.1163 74.9502 17.4045 75.6144 16.6603 76.2412C16.4132 76.4504 16.1779 76.674 15.953 76.9067C15.4299 77.448 14.9069 77.9854 14.3368 78.4862C14.108 78.6841 13.9143 78.9193 13.7641 79.1818C13.9959 79.2353 14.2392 79.2047 14.4506 79.0956C15.5084 78.6458 16.5636 78.1933 17.5142 77.5265C17.8672 77.282 18.2372 77.0662 18.6125 76.8583C19.3526 76.4495 20.0787 76.0163 20.7909 75.5586C22.2514 74.6185 23.6283 73.5607 25.0757 72.6036C25.5629 72.2774 26.0269 71.9179 26.4643 71.5275C26.7798 71.2371 27.1163 70.9705 27.4711 70.7299C28.4224 70.1068 29.3358 69.4279 30.2065 68.6966C30.3674 68.5659 30.5387 68.443 30.7073 68.3187C31.4709 67.7513 32.2411 67.1916 32.9759 66.5889C33.1148 66.4605 33.2812 66.3657 33.4623 66.3117C33.9156 66.185 34.3788 66.0975 34.847 66.0501C35.8185 65.9887 36.7809 65.8527 37.7472 65.7429C38.7134 65.633 39.5973 65.3179 40.5179 65.0891C41.5181 64.8276 42.5079 64.5308 43.5017 64.247C44.111 64.0731 44.6916 63.8129 45.3048 63.6704C45.3048 63.6377 45.3048 63.6246 45.3048 63.6168C45.2695 63.5645 45.2355 63.5122 45.1963 63.4638C44.7347 62.8799 44.3978 62.2075 44.2065 61.4881C43.8547 60.2185 43.5986 58.9243 43.4402 57.6165C43.3343 56.8319 43.2846 56.0356 43.2088 55.2446C43.129 54.4117 43.0467 53.5788 43.0114 52.7432C42.929 50.8303 42.9355 48.916 42.9368 47.0018C42.9404 45.9556 43.0446 44.9122 43.248 43.8859C43.3147 43.5459 43.4154 43.2164 43.4925 42.8804C43.5111 42.8218 43.5072 42.7584 43.4816 42.7026C43.456 42.6468 43.4104 42.6025 43.3539 42.5784C42.9721 42.3443 42.6021 42.0828 42.236 41.8213C42.0526 41.6993 41.8871 41.5523 41.7443 41.3846C41.6542 41.2812 41.6017 41.1504 41.5953 41.0135C41.5889 40.8765 41.629 40.7414 41.709 40.6301C41.8542 40.4353 41.947 40.4157 42.151 40.5451C42.6988 40.8929 43.2572 41.2185 43.8325 41.5179C44.1848 41.701 44.5231 41.9099 44.8445 42.1429C45.3756 42.5331 45.972 42.8254 46.6058 43.0059C47.1864 43.1733 47.7734 43.325 48.3697 43.4426C49.285 43.6231 50.2002 43.7996 51.1299 43.8258C52.5682 43.8663 54.017 43.8545 55.4592 43.78C56.4085 43.7303 57.3591 43.6754 58.3057 43.5773C59.3662 43.4688 60.3364 43.1053 61.1405 42.377C61.6038 41.951 61.9745 41.4343 62.2297 40.8589C62.4962 40.3218 62.6144 39.7232 62.5723 39.1251C62.5208 38.5838 62.4629 38.0433 62.3984 37.5038C62.3873 37.2306 62.2893 36.9681 62.1185 36.7545C61.895 36.8291 61.7733 37.016 61.6491 37.1965C61.3405 37.6306 61.0424 38.0725 60.7495 38.5184C59.9036 39.8077 58.6575 40.434 57.1786 40.6432C56.4961 40.7399 55.807 40.7949 55.1219 40.8681C54.0907 40.9739 53.0502 40.948 52.0256 40.7909C51.0031 40.638 49.9923 40.4222 48.9829 40.1986C48.2428 40.0538 47.5391 39.7626 46.9131 39.3422C46.7823 39.2454 46.6306 39.163 46.4894 39.0728C45.0801 38.1648 43.8343 37.0251 42.8048 35.702C42.5883 35.4219 42.3547 35.1555 42.1052 34.9044C41.795 34.595 41.5308 34.2428 41.3207 33.8583C41.0068 33.3034 40.7383 32.724 40.5179 32.1258C39.9713 30.6143 39.5346 29.0818 39.5869 27.45C39.5964 27.0732 39.6721 26.701 39.8105 26.3504C39.8659 26.1902 39.9764 26.0549 40.1222 25.9685C40.268 25.8821 40.4397 25.8502 40.6068 25.8784C40.7637 25.8931 40.915 25.9441 41.0487 26.0274C41.2697 26.1647 41.4907 26.3046 41.7025 26.4511C42.3 26.8538 42.929 27.2107 43.4978 27.6566C43.5383 27.6946 43.5896 27.7192 43.6446 27.7269C43.6996 27.7346 43.7556 27.7251 43.805 27.6998C44.1645 27.5315 44.5344 27.3865 44.9125 27.2657C44.9766 27.2495 45.0338 27.2132 45.0757 27.1622C45.1176 27.1111 45.142 27.0479 45.1453 26.9819C45.2198 26.5217 45.1701 26.0666 45.1374 25.6051C45.0211 23.9576 45.0354 22.3009 44.8197 20.6599C44.6667 19.4831 44.6523 18.3063 44.5137 17.1296C44.3294 15.5723 44.2352 14.0058 43.9972 12.4551C43.9716 12.1553 43.9047 11.8605 43.7985 11.579C43.69 11.5748 43.5831 11.606 43.4938 11.6679C43.0858 11.8574 42.7021 12.0953 42.351 12.3766C41.7823 12.8212 41.1912 13.2357 40.5859 13.6279C39.9788 14.0216 39.422 14.4879 38.9279 15.0166C38.6991 15.2624 38.4415 15.4768 38.1904 15.6978C38.0974 15.7824 37.9877 15.8466 37.8683 15.886C37.7489 15.9254 37.6225 15.9393 37.4974 15.9266C37.3275 15.9019 37.1596 15.8643 36.9953 15.8142C35.6014 15.4851 34.1819 15.2756 32.7523 15.1878C31.4539 15.1185 30.1725 14.9394 28.8872 14.7773C28.6917 14.7653 28.5055 14.6891 28.3578 14.5605C28.21 14.4318 28.1088 14.258 28.07 14.066C28.0465 13.9757 28.0242 13.8842 27.9981 13.794C27.8568 13.2477 27.6821 12.7106 27.4751 12.1857C27.1743 11.4735 26.8692 10.7627 26.5598 10.0531C26.5113 9.8969 26.4271 9.7541 26.314 9.636ZM49.7191 74.0759C49.7671 74.0627 49.8143 74.0465 49.8603 74.0275C50.9122 73.4826 51.851 72.7429 52.6271 71.8478C53.2939 71.0711 53.9791 70.3101 54.6681 69.5531C54.9153 69.2824 55.1846 69.03 55.4056 68.7411C56.1496 67.7696 56.9459 66.8425 57.7134 65.8919C58.221 65.2535 58.6552 64.5601 59.0079 63.8247C59.0338 63.7744 59.0491 63.7193 59.0529 63.6629C59.0568 63.6065 59.049 63.5498 59.0301 63.4965C58.8994 63.0886 59.068 62.827 59.4904 62.7499C60.1587 62.6168 60.786 62.3274 61.3209 61.9052C61.7132 61.6019 62.0885 61.2593 62.4847 60.952C63.9426 59.8197 64.6369 58.2912 64.7729 56.492C64.832 55.708 64.8202 54.9203 64.7376 54.1384C64.6199 53.0387 64.497 51.9404 64.2878 50.8538C64.0969 49.8601 63.919 48.8624 63.7242 47.87C63.5385 46.9273 63.2496 46.0094 62.9998 45.0823C62.8037 44.3566 62.5605 43.644 62.3186 42.9419C62.2323 42.9419 62.197 43.0033 62.1552 43.0465C61.6456 43.5748 61.0303 43.9896 60.3494 44.2638C59.6473 44.5488 58.9386 44.775 58.1724 44.7868C57.8703 44.7868 57.5683 44.8365 57.2675 44.8587C56.5484 44.9123 55.8292 44.9895 55.1114 45.0078C53.8261 45.0365 52.5394 45.0248 51.2528 45.0287C51.0752 45.0331 50.8975 45.0269 50.7207 45.0104C49.9002 44.9334 49.0848 44.8103 48.2782 44.6417C47.7904 44.5318 47.2844 44.4887 46.8399 44.2416C46.6355 44.1369 46.4184 44.0596 46.1939 44.0114C45.6834 43.9052 45.1884 43.7352 44.7203 43.5054C44.7009 43.4926 44.6782 43.4858 44.6549 43.4858C44.6317 43.4858 44.609 43.4926 44.5896 43.5054C44.5258 43.6658 44.4785 43.8323 44.4483 44.0023C44.2447 45.1017 44.1396 46.2171 44.1345 47.3352C44.1345 48.308 44.1515 49.2795 44.1698 50.251C44.196 51.7142 44.1999 53.1747 44.366 54.6326C44.485 55.6787 44.5464 56.7247 44.685 57.7708C44.8308 58.8887 45.0514 59.9956 45.3453 61.0841C45.5392 61.8369 45.9227 62.5274 46.4594 63.0899C46.5954 63.2361 46.7779 63.3308 46.9758 63.3579C47.8231 63.4887 48.6547 63.6874 49.4942 63.8482C49.9845 63.9424 50.4709 64.0679 50.9782 64.0614C51.6163 64.0535 52.2544 64.0614 52.8925 64.0614C53.2165 64.0709 53.5407 64.0569 53.8627 64.0195C54.1559 63.985 54.4523 64.0494 54.7047 64.2026C54.824 64.2613 54.9174 64.3619 54.9671 64.4852C55.0168 64.6085 55.0193 64.7457 54.9741 64.8707C54.9426 64.9602 54.9055 65.0475 54.863 65.1323C54.6015 65.7481 54.238 66.309 53.932 66.9092C53.5612 67.6476 53.1235 68.3505 52.6244 69.0091C51.9894 69.8132 51.4155 70.6637 50.9076 71.5536C50.5637 72.1747 50.1846 72.7788 49.9204 73.4404C49.8253 73.6422 49.758 73.856 49.7204 74.0759H49.7191ZM40.8277 27.3454C40.7569 27.9309 40.7737 28.5236 40.8774 29.1041C41.1389 30.3436 41.4867 31.5583 42.0425 32.7024C42.2843 33.2493 42.6252 33.7467 43.048 34.1695C43.2656 34.3806 43.4655 34.6094 43.6455 34.8534C44.1748 35.518 44.7526 36.1425 45.3741 36.7218C46.0109 37.3416 46.7666 37.8202 47.5119 38.3053C47.9694 38.6192 48.481 38.8457 49.0208 38.9734C50.3362 39.2546 51.6438 39.5841 52.9906 39.6952C53.6269 39.7453 54.2662 39.7432 54.9022 39.6887C55.3899 39.6481 55.875 39.5658 56.364 39.5292C56.9691 39.493 57.566 39.3715 58.1371 39.1683C58.4986 39.032 58.8329 38.8323 59.1243 38.5786C59.6551 38.1288 59.9519 37.5064 60.3547 36.9611C60.3757 36.9316 60.3884 36.897 60.3914 36.8608C60.3944 36.8247 60.3876 36.7884 60.3717 36.7558C60.0938 35.9242 59.8714 35.0751 59.7061 34.214C59.3243 32.4174 58.9739 30.6143 58.4561 28.853C58.1867 27.9299 57.9331 27.0028 57.4911 26.1412C57.2371 25.6354 57.0225 25.1109 56.8491 24.5721C56.8138 24.4662 56.8099 24.3106 56.6974 24.2818C56.5667 24.2518 56.5118 24.4204 56.4229 24.5015C56.3958 24.5334 56.3709 24.567 56.3483 24.6022C55.9701 25.0896 55.5617 25.5529 55.1258 25.9895C55.0353 26.0759 54.953 26.1704 54.88 26.2719C54.676 26.5504 54.4223 26.774 54.0536 26.7583C53.5293 26.753 53.0052 26.7814 52.4845 26.8433C52.036 26.8826 51.5849 26.8669 51.1391 26.9179C50.2656 27.0159 49.4183 27.2447 48.5697 27.4657C47.7917 27.6684 47.0334 27.9417 46.2488 28.1195C45.5454 28.2796 44.8634 28.5223 44.2169 28.8426C44.0235 28.939 43.8079 28.9824 43.5923 28.9684C43.3766 28.9544 43.1685 28.8834 42.9891 28.7628C42.8117 28.6518 42.641 28.5304 42.4779 28.3993C41.9745 28.0031 41.3848 27.7194 40.8343 27.3454H40.8277Z" fill="#4E3D35"/>
<path d="M49.72 74.076C49.756 73.855 49.822 73.6399 49.9161 73.4366C50.1776 72.775 50.5594 72.1709 50.9033 71.5498C51.4112 70.6599 51.9851 69.8094 52.6201 69.0053C53.1191 68.3467 53.5568 67.6438 53.9277 66.9054C54.2336 66.3105 54.5945 65.7443 54.8586 65.1285C54.9012 65.0437 54.9383 64.9564 54.9698 64.8669C55.015 64.7419 55.0125 64.6047 54.9628 64.4814C54.9131 64.3581 54.8197 64.2575 54.7004 64.1988C54.448 64.0456 54.1516 63.9812 53.8584 64.0157C53.5364 64.0531 53.2121 64.0671 52.8882 64.0576C52.2501 64.0576 51.612 64.0576 50.9739 64.0576C50.4666 64.0576 49.9802 63.9386 49.4898 63.8444C48.6504 63.6836 47.8188 63.4796 46.9715 63.3541C46.7736 63.327 46.5911 63.2323 46.455 63.0861C45.9184 62.5236 45.5349 61.8331 45.341 61.0803C45.0469 59.994 44.8259 58.8893 44.6794 57.7735C44.5408 56.7275 44.4793 55.6814 44.3603 54.6354C44.1943 53.1775 44.1904 51.7169 44.1642 50.2538C44.1459 49.2823 44.1263 48.3108 44.1289 47.338C44.134 46.2199 44.239 45.1044 44.4427 44.005C44.4728 43.835 44.5201 43.6686 44.5839 43.5082C44.6033 43.4954 44.6261 43.4886 44.6493 43.4886C44.6725 43.4886 44.6953 43.4954 44.7147 43.5082C45.1832 43.7408 45.6792 43.9135 46.1909 44.022C46.4153 44.0701 46.6325 44.1475 46.8368 44.2521C47.2866 44.4993 47.7926 44.5424 48.2751 44.6523C49.0817 44.8209 49.8972 44.944 50.7176 45.021C50.8945 45.0375 51.0722 45.0436 51.2498 45.0393C52.5364 45.0393 53.8231 45.0471 55.1084 45.0184C55.8275 45.0027 56.5467 44.9229 57.2645 44.8693C57.5653 44.8471 57.8673 44.8026 58.1693 44.7974C58.9356 44.783 59.6443 44.5568 60.3464 44.2744C61.0273 44.0002 61.6426 43.5854 62.1521 43.0571C62.194 43.0139 62.2293 42.9551 62.3156 42.9524C62.5575 43.6585 62.8007 44.3672 62.9968 45.0929C63.2466 46.02 63.5355 46.9379 63.7212 47.8806C63.916 48.873 64.0938 49.8707 64.2847 50.8644C64.4939 51.951 64.6169 53.0493 64.7345 54.149C64.8171 54.9308 64.829 55.7186 64.7698 56.5026C64.6391 58.3018 63.9396 59.8303 62.4816 60.9626C62.0894 61.2699 61.7167 61.6164 61.3179 61.9158C60.783 62.338 60.1557 62.6274 59.4873 62.7605C59.065 62.8376 58.9029 63.0991 59.0271 63.5071C59.046 63.5604 59.0538 63.617 59.0499 63.6735C59.0461 63.7299 59.0308 63.785 59.0049 63.8353C58.6522 64.5707 58.218 65.2641 57.7104 65.9025C56.9429 66.8531 56.1413 67.7802 55.4026 68.7517C55.1816 69.0406 54.9122 69.293 54.6651 69.5637C53.976 70.3207 53.2909 71.0817 52.624 71.8584C51.848 72.7535 50.9091 73.4931 49.8573 74.0381C49.8123 74.0534 49.7664 74.0661 49.72 74.076Z" fill="#4E3D35" fill-opacity="0.6"/>
<path d="M40.8339 27.3455C41.3844 27.7195 41.9688 27.9993 42.4801 28.4007C42.6432 28.5318 42.8139 28.6532 42.9913 28.7642C43.1707 28.8849 43.3788 28.9558 43.5945 28.9698C43.8102 28.9838 44.0257 28.9404 44.2191 28.844C44.8656 28.5237 45.5476 28.281 46.2511 28.1209C47.0356 27.9418 47.794 27.6685 48.5719 27.4671C49.4205 27.2462 50.2718 27.0173 51.1413 26.9193C51.5871 26.8683 52.0382 26.884 52.4867 26.8447C53.0074 26.7828 53.5315 26.7544 54.0558 26.7597C54.4245 26.7754 54.6782 26.5518 54.8821 26.2733C54.9552 26.1718 55.0375 26.0773 55.128 25.9909C55.5639 25.5543 55.9722 25.091 56.3505 24.6036C56.3731 24.5684 56.398 24.5348 56.4251 24.5029C56.514 24.4218 56.565 24.2532 56.6996 24.2832C56.8121 24.3081 56.816 24.4676 56.8513 24.5735C57.0247 25.1123 57.2393 25.6369 57.4933 26.1426C57.9379 27.0043 58.1889 27.9313 58.4583 28.8544C58.9813 30.6196 59.3265 32.4227 59.7083 34.2154C59.8736 35.0765 60.0959 35.9256 60.3738 36.7573C60.3897 36.7898 60.3966 36.8261 60.3936 36.8622C60.3906 36.8984 60.3779 36.933 60.3568 36.9626C59.9541 37.5078 59.6573 38.1302 59.1264 38.58C58.8351 38.8337 58.5008 39.0334 58.1392 39.1697C57.5651 39.3729 56.9651 39.4935 56.3571 39.528C55.868 39.5646 55.3829 39.6469 54.8952 39.6875C54.2593 39.742 53.6199 39.7441 52.9836 39.694C51.6368 39.5829 50.3293 39.2534 49.0139 38.9723C48.474 38.8445 47.9624 38.618 47.505 38.3041C46.7597 37.819 46.0039 37.3404 45.3672 36.7207C44.7489 36.1414 44.1742 35.5173 43.6477 34.8535C43.4677 34.6095 43.2678 34.3808 43.0502 34.1696C42.6274 33.7468 42.2865 33.2494 42.0447 32.7026C41.489 31.5585 41.1438 30.349 40.8797 29.1042C40.7772 28.5235 40.7618 27.9308 40.8339 27.3455Z" fill="#4E3D35" fill-opacity="0.6"/>
</svg>
