<svg xmlns="http://www.w3.org/2000/svg" xmlns:xlink="http://www.w3.org/1999/xlink"><defs><filter id="filter0_d" x="0" y="0" width="64" height="61" filterUnits="userSpaceOnUse" color-interpolation-filters="sRGB"><feFlood flood-opacity="0" result="BackgroundImageFix"/><feColorMatrix in="SourceAlpha" values="0 0 0 0 0 0 0 0 0 0 0 0 0 0 0 0 0 0 127 0"/><feOffset dy="4"/><feGaussianBlur stdDeviation="7.5"/><feColorMatrix values="0 0 0 0 0 0 0 0 0 0 0 0 0 0 0 0 0 0 0.3 0"/><feBlend in2="BackgroundImageFix" result="effect1_dropShadow"/><feBlend in="SourceGraphic" in2="effect1_dropShadow" result="shape"/></filter><filter id="filter0_d" x="0" y="5" width="42" height="39" filterUnits="userSpaceOnUse" color-interpolation-filters="sRGB"><feFlood flood-opacity="0" result="BackgroundImageFix"/><feColorMatrix in="SourceAlpha" values="0 0 0 0 0 0 0 0 0 0 0 0 0 0 0 0 0 0 127 0"/><feOffset dy="4"/><feGaussianBlur stdDeviation="2"/><feColorMatrix values="0 0 0 0 0 0 0 0 0 0 0 0 0 0 0 0 0 0 0.25 0"/><feBlend in2="BackgroundImageFix" result="effect1_dropShadow"/><feBlend in="SourceGraphic" in2="effect1_dropShadow" result="shape"/></filter><clipPath id="clip0"><path fill="#fff" transform="translate(2.857 3.417)" d="M0 0h33.809v33.809H0z"/></clipPath><linearGradient id="paint0_linear" x1="8.417" y1="39.655" x2="41.774" y2="10.779" gradientUnits="userSpaceOnUse"><stop stop-color="#FD5"/><stop offset=".5" stop-color="#FF543E"/><stop offset="1" stop-color="#C837AB"/></linearGradient><linearGradient id="paint1_linear" x1="15.343" y1="32.697" x2="33.874" y2="16.655" gradientUnits="userSpaceOnUse"><stop stop-color="#FD5"/><stop offset=".5" stop-color="#FF543E"/><stop offset="1" stop-color="#C837AB"/></linearGradient><linearGradient id="paint2_linear" x1="32.311" y1="16.327" x2="36.599" y2="12.614" gradientUnits="userSpaceOnUse"><stop stop-color="#FD5"/><stop offset=".5" stop-color="#FF543E"/><stop offset="1" stop-color="#C837AB"/></linearGradient><linearGradient id="paint0_linear" x1="47.403" y1="15.579" x2="63" y2="15.579" gradientUnits="userSpaceOnUse"><stop offset=".3" stop-color="#00B4E6"/><stop offset="1" stop-color="#088CCB"/></linearGradient><clipPath id="clip0"><path fill="#fff" d="M0 0h24v24H0z"/></clipPath><clipPath id="clip0"><path fill="#fff" transform="translate(4 4)" d="M0 0h40v40H0z"/></clipPath><clipPath id="clip0"><path fill="#fff" transform="translate(2 2)" d="M0 0h20v20H0z"/></clipPath></defs><symbol id="arrow-down" viewBox="0 0 24 24"><path d="M9 11.5l3 3 3-3" stroke="#4E3D35" stroke-opacity=".6" stroke-width="2" stroke-linecap="round" stroke-linejoin="round"/></symbol><symbol id="arrow-right" viewBox="0 0 24 24"><path d="M1 11.5h22m0 0L14.429 3M23 11.5L14.429 20" stroke="#4E3D35"/></symbol><symbol id="arrow-small" viewBox="0 0 22 22"><path d="M9 16.5l4-5.5-4-5.5" stroke="#fff" stroke-width="2" stroke-linecap="round" stroke-linejoin="round"/></symbol><symbol id="burger" viewBox="0 0 24 24"><path fill="#4E3D35" d="M2 6.5h20v2H2zm0 8h20v2H2z"/></symbol><symbol id="care" viewBox="0 0 40 41"><path d="M20 15.542v4m0 4v-4m0 0h-4m4 0h4" stroke="#4E3D35" stroke-width="3" stroke-linecap="round" stroke-linejoin="round"/><circle cx="20" cy="20.042" r="14.5" stroke="#4E3D35" stroke-width="3"/></symbol><symbol id="cart" viewBox="0 0 21 25"><path stroke="#4E3D35" stroke-width="2" d="M1 7h19v17H1z"/><path d="M16.45 11.5V7.175c0-3.41-2.507-6.175-5.6-6.175-3.093 0-5.6 2.765-5.6 6.175V11.5" stroke="#4E3D35" stroke-width="2"/></symbol><symbol id="check-green" viewBox="0 0 24 25"><path fill-rule="evenodd" clip-rule="evenodd" d="M18.707 9.207l-7.74 7.74L6.262 11.8l1.476-1.35 3.294 3.604 6.26-6.261 1.415 1.414z" fill="#BABD2D"/></symbol><symbol id="check-small" viewBox="0 0 24 24"><path fill-rule="evenodd" clip-rule="evenodd" d="M18.707 8.707l-7.74 7.74L6.263 11.3l1.476-1.35 3.294 3.603 6.26-6.26 1.415 1.414z" fill="#222" fill-opacity=".3"/></symbol><symbol id="check-white" viewBox="0 0 24 16"><path d="M2 6.91L9.428 14 22 2" stroke="#fff" stroke-width="3" stroke-linecap="round" stroke-linejoin="round"/></symbol><symbol id="check" viewBox="0 0 24 16"><path d="M2 6.91L9.428 14 22 2" stroke="#4E3D35" stroke-width="3" stroke-linecap="round" stroke-linejoin="round"/></symbol><symbol id="cross-big" viewBox="0 0 40 40"><path d="M6.667 6.667L20 20m13.333 13.333L20 20m0 0L6.667 33.333M20 20L33.333 6.666" stroke="#4E3D35" stroke-width="2" stroke-linecap="round"/></symbol><symbol id="cross" viewBox="0 0 24 24"><path d="M6 6l6 6m6 6l-6-6m0 0l-6 6m6-6l6-6" stroke="#4E3D35" stroke-width="2" stroke-linecap="round"/></symbol><symbol id="delivery" viewBox="0 0 41 41"><path d="M7.228 33.935l-5.298-5.23a1.477 1.477 0 01-.428-1.044L1.5 7.542l.015-2.024c0-.19.022-.382.098-.565.226-.552.76-.911 1.35-.911h28.384c.387 0 .76.155 1.033.433l6.69 5.903c.266.267.43.636.43 1.045v21.514c0 1.182 0 2.105-2.058 2.105H10.424c-2.191 0-2.284-.184-3.196-1.107zm.273-3.933V12.034L4.5 9.074v17.968l3.001 2.96zM9.568 9.947H19.79l-2.923-2.953H6.645l2.923 2.953zm21.174-2.953H21l2.923 2.953h9.742l-2.923-2.953zM36.5 32.09V12.9H24.78v7.38h-2.924V12.9H10.425v19.19H36.5z" fill="#4E3D35"/></symbol><symbol id="display-1" viewBox="0 0 22 22"><path d="M1.5 1.5h19v7h-19zm0 12h19v7h-19z"/></symbol><symbol id="display-2" viewBox="0 0 22 22"><path d="M1 1h8v8H1zm12 0h8v8h-8zM1 13h8v8H1zm12 0h8v8h-8z"/></symbol><symbol id="facebook" viewBox="0 0 25 24"><path d="M7.5 12.415h2.654V22h3.193v-9.585h2.664l.4-3.083h-3.064V7.368c0-.89.248-1.497 1.53-1.497H16.5v-2.75A21.924 21.924 0 0014.12 3c-2.354 0-3.966 1.432-3.966 4.063v2.269H7.5v3.083z" fill="#3C5A96"/></symbol><symbol id="fav-active" viewBox="0 0 64 58"><g filter="url(#filter0_d)"><path d="M39.65 11A9.382 9.382 0 0032 14.961 9.382 9.382 0 0024.35 11C19.369 11 15 15.61 15 20.864c0 5.12 2.907 10.394 8.407 15.252a45.234 45.234 0 008.333 5.821.57.57 0 00.52 0 45.235 45.235 0 008.33-5.821C46.093 31.258 49 25.984 49 20.864 49 15.61 44.631 11 39.65 11z" fill="#fff"/></g></symbol><symbol id="fav-white" viewBox="0 0 42 44"><g filter="url(#filter0_d)"><path fill-rule="evenodd" clip-rule="evenodd" d="M18.869 6.8A9.4 9.4 0 0013.35 5C8.369 5 4 9.61 4 14.864c0 5.12 2.907 10.394 8.407 15.252a45.234 45.234 0 008.333 5.821.57.57 0 00.52 0 45.235 45.235 0 008.33-5.821C35.093 25.258 38 19.984 38 14.864 38 9.61 33.631 5 28.65 5a9.4 9.4 0 00-5.518 1.8A9.337 9.337 0 0021 8.96a9.337 9.337 0 00-2.131-2.16zM28.651 8a6.382 6.382 0 00-5.202 2.692L21 14.162l-2.45-3.47A6.382 6.382 0 0013.348 8C10.174 8.001 7 11.114 7 14.864c0 3.94 2.25 8.461 7.392 13.002 2.042 1.8 4.256 3.4 6.608 4.775a42.223 42.223 0 006.606-4.775C32.75 23.325 35 18.804 35 14.864 35 11.114 31.826 8 28.652 8z" fill="#fff"/></g></symbol><symbol id="fav" viewBox="0 0 24 22"><path d="M11.182 3.386L12 4.551l.818-1.165A5.612 5.612 0 0117.401 1C20.31 1 23 3.768 23 7c0 3.243-1.835 6.735-5.6 10.076a30.923 30.923 0 01-5.4 3.838 30.924 30.924 0 01-5.402-3.838C2.835 13.735 1 10.243 1 7c0-3.232 2.69-6 5.6-6a5.612 5.612 0 014.582 2.386z" stroke="#4E3D35" stroke-width="2"/></symbol><symbol id="filter" viewBox="0 0 24 24"><rect opacity=".5" y="18" width="24" height="3" rx="1.5" fill="#fff"/><rect opacity=".5" y="7" width="24" height="3" rx="1.5" fill="#fff"/><circle cx="16.5" cy="8" r="4" fill="#fff"/><circle cx="7.5" cy="19" r="4" fill="#fff"/></symbol><symbol id="fox" viewBox="0 0 40 41"><g clip-path="url(#clip0)" fill="#4E3D35"><path d="M36.657 27.97c-.9-4.558-2.751-8.75-5.26-11.964.239-.619 1.839-4.96 2.092-10.777a1.54 1.54 0 00-.64-1.32 1.563 1.563 0 00-1.476-.192c-1.797.687-5.273 2.409-8.527 6.258a12.158 12.158 0 00-3.084-.401 12.18 12.18 0 00-3.084.4c-3.255-3.848-6.73-5.57-8.527-6.257a1.562 1.562 0 00-1.476.193 1.54 1.54 0 00-.64 1.319c.253 5.817 1.853 10.158 2.092 10.777-2.509 3.214-4.36 7.406-5.26 11.965a.495.495 0 00.571.584c.943-.166 2.033-.323 2.682-.377l-.377 1.132a.495.495 0 00.33.632c.049.014 4.838 1.429 7.93 3.37a3.95 3.95 0 001.287 1.319c.259.162.534.291.823.389.196 1.146 1.728 2.011 3.649 2.011 1.92 0 3.453-.865 3.65-2.011.288-.098.564-.227.823-.389a3.95 3.95 0 001.287-1.319c3.09-1.94 7.88-3.355 7.928-3.37a.495.495 0 00.331-.632l-.377-1.132c.649.054 1.74.21 2.682.377a.495.495 0 00.571-.584zm-4.93-23.327a.589.589 0 01.16-.037c-.31.232-.814.634-1.45 1.218a.495.495 0 10.67.73 18.758 18.758 0 011.383-1.162c-.23 4.624-1.35 8.333-1.826 9.724l-.18-.205c-1.164-1.303-2.425-2.383-3.758-3.226a31.06 31.06 0 012.793-3.54.495.495 0 00-.73-.67 32.078 32.078 0 00-2.919 3.707 13.688 13.688 0 00-1.99-.89c3.028-3.454 6.19-5.016 7.846-5.65zm-23.93 0c1.658.633 4.819 2.196 7.848 5.65a13.697 13.697 0 00-1.99.888C11.07 7.364 8.537 5.279 7.639 4.606a.592.592 0 01.159.037zm-.763.75c.327.245.916.714 1.66 1.418 1.025.971 2.555 2.594 4.105 4.873-1.334.843-2.595 1.924-3.76 3.227-.06.067-.12.136-.179.205-.475-1.391-1.597-5.1-1.826-9.724zm14.733 30.193c-.52.289-1.25.455-2.005.455-.754 0-1.485-.166-2.005-.455a1.82 1.82 0 01-.462-.351c.063.002.126.004.19.004.733 0 1.506-.171 2.277-.514.771.343 1.544.514 2.277.514.064 0 .127-.002.19-.004a1.82 1.82 0 01-.462.35zm-2.413-3.36c-.723-.403-1.276-.759-1.276-1.345 0-.695.742-1.26 1.653-1.26s1.653.565 1.653 1.26c0 .586-.553.942-1.276 1.346l-.024.013a.7.7 0 01-.705 0l-.025-.014zm9.802-6.562a.495.495 0 00.576.398c2.063-.378 3.78.474 4.853 1.25-1.707-.234-1.965-.112-2.075-.06a.495.495 0 00-.258.604l.429 1.286c-1.153.364-4.1 1.353-6.59 2.695.08-.377.121-.776.121-1.192 0-1.244.3-2.895 1.73-3.69a.495.495 0 00-.48-.866c-1.445.803-2.24 2.422-2.24 4.556 0 1.398-.552 2.544-1.513 3.146-.935.586-2.18.607-3.452.07v-.62a1.76 1.76 0 00.31-.136l.024-.014c.71-.396 1.784-.996 1.784-2.21 0-1.241-1.186-2.25-2.644-2.25-1.457 0-2.643 1.009-2.643 2.25 0 1.214 1.073 1.814 1.784 2.21l.024.014c.12.067.244.118.37.155v.6c-1.271.538-2.516.517-3.45-.069-.963-.601-1.514-1.748-1.514-3.146 0-2.134-.795-3.753-2.24-4.556a.495.495 0 10-.481.865c1.43.796 1.73 2.447 1.73 3.691 0 .416.042.815.121 1.192-2.49-1.342-5.436-2.331-6.59-2.695l.43-1.286a.495.495 0 00-.258-.604c-.11-.052-.369-.174-2.082.062 1.07-.777 2.787-1.631 4.86-1.252a.495.495 0 00.178-.975c-2.543-.465-4.58.62-5.788 1.543 1.08-4.315 3.039-8.198 5.596-11.059 1.424-1.592 2.992-2.832 4.66-3.684 1.72-.878 3.512-1.322 5.324-1.322 1.812 0 3.603.444 5.323 1.322 1.669.852 3.237 2.091 4.66 3.684 2.558 2.86 4.516 6.744 5.597 11.058-1.207-.923-3.244-2.007-5.788-1.542a.495.495 0 00-.398.577z"/><path d="M16.325 20.972a.495.495 0 10-.894.426c.086.182.13.378.13.581v1.059c0 .748-.609 1.357-1.357 1.357a1.359 1.359 0 01-1.357-1.357v-1.059c0-.748.608-1.357 1.357-1.357a.495.495 0 000-.99 2.35 2.35 0 00-2.348 2.347v1.059a2.35 2.35 0 002.348 2.348 2.35 2.35 0 002.348-2.348v-1.059c0-.352-.076-.69-.227-1.007zm11.117 0a.495.495 0 10-.895.426c.087.182.13.377.13.581v1.059a1.36 1.36 0 01-1.357 1.357 1.36 1.36 0 01-1.357-1.357v-1.059c0-.748.609-1.357 1.357-1.357a.495.495 0 000-.99 2.35 2.35 0 00-2.348 2.347v1.059a2.35 2.35 0 002.348 2.348 2.35 2.35 0 002.348-2.348v-1.059c0-.352-.076-.69-.226-1.007z"/></g></symbol><symbol id="instagram-big" viewBox="0 0 48 48"><path fill-rule="evenodd" clip-rule="evenodd" d="M24.5 9h-1c-3.574 0-6.028.004-7.912.195-1.833.187-2.791.526-3.477.985a7 7 0 00-1.931 1.931c-.459.686-.798 1.644-.985 3.477C9.004 17.472 9 19.926 9 23.5v1c0 3.574.004 6.028.195 7.912.187 1.833.526 2.791.985 3.477a7 7 0 001.931 1.931c.686.459 1.644.798 3.477.985 1.884.191 4.338.195 7.912.195h1c3.574 0 6.028-.004 7.912-.195 1.833-.187 2.791-.526 3.477-.985a7 7 0 001.931-1.931c.459-.686.798-1.644.985-3.477.191-1.884.195-4.338.195-7.912v-1c0-3.574-.004-6.028-.195-7.912-.187-1.833-.526-2.791-.985-3.477a7 7 0 00-1.931-1.931c-.686-.459-1.644-.798-3.477-.985C30.528 9.004 28.074 9 24.5 9zM7.685 10.444C6 12.966 6 16.478 6 23.5v1c0 7.022 0 10.533 1.685 13.056a10 10 0 002.76 2.759C12.965 42 16.477 42 23.5 42h1c7.022 0 10.533 0 13.056-1.685a10 10 0 002.759-2.76C42 35.034 42 31.523 42 24.5v-1c0-7.022 0-10.534-1.685-13.056a10 10 0 00-2.76-2.759C35.034 6 31.523 6 24.5 6h-1c-7.022 0-10.534 0-13.056 1.685a10 10 0 00-2.759 2.76z" fill="url(#paint0_linear)"/><path fill-rule="evenodd" clip-rule="evenodd" d="M24 17c-3.864 0-7 3.136-7 7s3.136 7 7 7 7-3.136 7-7-3.136-7-7-7zm-10 7c0-5.521 4.48-10 10-10 5.521 0 10 4.479 10 10s-4.479 10-10 10c-5.52 0-10-4.479-10-10z" fill="url(#paint1_linear)"/><path d="M36.629 14.314a2.314 2.314 0 11-4.63 0 2.314 2.314 0 014.63 0z" fill="url(#paint2_linear)"/></symbol><symbol id="instagram" viewBox="0 0 48 48"><path fill-rule="evenodd" clip-rule="evenodd" d="M25.6 8h-3.2c-3.024 0-5.165.002-6.833.147-1.644.143-2.641.414-3.421.843a8 8 0 00-3.156 3.156c-.43.78-.7 1.777-.843 3.42C8.002 17.237 8 19.377 8 22.4v3.2c0 3.024.002 5.165.147 6.833.143 1.644.414 2.641.843 3.421a8 8 0 003.156 3.157c.78.428 1.777.699 3.42.842 1.67.145 3.81.147 6.834.147h3.2c3.024 0 5.165-.002 6.833-.147 1.644-.143 2.641-.414 3.421-.843a8.001 8.001 0 003.157-3.156c.428-.78.699-1.777.842-3.42.145-1.67.147-3.81.147-6.834v-3.2c0-3.024-.002-5.165-.147-6.833-.143-1.644-.414-2.641-.843-3.421a8 8 0 00-3.156-3.156c-.78-.43-1.777-.7-3.42-.843C30.763 8.002 28.623 8 25.6 8zM7.237 11.182C6 13.432 6 16.422 6 22.4v3.2c0 5.978 0 8.968 1.237 11.218a10 10 0 003.945 3.945C13.432 42 16.422 42 22.4 42h3.2c5.978 0 8.968 0 11.218-1.237a10 10 0 003.945-3.945C42 34.568 42 31.578 42 25.6v-3.2c0-5.978 0-8.968-1.237-11.217a10 10 0 00-3.945-3.946C34.568 6 31.578 6 25.6 6h-3.2c-5.978 0-8.968 0-11.217 1.237a10 10 0 00-3.946 3.945z" fill="#4E3D35" fill-opacity=".6"/><path fill-rule="evenodd" clip-rule="evenodd" d="M24 16c-4.416 0-8 3.584-8 8s3.584 8 8 8 8-3.584 8-8-3.584-8-8-8zm-10 8c0-5.521 4.48-10 10-10 5.521 0 10 4.479 10 10s-4.479 10-10 10c-5.52 0-10-4.479-10-10z" fill="#4E3D35" fill-opacity=".6"/><path d="M36.629 14.314a2.314 2.314 0 11-4.63 0 2.314 2.314 0 014.63 0z" fill="#4E3D35" fill-opacity=".6"/></symbol><symbol id="logo" viewBox="0 0 277 69"><path d="M89.308 54.66c.15-.114.28-.252.381-.41.098-.157.171-.327.22-.505.052-.173.078-.352.077-.533a1.745 1.745 0 00-.198-.886 1.577 1.577 0 00-.508-.54 1.924 1.924 0 00-.707-.257 3.829 3.829 0 00-.706-.069c-.358 0-.69.014-.996.042a9.383 9.383 0 00-.805.104v7.187c.137.033.276.057.417.07l.473.04h.819c.304 0 .606-.041.897-.124.282-.08.546-.211.777-.388.234-.187.422-.424.551-.692a2.353 2.353 0 00.092-1.717 1.89 1.89 0 00-.318-.533 1.535 1.535 0 00-.452-.347 2.2 2.2 0 00-.537-.173v-.041a1.58 1.58 0 00.523-.229zm-.502 1.08c.166.099.305.237.403.401.107.215.158.453.148.692a1.3 1.3 0 01-.12.596c-.082.164-.2.308-.346.422-.146.115-.314.2-.494.25-.188.053-.383.08-.58.076h-.811a.939.939 0 01-.184 0v-2.694h.812c.206.002.412.02.615.056.199.032.39.1.565.2h-.007zm-.324-1.226c-.133.08-.272.146-.417.2-.125.01-.25.01-.374 0h-.869V52.27c.128-.025.258-.04.388-.041h.565c.172 0 .343.02.509.062.162.032.316.096.452.187.129.097.235.22.31.36.086.18.127.377.12.575.003.159-.028.317-.091.464-.058.137-.14.263-.24.374a2.05 2.05 0 01-.346.263h-.007zm5.564 3.42c.213.332.51.602.864.785.354.182.75.27 1.15.254.387.017.774-.064 1.121-.235a2.26 2.26 0 00.863-.742c.514-.832.76-1.797.706-2.77a7.002 7.002 0 00-.155-1.55 3.551 3.551 0 00-.488-1.184c-.21-.32-.5-.585-.84-.769a2.484 2.484 0 00-1.194-.27 2.29 2.29 0 00-1.115.235 2.24 2.24 0 00-.855.741 4.773 4.773 0 00-.707 2.77 6.94 6.94 0 00.163 1.551c.09.42.255.82.487 1.184zm.664-5.013c.14-.228.337-.416.574-.545.237-.128.504-.194.775-.189.298-.008.59.08.834.25.248.18.447.417.579.692.164.298.279.621.339.955.071.377.107.76.106 1.143a4.086 4.086 0 01-.495 2.271 1.537 1.537 0 01-.591.512 1.573 1.573 0 01-.772.16 1.382 1.382 0 01-.826-.243 1.877 1.877 0 01-.572-.692 3.393 3.393 0 01-.332-.956 5.953 5.953 0 01-.078-1.087 4.194 4.194 0 01.46-2.271zm11.746 5.941v-7.319h-3.454c0 .886-.042 1.669-.078 2.334a26.343 26.343 0 01-.148 1.717 9.697 9.697 0 01-.205 1.184 4.366 4.366 0 01-.247.755 1.112 1.112 0 01-.304.429.513.513 0 01-.31.11.62.62 0 01-.198 0l-.106.749c.075.033.153.061.233.083.096.007.193.007.29 0a.936.936 0 00.607-.229c.218-.188.385-.426.487-.692a8.467 8.467 0 00.459-2.16 49.26 49.26 0 00.255-3.463h1.949v6.502h.77zm4.527-7.319h-.77v7.305h6.597v-7.305h-.777v6.53H113.9v-6.53h-.777v6.53h-2.14v-6.53zm13.136.769v-.769h-3.56v7.305h3.609v-.775h-2.832v-2.597h2.55v-.768h-2.55v-2.396h2.783zm7.161 0v-.769h-3.531v7.23c.132.039.266.069.402.09l.431.04h.777c.31.002.618-.048.911-.145.282-.087.541-.23.763-.422.227-.207.406-.46.523-.741.14-.343.207-.71.197-1.08a2.452 2.452 0 00-.19-1.039 1.627 1.627 0 00-.523-.65 1.83 1.83 0 00-.756-.34 3.797 3.797 0 00-.904-.104 3.389 3.389 0 00-.445.035l-.395.062v-2.167h2.74zm-2.634 2.908h.628c.204 0 .407.02.608.055.186.035.363.111.515.222.161.122.286.285.361.47.099.247.145.511.134.776.01.236-.028.472-.113.693a1.308 1.308 0 01-.318.464 1.427 1.427 0 01-.473.277 1.7 1.7 0 01-.565.09h-.742a.785.785 0 01-.176 0v-3.02l.141-.027zm11.074 3.628v-7.305h-.776v3.185h-3.136v-3.185h-.777v7.305h.777v-3.351h3.136v3.351h.776zm9.344-7.305h-.777v7.305h.777v-7.305zm-4.837 7.361h.671a3.21 3.21 0 00.988-.146 2.11 2.11 0 00.77-.443c.224-.213.396-.474.502-.762.125-.351.185-.722.176-1.094a2.566 2.566 0 00-.191-1.066 1.805 1.805 0 00-.508-.692 1.934 1.934 0 00-.706-.347c-.28-.067-.567-.1-.855-.097h-.805V51.42h-.77v7.353c.123.037.248.064.374.083.117.022.235.038.354.049zm0-3.76l.31-.063a2.415 2.415 0 01.975.035c.185.044.359.126.509.242.152.125.271.284.346.464.089.22.135.456.134.693a1.616 1.616 0 01-.438 1.225 1.588 1.588 0 01-1.116.402 3.19 3.19 0 01-.706-.062l-.014-2.936zm12.19 2.929h-2.832v-2.597h2.55v-.768h-2.55v-2.396h2.783v-.769h-3.553v7.305h3.602v-.775zm8.999-6.53h-.777v7.305h.459l3.157-4.93.403-.852h.035l-.057.831v4.951h.777v-7.305h-.459l-3.157 4.979-.409.851h-.036l.064-.823v-5.007zm7.514.229l.205.692a2.1 2.1 0 01.572-.187c.281-.06.567-.088.855-.083.171-.002.342.02.508.062.154.033.299.1.424.194.122.102.219.23.282.374.077.182.113.378.106.575a1.203 1.203 0 01-.346.824 1.403 1.403 0 01-.374.256c-.147.064-.301.11-.459.139h-1.038v.782h.918c.386.014.76.139 1.073.36a1.12 1.12 0 01.41.962c.008.225-.038.448-.134.651a1.335 1.335 0 01-.353.45 1.478 1.478 0 01-.502.277 1.954 1.954 0 01-.565.083 5.119 5.119 0 01-.939-.076 2.487 2.487 0 01-.608-.194l-.19.776c.211.087.431.153.657.194.333.055.671.08 1.01.076.306 0 .611-.044.904-.132a2.14 2.14 0 00.784-.415c.231-.19.419-.426.551-.693a2.29 2.29 0 00.211-1.024 1.77 1.77 0 00-.388-1.205 1.65 1.65 0 00-1.045-.547V54.9c.382-.115.71-.36.925-.692.199-.296.307-.643.311-.997a1.85 1.85 0 00-.177-.859 1.39 1.39 0 00-.452-.554 1.774 1.774 0 00-.65-.29 2.8 2.8 0 00-.706-.09 4.42 4.42 0 00-1.095.117 2.767 2.767 0 00-.685.236zm12.105 8.42h.53v-2.12h-.848v-6.529h-3.489c0 1.087-.042 2.022-.12 2.812a23.362 23.362 0 01-.275 1.973 8.59 8.59 0 01-.311 1.212 3.233 3.233 0 01-.226.533h-.664v2.119h.544l.134-1.344h4.584l.141 1.344zm-1.088-2.12h-2.825c.117-.276.214-.56.29-.85.092-.347.176-.749.254-1.22.078-.47.134-1.01.191-1.62.056-.61.084-1.302.106-2.077h1.984v5.768zm8.398-5.76v-.769h-3.559v7.305h3.602v-.775h-2.825v-2.597h2.549v-.768h-2.549v-2.396h2.782zm7.847 6.55v-7.319h-3.454c0 .886-.042 1.669-.077 2.334a26.991 26.991 0 01-.149 1.717c-.043.4-.112.798-.205 1.19a4.34 4.34 0 01-.247.756 1.119 1.119 0 01-.303.429.517.517 0 01-.311.11.62.62 0 01-.198 0l-.106.748c.075.034.153.062.233.084.097.007.193.007.29 0a.933.933 0 00.607-.229c.218-.188.385-.426.487-.692a8.512 8.512 0 00.46-2.16c.105-.922.19-2.078.247-3.463h1.956v6.495h.77zm4.915-2.34l-.416.851h-.036l.064-.823v-5.007h-.77v7.305h.452l3.157-4.93.403-.852h.035l-.056.831v4.951h.776v-7.305h-.459l-3.15 4.979zm9.705-5.062a3.754 3.754 0 00-.939.11c-.28.065-.543.188-.77.361-.23.184-.41.422-.523.692a2.585 2.585 0 00-.197 1.06c-.004.277.037.552.12.817.069.223.179.432.325.616.136.176.303.326.494.443.193.115.403.201.621.257l-.565.45-1.461 2.596h.918l1.624-2.956.961-.229v3.185h.776v-7.25a4.08 4.08 0 00-.706-.124 7.81 7.81 0 00-.678-.028zm.608 3.705h-.636a2.104 2.104 0 01-.607-.084 1.304 1.304 0 01-.841-.734 1.646 1.646 0 01-.127-.692 1.713 1.713 0 01.127-.692c.08-.176.201-.33.353-.45.15-.11.32-.19.502-.236.192-.044.388-.068.586-.07.125-.008.25-.008.374 0 .091.008.18.021.269.042v2.916zm10.339 1.357l-.41.851h-.035l.063-.823v-5.007h-.777v7.305h.46l3.157-4.93.402-.852h.035l-.056.831v4.951h.777v-7.305h-.459l-3.157 4.979zm9.676-1.586v-.042c.38-.12.707-.364.925-.692a1.82 1.82 0 00.304-.997 1.954 1.954 0 00-.17-.859 1.448 1.448 0 00-.459-.554 1.74 1.74 0 00-.643-.29 2.92 2.92 0 00-.706-.09 4.467 4.467 0 00-1.095.117c-.233.05-.458.13-.671.236l.205.692c.181-.088.374-.151.572-.187a3.78 3.78 0 01.855-.083c.174-.001.347.02.515.062a1.1 1.1 0 01.417.194c.125.1.222.228.283.374.076.182.112.378.106.575a1.13 1.13 0 01-.346.824 1.42 1.42 0 01-.375.256 1.949 1.949 0 01-.459.139h-1.031v.789h.911c.386.013.76.138 1.074.36a1.113 1.113 0 01.416.962 1.4 1.4 0 01-.141.651 1.256 1.256 0 01-.353.45 1.468 1.468 0 01-.502.277 1.954 1.954 0 01-.565.083 5.188 5.188 0 01-.939-.076 2.316 2.316 0 01-.6-.194l-.198.776c.212.086.432.15.657.194.336.055.676.08 1.017.076.304 0 .606-.044.897-.132a2.14 2.14 0 00.784-.415 2.09 2.09 0 00.551-.693 2.31 2.31 0 00.212-1.024 1.807 1.807 0 00-.382-1.205 1.66 1.66 0 00-1.066-.554zm11.272.09l.395-.346 2.183-3.137h-.897l-2.197 3.255-.417.145v-3.4h-.777v7.305h.777v-3.386h.438l2.38 3.386h.982l-2.387-3.406-.48-.416zm10.573-2.569a2.305 2.305 0 00-.834-.768 2.51 2.51 0 00-1.2-.27 2.28 2.28 0 00-1.112.236 2.24 2.24 0 00-.852.74 4.775 4.775 0 00-.706 2.77 7.032 7.032 0 00.155 1.55c.089.424.256.828.495 1.192.205.32.489.584.826.768.363.187.769.28 1.18.27.388.018.775-.063 1.122-.233.348-.171.645-.427.862-.743.514-.833.76-1.798.707-2.77a7.037 7.037 0 00-.163-1.55 3.562 3.562 0 00-.48-1.192zm-.671 5.02a1.53 1.53 0 01-.572.516 1.564 1.564 0 01-.756.177 1.373 1.373 0 01-.819-.243 1.822 1.822 0 01-.579-.692 3.393 3.393 0 01-.332-.956 5.914 5.914 0 01-.106-1.15 4.126 4.126 0 01.494-2.27c.138-.228.334-.416.57-.545a1.55 1.55 0 01.772-.19c.3-.006.594.082.841.25.246.182.445.42.579.692.159.3.27.623.332.956.071.377.107.76.106 1.143a4.09 4.09 0 01-.53 2.312zm8.991-2.43l.374-.332 1.886-3.172h-.862l-1.893 3.255-.402.145v-3.4h-.742v3.275h-.424l-1.893-3.275h-.904l1.95 3.275.431.367-.452.395-2.063 3.268h.897l2.062-3.358.396-.152v3.51h.742v-3.386h.43l2.063 3.386h.953l-2.083-3.372-.466-.43zm6.661 1.475l-.417.851h-.036l.064-.823v-5.007h-.77v7.305h.452l3.157-4.93.403-.852h.035l-.056.831v4.951h.776v-7.305h-.459l-3.149 4.979zm-89.725-27.988c.614-.01 1.228-.056 1.836-.139 1.06 4.051 3.157 13.579 3.157 13.579h6.089l-4.365-15.026a6.645 6.645 0 002.957-2.668 6.457 6.457 0 00.864-3.848c-.438-8.108-10.538-6.19-10.538-6.19v-1.814h-5.106v29.539h5.65l-.544-13.433zm-53.827 8.634h-7.832v-4.265h6.639v-4.902h-6.526V17.227h7.719v-4.799h-12.614v29.539h12.614v-4.799zm-16.985-9.569c0-16.362-14.365-15.074-14.365-15.074l-.706 30.141s15.071 1.565 15.071-15.067zM90.65 19.74h-4.5v23.833h4.5V19.74zm-2.253-2.687c.628 0 1.243-.182 1.765-.525a3.13 3.13 0 001.171-1.398 3.06 3.06 0 00.181-1.8 3.097 3.097 0 00-.87-1.596 3.198 3.198 0 00-1.627-.853 3.238 3.238 0 00-1.836.178 3.166 3.166 0 00-1.427 1.147 3.073 3.073 0 00.393 3.937c.296.29.646.519 1.032.675.386.156.8.236 1.218.235zm49.643-.858h-4.499v28.008h4.499V16.195zm-2.041-2.687a3.22 3.22 0 001.765-.525 3.13 3.13 0 001.171-1.398 3.069 3.069 0 00-.689-3.396 3.202 3.202 0 00-1.627-.853 3.24 3.24 0 00-1.837.178 3.167 3.167 0 00-1.426 1.147 3.075 3.075 0 00-.536 1.731c0 .827.335 1.62.931 2.204a3.212 3.212 0 002.248.912zm109.218 2.818c-5.502 0-9.958 4.889-9.958 10.927 0 6.038 4.456 10.926 9.958 10.926s9.966-4.895 9.966-10.926c0-6.031-4.464-10.927-9.966-10.927zm25.603-4.216l-3.588 12.048-3.588-12.048h-5.876v29.774l5.438.422v-16.68s2.719 8.309 3.92 8.309c1.2 0 3.913-8.31 3.913-8.31v16.619h5.65V12.11h-5.869zm-37.85 15.274c0-14.23-11.428-15.31-14.91-15.31-.621 0-.996.035-.996.035l-.819 30.135s.523.055 1.37.055c3.991.007 15.355-1.198 15.355-14.915zm-6.145 5.858a7.111 7.111 0 01-2.62 2.66c-.912.53-1.9.925-2.931 1.17l.537-19.666a9.337 9.337 0 012.366 1.039c2.613 1.627 3.877 4.55 3.877 8.94a12.05 12.05 0 01-1.229 5.857zm-13.066 5.664V15.49h-4.491v3.247a8.14 8.14 0 00-2.693-1.974 8.281 8.281 0 00-3.275-.74c-5.079 0-9.182 5.075-9.182 11.342 0 6.266 4.118 11.335 9.182 11.335a8.29 8.29 0 003.272-.728 8.152 8.152 0 002.696-1.959v2.922l4.491-.028zM203.3 33.893c-2.035 0-4.302-2.68-4.302-6.53s2.267-6.536 4.302-6.536c2.034 0 4.301 2.68 4.301 6.537 0 3.856-2.267 6.53-4.301 6.53zm-38.612 8.227c4.436 0 7.261-2.078 8.631-6.447a20.306 20.306 0 00.706-10.144l-8.376-.097-.191 5.22 3.39.104v.305c0 2.008-.438 3.428-1.306 4.23a3.294 3.294 0 01-2.543.776 2.995 2.995 0 01-1.183-.269 2.941 2.941 0 01-.971-.714c-1.06-1.184-1.462-3.427-1.229-6.862.438-6.453 3.291-9.79 5.24-9.79h.099a3.43 3.43 0 011.599.628c.469.341.84.795 1.078 1.317l4.294-2.617a6.892 6.892 0 00-2.247-3.78 7.134 7.134 0 00-4.109-1.704h-.156a10.37 10.37 0 00-6.109 2.5c-3.086 2.554-4.944 6.75-5.325 12.13-.445 6.018.53 10.339 2.91 12.838a7.775 7.775 0 002.643 1.788 7.905 7.905 0 003.155.587zM147.71 31.165a3.22 3.22 0 001.765-.525c.523-.343.93-.83 1.171-1.399a3.06 3.06 0 00.181-1.8 3.104 3.104 0 00-.87-1.595 3.198 3.198 0 00-1.627-.853 3.24 3.24 0 00-1.837.177 3.167 3.167 0 00-1.426 1.148 3.075 3.075 0 00-.536 1.731c0 .826.335 1.619.931 2.203a3.212 3.212 0 002.248.913zM66.629 6.84c.078-.886.007-4.757-.629-5.214-.635-.457-1.13-.2-2.493-.235-1.363-.035-7.493-1.33-9.436-1.385C52.13-.05 35.807.317 35.341.29c-.466-.028-7.126-.222-8.949.117a29.616 29.616 0 01-5.353.291c-2.077 0-9.676 1.039-11.364.949L5.133 1.39c-1.412-.07-3.566-.27-4.47.92-.558.728-.05 3.303.275 4.619a30.825 30.825 0 010 7.776c-.36 1.364.085 5.595.085 8.018 0 2.424-.657 4.563-.706 7.908-.05 3.344.6 8.309.706 10.843.106 2.534 1.617 23.293 3.228 24.927 1.61 1.635 3.934 1.731 5.367 1.676 1.434-.055 4.238-.692 6.16-.83 1.92-.14 5.579.283 6.878.352 1.3.07 10.276-.11 11.717-.159 1.441-.048 9.182.596 11.414.582 2.232-.014 8.743-.568 10.184-.748 1.44-.18 3.22.547 4.542.228 1.32-.318 4.032-.048 4.943-.505.912-.457.537-5.2.396-7.506-.141-2.306-.396-21.7-.325-25.488.07-3.788 1.222-10.684 1.413-14.88.186-2.92.018-5.851-.502-8.732-.212-.893.141-2.659.19-3.552zm-4.45 12.65c-.205 3.816-1.172 14.61-1.123 20.607v1.883c-3.531 3.075-7.521 7.043-7.521 7.043s-3.659 7.685-5.15 11.078l-3.135-3.157.742-20.773 1.928-4.244s3.531-3.463 4.414-3.982c.883-.52 7.063-6.924 7.063-6.924l2.825-4.21a42.52 42.52 0 01-.043 2.68zm-.706-15.454c.325.207.565 3.275.706 6.723l-4.548 7.672-9.14 8.268-3.043 2.77-.474-4.418-1.235-4.272-1.823-8.469-4.477-9.5c4.703.2 12.762.762 15.05.88 2.98.152 8.327-.05 8.956.346h.028zM33.356 2.838l3.616 5.76 4.944 16.993v.9l-10.954-9.369-4.513-8.115-1.836-4.93c.395 0 .798-.048 1.193-.097 2.394-.325 5.29-.907 7.55-1.142zm-14.125.803c.438 0 1.37.187 2.528.312l1.519 6.044 5.777 8.704 12.89 12.824v3.635l.26 6.71-1.61 10.386-4.237-4.286c-.954-.88-9.323-10.324-10.403-12.104-1.081-1.78-8.476-11.529-10.976-24.567-.685-3.538-1.066-5.754-1.243-7.18 2.359-.173 4.683-.52 5.46-.478h.035zm4.576 45.762s-9.033 1.067-10.594 1.24c-1.56.173-4.704.27-6.992-.617-.254-1.287-.925-7.824-.96-9.735 0-1.045 0-3.42-.064-5.54l2.352 1.6 3.779 2.361 6.165 1.53 1.342.45 5.206.27c4.435 6.073 6.109 7.209 6.893 7.687l-2.691-.174-4.436.928zM5.162 30.708c-.057-1.15-.163-7.14.099-10.179l3.637 3.02 3.68 1.626 4.378 3.06a55.565 55.565 0 004.316 8.677l-2.988.727-5.057-1.468-2.676-1.094-4.408-3.912-1.01-.305c0-.055-.007-.104-.007-.138l.036-.014zm5.834-26.45a81.6 81.6 0 001.815 9.97c.19.852.932 4.452 2.401 9.002l-7.38-3.463-2.24-2.077c.205-2.41.262-5.36.269-7.326a52.344 52.344 0 00-.388-5.511 53.789 53.789 0 015.487-.582l.036-.014zm-4.16 57.789c-.551-1.039-.572-5.415-.587-8.62l3.864.886 8.567-1.219 3.687-.374c-1.293 1.607-3.136 4.355-3.136 4.355l-3.143 4.647-2.119 1.855-1.413-.09c-6.292-.47-5.24-.526-5.72-1.44zm10.269 1.662l5.488-6.869s.833-.976 1.66-1.821l2.67-2.77 3.057-.311 4.732.353A120.794 120.794 0 0144.6 64.062h-.706c-6.809.18-19.055-.014-26.79-.353zm44.658-1.897a69.6 69.6 0 01-9.366 1.62c.113-5.463 3.581-12.083 4.076-12.61.331-.345 2.825-3.461 4.64-5.622v6.121a59.697 59.697 0 00.318 6.232c.332 1.96.713 4.023.332 4.259z" fill="#4E3D35"/></symbol><symbol id="minus" viewBox="0 0 12 2"><path fill="#4E3D35" fill-opacity=".6" d="M0 2V0h12v2z"/></symbol><symbol id="odnoklassniki" viewBox="0 0 25 24"><path d="M6.434 12.734c-.51 1.004.07 1.484 1.393 2.304 1.125.695 2.679.95 3.677 1.051l-.836.805c-1.186 1.13-2.311 2.223-3.098 2.98-1.145 1.098.698 2.858 1.842 1.784l3.098-2.987a662.807 662.807 0 013.098 2.991c1.145 1.079 2.987-.667 1.854-1.784l-3.097-2.98-.848-.805c1.01-.101 2.541-.37 3.653-1.05v-.001c1.322-.825 1.902-1.304 1.4-2.308-.305-.57-1.125-1.047-2.217-.222 0 0-1.474 1.129-3.851 1.129-2.379 0-3.852-1.13-3.852-1.13-1.092-.828-1.915-.347-2.216.223z" fill="#F58220"/><path d="M12.5 12.118c2.897 0 5.264-2.265 5.264-5.053C17.764 4.265 15.397 2 12.5 2 9.6 2 7.233 4.265 7.233 7.065c0 2.788 2.367 5.053 5.266 5.053zm0-7.552c1.423 0 2.585 1.117 2.585 2.499 0 1.37-1.162 2.487-2.586 2.487S9.913 8.436 9.913 7.066c0-1.383 1.161-2.5 2.586-2.5z" fill="#F58220"/></symbol><symbol id="payment-1" viewBox="0 0 70 40"><rect width="70" height="40" rx="4" fill="#FEFDFA"/><path d="M26.067 27.47l2.641-14.857h4.127L30.276 27.47h-4.21z" fill="#3C58BF"/><path d="M26.067 27.47l3.384-14.857h3.384L30.276 27.47h-4.21z" fill="#293688"/><path d="M45.216 12.778c-.825-.33-2.146-.66-3.797-.66-4.127 0-7.098 2.063-7.098 5.034 0 2.229 2.063 3.384 3.714 4.127 1.65.743 2.146 1.238 2.146 1.899 0 .99-1.32 1.485-2.476 1.485-1.65 0-2.559-.247-3.962-.825l-.578-.248-.578 3.385c.99.412 2.807.825 4.705.825 4.375 0 7.264-2.064 7.264-5.2 0-1.733-1.073-3.054-3.55-4.127-1.485-.743-2.393-1.155-2.393-1.898 0-.66.743-1.321 2.394-1.321 1.403 0 2.393.248 3.136.578l.413.165.66-3.22z" fill="#3C58BF"/><path d="M45.216 12.778c-.825-.33-2.146-.66-3.797-.66-4.127 0-6.355 2.063-6.355 5.034 0 2.229 1.32 3.384 2.971 4.127 1.65.743 2.146 1.238 2.146 1.899 0 .99-1.32 1.485-2.476 1.485-1.65 0-2.559-.247-3.962-.825l-.578-.248-.578 3.385c.99.412 2.807.825 4.705.825 4.375 0 7.264-2.064 7.264-5.2 0-1.733-1.073-3.054-3.55-4.127-1.485-.743-2.393-1.155-2.393-1.898 0-.66.743-1.321 2.394-1.321 1.403 0 2.393.248 3.136.578l.413.165.66-3.22z" fill="#293688"/><path d="M52.314 12.613c-.99 0-1.733.082-2.146 1.073l-6.19 13.784h4.457l.825-2.476h5.283l.495 2.476H59l-3.467-14.857h-3.219zm-1.898 9.904c.247-.742 1.65-4.374 1.65-4.374s.33-.908.578-1.486l.248 1.403s.825 3.715.99 4.54h-3.466v-.083z" fill="#3C58BF"/><path d="M53.304 12.613c-.99 0-1.733.082-2.146 1.073l-7.18 13.784h4.457l.825-2.476h5.283l.495 2.476H59l-3.467-14.857h-2.229zm-2.888 9.904c.33-.825 1.65-4.374 1.65-4.374s.33-.908.578-1.486l.248 1.403s.825 3.715.99 4.54h-3.466v-.083z" fill="#293688"/><path d="M18.473 23.012l-.412-2.146c-.743-2.476-3.137-5.2-5.778-6.52l3.714 13.206h4.457l6.686-14.857h-4.457l-4.21 10.317z" fill="#3C58BF"/><path d="M18.473 23.012l-.412-2.146c-.743-2.476-3.137-5.2-5.778-6.52l3.714 13.206h4.457l6.686-14.857h-3.632l-5.035 10.317z" fill="#293688"/><path d="M7 12.613l.743.165c5.282 1.238 8.914 4.374 10.317 8.089l-1.485-7.016c-.248-.99-.99-1.238-1.899-1.238H7z" fill="#FFBC00"/><path d="M7 12.613c5.283 1.238 9.657 4.457 11.06 8.171l-1.403-5.86c-.247-.99-1.073-1.569-1.98-1.569L7 12.613z" fill="#F7981D"/><path d="M7 12.613c5.283 1.238 9.657 4.457 11.06 8.171l-.99-3.219c-.248-.99-.578-1.981-1.734-2.394L7 12.613z" fill="#ED7C00"/></symbol><symbol id="payment-2" viewBox="0 0 73 40"><rect width="73" height="40" rx="4" fill="#FEFDFA"/><path fill-rule="evenodd" clip-rule="evenodd" d="M24.282 12.5v.007c-.007 0-2.07-.007-2.62 1.965-.505 1.807-1.927 6.799-1.966 6.936h-.393s-1.454-5.102-1.966-6.943c-.55-1.972-2.62-1.965-2.62-1.965H10v15h4.717v-8.908h.393l2.752 8.908h3.275l2.752-8.902h.393V27.5h4.717v-15h-4.717zm17.23 0s-1.383.124-2.031 1.572l-3.341 7.336h-.393V12.5H31.03v15h4.455s1.447-.131 2.096-1.572l3.276-7.336h.393V27.5h4.717v-15h-4.455zm6.551 6.812V27.5h4.717v-4.782h5.11a5.103 5.103 0 004.815-3.406H48.063z" fill="#4DB45E"/><path fill-rule="evenodd" clip-rule="evenodd" d="M57.89 12.5H47.401a7.535 7.535 0 007.41 6.157h8.084c.072-.34.105-.688.105-1.048a5.108 5.108 0 00-5.11-5.109z" fill="url(#paint0_linear)"/></symbol><symbol id="payment-3" viewBox="0 0 58 40"><rect width="58" height="40" rx="4" fill="#FEFDFA"/><path d="M29 28.889c2.413-2.159 3.937-5.334 3.937-8.889 0-3.556-1.524-6.667-3.937-8.889C26.905 9.206 24.048 8 21 8 14.397 8 9 13.397 9 20s5.397 11.936 12 11.936c3.048.064 5.905-1.142 8-3.047z" fill="#07A9E2"/><path d="M9 20c0 6.603 5.397 11.936 12 11.936 3.111 0 5.905-1.142 8-3.11 2.413-2.16 3.937-5.334 3.937-8.89 0-3.555-1.524-6.603-3.937-8.825C26.905 9.206 24.048 8 21 8" fill="#009DDD"/><path d="M29 11.111C26.905 9.206 24.048 8 21 8h-.571c-3.746 2.73-6.159 7.111-6.159 12s2.413 9.27 6.095 11.936h.572c3.11 0 5.904-1.142 8-3.11 2.412-2.16 3.936-5.334 3.936-8.89 0-3.555-1.46-6.603-3.873-8.825z" fill="#0284CC"/><path d="M37.063 8C33.953 8 31.16 9.143 29 11.111c-.445.381-.826.825-1.206 1.27h2.412c.318.38.635.825.89 1.27H26.84c-.254.444-.508.825-.698 1.27h5.65c.191.444.382.825.508 1.27h-6.603c-.127.444-.254.825-.38 1.27h7.364c.19.825.254 1.65.254 2.539 0 1.333-.19 2.603-.635 3.81h-6.603c.127.444.318.825.508 1.27h5.651a8.16 8.16 0 01-.698 1.27h-4.254c.254.444.571.888.889 1.269h2.412c-.38.445-.762.889-1.206 1.27C31.159 30.794 33.952 32 37.063 32A11.923 11.923 0 0049 20.064C49 13.397 43.667 8 37.063 8z" fill="#FF2957"/><path d="M37.063 8C33.953 8 31.16 9.143 29 11.111c-.445.381-.826.825-1.206 1.27h2.412c.318.38.635.825.89 1.27H26.84c-.254.444-.508.825-.698 1.27h5.65c.191.444.382.825.508 1.27h-6.603c-.127.444-.254.825-.38 1.27h7.364c.19.825.254 1.65.254 2.539 0 1.333-.19 2.603-.635 3.81h-6.603c.127.444.318.825.508 1.27h5.651a8.16 8.16 0 01-.698 1.27h-4.254c.254.444.571.888.889 1.269h2.412c-.38.445-.762.889-1.206 1.27C31.159 30.794 33.952 32 37.063 32A11.923 11.923 0 0049 20.064" fill="#ED1C2E"/><path d="M29 28.889c2.413-2.159 3.937-5.333 3.937-8.889 0-3.556-1.524-6.667-3.937-8.889V28.89z" fill="#0466B5"/><path d="M44.873 22.603c0-.19.19-.38.381-.38.19 0 .381.19.381.38a.41.41 0 01-.381.381.41.41 0 01-.381-.381zm.381.317c.19 0 .254-.127.254-.317s-.127-.254-.254-.254c-.19 0-.317.127-.317.254s.19.317.317.317zm0-.19h-.063v-.317h.19l.063.063c0 .064 0 .064-.063.064l.063.127h-.063l-.063-.128h-.064v.191zm0-.19h.064v-.064h-.064v.064z" fill="#fff"/><path d="M29 11.111c-.445.381-.826.825-1.206 1.27h2.412c.318.38.635.825.89 1.27H26.84c-.254.444-.508.825-.698 1.27h5.65c.191.444.382.825.508 1.27h-6.603c-.127.444-.254.825-.38 1.27h7.364c.19.825.254 1.65.254 2.539 0 1.333-.19 2.603-.635 3.81h-6.603c.127.444.318.825.508 1.27h5.651a8.14 8.14 0 01-.698 1.27h-4.254c.254.444.571.888.889 1.27h2.412c-.38.444-.762.888-1.206 1.269C31.159 30.794 33.952 32 37.063 32h.572a14.757 14.757 0 006.095-11.936c0-4.89-2.413-9.27-6.095-11.937h-.572C33.953 8 31.16 9.207 29 11.111z" fill="#D1094B"/><path d="M19.476 22.984h-1.524l.89-4.635-2.032 4.635h-1.334l-.254-4.635-.889 4.635H13l1.143-6.095h2.35l.126 3.81 1.65-3.81h2.414l-1.207 6.095z" fill="#fff"/><path d="M18.016 20.317l.889-1.968-.699 3.683c.064.317.127.698.254 1.015h1.016l1.143-6.095h-2.222c-.254.953-.445 2.032-.445 3.111.064.064.064.127.064.254zM36.11 22.92c-.444.127-.697.191-1.078.191-.762 0-1.143-.381-1.143-1.08 0-.126 0-.253.063-.444l.064-.508.063-.38.699-3.747h1.46l-.19 1.143h.761l-.19 1.143h-.762l-.381 2.032c0 .063-.063.19-.063.19 0 .254.19.381.507.381.19 0 .318 0 .381-.063l-.19 1.143zm4.382-4.825c-.127-.063-.127-.063-.19-.063-.064 0-.128 0-.128-.064h-.19c-.508 0-.826.19-1.27.826l.127-.762h-1.334l-.888 4.952h1.523c.508-3.048.762-3.556 1.46-3.556h.191l.19.064.509-1.397zm-10.286 1.524c0 .635.381 1.08 1.143 1.333.635.254.698.318.698.572 0 .317-.253.444-.888.444-.445 0-.89-.063-1.334-.19l-.19 1.143h.063l.254.063h.381c.381.064.635.064.826.064 1.587 0 2.349-.508 2.349-1.651 0-.699-.318-1.08-1.08-1.397-.634-.254-.698-.317-.698-.508 0-.254.254-.38.762-.38.254 0 .698 0 1.08.063l.19-1.143c-.381-.064-.953-.064-1.334-.064-1.65 0-2.222.762-2.222 1.651zm-5.905 3.365h-1.206v-.508c-.381.381-.889.572-1.587.572-.826 0-1.334-.572-1.334-1.334 0-1.206.953-1.904 2.604-1.904h.634c.064-.191.064-.254.064-.318 0-.317-.254-.444-.953-.444a6.36 6.36 0 00-1.206.127l-.19.063H21l.19-1.08c.762-.19 1.206-.253 1.778-.253 1.27 0 1.968.508 1.968 1.46 0 .254 0 .445-.127 1.016l-.317 1.778-.064.317-.063.254v.19l-.064.064zm-1.08-2.222h-.317c-.825 0-1.27.254-1.27.762 0 .317.191.508.509.508.634 0 1.079-.508 1.079-1.27zm5.969 2.095a6.26 6.26 0 01-1.523.19c-1.651 0-2.54-.761-2.54-2.222 0-1.714 1.08-2.92 2.603-2.92 1.206 0 1.968.698 1.968 1.777 0 .382-.063.699-.19 1.207h-2.984v.19c0 .572.444.89 1.27.89.571 0 1.015-.064 1.523-.318l-.127 1.206zm-.762-2.92v-.255c0-.38-.253-.634-.698-.634-.444 0-.825.317-.952.889h1.65z" fill="#DCE5E5"/><path d="M45.127 20.762c-.254 1.65-1.397 2.35-2.92 2.35-1.652 0-2.35-1.017-2.35-2.287 0-1.714 1.143-2.92 2.92-2.92 1.524 0 2.35 1.016 2.35 2.222v.635zm-1.588-.635c0-.508-.19-.952-.825-.952-.762 0-1.206.889-1.206 1.714 0 .635.317 1.08.825 1.08.318 0 1.016-.445 1.143-1.207.063-.254.063-.445.063-.635z" fill="#fff"/><path d="M39.92 21.397c.064-.445.128-.952.128-1.397v-.127c-.064.317-.127.635-.127 1.016-.064.127-.064.317 0 .508z" fill="#fff"/></symbol><symbol id="payment-4" viewBox="0 0 58 40"><rect width="58" height="40" rx="4" fill="#FEFDFA"/><path d="M49 20c0 6.603-5.333 12-12 12-6.603 0-12-5.397-12-12S30.333 8 36.937 8C43.666 8 49 13.397 49 20z" fill="#FFB600"/><path d="M37 8c6.603 0 12 5.397 12 12s-5.333 12-12 12c-6.603 0-12-5.397-12-12" fill="#F7981D"/><path d="M37 8c6.603 0 12 5.397 12 12s-5.333 12-12 12" fill="#FF8500"/><path d="M20.873 8C14.333 8.063 9 13.397 9 20s5.333 12 12 12c3.111 0 5.905-1.206 8.064-3.111.444-.381.825-.825 1.206-1.27h-2.476c-.318-.38-.635-.825-.89-1.206h4.255c.254-.381.508-.826.698-1.27h-5.65a7.567 7.567 0 01-.509-1.27h6.604c.38-1.206.635-2.476.635-3.81 0-.888-.127-1.714-.255-2.54h-7.365c.064-.444.19-.825.318-1.269h6.603a7.575 7.575 0 00-.508-1.27h-5.587c.19-.444.444-.825.698-1.27h4.254a6.037 6.037 0 00-.952-1.27h-2.35c.382-.444.763-.825 1.207-1.206-2.095-1.968-4.952-3.111-8.064-3.111 0-.127 0-.127-.063-.127z" fill="#FF5050"/><path d="M9 20c0 6.603 5.333 12 12 12 3.111 0 5.905-1.206 8.064-3.111.444-.381.825-.826 1.206-1.27h-2.476a14.623 14.623 0 01-.89-1.206h4.255c.254-.381.508-.826.698-1.27h-5.65a7.57 7.57 0 01-.509-1.27h6.604c.38-1.207.635-2.476.635-3.81 0-.889-.127-1.714-.255-2.54h-7.365c.064-.444.19-.825.318-1.27h6.603a7.574 7.574 0 00-.508-1.269h-5.587c.19-.444.444-.825.698-1.27h4.254a6.036 6.036 0 00-.952-1.27h-2.35c.382-.444.763-.825 1.207-1.206-2.095-1.968-4.952-3.111-8.064-3.111h-.063" fill="#E52836"/><path d="M21 32c3.111 0 5.905-1.206 8.064-3.111.444-.381.825-.826 1.206-1.27h-2.476a14.646 14.646 0 01-.89-1.206h4.255a8.14 8.14 0 00.698-1.27h-5.65a7.57 7.57 0 01-.509-1.27h6.604c.38-1.207.635-2.476.635-3.81 0-.889-.127-1.714-.254-2.54h-7.366c.064-.444.191-.825.318-1.27h6.603a7.566 7.566 0 00-.508-1.269h-5.587c.19-.444.444-.825.698-1.27h4.254a6.04 6.04 0 00-.952-1.27h-2.35c.382-.444.763-.825 1.207-1.206-2.095-1.968-4.952-3.111-8.064-3.111h-.063" fill="#CB2026"/><path d="M25.254 23.047l.19-1.079c-.063 0-.19.064-.317.064-.444 0-.508-.254-.444-.381l.38-2.223h.7l.19-1.206h-.635l.127-.762h-1.27s-.762 4.19-.762 4.699c0 .762.445 1.079 1.016 1.079.38 0 .698-.127.825-.19zm.445-2.031c0 1.778 1.206 2.222 2.222 2.222.952 0 1.333-.19 1.333-.19l.254-1.207s-.698.318-1.333.318c-1.397 0-1.143-1.016-1.143-1.016h2.603s.19-.826.19-1.143c0-.825-.444-1.841-1.84-1.841-1.334-.127-2.286 1.27-2.286 2.857zm2.222-1.841c.698 0 .571.825.571.889h-1.396c0-.064.127-.89.825-.89zm8.063 3.873l.254-1.397s-.635.317-1.08.317c-.888 0-1.269-.698-1.269-1.46 0-1.524.762-2.35 1.65-2.35.636 0 1.144.382 1.144.382l.19-1.334s-.762-.317-1.46-.317c-1.46 0-2.92 1.27-2.92 3.683 0 1.587.761 2.666 2.285 2.666.508 0 1.206-.19 1.206-.19zM18.27 18.032c-.889 0-1.524.254-1.524.254l-.19 1.08s.571-.255 1.397-.255c.444 0 .825.064.825.445 0 .253-.063.317-.063.317h-.572c-1.08 0-2.286.444-2.286 1.905 0 1.143.762 1.397 1.207 1.397.889 0 1.27-.572 1.333-.572l-.063.508h1.143l.507-3.492c0-1.524-1.27-1.587-1.714-1.587zm.254 2.857c0 .19-.127 1.206-.889 1.206-.38 0-.508-.317-.508-.508 0-.317.19-.762 1.143-.762.19.064.254.064.254.064zm2.666 2.286c.318 0 1.906.063 1.906-1.651 0-1.587-1.524-1.27-1.524-1.905 0-.317.254-.444.698-.444.19 0 .889.063.889.063l.19-1.143s-.444-.127-1.206-.127c-.952 0-1.905.381-1.905 1.651 0 1.46 1.588 1.333 1.588 1.905 0 .38-.445.444-.762.444-.572 0-1.143-.19-1.143-.19l-.19 1.143c.063.127.38.254 1.46.254zm25.334-6.159l-.254 1.714s-.508-.635-1.207-.635c-1.142 0-2.158 1.397-2.158 3.048 0 1.016.508 2.095 1.587 2.095.762 0 1.206-.508 1.206-.508l-.063.445h1.27l.952-6.096-1.333-.063zm-.572 3.365c0 .698-.317 1.587-1.015 1.587-.445 0-.699-.38-.699-1.016 0-1.015.445-1.65 1.016-1.65.444 0 .698.317.698 1.079zm-34.602 2.73l.761-4.571.127 4.571h.89l1.65-4.571-.698 4.571h1.333l1.016-6.095h-2.095l-1.27 3.746L13 17.016h-1.84l-1.016 6.095h1.206zm19.682 0c.381-2.095.445-3.81 1.333-3.492.127-.825.318-1.143.445-1.46h-.254c-.571 0-1.016.762-1.016.762l.127-.699h-1.206l-.826 4.953h1.397v-.064zm7.873-5.079c-.889 0-1.524.254-1.524.254l-.19 1.08s.571-.255 1.396-.255c.445 0 .826.064.826.445 0 .253-.064.317-.064.317h-.571c-1.08 0-2.286.444-2.286 1.905 0 1.143.762 1.397 1.207 1.397.888 0 1.27-.572 1.333-.572l-.064.508h1.143l.508-3.492c.064-1.524-1.27-1.587-1.714-1.587zm.317 2.857c0 .19-.127 1.206-.889 1.206-.38 0-.508-.317-.508-.508 0-.317.191-.762 1.143-.762.19.064.19.064.254.064zm2.477 2.222c.38-2.095.444-3.81 1.333-3.492.127-.825.317-1.143.444-1.46h-.254c-.571 0-1.016.762-1.016.762l.127-.699h-1.206l-.825 4.953h1.397v-.064z" fill="#fff"/><path d="M23.286 22.159c0 .762.445 1.079 1.016 1.079.444 0 .825-.127.952-.19l.19-1.08c-.063 0-.19.064-.317.064-.444 0-.508-.254-.444-.381l.38-2.223h.7l.19-1.206h-.635l.127-.762m.889 3.556c0 1.778.57 2.222 1.587 2.222.952 0 1.333-.19 1.333-.19l.254-1.207s-.698.318-1.333.318c-1.397 0-1.143-1.016-1.143-1.016h2.603s.19-.826.19-1.143c0-.825-.444-1.841-1.84-1.841-1.334-.127-1.651 1.27-1.651 2.857zm1.587-1.841c.698 0 .825.825.825.889h-1.65c0-.064.126-.89.825-.89zm8.063 3.873l.254-1.397s-.635.317-1.08.317c-.888 0-1.27-.698-1.27-1.46 0-1.524.763-2.35 1.652-2.35.635 0 1.142.382 1.142.382l.191-1.334s-.762-.317-1.46-.317c-1.46 0-2.286 1.27-2.286 3.683 0 1.587.127 2.666 1.65 2.666.509 0 1.207-.19 1.207-.19zm-19.428-3.619s.571-.254 1.397-.254c.444 0 .825.063.825.444 0 .254-.063.318-.063.318h-.572c-1.08 0-2.286.444-2.286 1.904 0 1.143.762 1.397 1.207 1.397.889 0 1.27-.571 1.333-.571l-.063.508h1.143l.507-3.492c0-1.46-1.27-1.524-1.777-1.524l-1.651 1.27zm2.603 1.46c0 .19-.762 1.206-1.524 1.206-.38 0-.508-.317-.508-.508 0-.317.19-.761 1.143-.761.19.063.889.063.889.063zm.635 2.159s.38.127 1.46.127c.318 0 1.905.063 1.905-1.651 0-1.587-1.524-1.27-1.524-1.905 0-.317.254-.444.699-.444.19 0 .889.063.889.063l.19-1.143s-.445-.127-1.206-.127c-.953 0-1.27.381-1.27 1.651 0 1.46.952 1.333.952 1.905 0 .38-.444.444-.762.444M46.27 18.73s-.508-.635-1.206-.635c-1.143 0-1.524 1.397-1.524 3.048 0 1.016-.127 2.095.952 2.095.762 0 1.207-.508 1.207-.508l-.064.445h1.27l.952-6.096-1.587 1.651zm-.064 1.651c0 .698-.571 1.587-1.27 1.587-.444 0-.698-.38-.698-1.016 0-1.016.445-1.65 1.016-1.65.445 0 .952.317.952 1.079zm-34.856 2.73l.761-4.571.127 4.571h.89l1.65-4.571-.698 4.571h1.333l1.016-6.095h-1.587l-1.778 3.746L13 17.016h-.698l-2.159 6.095h1.206zm18.349 0h1.333c.381-2.095.445-3.81 1.333-3.492.127-.825.318-1.143.445-1.46h-.254c-.572 0-1.016.762-1.016.762l.127-.699m5.523 1.207s.572-.254 1.397-.254c.445 0 .826.063.826.444 0 .254-.064.318-.064.318h-.571c-1.08 0-2.286.444-2.286 1.904 0 1.143.762 1.397 1.207 1.397.888 0 1.27-.571 1.333-.571l-.064.508h1.143l.508-3.492c0-1.46-1.27-1.524-1.778-1.524l-1.65 1.27zm2.604 1.46c0 .19-.762 1.206-1.524 1.206-.381 0-.508-.317-.508-.508 0-.317.19-.761 1.143-.761.254.063.889.063.889.063zm.571 2.222H41.7c.38-2.095.444-3.81 1.333-3.492.127-.825.317-1.143.444-1.46h-.254c-.571 0-1.016.762-1.016.762l.127-.699" fill="#DCE5E5"/></symbol><symbol id="payment" viewBox="0 0 40 41"><path d="M6 4.336h23a6 6 0 016 6v1h-3v-1a3 3 0 00-3-3H6a3 3 0 00-3 3v13a3 3 0 003 3h1v3H6a6 6 0 01-6-6v-13a6 6 0 016-6z" fill="#4E3D35"/><rect x="7.5" y="11.836" width="31" height="22" rx="4.5" stroke="#4E3D35" stroke-width="3"/><path d="M33.308 23.934a3.466 3.466 0 00-3.895 0A3.47 3.47 0 0024 26.81a3.478 3.478 0 003.471 3.481c.692 0 1.366-.202 1.942-.596a3.48 3.48 0 004.827-.933 3.48 3.48 0 00-.932-4.826zm-.78 3.885a1.54 1.54 0 01-2.172.192c-.077-.057-.135-.125-.202-.201a.929.929 0 00-.74-.337.954.954 0 00-.74.346 1.51 1.51 0 01-1.193.558 1.555 1.555 0 01-1.558-1.548 1.537 1.537 0 011.548-1.558c.462 0 .904.212 1.192.567a.963.963 0 001.5 0 1.541 1.541 0 012.174-.192c.653.548.74 1.52.192 2.173zM8 17.336h31v3H8z" fill="#4E3D35"/></symbol><symbol id="plus-big" viewBox="0 0 21 21"><rect y="9" width="21" height="3" rx="1.5" fill="#FEFDFA"/><rect x="9" y="21" width="21" height="3" rx="1.5" transform="rotate(-90 9 21)" fill="#FEFDFA"/></symbol><symbol id="plus" viewBox="0 0 12 12"><path fill-rule="evenodd" clip-rule="evenodd" d="M6 0a1 1 0 00-1 1v4H1a1 1 0 000 2h4v4a1 1 0 102 0V7h4a1 1 0 100-2H7V1a1 1 0 00-1-1z" fill="#4E3D35" fill-opacity=".6"/></symbol><symbol id="quotes" viewBox="0 0 35 28"><path d="M15.556 10.578c0 2.281-.508 4.355-1.524 6.222-1.017 1.901-2.208 3.543-3.574 4.926a28.543 28.543 0 01-4.625 3.785c-1.681 1.14-3.03 1.97-4.046 2.489L0 24.94a58.8 58.8 0 004.1-2.592c1.33-.864 2.346-1.694 3.047-2.489.946-1.037 1.7-2.126 2.26-3.266.56-1.107.91-2.576 1.051-4.408H7.935c-2.207 0-3.923-.553-5.15-1.66C1.56 9.42.945 7.882.945 5.912c0-1.417.562-2.748 1.683-3.992C3.748.639 5.273 0 7.2 0c2.978 0 5.115.985 6.411 2.956 1.296 1.935 1.945 4.476 1.945 7.622zm19.444 0c0 2.281-.508 4.355-1.524 6.222-1.016 1.901-2.207 3.543-3.574 4.926a28.54 28.54 0 01-4.624 3.785c-1.682 1.14-3.03 1.97-4.047 2.489l-1.787-3.06a58.785 58.785 0 004.1-2.592c1.33-.864 2.347-1.694 3.048-2.489.946-1.037 1.699-2.126 2.26-3.266.56-1.107.91-2.576 1.05-4.408H27.38c-2.207 0-3.924-.553-5.15-1.66-1.227-1.105-1.84-2.644-1.84-4.614 0-1.417.561-2.748 1.682-3.992C23.193.639 24.717 0 26.644 0c2.978 0 5.115.985 6.412 2.956C34.352 4.89 35 7.432 35 10.578z" fill="#4E3D35" fill-opacity=".4"/></symbol><symbol id="tag" viewBox="0 0 16 16"><path d="M0 16C9.5 16 9 3 9 .5L16 16H0z"/></symbol><symbol id="telegram" viewBox="0 0 48 48"><path fill-rule="evenodd" clip-rule="evenodd" d="M44 24c0 11.046-8.954 20-20 20S4 35.046 4 24 12.954 4 24 4s20 8.954 20 20zm-11.565-7.868l-19.283 7.435c-1.322.516-1.299 1.248-.227 1.588l4.937 1.54 11.451-7.21c.532-.353 1.025-.153.622.202l-9.267 8.371-.355 5.089c.517 0 .742-.225 1.009-.492l2.411-2.323 5 3.685c.912.516 1.564.25 1.807-.847l3.283-15.468-.001.001c.29-1.353-.492-1.894-1.387-1.571z" fill="#039BE5"/></symbol><symbol id="twitter" viewBox="0 0 25 24"><path d="M22.5 6.776c-.707.3-1.46.5-2.244.597a3.785 3.785 0 001.713-2.091 7.923 7.923 0 01-2.47.916A3.957 3.957 0 0016.654 5c-2.157 0-3.893 1.7-3.893 3.786 0 .3.026.588.09.863A11.135 11.135 0 014.824 5.69a3.728 3.728 0 00-.533 1.913c0 1.31.694 2.473 1.73 3.146a3.934 3.934 0 01-1.76-.467v.042c0 1.84 1.35 3.367 3.12 3.719a3.996 3.996 0 01-1.02.124 3.54 3.54 0 01-.738-.064c.505 1.498 1.937 2.6 3.64 2.636a7.973 7.973 0 01-4.83 1.614 7.32 7.32 0 01-.932-.052A11.2 11.2 0 009.476 20c7.167 0 11.086-5.77 11.086-10.77 0-.167-.006-.329-.014-.49A7.653 7.653 0 0022.5 6.777z" fill="#2AA3EF"/></symbol><symbol id="user" viewBox="0 0 24 24"><g clip-path="url(#clip0)" stroke="#4E3D35" stroke-width="2"><path d="M19.032 17.638h.001A5.794 5.794 0 0122.998 23H1.002a5.794 5.794 0 013.965-5.362h.001l3.629-1.21h6.806l3.63 1.21zM0 23.143c0 .473.384.857.857.857h22.286a.857.857 0 00.857-.857H0zm7.857-18a4.143 4.143 0 118.286 0V8.57s0 0 0 0A4.148 4.148 0 0112 12.714a4.148 4.148 0 01-4.143-4.143V5.143z"/></g></symbol><symbol id="viber" viewBox="0 0 48 48"><path d="M27.2 4h-8.4C10.692 4 4.097 10.595 4.097 18.702v6.3a14.708 14.708 0 008.4 13.287v7.016c0 .61.763.928 1.196.495l6.095-6.095H27.2c8.106 0 14.701-6.596 14.701-14.702v-6.301C41.902 10.595 35.307 4 27.201 4z" fill="#665CAC"/><path d="M14.599 38.288a14.708 14.708 0 01-8.401-13.285v-6.301C6.198 10.595 12.793 4 20.9 4h-2.1C10.692 4 4.097 10.595 4.097 18.702v6.3a14.708 14.708 0 008.4 13.287v7.016c0 .61.763.928 1.196.495l.905-.905v-6.607z" fill="#523494"/><path d="M33.57 30.094l-.63-3.41a.7.7 0 00-.55-.559l-4.951-.99a.7.7 0 00-.633.192l-2.01 2.01c-3.39-1.517-5.27-3.402-6.925-6.936l2.005-2.005a.7.7 0 00.191-.632l-.99-4.95a.7.7 0 00-.56-.552l-3.409-.63a.7.7 0 00-.282.007c-.9.204-1.722.658-2.376 1.312-1.132 1.132-1.564 2.784-1.25 4.777.526 3.348 2.166 8.006 5.191 11.044l.042.041c3.035 3.024 7.694 4.664 11.041 5.19.422.067.828.1 1.218.1 1.451 0 2.667-.458 3.56-1.35a4.887 4.887 0 001.312-2.376.705.705 0 00.006-.283z" fill="#fff"/><path d="M19.191 19.08l.685-.684-.685.684zm7.615 6.246l-.69.691.69-.691zm3.205 7.456a7.76 7.76 0 01-1.217-.099c-3.347-.527-8.006-2.167-11.041-5.19l-.042-.041c-3.025-3.038-4.665-7.697-5.192-11.044-.253-1.61-.02-2.998.677-4.069a4.912 4.912 0 00-.746.611c-1.132 1.133-1.565 2.785-1.251 4.778.526 3.348 2.166 8.006 5.192 11.044l.041.04c3.036 3.024 7.694 4.665 11.042 5.191.422.067.828.1 1.217.1 1.452 0 2.668-.458 3.56-1.351.23-.23.434-.48.612-.746-.79.514-1.754.776-2.852.776z" fill="#E5E5E5"/><path d="M24.4 15.902a.7.7 0 000 1.4c1.545 0 2.8 1.256 2.8 2.8 0 .382.32.7.7.7.382 0 .7-.318.7-.7 0-2.316-1.883-4.2-4.2-4.2z" fill="#fff"/><path d="M24.4 13.101c-.259 0-.52.015-.777.043a.7.7 0 10.154 1.392 5.607 5.607 0 016.19 6.19c-.042.379.24.73.619.772.379.042.73-.24.773-.619a7.009 7.009 0 00-6.958-7.778z" fill="#fff"/><path d="M24.402 10.3c-.25 0-.504.01-.753.03a.7.7 0 00.105 1.396c.215-.017.433-.025.648-.025 4.632 0 8.4 3.769 8.4 8.401a8.46 8.46 0 01-.224 1.94.707.707 0 00.496.835.707.707 0 00.867-.514 9.844 9.844 0 00.262-2.26c0-5.405-4.397-9.802-9.801-9.802z" fill="#fff"/></symbol><symbol id="video-btn" viewBox="0 0 36 48"><path d="M3.635 46.14l.004-.002L34.263 25.14 3.635 46.141zm0 0a1.08 1.08 0 01-.614.195 1.09 1.09 0 01-.544-.15h0m1.158-.044l-1.158.044m0 0c-.379-.22-.644-.663-.644-1.184v-42c0-.52.265-.963.644-1.183h0m0 44.367V1.818m0 0l.003-.002m-.003.002l.003-.002m0 0c.36-.21.806-.197 1.153.044h0M2.48 1.817l1.153.045m0 0l.006.004m-.006-.004l.006.004m0 0l30.624 20.999-30.624-21zm31.194 22.137c0-.48-.231-.905-.57-1.138l.57 1.138zm0 0c0 .48-.231.904-.57 1.137l.57-1.137z" stroke="#fff" stroke-width="2"/></symbol><symbol id="vk" viewBox="0 0 48 48"><path d="M43.644 32.945c-.108-.18-.773-1.625-3.973-4.595-3.35-3.11-2.9-2.605 1.135-7.983 2.458-3.276 3.44-5.276 3.133-6.13-.293-.816-2.1-.6-2.1-.6l-6.011.034s-.445-.06-.778.138c-.322.195-.53.645-.53.645s-.952 2.535-2.222 4.69c-2.678 4.548-3.75 4.788-4.188 4.505-1.018-.657-.763-2.645-.763-4.055 0-4.408.668-6.245-1.302-6.72-.655-.158-1.135-.263-2.808-.28-2.145-.023-3.963.007-4.99.51-.685.335-1.213 1.082-.89 1.125.397.052 1.297.242 1.775.892.617.838.595 2.723.595 2.723s.355 5.188-.828 5.833c-.812.442-1.925-.46-4.313-4.588-1.222-2.113-2.147-4.45-2.147-4.45s-.178-.435-.495-.668c-.385-.282-.925-.372-.925-.372l-5.716.035s-.857.025-1.172.397c-.28.333-.023 1.018-.023 1.018s4.475 10.468 9.54 15.746c4.649 4.838 9.924 4.52 9.924 4.52h2.39s.723-.08 1.09-.477c.34-.365.328-1.05.328-1.05s-.048-3.208 1.442-3.68c1.468-.466 3.353 3.1 5.35 4.472 1.51 1.038 2.659.81 2.659.81l5.342-.075s2.796-.172 1.47-2.37z" stroke="#4E3D35" stroke-opacity=".6" stroke-width="2"/></symbol><symbol id="vkontakte-big" viewBox="0 0 48 48"><g clip-path="url(#clip0)"><path d="M43.643 32.945c-.107-.18-.772-1.625-3.972-4.595-3.35-3.11-2.9-2.605 1.135-7.983 2.457-3.276 3.44-5.276 3.132-6.13-.292-.816-2.1-.6-2.1-.6l-6.01.034s-.445-.06-.778.138c-.322.195-.53.645-.53.645s-.952 2.535-2.223 4.69c-2.677 4.548-3.75 4.788-4.187 4.506-1.018-.658-.763-2.646-.763-4.056 0-4.408.668-6.245-1.302-6.72-.655-.158-1.136-.263-2.808-.28-2.145-.023-3.963.007-4.99.51-.686.335-1.213 1.082-.89 1.125.397.052 1.297.242 1.775.892.617.838.595 2.723.595 2.723s.355 5.188-.828 5.833c-.813.443-1.925-.46-4.313-4.588-1.222-2.112-2.147-4.45-2.147-4.45s-.178-.435-.495-.668c-.386-.282-.926-.372-.926-.372l-5.715.035s-.858.025-1.173.397c-.28.333-.022 1.018-.022 1.018s4.475 10.468 9.54 15.746c4.649 4.838 9.924 4.52 9.924 4.52h2.39s.723-.08 1.09-.477c.34-.365.328-1.05.328-1.05s-.048-3.208 1.442-3.68c1.468-.466 3.353 3.1 5.35 4.472 1.51 1.038 2.658.81 2.658.81l5.343-.075s2.795-.172 1.47-2.37z" fill="#5181B8"/></g></symbol><symbol id="vkontakte" viewBox="0 0 24 24"><g clip-path="url(#clip0)"><path d="M21.822 16.473c-.054-.09-.386-.813-1.987-2.298-1.675-1.555-1.45-1.303.568-3.992 1.229-1.637 1.72-2.637 1.566-3.065-.146-.407-1.05-.3-1.05-.3l-3.005.018s-.223-.03-.389.068c-.161.098-.265.323-.265.323s-.476 1.268-1.111 2.345c-1.339 2.274-1.875 2.394-2.094 2.253-.509-.329-.381-1.323-.381-2.028 0-2.204.333-3.123-.652-3.36-.327-.079-.567-.131-1.404-.14-1.072-.011-1.98.004-2.495.255-.342.167-.606.541-.445.562.199.027.65.122.888.447.309.418.297 1.361.297 1.361s.178 2.594-.413 2.916c-.407.222-.963-.23-2.157-2.293C6.682 8.488 6.22 7.319 6.22 7.319s-.088-.217-.247-.333c-.193-.142-.463-.187-.463-.187l-2.857.018s-.43.012-.587.199c-.14.166-.011.508-.011.508s2.238 5.235 4.77 7.874c2.324 2.419 4.962 2.26 4.962 2.26h1.195s.361-.04.545-.24c.17-.182.164-.524.164-.524s-.024-1.604.721-1.84c.734-.233 1.677 1.55 2.675 2.236.756.519 1.33.405 1.33.405l2.67-.037s1.398-.087.736-1.185z" fill="#5181B8"/></g></symbol><symbol id="whatsapp" viewBox="0 0 48 48"><path fill-rule="evenodd" clip-rule="evenodd" d="M25.117 43.5l.011.002c17.009 0 25.356-21.45 13.467-33.75C26.677-2.678 6.083 6.116 6.083 23.702c0 3.738 1.008 7.368 2.905 10.52l.458.75-1.926 7.29 7.188-1.95c.045.02.14.081.283.172 1.057.676 4.721 3.016 10.095 3.016h.03zm10.42-14.736l.018-.15.178.083c.475.22.788.366.915.607.143.27.143 1.44-.345 2.85-.478 1.41-2.764 2.67-3.864 2.852-.988.148-2.235.212-3.604-.242-5.067-1.816-7.839-3.124-13.04-10.228-2.648-3.892-3.428-7.552-.334-11.1.71-.772 1.518-.788 2.622-.688l.108-.003c.34-.013.765-.03 1.18 1.023.21.514.548 1.367.873 2.19.417 1.053.813 2.053.894 2.222.142.298.24.628.048 1.048-.451.89-.92 1.43-1.27 1.834-.482.553-.738.848-.413 1.434.337.6 1.48 2.55 3.182 4.14a14.624 14.624 0 004.227 2.792c.157.071.285.129.378.178.57.27.903.24 1.239-.15a36.852 36.852 0 001.407-1.795c.783-1.052.857-1.152 1.692-.83.523.199 3.333 1.633 3.91 1.933z" fill="#4CAF50"/></symbol></svg>