<svg width="84" height="84" viewBox="0 0 84 84" fill="none" xmlns="http://www.w3.org/2000/svg">
<path d="M53.5842 65.1728C52.865 65.2003 52.206 65.2094 51.5496 65.2526C50.6827 65.3101 49.842 65.1663 49.0025 64.9845C48.3488 64.8433 47.695 64.7113 47.0412 64.5818C46.6812 64.5234 46.312 64.5687 45.9769 64.7126C45.9491 64.7264 45.9203 64.7377 45.8906 64.7466C45.0354 64.9479 44.2274 65.2996 43.3775 65.5219C42.4896 65.7534 41.6214 66.062 40.7271 66.2738C39.9556 66.4581 39.209 66.7445 38.4192 66.8517C37.4059 66.989 36.3965 67.1708 35.37 67.2165C34.8893 67.2403 34.4125 67.3148 33.9474 67.4388C33.856 67.4595 33.7703 67.5001 33.6964 67.5578C32.721 68.3632 31.6631 69.0628 30.6825 69.8617C29.9268 70.4897 29.1367 71.0751 28.3158 71.6151C27.9747 71.8393 27.6512 72.0894 27.3482 72.363C26.7437 72.8951 26.1033 73.3848 25.4314 73.8288C24.0401 74.7571 22.7104 75.7731 21.2995 76.674C20.7085 77.0506 20.1136 77.4167 19.4951 77.7475C19.041 77.9841 18.6005 78.246 18.1758 78.532C17.1533 79.2342 16.0288 79.7376 14.8925 80.2188C14.3864 80.4264 13.8311 80.4832 13.2934 80.3822C13.0668 80.3566 12.8585 80.2454 12.711 80.0714C12.5635 79.8975 12.488 79.6738 12.4997 79.446C12.4904 79.0452 12.6208 78.6537 12.8685 78.3385C13.1212 78.0056 13.4068 77.699 13.721 77.4232C13.8764 77.2991 14.0236 77.165 14.1616 77.0218C15.4169 75.6567 16.9075 74.5375 18.1797 73.1907C18.4523 72.9162 18.7414 72.6586 19.0453 72.4192C19.692 71.8876 20.299 71.3094 20.8615 70.6894C21.1778 70.3406 21.5153 70.0118 21.8722 69.7048C22.6234 69.0533 23.3028 68.3235 23.8989 67.5277C24.2389 67.0892 24.6242 66.6878 25.0483 66.33C25.2131 66.2071 25.3578 66.0593 25.4771 65.892C25.1986 65.773 24.9384 65.6396 24.6638 65.5455C24.1827 65.3692 23.7309 65.1215 23.3236 64.8106C22.8673 64.4772 22.4227 64.1281 21.9978 63.7567C21.4661 63.2974 21.0187 62.7487 20.6758 62.1354C19.7587 60.492 19.0176 58.7564 18.4648 56.9575C18.1313 55.8722 18.0006 54.749 17.9077 53.6232C17.7781 51.8911 17.7576 50.1526 17.8463 48.4179C17.8934 47.3104 17.9967 46.2055 18.1235 45.1046C18.385 42.8203 18.6936 40.5412 18.9446 38.2556C19.1081 36.7794 19.1761 35.294 19.2192 33.81C19.2833 31.612 19.2101 29.4192 19.1146 27.2239C19.0331 25.4801 19.0672 23.7329 19.2166 21.9937C19.3016 21.0548 19.5147 20.1369 19.6925 19.2138C19.9122 18.0828 20.2953 16.9988 20.6353 15.9018C20.9555 14.8513 21.4306 13.8545 22.0448 12.9441C22.6489 12.0524 23.2909 11.1881 23.9342 10.329C24.4664 9.61381 25.1699 9.08686 25.9126 8.61092C26.229 8.40825 26.6121 8.48016 26.9769 8.77698C27.1935 8.95743 27.3714 9.17981 27.4999 9.43075C28.1628 10.7121 28.7918 12.0079 29.1396 13.4188C29.1462 13.4742 29.1726 13.5253 29.2139 13.5628C29.2552 13.6003 29.3087 13.6216 29.3645 13.6227C30.4059 13.7967 31.4562 13.9132 32.5104 13.9719C33.7736 14.0441 35.0304 14.2018 36.2723 14.4439C36.6214 14.508 36.9692 14.5746 37.3183 14.6557C37.3826 14.6765 37.4515 14.6781 37.5167 14.6605C37.582 14.6429 37.6407 14.6067 37.6857 14.5563C37.8426 14.3903 38.0165 14.2386 38.176 14.0725C38.6717 13.5618 39.222 13.1071 39.817 12.7166C40.4459 12.3021 41.0644 11.8732 41.658 11.4091C42.0952 11.0672 42.5725 10.7801 43.0793 10.5539C43.3341 10.4324 43.6071 10.3533 43.8874 10.3199C44.0654 10.2947 44.2467 10.3273 44.4047 10.413C44.5626 10.4987 44.6889 10.6329 44.7648 10.7958C44.9578 11.1679 45.0856 11.5704 45.1427 11.9857C45.2865 12.8631 45.3963 13.743 45.4669 14.6296C45.5375 15.5161 45.6487 16.3764 45.7284 17.2447C45.7847 17.8278 45.8265 18.4123 45.8592 18.9968C45.9102 19.7682 46.003 20.5371 46.0932 21.3046C46.1469 21.7622 46.1822 22.2199 46.1913 22.6814C46.2122 23.7902 46.3286 24.8938 46.3652 26.0026C46.3731 26.272 46.3652 26.5439 46.3652 26.8342C46.663 26.7924 46.9552 26.7169 47.236 26.6093C48.294 26.2844 49.3686 26.0164 50.4552 25.8065C51.0031 25.7019 51.5588 25.7045 52.1119 25.6757C52.6964 25.6417 53.2756 25.5384 53.864 25.5685C53.9261 25.5696 53.9875 25.5556 54.0428 25.5276C54.0982 25.4995 54.1459 25.4584 54.1817 25.4077C54.5974 24.9531 54.9839 24.4727 55.3389 23.9694C55.529 23.7065 55.737 23.4571 55.9613 23.2228C56.06 23.1146 56.1731 23.0205 56.2973 22.9429C56.4568 22.8399 56.6458 22.7925 56.835 22.8081C57.0242 22.8237 57.203 22.9015 57.3434 23.0292C57.4767 23.1476 57.5859 23.2905 57.665 23.4503C57.7221 23.5502 57.7707 23.6547 57.8102 23.7628C58.1292 24.7382 58.5947 25.6522 58.987 26.5949C59.323 27.3965 59.51 28.2477 59.744 29.0793C60.2318 30.8209 60.5639 32.5979 60.9404 34.3657C61.0464 34.8652 61.1889 35.3568 61.3196 35.8785C61.4608 35.8236 61.5811 35.7778 61.7027 35.7295C61.9765 35.6199 62.2773 35.597 62.5644 35.6641C62.6789 35.6816 62.7867 35.7292 62.8768 35.802C62.9668 35.8748 63.0359 35.9703 63.077 36.0786C63.1092 36.1668 63.16 36.2471 63.226 36.3139C63.3116 36.4074 63.3656 36.5254 63.3803 36.6513C63.4954 37.3312 63.6131 38.0098 63.7177 38.691C63.8492 39.6188 63.6998 40.5647 63.2888 41.4068C63.2609 41.4747 63.2294 41.541 63.1947 41.6056C63.0992 41.7586 63.0482 41.8932 63.243 42.0214C63.3203 42.0939 63.3713 42.19 63.3882 42.2947C63.7804 43.5721 64.1727 44.847 64.531 46.1375C64.9167 47.551 65.1403 48.9971 65.4188 50.4328C65.7141 51.9198 65.9025 53.426 65.9823 54.9399C66.049 56.3273 65.9418 57.6976 65.4018 59.0038C65.0242 59.9722 64.425 60.8387 63.6523 61.5339C63.1881 61.9406 62.7069 62.3276 62.231 62.7199C61.7333 63.121 61.1653 63.426 60.556 63.6195C60.4785 63.6425 60.4085 63.686 60.3536 63.7453C60.2986 63.8047 60.2606 63.8777 60.2435 63.9568C60.0186 64.6433 59.6264 65.2657 59.2341 65.8815C58.6758 66.7314 57.9619 67.4597 57.3408 68.2599C56.1339 69.8041 54.7505 71.1902 53.4809 72.6808C52.5636 73.7322 51.4473 74.5916 50.1963 75.2096C49.9341 75.3651 49.6343 75.4456 49.3294 75.4423C48.8064 75.4109 48.4808 75.0853 48.4586 74.561C48.4478 74.1942 48.5046 73.8286 48.626 73.4823C48.8401 72.8706 49.1097 72.2797 49.4314 71.7171C50.0768 70.5201 50.8203 69.3786 51.6542 68.3044C52.069 67.7783 52.4291 67.2114 52.729 66.6124C52.9461 66.1822 53.222 65.7874 53.473 65.3781C53.5044 65.3245 53.5306 65.2709 53.5842 65.1728ZM26.314 9.63734C25.8056 9.98458 25.3566 10.4115 24.9842 10.9017C24.3252 11.7804 23.6845 12.673 23.0621 13.5796C22.4979 14.41 22.0632 15.3213 21.7729 16.2823C21.4211 17.4094 21.0354 18.5234 20.8092 19.6819C20.5765 20.8836 20.3568 22.0839 20.3228 23.313C20.2901 24.4898 20.2653 25.6561 20.294 26.8264C20.3149 27.7416 20.3855 28.6439 20.4156 29.5539C20.4583 30.8074 20.4627 32.0622 20.4287 33.3183C20.3777 35.264 20.2692 37.2031 20.056 39.1382C19.8325 41.1545 19.533 43.1603 19.316 45.1765C19.1983 46.2788 19.0845 47.3823 19.0388 48.4898C18.9546 50.1723 18.9752 51.8583 19.1002 53.5383C19.1996 54.7268 19.3526 55.9088 19.7449 57.0438C20.2094 58.3859 20.7611 59.6962 21.3963 60.9664C21.8347 61.8859 22.4926 62.6834 23.3118 63.2886C23.4125 63.3632 23.5145 63.4377 23.61 63.5188C24.4285 64.2209 25.417 64.5857 26.4146 64.9309C26.5473 64.966 26.6632 65.0471 26.7415 65.1597C26.9416 65.484 26.9704 65.7324 26.7742 66.0345C26.5111 66.4368 26.2041 66.8087 25.8589 67.1433C25.502 67.4818 25.1712 67.8468 24.8691 68.2351C24.2279 69.0889 23.4986 69.873 22.6934 70.5743C22.3207 70.8951 21.9683 71.2388 21.6382 71.6033C21.0886 72.2064 20.4955 72.7684 19.8638 73.2848C19.4891 73.5872 19.1316 73.9102 18.793 74.2524C18.1163 74.9515 17.4045 75.6158 16.6603 76.2425C16.4132 76.4517 16.1779 76.6753 15.953 76.9081C15.4299 77.4494 14.9069 77.9868 14.3368 78.4876C14.108 78.6854 13.9143 78.9206 13.7641 79.1832C13.9959 79.2366 14.2392 79.2061 14.4506 79.0969C15.5084 78.6471 16.5636 78.1947 17.5142 77.5278C17.8672 77.2833 18.2372 77.0676 18.6125 76.8597C19.3526 76.4509 20.0787 76.0176 20.7909 75.56C22.2514 74.6199 23.6283 73.562 25.0757 72.6049C25.5629 72.2788 26.0269 71.9192 26.4643 71.5288C26.7798 71.2384 27.1163 70.9718 27.4711 70.7312C28.4224 70.1082 29.3358 69.4292 30.2065 68.698C30.3674 68.5672 30.5387 68.4443 30.7073 68.3201C31.4709 67.7526 32.2411 67.193 32.9759 66.5902C33.1148 66.4619 33.2812 66.3671 33.4623 66.313C33.9156 66.1864 34.3788 66.0989 34.847 66.0515C35.8185 65.99 36.7809 65.854 37.7472 65.7442C38.7134 65.6344 39.5973 65.3193 40.5179 65.0904C41.5181 64.8289 42.5079 64.5321 43.5017 64.2484C44.111 64.0745 44.6916 63.8143 45.3048 63.6717C45.3048 63.6391 45.3048 63.626 45.3048 63.6181C45.2695 63.5658 45.2355 63.5135 45.1963 63.4652C44.7347 62.8812 44.3978 62.2088 44.2065 61.4895C43.8547 60.2199 43.5986 58.9257 43.4402 57.6178C43.3343 56.8333 43.2846 56.037 43.2088 55.2459C43.129 54.413 43.0467 53.5801 43.0114 52.7446C42.929 50.8316 42.9355 48.9174 42.9368 47.0031C42.9404 45.9569 43.0446 44.9135 43.248 43.8872C43.3147 43.5473 43.4154 43.2178 43.4925 42.8817C43.5111 42.8232 43.5072 42.7598 43.4816 42.7039C43.456 42.6481 43.4104 42.6038 43.3539 42.5797C42.9721 42.3456 42.6021 42.0841 42.236 41.8226C42.0526 41.7006 41.8871 41.5536 41.7443 41.3859C41.6542 41.2826 41.6017 41.1518 41.5953 41.0148C41.5889 40.8779 41.629 40.7428 41.709 40.6315C41.8542 40.4366 41.947 40.417 42.151 40.5465C42.6988 40.8943 43.2572 41.2198 43.8325 41.5193C44.1848 41.7023 44.5231 41.9112 44.8445 42.1443C45.3756 42.5345 45.972 42.8267 46.6058 43.0073C47.1864 43.1746 47.7734 43.3263 48.3697 43.444C49.285 43.6244 50.2002 43.8009 51.1299 43.8271C52.5682 43.8676 54.017 43.8559 55.4592 43.7813C56.4085 43.7317 57.3591 43.6767 58.3057 43.5787C59.3662 43.4701 60.3364 43.1066 61.1405 42.3783C61.6038 41.9523 61.9745 41.4356 62.2297 40.8603C62.4962 40.3231 62.6144 39.7246 62.5723 39.1265C62.5208 38.5851 62.4629 38.0447 62.3984 37.5051C62.3873 37.2319 62.2893 36.9694 62.1185 36.7559C61.895 36.8304 61.7733 37.0174 61.6491 37.1978C61.3405 37.6319 61.0424 38.0739 60.7495 38.5198C59.9036 39.809 58.6575 40.4353 57.1786 40.6445C56.4961 40.7413 55.807 40.7962 55.1219 40.8694C54.0907 40.9752 53.0502 40.9493 52.0256 40.7923C51.0031 40.6393 49.9923 40.4236 48.9829 40.2C48.2428 40.0551 47.5391 39.7639 46.9131 39.3435C46.7823 39.2468 46.6306 39.1644 46.4894 39.0742C45.0801 38.1661 43.8343 37.0265 42.8048 35.7033C42.5883 35.4232 42.3547 35.1568 42.1052 34.9057C41.795 34.5964 41.5308 34.2441 41.3207 33.8597C41.0068 33.3048 40.7383 32.7254 40.5179 32.1272C39.9713 30.6156 39.5346 29.0832 39.5869 27.4514C39.5964 27.0745 39.6721 26.7023 39.8105 26.3517C39.8659 26.1916 39.9764 26.0563 40.1222 25.9699C40.268 25.8834 40.4397 25.8515 40.6068 25.8797C40.7637 25.8944 40.915 25.9455 41.0487 26.0288C41.2697 26.1661 41.4907 26.306 41.7025 26.4524C42.3 26.8551 42.929 27.2121 43.4978 27.658C43.5383 27.696 43.5896 27.7205 43.6446 27.7282C43.6996 27.736 43.7556 27.7265 43.805 27.7011C44.1645 27.5328 44.5344 27.3878 44.9125 27.267C44.9766 27.2509 45.0338 27.2146 45.0757 27.1635C45.1176 27.1124 45.142 27.0492 45.1453 26.9833C45.2198 26.523 45.1701 26.068 45.1374 25.6064C45.0211 23.9589 45.0354 22.3022 44.8197 20.6613C44.6667 19.4845 44.6523 18.3077 44.5137 17.1309C44.3294 15.5736 44.2352 14.0072 43.9972 12.4564C43.9716 12.1566 43.9047 11.8618 43.7985 11.5804C43.69 11.5762 43.5831 11.6074 43.4938 11.6693C43.0858 11.8587 42.7021 12.0967 42.351 12.378C41.7823 12.8225 41.1912 13.237 40.5859 13.6293C39.9788 14.023 39.422 14.4893 38.9279 15.0179C38.6991 15.2637 38.4415 15.4782 38.1904 15.6991C38.0974 15.7838 37.9877 15.8479 37.8683 15.8873C37.7489 15.9268 37.6225 15.9406 37.4974 15.928C37.3275 15.9032 37.1596 15.8656 36.9953 15.8155C35.6014 15.4865 34.1819 15.2769 32.7523 15.1892C31.4539 15.1199 30.1725 14.9408 28.8872 14.7786C28.6917 14.7667 28.5055 14.6904 28.3578 14.5618C28.21 14.4332 28.1088 14.2593 28.07 14.0673C28.0465 13.9771 28.0242 13.8856 27.9981 13.7953C27.8568 13.2491 27.6821 12.712 27.4751 12.1871C27.1743 11.4749 26.8692 10.764 26.5598 10.0544C26.5113 9.89824 26.4271 9.75545 26.314 9.63734ZM49.7191 74.0772C49.7671 74.064 49.8143 74.0479 49.8603 74.0288C50.9122 73.4839 51.851 72.7442 52.6271 71.8492C53.2939 71.0725 53.9791 70.3115 54.6681 69.5544C54.9153 69.2837 55.1846 69.0314 55.4056 68.7424C56.1496 67.7709 56.9459 66.8439 57.7134 65.8933C58.221 65.2549 58.6552 64.5615 59.0079 63.826C59.0338 63.7758 59.0491 63.7207 59.0529 63.6642C59.0568 63.6078 59.049 63.5512 59.0301 63.4979C58.8994 63.0899 59.068 62.8284 59.4904 62.7512C60.1587 62.6182 60.786 62.3287 61.3209 61.9066C61.7132 61.6032 62.0885 61.2606 62.4847 60.9534C63.9426 59.821 64.6369 58.2925 64.7729 56.4933C64.832 55.7093 64.8202 54.9216 64.7376 54.1397C64.6199 53.0401 64.497 51.9417 64.2878 50.8552C64.0969 49.8614 63.919 48.8638 63.7242 47.8713C63.5385 46.9286 63.2496 46.0107 62.9998 45.0837C62.8037 44.358 62.5605 43.6454 62.3186 42.9432C62.2323 42.9432 62.197 43.0047 62.1552 43.0478C61.6456 43.5761 61.0303 43.9909 60.3494 44.2651C59.6473 44.5502 58.9386 44.7764 58.1724 44.7881C57.8703 44.7881 57.5683 44.8378 57.2675 44.8601C56.5484 44.9137 55.8292 44.9908 55.1114 45.0091C53.8261 45.0379 52.5394 45.0261 51.2528 45.03C51.0752 45.0344 50.8975 45.0283 50.7207 45.0117C49.9002 44.9347 49.0848 44.8116 48.2782 44.643C47.7904 44.5332 47.2844 44.49 46.8399 44.2429C46.6355 44.1383 46.4184 44.0609 46.1939 44.0128C45.6834 43.9065 45.1884 43.7365 44.7203 43.5068C44.7009 43.494 44.6782 43.4872 44.6549 43.4872C44.6317 43.4872 44.609 43.494 44.5896 43.5068C44.5258 43.6672 44.4785 43.8336 44.4483 44.0036C44.2447 45.103 44.1396 46.2185 44.1345 47.3366C44.1345 48.3094 44.1515 49.2809 44.1698 50.2524C44.196 51.7155 44.1999 53.1761 44.366 54.634C44.485 55.68 44.5464 56.7261 44.685 57.7721C44.8308 58.8901 45.0514 59.997 45.3453 61.0854C45.5392 61.8382 45.9227 62.5288 46.4594 63.0912C46.5954 63.2375 46.7779 63.3322 46.9758 63.3593C47.8231 63.49 48.6547 63.6888 49.4942 63.8496C49.9845 63.9437 50.4709 64.0693 50.9782 64.0627C51.6163 64.0549 52.2544 64.0627 52.8925 64.0627C53.2165 64.0722 53.5407 64.0583 53.8627 64.0209C54.1559 63.9863 54.4523 64.0508 54.7047 64.2039C54.824 64.2626 54.9174 64.3632 54.9671 64.4865C55.0168 64.6098 55.0193 64.7471 54.9741 64.8721C54.9426 64.9615 54.9055 65.0489 54.863 65.1336C54.6015 65.7495 54.238 66.3104 53.932 66.9105C53.5612 67.649 53.1235 68.3519 52.6244 69.0105C51.9894 69.8145 51.4155 70.6651 50.9076 71.555C50.5637 72.176 50.1846 72.7801 49.9204 73.4417C49.8253 73.6436 49.758 73.8573 49.7204 74.0772H49.7191ZM40.8277 27.3468C40.7569 27.9322 40.7737 28.5249 40.8774 29.1054C41.1389 30.345 41.4867 31.5597 42.0425 32.7038C42.2843 33.2506 42.6252 33.748 43.048 34.1709C43.2656 34.382 43.4655 34.6107 43.6455 34.8547C44.1748 35.5193 44.7526 36.1438 45.3741 36.7232C46.0109 37.343 46.7666 37.8215 47.5119 38.3066C47.9694 38.6205 48.481 38.847 49.0208 38.9748C50.3362 39.2559 51.6438 39.5854 52.9906 39.6966C53.6269 39.7467 54.2662 39.7445 54.9022 39.69C55.3899 39.6495 55.875 39.5671 56.364 39.5305C56.9691 39.4944 57.566 39.3729 58.1371 39.1696C58.4986 39.0333 58.8329 38.8336 59.1243 38.5799C59.6551 38.1301 59.9519 37.5077 60.3547 36.9625C60.3757 36.933 60.3884 36.8983 60.3914 36.8622C60.3944 36.826 60.3876 36.7898 60.3717 36.7572C60.0938 35.9256 59.8714 35.0764 59.7061 34.2153C59.3243 32.4187 58.9739 30.6156 58.4561 28.8544C58.1867 27.9312 57.9331 27.0042 57.4911 26.1425C57.2371 25.6368 57.0225 25.1122 56.8491 24.5735C56.8138 24.4675 56.8099 24.3119 56.6974 24.2832C56.5667 24.2531 56.5118 24.4218 56.4229 24.5029C56.3958 24.5347 56.3709 24.5684 56.3483 24.6035C55.9701 25.0909 55.5617 25.5543 55.1258 25.9908C55.0353 26.0772 54.953 26.1717 54.88 26.2733C54.676 26.5518 54.4223 26.7754 54.0536 26.7597C53.5293 26.7543 53.0052 26.7827 52.4845 26.8447C52.036 26.8839 51.5849 26.8682 51.1391 26.9192C50.2656 27.0173 49.4183 27.2461 48.5697 27.4671C47.7917 27.6697 47.0334 27.943 46.2488 28.1208C45.5454 28.2809 44.8634 28.5236 44.2169 28.8439C44.0235 28.9403 43.8079 28.9838 43.5923 28.9697C43.3766 28.9557 43.1685 28.8848 42.9891 28.7642C42.8117 28.6531 42.641 28.5317 42.4779 28.4007C41.9745 28.0045 41.3848 27.7207 40.8343 27.3468H40.8277Z" fill="#4E3D35"/>
<path d="M49.7198 74.0767C49.7559 73.8556 49.8219 73.6405 49.916 73.4373C50.1775 72.7757 50.5593 72.1716 50.9032 71.5505C51.4111 70.6606 51.9849 69.8101 52.62 69.006C53.119 68.3474 53.5567 67.6445 53.9275 66.9061C54.2335 66.3112 54.5944 65.745 54.8585 65.1291C54.9011 65.0444 54.9382 64.9571 54.9697 64.8676C55.0149 64.7426 55.0124 64.6053 54.9627 64.4821C54.913 64.3588 54.8196 64.2582 54.7003 64.1995C54.4479 64.0463 54.1515 63.9819 53.8582 64.0164C53.5363 64.0538 53.212 64.0678 52.888 64.0583C52.25 64.0583 51.6119 64.0583 50.9738 64.0583C50.4665 64.0583 49.9801 63.9393 49.4897 63.8451C48.6503 63.6843 47.8187 63.4803 46.9714 63.3548C46.7734 63.3277 46.591 63.233 46.4549 63.0867C45.9183 62.5243 45.5347 61.8338 45.3409 61.081C45.0468 59.9947 44.8258 58.89 44.6793 57.7742C44.5407 56.7281 44.4792 55.6821 44.3602 54.6361C44.1942 53.1781 44.1902 51.7176 44.1641 50.2545C44.1458 49.283 44.1262 48.3115 44.1288 47.3386C44.1339 46.2205 44.2389 45.1051 44.4426 44.0057C44.4727 43.8357 44.52 43.6692 44.5838 43.5088C44.6032 43.4961 44.6259 43.4893 44.6492 43.4893C44.6724 43.4893 44.6951 43.4961 44.7146 43.5088C45.1831 43.7415 45.679 43.9142 46.1908 44.0227C46.4152 44.0708 46.6324 44.1482 46.8367 44.2528C47.2865 44.5 47.7925 44.5431 48.275 44.6529C49.0816 44.8216 49.8971 44.9447 50.7175 45.0217C50.8944 45.0382 51.0721 45.0443 51.2497 45.04C52.5363 45.04 53.8229 45.0478 55.1083 45.0191C55.8274 45.0034 56.5466 44.9236 57.2644 44.87C57.5651 44.8478 57.8672 44.8033 58.1692 44.7981C58.9354 44.7837 59.6441 44.5575 60.3463 44.2751C61.0271 44.0009 61.6425 43.586 62.152 43.0577C62.1939 43.0146 62.2292 42.9557 62.3155 42.9531C62.5574 43.6592 62.8006 44.3679 62.9967 45.0936C63.2464 46.0206 63.5354 46.9385 63.7211 47.8813C63.9159 48.8737 64.0937 49.8714 64.2846 50.8651C64.4938 51.9517 64.6167 53.05 64.7344 54.1497C64.817 54.9315 64.8288 55.7193 64.7697 56.5032C64.639 58.3024 63.9394 59.831 62.4815 60.9633C62.0893 61.2706 61.7166 61.6171 61.3178 61.9165C60.7829 62.3386 60.1556 62.6281 59.4872 62.7612C59.0649 62.8383 58.9028 63.0998 59.027 63.5078C59.0459 63.5611 59.0536 63.6177 59.0498 63.6742C59.046 63.7306 59.0306 63.7857 59.0047 63.836C58.6521 64.5714 58.2179 65.2648 57.7103 65.9032C56.9427 66.8538 56.1412 67.7808 55.4025 68.7523C55.1815 69.0413 54.9121 69.2937 54.665 69.5643C53.9759 70.3214 53.2908 71.0824 52.6239 71.8591C51.8479 72.7542 50.909 73.4938 49.8571 74.0388C49.8122 74.0541 49.7663 74.0668 49.7198 74.0767Z" fill="#4E3D35" fill-opacity="0.6"/>
<path d="M40.8339 27.3471C41.3844 27.721 41.9688 28.0009 42.4801 28.4023C42.6432 28.5334 42.8139 28.6547 42.9913 28.7658C43.1707 28.8864 43.3788 28.9573 43.5945 28.9714C43.8102 28.9854 44.0257 28.942 44.2191 28.8455C44.8656 28.5253 45.5476 28.2826 46.2511 28.1225C47.0356 27.9433 47.794 27.67 48.5719 27.4687C49.4205 27.2477 50.2718 27.0189 51.1413 26.9208C51.5871 26.8698 52.0382 26.8855 52.4867 26.8463C53.0074 26.7843 53.5315 26.756 54.0558 26.7613C54.4245 26.777 54.6782 26.5534 54.8821 26.2749C54.9552 26.1734 55.0375 26.0788 55.128 25.9925C55.5639 25.5559 55.9722 25.0926 56.3505 24.6051C56.3731 24.57 56.398 24.5364 56.4251 24.5045C56.514 24.4234 56.565 24.2547 56.6996 24.2848C56.8121 24.3096 56.816 24.4692 56.8513 24.5751C57.0247 25.1138 57.2393 25.6384 57.4933 26.1441C57.9379 27.0058 58.1889 27.9329 58.4583 28.856C58.9813 30.6212 59.3265 32.4243 59.7083 34.2169C59.8736 35.078 60.0959 35.9272 60.3738 36.7588C60.3897 36.7914 60.3966 36.8277 60.3936 36.8638C60.3906 36.8999 60.3779 36.9346 60.3568 36.9641C59.9541 37.5093 59.6573 38.1317 59.1264 38.5815C58.8351 38.8353 58.5008 39.035 58.1392 39.1712C57.5651 39.3744 56.9651 39.4951 56.3571 39.5295C55.868 39.5661 55.3829 39.6485 54.8952 39.689C54.2593 39.7435 53.6199 39.7457 52.9836 39.6956C51.6368 39.5844 50.3293 39.2549 49.0139 38.9738C48.474 38.846 47.9624 38.6195 47.505 38.3056C46.7597 37.8205 46.0039 37.342 45.3672 36.7222C44.7489 36.1429 44.1742 35.5188 43.6477 34.855C43.4677 34.611 43.2678 34.3823 43.0502 34.1712C42.6274 33.7483 42.2865 33.2509 42.0447 32.7041C41.489 31.56 41.1438 30.3505 40.8797 29.1057C40.7772 28.525 40.7618 27.9323 40.8339 27.3471Z" fill="#4E3D35" fill-opacity="0.6"/>
</svg>
