<svg width="84" height="84" viewBox="0 0 84 84" fill="none" xmlns="http://www.w3.org/2000/svg">
<path d="M36.9787 24.7462C37.1176 24.5513 37.2066 24.3274 37.3265 24.1215C37.3765 24.0376 37.3525 23.9866 37.2735 23.9506C37.2336 23.9326 37.1996 23.8867 37.1246 23.9276C37.0767 24.1935 37.0247 24.4743 36.9747 24.7532L36.9847 24.7582L36.9787 24.7462ZM33.5946 32.5337C33.5537 32.7426 33.5157 32.9335 33.4827 33.1174C33.3628 33.802 33.2618 34.4906 33.1219 35.1712C32.966 35.9308 32.7731 36.6813 32.6012 37.4379C31.3439 42.9727 30.0867 48.5053 28.8294 54.0354C27.7633 58.7201 26.6992 63.4041 25.6371 68.0874C24.9815 70.9717 24.3263 73.8557 23.6713 76.7394C23.6648 76.768 22.7283 76.4492 22.7558 76.4506C22.7798 76.3507 22.8058 76.2407 22.8298 76.1328C23.6879 72.3529 24.5468 68.5728 25.4063 64.7923C26.4857 60.0377 27.5654 55.2834 28.6455 50.5294C29.8095 45.4083 30.9755 40.288 32.1435 35.1682C32.3364 34.3187 32.4513 33.4532 32.6602 32.6067C32.6867 32.4653 32.6707 32.3192 32.6142 32.1869C32.3364 32.6746 32.1195 33.1454 31.8526 33.5861C31.5858 34.0269 31.26 34.4266 30.9532 34.8624C31.1161 34.9234 31.243 34.9693 31.3679 35.0193C31.4884 35.0635 31.5979 35.1334 31.6887 35.2242C31.8596 35.4031 31.8966 35.618 31.7887 35.7919C31.6807 35.9658 31.4779 36.0247 31.237 35.9348C31.0731 35.8738 30.9132 35.7979 30.7483 35.7349C30.4485 35.626 30.4425 35.635 30.4155 35.9608C30.3855 36.3276 30.3645 36.6943 30.3665 37.0601C30.3712 37.1572 30.3428 37.2529 30.286 37.3318C30.2292 37.4106 30.1473 37.4677 30.0537 37.4939C29.9606 37.5196 29.8617 37.5147 29.7717 37.4797C29.6817 37.4448 29.6053 37.3818 29.554 37.3C29.4636 37.1659 29.4246 37.0038 29.444 36.8432C29.471 36.4605 29.507 36.0787 29.563 35.6989C29.571 35.6469 29.6019 35.593 29.544 35.526C29.2641 35.545 28.9933 35.601 28.7644 35.8049C28.5355 36.0087 28.3497 36.0187 28.1008 35.8318C28.0328 35.7799 27.9929 35.7839 27.9419 35.8388C27.8909 35.8938 27.8529 35.9318 27.808 35.9768C27.1753 36.6104 26.5607 37.262 25.8611 37.8257C25.8507 37.8316 25.8426 37.8408 25.8382 37.8519C25.8339 37.863 25.8334 37.8753 25.837 37.8867C25.875 37.9256 25.9251 37.9136 25.9711 37.9156C26.146 37.9256 26.3218 37.9326 26.4977 37.9436C26.6501 37.9485 26.7996 37.9856 26.9365 38.0526C27.1633 38.1695 27.2633 38.3704 27.2023 38.5823C27.1414 38.7941 26.9595 38.9011 26.7176 38.8901C26.6856 38.8901 26.6536 38.8831 26.6227 38.8801C26.4228 38.8581 26.2229 38.8311 26.023 38.8151C25.8138 38.7906 25.6027 38.7839 25.3923 38.7951C25.3821 38.8148 25.3778 38.837 25.3802 38.8591C25.3825 38.8811 25.3912 38.902 25.4053 38.9191C25.487 39.084 25.5984 39.2324 25.7341 39.3568C25.7995 39.4116 25.8457 39.4859 25.8658 39.5688C25.886 39.6517 25.8791 39.7389 25.8461 39.8176C25.8215 39.8989 25.7723 39.9708 25.7054 40.0233C25.6386 40.0759 25.5572 40.1066 25.4723 40.1114C25.3882 40.1174 25.3039 40.1051 25.2251 40.0755C25.1462 40.0458 25.0747 39.9994 25.0155 39.9395C24.9145 39.8366 24.8278 39.7207 24.7577 39.5947C24.7167 39.5297 24.7087 39.4388 24.6097 39.4078C24.537 39.5763 24.5028 39.759 24.5098 39.9425C24.5179 40.0264 24.5082 40.1111 24.4813 40.191C24.4544 40.2709 24.411 40.3442 24.3539 40.4062C24.2873 40.4925 24.1936 40.5538 24.0879 40.5803C23.9822 40.6068 23.8706 40.5969 23.7712 40.5521C23.6771 40.5057 23.601 40.4295 23.5547 40.3353C23.5085 40.2411 23.4946 40.1343 23.5154 40.0314C23.5269 39.9521 23.5439 39.8736 23.5663 39.7966C23.6473 39.5047 23.7322 39.2129 23.8132 38.9201C23.8312 38.8551 23.8832 38.7911 23.8282 38.7202C23.7822 38.7202 23.7573 38.7572 23.7283 38.7801C23.5284 38.9271 23.3485 38.9241 23.1346 38.7711C22.9207 38.6182 22.8508 38.4323 22.9087 38.2115C22.9747 37.9616 23.1366 37.8307 23.4164 37.8227C23.6623 37.8147 23.9092 37.8227 24.161 37.8227C24.1608 37.6797 24.141 37.5375 24.1021 37.3999C24.0663 37.26 24.0568 37.1146 24.0741 36.9712C24.101 36.853 24.1715 36.7493 24.2716 36.6809C24.3717 36.6125 24.4939 36.5845 24.6137 36.6024C24.7224 36.614 24.8221 36.6679 24.8913 36.7524C24.9605 36.837 24.9936 36.9453 24.9835 37.0541C24.9835 37.1231 24.9525 37.1971 25.0235 37.26C25.0685 37.228 25.1144 37.198 25.1594 37.1601C25.6417 36.7773 26.0967 36.3612 26.5207 35.9148C27.3343 35.1013 28.1398 34.2667 28.9593 33.4472C29.8858 32.5197 30.8582 31.6382 31.7067 30.6338C31.7467 30.5858 31.8017 30.5489 31.8456 30.5029C31.8896 30.4569 31.9616 30.4719 31.9456 30.3899C31.8986 30.362 31.8706 30.4009 31.8406 30.4209C31.6288 30.5599 31.4199 30.7038 31.207 30.8427C30.5644 31.2605 29.9078 31.6662 29.2771 32.098C27.5921 33.2443 25.919 34.4087 24.232 35.553C23.1273 36.3032 22.0359 37.0718 20.9579 37.8587C20.79 37.9806 20.7919 37.9806 20.8859 38.1585C21.0298 38.4343 21.1747 38.7102 21.3167 38.988C21.4166 39.1799 21.5165 39.3698 21.6015 39.5687C21.6446 39.6692 21.6489 39.7821 21.6134 39.8855C21.5779 39.989 21.5053 40.0755 21.4096 40.1284C21.3151 40.1833 21.2041 40.2022 21.0968 40.1816C20.9896 40.161 20.8934 40.1024 20.8259 40.0164C20.7664 39.9411 20.7179 39.8576 20.682 39.7686C20.5671 39.5127 20.4551 39.2569 20.3372 39.003C20.304 38.8983 20.2484 38.8022 20.1743 38.7212C20.1319 38.7624 20.1027 38.8153 20.0903 38.8731C19.9445 39.2623 19.8194 39.659 19.7155 40.0614C19.6958 40.164 19.6594 40.2626 19.6076 40.3533C19.5557 40.4373 19.4782 40.5025 19.3864 40.5392C19.2947 40.5758 19.1936 40.582 19.098 40.5568C19.0025 40.5316 18.9176 40.4763 18.8558 40.3992C18.7941 40.3221 18.7587 40.2271 18.7551 40.1284C18.7532 40.0406 18.766 39.9531 18.7931 39.8695C18.9013 39.5014 19.0284 39.1392 19.1739 38.7841C19.2738 38.5243 19.3877 38.2664 19.4927 38.0076C19.5406 37.8877 19.5287 37.8667 19.4047 37.8597C19.2528 37.8507 19.1049 37.8597 18.949 37.8497C18.9028 37.8408 18.8549 37.8504 18.8157 37.8763C18.7764 37.9023 18.7489 37.9426 18.7391 37.9886C18.7222 38.0446 18.6941 38.0966 18.6564 38.1413C18.6187 38.186 18.5723 38.2224 18.5199 38.2485C18.4675 38.2745 18.4104 38.2896 18.352 38.2926C18.2936 38.2957 18.2352 38.2868 18.1804 38.2664C17.9555 38.2048 17.7474 38.093 17.5717 37.9396C17.4748 37.8597 17.4115 37.7463 17.3945 37.6218C17.3774 37.4973 17.4079 37.371 17.4798 37.268C17.5348 37.1845 17.6087 37.115 17.6955 37.0654C17.7823 37.0157 17.8796 36.9872 17.9795 36.9822C18.4167 36.9345 18.8573 36.9268 19.2958 36.9592C19.3997 36.9785 19.5059 36.9812 19.6106 36.9672C19.5947 36.873 19.5567 36.784 19.4997 36.7073C19.4267 36.5654 19.3418 36.4295 19.2778 36.2836C19.2392 36.2032 19.2271 36.1125 19.2435 36.0248C19.2599 35.9371 19.3037 35.8569 19.3687 35.7959C19.4318 35.7274 19.515 35.6808 19.6063 35.6628C19.6976 35.6449 19.7922 35.6565 19.8765 35.6959C19.9718 35.7281 20.057 35.7845 20.1238 35.8597C20.1906 35.9349 20.2366 36.0262 20.2572 36.1247C20.3192 36.4095 20.4951 36.6404 20.5891 36.9072C20.6887 36.8755 20.7801 36.8223 20.8569 36.7513C21.1757 36.5244 21.4915 36.2916 21.8104 36.0647C23.2425 35.0463 24.7207 34.0868 26.1589 33.0744C27.9509 31.8131 29.7638 30.5858 31.6687 29.5005C31.8057 29.4225 31.8067 29.4075 31.7407 29.1716C31.6268 29.2056 31.5118 29.2366 31.3979 29.2716C29.2251 29.9522 27.0624 30.6708 24.8426 31.1915C24.6647 31.2335 24.6617 31.2395 24.6877 31.4184C24.7537 31.8851 24.8196 32.3518 24.8646 32.8176C24.8776 32.8967 24.8776 32.9773 24.8646 33.0564C24.8465 33.1516 24.7984 33.2385 24.7273 33.3043C24.6561 33.3701 24.5658 33.4114 24.4695 33.422C24.3731 33.4327 24.2759 33.4121 24.1922 33.3634C24.1084 33.3147 24.0425 33.2403 24.0041 33.1514C23.9625 33.0473 23.9398 32.9366 23.9371 32.8246C23.9211 32.5767 23.9052 32.3298 23.8852 32.083C23.8852 32.032 23.8982 31.968 23.8062 31.9281C23.7223 32.008 23.6313 32.094 23.5414 32.1819C23.3325 32.3888 23.1006 32.5727 22.9617 32.8455C22.925 32.9127 22.8751 32.9718 22.815 33.0192C22.7549 33.0666 22.6858 33.1014 22.6119 33.1214C22.5058 33.1565 22.3916 33.1583 22.2844 33.1267C22.1773 33.0951 22.0823 33.0315 22.0122 32.9445C21.951 32.8552 21.9205 32.7485 21.9252 32.6403C21.9299 32.5322 21.9695 32.4285 22.0382 32.3448C22.1103 32.2487 22.1935 32.1615 22.2861 32.085C22.6685 31.7465 23.0507 31.4067 23.4324 31.0656C23.4964 31.0086 23.5793 30.9656 23.6033 30.8657C23.5158 30.7617 23.4169 30.6678 23.3085 30.5858C23.2802 30.5526 23.24 30.5317 23.1965 30.5276C23.1531 30.5235 23.1097 30.5365 23.0756 30.5638C23.0152 30.6047 22.9445 30.6276 22.8716 30.6299C22.7988 30.6322 22.7267 30.6138 22.6639 30.5768C22.4103 30.4506 22.2134 30.2338 22.1122 29.9692C22.0708 29.868 22.0637 29.756 22.092 29.6504C22.1204 29.5448 22.1826 29.4514 22.2691 29.3845C22.478 29.2026 22.7109 29.2166 22.9427 29.3226C23.1967 29.4406 23.4392 29.5818 23.6673 29.7443C23.7173 29.7793 23.7552 29.8443 23.8422 29.8313C23.8642 29.6894 23.8122 29.5524 23.8002 29.4135C23.7971 29.2549 23.8405 29.0989 23.9251 28.9648C21.7344 29.1307 19.5936 29.4745 17.4288 29.5514C17.3909 29.5514 17.3469 29.5464 17.3219 29.6004C17.4108 29.6843 17.5098 29.7643 17.5938 29.8582C17.7627 30.0481 17.7806 30.258 17.6517 30.4249C17.5228 30.5918 17.3099 30.6318 17.09 30.5169C16.9561 30.4459 16.8342 30.353 16.7053 30.274C16.6623 30.248 16.6253 30.1881 16.5594 30.227C16.5443 30.2894 16.5443 30.3545 16.5594 30.4169C16.6043 30.7168 16.6323 31.0166 16.7003 31.3164C16.7286 31.418 16.7194 31.5264 16.6742 31.6217C16.6291 31.717 16.551 31.7928 16.4544 31.8351C16.3544 31.8786 16.2423 31.8853 16.1378 31.854C16.0334 31.8227 15.9434 31.7555 15.8838 31.6642C15.8017 31.5461 15.753 31.408 15.7428 31.2645C15.7208 31.0576 15.7029 30.8507 15.6839 30.6438C15.6699 30.5039 15.6559 30.364 15.6429 30.225C15.6019 30.23 15.5819 30.225 15.5739 30.235C15.3 30.5261 15.0673 30.8533 14.8823 31.2075C14.7584 31.4703 14.5255 31.5633 14.2716 31.4523C14.2118 31.4289 14.1573 31.3935 14.1115 31.3484C14.0657 31.3033 14.0295 31.2493 14.0051 31.1898C13.9807 31.1303 13.9686 31.0665 13.9696 31.0022C13.9706 30.9379 13.9846 30.8744 14.0108 30.8157C14.0475 30.7358 14.0917 30.6595 14.1427 30.5878C14.4351 30.1586 14.7699 29.7598 15.1421 29.3975C15.2801 29.2606 15.2701 29.2156 15.0912 29.1546C14.9852 29.1187 14.8753 29.0957 14.7674 29.0677C14.6745 29.043 14.5757 29.0541 14.4905 29.0987C14.2617 29.2096 14.0638 29.1706 13.9268 29.0067C13.8593 28.9209 13.8233 28.8145 13.8249 28.7053C13.8266 28.5961 13.8657 28.4908 13.9358 28.4071C14.0143 28.2992 14.1214 28.2155 14.2451 28.1655C14.3688 28.1154 14.504 28.1012 14.6354 28.1242C14.8808 28.1593 15.122 28.2195 15.355 28.3041C15.467 28.3401 15.5779 28.461 15.6808 28.4101C15.7838 28.3591 15.7808 28.2002 15.8238 28.0913C15.9187 27.8684 16.0236 27.6515 16.2175 27.4996C16.4384 27.3307 16.7102 27.3327 16.8752 27.4996C17.0401 27.6665 17.0351 27.9134 16.8442 28.1452C16.8107 28.1797 16.7797 28.2165 16.7512 28.2552C16.7062 28.3301 16.6653 28.4081 16.6273 28.487C16.5893 28.566 16.6123 28.612 16.7033 28.612C16.8152 28.612 16.9271 28.612 17.0391 28.612C18.7591 28.558 20.4671 28.3681 22.1742 28.1662C22.2111 28.1612 22.2561 28.1662 22.2741 28.1042C21.9443 27.8944 21.9483 27.5935 22.0742 27.2677C22.1412 27.0968 22.2201 26.9299 22.2901 26.76C22.3091 26.713 22.3581 26.6671 22.3141 26.6061C22.2251 26.5971 22.1681 26.6611 22.1072 26.706C21.8473 26.8929 21.5915 27.0838 21.3346 27.2737C21.2507 27.3347 21.1717 27.4047 21.0828 27.4566C20.9846 27.5166 20.8679 27.5384 20.7548 27.5179C20.6416 27.4974 20.54 27.436 20.4691 27.3454C20.3983 27.2548 20.3632 27.1414 20.3706 27.0266C20.3779 26.9119 20.4272 26.8038 20.5091 26.723C20.5654 26.6664 20.6266 26.6149 20.692 26.5691C21.1386 26.2318 21.6104 25.9291 22.1032 25.6636C22.1549 25.6421 22.2039 25.6146 22.2491 25.5817C22.2665 25.5715 22.281 25.5569 22.291 25.5393C22.301 25.5218 22.3063 25.5019 22.3063 25.4818C22.3063 25.4616 22.301 25.4417 22.291 25.4242C22.281 25.4066 22.2665 25.392 22.2491 25.3818C22.2061 25.3458 22.1612 25.3118 22.1172 25.2819C21.9313 25.131 21.7444 24.982 21.5595 24.8281C21.4947 24.7805 21.4426 24.7176 21.4078 24.6451C21.3729 24.5726 21.3564 24.4927 21.3596 24.4124C21.3638 24.3319 21.3896 24.2541 21.4343 24.1872C21.479 24.1202 21.541 24.0666 21.6137 24.032C21.6864 23.9974 21.7672 23.9831 21.8474 23.9905C21.9275 23.998 22.0042 24.0271 22.0692 24.0746C22.209 24.1803 22.3425 24.2941 22.469 24.4154C22.6689 24.5923 22.8757 24.7712 23.0766 24.9461C23.1491 24.885 23.2054 24.8071 23.2405 24.7192C23.3465 24.5413 23.4474 24.3584 23.5524 24.1795C23.6031 24.0886 23.6682 24.0066 23.7452 23.9366C23.8508 23.8483 23.9869 23.8054 24.124 23.8172C24.2611 23.829 24.3879 23.8946 24.4768 23.9996C24.6577 24.2085 24.6187 24.4733 24.3829 24.6692C24.147 24.8651 24.0411 25.1579 23.8742 25.4018C23.9432 25.4491 24.0236 25.477 24.1071 25.4828C24.5258 25.5467 24.9436 25.6177 25.3633 25.6726C26.5286 25.8256 27.696 25.9595 28.8614 26.1464C29.9118 26.3153 30.9601 26.4892 32.0165 26.6101C32.1032 26.6315 32.1932 26.6356 32.2814 26.6221C32.2795 26.6026 32.2725 26.5839 32.2614 26.5678C32.2502 26.5517 32.2351 26.5387 32.2174 26.5301L23.1046 20.4456C23.0969 20.4426 23.0883 20.4426 23.0806 20.4456C23.0706 20.4512 23.0612 20.4579 23.0526 20.4656C23.0831 20.5685 23.1081 20.6729 23.1276 20.7784C23.1426 20.8701 23.1275 20.9641 23.0847 21.0464C23.0418 21.1287 22.9734 21.195 22.8897 21.2352C22.8019 21.2757 22.7032 21.2864 22.6088 21.2654C22.5144 21.2445 22.4295 21.1931 22.367 21.1192C22.2844 21.0211 22.2226 20.9072 22.1852 20.7844C22.0912 20.5206 22.0012 20.2557 21.9043 19.9939C21.8873 19.9469 21.8893 19.877 21.8044 19.868C21.6659 20.0311 21.5558 20.2162 21.4785 20.4157C21.3796 20.6776 21.3089 20.9493 21.2677 21.2262C21.2521 21.3705 21.192 21.5063 21.0958 21.615C21.0443 21.6771 20.9761 21.7232 20.8992 21.7478C20.8223 21.7724 20.74 21.7745 20.662 21.7539C20.5837 21.7354 20.5122 21.6952 20.4556 21.6379C20.399 21.5806 20.3597 21.5086 20.3422 21.4301C20.3122 21.3049 20.3122 21.1744 20.3422 21.0493C20.4531 20.4866 20.635 19.9499 20.9828 19.4882C21.0188 19.4402 21.0828 19.4012 21.0628 19.2983H20.8359C20.5162 19.2975 20.1974 19.264 19.8845 19.1983C19.7499 19.1769 19.6194 19.1348 19.4977 19.0734C19.4149 19.0315 19.3468 18.9656 19.3022 18.8842C19.2576 18.8029 19.2386 18.71 19.2478 18.6177C19.2603 18.5242 19.2967 18.4356 19.3535 18.3603C19.4104 18.2851 19.4857 18.2258 19.5722 18.1883C19.6587 18.1508 19.7534 18.1363 19.8472 18.1462C19.941 18.1561 20.0306 18.1901 20.1073 18.2449C20.1583 18.2819 20.1973 18.3348 20.2652 18.3448C20.4741 18.3944 20.6882 18.4192 20.9029 18.4188C20.9189 18.3308 20.8639 18.2749 20.8339 18.2129C20.6604 17.8704 20.5141 17.5149 20.3962 17.1495C20.3012 16.8287 20.4231 16.5678 20.696 16.4869C20.9688 16.4059 21.2027 16.5579 21.2957 16.8867C21.3881 17.1925 21.4979 17.4928 21.6245 17.7861C21.6424 17.852 21.6818 17.91 21.7364 17.9511C21.7704 17.8851 21.8004 17.8311 21.8274 17.7752C21.9186 17.5694 22.0217 17.3692 22.1362 17.1755C22.1819 17.0951 22.2439 17.0253 22.3183 16.9703C22.3926 16.9154 22.4777 16.8767 22.5679 16.8567C22.6502 16.8356 22.7369 16.8397 22.8168 16.8686C22.8966 16.8975 22.9659 16.9497 23.0157 17.0186C23.065 17.0825 23.0945 17.1594 23.1005 17.2399C23.1065 17.3203 23.0889 17.4008 23.0497 17.4713C23.0297 17.5151 23.0042 17.5561 22.9737 17.5933C22.8314 17.7779 22.7122 17.9793 22.6189 18.1929C22.5194 18.3664 22.446 18.5537 22.401 18.7486C22.4264 18.7556 22.4526 18.759 22.479 18.7586C22.9041 18.6842 23.3328 18.6312 23.7632 18.5997C23.9064 18.5795 24.0523 18.5936 24.189 18.6407C24.3051 18.6862 24.4014 18.7714 24.4607 18.8812C24.5199 18.991 24.5384 19.1182 24.5128 19.2403C24.4968 19.2963 24.4699 19.3485 24.4336 19.394C24.3973 19.4394 24.3523 19.4772 24.3012 19.5051C24.2502 19.533 24.1941 19.5505 24.1362 19.5565C24.0783 19.5625 24.0198 19.557 23.9641 19.5402C23.8296 19.5032 23.686 19.5208 23.5644 19.5891L30.7603 24.4044C30.7021 24.2751 30.6234 24.1559 30.5274 24.0516C30.1686 23.5319 29.8218 23.0032 29.428 22.5064C29.0876 22.072 28.7671 21.6233 28.4666 21.1602C28.1661 20.6972 27.8496 20.2554 27.5171 19.835C26.9794 19.1487 26.4714 18.4411 25.993 17.7122C25.7222 17.2974 25.4323 16.8947 25.1504 16.4869C25.1254 16.4509 25.1085 16.4019 25.0445 16.4019C25.0245 16.4209 25.0025 16.4429 24.9785 16.4639C24.7647 16.6538 24.5338 16.6778 24.3519 16.5279C24.17 16.378 24.143 16.1391 24.3089 15.8862C24.3851 15.7912 24.4427 15.6827 24.4788 15.5664C24.3198 15.509 24.1643 15.4423 24.0131 15.3665C23.9172 15.3157 23.8324 15.2461 23.7638 15.162C23.6951 15.0779 23.644 14.981 23.6133 14.8768C23.58 14.7793 23.5826 14.6732 23.6205 14.5774C23.6585 14.4816 23.7294 14.4025 23.8204 14.3544C23.9115 14.3062 24.0167 14.2921 24.1173 14.3146C24.2178 14.337 24.307 14.3947 24.3689 14.477C24.4229 14.536 24.4468 14.6369 24.5688 14.628C24.5967 14.3841 24.6237 14.1462 24.6537 13.9094C24.6663 13.7894 24.7097 13.6748 24.7796 13.5766C24.8332 13.5009 24.9092 13.4439 24.9969 13.4136C25.0845 13.3833 25.1795 13.3812 25.2684 13.4076C25.3614 13.4348 25.4429 13.4919 25.5 13.5702C25.5571 13.6485 25.5867 13.7435 25.5842 13.8404C25.5775 13.9196 25.5645 13.9982 25.5452 14.0753C25.4903 14.3305 25.4569 14.59 25.4453 14.8508C25.5053 14.861 25.5669 14.8555 25.6242 14.8348C25.8347 14.7881 26.0481 14.7547 26.2628 14.7349C26.3554 14.7247 26.4486 14.7464 26.5271 14.7964C26.6056 14.8464 26.6647 14.9216 26.6946 15.0097C26.722 15.094 26.7226 15.1846 26.6965 15.2692C26.6704 15.3538 26.6188 15.4283 26.5487 15.4825C26.4545 15.5574 26.3414 15.6048 26.2219 15.6194C26.078 15.6484 25.922 15.6274 25.7841 15.6973C25.8175 15.8004 25.8717 15.8956 25.9431 15.9772C26.2429 16.4199 26.5557 16.8567 26.8505 17.3034C27.2503 17.9031 27.662 18.4918 28.1068 19.0574C28.5515 19.6231 28.9753 20.2048 29.3641 20.8114C29.415 20.8914 29.473 20.9693 29.524 21.0503C29.575 21.1312 29.6169 21.1592 29.7159 21.1093C29.8086 21.058 29.9168 21.0425 30.0201 21.0657C30.1235 21.0889 30.2147 21.1492 30.2766 21.2352C30.4427 21.4083 30.6378 21.5511 30.8532 21.6569C31.0431 21.7629 31.0881 21.7389 31.1151 21.529C31.142 21.3191 31.158 21.1292 31.188 20.9294C31.203 20.7856 31.2483 20.6466 31.3209 20.5216C31.3734 20.4354 31.4536 20.3696 31.5484 20.3349C31.6432 20.3003 31.7469 20.2988 31.8427 20.3307C31.9392 20.3606 32.0224 20.4231 32.0782 20.5074C32.1339 20.5918 32.1588 20.6929 32.1485 20.7934C32.1364 20.8721 32.119 20.9499 32.0965 21.0263C32.0325 21.2509 32.0009 21.4834 32.0025 21.7169L32.8501 21.636C32.3793 20.1108 31.7877 18.6567 31.3329 17.1385C31.2314 17.2194 31.1401 17.3124 31.0611 17.4154C30.9625 17.5318 30.8359 17.6212 30.6933 17.6752C30.6108 17.7087 30.5198 17.715 30.4335 17.6934C30.3471 17.6718 30.2699 17.6232 30.213 17.5548C30.156 17.4864 30.1223 17.4016 30.1166 17.3128C30.111 17.224 30.1338 17.1356 30.1816 17.0606C30.2463 16.9596 30.3239 16.8675 30.4125 16.7867C30.5424 16.6528 30.6703 16.5159 30.8123 16.362L30.4125 16.1621C30.2961 16.109 30.1826 16.0496 30.0727 15.9842C29.9774 15.9252 29.908 15.8323 29.8784 15.7242C29.8487 15.6161 29.8611 15.5008 29.913 15.4015C29.9649 15.3022 30.0524 15.2261 30.1581 15.1887C30.2637 15.1512 30.3796 15.1552 30.4824 15.1996C30.5644 15.2316 30.6383 15.2816 30.7173 15.3186C30.7962 15.3555 30.8832 15.4375 31.0011 15.4455C31.0315 15.2281 31.0766 15.0131 31.136 14.8019C31.1753 14.637 31.2694 14.4904 31.4029 14.3861C31.4695 14.3336 31.5509 14.3031 31.6356 14.299C31.7203 14.2949 31.8042 14.3173 31.8756 14.3631C31.9521 14.4079 32.0125 14.4757 32.0484 14.5567C32.0843 14.6378 32.0938 14.7281 32.0755 14.8149C32.0618 14.8773 32.041 14.938 32.0135 14.9957C31.9477 15.1504 31.8994 15.312 31.8696 15.4775C31.8346 15.6434 31.8456 15.6664 32.0195 15.7033C32.2365 15.7391 32.4564 15.7535 32.6762 15.7463C32.3524 15.4575 32.3224 15.3266 32.4623 14.9468C32.5176 14.7967 32.5901 14.6535 32.6782 14.52C32.7981 14.3411 32.926 14.1662 33.047 13.9873C33.0789 13.9393 33.1469 13.8974 33.1069 13.8214C33.0291 13.8044 32.9483 13.8073 32.872 13.8298C32.7956 13.8524 32.7262 13.8938 32.6702 13.9503C32.596 14.0195 32.4994 14.0599 32.3981 14.0641C32.2967 14.0683 32.1972 14.0361 32.1175 13.9733C31.9536 13.8444 31.9176 13.6315 32.0225 13.4086C32.0746 13.291 32.1547 13.1878 32.2557 13.108C32.3567 13.0283 32.4756 12.9743 32.6022 12.9509C32.6937 12.9471 32.7835 12.9246 32.8661 12.8849C32.8191 12.832 32.7811 12.793 32.7481 12.75C32.6592 12.6472 32.5758 12.5398 32.4983 12.4282C32.3424 12.1843 32.3893 11.9145 32.5982 11.7706C32.8071 11.6267 33.0609 11.6836 33.2318 11.9045C33.3224 12.0373 33.4226 12.1632 33.5317 12.2813C33.5667 12.3163 33.5907 12.3812 33.6726 12.3443C33.6726 12.0124 33.6726 11.6766 33.7036 11.3448C33.7073 11.2571 33.7217 11.1702 33.7466 11.086C33.7852 10.9634 33.8679 10.8596 33.9786 10.7944C34.0894 10.7293 34.2203 10.7075 34.3462 10.7332C34.5881 10.8001 34.695 11.004 34.646 11.3029C34.628 11.4218 34.6121 11.5407 34.5991 11.6596C34.5791 11.7675 34.5774 11.878 34.5941 11.9865C34.712 11.8705 34.8069 11.7786 34.9009 11.6866C35.0049 11.5744 35.1423 11.4987 35.2927 11.4708C35.3676 11.4544 35.4456 11.4596 35.5177 11.4855C35.5898 11.5115 35.6532 11.5573 35.7004 11.6177C35.7518 11.68 35.7838 11.7559 35.7925 11.8362C35.8012 11.9165 35.7862 11.9975 35.7494 12.0694C35.6991 12.1689 35.6314 12.2586 35.5495 12.3343C35.3616 12.5341 35.1757 12.734 34.9919 12.9339C34.9559 12.9719 34.9019 13.0069 34.9269 13.0838L35.1118 13.1838C35.3884 13.3251 35.6555 13.4844 35.9113 13.6605C35.9979 13.7135 36.0703 13.7866 36.1225 13.8736C36.1747 13.9606 36.2051 14.0589 36.2112 14.1602C36.2195 14.2485 36.2006 14.3372 36.157 14.4144C36.1134 14.4916 36.0472 14.5536 35.9673 14.592C35.8912 14.6302 35.8049 14.6432 35.721 14.629C35.637 14.6148 35.5598 14.5742 35.5005 14.513C35.2808 14.3148 35.039 14.1425 34.78 13.9993C34.73 13.9683 34.68 13.9134 34.5801 13.9583C35.1168 17.5873 35.4236 21.2542 35.9413 24.8951C35.9788 24.8235 36.0054 24.7467 36.0203 24.6672C36.3654 23.0495 36.7098 21.4317 37.0536 19.814C37.3335 18.5147 37.6963 17.2245 38.0031 15.9262C38.0376 15.8344 38.0479 15.7353 38.0331 15.6384L37.6623 15.7653C37.5495 15.8077 37.4283 15.8227 37.3085 15.8093C37.192 15.7982 37.0833 15.7461 37.0016 15.6622C36.92 15.5784 36.8708 15.4683 36.8628 15.3515C36.8628 15.1187 37.0097 14.9518 37.2795 14.9098C37.5494 14.8678 37.8142 14.7529 38.0791 14.6619C38.198 14.62 38.193 14.562 38.148 14.462C38.02 14.1867 37.913 13.9021 37.8282 13.6105C37.8033 13.5347 37.7873 13.4562 37.7802 13.3767C37.7739 13.2722 37.8048 13.1689 37.8672 13.0849C37.9297 13.001 38.0199 12.9418 38.1218 12.9179C38.2236 12.894 38.3307 12.9069 38.424 12.9542C38.5174 13.0016 38.5909 13.0804 38.6318 13.1768C38.6605 13.2511 38.6842 13.3272 38.7027 13.4046C38.7253 13.525 38.765 13.6414 38.8206 13.7505C38.9068 13.7084 38.9863 13.6539 39.0565 13.5885C39.1729 13.4908 39.3008 13.4075 39.4373 13.3407C39.533 13.2977 39.6409 13.2906 39.7414 13.3205C39.8419 13.3504 39.9283 13.4153 39.985 13.5036C40.0418 13.592 40.0645 13.698 40.0489 13.8019C40.0332 13.9058 39.9803 14.0005 39.9 14.0683C39.8311 14.1226 39.7594 14.1733 39.6852 14.2202C39.597 14.2668 39.5189 14.3303 39.4553 14.4071C39.6322 14.462 39.8011 14.507 39.963 14.567C40.149 14.6231 40.3075 14.7464 40.4077 14.9128C40.464 15.0014 40.4885 15.1066 40.4772 15.211C40.466 15.3154 40.4197 15.4128 40.3458 15.4875C40.1879 15.6344 39.988 15.6404 39.7791 15.4875C39.6367 15.3837 39.4744 15.3106 39.3024 15.2726C39.1265 15.2296 39.1235 15.2306 39.0845 15.4115C38.9056 16.239 38.7007 17.0616 38.4849 17.8801C38.0721 19.4412 37.7663 21.0253 37.4214 22.6024C37.4106 22.649 37.4042 22.6965 37.4025 22.7443C37.4025 22.7923 37.4375 22.8113 37.4794 22.8203C37.5214 22.8293 37.5464 22.7923 37.5504 22.7503C37.5574 22.6634 37.5604 22.5754 37.5704 22.4875C37.6044 22.1786 37.6104 21.8648 37.7303 21.57C37.766 21.4811 37.8275 21.405 37.907 21.3515C37.9865 21.298 38.0802 21.2697 38.176 21.2702C38.2762 21.2555 38.3784 21.2737 38.4674 21.3219C38.5564 21.3702 38.6274 21.446 38.6697 21.538C38.7617 21.7229 38.7767 21.9148 38.6308 22.0757C38.5504 22.1646 38.5025 22.278 38.4948 22.3975C38.4739 22.5974 38.4479 22.7973 38.4299 22.9972C38.4299 23.0461 38.3939 23.1081 38.4749 23.1591L39.0405 22.9352C39.1649 22.8793 39.297 22.8425 39.4323 22.8263C39.5367 22.8152 39.6417 22.8415 39.7285 22.9007C39.8152 22.9598 39.8782 23.0478 39.906 23.1491C39.9319 23.2462 39.923 23.3494 39.8808 23.4406C39.8387 23.5319 39.7659 23.6055 39.6752 23.6488C39.5947 23.6839 39.5123 23.7142 39.4283 23.7397C39.2029 23.8063 38.9828 23.8895 38.7697 23.9886C38.9276 24.0826 39.0695 24.1555 39.2004 24.2455C39.3104 24.3224 39.3813 24.3014 39.4583 24.2005C39.6232 23.9836 39.7941 23.7727 39.964 23.5608C40.1979 23.266 40.4247 22.9662 40.6636 22.6803C42.3516 20.6955 44.0297 18.7016 45.7527 16.7457C45.9586 16.5109 46.1595 16.273 46.3604 16.0342C46.3993 15.9882 46.4603 15.9502 46.4443 15.8672C46.2524 15.7953 46.0565 15.7263 45.8636 15.6494C45.7114 15.5994 45.569 15.5233 45.4429 15.4245C45.3722 15.3703 45.32 15.2956 45.2934 15.2107C45.2667 15.1257 45.2669 15.0346 45.2939 14.9498C45.324 14.8493 45.3818 14.7592 45.4606 14.6899C45.5394 14.6207 45.6362 14.5749 45.7397 14.558C45.8249 14.5307 45.9169 14.5333 46.0004 14.5653C46.084 14.5972 46.1542 14.6567 46.1994 14.7339C46.3054 14.9158 46.4753 14.9498 46.6572 14.9997C46.6752 14.8658 46.6912 14.7479 46.7082 14.629C46.7252 14.51 46.7391 14.3911 46.7611 14.2732C46.8251 13.9363 47.0409 13.7535 47.3108 13.8034C47.6006 13.8564 47.7316 14.1033 47.6546 14.4551C47.6201 14.559 47.6065 14.6687 47.6146 14.7779C47.6877 14.7446 47.7493 14.6903 47.7915 14.622C47.9574 14.4221 48.1193 14.2282 48.2822 14.0303C48.3593 13.9279 48.4597 13.8453 48.5751 13.7894C48.6516 13.7529 48.7376 13.7406 48.8213 13.7541C48.9051 13.7677 48.9827 13.8065 49.0438 13.8654C49.1056 13.9169 49.1514 13.985 49.1758 14.0617C49.2002 14.1383 49.2023 14.2204 49.1817 14.2981C49.1475 14.4305 49.0785 14.5513 48.9818 14.6479C48.777 14.8728 48.5691 15.0937 48.3642 15.3186C48.3292 15.3555 48.2642 15.3815 48.2902 15.4555C48.3913 15.4747 48.4914 15.499 48.5901 15.5284C48.6967 15.5628 48.7867 15.636 48.842 15.7335C48.8974 15.831 48.9141 15.9456 48.889 16.0549C48.8639 16.1641 48.7987 16.26 48.7064 16.3235C48.614 16.387 48.5012 16.4136 48.3902 16.3979C48.3182 16.3979 48.2443 16.349 48.1513 16.3979C48.2423 16.4979 48.3202 16.5888 48.4012 16.6758C48.4848 16.763 48.5403 16.8734 48.5601 16.9926C48.5765 17.0674 48.5713 17.1452 48.5453 17.2172C48.5193 17.2892 48.4735 17.3523 48.4131 17.3994C48.3517 17.4517 48.2758 17.4842 48.1956 17.4926C48.1153 17.5009 48.0344 17.4848 47.9634 17.4463C47.862 17.3975 47.7734 17.3256 47.7046 17.2365C47.5827 17.0885 47.4637 16.9366 47.3398 16.7917C47.2788 16.7208 47.2328 16.6318 47.1199 16.5918C46.957 16.7837 46.7941 16.9796 46.6252 17.1695C45.22 18.7446 43.8758 20.3677 42.4926 21.9668C41.6601 22.9262 40.8625 23.9156 40.0739 24.9131C40.0255 24.9755 39.9914 25.0478 39.974 25.125C39.9602 25.1921 39.9287 25.2544 39.8826 25.3052C39.8365 25.356 39.7777 25.3935 39.7122 25.4138C39.6073 25.4531 39.515 25.5201 39.4453 25.6077C39.0545 26.0194 38.7007 26.4642 38.3259 26.8899C38.141 27.0998 37.9511 27.3067 37.7682 27.5176C37.6913 27.6065 37.7203 27.7105 37.8362 27.8234C37.9182 27.9024 37.9661 27.8234 38.0151 27.7804C38.6593 27.2809 39.3346 26.8229 40.037 26.4092C41.3092 25.6247 42.5855 24.8461 43.8348 24.0226C44.7423 23.4229 45.6577 22.8383 46.5692 22.2456C46.6282 22.2076 46.6992 22.1836 46.7341 22.1127C46.6678 22.0684 46.6041 22.0204 46.5432 21.9688C46.4811 21.9175 46.436 21.8486 46.4137 21.7712C46.3914 21.6938 46.393 21.6115 46.4183 21.535C46.4424 21.458 46.4886 21.3897 46.5511 21.3387C46.6137 21.2877 46.6898 21.2563 46.7701 21.2482C46.8817 21.2322 46.9955 21.25 47.0969 21.2991C47.1994 21.3457 47.2995 21.3974 47.3968 21.4541C47.6066 21.576 47.6306 21.569 47.7016 21.3281C47.7604 21.1123 47.8335 20.9006 47.9204 20.6945C47.9536 20.6132 47.9937 20.535 48.0404 20.4606C48.0993 20.3651 48.1924 20.2956 48.3007 20.2662C48.4091 20.2368 48.5245 20.2498 48.6237 20.3025C48.7228 20.3551 48.7981 20.4436 48.8344 20.5498C48.8707 20.656 48.8651 20.7721 48.8189 20.8744C48.77 21.0003 48.699 21.1182 48.647 21.2432C48.625 21.2971 48.5711 21.3511 48.619 21.4271C48.766 21.4271 48.9189 21.4271 49.0688 21.4271C49.2212 21.4228 49.3726 21.4532 49.5115 21.516C49.6244 21.5698 49.7125 21.6645 49.7581 21.7808C49.8038 21.8972 49.8035 22.0265 49.7574 22.1427C49.6644 22.3635 49.4716 22.4425 49.1967 22.3575C49.0716 22.3121 48.9364 22.302 48.8059 22.3286C48.8239 22.4108 48.8546 22.4897 48.8969 22.5624C48.9259 22.6374 48.9598 22.7093 48.9908 22.7833C49.0461 22.9075 49.0844 23.0386 49.1048 23.1731C49.1243 23.2722 49.1094 23.3749 49.0627 23.4645C49.0161 23.554 48.9403 23.625 48.8479 23.6658C48.7493 23.7021 48.641 23.7019 48.5426 23.6652C48.4441 23.6285 48.3621 23.5578 48.3112 23.4659C48.2629 23.3834 48.2262 23.2946 48.2023 23.2021C48.1379 22.9647 48.0418 22.7371 47.9164 22.5254C47.8354 22.5425 47.7601 22.58 47.6976 22.6344C46.966 23.1071 46.2324 23.5778 45.5058 24.0576C43.8121 25.1769 42.0981 26.264 40.3638 27.3187C39.8451 27.6355 39.3353 27.9663 38.8236 28.2931C38.7368 28.3387 38.6606 28.4021 38.5998 28.479C38.6358 28.4764 38.6715 28.4711 38.7067 28.463C39.4933 28.1472 40.3058 27.9094 41.1053 27.6265C43.2511 26.865 45.4199 26.1764 47.6016 25.5177C49.1307 25.057 50.6609 24.5973 52.218 24.2355C52.7227 24.1185 53.2304 24.0126 53.7461 23.8987C53.7151 23.8047 53.6771 23.7158 53.6562 23.6248C53.6331 23.5392 53.6376 23.4486 53.669 23.3657C53.7004 23.2828 53.7571 23.2119 53.8311 23.1631C53.907 23.1167 53.9961 23.0964 54.0846 23.1052C54.1732 23.1141 54.2565 23.1516 54.3218 23.212C54.3747 23.2602 54.4235 23.3127 54.4677 23.369C54.5147 23.4219 54.5436 23.4919 54.6166 23.5239C54.6856 23.4759 54.7045 23.3949 54.7465 23.329C54.8625 23.1471 54.9664 22.9562 55.0943 22.7843C55.1248 22.7319 55.1658 22.6864 55.2146 22.6506C55.2635 22.6149 55.3192 22.5896 55.3784 22.5763C55.4375 22.5631 55.4987 22.5622 55.5582 22.5738C55.6176 22.5853 55.6741 22.609 55.724 22.6434C55.9239 22.7913 55.9598 23.0431 55.8109 23.284C55.7679 23.351 55.695 23.4049 55.685 23.5129C55.8669 23.4659 56.0258 23.4129 56.1847 23.3849C56.2836 23.3662 56.3859 23.3827 56.4738 23.4315C56.5618 23.4803 56.63 23.5584 56.6664 23.6521C56.7029 23.7459 56.7053 23.8495 56.6734 23.9449C56.6414 24.0403 56.5771 24.1216 56.4915 24.1745C56.3886 24.2363 56.2767 24.2815 56.1597 24.3084C56.082 24.3153 56.0078 24.344 55.9458 24.3914C55.9875 24.4435 56.0253 24.4986 56.0588 24.5563C56.0843 24.6014 56.1005 24.6511 56.1067 24.7026C56.1129 24.7541 56.1088 24.8062 56.0948 24.8561C56.0652 24.9602 55.9971 25.0492 55.9042 25.1049C55.8114 25.1606 55.7008 25.1789 55.595 25.1559C55.4581 25.1349 55.3522 25.039 55.2143 25.005C55.1841 25.1565 55.1673 25.3103 55.1643 25.4648C55.1639 25.5572 55.1415 25.6482 55.0989 25.7302C55.0563 25.8123 54.9948 25.883 54.9194 25.9365C54.8585 25.9828 54.7858 26.0114 54.7096 26.0189C54.6334 26.0265 54.5566 26.0129 54.4877 25.9795C54.4185 25.9461 54.3603 25.8934 54.3203 25.8278C54.2802 25.7622 54.2599 25.6865 54.2618 25.6097C54.265 25.5304 54.2727 25.4513 54.2848 25.3728C54.3018 25.1609 54.3548 24.9511 54.3528 24.7222L54.0689 24.7722C52.5508 25.051 51.0626 25.4518 49.5785 25.8715C46.0125 26.885 42.5176 28.1212 38.9946 29.2696C38.9496 29.2846 38.8796 29.2796 38.8726 29.3695C38.9386 29.3695 39.0016 29.3695 39.0645 29.3695C39.975 29.3296 40.8855 29.2746 41.7969 29.2696C41.9678 29.2696 41.9799 29.2356 41.9439 29.0887C41.931 29.0259 41.9277 28.9616 41.9339 28.8978C41.9317 28.7966 41.9648 28.6979 42.0275 28.6185C42.0903 28.5392 42.1787 28.4842 42.2777 28.463C42.4716 28.4271 42.6465 28.538 42.7504 28.7519C42.7874 28.8278 42.7754 28.9268 42.8694 28.9967C42.9373 28.9188 43.0023 28.8398 43.0692 28.7639C43.1819 28.6187 43.3169 28.4922 43.469 28.3891C43.559 28.3304 43.6671 28.3065 43.7734 28.3219C43.8797 28.3372 43.9767 28.3907 44.0464 28.4724C44.1161 28.5541 44.1536 28.6583 44.152 28.7657C44.1504 28.873 44.1098 28.9761 44.0377 29.0557C43.9817 29.1227 43.9088 29.1756 43.8468 29.2376C43.7887 29.2767 43.7481 29.3369 43.7339 29.4055H44.0007C44.1453 29.3968 44.2894 29.429 44.4164 29.4985C44.4905 29.5357 44.5514 29.5946 44.591 29.6674C44.6307 29.7401 44.6471 29.8233 44.6382 29.9057C44.6293 29.988 44.5954 30.0657 44.5412 30.1284C44.4869 30.191 44.4148 30.2355 44.3345 30.256C44.2339 30.2812 44.1305 30.2939 44.0267 30.294C43.9677 30.294 43.8998 30.271 43.8398 30.342C43.9318 30.4519 44.0607 30.5349 44.1067 30.6708C44.1212 30.7161 44.1498 30.7555 44.1882 30.7835C44.2267 30.8116 44.273 30.8267 44.3205 30.8267C44.6204 30.8727 44.9202 30.9207 45.22 30.9686C46.7338 31.2138 48.2502 31.447 49.7694 31.6682C50.9157 31.8331 52.0621 31.999 53.1984 32.2299L54.1878 32.4298C54.1878 32.3858 54.1878 32.3638 54.1878 32.3418C54.1668 32.077 54.2548 31.9161 54.4607 31.8421C54.6506 31.7772 54.8335 31.8481 54.9754 32.048C55.0354 32.1309 55.0853 32.2219 55.1383 32.3069C55.2194 32.2947 55.2963 32.2628 55.3622 32.2139C55.5131 32.1409 55.657 32.051 55.8129 31.992C55.918 31.9492 56.0356 31.9495 56.1404 31.993C56.2452 32.0364 56.3286 32.1194 56.3726 32.2239C56.4181 32.3231 56.425 32.4358 56.392 32.5398C56.3589 32.6439 56.2882 32.7319 56.1937 32.7866C56.1175 32.8299 56.0391 32.8692 55.9588 32.9045C55.8173 32.9626 55.6811 33.0332 55.5521 33.1154C55.6383 33.2693 55.7083 33.4317 55.761 33.6001C55.8011 33.7488 55.788 33.9068 55.724 34.0469C55.6855 34.1267 55.6235 34.1928 55.5463 34.2362C55.4691 34.2796 55.3804 34.2983 55.2922 34.2897C55.2044 34.278 55.1221 34.2401 55.0561 34.1809C54.9902 34.1217 54.9436 34.044 54.9224 33.9579C54.9064 33.898 54.9324 33.829 54.8745 33.767C54.7531 33.8374 54.6503 33.9358 54.5746 34.0539C54.5191 34.1323 54.454 34.2035 54.3807 34.2657C54.3043 34.3249 54.2102 34.3566 54.1135 34.3557C54.0169 34.3548 53.9233 34.3214 53.848 34.2607C53.7756 34.2025 53.7244 34.1219 53.7023 34.0316C53.6803 33.9412 53.6886 33.8461 53.7261 33.761C53.7687 33.675 53.8207 33.5939 53.881 33.5192C53.916 33.4702 53.981 33.4392 53.973 33.3483C53.4183 33.2193 52.8566 33.1064 52.2919 33.0064C50.8987 32.7606 49.4935 32.5807 48.0943 32.3688C45.8503 32.0283 43.6073 31.6842 41.3652 31.3364C41.2931 31.3174 41.2174 31.3174 41.1453 31.3364C41.1593 31.3724 41.1613 31.3974 41.1703 31.3994C41.653 31.5453 42.0948 31.7881 42.5526 31.992C43.503 32.4298 44.4792 32.8093 45.4759 33.1284C47.2558 33.6731 49.0468 34.1788 50.8328 34.7005C50.8961 34.7327 50.9694 34.7395 51.0377 34.7195C51.0377 34.5925 51.0377 34.4586 51.0377 34.3247C51.033 34.2124 51.0531 34.1005 51.0966 33.9969C51.1334 33.9073 51.1992 33.8327 51.2835 33.785C51.3678 33.7374 51.4657 33.7194 51.5614 33.734C51.657 33.7492 51.7445 33.7966 51.8094 33.8684C51.8744 33.9403 51.9127 34.0322 51.9182 34.1288C51.9241 34.1918 51.9182 34.2567 51.9182 34.3207C51.9182 34.5346 51.9182 34.7485 51.9182 34.9663C51.9931 34.9853 52.0611 34.9314 52.135 34.9084C52.209 34.8854 52.282 34.8444 52.3589 34.8254C52.4597 34.7955 52.568 34.8037 52.6632 34.8482C52.7584 34.8928 52.834 34.9707 52.8756 35.0673C52.9186 35.1632 52.9253 35.2714 52.8946 35.3719C52.8639 35.4724 52.7979 35.5584 52.7087 35.614C52.5693 35.6923 52.4196 35.7508 52.2639 35.7879C52.207 35.8059 52.138 35.7999 52.0911 35.8828C52.229 36.0437 52.3679 36.2066 52.5078 36.3685C52.5745 36.4372 52.6372 36.5096 52.6957 36.5854C52.7573 36.6747 52.7851 36.7831 52.7743 36.891C52.7634 36.999 52.7145 37.0996 52.6364 37.1749C52.5582 37.2501 52.4558 37.2952 52.3475 37.302C52.2392 37.3088 52.132 37.2769 52.0451 37.212C51.9875 37.1686 51.9355 37.1183 51.8902 37.0621C51.6446 36.7751 51.4227 36.4686 51.2266 36.1457C51.1156 35.9618 51.1146 35.9638 50.9267 36.0457C50.7326 36.1425 50.5166 36.1869 50.3001 36.1747C49.9743 36.1457 49.6335 35.8128 49.8783 35.4411C49.8893 35.4251 49.8863 35.4121 49.8683 35.4011C49.7404 35.3461 46.8551 34.5086 46.7591 34.5016C46.7781 34.7824 46.7541 35.0653 46.8361 35.3461C46.998 35.2911 47.044 35.1572 47.1179 35.0463C47.171 34.9602 47.2525 34.8954 47.3483 34.8629C47.444 34.8305 47.5481 34.8324 47.6426 34.8684C47.7372 34.9032 47.8172 34.9691 47.8693 35.0554C47.9215 35.1417 47.9427 35.2432 47.9294 35.3431C47.9086 35.4865 47.848 35.6212 47.7545 35.7319C47.7066 35.7939 47.6296 35.8318 47.6066 35.9158C47.6766 35.9518 47.7296 35.8998 47.7895 35.8878C47.8582 35.8734 47.9291 35.8737 47.9976 35.8885C48.0662 35.9034 48.1308 35.9325 48.1874 35.974C48.244 36.0154 48.2912 36.0684 48.3259 36.1293C48.3607 36.1902 48.3822 36.2578 48.3892 36.3276C48.4012 36.3969 48.3977 36.468 48.3788 36.5357C48.36 36.6035 48.3262 36.6662 48.2801 36.7194C48.234 36.7725 48.1766 36.8146 48.1122 36.8428C48.0477 36.871 47.9778 36.8844 47.9074 36.8822C47.8075 36.8822 47.7166 36.8632 47.6206 36.8562C47.4427 36.8442 47.2688 36.7813 47.071 36.7953C47.1401 36.9104 47.1776 37.0418 47.1799 37.1761C47.1739 37.2926 47.1289 37.4037 47.052 37.4915C46.9751 37.5793 46.8709 37.6386 46.7561 37.6598C46.649 37.68 46.5382 37.6593 46.4457 37.6018C46.3531 37.5442 46.2856 37.454 46.2564 37.349C46.225 37.2504 46.1986 37.1504 46.1775 37.0491C46.1455 36.9302 46.1505 36.8013 46.0775 36.6763C45.7443 36.8477 45.3916 36.9783 45.0271 37.0651C45.0831 37.1241 45.1141 37.1651 45.148 37.1931C45.7167 37.7557 46.3024 38.2994 46.923 38.8051C47.3748 39.1739 47.8155 39.5567 48.2483 39.9485C49.0958 40.716 49.9283 41.5006 50.8328 42.2012C50.8907 42.2462 50.9327 42.3321 51.0446 42.3011C51.0346 42.1257 51.0346 41.9499 51.0446 41.7744C51.0659 41.6514 51.1325 41.5408 51.2313 41.4644C51.3301 41.388 51.4539 41.3514 51.5783 41.3617C51.8182 41.3957 51.9531 41.5975 51.9341 41.8724C51.9132 42.1722 51.9032 42.463 51.8912 42.7589C51.8912 42.8008 51.8632 42.8588 51.9361 42.8878C52.0938 42.771 52.231 42.6289 52.3419 42.467C52.5338 42.2262 52.7847 42.1672 52.9905 42.3031C53.1964 42.4391 53.2334 42.6809 53.0795 42.9608C53.0435 43.0287 53.0115 43.0727 53.0875 43.1427C53.3873 43.4125 53.1714 43.8343 52.9016 43.9522C52.7528 44.0117 52.5929 44.0386 52.4329 44.0311C52.3201 44.0179 52.206 44.0209 52.0941 44.0401C52.15 44.187 52.194 44.313 52.245 44.4399C52.2999 44.5642 52.3473 44.6917 52.3869 44.8217C52.4171 44.931 52.4049 45.0477 52.3529 45.1485C52.3008 45.2493 52.2127 45.3267 52.106 45.3654C51.9996 45.4044 51.8825 45.4025 51.7773 45.3603C51.6721 45.318 51.5863 45.2383 51.5364 45.1365C51.505 45.072 51.4786 45.0052 51.4574 44.9366C51.3705 44.6718 51.2775 44.4069 51.2006 44.1371C51.1656 44.0162 51.1196 44.0012 51.0167 44.0611C50.8993 44.1308 50.7697 44.1776 50.6349 44.199C50.5308 44.2155 50.4243 44.1943 50.3344 44.1394C50.2445 44.0844 50.177 43.9993 50.1442 43.8992C50.1116 43.7991 50.1166 43.6906 50.1581 43.5938C50.1997 43.4971 50.275 43.4188 50.37 43.3735C50.439 43.3385 50.513 43.3155 50.6199 43.2736C50.492 43.1566 50.386 43.0517 50.2711 42.9558C49.9213 42.6639 49.5585 42.3881 49.2187 42.0843C48.0564 41.0459 46.878 40.0254 45.7137 38.986C44.4364 37.8487 43.1912 36.6764 41.8879 35.567C41.4801 35.2192 41.0884 34.8584 40.6586 34.5326C40.13 34.1313 39.6328 33.6903 39.1714 33.2133C38.7709 32.8103 38.3291 32.4505 37.8532 32.1399C37.8276 32.1208 37.8009 32.1031 37.7733 32.087C37.7594 32.0788 37.7431 32.0757 37.7273 32.0783C37.7114 32.0808 37.6969 32.0889 37.6863 32.101C37.6806 32.1065 37.676 32.1131 37.6729 32.1204C37.6698 32.1277 37.6682 32.1355 37.6682 32.1434C37.6682 32.1514 37.6698 32.1592 37.6729 32.1665C37.676 32.1738 37.6806 32.1804 37.6863 32.1859C37.7163 32.2229 37.7483 32.2589 37.7802 32.2949C37.9801 32.5317 38.191 32.7636 38.3899 33.0045C39.6702 34.5596 40.8825 36.1696 42.1388 37.7447C42.9713 38.7881 43.8238 39.8156 44.7223 40.804C44.8162 40.9039 44.9222 41.0039 45.0481 41.1368C45.0671 40.9369 45.0791 40.792 45.0971 40.6451C45.103 40.5408 45.1322 40.4393 45.1826 40.3478C45.2329 40.2563 45.3031 40.1772 45.3879 40.1164C45.4521 40.0671 45.5299 40.0388 45.6108 40.0354C45.6916 40.032 45.7715 40.0536 45.8396 40.0974C45.9104 40.1371 45.9674 40.1973 46.0031 40.2701C46.0388 40.343 46.0515 40.4249 46.0395 40.5052C46.0315 40.5851 46.0035 40.6621 45.9915 40.74C45.9341 41.0227 45.9139 41.3116 45.9316 41.5995C46.1661 41.5235 46.3906 41.4195 46.6002 41.2897C46.6987 41.2257 46.8183 41.2031 46.9333 41.2266C47.0484 41.2502 47.1495 41.3181 47.2148 41.4156C47.3498 41.6155 47.3018 41.8584 47.0969 42.0343C47.0549 42.0693 46.981 42.0803 46.98 42.1532C47.025 42.1892 47.0659 42.1732 47.1039 42.1702C47.2086 42.1607 47.3136 42.1859 47.4026 42.2419C47.4917 42.2978 47.5598 42.3815 47.5966 42.48C47.6398 42.5584 47.6583 42.648 47.65 42.7371C47.6416 42.8262 47.6066 42.9107 47.5497 42.9797C47.4882 43.0601 47.4026 43.1184 47.3053 43.1462C47.2081 43.1739 47.1045 43.1695 47.01 43.1337C46.7561 43.0617 46.5033 42.9877 46.2494 42.9178C46.1638 42.8779 46.0699 42.8594 45.9756 42.8638C45.9593 42.9435 45.9635 43.026 45.9875 43.1037C46.0185 43.3335 46.0585 43.5624 46.0825 43.7923C46.1044 43.9122 46.0786 44.0359 46.0107 44.137C45.9427 44.2382 45.838 44.3089 45.7187 44.334C45.4909 44.3849 45.279 44.259 45.175 44.0062C45.1148 43.8661 45.09 43.7133 45.1031 43.5614C45.133 43.2336 45.0571 42.9148 45.0371 42.562L44.5814 42.6939C44.3996 42.7576 44.2067 42.7831 44.0147 42.7689C43.7449 42.7319 43.551 42.531 43.554 42.2991C43.557 42.0673 43.7249 41.9114 44.0207 41.8814C44.0996 41.8734 44.1796 41.8704 44.2596 41.8614C44.2965 41.8564 44.3405 41.8614 44.3685 41.8114C44.3585 41.7584 44.3095 41.7275 44.2736 41.6885C44.0517 41.4466 43.8268 41.2088 43.6079 40.9639C42.3706 39.5807 41.2393 38.1095 40.0889 36.6553C39.1545 35.475 38.233 34.2857 37.3275 33.1294C37.3963 33.3491 37.4819 33.5633 37.5833 33.77C37.9311 34.5506 38.283 35.3321 38.6128 36.1187C38.9426 36.9052 39.3124 37.6918 39.6512 38.4813C40.6646 40.828 41.696 43.1676 42.7224 45.5093C42.7454 45.5633 42.7514 45.6352 42.8284 45.6572C42.8604 45.5932 42.8874 45.5263 42.9223 45.4643C42.963 45.3811 43.03 45.3135 43.1129 45.2722C43.1959 45.2308 43.2901 45.2179 43.3811 45.2354C43.4753 45.2579 43.5591 45.3114 43.6191 45.3874C43.6792 45.4634 43.7118 45.5574 43.7119 45.6542C43.7149 45.7742 43.7048 45.8942 43.6819 46.012C43.6599 46.1659 43.5969 46.3168 43.6189 46.4817C43.7731 46.4597 43.9217 46.4085 44.0567 46.3308C44.2506 46.2369 44.4355 46.1259 44.6303 46.031C44.7236 45.9823 44.8314 45.9688 44.9338 45.993C45.0362 46.0172 45.1264 46.0776 45.188 46.1629C45.2511 46.2469 45.2826 46.3505 45.277 46.4554C45.2713 46.5603 45.2288 46.6599 45.157 46.7366C45.0768 46.8266 44.9769 46.8971 44.8652 46.9425C44.6453 47.0424 44.4245 47.1294 44.2036 47.2233C44.1586 47.2423 44.0907 47.2333 44.0857 47.3233C44.2116 47.3732 44.3385 47.4232 44.4624 47.4752C44.7283 47.5931 44.8392 47.838 44.7383 48.0748C44.7151 48.1302 44.6809 48.1804 44.6379 48.2223C44.5949 48.2642 44.544 48.2971 44.488 48.3189C44.4321 48.3407 44.3723 48.351 44.3123 48.3493C44.2523 48.3475 44.1932 48.3337 44.1386 48.3087C43.9388 48.2327 43.7389 48.1348 43.545 48.0508C43.49 48.0279 43.438 47.9759 43.3661 48.0159C43.3661 48.1648 43.3661 48.3157 43.3661 48.4656C43.3764 48.6093 43.3656 48.7538 43.3341 48.8944C43.3138 48.9761 43.2743 49.0518 43.2191 49.1154C43.1638 49.179 43.0943 49.2286 43.0163 49.2601C42.9408 49.2987 42.8555 49.3138 42.7713 49.3032C42.6872 49.2927 42.6082 49.2572 42.5446 49.2012C42.478 49.1483 42.4296 49.0759 42.4063 48.9942C42.383 48.9124 42.3859 48.8255 42.4146 48.7454C42.5146 48.4336 42.4556 48.1158 42.4806 47.784L42.0288 47.822C41.9654 47.8315 41.9006 47.8275 41.8387 47.8103C41.7769 47.7931 41.7194 47.763 41.67 47.722C41.6033 47.6696 41.5543 47.598 41.5296 47.5169C41.5049 47.4357 41.5058 47.3489 41.5321 47.2683C41.5559 47.1828 41.605 47.1065 41.6729 47.0494C41.7409 46.9923 41.8246 46.9571 41.9129 46.9485C42.0358 46.9285 42.1677 46.9575 42.2907 46.8945C42.2812 46.8536 42.2695 46.8132 42.2557 46.7736C41.1284 44.207 40.0006 41.6418 38.8726 39.078C38.8726 39.072 38.8606 39.068 38.8536 39.065C38.8425 39.0624 38.8311 39.0607 38.8196 39.06C38.593 39.2052 38.3779 39.3676 38.176 39.5457C38.442 39.7303 38.7179 39.9001 39.0026 40.0544C39.1366 40.1095 39.2516 40.2026 39.3334 40.3223C39.3867 40.3981 39.4153 40.4885 39.4153 40.5811C39.4153 40.6738 39.3867 40.7642 39.3334 40.84C39.2812 40.9121 39.2078 40.9663 39.1235 40.9949C39.0391 41.0235 38.948 41.0253 38.8626 40.9999C38.7001 40.9562 38.547 40.883 38.4109 40.784C38.158 40.6151 37.9112 40.4372 37.6613 40.2663C37.6113 40.2323 37.5714 40.1664 37.4954 40.1903C37.4465 40.2631 37.409 40.343 37.3845 40.4272C37.2246 40.811 37.0736 41.1988 36.9067 41.5786C36.8852 41.6393 36.8516 41.6951 36.8077 41.7423C36.7639 41.7896 36.7109 41.8274 36.6519 41.8534C36.5929 41.8794 36.5293 41.8931 36.4648 41.8936C36.4004 41.8942 36.3365 41.8815 36.2771 41.8564C36.0382 41.7564 35.9343 41.4846 36.0323 41.2078C36.0427 41.1777 36.055 41.1483 36.0692 41.1198C36.1552 40.9399 36.2441 40.761 36.3281 40.5801C36.466 40.2853 36.5999 39.9885 36.7448 39.6736C36.5889 39.6496 36.455 39.6337 36.3241 39.6067C36.2034 39.5925 36.0903 39.5408 36.0006 39.4588C35.9109 39.3769 35.8493 39.2688 35.8244 39.1499C35.8015 39.0518 35.8082 38.949 35.8438 38.8547C35.8794 38.7604 35.9422 38.6788 36.0243 38.6202C36.1862 38.5133 36.3581 38.5343 36.551 38.6832C36.5859 38.7092 36.6119 38.7632 36.6699 38.7212C36.6833 38.6747 36.6793 38.625 36.6589 38.5813C36.469 37.8127 36.2661 37.0481 36.0153 36.2966C35.8933 35.9328 35.7714 35.569 35.6624 35.1972C35.4748 34.5519 35.3533 33.8892 35.2997 33.2193C35.2857 33.0694 35.2357 33.0374 35.0798 33.0414C34.9459 33.0414 34.9799 33.1484 34.9799 33.2163C34.8989 34.2158 34.8149 35.2242 34.743 36.2296C34.65 37.5289 34.5761 38.8281 34.4761 40.1274C34.3382 41.9054 34.2763 43.6873 34.2063 45.4683C34.2003 45.6022 34.2433 45.6512 34.3732 45.6682C34.8579 45.7202 35.3266 45.8681 35.8144 45.9131C35.8698 45.9189 35.9243 45.932 35.9763 45.952C36.0671 45.9858 36.1448 46.0476 36.1982 46.1283C36.2517 46.2091 36.2782 46.3047 36.2739 46.4015C36.2695 46.4982 36.2346 46.5911 36.1741 46.6668C36.1137 46.7425 36.0307 46.797 35.9373 46.8225C35.8278 46.8475 35.714 46.8475 35.6045 46.8225C35.2477 46.7696 34.9049 46.6616 34.5521 46.5877C34.3259 46.5299 34.0952 46.4914 33.8625 46.4727C33.9874 46.6816 34.0883 46.8615 34.1993 47.0354C34.3272 47.2353 34.4541 47.4292 34.675 47.5591C34.9239 47.706 34.9189 48.0488 34.695 48.2357C34.6041 48.3091 34.492 48.3514 34.3753 48.3564C34.2586 48.3615 34.1433 48.329 34.0464 48.2637C33.9071 48.1686 33.7879 48.047 33.6956 47.9059C33.5669 47.7228 33.4498 47.5319 33.3448 47.3342C33.3208 47.2893 33.3128 47.2213 33.2209 47.2263C33.042 47.4682 32.8581 47.719 32.6722 47.9689C32.6029 48.0769 32.5153 48.1719 32.4133 48.2497C32.3345 48.3057 32.2403 48.3359 32.1437 48.3363C32.047 48.3367 31.9526 48.3072 31.8734 48.2518C31.7941 48.1964 31.734 48.1179 31.7011 48.027C31.6682 47.9361 31.6642 47.8372 31.6897 47.744C31.7281 47.6132 31.8005 47.4949 31.8996 47.4012C32.1734 47.1124 32.4043 46.7896 32.6532 46.4897C32.6132 46.4288 32.5702 46.4398 32.5323 46.4378C32.3883 46.4288 32.2424 46.4378 32.1015 46.4108C31.9705 46.387 31.8533 46.3143 31.7739 46.2074C31.6945 46.1005 31.6587 45.9674 31.6737 45.8351C31.7127 45.5792 31.9266 45.4533 32.2324 45.4873C32.5183 45.5183 32.8061 45.5293 33.0929 45.5543C33.2059 45.5633 33.2588 45.5243 33.2508 45.4073C33.2483 45.3597 33.2483 45.312 33.2508 45.2644C33.2928 44.257 33.3208 43.2506 33.3778 42.2442C33.4527 40.9279 33.5477 39.6117 33.6396 38.2964C33.7486 36.7493 33.8115 35.1982 34.0234 33.6601C34.0574 33.4142 34.0844 33.1684 34.1114 32.9215C34.1184 32.8615 34.1433 32.7896 34.0684 32.7506C33.9104 32.6926 33.7605 32.6187 33.5946 32.5337ZM35.4596 32.075C35.7248 32.0885 35.9895 32.0391 36.2321 31.9311C36.5829 31.7731 36.9207 31.5923 37.0627 31.1925C37.0831 31.1395 37.1176 31.0932 37.1626 31.0586C37.252 30.9789 37.316 30.8746 37.3465 30.7587C37.5053 30.3368 37.5382 29.8778 37.4414 29.4375C37.1886 28.2941 36.535 27.4916 35.3896 27.1618C35.0367 27.0478 34.6586 27.0369 34.2998 27.1304C33.9409 27.2238 33.6162 27.4178 33.3638 27.6895C33.2115 27.8204 33.1088 27.9996 33.0729 28.1972C33.0572 28.3645 33.0024 28.5257 32.913 28.6679C32.8326 28.7857 32.7897 28.9251 32.7901 29.0677C32.769 29.4468 32.8242 29.8264 32.9525 30.1838C33.0807 30.5412 33.2794 30.8693 33.5367 31.1485C34.0434 31.7252 34.676 32.064 35.4596 32.075ZM33.6926 14.6659C33.5437 14.8443 33.427 15.0472 33.3478 15.2656C33.2478 15.5584 33.0739 15.7503 32.7091 15.7303C32.7961 15.7813 32.8601 15.8123 32.917 15.8533C33.002 15.9143 33.065 16.0012 33.0966 16.101C33.1281 16.2008 33.1264 16.3081 33.0919 16.4069C33.02 16.5848 32.8521 16.6698 32.6182 16.6448C32.5302 16.6358 32.4443 16.6138 32.3574 16.6058C32.2984 16.6058 32.2334 16.5678 32.1735 16.6308C32.1885 16.6888 32.2024 16.7507 32.2194 16.8117C32.3633 17.3114 32.5262 17.8031 32.6971 18.2939C33.1089 19.4772 33.5527 20.6505 33.8965 21.8558C34.0843 22.5085 34.2902 23.1551 34.5271 23.7907C34.6959 24.2397 34.8162 24.7054 34.8859 25.1799C34.908 25.3949 34.9619 25.6054 35.0458 25.8046C35.0688 25.8515 35.0728 25.9185 35.1527 25.9135C35.1692 25.8358 35.1633 25.7551 35.1358 25.6806C34.9359 24.5713 34.76 23.4589 34.636 22.3385C34.3652 19.861 34.0894 17.3834 33.7566 14.9128C33.7569 14.8264 33.7349 14.7413 33.6926 14.6659ZM32.1935 27.5206C32.0954 27.4961 31.9947 27.4836 31.8936 27.4836C31.225 27.4286 30.5554 27.3837 29.8948 27.2687C28.1388 26.9689 26.3697 26.763 24.6057 26.5231C24.5577 26.5072 24.5054 26.5101 24.4594 26.5313C24.4133 26.5524 24.3771 26.5902 24.3579 26.6371C24.219 26.8849 23.9461 26.9119 23.7263 26.728C23.6543 26.6681 23.6113 26.5761 23.5264 26.5351C23.3335 26.6581 23.2375 26.843 23.1366 27.0349C22.9647 27.3697 22.9697 27.7535 22.7998 28.0923C22.8408 28.0923 22.8728 28.0923 22.8997 28.0923C24.8496 27.9084 26.8085 27.9104 28.7624 27.8264C29.7908 27.7814 30.8222 27.8524 31.8526 27.8124C32.1135 27.8044 32.1135 27.8134 32.1935 27.5206ZM24.5278 28.9308C24.7177 29.1706 24.7107 29.4135 24.7367 29.6484C24.7477 29.7433 24.7547 29.8393 24.7617 29.9342C24.7876 30.271 24.7747 30.226 25.0615 30.1551C26.5676 29.7873 28.0448 29.3186 29.527 28.8648C29.562 28.8538 29.6269 28.8588 29.6209 28.7739C27.9399 28.7909 26.2568 28.8938 24.5278 28.9308ZM37.6813 38.7961C37.9322 38.6062 38.1421 38.4353 38.3649 38.2834C38.4719 38.2115 38.4649 38.1505 38.4229 38.0476C37.7046 36.4118 36.9877 34.7754 36.2721 33.1384C36.255 33.08 36.216 33.0306 36.1632 33.0005C36.1514 33.1248 36.1592 33.2503 36.1862 33.3722C36.2622 33.8775 36.3789 34.3758 36.535 34.8624C36.8768 35.9258 37.2396 36.9832 37.4994 38.0706C37.5544 38.3024 37.6143 38.5323 37.6813 38.7961ZM41.2523 32.4528L45.9086 35.4011C45.9322 35.3521 45.9358 35.2958 45.9186 35.2442C45.8846 34.9593 45.8187 34.6735 45.8646 34.3857C45.8846 34.2528 45.8486 34.2048 45.7257 34.1738C45.1229 34.0152 44.5318 33.8148 43.9567 33.5741C43.3281 33.3223 42.6925 33.0884 42.0698 32.8226C41.791 32.7046 41.5411 32.5187 41.2523 32.4528ZM44.4414 36.5304C44.5953 36.2096 44.6483 36.1747 44.9921 36.1377C45.0581 36.1307 45.135 36.1427 45.192 36.0577L40.2748 32.9475L40.2318 33.0035C41.683 34.1078 43.0123 35.3611 44.4414 36.5304ZM32.1165 22.5984C32.3454 23.0082 32.5542 23.3849 32.7661 23.7597C33.1429 24.4274 33.5237 25.093 33.9005 25.7586C33.9594 25.8585 34.0084 25.9725 34.0634 26.0794C34.0673 26.0908 34.0736 26.1012 34.082 26.1099C34.0903 26.1186 34.1005 26.1253 34.1117 26.1297C34.1229 26.1341 34.135 26.136 34.147 26.1352C34.159 26.1345 34.1707 26.1311 34.1813 26.1254C34.2213 26.1024 34.2093 26.0554 34.1933 26.0174C34.1146 25.8338 34.0563 25.6421 34.0194 25.4458C33.8375 24.4743 33.4197 23.5778 33.1489 22.6334C33.1319 22.5724 33.1049 22.5274 33.037 22.5334C32.7441 22.5594 32.4483 22.5324 32.1165 22.5984ZM38.7127 24.957C38.5874 24.8597 38.4536 24.7737 38.313 24.7002C38.1511 24.6092 38.148 24.6112 38.0611 24.7662C37.7093 25.3918 37.3578 26.0174 37.0067 26.6431C36.9854 26.6767 36.9663 26.7118 36.9497 26.748C36.9157 26.83 36.9857 26.859 37.0307 26.8999C37.0756 26.9409 37.1306 26.9319 37.1706 26.879C37.1996 26.841 37.2316 26.805 37.2615 26.768C37.7353 26.1883 38.161 25.5687 38.6817 25.026C38.6973 25.0051 38.7094 24.9818 38.7177 24.957H38.7127ZM30.2945 34.1188C30.7848 33.5145 31.2118 32.8614 31.5688 32.1699C31.169 32.5297 30.8462 32.9535 30.4584 33.3183C30.1256 33.6321 30.1306 33.6371 30.2635 34.0768C30.2705 34.0838 30.2775 34.0898 30.2995 34.1188H30.2945ZM42.2857 30.249H40.6326C40.6266 30.249 40.6206 30.256 40.6146 30.26C40.6169 30.2538 40.6195 30.2478 40.6226 30.242C40.7269 30.2807 40.8352 30.3075 40.9454 30.322C41.2912 30.373 41.6361 30.4309 41.9819 30.4889C42.2377 30.5319 42.2377 30.5339 42.2917 30.28C42.291 30.2695 42.289 30.2591 42.2857 30.249ZM30.9582 22.9922C31.1011 22.7083 31.1021 22.7063 30.8582 22.6184C30.8002 22.5827 30.7334 22.5637 30.6653 22.5634C30.7484 22.7158 30.8465 22.8594 30.9582 22.9922ZM31.9266 24.2574C31.8513 24.0871 31.7638 23.9224 31.6647 23.7647C31.6427 23.7228 31.6168 23.6708 31.5588 23.7038C31.5008 23.7367 31.5208 23.7957 31.5588 23.8427C31.6704 23.9904 31.7933 24.129 31.9266 24.2574ZM29.463 34.6515C29.4705 34.553 29.4393 34.4555 29.3761 34.3797C29.2667 34.4689 29.1701 34.5728 29.0892 34.6885L29.463 34.6515Z" fill="#4E3D35"/>
<path d="M26.8113 44.8036C26.8549 44.9926 26.9148 45.1775 26.9902 45.3563C27.0239 45.4372 27.051 45.5208 27.0712 45.6061C27.0924 45.6884 27.0869 45.7752 27.0554 45.8541C27.024 45.933 26.9682 45.9998 26.8963 46.0449C26.8264 46.0929 26.7434 46.1182 26.6586 46.1173C26.5738 46.1165 26.4914 46.0894 26.4225 46.0399C26.2871 45.9509 26.1901 45.8143 26.1507 45.6571C26.0797 45.4282 26.0148 45.1984 25.9448 44.9575C25.8279 44.9965 25.7729 45.0984 25.6959 45.1724C25.619 45.2463 25.571 45.3193 25.4961 45.3823C25.4152 45.4558 25.3102 45.497 25.2009 45.4982C25.0917 45.4993 24.9858 45.4603 24.9034 45.3885C24.821 45.3167 24.7679 45.2172 24.7541 45.1088C24.7402 45.0004 24.7667 44.8908 24.8284 44.8006C24.9325 44.6587 25.0537 44.5301 25.1892 44.4178C25.2652 44.3479 25.3441 44.2809 25.4221 44.2119C25.3871 44.123 25.2982 44.112 25.2362 44.069C25.0396 43.9424 24.8971 43.7472 24.8364 43.5213C24.8124 43.4402 24.8143 43.3536 24.8417 43.2736C24.8691 43.1935 24.9207 43.124 24.9894 43.0746C25.0573 43.0237 25.1399 42.9962 25.2247 42.9962C25.3096 42.9962 25.3921 43.0237 25.4601 43.0746C25.5267 43.1188 25.5878 43.1708 25.642 43.2295C25.7457 43.3293 25.8679 43.4077 26.0018 43.4604C26.1127 43.5103 26.1697 43.4863 26.2197 43.3714C26.4445 42.8507 26.6864 42.337 26.9083 41.8153C27.324 40.8379 27.6848 39.8374 28.1585 38.884C28.3075 38.5841 28.4644 38.2843 28.6293 37.9945C28.7942 37.7046 29.158 37.6706 29.3409 37.9255C29.3753 37.975 29.3991 38.0311 29.4106 38.0903C29.4221 38.1495 29.4212 38.2105 29.4078 38.2693C29.3973 38.3321 29.3784 38.3933 29.3519 38.4512C28.7292 39.7395 28.2455 41.0877 27.6808 42.4C27.4809 42.8557 27.274 43.2995 27.0732 43.7562C26.9892 43.9441 26.9932 43.9491 27.1881 43.9861C27.361 44.02 27.5349 44.045 27.7068 44.08C27.7859 44.0947 27.8602 44.1287 27.9231 44.1789C27.9861 44.2291 28.0357 44.294 28.0676 44.3678C28.1069 44.4384 28.1243 44.519 28.1176 44.5995C28.1108 44.68 28.0802 44.7566 28.0296 44.8196C27.9843 44.8817 27.9214 44.9287 27.8491 44.9546C27.7767 44.9804 27.6982 44.9839 27.6238 44.9645C27.398 44.9165 27.1731 44.8586 26.9472 44.8066C26.9261 44.7965 26.903 44.791 26.8796 44.7904C26.8562 44.7899 26.8329 44.7944 26.8113 44.8036Z" fill="#4E3D35"/>
<path d="M51.6646 28.9269C51.5894 28.9124 51.512 28.9124 51.4368 28.9269C50.7012 28.9579 49.9726 29.0499 49.238 29.1378C48.2306 29.2578 47.2232 29.3827 46.2108 29.4527C45.9109 29.4736 45.6221 29.5086 45.3273 29.5326C45.1447 29.5579 44.9592 29.5522 44.7786 29.5156C44.5287 29.4527 44.3918 29.2797 44.4158 29.0559C44.4398 28.832 44.6157 28.6851 44.8705 28.6911C45.3143 28.7021 45.741 28.5851 46.1778 28.5372C47.0033 28.4466 47.8292 28.3543 48.6554 28.2603C49.29 28.1894 49.9246 28.1134 50.5603 28.0454C50.8141 28.0175 51.07 28.0035 51.3248 27.9875C51.4128 27.9875 51.4587 27.9665 51.4787 27.8586C51.5477 27.4878 51.8945 27.3738 52.1783 27.6197C52.2448 27.6829 52.3078 27.7497 52.3672 27.8196C52.4956 27.7197 52.6157 27.6093 52.726 27.4898C52.803 27.4087 52.8852 27.3326 52.9719 27.2619C53.0562 27.1989 53.1606 27.1688 53.2656 27.1771C53.3705 27.1855 53.4688 27.2317 53.5422 27.3071C53.6156 27.3826 53.6591 27.4822 53.6645 27.5873C53.6698 27.6925 53.6368 27.796 53.5715 27.8785C53.4895 27.9769 53.3974 28.0663 53.2967 28.1454C53.2157 28.2124 53.2187 28.2693 53.2807 28.3453C53.3876 28.4742 53.4896 28.6081 53.5955 28.7381C53.6878 28.8397 53.7396 28.9716 53.7414 29.1088C53.7479 29.1932 53.7283 29.2775 53.6852 29.3502C53.6421 29.423 53.5776 29.4808 53.5006 29.5156C53.4278 29.5505 53.3463 29.5626 53.2665 29.5503C53.1868 29.538 53.1126 29.5019 53.0538 29.4467C52.9908 29.3859 52.9317 29.3211 52.8769 29.2528C52.8298 29.1765 52.77 29.1089 52.7 29.0529C52.6081 29.1858 52.5121 29.3167 52.4222 29.4527C52.3484 29.5779 52.2304 29.6709 52.0914 29.7135C52.0076 29.7418 51.9171 29.7438 51.8321 29.7194C51.7471 29.6949 51.6716 29.6451 51.6157 29.5766C51.5631 29.5101 51.5324 29.429 51.5277 29.3443C51.5231 29.2597 51.5447 29.1757 51.5897 29.1038C51.6127 29.0489 51.6756 29.0129 51.6646 28.9269Z" fill="#4E3D35"/>
<path d="M41.0023 17.5218C40.9204 17.5417 40.8384 17.5677 40.7535 17.5807C40.6726 17.5959 40.589 17.5865 40.5136 17.5535C40.4382 17.5206 40.3745 17.4657 40.3307 17.3961C40.287 17.3264 40.2652 17.2452 40.2682 17.163C40.2712 17.0807 40.2989 17.0013 40.3477 16.9351C40.4122 16.8478 40.495 16.7758 40.5903 16.724C40.6856 16.6722 40.7911 16.6419 40.8994 16.6353C41.0763 16.6123 41.0773 16.6113 41.0753 16.4354C41.0712 16.3557 41.0793 16.2758 41.0993 16.1985C41.1233 16.1091 41.1749 16.0294 41.2466 15.9708C41.3183 15.9122 41.4066 15.8775 41.499 15.8717C41.5915 15.8668 41.683 15.8915 41.7605 15.9422C41.8379 15.9929 41.8972 16.0669 41.9298 16.1535C41.9538 16.2115 41.9688 16.2745 41.9908 16.3464C42.0977 16.3014 42.1976 16.2565 42.3006 16.2165C42.406 16.1754 42.5183 16.1547 42.6314 16.1555C42.7321 16.1527 42.8307 16.1845 42.9107 16.2456C42.9907 16.3067 43.0474 16.3935 43.0711 16.4913C43.0929 16.5899 43.0794 16.693 43.033 16.7826C42.9866 16.8723 42.9103 16.9428 42.8173 16.9821C42.7233 17.025 42.6224 17.053 42.5175 17.09C42.5594 17.1899 42.6554 17.2249 42.7233 17.2899C42.8517 17.3868 42.9478 17.5202 42.9992 17.6727C43.0268 17.7566 43.0276 17.847 43.0015 17.9314C42.9753 18.0157 42.9235 18.0898 42.8533 18.1434C42.7798 18.2009 42.6885 18.2309 42.5952 18.2281C42.5019 18.2254 42.4126 18.1901 42.3426 18.1284C42.2546 18.0614 42.1806 17.9755 42.0977 17.9005C42.0569 17.8668 42.0142 17.8354 41.9698 17.8066C41.8928 17.9455 41.8219 18.0684 41.7579 18.1944C41.541 18.6221 41.3171 19.0459 41.1142 19.4796C40.7624 20.2322 40.3927 20.9788 39.9769 21.6954C39.9099 21.8133 39.858 21.9392 39.8 22.0622C39.6931 22.283 39.5072 22.376 39.2933 22.314C39.1929 22.2827 39.1078 22.215 39.0548 22.1242C39.0017 22.0335 38.9845 21.9261 39.0064 21.8233C39.0266 21.7131 39.0633 21.6066 39.1154 21.5075C39.733 20.2452 40.2877 18.9519 40.9503 17.7096C40.9753 17.6547 41.0323 17.6067 41.0023 17.5218Z" fill="#4E3D35"/>
<path d="M53.0663 17.4231C52.89 17.3347 52.7038 17.2676 52.5116 17.2232C52.4485 17.2141 52.3869 17.1963 52.3287 17.1702C52.2747 17.1432 52.2298 17.1011 52.1994 17.0488C52.169 16.9966 52.1546 16.9367 52.1578 16.8764C52.1579 16.8196 52.1741 16.764 52.2045 16.7161C52.235 16.6681 52.2784 16.6298 52.3297 16.6056C52.4373 16.5498 52.5624 16.538 52.6785 16.5726C52.8699 16.6285 53.0572 16.6973 53.2392 16.7785C53.2882 16.7984 53.3322 16.8454 53.4121 16.8124L53.4881 16.3807C53.5032 16.2619 53.5369 16.1462 53.588 16.0379C53.6227 15.9566 53.6878 15.8921 53.7694 15.8581C53.851 15.8241 53.9426 15.8233 54.0248 15.856C54.0677 15.873 54.1067 15.8984 54.1396 15.9307C54.1725 15.963 54.1986 16.0016 54.2163 16.0442C54.234 16.0868 54.2429 16.1325 54.2427 16.1786C54.2424 16.2248 54.2329 16.2703 54.2147 16.3127C54.1317 16.5295 54.0779 16.7564 54.0548 16.9873C54.3036 16.9713 54.5395 17.0153 54.7753 16.9494C54.9752 16.8924 55.1241 16.9574 55.1871 17.1253C55.2159 17.2089 55.2141 17.3001 55.1818 17.3825C55.1496 17.4649 55.0891 17.5331 55.0112 17.575C54.9029 17.6278 54.7824 17.6502 54.6624 17.64C54.5425 17.635 54.4225 17.632 54.3036 17.631C54.2916 17.631 54.2786 17.646 54.2536 17.664C54.3306 17.8069 54.4125 17.9508 54.4865 18.0987C54.5391 18.1971 54.5832 18.2997 54.6184 18.4055C54.6494 18.4805 54.6511 18.5643 54.6234 18.6405C54.5956 18.7167 54.5404 18.7798 54.4685 18.8173C54.3256 18.8883 54.1687 18.8383 54.0588 18.6734C54.0046 18.5849 53.9569 18.4928 53.9158 18.3975C53.8504 18.2354 53.7662 18.0814 53.665 17.9388C53.5859 17.9578 53.5126 17.9955 53.4511 18.0487C52.3377 18.7423 51.2903 19.5279 50.2469 20.3194C50.094 20.4354 49.9591 20.5703 49.7682 20.6193C49.7108 20.6387 49.6491 20.6411 49.5904 20.6262C49.5317 20.6113 49.4785 20.5797 49.4374 20.5353C49.3985 20.4946 49.3719 20.4437 49.3606 20.3886C49.3493 20.3334 49.3537 20.2762 49.3734 20.2235C49.4068 20.1419 49.4639 20.0723 49.5373 20.0236C50.6367 19.1521 51.7491 18.2906 52.9434 17.544C52.9924 17.516 53.0533 17.501 53.0663 17.4231Z" fill="#4E3D35"/>
<path d="M39.565 47.8136C39.7139 47.8905 39.8649 47.9525 39.9958 48.0374C40.062 48.0771 40.1108 48.1404 40.1325 48.2145C40.1541 48.2885 40.1471 48.3681 40.1127 48.4372C40.0814 48.5122 40.0224 48.5723 39.948 48.6051C39.8736 48.6378 39.7894 48.6407 39.7129 48.6131C39.6159 48.5765 39.5214 48.5334 39.4301 48.4842C39.3232 48.4332 39.2302 48.3533 39.1033 48.3433C39.0403 48.4282 39.0583 48.5272 39.0453 48.6201C39.0323 48.7131 39.0273 48.812 39.0063 48.905C38.993 48.989 38.9472 49.0644 38.8788 49.1148C38.8103 49.1653 38.7247 49.1869 38.6405 49.1748C38.5986 49.17 38.558 49.1569 38.5212 49.1362C38.4844 49.1155 38.452 49.0877 38.4261 49.0544C38.4001 49.0211 38.381 48.9829 38.37 48.9422C38.3589 48.9014 38.3561 48.8589 38.3617 48.817C38.3767 48.6101 38.4157 48.4052 38.4457 48.2004C38.4507 48.1604 38.4597 48.1214 38.4676 48.0824C38.4896 47.9895 38.4746 47.9325 38.3597 47.9225C38.2832 47.9175 38.2093 47.8928 38.1452 47.8508C38.0811 47.8087 38.029 47.7508 37.9939 47.6826C37.862 47.4398 38.0009 47.2079 38.2778 47.2069C38.3167 47.2069 38.3557 47.2269 38.3987 47.1979C38.3945 47.168 38.3875 47.1385 38.3777 47.11C38.0099 46.2345 37.836 45.311 37.6601 44.3825C37.5442 43.7709 37.4482 43.1562 37.3423 42.5426C37.3181 42.4326 37.3264 42.318 37.3663 42.2128C37.3875 42.1519 37.4275 42.0993 37.4805 42.0625C37.5334 42.0257 37.5966 42.0066 37.6611 42.0079C37.7256 42.008 37.7883 42.0288 37.8399 42.0673C37.8916 42.1059 37.9295 42.16 37.9479 42.2218C37.9628 42.259 37.9729 42.2979 37.9779 42.3377C38.0619 43.0853 38.2778 43.8069 38.4047 44.5454C38.4946 45.0646 38.6117 45.5787 38.7555 46.0856C38.8747 46.4812 39.0234 46.8674 39.2002 47.2409C39.3736 47.1649 39.5407 47.0753 39.6999 46.9731C39.7805 46.9213 39.8654 46.8768 39.9538 46.8401C40.0284 46.8086 40.1122 46.8065 40.1882 46.8344C40.2643 46.8622 40.3269 46.9178 40.3636 46.99C40.3972 47.0581 40.4052 47.1361 40.3859 47.2096C40.3666 47.283 40.3214 47.347 40.2586 47.3898C40.0945 47.5042 39.921 47.6045 39.7399 47.6896C39.6714 47.7143 39.611 47.7571 39.565 47.8136Z" fill="#4E3D35"/>
<path d="M71.9407 27.665C71.8105 27.5269 71.7125 27.3617 71.6539 27.1813C71.6127 27.0339 71.6277 26.8765 71.6958 26.7395C71.7174 26.6782 71.7583 26.6255 71.8124 26.5895C71.8664 26.5534 71.9308 26.5359 71.9957 26.5396C72.0565 26.5411 72.115 26.5627 72.1622 26.601C72.2094 26.6394 72.2426 26.6923 72.2565 26.7515C72.2675 26.7885 72.2725 26.8305 72.3125 26.8514C72.4504 26.6775 72.5873 26.5026 72.7272 26.3297C72.7854 26.2531 72.8581 26.1885 72.9411 26.1399C73.0088 26.0959 73.0902 26.0779 73.1701 26.0893C73.2501 26.1007 73.3232 26.1407 73.3759 26.2018C73.4281 26.2635 73.4556 26.3424 73.4532 26.4232C73.4508 26.504 73.4186 26.581 73.3629 26.6396C73.249 26.7735 73.12 26.8944 73.0081 27.0293C72.8082 27.2722 72.8082 27.2802 73.118 27.3661C73.2789 27.4111 73.4448 27.4361 73.6098 27.4661C73.6647 27.4735 73.7191 27.4845 73.7727 27.4991C73.8508 27.5195 73.9189 27.5677 73.9641 27.6347C74.0093 27.7016 74.0287 27.7827 74.0185 27.8629C74.0052 27.9471 73.9593 28.0228 73.8906 28.0735C73.822 28.1241 73.7362 28.1458 73.6517 28.1337C73.4524 28.1184 73.2558 28.0788 73.0661 28.0158C72.9661 27.9828 72.8662 27.9458 72.7662 27.9158C72.6513 27.8849 72.5943 27.9368 72.6223 28.0508C72.6473 28.1347 72.6781 28.2168 72.7143 28.2966C72.7526 28.3759 72.776 28.4617 72.7832 28.5495C72.7888 28.6062 72.7778 28.6633 72.7513 28.7138C72.7248 28.7643 72.6842 28.8059 72.6343 28.8335C72.5845 28.8612 72.5276 28.8736 72.4708 28.8693C72.4139 28.865 72.3596 28.8442 72.3145 28.8093C72.2356 28.7423 72.1716 28.6596 72.1266 28.5665C72.0466 28.5665 72.0177 28.6344 71.9787 28.6804C71.393 29.388 70.8193 30.1056 70.2876 30.8552C70.2526 30.918 70.2033 30.9717 70.1437 31.0121C70.0955 31.041 70.0401 31.0557 69.9839 31.0546C69.9277 31.0536 69.873 31.0367 69.8259 31.0061C69.7741 30.9744 69.7335 30.9272 69.7099 30.8713C69.6862 30.8154 69.6807 30.7535 69.694 30.6942C69.7217 30.5773 69.7754 30.468 69.8509 30.3744C70.4423 29.4724 71.0987 28.6146 71.8148 27.8079C71.8547 27.7669 71.8897 27.7239 71.9407 27.665Z" fill="#4E3D35"/>
<path d="M66.6177 19.2418C66.7306 19.2209 66.8373 19.1744 66.9295 19.1059C66.9678 19.0769 67.0079 19.0502 67.0494 19.026C67.1046 18.9932 67.1689 18.979 67.2328 18.9855C67.2966 18.9919 67.3568 19.0188 67.4042 19.0619C67.4506 19.1069 67.4811 19.1656 67.4914 19.2294C67.5017 19.2931 67.4911 19.3585 67.4612 19.4157C67.4033 19.5504 67.296 19.6577 67.1614 19.7156C67.0465 19.7695 66.9255 19.8155 66.8076 19.8605C66.7215 19.8858 66.6396 19.9239 66.5647 19.9734C66.6389 20.0785 66.7262 20.1735 66.8246 20.2563C66.8922 20.3129 66.9447 20.3853 66.9775 20.4671C67.0024 20.5264 67.0084 20.5919 66.9946 20.6547C66.9808 20.7175 66.948 20.7745 66.9005 20.8179C66.851 20.859 66.7894 20.8828 66.7252 20.8855C66.6609 20.8882 66.5975 20.8697 66.5447 20.8329C66.4759 20.7918 66.4139 20.7402 66.3608 20.68C66.1939 20.4801 65.9611 20.3272 65.8761 20.0654C65.8481 19.9844 65.7872 20.0184 65.7362 20.0284C65.3434 20.1023 64.9516 20.1743 64.5609 20.2553C64.2325 20.3232 63.9004 20.3723 63.5664 20.4022C63.4317 20.4134 63.298 20.4352 63.1667 20.4671C63.0619 20.4874 62.954 20.4846 62.8504 20.4589C62.7468 20.4332 62.6501 20.3852 62.567 20.3182C62.5327 20.29 62.5055 20.254 62.4877 20.2133C62.4698 20.1725 62.4619 20.1282 62.4644 20.0838C62.4669 20.0394 62.4799 19.9962 62.5022 19.9577C62.5246 19.9193 62.5557 19.8867 62.593 19.8625C62.6351 19.8246 62.6847 19.7961 62.7387 19.7789C62.7926 19.7617 62.8496 19.7561 62.9058 19.7625C63.2056 19.8205 63.4955 19.7625 63.7833 19.7076C64.318 19.6146 64.8487 19.5027 65.3824 19.3968C65.4132 19.3893 65.4436 19.3799 65.4733 19.3688C65.3424 19.0879 65.3434 18.955 65.4733 18.8501C65.6033 18.7451 65.7542 18.7771 66.014 18.986C66.095 18.8201 66.1719 18.6562 66.2539 18.4943C66.3198 18.3396 66.411 18.1971 66.5237 18.0725C66.6577 17.9406 66.8056 17.9176 66.9345 18.0055C66.9933 18.048 67.0355 18.1097 67.0538 18.1799C67.072 18.2502 67.0652 18.3246 67.0345 18.3903C66.9715 18.5812 66.8476 18.7421 66.7616 18.921C66.698 19.0202 66.6495 19.1283 66.6177 19.2418Z" fill="#4E3D35"/>
<path d="M60.9087 33.563C60.9507 33.431 60.9837 33.3151 61.0247 33.2032C61.0636 33.089 61.1327 32.9875 61.2245 32.9093C61.2739 32.8613 61.3383 32.8316 61.4069 32.8254C61.4755 32.8192 61.5442 32.8369 61.6013 32.8754C61.6581 32.9136 61.7001 32.9702 61.7203 33.0357C61.7405 33.1011 61.7377 33.1715 61.7123 33.2352C61.6793 33.3351 61.6303 33.4261 61.5963 33.524C61.5821 33.5465 61.5729 33.5718 61.5694 33.5982C61.566 33.6247 61.5683 33.6515 61.5763 33.6769C61.6944 33.6423 61.8083 33.5951 61.9161 33.536C61.9947 33.498 62.0755 33.4646 62.158 33.436C62.2191 33.4147 62.2855 33.4141 62.3469 33.4343C62.4083 33.4546 62.4614 33.4945 62.4978 33.548C62.5372 33.6044 62.556 33.6726 62.5511 33.7412C62.5462 33.8098 62.5179 33.8746 62.4708 33.9248C62.3984 34.0107 62.3062 34.0776 62.202 34.1197C62.078 34.1596 61.96 34.2161 61.8512 34.2876C61.8722 34.3295 61.8962 34.3715 61.9131 34.4145C61.9402 34.4688 61.9493 34.5302 61.9393 34.59C61.9292 34.6498 61.9005 34.7049 61.8572 34.7473C61.8157 34.7915 61.7614 34.8217 61.7019 34.8335C61.6424 34.8453 61.5807 34.8382 61.5254 34.8133C61.3915 34.7633 61.2555 34.7133 61.1256 34.6504C61.0958 34.6304 61.0605 34.6202 61.0247 34.6213C60.9889 34.6224 60.9543 34.6346 60.9257 34.6564C60.3531 35.0201 59.7754 35.3779 59.2017 35.7417C59.0167 35.8526 58.8421 35.9801 58.68 36.1225C58.5291 36.2634 58.3532 36.2664 58.2313 36.1475C58.1094 36.0286 58.1064 35.8537 58.2363 35.6938C58.3647 35.5507 58.5116 35.4253 58.673 35.321C59.1997 34.9452 59.7304 34.5754 60.2871 34.2426C60.465 34.1366 60.463 34.1336 60.381 33.9567C60.2991 33.7799 60.3021 33.6389 60.408 33.537C60.514 33.435 60.6319 33.431 60.8228 33.532C60.8508 33.54 60.8728 33.548 60.9087 33.563Z" fill="#4E3D35"/>
</svg>
