<svg width="84" height="84" viewBox="0 0 84 84" fill="none" xmlns="http://www.w3.org/2000/svg">
<g clip-path="url(#clip0)">
<path d="M84.5687 53.34C83.9192 53.3609 83.271 53.3782 82.6216 53.4015L74.2713 53.7164C73.8679 53.7324 73.8679 53.7361 73.8654 54.1346C73.8531 56.6036 73.84 59.0729 73.8261 61.5427V61.9031C73.9712 61.9425 74.0782 61.8539 74.1951 61.8109C74.8554 61.5453 75.5729 61.4542 76.2786 61.5464C76.6968 61.6109 77.1085 61.7126 77.5086 61.8502C77.9772 62.0003 78.4631 62.0962 78.9231 62.261C79.3413 62.4111 79.7164 62.3582 80.1112 62.2168C80.9214 61.9338 81.7776 61.8057 82.6352 61.8392C82.7434 61.8338 82.8516 61.8496 82.9537 61.8859C83.0596 61.9282 83.1494 62.0028 83.2103 62.099C83.2713 62.1953 83.3003 62.3084 83.2932 62.4222C83.2897 62.5322 83.2525 62.6384 83.1864 62.7265C83.1204 62.8145 83.0288 62.8801 82.9242 62.9142C82.8013 62.9501 82.6733 62.9655 82.5454 62.9597C81.856 62.9445 81.1677 63.024 80.4999 63.1958C80.3767 63.2284 80.2575 63.2746 80.1445 63.3336C79.9034 63.4451 79.6443 63.5126 79.3794 63.5328C79.3106 63.5346 79.242 63.5229 79.1777 63.4984C78.3007 63.245 77.4274 62.9793 76.5468 62.7383C75.8073 62.5438 75.0245 62.597 74.3181 62.8896C73.9577 63.0228 73.5806 63.1056 73.1976 63.1356C72.9196 63.1626 72.6305 63.1356 72.3464 63.1356L56.7946 63.4455C56.706 63.4455 56.6175 63.4455 56.5289 63.4455C56.2436 63.4455 56.0234 63.352 55.9447 63.0568C55.9127 62.9412 55.8217 62.9068 55.7356 62.8699C55.4676 62.7659 55.1738 62.7487 54.8955 62.8207C54.2904 62.9535 53.6877 63.0937 53.0825 63.2266C52.2996 63.3803 51.5 63.432 50.7038 63.3803C50.6319 63.3823 50.5604 63.3701 50.4933 63.3443C50.4262 63.3186 50.3649 63.2799 50.3128 63.2304C50.2607 63.181 50.2189 63.1217 50.1897 63.056C50.1605 62.9903 50.1446 62.9196 50.1429 62.8477C50.1318 62.539 50.3532 62.3029 50.6902 62.2672C50.7393 62.2629 50.7887 62.2629 50.8378 62.2672C51.8403 62.3373 52.8181 62.1823 53.7898 61.9363C54.1313 61.845 54.4779 61.774 54.8279 61.7235C55.2001 61.678 55.5777 61.7137 55.9348 61.8281C55.9348 61.5169 55.9435 61.234 55.9348 60.9499C55.8528 58.6679 55.7708 56.3867 55.6888 54.1063C55.6888 54.0374 55.679 53.9685 55.6802 53.8997C55.6802 53.7914 55.6409 53.7349 55.524 53.7447C55.4551 53.7508 55.3863 53.7447 55.3174 53.7447L36.8678 53.9292L24.766 54.0522C24.7251 54.0549 24.684 54.0549 24.643 54.0522C24.5422 54.0411 24.4967 54.0817 24.5053 54.1838C24.5053 54.2133 24.5053 54.2428 24.5053 54.2724L24.5975 61.4739C24.5925 61.5006 24.5932 61.5282 24.5995 61.5547C24.6059 61.5812 24.6178 61.606 24.6344 61.6276C24.7193 61.6387 24.7845 61.5673 24.8558 61.5292C25.6024 61.1282 26.3773 61.0188 27.1928 61.2832C27.4388 61.3632 27.6848 61.437 27.9148 61.5378C28.403 61.7507 28.9321 61.8536 29.4645 61.8392C29.6613 61.8392 29.8581 61.833 30.0549 61.8392C30.1741 61.8368 30.2907 61.8742 30.3863 61.9455C30.4818 62.0167 30.5509 62.1178 30.5826 62.2328C30.6092 62.3489 30.5974 62.4705 30.5491 62.5794C30.5007 62.6882 30.4184 62.7785 30.3144 62.8367C30.1893 62.917 30.0437 62.9597 29.895 62.9597C29.0513 62.983 28.2247 62.9105 27.4461 62.5476C27.2918 62.4828 27.1341 62.4262 26.9738 62.3779C26.6545 62.2562 26.3095 62.2177 25.9713 62.2661C25.633 62.3145 25.3126 62.4482 25.0403 62.6546C24.7202 62.8983 24.3349 63.0412 23.9333 63.0654C23.7279 63.0802 23.5213 63.1097 23.3183 63.111C19.1168 63.1442 14.9164 63.186 10.7148 63.1995C9.42823 63.1995 8.14291 63.1712 6.85758 63.2143C6.6817 63.2143 6.50581 63.2143 6.3287 63.2143C6.06342 63.2168 5.80087 63.1605 5.55996 63.0495C4.88224 62.7592 4.2279 62.7284 3.57109 63.1651C3.29026 63.3585 2.97215 63.4913 2.6371 63.5548C2.30205 63.6184 1.95743 63.6113 1.62527 63.5341C1.20756 63.4278 0.780275 63.3635 0.349784 63.3422C0.275387 63.3435 0.201522 63.3294 0.132782 63.3009C0.064042 63.2725 0.0018979 63.2301 -0.0497855 63.1766C-0.101469 63.1231 -0.141586 63.0595 -0.167643 62.9898C-0.193699 62.9201 -0.205137 62.8458 -0.201245 62.7715C-0.19176 62.6272 -0.12678 62.4921 -0.0199271 62.3947C0.086926 62.2972 0.227355 62.2449 0.371923 62.2487C0.686672 62.2287 1.00247 62.2653 1.30425 62.357C1.61053 62.4657 1.92903 62.5363 2.25256 62.5673C2.38917 62.5763 2.524 62.5323 2.62893 62.4443C3.41488 61.8884 4.25865 61.5378 5.24878 61.801C5.52858 61.8585 5.79755 61.9598 6.0458 62.1011C6.13599 62.1619 6.24207 62.1949 6.35083 62.1959C6.60421 62.1959 6.62881 62.1676 6.61651 61.9093C6.52467 59.9634 6.43324 58.0176 6.34223 56.0718C6.32255 55.6503 6.30246 55.2276 6.28196 54.8037C6.27212 54.5823 6.27089 54.5786 6.04826 54.5786H-0.329163V53.4569H6.10115C6.19094 53.4569 6.22415 53.4126 6.21185 53.3265C6.19832 53.1506 6.18971 52.9735 6.17987 52.7964C6.17987 52.7275 6.1442 52.6894 6.0704 52.6894H5.83425L0.614229 52.6808C0.299355 52.6808 -0.0142888 52.6808 -0.329163 52.6881V51.5664H6.10484C6.27157 51.5652 6.43824 51.5726 6.60421 51.5885C7.0962 51.6377 7.25241 51.7841 7.27578 52.2589C7.35778 54.0276 7.43977 55.7963 7.52177 57.565C7.58204 58.9401 7.68044 60.314 7.70135 61.6916C7.70135 61.8674 7.83541 61.9917 7.92151 62.127C7.97317 62.2081 8.10724 62.1553 8.20318 62.1528C8.84153 62.1356 9.47989 62.1011 10.1182 62.095C11.9632 62.0765 13.7983 62.0692 15.6372 62.0556C15.893 62.0556 15.893 62.0556 15.8967 61.7973V61.7088C15.9188 56.9086 15.9397 52.108 15.9594 47.307C15.9621 47.0221 15.9905 46.7381 16.0443 46.4583C16.1132 46.0992 16.1894 45.7388 16.4133 45.4153C17.9618 43.162 19.4882 40.8988 21.0318 38.6381L29.3526 26.4146C29.3747 26.4146 29.387 26.4036 29.3895 26.3814C29.4203 26.3482 29.4719 26.3015 29.4252 26.267C29.3784 26.2326 29.3538 26.2879 29.3415 26.3322C29.0771 26.6483 28.8114 26.962 28.5482 27.2781C23.5619 33.2992 18.5752 39.3195 13.588 45.339C13.4995 45.4448 13.3937 45.5346 13.3051 45.6392C13.0333 45.9553 12.6704 46.1668 12.3765 46.4559C12.3015 46.5312 12.2111 46.5894 12.1116 46.6265C12.012 46.6637 11.9056 46.6789 11.7996 46.6711C11.0715 46.6637 10.3433 46.6797 9.61642 46.6859L-0.329163 46.7867V45.665C0.831934 45.6576 1.99303 45.6539 3.1529 45.6416C5.98184 45.6146 8.80095 45.5801 11.6237 45.5592C11.7404 45.5665 11.8569 45.5428 11.9615 45.4905C12.066 45.4382 12.1549 45.3592 12.219 45.2616C12.8623 44.4412 13.5413 43.6491 14.2067 42.8459C18.9306 37.1445 23.6554 31.4411 28.3809 25.7357C28.456 25.6459 28.5273 25.5537 28.6109 25.4491C28.4412 25.3077 28.2801 25.1797 28.1189 25.0469C27.6934 24.6841 27.226 24.3692 26.8336 23.9658C26.7638 23.9115 26.682 23.8748 26.595 23.8587C26.1252 23.6964 25.9185 23.3188 26.0686 22.8981C26.1031 22.7879 26.1595 22.6857 26.2344 22.5977C26.3093 22.5097 26.4011 22.4377 26.5044 22.386C26.6077 22.3342 26.7203 22.3038 26.8356 22.2965C26.951 22.2891 27.0666 22.3051 27.1756 22.3434C27.3155 22.3959 27.4351 22.4915 27.5171 22.6164C27.5991 22.7413 27.6393 22.8891 27.6319 23.0384C27.6298 23.1005 27.6435 23.1622 27.6716 23.2177C27.6998 23.2732 27.7416 23.3207 27.793 23.3557C28.3539 23.805 28.9115 24.256 29.4658 24.7087C29.5494 24.7763 29.6613 24.8415 29.6945 24.9325C29.7794 25.1625 29.9565 25.1785 30.1558 25.2068C31.2628 25.3298 32.3636 25.4602 33.4669 25.5881L34.2577 25.6803C34.3918 25.6951 34.5259 25.7062 34.6612 25.7197C34.6759 25.6078 34.5935 25.5869 34.5468 25.5475C34.0646 25.1428 33.5788 24.7419 33.0954 24.3384C33.0056 24.2624 32.9008 24.2058 32.7879 24.1724C32.4275 24.0629 32.3218 23.9104 32.2959 23.5328C32.2718 23.3368 32.3012 23.1379 32.3808 22.9572C32.43 22.8546 32.5006 22.7637 32.5878 22.6907C32.675 22.6176 32.7768 22.564 32.8864 22.5335C32.996 22.503 33.1109 22.4962 33.2233 22.5137C33.3357 22.5312 33.4431 22.5725 33.5382 22.6349C33.7535 22.7727 33.8875 22.9707 33.8469 23.2265C33.81 23.459 33.9121 23.582 34.0757 23.7185C34.7928 24.3015 35.5 24.8968 36.2122 25.4872C36.377 25.6225 36.5123 25.7714 36.5184 26.0001C36.5207 26.0397 36.5326 26.0781 36.5529 26.1121C36.762 26.4675 36.6931 26.7959 36.4914 27.1366C32.5087 33.8605 28.5273 40.5844 24.5471 47.3082C24.4386 47.4921 24.3868 47.7039 24.3983 47.9171C24.4278 49.4705 24.445 51.0252 24.4671 52.5799C24.4671 52.6488 24.4671 52.7177 24.4671 52.7865C24.4671 52.8849 24.5028 52.9268 24.6061 52.9243C24.8128 52.9243 25.0194 52.9243 25.2211 52.9243L41.9562 52.7533C46.4021 52.7091 50.8489 52.6681 55.2965 52.6303C55.6569 52.6303 55.615 52.6574 55.6027 52.3155C55.5322 50.4172 55.4625 48.5198 55.3937 46.6231C55.3863 46.3968 55.3813 46.1693 55.3937 45.9442C55.3923 45.8066 55.3621 45.6709 55.3051 45.5457C54.3383 42.7831 53.3695 40.0206 52.3987 37.2581C50.9088 32.9819 49.4168 28.7069 47.9228 24.4331C47.8871 24.3311 47.8502 24.229 47.8244 24.1244C47.8005 24.049 47.7935 23.9693 47.8037 23.8909C47.814 23.8125 47.8413 23.7373 47.8837 23.6706C47.9262 23.6039 47.9827 23.5473 48.0494 23.5048C48.1161 23.4623 48.1912 23.4349 48.2696 23.4246C48.415 23.4127 48.5541 23.3598 48.6706 23.272C48.7029 23.2496 48.7392 23.2337 48.7776 23.2253C49.566 23.0076 50.2954 22.646 51.0408 22.3213C51.415 22.169 51.7793 21.9936 52.1318 21.7961C52.1829 21.7697 52.2282 21.733 52.2646 21.6883C52.301 21.6437 52.3278 21.592 52.3433 21.5366C52.4528 21.1799 52.7123 20.9917 53.0321 21.0003C53.2297 21.0126 53.4187 21.085 53.5741 21.2076C53.7295 21.3302 53.8438 21.4973 53.9017 21.6866C53.934 21.8469 53.9145 22.0132 53.8462 22.1618C53.778 22.3103 53.6643 22.4333 53.5216 22.5132C53.3689 22.6045 53.1953 22.6553 53.0173 22.6607C52.9497 22.6607 52.8783 22.6411 52.8144 22.6804C52.5512 22.8416 52.2769 22.9855 52.0038 23.1613C52.4749 23.2167 52.946 23.2733 53.4171 23.3262L57.3751 23.7653C57.7017 23.8131 58.035 23.7604 58.3308 23.614C59.0024 23.2671 59.6986 22.967 60.3874 22.6546C60.446 22.6333 60.4981 22.5971 60.5386 22.5497C60.5791 22.5023 60.6067 22.4452 60.6186 22.384C60.7477 21.8785 61.0761 21.6694 61.5534 21.7616C61.7809 21.7923 61.987 21.9116 62.1269 22.0936C62.2668 22.2757 62.329 22.5056 62.3 22.7333C62.2409 23.2819 61.8769 23.6103 61.3271 23.582C61.1318 23.5732 60.9376 23.6156 60.7637 23.705C60.134 24.0063 59.5005 24.2966 58.8683 24.5943C58.567 24.7357 58.6223 24.7173 58.7367 24.9485C61.0573 29.6273 63.3807 34.3074 65.707 38.9887L68.4043 44.4301C68.4572 44.5359 68.504 44.6441 68.5556 44.7499C68.5999 44.836 68.5421 44.9639 68.638 45.0192C68.734 45.0746 68.8508 45.0365 68.9578 45.0352L77.4274 44.8999L84.2452 44.7929C84.3534 44.7929 84.4604 44.7819 84.5687 44.7769V45.8987C82.513 45.9348 80.4577 45.9708 78.4028 46.0069C73.7125 46.0815 69.0218 46.1557 64.3307 46.2295C63.1118 46.2505 61.8916 46.2406 60.6727 46.2935C60.4833 46.3021 60.273 46.3033 60.145 46.1582C59.9286 45.9122 59.6703 45.7117 59.5153 45.3981C56.1845 38.6742 52.8464 31.9524 49.5008 25.2326C49.4421 25.0199 49.339 24.8221 49.1983 24.6521C49.222 24.8806 49.2918 25.102 49.4037 25.3027C49.4147 25.3298 49.4283 25.3556 49.4381 25.3839C50.5951 28.6844 51.7521 31.9844 52.9091 35.284C54.0817 38.6312 55.2538 41.9779 56.4256 45.3243C56.483 45.4389 56.5133 45.5651 56.5142 45.6933C56.4982 45.9675 56.5031 46.2426 56.5289 46.5161C56.5683 47.8137 56.615 49.1114 56.6618 50.409C56.7331 52.3843 56.8053 54.3601 56.8782 56.3363C56.9446 58.1952 57.0098 60.0532 57.0738 61.9105C57.068 62.0384 57.0809 62.1664 57.1119 62.2906C57.2168 62.3199 57.3267 62.3262 57.4342 62.309L66.3749 62.1319C66.6135 62.1319 66.6209 62.1257 66.611 61.8859C66.5938 61.0208 66.575 60.1553 66.5545 59.2894L66.3884 51.9096C66.381 51.7818 66.381 51.6536 66.3884 51.5258C66.3908 51.4516 66.4086 51.3787 66.4406 51.3117C66.4727 51.2448 66.5184 51.1852 66.5747 51.1369C66.631 51.0885 66.6968 51.0524 66.7679 51.0308C66.8389 51.0093 66.9137 51.0028 66.9874 51.0117C67.2623 51.0308 67.5382 51.0283 67.8127 51.0043C69.836 50.8899 71.863 50.8813 73.8876 50.7989C76.2946 50.6968 78.7054 50.655 81.1149 50.5886C82.2629 50.5582 83.4133 50.5287 84.5662 50.5V51.6218C84.4777 51.6218 84.3891 51.6218 84.3018 51.6218C80.9792 51.7128 77.6583 51.8038 74.339 51.8948C74.1938 51.8948 74.0056 51.8431 73.9146 51.9379C73.8236 52.0326 73.8802 52.238 73.8777 52.3942C73.8777 52.6143 73.8777 52.6156 74.1065 52.607L80.7951 52.3511C82.0534 52.3032 83.3104 52.2601 84.5675 52.2146L84.5687 53.34ZM50.2425 24.1195C50.2362 24.2034 50.2612 24.2866 50.3126 24.3532C50.5057 24.7505 50.6988 25.149 50.8956 25.545C52.5758 28.9267 54.2567 32.3083 55.9385 35.6899C57.2661 38.3573 58.594 41.0247 59.9224 43.6921C60.1327 44.1152 60.3505 44.5334 60.5497 44.9614C60.5687 45.0271 60.6115 45.0832 60.6698 45.1189C60.728 45.1547 60.7975 45.1674 60.8646 45.1545C60.9432 45.1502 61.0221 45.1502 61.1007 45.1545L66.028 45.0844C66.4216 45.0844 66.8152 45.0844 67.2088 45.0734C67.2814 45.0734 67.365 45.1004 67.4413 45.0217C67.4007 44.9331 67.365 44.8446 67.3183 44.7585C66.4327 42.9701 65.5463 41.1813 64.6591 39.3921L61.0823 32.1746C59.9114 29.8131 58.7416 27.4515 57.5732 25.09C57.549 25.0268 57.5061 24.9725 57.4503 24.9343C57.3945 24.896 57.3284 24.8757 57.2608 24.8759C56.8389 24.8427 56.4195 24.7898 56 24.7431L53.5401 24.4651C52.7603 24.3753 51.9805 24.2782 51.2031 24.2007C50.8809 24.1687 50.5648 24.0863 50.2425 24.1195ZM17.4305 46.3821C17.5041 46.4272 17.5906 46.4466 17.6765 46.4374L18.6174 46.5087L21.4697 46.7375C22.0564 46.7855 22.6456 46.8261 23.231 46.8888C23.3151 46.9079 23.4032 46.8969 23.48 46.8578C23.5569 46.8188 23.6176 46.754 23.6517 46.6748C24.2408 45.6527 24.846 44.6392 25.4462 43.6245L29.7597 36.3381L33.7264 29.6409C34.2184 28.8119 34.7104 27.9824 35.2024 27.1526C35.3118 26.9657 35.2946 26.9263 35.1027 26.9066C34.5357 26.8414 33.9699 26.7836 33.4029 26.7172C32.6317 26.6287 31.8605 26.5462 31.0906 26.4442C30.8249 26.4085 30.5986 26.4036 30.5125 26.7135C30.5125 26.732 30.4903 26.7455 30.4793 26.7615C29.6855 27.9234 28.893 29.0853 28.1017 30.2472C26.4724 32.6309 24.8447 35.0187 23.2187 37.4106C21.4107 40.0698 19.6005 42.7278 17.7884 45.3845C17.5694 45.7019 17.5461 46.0549 17.4305 46.3833V46.3821ZM17.0196 55.2108V61.6657C17.0196 61.7346 17.0196 61.8035 17.0196 61.8724C17.0196 61.9818 17.0639 62.036 17.1759 62.0323H17.3234C19.2324 62.0232 21.1413 62.0146 23.0502 62.0064C23.1388 62.0064 23.2261 61.9954 23.3147 61.9917C23.3394 61.9938 23.3643 61.9901 23.3873 61.9809C23.4103 61.9716 23.4308 61.957 23.4471 61.9383C23.4634 61.9196 23.4751 61.8973 23.4811 61.8732C23.4872 61.8492 23.4875 61.824 23.4819 61.7998C23.4819 61.7309 23.4819 61.662 23.4819 61.5932C23.4573 60.3939 23.4721 59.1935 23.434 57.9943C23.3885 56.49 23.4094 54.9845 23.3725 53.479C23.3294 51.757 23.3233 50.0351 23.3011 48.3131C23.3011 48.0142 23.3011 48.0142 22.9936 47.9773H22.9641L21.1684 47.8445C20.5607 47.7986 19.9531 47.7523 19.3455 47.7055C18.7084 47.6551 18.0725 47.5973 17.4354 47.5518C17.1648 47.5309 17.1131 47.5825 17.0836 47.8531C17.0805 47.9121 17.0805 47.9712 17.0836 48.0302C17.0688 50.3044 17.0873 52.5762 17.0196 55.2121V55.2108ZM72.7117 57.0275H72.7265C72.7265 56.8012 72.7203 56.5749 72.7265 56.3498C72.7769 54.9636 72.7461 53.5774 72.7572 52.1912C72.7572 51.9858 72.7498 51.9784 72.5371 51.9834C72.066 51.992 71.5949 52.0117 71.1226 52.0227C70.0414 52.0461 68.9603 52.0584 67.8791 52.0436C67.4769 52.0436 67.5101 51.9994 67.5101 52.3979C67.5101 52.6537 67.5372 52.9083 67.5434 53.1629C67.5679 54.0866 67.5581 55.0079 67.6012 55.934C67.6418 56.8086 67.6221 57.6831 67.6565 58.5576C67.6983 59.6277 67.6799 60.7002 67.7266 61.7715C67.7401 62.0901 67.7328 62.0901 68.0538 62.0876H68.1423L72.4177 62.0138H72.5653C72.585 62.0174 72.6052 62.0161 72.6242 62.0101C72.6432 62.0041 72.6605 61.9935 72.6745 61.9794C72.6886 61.9652 72.6989 61.9478 72.7048 61.9288C72.7106 61.9097 72.7117 61.8895 72.708 61.8699C72.708 61.801 72.708 61.7322 72.708 61.6633C72.7113 60.1176 72.7125 58.5728 72.7117 57.0287V57.0275ZM49.1663 24.5832C49.1626 24.5914 49.1605 24.6001 49.1601 24.609C49.1675 24.6398 49.1798 24.6398 49.1897 24.609C49.1904 24.6047 49.1902 24.6003 49.1891 24.5961C49.1881 24.5919 49.1862 24.5879 49.1835 24.5844C49.1835 24.5844 49.1724 24.5844 49.1663 24.5832Z" fill="#4E3D35"/>
<path d="M41.7669 34.0303C42.1528 33.4384 42.6302 32.9116 43.1814 32.4695C43.9595 31.8839 44.8017 31.3887 45.6918 30.9935C46.0982 30.806 46.5563 30.7627 46.9906 30.8705C47.6179 31.0157 47.9144 31.4548 48.0263 32.055C48.1702 32.8237 48.041 33.5679 47.7914 34.2886C47.2835 35.7689 46.5768 37.1733 45.6906 38.4632C45.3904 38.901 45.0645 39.3242 44.757 39.7534C44.5295 40.0744 44.2933 40.3918 44.0965 40.73C43.714 41.3844 43.2749 42.0018 42.8469 42.6254C42.748 42.7851 42.6094 42.9165 42.4447 43.0067C42.2134 43.1223 41.9527 43.0977 41.8014 42.8948C41.5911 42.6057 41.3094 42.3917 41.0745 42.1297C40.0053 40.9212 39.0451 39.6206 38.2049 38.243C37.5393 37.1709 37.0932 35.9773 36.8925 34.7314C36.8266 34.3024 36.8441 33.8647 36.9442 33.4424C37.0179 33.102 37.2032 32.7959 37.4706 32.5728C38.1852 31.9738 38.9872 31.8213 39.8666 32.1546C40.0845 32.2476 40.2805 32.385 40.4423 32.5581C40.9035 33.0082 41.3906 33.4375 41.7669 34.0303ZM37.9934 34.2099C37.9891 34.3668 38.0002 34.5238 38.0266 34.6785C38.2028 35.6681 38.5561 36.6176 39.0696 37.4817C39.8669 38.8272 40.7907 40.0937 41.8284 41.2638C41.8782 41.3251 41.9352 41.38 41.9982 41.4274C42.1507 41.5283 42.2356 41.5147 42.3413 41.3647C42.4889 41.1568 42.6378 40.9477 42.7669 40.7276C43.1817 40.0237 43.6393 39.3459 44.1371 38.6981C44.9383 37.6636 45.6153 36.5387 46.1543 35.3464C46.4359 34.7191 46.7262 34.0943 46.8652 33.4141C46.9439 33.0279 47.0066 32.6405 46.9144 32.2456C46.8541 31.991 46.8209 31.964 46.5577 31.9541C46.3418 31.9509 46.1292 32.0066 45.9427 32.1153C45.4901 32.3551 45.051 32.5925 44.6168 32.8385C43.91 33.2524 43.2925 33.8026 42.8001 34.4571C42.5258 34.8114 42.2565 35.1754 42.1458 35.6305C42.1176 35.7314 42.0568 35.8201 41.9729 35.8828C41.8891 35.9456 41.7868 35.9788 41.6821 35.9774C41.5735 35.9751 41.4685 35.9381 41.3826 35.8716C41.2966 35.8052 41.2343 35.7129 41.2048 35.6084C41.1871 35.5525 41.1759 35.4947 41.1716 35.4362C41.12 34.9085 40.8543 34.4953 40.4816 34.1398C40.1889 33.8618 39.8937 33.5875 39.6009 33.3108C39.5374 33.249 39.4615 33.2012 39.3783 33.1706C38.8433 32.9861 37.9479 33.2222 37.9934 34.0894C37.9946 34.1312 37.9934 34.1706 37.9934 34.2099Z" fill="#4E3D35" fill-opacity="0.6"/>
<path d="M46.7102 40.4751C46.7154 40.6084 46.6676 40.7384 46.5773 40.8367C46.2723 41.1147 46.1087 41.4886 45.8922 41.8207C45.7914 41.9769 45.7041 42.1442 45.6057 42.3016C45.5207 42.4467 45.4027 42.5698 45.2613 42.6607C45.1787 42.7153 45.0816 42.7437 44.9827 42.7422C44.8838 42.7407 44.7876 42.7095 44.7067 42.6525C44.6258 42.5955 44.564 42.5155 44.5293 42.4228C44.4946 42.3301 44.4886 42.2292 44.5122 42.1331C44.5506 41.9702 44.6181 41.8156 44.7115 41.6768C45.0108 41.202 45.3293 40.7412 45.6672 40.2943C45.7311 40.2072 45.805 40.128 45.8873 40.0581C45.9569 39.9944 46.044 39.9529 46.1373 39.9389C46.2306 39.9248 46.326 39.939 46.4113 39.9794C46.505 40.0226 46.5836 40.0929 46.6369 40.1813C46.6902 40.2697 46.7157 40.372 46.7102 40.4751Z" fill="#4E3D35"/>
<path d="M35.7228 34.6328C35.8417 34.6315 35.957 34.6733 36.0474 34.7504C36.1378 34.8275 36.1973 34.9347 36.2148 35.0523C36.2616 35.2638 36.2911 35.4791 36.344 35.6882C36.4165 35.9735 36.5063 36.254 36.59 36.5381C36.63 36.6583 36.6597 36.7818 36.6785 36.9071C36.6867 37.0101 36.663 37.1131 36.6107 37.2023C36.5584 37.2914 36.48 37.3623 36.386 37.4054C36.2921 37.4485 36.1872 37.4616 36.0855 37.4431C35.9838 37.4246 35.8903 37.3753 35.8175 37.3019C35.711 37.2005 35.6323 37.0734 35.5888 36.9329C35.4162 36.3788 35.304 35.8076 35.2542 35.2294C35.221 34.8862 35.4289 34.6415 35.7228 34.6328Z" fill="#4E3D35"/>
<path d="M50.2427 24.121C50.5649 24.0878 50.881 24.1702 51.1984 24.2022C51.9806 24.2797 52.7604 24.3769 53.5353 24.4666L55.9953 24.7446C56.4147 24.7914 56.8341 24.8442 57.256 24.8775C57.3245 24.8762 57.3917 24.8961 57.4484 24.9344C57.5052 24.9727 57.5488 25.0275 57.5733 25.0915C58.741 27.4547 59.9107 29.8162 61.0824 32.1761L64.6629 39.3899C65.5501 41.1783 66.4365 42.9671 67.3221 44.7563C67.3652 44.8424 67.4008 44.931 67.4451 45.0195C67.3689 45.0983 67.2852 45.07 67.2126 45.0712C66.8191 45.0773 66.4255 45.0773 66.0319 45.0823L61.1046 45.1524C61.0259 45.1481 60.9471 45.1481 60.8684 45.1524C60.8013 45.1652 60.7319 45.1525 60.6736 45.1168C60.6154 45.0811 60.5726 45.0249 60.5536 44.9593C60.3543 44.5312 60.1366 44.113 59.9263 43.6899C58.5979 41.0225 57.2699 38.3551 55.9424 35.6877C54.2581 32.3094 52.578 28.929 50.9019 25.5466C50.7051 25.1505 50.512 24.752 50.3189 24.3547C50.2653 24.289 50.2381 24.2057 50.2427 24.121Z" fill="#4E3D35" fill-opacity="0.6"/>
<path d="M17.4307 46.3823C17.5463 46.0539 17.5709 45.7009 17.7886 45.3836C19.6073 42.7317 21.4174 40.0738 23.2189 37.4096C24.845 35.0177 26.4714 32.6271 28.0982 30.2376C28.8895 29.0757 29.682 27.9138 30.4758 26.7519C30.4869 26.7359 30.5041 26.7224 30.509 26.7039C30.6 26.394 30.8214 26.3989 31.0871 26.4346C31.857 26.5367 32.6282 26.6191 33.3994 26.7076C33.9665 26.7728 34.5322 26.8306 35.0993 26.897C35.2911 26.9204 35.3084 26.9598 35.1989 27.143C34.7069 27.9737 34.2149 28.8031 33.7229 29.6313L29.7562 36.3334L25.4415 43.6235C24.8413 44.6382 24.2361 45.6517 23.647 46.6738C23.6129 46.753 23.5522 46.8178 23.4753 46.8569C23.3985 46.896 23.3104 46.9069 23.2263 46.8878C22.6408 46.8251 22.0517 46.7845 21.465 46.7365L18.6139 46.509L17.673 46.4377C17.5883 46.446 17.5033 46.4266 17.4307 46.3823Z" fill="#4E3D35" fill-opacity="0.6"/>
<path d="M17.0198 55.2101C17.0874 52.5742 17.069 50.3013 17.0813 48.0295C17.0782 47.9705 17.0782 47.9114 17.0813 47.8524C17.1108 47.5818 17.1624 47.5301 17.433 47.551C18.0702 47.5965 18.7061 47.6543 19.3432 47.7048C19.9508 47.7532 20.5584 47.7995 21.166 47.8438L22.9593 47.9766H22.9888C23.2914 48.0135 23.2926 48.0135 23.2963 48.3124C23.3185 50.0344 23.3246 51.7563 23.3677 53.4783C23.4046 54.9838 23.3837 56.4893 23.4292 57.9935C23.4673 59.1927 23.4525 60.3932 23.4771 61.5924C23.4771 61.6613 23.4771 61.7302 23.4771 61.7991C23.4827 61.8233 23.4824 61.8484 23.4763 61.8725C23.4703 61.8966 23.4586 61.9189 23.4423 61.9376C23.426 61.9563 23.4055 61.9709 23.3825 61.9801C23.3595 61.9894 23.3346 61.9931 23.3099 61.9909C23.2213 61.9909 23.134 62.0057 23.0454 62.0057C21.1365 62.0155 19.2276 62.0242 17.3186 62.0315H17.1711C17.0591 62.0315 17.0112 61.9811 17.0148 61.8716C17.0148 61.8028 17.0148 61.7339 17.0148 61.665L17.0198 55.2101Z" fill="#4E3D35" fill-opacity="0.6"/>
<path d="M72.7115 57.0295C72.7115 58.5727 72.7115 60.1163 72.7115 61.6604C72.7115 61.7293 72.7115 61.7981 72.7115 61.867C72.7152 61.8866 72.7141 61.9068 72.7083 61.9259C72.7024 61.9449 72.6921 61.9623 72.678 61.9765C72.664 61.9906 72.6467 62.0012 72.6277 62.0072C72.6087 62.0132 72.5885 62.0145 72.5688 62.0109H72.4213L68.1459 62.0847H68.0573C67.7363 62.0847 67.7437 62.0847 67.7301 61.7686C67.6834 60.6973 67.7018 59.6248 67.66 58.5547C67.6256 57.6802 67.6453 56.8057 67.6047 55.9311C67.5616 55.0074 67.5715 54.0862 67.5469 53.16C67.5407 52.9054 67.5186 52.6508 67.5136 52.395C67.5063 51.9965 67.4792 52.0346 67.8826 52.0407C68.9638 52.0555 70.0449 52.0407 71.1261 52.0198C71.5984 52.0088 72.0695 51.9891 72.5406 51.9805C72.7533 51.9805 72.762 51.9805 72.7607 52.1883C72.7497 53.5745 72.7804 54.9607 72.73 56.3469C72.7226 56.572 72.73 56.7983 72.73 57.0246L72.7115 57.0295Z" fill="#4E3D35" fill-opacity="0.6"/>
<path d="M49.5008 25.2368C49.4442 25.2257 49.4233 25.2639 49.4036 25.3069C49.2918 25.1062 49.2219 24.8848 49.1982 24.6562C49.3389 24.8262 49.442 25.0241 49.5008 25.2368Z" fill="#4E3D35" fill-opacity="0.6"/>
<path d="M29.3417 26.3305C29.354 26.2862 29.3676 26.2198 29.4254 26.2653C29.4832 26.3108 29.4254 26.3465 29.3897 26.3797L29.3417 26.3305Z" fill="#4E3D35" fill-opacity="0.6"/>
<path d="M49.1662 24.582C49.1724 24.582 49.1822 24.582 49.1835 24.582C49.1861 24.5855 49.188 24.5895 49.1891 24.5937C49.1901 24.5979 49.1903 24.6023 49.1896 24.6066C49.1798 24.6362 49.1675 24.6362 49.1601 24.6066C49.1607 24.5981 49.1627 24.5898 49.1662 24.582Z" fill="#4E3D35" fill-opacity="0.6"/>
<path d="M29.339 26.3359L29.3869 26.3851C29.3869 26.4097 29.3746 26.4208 29.35 26.4183C29.3119 26.395 29.307 26.3691 29.339 26.3359Z" fill="#4E3D35" fill-opacity="0.6"/>
</g>
<defs>
<clipPath id="clip0">
<rect width="84" height="84" fill="white"/>
</clipPath>
</defs>
</svg>
