<svg width="84" height="84" viewBox="0 0 84 84" fill="none" xmlns="http://www.w3.org/2000/svg">
<path d="M18.1558 53.6091L16.8639 54.5484C16.7963 54.5969 16.7313 54.6489 16.6594 54.6905C16.6134 54.7249 16.5556 54.7397 16.4988 54.7316C16.4419 54.7235 16.3906 54.6931 16.3561 54.6471C16.3216 54.6012 16.3068 54.5434 16.315 54.4865C16.3231 54.4297 16.3535 54.3783 16.3994 54.3439C16.4459 54.3022 16.4955 54.2639 16.5476 54.2295C16.9519 53.9355 17.3563 53.6423 17.7607 53.35C17.9391 53.2209 17.94 53.2201 17.8369 53.0338C16.8414 51.24 16.0691 49.3311 15.5373 47.3497C15.1733 45.9912 14.9254 44.6042 14.7965 43.2037C14.6653 41.8228 14.6581 40.4329 14.7748 39.0507C15.1682 34.4613 16.7304 30.3097 19.4615 26.596C21.4437 23.9051 23.9403 21.6344 26.8066 19.9155C29.3711 18.3661 32.1763 17.2556 35.1065 16.6299C38.0453 15.9966 41.0668 15.8395 44.0554 16.1646C49.1364 16.7269 53.7512 18.4997 57.8592 21.5462C61.5911 24.3189 64.4296 27.816 66.3194 32.0704C67.1853 34.0221 67.7934 36.0781 68.1286 38.1868C68.9585 43.324 68.1044 48.5918 65.6938 53.2036C63.3881 57.5992 60.0384 60.9906 55.7467 63.4635C53.4121 64.7994 50.8895 65.7758 48.2639 66.3601C47.0814 66.626 45.8828 66.8144 44.6758 66.9242C43.2331 67.0665 41.781 67.0877 40.3348 66.9874C32.9421 66.4337 26.6446 63.5449 21.5324 58.1399C20.2938 56.8186 19.2033 55.3659 18.2805 53.8075C18.2433 53.7477 18.206 53.6906 18.1558 53.6091ZM58.2465 24.5893C58.263 24.617 58.2829 24.6655 58.3149 24.6378C58.347 24.6101 58.2976 24.5858 58.2742 24.5659C58.2265 24.4662 58.1662 24.373 58.0949 24.2886C57.899 23.9897 57.7292 23.6743 57.7015 23.3164C57.695 23.0608 57.6166 22.8122 57.4753 22.599C57.448 22.5621 57.4284 22.5201 57.4178 22.4754C57.4072 22.4307 57.4059 22.3843 57.4138 22.3391C57.4441 22.2065 57.3766 22.1493 57.2882 22.0869C57.0724 21.9361 56.8601 21.781 56.6435 21.632C55.2803 20.6918 53.8342 19.8777 52.3233 19.1998C50.7308 18.4865 49.0746 17.9248 47.3766 17.5223C47.3232 17.5086 47.2687 17.499 47.2137 17.4938C47.1716 17.4913 47.1301 17.5044 47.097 17.5304C47.0638 17.5564 47.0412 17.5936 47.0335 17.635C47.0014 17.7216 47.0725 17.7554 47.1357 17.7858L47.1921 17.8135C47.7275 18.0596 48.1114 18.4694 48.4198 18.9581C48.5697 19.1946 48.6105 19.445 48.4701 19.7041C48.4533 19.7347 48.4391 19.7665 48.4276 19.7994C48.3644 19.9727 48.3947 20.016 48.5819 20.036C49.107 20.0923 49.6017 20.2257 50.002 20.5992C50.0438 20.6356 50.0878 20.6695 50.1337 20.7006C50.3065 20.8283 50.4903 20.9402 50.6831 21.035C50.7804 21.0895 50.8904 21.1173 51.0019 21.1156C51.157 21.1035 51.2064 21.0289 51.1579 20.8799C51.1148 20.755 51.0427 20.6422 50.9473 20.5507C50.7948 20.399 50.6432 20.2474 50.4881 20.0984C50.1961 19.8202 49.8902 19.5629 49.4873 19.4537C49.3819 19.4201 49.2786 19.3802 49.178 19.3341C49.0995 19.3055 49.0276 19.2613 48.9666 19.2042C48.8678 19.1063 48.8037 18.9953 48.8488 18.8515C48.868 18.7846 48.906 18.7247 48.9582 18.6786C49.0104 18.6326 49.0746 18.6024 49.1434 18.5916C49.2388 18.5712 49.3377 18.5739 49.4319 18.5994C49.9977 18.7451 50.5164 19.0343 50.9378 19.439C51.0245 19.5256 51.1024 19.601 51.2402 19.549C51.2792 19.5343 51.3347 19.5594 51.3814 19.5715C51.8438 19.6956 52.2828 19.8943 52.6811 20.1599C52.8372 20.2641 52.971 20.3984 53.0745 20.555C53.2304 20.7842 53.3614 21.0293 53.4653 21.2863C53.5322 21.4538 53.5683 21.6319 53.5719 21.8122C53.5811 22.1032 53.5464 22.3938 53.4688 22.6744C53.396 22.9421 53.3726 23.2038 53.4922 23.4655C53.51 23.5176 53.5242 23.5708 53.5346 23.6249C53.61 23.8753 53.5294 24.0893 53.3769 24.2825C53.3243 24.3465 53.2663 24.4059 53.2036 24.4602C52.9168 24.7201 52.9298 24.6933 53.2097 24.9237C53.4589 25.1384 53.6264 25.4325 53.6837 25.7564C53.7417 26.0164 53.6369 26.2408 53.4922 26.4557C53.436 26.5398 53.4015 26.6365 53.3916 26.7371C53.3818 26.8378 53.397 26.9393 53.4358 27.0327C53.533 27.293 53.6849 27.5293 53.8812 27.7259C54.0158 27.8669 54.1826 27.9731 54.3673 28.0352C54.6584 28.1305 54.8205 28.0777 54.9834 27.8169C55.2128 27.4644 55.2932 27.0354 55.2069 26.6237C55.1276 26.2438 55.0947 25.8557 55.109 25.4679C55.1341 24.8891 55.5552 24.4766 56.108 24.4914C56.3531 24.5018 56.5851 24.605 56.757 24.7799C56.8334 24.8693 56.9207 24.9488 57.017 25.0164C57.0167 24.9874 57.0144 24.9585 57.01 24.9298C56.9121 24.5512 57.2033 24.3233 57.4961 24.3189C57.6555 24.3252 57.8111 24.3701 57.9493 24.4498C58.0403 24.5118 58.1406 24.5589 58.2465 24.5893ZM58.4761 23.0184C58.4761 23.0799 58.4692 23.105 58.4709 23.1336C58.49 23.3766 58.5771 23.6093 58.7222 23.8051C58.9111 24.0867 59.1078 24.3631 59.2993 24.6439C59.4033 24.7834 59.4712 24.9465 59.4968 25.1187C59.5523 25.61 59.2767 25.8708 58.7924 25.7937C58.5521 25.7565 58.325 25.6593 58.1321 25.5112C58.0749 25.4687 58.0264 25.4072 57.9467 25.3977C57.9372 25.4201 57.9288 25.4429 57.9216 25.4661C57.8297 25.7859 57.5299 26.0155 57.0837 25.9332C56.8635 25.895 56.6604 25.7904 56.5014 25.6334C56.407 25.5415 56.3177 25.4428 56.219 25.357C56.0621 25.2209 55.9321 25.2703 55.8992 25.4748C55.8927 25.523 55.8901 25.5717 55.8914 25.6204C55.8886 25.8769 55.9125 26.133 55.9625 26.3846C56.0174 26.6283 56.0367 26.8788 56.0197 27.128C55.9878 27.6588 55.7682 28.161 55.4001 28.5447C55.2843 28.6699 55.1395 28.7648 54.9785 28.8208C54.8174 28.8769 54.645 28.8925 54.4765 28.8662C54.1103 28.817 53.7659 28.6636 53.4844 28.4243C53.1669 28.1531 52.9153 27.8133 52.7487 27.4304C52.6388 27.2086 52.589 26.9619 52.6042 26.7149C52.6194 26.4678 52.6991 26.2291 52.8354 26.0224C52.8668 25.9779 52.8846 25.9252 52.8866 25.8707C52.8886 25.8163 52.8747 25.7624 52.8466 25.7157C52.7975 25.6238 52.73 25.5429 52.6482 25.4783C52.5685 25.4116 52.4871 25.3466 52.4125 25.2747C52.3313 25.1984 52.269 25.1043 52.2304 24.9998C52.1919 24.8952 52.1783 24.7832 52.1907 24.6725C52.1992 24.5333 52.2387 24.3978 52.3063 24.2759C52.3739 24.1541 52.4679 24.0488 52.5815 23.968C52.7548 23.8424 52.7791 23.7176 52.6941 23.5348C52.6092 23.3352 52.588 23.1143 52.6335 22.9023C52.6725 22.6848 52.7201 22.469 52.7574 22.2498C52.7964 22.0098 52.8232 21.7672 52.7193 21.5341C52.6452 21.3632 52.5583 21.1981 52.4593 21.0402C52.3252 20.8403 52.1354 20.6839 51.9135 20.5905C51.9325 20.6858 51.9481 20.7638 51.9654 20.8505C51.9936 20.9641 51.9951 21.0827 51.9698 21.197C51.8831 21.5696 51.6128 21.7637 51.2766 21.8712C50.9404 21.9786 50.6172 21.8859 50.3148 21.7325C50.0216 21.5892 49.7479 21.409 49.5003 21.1962C49.3051 21.0288 49.0689 20.9163 48.8158 20.8704C48.6252 20.8297 48.4311 20.8227 48.2396 20.7924C47.7778 20.7179 47.5178 20.3505 47.6036 19.8904C47.6216 19.7597 47.659 19.6323 47.7145 19.5126C47.7387 19.471 47.7485 19.4227 47.7426 19.3749C47.7366 19.3272 47.7152 19.2828 47.6816 19.2484C47.4616 18.9353 47.1734 18.6763 46.8385 18.4911C46.7517 18.4478 46.6677 18.3989 46.5873 18.3446C46.4811 18.2776 46.3964 18.1814 46.3434 18.0675C46.2904 17.9537 46.2713 17.827 46.2883 17.7026C46.3068 17.5711 46.3358 17.4413 46.375 17.3144C45.6861 17.1714 44.999 17.0614 44.2998 16.9851C44.3058 17.0718 44.3665 17.1021 44.3994 17.1524C44.515 17.3112 44.5633 17.5092 44.5337 17.7034C44.48 17.9946 44.2357 18.1895 43.8821 18.2103C43.487 18.2367 43.0902 18.1987 42.7072 18.0977C42.4529 18.0357 42.2285 17.8859 42.0737 17.6748C41.9189 17.4637 41.8434 17.2048 41.8607 16.9435C41.8607 16.9028 41.8607 16.8612 41.8607 16.824C41.8305 16.8034 41.7938 16.7944 41.7576 16.7988C40.0386 16.7529 38.3192 16.869 36.622 17.1454C34.9599 17.4142 33.3271 17.8401 31.7455 18.4174C31.2975 18.582 30.8539 18.7562 30.4155 18.9451C30.3375 18.978 30.2855 19.0118 30.2846 19.1054C30.2721 19.181 30.2424 19.2527 30.198 19.3151C30.1054 19.4931 30.0595 19.6916 30.0645 19.8921C30.4328 19.8454 30.7698 19.7613 31.1147 19.724C31.2767 19.6994 31.4424 19.7207 31.593 19.7855C31.7435 19.8503 31.8729 19.956 31.9664 20.0906C32.0825 20.247 32.16 20.4287 32.1926 20.6208C32.203 20.6789 32.1978 20.7439 32.2619 20.7941C32.3096 20.7664 32.3581 20.7413 32.4049 20.7127C32.8969 20.4141 33.4397 20.2085 34.0061 20.1062C34.567 19.9894 35.1505 20.0541 35.6723 20.2907C35.8036 20.3383 35.9184 20.4225 36.0033 20.5333C36.0914 20.6581 36.2205 20.748 36.3681 20.7872C36.8967 20.9692 37.2146 21.3487 37.3481 21.8816C37.4342 22.2469 37.4605 22.6238 37.4261 22.9976C37.4189 23.2286 37.3344 23.4506 37.1861 23.628C37.0378 23.8054 36.8343 23.9278 36.6081 23.9758C36.4321 24.016 36.2511 24.0303 36.0709 24.0183C35.6637 23.9931 35.2859 23.858 34.9142 23.7046C34.7879 23.6538 34.6773 23.5705 34.5934 23.4633C34.5096 23.356 34.4556 23.2286 34.4367 23.0937C34.4028 22.8885 34.3883 22.6805 34.3934 22.4725C34.4015 22.401 34.3977 22.3287 34.3822 22.2585C34.3633 22.2516 34.3432 22.2493 34.3233 22.2517C34.3034 22.2541 34.2844 22.2612 34.2678 22.2723C34.1012 22.3748 33.9703 22.5261 33.8926 22.7056C33.8527 22.8095 33.8181 22.9153 33.7687 23.014C33.5997 23.3554 33.3623 23.6206 32.9785 23.7297C32.7642 23.7912 32.5369 23.7912 32.3226 23.7297C32.2437 23.7019 32.1584 23.6974 32.0771 23.717C31.9958 23.7365 31.9218 23.7791 31.8642 23.8398C31.6165 24.0722 31.3832 24.3196 31.1658 24.5806C31.0858 24.6767 31.0244 24.7869 30.9847 24.9055C30.9414 25.0398 30.9431 25.0528 31.0844 25.0953C31.191 25.124 31.2992 25.1465 31.4084 25.1629C31.8269 25.2357 32.0392 25.4479 32.1198 25.863C32.1431 26.0486 32.151 26.2358 32.1432 26.4227C32.1349 26.5262 32.1431 26.6303 32.1675 26.7312C32.4153 26.5579 32.6293 26.3959 32.6561 26.0822C32.6674 25.9514 32.6891 25.8223 32.6891 25.6888C32.6939 25.4669 32.7206 25.2461 32.7688 25.0294C32.8177 24.7978 32.9207 24.5811 33.0695 24.3969C33.2386 24.1795 33.4845 24.035 33.7567 23.993C34.0289 23.951 34.3069 24.0146 34.5338 24.1708C34.6716 24.2644 34.8041 24.3649 34.941 24.4576C35.082 24.5598 35.2439 24.6293 35.415 24.6612C35.6753 24.7035 35.94 24.7125 36.2026 24.6881C36.3473 24.6733 36.4929 24.6699 36.6358 24.6595C36.8518 24.6461 37.0667 24.698 37.2528 24.8085C37.433 24.9107 37.6129 25.0144 37.7926 25.1196C37.9793 25.2172 38.1214 25.3828 38.1894 25.5823C38.2674 25.8318 38.4407 25.9661 38.6781 26.0475C38.9132 26.1305 39.1398 26.2358 39.3548 26.3621C39.5093 26.4492 39.6448 26.5663 39.7534 26.7064C39.862 26.8466 39.9415 27.007 39.9874 27.1783C40.0704 27.4793 40.1146 27.7897 40.1191 28.1019C40.1274 28.2928 40.0737 28.4813 39.9661 28.6392C39.8585 28.797 39.7028 28.9159 39.5221 28.978C39.3081 29.0618 39.0772 29.0938 38.8485 29.0714C38.6197 29.0489 38.3995 28.9727 38.2059 28.8488C38.0936 28.7846 37.9967 28.6967 37.9219 28.5912C37.8471 28.4857 37.7961 28.3652 37.7727 28.238C37.7592 28.1438 37.7514 28.0489 37.7493 27.9538C37.5667 28.0717 37.3721 28.1699 37.1687 28.2466C37.2226 28.3489 37.257 28.4602 37.2701 28.575C37.2719 28.6095 37.2846 28.6425 37.3062 28.6694C37.3278 28.6963 37.3573 28.7157 37.3905 28.7249C37.4994 28.7721 37.5935 28.8478 37.6629 28.944C37.7323 29.0403 37.7744 29.1535 37.7848 29.2717C37.8103 29.4123 37.8015 29.5571 37.7591 29.6936C37.7167 29.8301 37.642 29.9544 37.5413 30.0558C37.2161 30.4092 36.7996 30.6659 36.3378 30.7975C35.9704 30.898 35.6117 30.892 35.2764 30.6788C35.214 30.639 35.1724 30.5402 35.0953 30.5575C35.0181 30.5749 34.98 30.6693 34.9289 30.7308C34.8908 30.7802 34.8544 30.8305 34.8189 30.8816C34.5267 31.3049 34.1554 31.6677 33.7254 31.9499C33.4833 32.1121 33.2546 32.2935 33.0417 32.4924C32.7766 32.7315 32.6189 33.0122 32.618 33.3788C32.6054 33.6999 32.4954 34.0097 32.3026 34.2669C32.1466 34.497 31.9544 34.7004 31.7334 34.8691C31.4864 35.058 31.236 35.2443 30.9891 35.4349C30.8464 35.5451 30.7188 35.6736 30.6095 35.817C30.5636 35.8647 30.5371 35.9277 30.5351 35.9939C30.5332 36.0601 30.556 36.1246 30.5991 36.1749C30.743 36.3707 30.8781 36.5717 31.0159 36.771C31.1232 36.9247 31.2043 37.0951 31.2559 37.2753C31.3781 37.7172 31.2239 38.0915 30.8227 38.315C30.6399 38.4144 30.4434 38.4859 30.2396 38.5273C29.7829 38.6278 29.4052 38.4987 29.1131 38.127C28.9889 37.9603 28.8774 37.7845 28.7796 37.6011C28.6779 37.4197 28.5693 37.2429 28.4538 37.0708C28.4023 36.9925 28.3356 36.9253 28.2578 36.8731C28.18 36.8208 28.0926 36.7847 28.0006 36.7667C27.7513 36.7063 27.4963 36.6728 27.2398 36.667C27.1566 36.6628 27.0735 36.6758 26.9955 36.7051C26.6142 36.8689 26.22 37.0049 25.857 37.2086C25.6415 37.3221 25.4516 37.4784 25.2987 37.6679C25.1459 37.8574 25.0333 38.0762 24.968 38.3107C24.8769 38.6389 24.844 38.9806 24.8709 39.3201C24.893 39.628 25.0297 39.9164 25.2539 40.1286C25.4584 40.3278 25.7097 40.4032 25.9618 40.1364C26.0805 40.0107 26.1931 39.8764 26.3084 39.7473C26.4019 39.6265 26.5098 39.5177 26.6298 39.4233C27.135 39.0767 27.7233 39.0463 28.1028 39.6875C28.3628 40.1268 28.4494 40.5869 28.2432 41.0739C28.1656 41.2375 28.1172 41.4135 28.1002 41.5938C28.0881 41.8138 28.1514 41.8988 28.3654 41.9404C28.42 41.9507 28.4754 41.9533 28.5309 41.9585C28.6691 41.9711 28.8048 42.0035 28.9338 42.0547C29.4216 42.2488 30.0351 43.0165 29.9857 43.6776C29.9767 43.788 29.9738 43.8988 29.977 44.0095C29.9814 44.1438 30.0134 44.1758 30.1434 44.2062C30.2728 44.2309 30.4042 44.243 30.5359 44.2426C30.728 44.2429 30.9162 44.2964 31.0797 44.3972C31.2432 44.498 31.3756 44.6421 31.4622 44.8136C31.5961 45.0566 31.6947 45.3174 31.755 45.5882C31.7816 45.6928 31.7795 45.8026 31.749 45.9061C31.7185 46.0096 31.6607 46.103 31.5817 46.1765C31.4511 46.302 31.2911 46.3929 31.1164 46.4408C30.8391 46.5323 30.5459 46.5657 30.2552 46.5387C29.8419 46.4921 29.4257 46.4753 29.01 46.4885C28.7029 46.4998 28.4007 46.4083 28.1514 46.2285C27.8562 46.0092 27.6184 45.7217 27.4582 45.3906C27.2658 45.0163 27.1003 44.6273 26.8794 44.2642C26.7562 44.0704 26.589 43.9084 26.3916 43.7911C26.2149 43.6812 26.0262 43.5919 25.8292 43.5251C25.6325 43.4593 25.4341 43.3986 25.24 43.3267C24.7123 43.1317 24.2964 42.8068 24.0521 42.2869C24.01 42.191 23.9333 42.1146 23.8372 42.0729C23.3503 41.858 22.9837 41.4889 22.6164 41.1198C22.123 40.627 21.7906 39.9962 21.6632 39.3106C21.6193 39.0652 21.5561 38.8235 21.4743 38.588C21.4501 38.5213 21.4406 38.4424 21.3721 38.4008C21.3262 38.4459 21.2855 38.4875 21.2465 38.523C21.1638 38.5987 21.058 38.6443 20.9463 38.6525C20.8345 38.6607 20.7232 38.6309 20.6304 38.568C20.5023 38.4826 20.4013 38.3624 20.3393 38.2215C20.2576 38.0378 20.1895 37.8484 20.1356 37.6548C19.9667 37.1236 19.9156 36.5708 19.8471 36.0215C19.7839 35.5198 19.7102 35.019 19.7284 34.5104C19.7518 33.8666 19.7579 33.2219 19.7518 32.5773C19.7528 32.1409 19.796 31.7056 19.8809 31.2776C20.0012 30.5572 20.2937 29.8765 20.7335 29.2933C20.7838 29.2275 20.8297 29.1573 20.8791 29.0906C21.1858 28.6799 21.4587 28.2449 21.7274 27.8091C21.928 27.5091 22.082 27.1805 22.184 26.8343C22.2953 26.4186 22.4841 26.0277 22.7403 25.6819C22.9023 25.4575 23.0704 25.2357 23.2134 24.9983C23.6908 24.2098 24.1795 23.4291 24.7817 22.7264C24.9368 22.5453 24.9957 22.3209 25.0416 22.0756C15.1812 29.4614 12.807 42.6119 18.5751 52.7314C18.6618 52.7166 18.7112 52.6395 18.7883 52.6109C18.8363 52.5899 18.8899 52.5855 18.9407 52.5985C18.9914 52.6116 19.0363 52.6413 19.0682 52.6829C19.0958 52.7274 19.1073 52.7801 19.1008 52.8321C19.0944 52.8841 19.0703 52.9323 19.0326 52.9688C18.9983 53.0031 18.9605 53.0339 18.92 53.0606C18.8073 53.1386 18.7805 53.1248 18.8801 53.2859L18.9546 53.4107C20.5757 56.1181 22.6859 58.5006 25.1776 60.4369C29.614 63.8967 34.656 65.7856 40.2577 66.1937C43.3545 66.4059 46.4648 66.0859 49.4535 65.2475C53.4324 64.1211 56.9641 62.1828 60.0072 59.3729C61.3743 58.1111 62.5906 56.695 63.6316 55.1532C63.6914 55.0665 63.739 54.9885 63.6862 54.8707C63.6479 54.7649 63.6522 54.6484 63.6983 54.5458C63.7231 54.4813 63.7417 54.4145 63.7538 54.3465C63.8747 53.6212 63.9067 52.8839 63.8491 52.1508C63.8499 52.1205 63.8437 52.0904 63.8309 52.0629C63.8182 52.0354 63.7992 52.0112 63.7754 51.9923C63.6741 51.9076 63.5912 51.8031 63.5316 51.6853C63.472 51.5674 63.437 51.4387 63.4288 51.3069C63.3986 51.0302 63.4209 50.7504 63.4947 50.482C63.666 49.8038 63.9007 49.1433 64.1957 48.5091C64.5349 47.8148 64.6934 47.0462 64.6566 46.2744C64.6185 45.5267 64.6073 44.778 64.5795 44.0303C64.5752 43.7598 64.5518 43.4899 64.5093 43.2227C64.4767 42.9889 64.3832 42.7678 64.2381 42.5815C64.109 42.4273 63.9591 42.3337 63.7468 42.4082C63.7001 42.4215 63.6523 42.4302 63.6039 42.4342C63.4282 42.4686 63.2461 42.433 63.0962 42.3351C62.9464 42.2372 62.8406 42.0847 62.8015 41.91C62.7672 41.7683 62.7587 41.6215 62.7764 41.4768C62.8152 41.1816 62.8693 40.8886 62.9384 40.5991C62.968 40.478 62.9885 40.3549 63 40.2308C63.0121 40.0714 62.967 40.009 62.8119 39.9839C62.552 39.9423 62.3137 39.9839 62.1447 40.2143C62.078 40.301 62.0191 40.3972 61.9585 40.4899C61.7956 40.7396 61.6143 40.9768 61.416 41.1995C61.1373 41.5214 60.7719 41.7563 60.3633 41.8762C59.4172 42.1581 58.4008 42.0861 57.5039 41.6735C56.394 41.1805 55.8698 40.2871 55.81 39.1018C55.7952 38.7907 55.8022 38.4779 55.7909 38.1669C55.7904 37.847 55.7597 37.5278 55.6991 37.2138C55.5756 36.6446 55.3667 36.0975 55.0795 35.5909C54.8705 35.2414 54.688 34.8768 54.5337 34.5C54.4456 34.2913 54.4122 34.0637 54.4366 33.8385C54.461 33.6134 54.5424 33.3982 54.6732 33.2133C54.7903 33.0331 54.9275 32.8669 55.0821 32.7176C55.2329 32.5738 55.3889 32.436 55.5431 32.2965C55.6594 32.1977 55.7635 32.0855 55.8533 31.9621C55.8961 31.9031 55.9238 31.8344 55.9337 31.7621C55.9437 31.6899 55.9357 31.6163 55.9105 31.5479C55.865 31.4243 55.7981 31.3096 55.7129 31.2091C55.5334 30.9883 55.3874 30.7422 55.2797 30.4787C55.1931 30.2728 55.1655 30.0469 55.2 29.8262C55.2576 29.4819 55.4208 29.164 55.667 28.9164C55.8719 28.7089 56.1161 28.5442 56.3853 28.4321C56.493 28.3933 56.5889 28.3273 56.6637 28.2407C56.7386 28.154 56.7898 28.0495 56.8125 27.9373C56.9494 27.3308 57.3644 26.9634 57.8843 26.6861C58.0485 26.5928 58.2382 26.5543 58.4258 26.5761C58.7782 26.6185 59.1112 26.7604 59.3859 26.9851C59.4804 27.0565 59.5565 27.1494 59.608 27.2561C59.6595 27.3627 59.685 27.4801 59.6822 27.5985C59.6806 27.661 59.683 27.7235 59.6892 27.7857C59.71 27.9711 59.7715 28.004 59.9309 27.9183C59.9673 27.8983 60.0028 27.8758 60.0375 27.8533C60.2775 27.693 60.5262 27.6098 60.8173 27.7051C60.9906 27.7614 61.0617 27.7051 61.1119 27.5171C61.1561 27.3208 61.1787 27.1204 61.1795 26.9192C61.1986 26.5778 61.2202 26.2347 61.5443 26.0077C60.6052 24.9289 59.579 23.9291 58.4761 23.0184ZM28.063 44.8023C28.3697 44.5918 28.647 44.3847 28.9416 44.2062C29.0295 44.1621 29.1019 44.0923 29.1493 44.0061C29.1966 43.9199 29.2166 43.8214 29.2067 43.7235C29.1963 43.2141 28.8601 42.8094 28.3611 42.7401C28.3134 42.7332 28.2666 42.7193 28.219 42.7106C27.6332 42.6041 27.3126 42.2133 27.3204 41.6224C27.3312 41.3381 27.3977 41.0587 27.5162 40.8001C27.5542 40.7142 27.5738 40.6214 27.5738 40.5276C27.5738 40.4337 27.5542 40.3409 27.5162 40.2551C27.3993 39.9752 27.2849 39.8435 26.9834 40.1762C26.8161 40.3608 26.6688 40.5644 26.4843 40.7334C25.9505 41.2238 25.3743 41.2177 24.8129 40.7845C24.4969 40.5299 24.2705 40.1811 24.1665 39.7889C24.0486 39.3955 24.0729 38.997 24.1197 38.5949C24.2306 37.6418 24.7123 36.9443 25.5502 36.4859C25.9219 36.2823 26.3231 36.1463 26.7096 35.9764C26.8767 35.9074 27.0566 35.8749 27.2372 35.8811C27.5287 35.8865 27.8189 35.9205 28.1037 35.9825C28.316 36.0185 28.5183 36.0988 28.6975 36.2182C28.8766 36.3377 29.0286 36.4935 29.1435 36.6757C29.3029 36.9278 29.4459 37.1886 29.6036 37.4416C29.8341 37.8099 29.9502 37.8445 30.3522 37.6747C30.5073 37.6097 30.5255 37.5673 30.4657 37.4026C30.4074 37.2695 30.3319 37.1446 30.2413 37.0309C30.09 36.8326 29.9533 36.6235 29.8323 36.4053C29.7668 36.2784 29.7332 36.1375 29.7342 35.9947C29.7353 35.852 29.771 35.7116 29.8384 35.5857C29.9666 35.3307 30.1487 35.1066 30.3721 34.9289C30.6607 34.7019 30.9501 34.4757 31.2429 34.2548C31.6242 33.968 31.8495 33.604 31.8616 33.1145C31.8795 32.7503 32.0324 32.4059 32.2905 32.1484C32.5758 31.8358 32.8985 31.5596 33.2514 31.3261C33.5569 31.1335 33.8266 30.8892 34.0486 30.6043C34.1534 30.4674 34.2522 30.3244 34.3588 30.1875C34.4977 29.9967 34.6715 29.8339 34.8708 29.7075C35.1672 29.5342 35.4713 29.594 35.6411 29.8895C35.7451 30.0697 35.8413 30.0948 36.0614 30.0524C36.3884 29.9789 36.6866 29.8111 36.9192 29.5697C37.024 29.4692 37.0154 29.4285 36.8724 29.3627C36.779 29.3254 36.6974 29.2635 36.6364 29.1835C36.5753 29.1036 36.5371 29.0086 36.5258 28.9086C36.5137 28.822 36.4712 28.8064 36.3976 28.8298C36.2769 28.8627 36.1508 28.8713 36.0267 28.8549C35.9414 28.8511 35.8582 28.8268 35.7842 28.784C35.7102 28.7412 35.6476 28.6813 35.6017 28.6092C35.5558 28.5371 35.528 28.455 35.5205 28.3699C35.513 28.2848 35.5262 28.1991 35.5588 28.1201C35.6123 27.9608 35.7244 27.8279 35.8725 27.7484C36.0705 27.6322 36.2925 27.5629 36.5215 27.5457C36.8757 27.5306 37.2132 27.391 37.4746 27.1514C37.7449 26.9166 38.0369 26.9409 38.3367 27.2017C38.5464 27.3836 38.5793 27.6219 38.5629 27.8827C38.5447 28.1626 38.6149 28.2389 38.8913 28.2752C38.9807 28.2886 39.0718 28.2871 39.1607 28.2709C39.2994 28.2432 39.3522 28.1756 39.341 28.0387C39.3297 27.9018 39.3141 27.7909 39.302 27.667C39.2621 27.2875 39.0784 27.0232 38.7067 26.8967C38.5429 26.8404 38.3844 26.7693 38.2276 26.6983C37.9555 26.5752 37.7077 26.4054 37.5942 26.1255C37.5473 26.0075 37.4771 25.9002 37.3878 25.81C37.2984 25.7198 37.1918 25.6485 37.0743 25.6004C37.044 25.5852 37.015 25.5676 36.9876 25.5476C36.8654 25.4673 36.7202 25.4295 36.5743 25.4402C36.3144 25.4523 36.0544 25.4921 35.7867 25.4826C35.2972 25.4661 34.8431 25.3492 34.4428 25.0554C34.3371 24.9775 34.2314 24.8995 34.1214 24.8258C34.0878 24.7986 34.0487 24.779 34.0069 24.7683C33.965 24.7576 33.9213 24.7561 33.8788 24.7639C33.8363 24.7717 33.796 24.7887 33.7607 24.8136C33.7254 24.8385 33.6959 24.8707 33.6743 24.9081C33.5993 25.025 33.5489 25.1559 33.5261 25.2929C33.4672 25.5658 33.4836 25.8439 33.4559 26.1195C33.3866 26.8126 32.9655 27.2138 32.3841 27.4868C32.0635 27.6375 31.7074 27.505 31.5176 27.2034C31.4245 27.0562 31.3736 26.8863 31.3703 26.7121C31.366 26.5388 31.3703 26.3655 31.3703 26.1922C31.3703 25.9444 31.3634 25.9375 31.1242 25.9028C30.9249 25.8736 30.7333 25.8056 30.5602 25.7027C30.2413 25.5164 30.1165 25.2183 30.1928 24.8544C30.2491 24.5823 30.3677 24.3269 30.5394 24.1084C30.7902 23.794 31.067 23.5013 31.3668 23.2333C31.4862 23.1137 31.6311 23.0228 31.7906 22.9673C31.9501 22.9118 32.1201 22.8931 32.2879 22.9127C32.3841 22.9248 32.4785 22.9464 32.5738 22.9646C32.6483 22.9819 32.7262 22.9764 32.7975 22.9487C32.8687 22.921 32.93 22.8725 32.9733 22.8095C33.0437 22.7088 33.0972 22.5973 33.1318 22.4794C33.2641 22.1108 33.5193 21.799 33.8545 21.5965C34.0549 21.4669 34.2977 21.4197 34.5321 21.4648C34.9116 21.528 35.155 21.8166 35.175 22.2229C35.1836 22.4092 35.1819 22.5973 35.181 22.7844C35.1729 22.8436 35.1879 22.9037 35.223 22.9521C35.258 23.0005 35.3103 23.0335 35.3691 23.0444C35.5094 23.0816 35.6437 23.1423 35.785 23.1769C35.9706 23.2339 36.1668 23.2476 36.3586 23.2168C36.5622 23.1726 36.6324 23.1102 36.6376 22.8971C36.6402 22.6897 36.6324 22.4824 36.6142 22.2758C36.583 21.8426 36.3612 21.5896 35.9565 21.4708C35.761 21.4158 35.5898 21.2964 35.4704 21.1321C35.4173 21.059 35.3438 21.0032 35.259 20.9718C34.9822 20.8583 34.6815 20.8151 34.3839 20.8461C33.8176 20.9102 33.2725 21.099 32.7879 21.3989C32.7012 21.4535 32.605 21.496 32.5123 21.5445C32.4149 21.5987 32.306 21.629 32.1946 21.633C32.0832 21.637 31.9725 21.6145 31.8714 21.5674C31.7704 21.5203 31.682 21.45 31.6134 21.3621C31.5448 21.2742 31.498 21.1713 31.4769 21.0619C31.4525 20.9327 31.4216 20.8049 31.3842 20.6789C31.3348 20.5281 31.2785 20.5056 31.119 20.5255C30.7915 20.5758 30.4648 20.633 30.1356 20.678C29.5291 20.7603 29.1877 20.2673 29.2977 19.7908C29.3332 19.689 29.3488 19.5813 29.3436 19.4736C29.318 19.4701 29.2919 19.4717 29.2669 19.4784C29.2419 19.4851 29.2185 19.4967 29.1981 19.5126C28.6505 19.7812 28.1124 20.0663 27.5864 20.3791C27.2398 20.583 26.897 20.7921 26.5579 21.0064C26.5168 21.0247 26.4831 21.0562 26.462 21.096C26.441 21.1357 26.4339 21.1814 26.4418 21.2256C26.4499 21.295 26.4403 21.3652 26.4137 21.4298C26.3872 21.4944 26.3447 21.5511 26.2902 21.5948C26.2357 21.6484 26.1778 21.6985 26.1169 21.7447C26.0269 21.811 25.9571 21.901 25.915 22.0046C25.8453 22.1701 25.7874 22.3404 25.7417 22.5141C25.673 22.7982 25.5393 23.0625 25.3509 23.2861C25.0174 23.6753 24.713 24.0886 24.4403 24.5226C24.0738 25.0849 23.7471 25.6724 23.3399 26.2104C23.1558 26.4544 23.0218 26.7324 22.9456 27.0284C22.8741 27.2963 22.7705 27.5547 22.6371 27.7978C22.2902 28.4292 21.902 29.037 21.4752 29.6174C21.282 29.8877 21.0775 30.1529 20.9449 30.4596C20.6987 31.0408 20.5615 31.6623 20.5403 32.2931C20.5238 32.6734 20.536 33.0556 20.5342 33.4368C20.5342 33.6725 20.542 33.909 20.523 34.143C20.4871 34.6054 20.5026 35.0703 20.5689 35.5293C20.6044 35.7823 20.6373 36.0362 20.6625 36.291C20.6936 36.6565 20.7595 37.0183 20.8591 37.3715C20.8773 37.4295 20.8808 37.4954 20.9345 37.5378C21.2811 37.3221 21.5168 37.3498 21.801 37.6435C21.9353 37.784 22.0433 37.9475 22.1199 38.1261C22.2628 38.4441 22.3296 38.7847 22.4127 39.12C22.4907 39.4362 22.5496 39.7629 22.7377 40.0358C23.1137 40.5817 23.5539 41.0687 24.1595 41.3728C24.4284 41.495 24.6438 41.7105 24.7661 41.9793C24.8927 42.2453 25.1158 42.4531 25.3899 42.5607C25.6499 42.6751 25.928 42.7401 26.1931 42.8423C26.8265 43.0867 27.3516 43.4601 27.6713 44.0797C27.7935 44.3032 27.9209 44.5406 28.0595 44.8023H28.063ZM64.6627 53.3882C64.7257 53.348 64.7748 53.2892 64.8031 53.2201C65.2337 52.4212 65.621 51.5998 65.9633 50.7593C66.5493 49.3007 66.9874 47.7868 67.2708 46.2406C67.4562 45.2614 67.572 44.2703 67.6174 43.2747C67.6802 42.0082 67.6446 40.7388 67.5108 39.4778C67.4117 38.5842 67.2644 37.6965 67.0698 36.8186C66.5606 34.5734 65.7355 32.4117 64.6194 30.3981C63.9534 29.1989 63.194 28.0539 62.3484 26.9738C62.2617 26.8646 62.1751 26.7589 62.0884 26.6532C62.0624 26.6229 62.0364 26.577 61.9896 26.5926C61.9429 26.6082 61.9342 26.6671 61.9333 26.7156C61.9333 26.8334 61.929 26.9513 61.9333 27.0682C61.9339 27.3106 61.9083 27.5523 61.8571 27.7892C61.7453 28.3662 61.2705 28.5291 60.7982 28.5014C60.6237 28.4834 60.4481 28.5239 60.2992 28.6166C59.8815 28.8705 59.4197 28.7899 59.1225 28.4286C58.9712 28.2357 58.8937 27.9951 58.9041 27.7502C58.9093 27.6952 58.8964 27.64 58.8673 27.5931C58.8382 27.5461 58.7945 27.51 58.743 27.4902C58.6745 27.459 58.6026 27.4322 58.5333 27.4036C58.4665 27.3744 58.3932 27.3638 58.3209 27.3728C58.2487 27.3818 58.1801 27.4101 58.1226 27.4547C57.8531 27.628 57.6356 27.8403 57.5646 28.1713C57.4597 28.6504 57.1539 28.9598 56.7146 29.1504C56.651 29.1781 56.5888 29.2091 56.5283 29.2431C56.387 29.3182 56.2623 29.421 56.1618 29.5455C55.9659 29.7994 55.92 30.0654 56.0881 30.3556C56.1767 30.5043 56.2745 30.6472 56.381 30.7837C56.6669 31.1589 56.8237 31.573 56.6808 32.0453C56.5829 32.3728 56.3662 32.6275 56.1098 32.8467C55.8984 33.027 55.7008 33.2211 55.5032 33.4195C55.219 33.7097 55.148 34.026 55.3377 34.4012C55.5041 34.7287 55.6843 35.0493 55.8576 35.3716C56.1971 35.9925 56.4225 36.6693 56.5231 37.3697C56.5862 37.8784 56.6117 38.391 56.5993 38.9034C56.5944 39.0971 56.6095 39.2907 56.6444 39.4813C56.7683 40.0826 57.0724 40.5531 57.6218 40.8547C58.3149 41.2385 59.0653 41.3165 59.8365 41.2013C60.2257 41.1502 60.5831 40.9596 60.8424 40.6649C61.0512 40.4243 61.2398 40.1669 61.4065 39.8955C61.5215 39.6964 61.6826 39.5279 61.8764 39.4042C62.0702 39.2806 62.2909 39.2054 62.5199 39.185C63.3682 39.0983 63.9175 39.6563 63.7711 40.4526C63.7087 40.7931 63.6117 41.1259 63.5736 41.4707C63.5562 41.6293 63.5597 41.644 63.7001 41.612C64.0891 41.5253 64.4088 41.6674 64.6922 41.9161C64.9436 42.1477 65.1239 42.4462 65.212 42.7765C65.3138 43.1516 65.365 43.5385 65.3645 43.9272C65.3897 44.7642 65.4235 45.6012 65.4512 46.4399C65.472 47.1626 65.3301 47.8807 65.0362 48.5411C64.7539 49.1582 64.5128 49.7933 64.3144 50.4422C64.2455 50.6668 64.2096 50.9003 64.2078 51.1353C64.2078 51.2471 64.2295 51.3329 64.3464 51.3857C64.4158 51.4183 64.4757 51.468 64.5204 51.5302C64.5651 51.5924 64.5932 51.6649 64.6021 51.741C64.6193 51.8293 64.6289 51.9188 64.6306 52.0087C64.6367 52.4593 64.6852 52.9081 64.6592 53.3882H64.6627ZM29.3012 44.5155C29.2033 44.5337 29.1435 44.6073 29.0698 44.6559C28.8445 44.8049 28.6219 44.9574 28.3992 45.1099C28.3333 45.155 28.2683 45.2095 28.3299 45.2962C28.4824 45.5093 28.6583 45.6948 28.9459 45.7026C29.0984 45.7069 29.2509 45.7026 29.4034 45.7026C29.5832 45.6917 29.7637 45.6978 29.9424 45.7208C30.1748 45.7594 30.4113 45.7679 30.6459 45.7459C30.7211 45.7364 30.7953 45.7205 30.8678 45.6982C30.8821 45.697 30.896 45.6922 30.9081 45.6842C30.9201 45.6763 30.93 45.6654 30.9368 45.6527C30.9436 45.64 30.9471 45.6257 30.947 45.6113C30.9469 45.5968 30.9432 45.5826 30.9362 45.57C30.8922 45.4158 30.8241 45.2696 30.7343 45.1368C30.7072 45.1003 30.671 45.0716 30.6294 45.0536C30.5877 45.0355 30.542 45.0286 30.4969 45.0336C30.3446 45.0333 30.1927 45.0193 30.0429 44.9921C29.9184 44.981 29.7975 44.9445 29.6877 44.8849C29.5778 44.8253 29.4814 44.7438 29.4043 44.6455C29.3705 44.5996 29.3358 44.558 29.3012 44.5155ZM43.4541 17.4218C43.3926 17.3274 43.3475 17.2607 43.3059 17.1914C43.2655 17.1187 43.2469 17.036 43.2522 16.9531C43.2522 16.902 43.2228 16.8829 43.1751 16.8751C43.0121 16.849 42.8472 16.8362 42.6821 16.837C42.6684 16.8347 42.6544 16.8355 42.6412 16.8395C42.6279 16.8434 42.6157 16.8503 42.6055 16.8597C42.5953 16.869 42.5874 16.8806 42.5824 16.8935C42.5773 16.9064 42.5753 16.9202 42.5764 16.934C42.5607 17.0128 42.5736 17.0945 42.6129 17.1646C42.6521 17.2346 42.715 17.2884 42.7904 17.3161C42.994 17.3958 43.2132 17.3958 43.4541 17.4218Z" fill="#4E3D35"/>
<path d="M28.06 44.804C27.9214 44.544 27.794 44.3049 27.6701 44.0657C27.3504 43.4462 26.8253 43.0728 26.1919 42.8284C25.9268 42.7262 25.6486 42.6612 25.3887 42.5468C25.1145 42.4392 24.8915 42.2313 24.7648 41.9654C24.6426 41.6966 24.4271 41.4811 24.1583 41.3589C23.5518 41.0548 23.1125 40.5678 22.7364 40.0219C22.5484 39.749 22.4895 39.4223 22.4115 39.1061C22.3248 38.7707 22.2616 38.4302 22.1186 38.1122C22.0421 37.9336 21.9341 37.7701 21.7998 37.6296C21.5138 37.3359 21.2747 37.3081 20.9333 37.5239C20.8796 37.4814 20.8761 37.4156 20.8579 37.3575C20.7582 37.0044 20.6924 36.6426 20.6612 36.277C20.6361 36.0223 20.6032 35.7684 20.5676 35.5154C20.5013 35.0564 20.4859 34.5915 20.5217 34.1291C20.5408 33.8951 20.5321 33.6586 20.533 33.4229C20.533 33.0416 20.5226 32.6595 20.5391 32.2791C20.5619 31.6505 20.7 31.0314 20.9463 30.4526C21.0789 30.1459 21.2833 29.8808 21.4766 29.6104C21.9034 29.03 22.2915 28.4222 22.6385 27.7908C22.7719 27.5477 22.8754 27.2893 22.947 27.0214C23.0232 26.7254 23.1572 26.4475 23.3412 26.2035C23.7467 25.6654 24.0751 25.0771 24.4416 24.5156C24.7144 24.0816 25.0187 23.6683 25.3523 23.2791C25.5406 23.0555 25.6744 22.7912 25.7431 22.5071C25.7887 22.3334 25.8466 22.1631 25.9164 21.9976C25.9584 21.894 26.0283 21.8041 26.1183 21.7377C26.1792 21.6915 26.2371 21.6414 26.2915 21.5878C26.346 21.5442 26.3886 21.4874 26.4151 21.4228C26.4416 21.3583 26.4513 21.288 26.4432 21.2187C26.4352 21.1744 26.4423 21.1288 26.4634 21.089C26.4844 21.0493 26.5182 21.0177 26.5593 20.9994C26.8984 20.7846 27.2412 20.5755 27.5878 20.3721C28.1137 20.0637 28.6518 19.7786 29.1994 19.5057C29.2199 19.4898 29.2433 19.4781 29.2683 19.4715C29.2933 19.4648 29.3194 19.4631 29.345 19.4667C29.3501 19.5743 29.3345 19.682 29.2991 19.7838C29.189 20.2603 29.533 20.7534 30.1369 20.6711C30.4662 20.626 30.7929 20.5688 31.1204 20.5186C31.2798 20.4943 31.3361 20.5186 31.3855 20.6719C31.4229 20.7979 31.4539 20.9257 31.4782 21.0549C31.4994 21.1644 31.5461 21.2672 31.6147 21.3551C31.6833 21.443 31.7717 21.5134 31.8728 21.5605C31.9738 21.6076 32.0846 21.63 32.196 21.626C32.3074 21.6221 32.4163 21.5917 32.5137 21.5375C32.6064 21.489 32.7017 21.4465 32.7892 21.392C33.2738 21.092 33.8189 20.9032 34.3852 20.8391C34.6829 20.8082 34.9835 20.8513 35.2604 20.9648C35.3451 20.9962 35.4187 21.052 35.4718 21.1251C35.5912 21.2894 35.7624 21.4088 35.9579 21.4639C36.3625 21.5826 36.5843 21.8365 36.6155 22.2688C36.6337 22.4754 36.6415 22.6827 36.6389 22.8901C36.6337 23.1032 36.5636 23.1656 36.3599 23.2098C36.1682 23.2406 35.972 23.227 35.7863 23.17C35.6451 23.1353 35.5108 23.0746 35.3704 23.0374C35.3117 23.0266 35.2593 22.9935 35.2243 22.9451C35.1893 22.8967 35.1743 22.8366 35.1824 22.7774C35.1824 22.5903 35.1824 22.4023 35.1763 22.216C35.1564 21.8096 34.9164 21.5228 34.5334 21.4578C34.299 21.4128 34.0563 21.46 33.8558 21.5895C33.5188 21.794 33.263 22.1091 33.1323 22.4811C33.0972 22.6011 33.0424 22.7144 32.9703 22.8164C32.927 22.8794 32.8657 22.9279 32.7945 22.9556C32.7232 22.9832 32.6453 22.9888 32.5709 22.9715C32.4755 22.9533 32.3811 22.9317 32.2849 22.9195C32.1156 22.8979 31.9435 22.9153 31.7819 22.9704C31.6203 23.0255 31.4734 23.1169 31.3526 23.2375C31.0556 23.5051 30.7814 23.7969 30.5329 24.1101C30.3613 24.3286 30.2426 24.584 30.1863 24.8561C30.1101 25.22 30.2349 25.5181 30.5537 25.7044C30.7269 25.8073 30.9185 25.8753 31.1178 25.9045C31.3569 25.9392 31.363 25.9461 31.3639 26.1939C31.3639 26.3672 31.3639 26.5405 31.3639 26.7138C31.3672 26.888 31.4181 27.0579 31.5112 27.2051C31.7018 27.5066 32.0579 27.6383 32.3776 27.4884C32.959 27.2155 33.3767 26.8135 33.446 26.1203C33.4737 25.8447 33.4573 25.5666 33.5162 25.2937C33.539 25.1567 33.5894 25.0258 33.6643 24.909C33.686 24.8716 33.7155 24.8393 33.7508 24.8144C33.7861 24.7895 33.8264 24.7726 33.8689 24.7647C33.9114 24.7569 33.9551 24.7584 33.997 24.7691C34.0388 24.7798 34.0779 24.7994 34.1114 24.8266C34.2215 24.9003 34.3272 24.9783 34.4329 25.0563C34.8332 25.35 35.2872 25.467 35.7768 25.4834C36.0411 25.493 36.3019 25.4531 36.5644 25.441C36.7103 25.4303 36.8555 25.4681 36.9777 25.5484C37.0051 25.5684 37.0341 25.586 37.0644 25.6013C37.1819 25.6493 37.2885 25.7206 37.3778 25.8108C37.4672 25.901 37.5374 26.0084 37.5843 26.1263C37.7004 26.4062 37.9456 26.576 38.2176 26.6991C38.3745 26.7701 38.533 26.8412 38.6968 26.8975C39.0685 27.024 39.2522 27.2883 39.2921 27.6678C39.3042 27.7917 39.3215 27.9147 39.3311 28.0395C39.3406 28.1643 39.2895 28.244 39.1508 28.2717C39.0618 28.2879 38.9708 28.2894 38.8814 28.2761C38.605 28.2397 38.5348 28.1634 38.553 27.8835C38.5694 27.6236 38.5365 27.3845 38.3268 27.2025C38.027 26.9426 37.735 26.9174 37.4647 27.1522C37.2033 27.3918 36.8658 27.5314 36.5116 27.5465C36.2826 27.5637 36.0606 27.633 35.8626 27.7492C35.7145 27.8287 35.6024 27.9617 35.5489 28.121C35.5163 28.1999 35.5031 28.2856 35.5106 28.3707C35.518 28.4559 35.5459 28.5379 35.5918 28.61C35.6377 28.6821 35.7003 28.742 35.7743 28.7848C35.8482 28.8276 35.9314 28.8519 36.0168 28.8557C36.1409 28.8721 36.2669 28.8636 36.3877 28.8306C36.4613 28.8072 36.5038 28.8202 36.5159 28.9094C36.5272 29.0094 36.5654 29.1044 36.6265 29.1843C36.6875 29.2643 36.7691 29.3262 36.8625 29.3635C37.0054 29.4293 37.0141 29.4701 36.9093 29.5706C36.6767 29.8119 36.3785 29.9797 36.0515 30.0532C35.8314 30.0956 35.7352 30.0705 35.6312 29.8903C35.4579 29.5948 35.1573 29.5333 34.8609 29.7083C34.6616 29.8347 34.4878 29.9976 34.3489 30.1884C34.2423 30.3253 34.1435 30.4682 34.0387 30.6051C33.8167 30.8901 33.547 31.1343 33.2415 31.3269C32.8886 31.5605 32.5659 31.8366 32.2806 32.1492C32.0225 32.4067 31.8695 32.7511 31.8517 33.1153C31.837 33.6048 31.6143 33.9688 31.233 34.2556C30.9402 34.4765 30.6508 34.7027 30.3622 34.9297C30.1388 35.1074 29.9567 35.3315 29.8285 35.5865C29.7611 35.7124 29.7254 35.8528 29.7243 35.9956C29.7233 36.1383 29.7569 36.2792 29.8224 36.4061C29.9434 36.6243 30.0801 36.8334 30.2314 37.0317C30.322 37.1454 30.3975 37.2703 30.4558 37.4035C30.5147 37.5681 30.4974 37.6105 30.3423 37.6755C29.9385 37.8488 29.8224 37.8107 29.5937 37.4424C29.436 37.1894 29.293 36.9286 29.1336 36.6765C29.0187 36.4944 28.8667 36.3385 28.6876 36.2191C28.5084 36.0996 28.3061 36.0193 28.0938 35.9833C27.809 35.9213 27.5188 35.8873 27.2273 35.8819C27.0467 35.8757 26.8667 35.9082 26.6997 35.9772C26.3132 36.1505 25.912 36.2831 25.5403 36.4867C24.7111 36.946 24.2293 37.6443 24.121 38.5974C24.0742 38.9995 24.05 39.3981 24.1678 39.7914C24.272 40.1833 24.4984 40.5318 24.8142 40.7861C25.3757 41.2194 25.9519 41.2255 26.4856 40.735C26.6702 40.5661 26.8175 40.3624 26.9847 40.1779C27.2863 39.8452 27.4006 39.9769 27.5176 40.2567C27.5555 40.3426 27.5751 40.4354 27.5751 40.5292C27.5751 40.6231 27.5555 40.7159 27.5176 40.8017C27.3991 41.0604 27.3326 41.3398 27.3218 41.624C27.314 42.215 27.6346 42.6057 28.2203 42.7123C28.268 42.721 28.3148 42.7348 28.3624 42.7418C28.8658 42.8111 29.1977 43.2157 29.2081 43.7252C29.218 43.8231 29.198 43.9216 29.1506 44.0078C29.1033 44.094 29.0308 44.1637 28.9429 44.2078C28.644 44.3863 28.3667 44.5934 28.06 44.804Z" fill="#4E3D35" fill-opacity="0.6"/>
<path d="M64.6599 53.3886C64.6859 52.9086 64.6374 52.4597 64.6279 52.01C64.6261 51.9201 64.6165 51.8305 64.5993 51.7423C64.5904 51.6662 64.5623 51.5936 64.5176 51.5315C64.4729 51.4693 64.413 51.4196 64.3437 51.387C64.2267 51.3342 64.2068 51.2484 64.205 51.1366C64.2068 50.9016 64.2427 50.6681 64.3116 50.4434C64.51 49.7945 64.7511 49.1595 65.0334 48.5424C65.3288 47.8817 65.4718 47.163 65.4519 46.4395C65.4259 45.6016 65.3921 44.7646 65.3652 43.9267C65.365 43.5386 65.3131 43.1522 65.211 42.7778C65.1229 42.4474 64.9425 42.149 64.6911 41.9174C64.4078 41.6687 64.0846 41.5301 63.699 41.6132C63.5586 41.6427 63.5552 41.6306 63.5725 41.472C63.6106 41.1254 63.7077 40.7944 63.7701 40.4539C63.9165 39.6576 63.3671 39.1005 62.5189 39.1862C62.2899 39.2066 62.0692 39.2818 61.8754 39.4055C61.6816 39.5292 61.5204 39.6977 61.4054 39.8968C61.2388 40.1682 61.0501 40.4256 60.8414 40.6662C60.582 40.9609 60.2246 41.1514 59.8354 41.2025C59.0642 41.3152 58.3182 41.2372 57.6207 40.8559C57.0714 40.5544 56.7672 40.0839 56.6433 39.4826C56.6084 39.292 56.5933 39.0983 56.5983 38.9046C56.6106 38.3922 56.5851 37.8796 56.522 37.371C56.4214 36.6705 56.1961 35.9938 55.8566 35.3729C55.6833 35.0506 55.503 34.73 55.3367 34.4025C55.1469 34.0255 55.218 33.7093 55.5022 33.4207C55.6954 33.2223 55.893 33.0282 56.1087 32.848C56.3686 32.6288 56.5818 32.374 56.6797 32.0465C56.8227 31.5743 56.6658 31.1601 56.3799 30.7849C56.2735 30.6485 56.1756 30.5056 56.087 30.3569C55.9189 30.0684 55.9649 29.8006 56.1607 29.5468C56.2613 29.4223 56.3859 29.3194 56.5272 29.2444C56.5877 29.2103 56.6499 29.1794 56.7135 29.1516C57.1528 28.961 57.4587 28.6517 57.5635 28.1725C57.6346 27.8415 57.852 27.631 58.1215 27.456C58.1791 27.4113 58.2476 27.383 58.3199 27.3741C58.3921 27.3651 58.4655 27.3757 58.5322 27.4048C58.6015 27.4352 58.6735 27.462 58.7419 27.4915C58.7935 27.5113 58.8371 27.5474 58.8662 27.5943C58.8953 27.6413 58.9083 27.6964 58.9031 27.7514C58.8927 27.9964 58.9701 28.237 59.1214 28.4299C59.4186 28.7929 59.8805 28.8718 60.2981 28.6179C60.4471 28.5252 60.6226 28.4847 60.7972 28.5027C61.2694 28.5304 61.7442 28.3675 61.856 27.7904C61.9072 27.5535 61.9328 27.3119 61.9323 27.0695C61.9323 26.9525 61.9323 26.8347 61.9323 26.7169C61.9323 26.6683 61.9323 26.612 61.9886 26.5938C62.0449 26.5756 62.0614 26.6241 62.0874 26.6545C62.174 26.7602 62.2667 26.8659 62.3473 26.9751C63.193 28.0552 63.9523 29.2001 64.6183 30.3994C65.7345 32.413 66.5595 34.5747 67.0687 36.8199C67.2634 37.6977 67.4106 38.5854 67.5097 39.4791C67.6441 40.7397 67.6803 42.0089 67.6181 43.2751C67.5726 44.2704 67.4568 45.2613 67.2715 46.2402C66.9881 47.7864 66.55 49.3002 65.964 50.7588C65.6217 51.5993 65.2344 52.4208 64.8038 53.2196C64.7747 53.2896 64.7244 53.3487 64.6599 53.3886Z" fill="#4E3D35" fill-opacity="0.6"/>
<path d="M58.2468 24.5893C58.1406 24.5588 58.04 24.5114 57.9488 24.4489C57.8105 24.3693 57.655 24.3244 57.4956 24.3181C57.2027 24.3181 56.9116 24.5503 57.0095 24.929C57.0139 24.9576 57.0162 24.9866 57.0164 25.0156C56.9202 24.948 56.8329 24.8685 56.7565 24.7791C56.5846 24.6041 56.3526 24.501 56.1075 24.4905C55.5547 24.4758 55.1336 24.8882 55.1085 25.467C55.0942 25.8549 55.1271 26.243 55.2064 26.6229C55.2927 27.0345 55.2123 27.4636 54.9828 27.816C54.8199 28.076 54.6579 28.1297 54.3668 28.0344C54.1821 27.9722 54.0152 27.8661 53.8807 27.7251C53.6844 27.5285 53.5325 27.2921 53.4353 27.0319C53.3965 26.9385 53.3813 26.837 53.3911 26.7363C53.401 26.6356 53.4355 26.5389 53.4916 26.4548C53.6363 26.2399 53.7412 26.0216 53.6831 25.7556C53.6258 25.4317 53.4584 25.1375 53.2092 24.9229C52.9293 24.6924 52.9163 24.7175 53.2031 24.4593C53.2658 24.4051 53.3237 24.3457 53.3764 24.2817C53.5289 24.0885 53.6095 23.8745 53.5341 23.6241C53.5236 23.57 53.5094 23.5167 53.4916 23.4646C53.3721 23.2047 53.3955 22.9447 53.4683 22.6735C53.5458 22.393 53.5806 22.1023 53.5714 21.8114C53.5678 21.6311 53.5317 21.4529 53.4648 21.2855C53.3609 21.0285 53.2299 20.7833 53.074 20.5541C52.9705 20.3976 52.8367 20.2633 52.6806 20.159C52.2823 19.8935 51.8433 19.6948 51.3809 19.5707C51.3341 19.5586 51.2787 19.5334 51.2397 19.5482C51.1019 19.6002 51.0239 19.5239 50.9373 19.4381C50.5158 19.0335 49.9972 18.7443 49.4314 18.5985C49.3372 18.573 49.2383 18.5703 49.1428 18.5907C49.0741 18.6015 49.0098 18.6317 48.9577 18.6778C48.9055 18.7238 48.8675 18.7838 48.8482 18.8507C48.8032 18.9945 48.8673 19.1054 48.9661 19.2033C49.0271 19.2604 49.099 19.3047 49.1775 19.3333C49.2781 19.3794 49.3814 19.4193 49.4868 19.4529C49.8897 19.562 50.1956 19.8194 50.4876 20.0975C50.6427 20.2466 50.7943 20.3982 50.9468 20.5498C51.0421 20.6413 51.1143 20.7542 51.1574 20.8791C51.2059 21.0255 51.1574 21.1026 51.0014 21.1148C50.8899 21.1165 50.7799 21.0887 50.6826 21.0342C50.4898 20.9394 50.306 20.8274 50.1332 20.6997C50.0873 20.6686 50.0433 20.6348 50.0015 20.5983C49.6012 20.2249 49.1064 20.0915 48.5814 20.0351C48.3942 20.0152 48.3639 19.9736 48.4271 19.7986C48.4385 19.7669 48.4524 19.7362 48.4687 19.7067C48.6091 19.4468 48.5684 19.1973 48.4185 18.9607C48.11 18.472 47.7253 18.0622 47.1907 17.8161L47.1344 17.7884C47.0711 17.758 47.0001 17.7286 47.0321 17.6376C47.0399 17.5962 47.0624 17.559 47.0956 17.533C47.1288 17.507 47.1703 17.494 47.2124 17.4964C47.2673 17.5016 47.3218 17.5112 47.3752 17.525C49.0732 17.9275 50.7294 18.4891 52.3219 19.2025C53.8328 19.8803 55.2789 20.6944 56.6421 21.6346C56.8587 21.7837 57.071 21.9388 57.2868 22.0895C57.3734 22.1519 57.4427 22.2091 57.4124 22.3417C57.4045 22.3869 57.4058 22.4333 57.4164 22.478C57.427 22.5227 57.4466 22.5647 57.4739 22.6016C57.6152 22.8148 57.6936 23.0634 57.7001 23.3191C57.7278 23.6769 57.8976 23.9923 58.0935 24.2912C58.1648 24.3757 58.2251 24.4688 58.2728 24.5685L58.2468 24.5893Z" fill="#4E3D35" fill-opacity="0.6"/>
<path d="M29.3013 44.5156C29.3359 44.5581 29.3706 44.6023 29.4044 44.643C29.4815 44.7414 29.5779 44.8229 29.6877 44.8825C29.7976 44.9421 29.9185 44.9785 30.043 44.9896C30.1928 45.0169 30.3447 45.0308 30.497 45.0312C30.5421 45.0261 30.5878 45.033 30.6294 45.0511C30.6711 45.0692 30.7073 45.0979 30.7344 45.1343C30.8241 45.2671 30.8923 45.4134 30.9363 45.5675C30.9433 45.5802 30.947 45.5944 30.9471 45.6088C30.9472 45.6233 30.9437 45.6375 30.9369 45.6503C30.9301 45.663 30.9202 45.6738 30.9081 45.6818C30.8961 45.6897 30.8822 45.6946 30.8678 45.6958C30.7954 45.718 30.7212 45.734 30.646 45.7434C30.4114 45.7654 30.1749 45.757 29.9424 45.7183C29.7646 45.6958 29.585 45.69 29.4061 45.701C29.2536 45.701 29.1011 45.7079 28.9486 45.701C28.6609 45.6932 28.485 45.5078 28.3325 45.2946C28.271 45.208 28.3325 45.1534 28.4019 45.1083C28.6245 44.9558 28.8472 44.8033 29.0725 44.6543C29.1462 44.6075 29.2033 44.5338 29.3013 44.5156Z" fill="#4E3D35" fill-opacity="0.6"/>
<path d="M43.4548 17.4203C43.2139 17.3943 42.9946 17.3943 42.791 17.3129C42.716 17.2851 42.6533 17.2317 42.6141 17.162C42.5749 17.0923 42.5617 17.011 42.577 16.9325C42.5761 16.9188 42.5784 16.9052 42.5836 16.8925C42.5887 16.8798 42.5967 16.8685 42.6069 16.8593C42.617 16.8502 42.6291 16.8434 42.6422 16.8396C42.6554 16.8358 42.6692 16.8349 42.6827 16.8372C42.8478 16.8364 43.0127 16.8492 43.1757 16.8753C43.2234 16.8831 43.2537 16.9022 43.2529 16.9533C43.2475 17.0362 43.2662 17.1189 43.3066 17.1916C43.3482 17.2591 43.3932 17.3259 43.4548 17.4203Z" fill="#4E3D35" fill-opacity="0.6"/>
<path d="M58.2742 24.5664C58.2976 24.5863 58.3426 24.6141 58.3149 24.6383C58.2872 24.6626 58.2629 24.6175 58.2465 24.5898L58.2742 24.5664Z" fill="#4E3D35" fill-opacity="0.6"/>
<path d="M43.2309 61.1316C43.2725 61.2581 43.3132 61.3681 43.3444 61.4781C43.3877 61.6221 43.3888 61.7755 43.3475 61.92C43.3061 62.0645 43.2242 62.1942 43.1113 62.2935C42.9798 62.417 42.828 62.517 42.6625 62.589C42.4546 62.6843 42.2492 62.7831 42.0395 62.8732C41.7899 62.9806 41.573 63.1518 41.4105 63.3696C41.3307 63.4745 41.2528 63.5811 41.1644 63.6781C41.1469 63.6922 41.133 63.7101 41.1237 63.7305C41.1144 63.7509 41.11 63.7731 41.1109 63.7955C41.1117 63.8179 41.1178 63.8398 41.1286 63.8594C41.1394 63.8791 41.1546 63.8959 41.173 63.9086C41.2597 63.9952 41.3463 64.0819 41.4417 64.1685C41.6091 64.3244 41.7633 64.494 41.9026 64.6754C42.296 65.1693 41.8428 66.0202 41.2389 66.0462C40.9235 66.0661 40.6074 66.0205 40.3105 65.9123C40.0136 65.804 39.7423 65.6354 39.5138 65.4171C38.9981 64.9328 38.5688 64.364 38.2444 63.7353C37.7323 62.7631 37.4412 61.7216 37.176 60.6663C36.9343 59.7053 36.6561 58.76 36.2307 57.8563C35.9976 57.3615 35.7178 56.8911 35.4414 56.4188C35.3345 56.2484 35.207 56.0919 35.0618 55.9527C34.6 55.4822 34.1148 55.0377 33.6114 54.6122C33.1792 54.2534 32.7789 53.858 32.4148 53.4304C31.769 52.6466 31.3127 51.7245 31.0813 50.7356C30.9444 50.1837 31.07 49.6638 31.3854 49.1916C31.5946 48.898 31.8199 48.6162 32.0604 48.3476C32.2591 48.1211 32.3638 47.8273 32.3533 47.5262C32.3481 47.3321 32.3472 47.1381 32.3342 46.9448C32.2987 46.4189 32.2735 45.8921 32.2138 45.3687C32.16 44.8896 32.3377 44.5334 32.7076 44.2518C33.0621 43.9846 33.4524 43.7685 33.867 43.6098C33.946 43.5853 34.0202 43.5471 34.0862 43.4971C34.1507 43.4432 34.2303 43.4105 34.3141 43.4037C34.3979 43.3969 34.4817 43.4162 34.5541 43.459C34.7545 43.557 34.9252 43.7065 35.0488 43.8923C35.15 44.0335 35.2767 44.1546 35.4223 44.2492C35.5603 44.3454 35.7298 44.3854 35.8962 44.361C36.1526 44.3396 36.3994 44.2538 36.6137 44.1115C36.9377 43.8732 37.2887 43.8567 37.6595 43.9876C38.007 44.1105 38.3298 44.2945 38.6126 44.5308C38.8041 44.6894 39.0069 44.8384 39.188 45.0083C39.4609 45.2682 39.7945 45.3549 40.148 45.4112C40.4859 45.4632 40.8256 45.4476 41.1644 45.4588C41.5458 45.4621 41.9262 45.4989 42.3012 45.5689C43.1174 45.7422 43.594 46.2725 43.6694 47.1008C43.6751 47.1767 43.6852 47.2522 43.6997 47.3269C43.7395 47.5306 43.7863 47.5739 43.9951 47.6172C44.2828 47.6779 44.5618 47.6172 44.8391 47.5574C45.0489 47.5085 45.267 47.5068 45.4775 47.5525C45.6881 47.5982 45.8858 47.6902 46.0565 47.8217C46.1356 47.8784 46.21 47.9413 46.2792 48.0097C46.4542 48.1777 46.6732 48.2928 46.9108 48.3416C47.3831 48.4477 47.8614 48.5247 48.3431 48.5721C48.9648 48.635 49.566 48.829 50.1072 49.1413C50.7536 49.5208 51.0326 50.0867 51.0742 50.8032C51.0971 51.1361 51.0538 51.4701 50.9469 51.7862C50.8399 52.1022 50.6715 52.3939 50.4512 52.6445C50.3646 52.7502 50.2719 52.8568 50.1731 52.9529C49.8074 53.3056 49.6532 53.7492 49.6237 54.2405C49.5804 54.9614 49.3413 55.6269 49.0129 56.2525C48.8901 56.4903 48.7187 56.6997 48.5097 56.8669C48.3007 57.0341 48.0588 57.1554 47.7998 57.2229C47.5396 57.2939 47.285 57.3843 47.0382 57.4932C46.8794 57.564 46.7379 57.6686 46.6237 57.7997C46.5095 57.9308 46.4254 58.0853 46.3771 58.2523C46.3389 58.3701 46.3008 58.4888 46.2688 58.6093C46.118 59.1463 45.8235 59.6319 45.417 60.0138C45.0382 60.3813 44.6044 60.6873 44.1312 60.921C43.997 60.9945 43.8528 61.0483 43.7031 61.0804C43.5515 61.1073 43.399 61.1142 43.2309 61.1316ZM50.2831 50.9575C50.2831 50.9089 50.2831 50.8604 50.2831 50.8119C50.2841 50.6068 50.2297 50.4053 50.1257 50.2285C50.0217 50.0518 49.8719 49.9064 49.6922 49.8077C49.2703 49.5668 48.8035 49.4152 48.3206 49.3623C47.8483 49.3008 47.3726 49.2704 46.9082 49.1483C46.5452 49.0538 46.176 48.9862 45.8901 48.715C45.8295 48.6578 45.7671 48.6024 45.7056 48.5469C45.6048 48.4462 45.4791 48.374 45.3413 48.338C45.2035 48.3019 45.0586 48.3031 44.9214 48.3416C44.593 48.4294 44.2505 48.4509 43.9137 48.4048C43.3453 48.3182 43.016 48.0115 42.9207 47.4457C42.9034 47.3443 42.8904 47.2412 42.88 47.1381C42.8401 46.7273 42.6348 46.4761 42.2414 46.3634C42.1747 46.345 42.107 46.3305 42.0387 46.3201C41.5933 46.2541 41.143 46.2275 40.693 46.2404C40.3885 46.2402 40.0847 46.2086 39.7867 46.1459C39.4223 46.0865 39.0798 45.933 38.7929 45.7006C38.5606 45.503 38.3224 45.3133 38.0867 45.12C37.8989 44.9657 37.6893 44.8401 37.4646 44.7475C37.3898 44.7106 37.3063 44.6954 37.2233 44.7033C37.1404 44.7113 37.0613 44.7422 36.9949 44.7925C36.7701 44.9425 36.5177 45.0462 36.2524 45.0975C36.0141 45.1612 35.7643 45.169 35.5224 45.1203C35.2806 45.0716 35.0533 44.9677 34.8582 44.8168C34.6826 44.6815 34.5297 44.5192 34.4051 44.3359C34.3444 44.2492 34.2777 44.2059 34.1772 44.2492C33.7675 44.4214 33.3941 44.6695 33.0768 44.9805C33.0444 45.0076 33.0194 45.0426 33.0043 45.082C32.9891 45.1214 32.9842 45.164 32.9901 45.2058C33.0109 45.3636 33.023 45.5224 33.0265 45.6815C33.0811 46.295 33.1374 46.9076 33.1417 47.5245C33.1473 48.0286 32.9637 48.5165 32.6271 48.8918C32.4273 49.1128 32.2393 49.3442 32.0639 49.585C31.9538 49.7317 31.8784 49.9016 31.8434 50.0817C31.8085 50.2618 31.8148 50.4474 31.862 50.6247C32.1837 51.8615 32.8841 52.9667 33.8652 53.7856C34.4856 54.3176 35.1026 54.8531 35.671 55.4423C35.8146 55.5832 35.9422 55.7395 36.0513 55.9085C36.3771 56.4273 36.6753 56.9629 36.9447 57.5132C37.3267 58.3514 37.6299 59.2234 37.8501 60.1178C38.0312 60.811 38.1967 61.5041 38.4307 62.1748C38.7409 63.0586 39.1446 63.8852 39.7876 64.581C39.9967 64.8222 40.2514 65.0198 40.5371 65.1624C40.7225 65.2412 40.9251 65.271 41.1254 65.249C41.2502 65.2412 41.2831 65.1719 41.2164 65.0688C41.1433 64.9675 41.058 64.8755 40.9625 64.795C40.8103 64.6636 40.6684 64.5208 40.5379 64.3678C40.3074 64.075 40.1567 63.653 40.518 63.231C40.5899 63.1444 40.661 63.0577 40.726 62.9711C41.0153 62.5694 41.4151 62.2603 41.8766 62.0812C42.0718 62.0099 42.26 61.9209 42.439 61.8152C42.6045 61.7104 42.6123 61.6948 42.5343 61.5154C42.4584 61.3677 42.3916 61.2155 42.3341 61.0596C42.2353 60.7243 42.3809 60.4687 42.7188 60.3777C42.889 60.3374 43.0642 60.3222 43.2387 60.3327C43.4333 60.3387 43.6262 60.2952 43.7993 60.2062C44.1802 60.0141 44.5318 59.7688 44.8434 59.4775C45.2137 59.1183 45.4709 58.6587 45.5834 58.1552C45.651 57.8491 45.7908 57.5636 45.9911 57.3225C46.1914 57.0813 46.4464 56.8915 46.7349 56.7689C46.9935 56.6515 47.2613 56.5556 47.5355 56.4821C47.6981 56.4449 47.851 56.374 47.9844 56.274C48.1179 56.174 48.2288 56.0471 48.3102 55.9015C48.4719 55.5955 48.6036 55.2746 48.7035 54.9432C48.8127 54.6114 48.8179 54.2622 48.8699 53.9217C48.9375 53.4884 49.0553 53.0699 49.3465 52.7207C49.4964 52.5396 49.6497 52.3611 49.8083 52.187C50.1223 51.8557 50.293 51.4138 50.2831 50.9575Z" fill="#4E3D35"/>
<path d="M43.106 20.2859C43.1277 20.7443 42.9864 21.1307 42.6095 21.4123C42.4492 21.5328 42.2915 21.6567 42.1321 21.7788C41.9933 21.883 41.8724 22.0091 41.7742 22.1523C41.6177 22.3675 41.5493 22.6343 41.5827 22.8983C41.6059 23.0707 41.6187 23.2443 41.6209 23.4182C41.6261 23.8038 41.3861 24.0629 40.9979 24.0759C40.5779 24.0973 40.1632 23.9751 39.8221 23.7293C39.3185 23.3716 38.8656 22.9475 38.4756 22.4686C38.363 22.3277 38.2772 22.1673 38.2226 21.9955C38.1532 21.7758 38.1569 21.5396 38.233 21.3222C38.3196 21.0519 38.3101 21.0155 38.0952 20.8413C37.9537 20.7189 37.8028 20.608 37.6438 20.5095C37.5631 20.4694 37.4938 20.4098 37.4419 20.3362C37.4121 20.2857 37.3676 20.2456 37.3143 20.2212C37.261 20.1969 37.2015 20.1895 37.1438 20.2001C36.8977 20.2114 36.6811 20.123 36.5624 19.9064C36.3241 19.4732 36.3207 19.1898 36.5962 18.8476C36.9148 18.4617 37.3102 18.1462 37.7573 17.9213C38.2034 17.6985 38.6853 17.556 39.1809 17.5002C39.9954 17.3884 40.6452 17.6796 41.2093 18.2306C41.3176 18.3372 41.4199 18.4516 41.5212 18.5642C41.7219 18.7963 41.9832 18.968 42.2759 19.0599C42.7958 19.2167 43.0401 19.5797 43.0904 20.0996C43.0965 20.1611 43.1008 20.227 43.106 20.2859ZM40.7943 23.27C40.7943 23.1132 40.7943 22.9754 40.7943 22.8368C40.7802 22.6499 40.7987 22.462 40.8488 22.2814C40.9847 21.8563 41.2441 21.4813 41.594 21.2044C41.7806 21.0605 41.9672 20.9161 42.1537 20.7711C42.2018 20.7367 42.2409 20.6912 42.2674 20.6383C42.294 20.5855 42.3073 20.527 42.3062 20.4679C42.3062 20.3916 42.3062 20.3154 42.3062 20.2391C42.2959 19.9289 42.2638 19.8925 41.9787 19.7894C41.5646 19.6456 41.1966 19.3933 40.913 19.059C40.7385 18.8525 40.5398 18.6677 40.3212 18.5088C40.1228 18.3538 39.8797 18.2671 39.628 18.2618C39.3585 18.2618 39.0898 18.2908 38.8265 18.3485C38.4227 18.4412 38.064 18.6353 37.7122 18.845C37.5721 18.9344 37.4384 19.0335 37.3119 19.1413C37.2834 19.1672 37.2632 19.2008 37.2536 19.2381C37.2441 19.2754 37.2457 19.3146 37.2582 19.351C37.2729 19.4281 37.3448 19.4073 37.3942 19.4125C37.505 19.4215 37.6127 19.4536 37.7103 19.5067C37.8079 19.5598 37.8932 19.6328 37.9609 19.721C38.0023 19.7764 38.0517 19.8254 38.1073 19.8665C38.2486 19.9653 38.3915 20.0641 38.5258 20.1733C39.0015 20.5589 39.2112 20.876 38.9911 21.5432C38.9723 21.5988 38.9661 21.658 38.9732 21.7163C38.9802 21.7747 39.0003 21.8307 39.0319 21.8802C39.1083 22.0125 39.2035 22.133 39.3143 22.2381C39.5613 22.4703 39.8065 22.7042 40.0612 22.9312C40.2594 23.125 40.5183 23.2446 40.7943 23.27Z" fill="#4E3D35"/>
<path d="M45.9739 31.8839C45.7954 31.9827 45.6386 32.0685 45.4826 32.156C45.175 32.3293 44.87 32.5069 44.5598 32.6759C44.3879 32.7806 44.2229 32.8964 44.0659 33.0225C44.0401 33.039 44.0203 33.0635 44.0095 33.0922C43.9987 33.121 43.9976 33.1524 44.0061 33.1819C44.0292 33.2904 44.0403 33.4011 44.0391 33.512C44.0395 33.5537 44.0378 33.5953 44.0339 33.6368C44.0297 33.6892 44.0053 33.7379 43.9658 33.7727C43.9264 33.8074 43.875 33.8255 43.8225 33.8231C43.7962 33.8225 43.7704 33.8167 43.7465 33.8061C43.7225 33.7954 43.701 33.78 43.683 33.7609C43.6651 33.7418 43.6512 33.7192 43.6421 33.6947C43.633 33.6701 43.6289 33.6439 43.6301 33.6177C43.6214 33.4661 43.6206 33.3145 43.6015 33.1628C43.5993 33.1113 43.5805 33.0618 43.5478 33.0218C43.5152 32.9818 43.4705 32.9535 43.4204 32.941C43.3095 32.9029 43.2003 32.8587 43.0903 32.8171C42.9499 32.7634 42.8945 32.6819 42.9231 32.5728C42.9517 32.4636 43.0496 32.4116 43.1908 32.4385C43.3411 32.4691 43.4867 32.5192 43.624 32.5875C43.6601 32.6064 43.7006 32.6151 43.7412 32.6126C43.7818 32.6102 43.821 32.5967 43.8545 32.5736C43.9818 32.5036 44.1043 32.4252 44.221 32.3388L45.4341 31.3597C45.4653 31.3337 45.4939 31.3051 45.5355 31.2661C45.4835 31.2124 45.4384 31.163 45.3908 31.1162L43.8242 29.5852C43.7477 29.5247 43.6907 29.4431 43.6604 29.3504C43.6128 29.1563 43.7514 29.0142 43.9429 29.0714C44.0208 29.0995 44.0967 29.1331 44.1699 29.1719C44.987 29.5488 45.8041 29.924 46.6185 30.3061C46.6606 30.3277 46.7073 30.3389 46.7546 30.3389C46.8019 30.3389 46.8485 30.3277 46.8906 30.3061C47.375 30.0999 47.8611 29.8997 48.3463 29.6996C48.3895 29.6775 48.4352 29.6606 48.4823 29.6493C48.52 29.6426 48.5588 29.6458 48.5949 29.6587C48.6309 29.6715 48.663 29.6936 48.6879 29.7226C48.7129 29.7517 48.7298 29.7867 48.7371 29.8243C48.7443 29.8619 48.7416 29.9007 48.7293 29.937C48.6904 30.0412 48.6217 30.1316 48.5317 30.1969C48.1773 30.4846 47.8273 30.7792 47.4703 31.0634C47.4213 31.0988 47.3816 31.1457 47.3547 31.1999C47.3279 31.254 47.3146 31.314 47.3161 31.3744C47.2753 32.3501 47.2225 33.3257 47.1722 34.3014C47.1618 34.4972 47.0925 34.5804 46.9435 34.5899C46.7944 34.5994 46.7156 34.531 46.6671 34.3629C46.5804 34.057 46.4938 33.7494 46.4115 33.4427C46.2685 32.9376 46.129 32.4246 45.9739 31.8839Z" fill="#4E3D35"/>
<path d="M48.0352 22.1984C48.0179 21.9801 48.1219 21.8068 48.2406 21.6439C48.3272 21.5269 48.4624 21.5113 48.5976 21.5226C48.7772 21.5418 48.9517 21.5941 49.1122 21.6768C49.3811 21.8028 49.6581 21.9105 49.9414 21.9991C50.4336 22.162 50.8218 22.4844 51.1796 22.8457C51.2876 22.9636 51.3666 23.1051 51.4101 23.259C51.5425 23.6453 51.6311 24.0452 51.6744 24.4512C51.7047 24.8082 51.5444 25.0534 51.2039 25.1583C50.8174 25.2779 50.5107 25.1687 50.2889 24.8282C50.237 24.7549 50.1951 24.675 50.1641 24.5907C50.1484 24.5338 50.1129 24.4844 50.0639 24.4514C50.015 24.4183 49.9559 24.4038 49.8973 24.4105C49.7865 24.411 49.6759 24.4031 49.5663 24.3871C49.2481 24.3389 48.9574 24.1788 48.7466 23.9357C48.3108 23.4375 48.1219 22.8379 48.0352 22.1984ZM50.7819 24.0293C50.7914 24.044 50.762 24.0882 50.8096 24.0709C50.8174 24.0709 50.8036 24.0345 50.7784 24.0319C50.755 23.6749 50.6554 23.3656 50.3452 23.1359C50.0683 22.9157 49.756 22.744 49.4216 22.6282C49.2335 22.5693 49.0689 22.4549 48.8627 22.3821C48.9145 22.6692 49.0178 22.9446 49.1677 23.1949C49.3271 23.4687 49.5489 23.6333 49.8929 23.6281C50.1305 23.6145 50.3658 23.6803 50.5618 23.8153C50.6485 23.8759 50.6892 23.9782 50.7819 24.0293Z" fill="#4E3D35"/>
<path d="M30.3238 38.7341C30.7877 38.7621 31.2428 38.8731 31.6677 39.0616C31.7748 39.1098 31.8915 39.1332 32.009 39.13C32.2587 39.1207 32.5083 39.1499 32.749 39.2167C32.9376 39.2647 33.112 39.3571 33.2576 39.4862C33.5332 39.7366 33.5652 40.0624 33.3373 40.357C33.1095 40.6516 32.7698 40.8136 32.3981 40.8768C31.9989 40.9572 31.584 40.8852 31.2353 40.675C30.6712 40.3284 30.0586 40.2591 29.42 40.2807C29.3715 40.2807 29.323 40.2876 29.2745 40.2885C29.0422 40.2928 28.9175 40.1897 28.8733 39.9575C28.8354 39.7238 28.8798 39.4841 28.999 39.2795C29.1181 39.0748 29.3046 38.9179 29.5266 38.8354C29.7838 38.753 30.0541 38.7186 30.3238 38.7341ZM31.3886 39.883C31.4484 39.9133 31.5091 39.9411 31.5671 39.9748C31.7118 40.056 31.8729 40.1037 32.0385 40.1143C32.2257 40.1384 32.415 40.0917 32.5696 39.9835C32.3694 39.9245 32.1602 39.9016 31.9519 39.9159C31.7903 39.9213 31.6292 39.896 31.477 39.8414C31.4701 39.8293 31.4666 39.8111 31.4571 39.8068C31.0602 39.6118 30.6255 39.5062 30.1834 39.4974C30.1145 39.4876 30.0442 39.5014 29.9841 39.5364C30.4667 39.5979 30.9545 39.6352 31.3886 39.883Z" fill="#4E3D35"/>
<path d="M34.2155 41.8074C33.9781 41.8134 33.7035 41.7771 33.4279 41.7632C33.2919 41.7563 33.0813 41.5552 33.0363 41.3993C33.0242 41.3525 33.0207 41.304 33.0077 41.258C32.921 40.9686 32.9696 40.83 33.2252 40.6888C33.6863 40.4206 34.1865 40.2262 34.7077 40.1126C35.0774 40.0436 35.459 40.0787 35.8098 40.2139C35.8613 40.2342 35.9106 40.2594 35.9571 40.2893C36.3037 40.5025 36.3696 40.8551 36.114 41.1705C35.9391 41.3783 35.7121 41.5359 35.4563 41.6272C35.0569 41.7823 34.7995 41.8195 34.2155 41.8074ZM34.3706 41.0328C34.6444 41.0665 34.8957 40.992 35.186 40.8898C34.8654 40.8265 34.6202 40.9478 34.3706 41.0328Z" fill="#4E3D35"/>
<path d="M45.2676 22.1653C45.1283 22.17 44.9893 22.1489 44.8577 22.1029C44.5111 21.9972 44.1879 21.8429 43.8543 21.7138C43.7046 21.6537 43.5813 21.5422 43.5064 21.3992C43.4316 21.2563 43.4103 21.0913 43.4462 20.934C43.5078 20.655 43.6767 20.5224 43.9661 20.5441C44.0417 20.5467 44.1168 20.5303 44.1845 20.4964C44.4011 20.4049 44.6276 20.3386 44.8595 20.2989C45.3516 20.2122 45.6523 20.3855 45.8472 20.8439C45.9456 21.0807 46.0059 21.3316 46.0257 21.5873C46.05 21.8646 45.9096 22.0474 45.6393 22.1219C45.5176 22.1515 45.3928 22.1661 45.2676 22.1653ZM45.2017 21.375C45.161 21.2624 45.1359 21.1844 45.1055 21.1082C45.1017 21.0881 45.0908 21.0701 45.075 21.0573C45.0591 21.0445 45.0393 21.0376 45.0189 21.038C44.8584 21.0424 44.7001 21.0761 44.5519 21.1376C44.7572 21.2446 44.9757 21.3244 45.2017 21.375Z" fill="#4E3D35"/>
<path d="M22.1546 49.6877C22.193 49.686 22.2312 49.6951 22.2646 49.7141C22.298 49.7331 22.3254 49.7612 22.3435 49.7952C22.3645 49.8272 22.3757 49.8647 22.3757 49.903C22.3757 49.9414 22.3645 49.9789 22.3435 50.0109C22.3077 50.062 22.2617 50.1051 22.2083 50.1374C21.5227 50.6319 20.8367 51.1258 20.1505 51.6191C20.1063 51.652 20.0583 51.6793 20.0075 51.7005C19.9618 51.7191 19.911 51.7206 19.8644 51.7046C19.8177 51.6887 19.7784 51.6565 19.7536 51.6139C19.7271 51.5766 19.7142 51.5314 19.7172 51.4857C19.7202 51.4401 19.7389 51.3969 19.7701 51.3635C19.8071 51.3224 19.849 51.286 19.8948 51.2551L21.9371 49.7874C21.9962 49.7304 22.0729 49.6952 22.1546 49.6877Z" fill="#4E3D35"/>
<path d="M24.0802 48.42C24.0419 48.4222 24.0038 48.4133 23.9705 48.3944C23.9371 48.3755 23.9099 48.3473 23.8922 48.3134C23.8733 48.2799 23.8641 48.2419 23.8655 48.2035C23.8669 48.1652 23.8788 48.1279 23.9 48.0959C23.9404 48.0398 23.9906 47.9914 24.0481 47.9529L25.9232 46.4444C25.9643 46.4078 26.0094 46.3759 26.0575 46.3491C26.1003 46.3263 26.1497 46.3189 26.1973 46.3281C26.245 46.3372 26.288 46.3625 26.3193 46.3996C26.3507 46.4366 26.3683 46.4833 26.3694 46.5319C26.3704 46.5804 26.3548 46.6278 26.3252 46.6662C26.2901 46.7091 26.25 46.7475 26.2056 46.7806C25.5766 47.2883 24.9464 47.7955 24.315 48.3021C24.254 48.3691 24.1704 48.4111 24.0802 48.42Z" fill="#4E3D35"/>
<path d="M38.4715 37.2031C38.5069 37.2034 38.5416 37.2131 38.572 37.2313C38.6025 37.2494 38.6276 37.2752 38.6448 37.3062C38.6668 37.3419 38.6777 37.3833 38.676 37.4251C38.6743 37.467 38.6601 37.5073 38.6352 37.541C38.6015 37.5852 38.5598 37.6225 38.5122 37.6511L36.658 38.9872C36.6036 39.0297 36.5456 39.0674 36.4847 39.0998C36.4385 39.125 36.3845 39.1318 36.3335 39.1188C36.2825 39.1058 36.2384 39.0739 36.21 39.0297C36.1841 38.9885 36.1727 38.9399 36.1776 38.8916C36.1825 38.8433 36.2033 38.7979 36.2368 38.7628C36.2756 38.7232 36.3186 38.6881 36.3651 38.6579L38.2652 37.2794C38.3232 37.231 38.396 37.2041 38.4715 37.2031Z" fill="#4E3D35"/>
<path d="M40.3939 35.9773C40.3543 35.9794 40.315 35.9698 40.2808 35.9498C40.2467 35.9298 40.2191 35.9002 40.2015 35.8646C40.1824 35.8314 40.1733 35.7933 40.1755 35.755C40.1776 35.7167 40.1909 35.6798 40.2137 35.6489C40.2507 35.5988 40.2968 35.5562 40.3497 35.5233L42.1364 34.2019C42.1696 34.1767 42.2057 34.1555 42.2438 34.1386C42.2874 34.1175 42.3369 34.1118 42.3841 34.1225C42.4314 34.1332 42.4736 34.1597 42.5038 34.1976C42.5361 34.2387 42.5527 34.2901 42.5504 34.3423C42.5482 34.3946 42.5274 34.4444 42.4916 34.4826C42.4588 34.518 42.4222 34.5496 42.3825 34.5771C41.7967 35.0074 41.2107 35.4375 40.6244 35.8672C40.5542 35.9201 40.4857 35.9842 40.3939 35.9773Z" fill="#4E3D35"/>
<path d="M30.8505 43.4188C30.8093 43.4224 30.768 43.4136 30.7319 43.3936C30.6957 43.3735 30.6664 43.3431 30.6477 43.3062C30.629 43.2729 30.62 43.235 30.6218 43.1968C30.6237 43.1587 30.6362 43.1218 30.6581 43.0904C30.7 43.0351 30.752 42.9884 30.8115 42.9527L32.3512 41.8263C32.3947 41.7932 32.4411 41.7642 32.4899 41.7396C32.5326 41.7165 32.5822 41.7092 32.6298 41.7192C32.6774 41.7292 32.72 41.7558 32.7498 41.7942C32.7833 41.8347 32.8004 41.8863 32.7976 41.9387C32.7949 41.9912 32.7726 42.0407 32.7351 42.0775C32.7015 42.1123 32.6643 42.1434 32.6242 42.1703L31.0359 43.3339C30.9761 43.3764 30.9163 43.4266 30.8505 43.4188Z" fill="#4E3D35"/>
<path d="M50.2831 50.9564C50.2923 51.4119 50.1217 51.8527 49.8083 52.1834C49.6497 52.3567 49.4964 52.536 49.3465 52.7171C49.0553 53.0637 48.9375 53.4822 48.8699 53.918C48.8179 54.2586 48.8127 54.6112 48.7035 54.9396C48.6036 55.271 48.4719 55.5919 48.3102 55.8979C48.2288 56.0435 48.1179 56.1704 47.9844 56.2703C47.851 56.3703 47.6981 56.4412 47.5355 56.4785C47.2613 56.552 46.9935 56.6479 46.7349 56.7653C46.4464 56.8879 46.1914 57.0777 45.9911 57.3189C45.7908 57.56 45.651 57.8455 45.5834 58.1516C45.4714 58.656 45.2141 59.1165 44.8434 59.4764C44.5292 59.7703 44.1744 60.0175 43.7898 60.2103C43.6167 60.2994 43.4238 60.3429 43.2292 60.3369C43.0546 60.3264 42.8795 60.3415 42.7093 60.3819C42.3714 60.4686 42.2258 60.7285 42.3246 61.0638C42.382 61.2197 42.4489 61.3719 42.5248 61.5196C42.601 61.6989 42.5949 61.7145 42.4294 61.8194C42.2505 61.925 42.0623 62.0141 41.8671 62.0854C41.4055 62.2644 41.0058 62.5736 40.7164 62.9753C40.6515 63.0619 40.5804 63.1485 40.5085 63.2352C40.1472 63.6572 40.2979 64.0791 40.5284 64.372C40.6589 64.525 40.8008 64.6678 40.953 64.7992C41.0485 64.8797 41.1338 64.9716 41.2069 65.073C41.2736 65.1761 41.2407 65.2463 41.1159 65.2532C40.9156 65.2752 40.713 65.2453 40.5275 65.1666C40.2419 65.024 39.9872 64.8264 39.7781 64.5852C39.1351 63.892 38.7314 63.0628 38.4212 62.179C38.1855 61.5049 38.0217 60.8117 37.8406 60.122C37.6237 59.2261 37.3238 58.3524 36.9447 57.5122C36.6768 56.9647 36.3804 56.4316 36.0566 55.9153C35.9474 55.7463 35.8198 55.5899 35.6762 55.4491C35.1078 54.8599 34.4909 54.3227 33.8705 53.7924C32.8894 52.9735 32.1889 51.8683 31.8672 50.6315C31.82 50.4542 31.8137 50.2685 31.8487 50.0884C31.8836 49.9083 31.959 49.7385 32.0691 49.5918C32.2445 49.351 32.4325 49.1196 32.6323 48.8986C32.9689 48.5233 33.1525 48.0354 33.147 47.5313C33.1426 46.9144 33.0863 46.3018 33.0317 45.6883C33.0282 45.5292 33.0161 45.3704 32.9953 45.2126C32.9895 45.1708 32.9943 45.1282 33.0095 45.0887C33.0247 45.0493 33.0496 45.0144 33.082 44.9873C33.3993 44.6763 33.7727 44.4282 34.1824 44.256C34.2829 44.211 34.3496 44.256 34.4103 44.3427C34.5349 44.526 34.6879 44.6883 34.8634 44.8236C35.0583 44.9727 35.2847 45.0751 35.5254 45.1229C35.7661 45.1707 36.0145 45.1625 36.2515 45.0991C36.5169 45.0478 36.7693 44.9441 36.9941 44.7941C37.0603 44.7432 37.1394 44.7117 37.2225 44.7033C37.3057 44.6949 37.3895 44.7098 37.4646 44.7464C37.6891 44.8383 37.8988 44.963 38.0867 45.1164C38.3224 45.3097 38.5607 45.4994 38.7929 45.697C39.0794 45.9295 39.4217 46.0833 39.7859 46.1432C40.0839 46.2058 40.3876 46.2375 40.6922 46.2376C41.1422 46.2247 41.5925 46.2514 42.0378 46.3174C42.1062 46.3278 42.1739 46.3423 42.2406 46.3607C42.6339 46.4733 42.8393 46.7246 42.8791 47.1353C42.8895 47.2384 42.9025 47.3415 42.9199 47.4429C43.0152 48.0087 43.3444 48.3137 43.9128 48.4021C44.2496 48.4481 44.5922 48.4266 44.9205 48.3388C45.0577 48.3004 45.2027 48.2991 45.3405 48.3352C45.4783 48.3713 45.604 48.4434 45.7047 48.5442C45.7662 48.5996 45.8286 48.6551 45.8893 48.7123C46.1752 48.9826 46.5443 49.0502 46.9074 49.1455C47.3718 49.2677 47.8475 49.298 48.3197 49.3595C48.8026 49.4124 49.2695 49.564 49.6913 49.8049C49.8715 49.9038 50.0215 50.0496 50.1255 50.2269C50.2296 50.4041 50.2837 50.6062 50.2823 50.8117C50.2883 50.8594 50.2831 50.9079 50.2831 50.9564Z" fill="#4E3D35" fill-opacity="0.6"/>
<path d="M40.7943 23.2686C40.5186 23.2448 40.2595 23.1271 40.0604 22.935C39.8056 22.7106 39.5604 22.4767 39.3135 22.2419C39.2026 22.1368 39.1074 22.0163 39.031 21.884C38.9994 21.8345 38.9793 21.7784 38.9723 21.7201C38.9652 21.6618 38.9714 21.6026 38.9903 21.5469C39.2103 20.8798 39.0007 20.5626 38.525 20.1771C38.3907 20.0679 38.2477 19.9691 38.1065 19.8703C38.0508 19.8292 38.0014 19.7802 37.96 19.7248C37.8924 19.6366 37.807 19.5636 37.7094 19.5105C37.6118 19.4574 37.5041 19.4253 37.3934 19.4163C37.3422 19.4111 37.272 19.4319 37.2573 19.3548C37.2448 19.3184 37.2432 19.2792 37.2527 19.2419C37.2623 19.2046 37.2826 19.171 37.311 19.1451C37.4375 19.0372 37.5713 18.9382 37.7113 18.8488C38.0631 18.6391 38.4219 18.445 38.8256 18.3523C39.0889 18.2946 39.3576 18.2656 39.6271 18.2656C39.8788 18.2709 40.122 18.3576 40.3203 18.5126C40.539 18.6715 40.7377 18.8562 40.9121 19.0628C41.196 19.3969 41.5644 19.6489 41.9787 19.7923C42.2638 19.8963 42.2959 19.9318 42.3063 20.242C42.3063 20.3183 42.3063 20.3945 42.3063 20.4708C42.3073 20.5299 42.294 20.5884 42.2674 20.6412C42.2409 20.6941 42.2018 20.7397 42.1538 20.7741C41.9666 20.9167 41.78 21.0611 41.594 21.2073C41.2441 21.4843 40.9847 21.8592 40.8488 22.2843C40.7987 22.4649 40.7802 22.6528 40.7943 22.8397C40.7951 22.974 40.7943 23.1118 40.7943 23.2686Z" fill="#4E3D35" fill-opacity="0.6"/>
<path d="M50.7818 24.0317C50.6891 23.9806 50.6483 23.8784 50.5626 23.816C50.3665 23.6811 50.1312 23.6152 49.8936 23.6288C49.5471 23.6357 49.3278 23.4711 49.1684 23.1956C49.0185 22.9453 48.9152 22.6699 48.8634 22.3828C49.0696 22.4556 49.2343 22.57 49.4223 22.6289C49.7561 22.7448 50.0678 22.9165 50.3442 23.1366C50.6553 23.3663 50.7549 23.6756 50.7774 24.0326L50.7818 24.0317Z" fill="#4E3D35" fill-opacity="0.6"/>
<path d="M50.7786 24.0338C50.8037 24.0338 50.8176 24.0694 50.8098 24.0728C50.7621 24.0902 50.7916 24.046 50.782 24.0312L50.7786 24.0338Z" fill="#4E3D35" fill-opacity="0.6"/>
<path d="M31.4769 39.8432C31.4397 39.8432 31.3903 39.8094 31.3903 39.8847C30.957 39.6387 30.4683 39.5997 29.9857 39.5382C30.0459 39.5031 30.1161 39.4894 30.185 39.4992C30.6271 39.5079 31.0619 39.6135 31.4587 39.8085C31.4665 39.8102 31.47 39.831 31.4769 39.8432Z" fill="#4E3D35" fill-opacity="0.6"/>
</svg>
