<svg width="84" height="84" viewBox="0 0 84 84" fill="none" xmlns="http://www.w3.org/2000/svg">
<path d="M74.7797 65.093C74.7761 65.1165 74.7668 65.1388 74.7527 65.1579C74.7386 65.1771 74.7201 65.1925 74.6987 65.2029C74.6807 65.1889 74.6547 65.159 74.6468 65.163C74.4469 65.2629 74.236 65.2499 74.0261 65.2439C73.9397 65.2476 73.8578 65.2832 73.7962 65.3438C73.7613 65.2599 73.6873 65.2929 73.6293 65.2939C73.1583 65.3176 72.6889 65.3663 72.2231 65.4398C72.1391 65.4486 72.0586 65.4781 71.9888 65.5257C71.919 65.5734 71.8622 65.6376 71.8234 65.7126C71.7014 65.9435 71.5005 66.0125 71.2617 65.9955C71.0228 65.9785 70.785 65.9465 70.5451 65.9305C70.3052 65.9145 70.0894 65.8526 69.8545 65.8586C69.3322 65.8744 68.8201 66.0065 68.3553 66.2453C68.0845 66.3793 67.7887 66.4722 67.5678 66.6941C67.468 66.7928 67.349 66.8699 67.2182 66.9206C67.0873 66.9713 66.9475 66.9946 66.8072 66.9889C66.5434 66.9889 66.2795 66.9949 66.0157 66.9889C65.6238 66.9745 65.2332 67.0426 64.8693 67.1888C64.1537 67.4956 63.4072 67.5046 62.6556 67.3737C61.9613 67.257 61.29 67.0306 60.6667 66.7031C60.3346 66.5285 60.012 66.3363 59.7003 66.1274C59.4524 65.9484 59.1573 65.8462 58.8518 65.8336C58.484 65.8256 58.1162 65.8336 57.7524 65.8396C57.4474 65.839 57.147 65.9138 56.8779 66.0574C56.7947 66.1058 56.7019 66.1352 56.6061 66.1434C56.0364 66.1754 55.4677 66.1734 54.942 65.9065C54.7199 65.7963 54.4743 65.7421 54.2264 65.7486C53.5305 65.7436 52.8366 65.8225 52.1596 65.9835C51.9466 66.0413 51.724 66.0549 51.5055 66.0234C51.2871 65.992 51.0774 65.9161 50.8893 65.8006C50.7334 65.7022 50.5616 65.6315 50.3816 65.5917C50.0448 65.5247 49.715 65.4258 49.3822 65.3578C48.9064 65.25 48.4239 65.1739 47.938 65.13C47.2406 65.0877 46.5653 64.8694 45.9751 64.4953C45.6983 64.3204 45.4474 64.1056 45.1506 63.9636C44.7388 63.7638 44.3411 63.5479 43.9513 63.314C43.7913 63.2216 43.6242 63.1421 43.4516 63.0761C42.79 62.8083 42.0944 62.6574 41.3997 62.5135C41.043 62.4395 40.7001 62.3536 40.4053 62.1277C40.3614 62.0927 40.3075 62.0724 40.2514 62.0697C40.101 62.0494 39.9541 62.0088 39.8147 61.9488C38.6843 61.544 37.543 61.1962 36.3296 61.1343C35.2872 61.0793 34.2648 61.1652 33.2914 61.553C32.1993 61.9729 31.1945 62.5917 30.3281 63.378C30.1522 63.5399 29.9633 63.6888 29.7774 63.8407C29.5526 64.0224 29.2842 64.1423 28.9988 64.1885C28.5487 64.2565 28.1028 64.3506 27.6636 64.4703C26.8641 64.7082 26.0645 64.9201 25.3649 65.4018C24.6653 65.8835 23.8938 66.2713 23.1472 66.6871C22.9439 66.7978 22.732 66.8921 22.5135 66.9689C22.243 67.0751 21.9434 67.0807 21.669 66.9849C21.4739 66.9126 21.2698 66.8672 21.0624 66.85C20.3534 66.7909 19.6418 66.7692 18.9306 66.785C18.7954 66.7947 18.6615 66.8178 18.5308 66.854C17.9487 66.9995 17.3838 67.2069 16.8458 67.4726C16.3461 67.7145 15.8553 67.9993 15.3356 68.1982C15.0152 68.3169 14.7385 68.5302 14.5421 68.8099C14.4521 68.9318 14.3592 69.0527 14.2613 69.1687C14.0982 69.3335 13.9751 69.5335 13.9015 69.7533C13.7096 69.9212 13.5017 70.0382 13.2338 69.9532C13.2239 69.9532 13.2079 69.9682 13.1949 69.9762C13.0938 69.9027 13.0068 69.8116 12.938 69.7074C12.9565 69.6984 12.9717 69.6841 12.9817 69.6662C12.9917 69.6483 12.996 69.6278 12.994 69.6074C12.9906 69.5368 13.0023 69.4662 13.0285 69.4005C13.0548 69.3348 13.0948 69.2755 13.1459 69.2266C13.1831 69.1765 13.215 69.1226 13.2408 69.0657C13.4238 68.8759 13.5957 68.6757 13.7555 68.4661C13.9908 68.1827 14.2449 67.9156 14.5161 67.6665C14.703 67.5016 14.8989 67.3377 15.1507 67.2987C15.339 67.2637 15.5203 67.1982 15.6874 67.1048C16.252 66.8064 16.8337 66.5414 17.4294 66.3113C18.1091 66.0574 18.8007 65.8975 19.5352 65.9375C19.974 65.9615 20.4137 65.9665 20.8525 65.9875C21.1581 65.9925 21.4613 66.043 21.752 66.1374C21.8678 66.1812 21.9916 66.1995 22.1151 66.191C22.2386 66.1826 22.3588 66.1476 22.4676 66.0884C22.5385 66.0524 22.6135 66.0235 22.6834 65.9885C23.4 65.5887 24.1386 65.2229 24.8222 64.7612C25.1741 64.5104 25.5554 64.3036 25.9576 64.1455C26.8291 63.8297 27.7076 63.5379 28.63 63.409C28.9334 63.3741 29.2186 63.2463 29.4466 63.0432C29.7074 62.8083 29.9763 62.5804 30.2461 62.3576C31.1755 61.5962 32.2373 61.0127 33.3783 60.6365C34.7196 60.1888 36.1008 60.2038 37.481 60.4177C38.364 60.565 39.2247 60.824 40.0425 61.1882C40.1035 61.2142 40.1615 61.2732 40.2494 61.2342C40.2564 61.1592 40.2674 61.0803 40.2714 61.0013C40.3314 59.916 40.391 58.8306 40.4503 57.7452C40.4673 57.4354 40.4213 57.3944 40.1195 57.4544C40.0798 57.4602 40.0407 57.4692 40.0025 57.4813C39.4471 57.6572 38.8826 57.803 38.3115 57.9181C37.9939 58.0073 37.6572 58.0028 37.3421 57.9051C37.2584 57.8767 37.1699 57.8654 37.0818 57.8719C36.9938 57.8784 36.9079 57.9026 36.8294 57.9431C36.6931 58.0096 36.5517 58.0651 36.4066 58.109C35.9878 58.2309 35.5621 58.3089 35.1343 58.1639C34.6095 57.983 34.0391 57.983 33.5143 58.1639C33.3244 58.2259 33.1325 58.2839 32.9416 58.3409C32.8585 58.3685 32.7737 58.3909 32.6877 58.4078C32.5891 58.4291 32.4865 58.4224 32.3916 58.3884C32.2966 58.3545 32.2129 58.2948 32.15 58.2159C32.0858 58.1384 32.0451 58.0441 32.0329 57.9442C32.0207 57.8443 32.0374 57.7429 32.0811 57.6522C32.0981 57.6103 32.14 57.5773 32.129 57.5233C32.0721 57.4863 32.0221 57.5233 31.9711 57.5373C31.2657 57.7187 30.5969 58.0206 29.9943 58.4298C29.7248 58.6207 29.3985 58.7144 29.0688 58.6956C28.8301 58.6904 28.5927 58.7308 28.3692 58.8146C27.6951 59.0416 27.0472 59.3397 26.4363 59.7041C26.2644 59.804 26.1545 59.9239 26.1515 60.1338C26.1495 60.2024 26.1314 60.2696 26.0988 60.33C26.0662 60.3904 26.0199 60.4423 25.9636 60.4816C25.6118 60.7435 25.264 61.0023 24.8242 61.1233C23.7448 61.4231 22.7564 61.9228 21.8029 62.4965C21.4864 62.6836 21.1814 62.8895 20.8895 63.1131C20.7021 63.2623 20.549 63.4501 20.4407 63.6638C20.1069 64.2895 19.6212 64.7192 18.8896 64.8111C18.8027 64.8221 18.7167 64.8411 18.6288 64.8521C18.1229 64.904 17.6528 65.1373 17.3055 65.5088C17.2346 65.5847 17.1556 65.6527 17.0856 65.7296C16.7221 66.1184 16.2329 66.3662 15.7044 66.4292C15.008 66.5368 14.339 66.7784 13.7346 67.1408C13.6197 67.1974 13.5234 67.2854 13.4567 67.3947C13.4208 67.4762 13.3594 67.5439 13.2818 67.5876C13.1909 67.6285 13.3268 67.7455 13.1969 67.7735C13.1149 67.8052 13.0393 67.8516 12.974 67.9104C12.8097 68.0086 12.656 68.1234 12.5153 68.2532C12.3896 68.3022 12.2783 68.3819 12.1914 68.4851C12.1355 68.544 12.0915 68.528 12.0555 68.4781C12.0276 68.4513 12.009 68.4163 12.0025 68.3781C12.0052 68.3188 11.9922 68.2599 11.9648 68.2073C11.9374 68.1547 11.8967 68.1102 11.8466 68.0783C11.7775 68.0287 11.7295 67.955 11.7121 67.8717C11.6947 67.7884 11.7092 67.7017 11.7527 67.6285C11.7864 67.574 11.8038 67.5108 11.8027 67.4466C12.0475 67.3197 12.2824 67.1718 12.5372 67.0599C12.6787 67.0019 12.7981 66.9004 12.878 66.77C12.9605 66.6513 13.0711 66.5548 13.1999 66.4892C13.8052 66.114 14.4685 65.8414 15.1627 65.6827C15.3626 65.6407 15.5555 65.6057 15.7514 65.5667C15.9972 65.5242 16.2235 65.4061 16.399 65.2289C16.533 65.092 16.6739 64.9621 16.8098 64.8291C17.1753 64.4664 17.6351 64.2133 18.137 64.0986C18.3231 64.0523 18.5121 64.0189 18.7027 63.9986C19.1934 63.9546 19.5023 63.6728 19.7151 63.256C19.8574 62.9688 20.0595 62.7152 20.3078 62.5125C20.5734 62.301 20.8525 62.107 21.1433 61.9318C22.2287 61.2632 23.3521 60.6785 24.5874 60.3327C24.8272 60.2674 25.0488 60.1477 25.235 59.9829C25.2938 59.9411 25.3359 59.8799 25.3539 59.81C25.4159 59.4382 25.6537 59.2104 25.9636 59.0245C26.6555 58.6057 27.3933 58.2677 28.1623 58.017C28.4634 57.9076 28.7825 57.856 29.1028 57.8651C29.2632 57.8747 29.422 57.8289 29.5525 57.7352C30.2911 57.2235 31.1176 56.9127 31.9781 56.6778C32.2712 56.5925 32.5818 56.5873 32.8776 56.6628C33.2144 56.7518 33.3324 56.9087 33.3394 57.2625C33.3414 57.2852 33.3461 57.3077 33.3533 57.3294C33.4264 57.3323 33.4992 57.3201 33.5672 57.2934C34.1119 57.151 34.6855 57.1638 35.2233 57.3304C35.4898 57.4149 35.7746 57.4235 36.0458 57.3554C36.209 57.3162 36.367 57.2578 36.5165 57.1815C36.8365 57.0245 37.2043 56.9956 37.545 57.1006C37.7297 57.1538 37.9249 57.16 38.1126 57.1185C38.6743 56.9986 39.235 56.8717 39.7957 56.7418C39.9655 56.6957 40.1418 56.6781 40.3174 56.6898C40.5292 56.7098 40.5173 56.6808 40.5272 56.5029C40.5779 55.5854 40.6285 54.6676 40.6792 53.7495C40.7544 52.3929 40.8294 51.036 40.904 49.6788C40.9707 48.4415 41.0396 47.2045 41.1109 45.9679C41.1855 44.6174 41.2592 43.2681 41.3318 41.9202C41.3984 40.6749 41.468 39.4297 41.5407 38.1844C41.6293 36.5646 41.7182 34.9446 41.8075 33.3241C41.8775 32.0709 41.9481 30.8179 42.0194 29.5653C42.0364 29.2535 42.0544 28.9426 42.0684 28.6308C42.0684 28.5639 42.0973 28.4859 42.0094 28.4419C41.8932 28.3691 41.8022 28.2623 41.7486 28.1361C41.6607 27.9744 41.5469 27.8282 41.4117 27.7034C41.1919 27.5035 40.97 27.3096 40.7531 27.1097C40.4533 26.8339 40.2894 26.4641 40.0815 26.1263C40.0718 26.1041 40.0657 26.0804 40.0635 26.0563C40.0055 25.7505 39.9476 25.4446 39.8876 25.1388C39.8703 25.0725 39.8696 25.003 39.8857 24.9364C39.9017 24.8698 39.934 24.8082 39.9796 24.757C40.0644 24.6607 40.1673 24.5819 40.2826 24.5253C40.3978 24.4687 40.5231 24.4354 40.6512 24.4272C41.2039 24.4112 41.7436 24.2803 42.2952 24.2563C42.3952 24.2513 42.4501 24.2154 42.4551 24.0984C42.4801 23.4918 42.5461 22.8881 42.5551 22.2795C42.5611 22.1564 42.5415 22.0333 42.4975 21.9182C42.4534 21.8031 42.3859 21.6984 42.2992 21.6108C41.9149 21.1826 41.5083 20.7749 41.0809 20.3895C40.7931 20.1437 40.6692 19.8069 40.4983 19.4901C40.4807 19.4453 40.4742 19.3969 40.4793 19.3491C40.4793 19.0493 40.4793 18.7415 40.4793 18.4377C40.4788 18.359 40.5021 18.282 40.5462 18.2168C40.5971 18.1305 40.6705 18.0598 40.7585 18.012C40.8466 17.9643 40.9459 17.9415 41.046 17.9459C41.4217 17.9379 41.7965 17.9229 42.1723 17.914C42.2862 17.914 42.3422 17.881 42.3422 17.75C42.3422 17.3343 42.3552 16.9185 42.3672 16.5028C42.3722 16.4644 42.3653 16.4254 42.3474 16.3911C42.3295 16.3568 42.3016 16.3288 42.2673 16.3109C42.1964 16.2719 42.1398 16.2113 42.1057 16.138C42.0715 16.0647 42.0616 15.9824 42.0774 15.9031C42.0894 15.8017 42.1398 15.7087 42.2183 15.6433C42.2967 15.5779 42.3972 15.545 42.4991 15.5513C42.699 15.5563 42.771 15.4664 42.8589 15.3154C43.3266 14.5039 43.9753 13.9012 44.8928 13.6344C45.0177 13.5984 45.0357 13.5225 45.0407 13.4245C45.0587 13.0327 45.0727 12.641 45.0936 12.2502C45.1023 12.1725 45.0926 12.0939 45.0653 12.0206C45.0381 11.9474 44.994 11.8816 44.9367 11.8284C44.8299 11.7131 44.7627 11.5667 44.7447 11.4105C44.7267 11.2544 44.759 11.0965 44.8368 10.9599C44.9024 10.831 45.0042 10.7242 45.1298 10.6524C45.2553 10.5807 45.3991 10.5472 45.5435 10.5561C45.6878 10.565 45.8264 10.6159 45.9421 10.7026C46.0579 10.7893 46.1458 10.9079 46.195 11.0439C46.3169 11.3437 46.295 11.6285 46.0461 11.8584C46.0028 11.8918 45.9702 11.9371 45.9524 11.9888C45.9346 12.0405 45.9325 12.0963 45.9462 12.1492C46.0321 12.601 46.0371 13.0697 46.246 13.4975C46.288 13.5834 46.3169 13.6394 46.4099 13.6724C47.1764 13.9412 47.7021 14.4719 48.0629 15.1875C48.1159 15.2875 48.1199 15.4424 48.1999 15.5093C48.2798 15.5763 48.4457 15.5233 48.5727 15.5403C48.6571 15.5451 48.7381 15.5754 48.805 15.6271C48.8719 15.6789 48.9215 15.7496 48.9474 15.8301C48.9785 15.9095 48.9812 15.9971 48.9549 16.0782C48.9287 16.1593 48.8752 16.2288 48.8035 16.2749C48.7605 16.302 48.726 16.3409 48.7042 16.3869C48.6825 16.4329 48.6743 16.4842 48.6806 16.5347C48.6866 16.8346 48.6866 17.1424 48.6956 17.4462C48.7026 17.6761 48.7296 17.6981 48.9704 17.6911C49.4182 17.6781 49.8649 17.6621 50.3127 17.6461C50.4346 17.6461 50.5725 17.6371 50.6515 17.7311C50.8224 17.9309 50.9983 18.1308 50.9783 18.4426C50.9503 18.9014 50.8194 19.3371 50.7284 19.7809C50.695 19.9292 50.634 20.0699 50.5485 20.1956C50.3211 20.5531 50.0637 20.8904 49.779 21.2041C49.6377 21.3672 49.5066 21.5387 49.3862 21.7178C49.2518 21.9089 49.1818 22.1378 49.1863 22.3714C49.1847 22.9063 49.2211 23.4407 49.2952 23.9705C49.3222 24.1554 49.3242 24.1534 49.5181 24.1604C50.0988 24.1804 50.6774 24.1844 51.2231 24.4452C51.497 24.5771 51.5659 24.6261 51.5779 24.9329C51.5859 25.1588 51.534 25.3787 51.528 25.6016C51.5143 25.8824 51.4352 26.1562 51.2971 26.4011C51.2271 26.535 51.1892 26.6879 51.0872 26.8009C50.7605 27.1625 50.4599 27.5469 50.1877 27.9512C50.0739 28.1438 49.9466 28.3281 49.8069 28.5029C49.7849 28.5307 49.7693 28.5631 49.7612 28.5976C49.7531 28.6322 49.7527 28.6681 49.76 28.7028C49.8099 29.4204 49.8596 30.138 49.9089 30.8556C49.9978 32.1398 50.0898 33.4231 50.1777 34.7074C50.2647 35.9756 50.3476 37.2429 50.4346 38.5112C50.5385 40.0263 50.6441 41.5415 50.7514 43.0566C50.8384 44.3319 50.9213 45.6081 51.0093 46.8844C51.1132 48.3915 51.2185 49.8983 51.3251 51.4048C51.4217 52.8 51.5176 54.1955 51.6129 55.5914C51.6259 55.7833 51.6279 55.7853 51.8188 55.7853C52.7702 55.7853 53.7217 55.7826 54.6732 55.7773C54.7251 55.7773 54.7851 55.7973 54.8361 55.7273C54.7837 55.2545 54.7814 54.7775 54.8291 54.3042C54.83 54.2282 54.847 54.1533 54.8789 54.0844C54.9109 54.0156 54.9571 53.9542 55.0146 53.9046C55.072 53.8549 55.1394 53.8179 55.2121 53.7962C55.2849 53.7745 55.3614 53.7684 55.4367 53.7785C55.7083 53.7973 55.981 53.7866 56.2503 53.7465C56.43 53.714 56.6153 53.7327 56.785 53.8004C56.8338 53.8154 56.8765 53.8458 56.9066 53.887C56.9367 53.9283 56.9526 53.9782 56.9519 54.0293C56.9698 54.2362 57.0068 54.4411 57.0288 54.647C57.0628 54.9728 57.1408 55.2956 57.1288 55.6234C57.1218 55.7583 57.1747 55.7693 57.2757 55.7673L58.0672 55.7613C58.3551 55.7613 58.6429 55.7563 58.9307 55.7613C59.0956 55.7613 59.2535 55.7943 59.3455 55.9522C59.5264 56.263 59.7383 56.5619 59.8732 56.8917C60.142 57.5513 60.5418 58.147 60.7907 58.8146C60.8056 58.8588 60.8356 58.8965 60.8754 58.9209C60.9152 58.9454 60.9623 58.9552 61.0085 58.9485C63.0874 58.9485 65.1642 59.0484 67.243 59.0544C67.3026 59.0522 67.3619 59.0635 67.4164 59.0876C67.471 59.1117 67.5193 59.1478 67.5578 59.1934C67.7148 59.364 67.8622 59.5432 67.9995 59.7301C68.5206 60.467 69.043 61.2029 69.5667 61.9378C69.6625 62.0668 69.7077 62.2265 69.6936 62.3865C69.6838 62.5139 69.6804 62.6416 69.6836 62.7693C69.7116 63.408 69.7435 64.0476 69.7755 64.6862C69.7755 64.7812 69.7575 64.8971 69.8025 64.9681C69.8625 65.06 69.9954 64.989 70.0924 65.015C70.1236 65.023 70.1553 65.0291 70.1873 65.033L71.0188 65.133C71.065 65.1439 71.1134 65.142 71.1586 65.1276C71.2039 65.1132 71.2443 65.0867 71.2757 65.051C71.5585 64.7382 71.9283 64.6133 72.3401 64.5673C72.9837 64.4933 73.6273 64.4334 74.275 64.4204C74.3143 64.4264 74.3544 64.4246 74.393 64.415C74.4316 64.4054 74.4679 64.3882 74.4998 64.3644C74.5141 64.4019 74.541 64.4334 74.5758 64.4534C74.7967 64.5693 74.8346 64.7582 74.7757 64.9801C74.7617 65.024 74.7437 65.059 74.7797 65.093ZM49.5271 52.0115C49.8129 51.8875 50.0848 51.7986 50.3157 51.6187C50.3718 51.5827 50.4165 51.5314 50.4445 51.4708C50.4725 51.4103 50.4826 51.343 50.4736 51.2769C50.4036 50.3684 50.3446 49.4599 50.2827 48.5514L49.8829 42.6208C49.8719 42.4639 49.8559 42.308 49.8409 42.1381C49.4986 42.2452 49.1479 42.3235 48.7925 42.372C48.2288 42.4459 47.6622 42.4599 47.0935 42.5019C45.9541 42.5849 44.8108 42.5749 43.6685 42.5639C43.1567 42.5639 42.643 42.5439 42.1693 42.264C42.1397 42.3953 42.1242 42.5293 42.1233 42.6638C42.0993 43.1265 42.0774 43.5903 42.0524 44.053C41.9784 45.3776 41.9041 46.7015 41.8295 48.0247C41.7875 48.775 41.7446 49.5249 41.7006 50.2745C41.6806 50.6412 41.6606 51.008 41.6426 51.3738C41.6426 51.4328 41.6156 51.5068 41.6956 51.5407C41.7837 51.5947 41.8775 51.6387 41.9754 51.6717C42.5241 51.7716 43.0568 51.9585 43.6195 51.9895C43.8419 52.0104 44.0626 52.0465 44.2801 52.0974C44.4828 52.1446 44.6885 52.178 44.8958 52.1974C45.8692 52.2543 46.8446 52.1974 47.8191 52.2094C47.919 52.2094 47.963 52.1744 47.957 52.0704C47.9467 51.8699 47.9581 51.6689 47.991 51.4708C48.0002 51.3819 48.0385 51.2986 48.1 51.2337C48.1614 51.1688 48.2425 51.126 48.3308 51.112C48.5901 51.0611 48.8563 51.056 49.1173 51.097C49.4042 51.15 49.5381 51.3399 49.5171 51.6267C49.5031 51.7548 49.5065 51.8842 49.5271 52.0115ZM58.7948 56.6088H58.469C55.5127 56.6198 52.5554 56.6348 49.5991 56.6378C49.3542 56.6378 49.2203 56.6948 49.0864 56.9267C48.3218 58.2459 47.5282 59.5492 46.7457 60.8584C46.7067 60.9244 46.6458 60.9823 46.6517 61.0813C46.7427 61.0813 46.8296 61.0813 46.9166 61.0813C48.3904 61.0486 49.8602 61.0163 51.3261 60.9843C53.179 60.9464 55.0326 60.9097 56.8869 60.8744C57.0968 60.8744 57.0968 60.8744 57.1767 60.6745L58.409 57.5823C58.535 57.2685 58.6559 56.9576 58.7958 56.6038L58.7948 56.6088ZM48.9954 29.7302C48.9744 29.4114 48.9544 29.0926 48.9324 28.7737C48.8898 28.1521 48.8455 27.5305 48.7995 26.9088C48.7865 26.7339 48.7825 26.7309 48.5996 26.7329C48.2328 26.7379 47.8651 26.7439 47.5003 26.7529C47.3184 26.7529 47.3184 26.7599 47.3234 26.9408C47.3234 26.9808 47.3284 27.0207 47.3294 27.0607C47.3407 27.3483 47.336 27.6362 47.3154 27.9232C47.2884 28.1841 47.1505 28.341 46.9156 28.356C46.5498 28.381 46.182 28.399 45.8162 28.399C45.4664 28.399 45.2885 28.2091 45.2945 27.8573C45.3005 27.5464 45.3155 27.2346 45.3355 26.9238C45.3435 26.8079 45.3105 26.7699 45.1926 26.7719C44.513 26.7859 43.8337 26.7962 43.1547 26.8029C43.0378 26.8029 43.0048 26.8518 42.9998 26.9598C42.9848 27.3266 42.9639 27.6934 42.9439 28.0592C42.9019 28.8181 42.8592 29.576 42.8159 30.3329C42.78 30.9795 42.746 31.6251 42.706 32.2717C42.6953 32.3252 42.7016 32.3806 42.724 32.4302C42.7464 32.4799 42.7838 32.5213 42.8309 32.5486C43.043 32.6913 43.2839 32.7855 43.5365 32.8244C43.7744 32.8594 44.0143 32.8594 44.2531 32.8804C45.5822 33.0106 46.9204 33.0183 48.2508 32.9034C48.5144 32.8925 48.7749 32.8419 49.0234 32.7535C49.0801 32.7373 49.1285 32.7 49.1586 32.6493C49.1887 32.5985 49.1983 32.5382 49.1853 32.4806C49.1153 31.5642 49.0574 30.6497 48.9954 29.7302ZM47.878 64.2565C47.9831 64.3123 48.1025 64.3356 48.2208 64.3234C48.4527 64.3287 48.6832 64.3592 48.9085 64.4144C49.4142 64.5313 49.9199 64.6472 50.4276 64.7532C50.7111 64.8037 50.9837 64.9031 51.2331 65.047C51.3511 65.1208 51.4831 65.1691 51.6208 65.1889C51.7584 65.2086 51.8987 65.1995 52.0327 65.162C52.7835 64.9855 53.5532 64.9019 54.3244 64.9131C54.6135 64.9025 54.9007 64.9654 55.1589 65.096C55.4689 65.2459 55.808 65.3261 56.1523 65.3309C56.3516 65.356 56.5537 65.3157 56.728 65.2159C56.8049 65.1731 56.8878 65.1418 56.9739 65.123C57.1737 65.071 57.1737 65.108 57.1737 64.8461C57.1737 64.5023 57.1467 64.1595 57.1138 63.8167C57.0608 63.252 57.0138 62.6874 56.9958 62.1177C56.9958 61.9858 57.0618 61.8179 56.9599 61.7309C56.8579 61.644 56.698 61.7079 56.5601 61.7109L50.7264 61.8319L46.7937 61.9188C46.5848 61.9238 46.5738 61.9268 46.5838 62.1327C46.6037 62.6757 46.6638 63.2166 46.7637 63.7508C46.8246 64.0506 46.8366 64.0576 47.1684 64.1136C47.1231 64.0062 47.0837 63.8964 47.0505 63.7847C46.9766 63.4789 46.9446 63.1711 47.0595 62.8653C47.0781 62.7995 47.1194 62.7424 47.1762 62.7043C47.2329 62.6662 47.3014 62.6496 47.3693 62.6574C47.5927 62.6579 47.8158 62.6699 48.038 62.6934C48.2518 62.7203 48.3538 62.7823 48.3738 62.9932C48.4057 63.325 48.4897 63.6528 48.4417 63.9926C48.4217 64.1305 48.3668 64.1925 48.2418 64.2075L47.878 64.2565ZM67.183 59.879H66.7043C65.442 59.891 64.1817 59.816 62.9194 59.815C62.8195 59.815 62.7126 59.804 62.6086 59.798C62.1149 59.771 61.6202 59.748 61.1265 59.7141C61.0641 59.7031 60.9999 59.7134 60.9441 59.7433C60.8883 59.7732 60.8441 59.821 60.8186 59.879C60.7467 60.0209 60.6577 60.1548 60.5908 60.2987C60.2945 60.919 59.9362 61.5076 59.5214 62.0557C59.4914 62.0967 59.4294 62.1277 59.4634 62.2046C59.6273 62.2046 59.7932 62.2046 59.9631 62.2046C60.8896 62.1807 61.8151 62.1707 62.7416 62.1996C63.755 62.2316 64.7674 62.2886 65.7828 62.2646C65.8561 62.2728 65.93 62.257 65.9936 62.2198C66.0571 62.1825 66.107 62.1256 66.1356 62.0577C66.4714 61.3691 66.8172 60.6855 67.158 59.9999C67.1697 59.9604 67.178 59.9199 67.183 59.879ZM61.4523 63.0252C60.9526 63.0252 60.4459 63.0412 59.9422 63.0072C59.7513 62.9942 59.5584 62.9942 59.3675 62.9862C59.2885 62.9862 59.2456 63.0092 59.2495 63.0941C59.2495 63.1421 59.2495 63.1941 59.2495 63.2381C59.2495 63.8227 59.3235 64.4014 59.3785 64.9821C59.3855 65.062 59.4254 65.082 59.4934 65.108C59.6604 65.1625 59.8218 65.2331 59.9751 65.3189C60.175 65.4288 60.3529 65.5777 60.5518 65.6946C61.1051 66.0312 61.7034 66.2873 62.3288 66.4552C63.0924 66.6461 63.8539 66.7231 64.6095 66.4052C64.9084 66.2693 65.2293 66.1881 65.5569 66.1654C65.6569 66.1654 65.6709 66.1104 65.6709 66.0265C65.6709 65.0937 65.6752 64.1585 65.6839 63.2211C65.6839 63.0961 65.6369 63.0851 65.528 63.0861C65.0282 63.0921 64.5355 63.1021 64.0408 63.0801C63.1783 63.0422 62.3198 63.0192 61.4523 63.0252ZM40.6752 25.2218C40.7301 25.4217 40.7821 25.5786 40.8181 25.7405C40.884 26.0463 40.876 25.9933 41.1459 25.9903C41.9125 25.9833 42.679 25.9683 43.4446 25.9594C45.6806 25.9334 47.9167 25.9084 50.1527 25.8844C50.2967 25.8844 50.4406 25.8724 50.5835 25.8744C50.6744 25.8744 50.7074 25.8384 50.7154 25.7485C50.7309 25.5897 50.755 25.4319 50.7874 25.2757C50.8074 25.1758 50.7874 25.1298 50.6784 25.1148C50.3814 25.0572 50.0809 25.0188 49.779 24.9999C47.0555 24.9739 44.3331 24.9549 41.6136 25.1428C41.3108 25.1638 41.011 25.1938 40.6752 25.2218ZM66.3975 64.5643H66.3835C66.3835 65.0427 66.3835 65.5221 66.3835 66.0025C66.3835 66.2173 66.4174 66.2503 66.6273 66.2483C66.7321 66.2489 66.8333 66.2104 66.9112 66.1404C67.0104 66.0471 67.1255 65.9723 67.251 65.9195C67.5218 65.8196 67.7667 65.6657 68.0235 65.5377C68.2468 65.4135 68.4774 65.303 68.7141 65.2069C68.939 65.126 68.944 65.122 68.935 64.8941C68.904 64.1036 68.8611 63.314 68.9 62.5225C68.9018 62.4751 68.8919 62.4281 68.871 62.3855C68.6182 61.8319 68.2714 61.3341 67.9546 60.8184C67.896 60.7231 67.8323 60.631 67.7637 60.5426C67.7077 60.4706 67.6437 60.4616 67.5978 60.5566C67.5288 60.7005 67.4539 60.8414 67.3979 60.9893C67.148 61.613 66.8032 62.1887 66.5124 62.7883C66.4398 62.9197 66.4003 63.0669 66.3975 63.2171C66.4025 63.6688 66.3975 64.1166 66.3975 64.5643ZM45.5294 16.3748V16.3908C44.7965 16.3908 44.0636 16.3908 43.3306 16.3908C43.1418 16.3908 43.1378 16.3908 43.1418 16.5717C43.1507 16.9625 43.1697 17.3533 43.1737 17.745C43.1737 17.867 43.2267 17.897 43.3336 17.885C43.3886 17.879 43.4446 17.885 43.5005 17.879C44.2341 17.853 44.9677 17.825 45.6993 17.801C46.3699 17.779 47.0395 17.761 47.7091 17.7401C47.88 17.7341 47.879 17.7311 47.883 17.5662C47.891 17.2393 47.901 16.9125 47.911 16.5857C47.918 16.3778 47.918 16.3758 47.7111 16.3758L45.5294 16.3748ZM59.3285 57.6343C59.2595 57.6652 59.2525 57.7152 59.2356 57.7592C58.7525 58.9672 58.2701 60.1755 57.7884 61.3841C57.7613 61.4504 57.7477 61.5214 57.7484 61.593C57.7519 62.0004 57.7799 62.4072 57.8324 62.8113C57.9206 63.4282 57.9759 64.0494 57.9983 64.6722C58.0053 65.004 57.9983 65.004 58.3281 65.001C58.5439 65.001 58.5509 65.001 58.528 64.7942C58.4678 64.1897 58.4592 63.5812 58.502 62.9752C58.5052 62.9208 58.4945 62.8665 58.471 62.8173C58.3331 62.5175 58.3381 62.2176 58.5469 61.9458C58.7059 61.7359 58.8698 61.529 59.0277 61.3181C59.4614 60.7425 59.7842 60.0968 60.17 59.4902C60.1789 59.48 60.1856 59.4682 60.1898 59.4553C60.194 59.4425 60.1955 59.4289 60.1943 59.4155C60.1931 59.402 60.1891 59.3889 60.1827 59.377C60.1763 59.3652 60.1676 59.3547 60.157 59.3463C60.0489 59.2174 59.9677 59.0682 59.9182 58.9075C59.7353 58.4758 59.4824 58.078 59.3285 57.6343ZM45.3895 19.0143L48.3278 18.9044C48.8785 18.8844 49.4272 18.8674 49.9808 18.8464C50.0328 18.8464 50.1038 18.8714 50.1318 18.8074C50.1525 18.764 50.1644 18.717 50.1668 18.6689C50.1692 18.6209 50.162 18.5729 50.1458 18.5276C50.1178 18.4596 50.0318 18.4946 49.9709 18.4966C48.4211 18.5486 46.8716 18.6009 45.3225 18.6535C44.0372 18.6955 42.7513 18.7351 41.4647 18.7725C41.4087 18.7725 41.3528 18.7795 41.2978 18.7805C41.2219 18.7805 41.1759 18.8094 41.1829 18.8954C41.1869 18.9433 41.1869 18.9914 41.1829 19.0393C41.1739 19.1393 41.2159 19.1702 41.3088 19.1582C41.3497 19.1555 41.3907 19.1548 41.4317 19.1562L45.3895 19.0143ZM56.3482 55.7813C56.3352 55.6954 56.3242 55.6484 56.3212 55.6014C56.3072 55.3016 56.2912 54.9948 56.2832 54.6919C56.2832 54.592 56.2523 54.546 56.1463 54.552C56.0024 54.559 55.8585 54.562 55.7146 54.552C55.5966 54.547 55.5587 54.594 55.5667 54.7069C55.59 55.0334 55.6096 55.3602 55.6256 55.6874C55.6256 55.7633 55.6696 55.7793 55.7336 55.7793L56.3482 55.7813ZM50.0928 26.7519C49.9319 26.7359 49.755 26.657 49.66 26.7519C49.5651 26.8468 49.66 27.0098 49.653 27.1427C49.653 27.1717 49.653 27.2076 49.704 27.2166L50.0928 26.7519ZM42.1473 27.2616C42.1553 27.1087 42.1603 27.0078 42.1653 26.9058C42.1653 26.8498 42.1463 26.8129 42.0854 26.8139C41.9349 26.8084 41.7843 26.8137 41.6346 26.8299L42.1473 27.2616Z" fill="#4E3D35"/>
<path d="M56.3483 55.7825H55.7336C55.6696 55.7825 55.6337 55.7665 55.6257 55.6905C55.6097 55.3641 55.59 55.0373 55.5667 54.7101C55.5587 54.5972 55.5967 54.5502 55.7146 54.5552C55.8585 54.5622 56.0025 54.5552 56.1464 54.5552C56.2523 54.5492 56.2813 54.5942 56.2833 54.6951C56.2913 54.995 56.3073 55.3018 56.3213 55.6046C56.3233 55.6496 56.3353 55.6965 56.3483 55.7825Z" fill="white"/>
<path d="M50.0935 26.752L49.7047 27.2177C49.6497 27.2087 49.6537 27.1728 49.6537 27.1438C49.6537 27.0109 49.5778 26.8389 49.6607 26.753C49.7437 26.667 49.9326 26.737 50.0935 26.752Z" fill="white"/>
<path d="M42.1474 27.2623L41.6317 26.8306C41.7814 26.8145 41.932 26.8091 42.0824 26.8146C42.1434 26.8146 42.1654 26.8506 42.1624 26.9065C42.1604 27.0085 42.1554 27.1094 42.1474 27.2623Z" fill="white"/>
<path d="M21.0595 18.3417C20.7653 18.1769 20.4548 18.0429 20.1331 17.9419C19.8052 17.842 19.4764 17.742 19.1446 17.6551C18.6709 17.5342 18.2162 17.3553 17.7564 17.2014C17.5091 17.1104 17.2686 17.0018 17.0368 16.8765C16.6264 16.664 16.219 16.4435 15.8145 16.2149C15.4964 16.0282 15.213 15.7878 14.977 15.5043C14.7581 15.2505 14.5522 14.9846 14.3414 14.7238C14.311 14.6865 14.283 14.6475 14.2574 14.6068C14.1988 14.5246 14.1717 14.4241 14.181 14.3235C14.1904 14.223 14.2356 14.1291 14.3084 14.0591C14.3823 13.9902 14.479 13.9507 14.5801 13.9481C14.6812 13.9455 14.7797 13.98 14.8571 14.0452C15.1209 14.238 15.3888 14.4289 15.6406 14.6368C16.3511 15.2269 17.215 15.6024 18.1312 15.7192C18.8678 15.8191 19.5994 15.9621 20.3419 16.002C20.9395 16.0452 21.532 16.1425 22.1119 16.2929C22.5095 16.3852 22.8891 16.5425 23.2353 16.7586C23.4242 16.8775 23.4262 16.8735 23.5851 16.7056C23.9966 16.2907 24.3421 15.8151 24.6095 15.2954C24.6624 15.1878 24.7214 15.0834 24.7864 14.9826C24.8619 14.8688 24.9627 14.774 25.081 14.7057C25.1992 14.6374 25.3317 14.5974 25.468 14.5888C25.555 14.5779 25.6429 14.5719 25.7309 14.5669C26.2846 14.5309 26.7303 14.267 27.1371 13.9112C27.1988 13.85 27.2657 13.7942 27.337 13.7443C27.4123 13.6978 27.5007 13.6771 27.5889 13.6854C27.677 13.6936 27.7601 13.7302 27.8256 13.7898C27.891 13.8494 27.9353 13.9287 27.9517 14.0157C27.9682 14.1027 27.9558 14.1927 27.9166 14.272C27.8983 14.3165 27.8734 14.3579 27.8427 14.395C27.3939 14.9117 26.9262 15.4024 26.2436 15.6073C26.2206 15.6143 26.1996 15.6263 26.1776 15.6342C25.8158 15.7592 25.526 15.9511 25.4071 16.3498C25.3385 16.5545 25.2324 16.7447 25.0942 16.9105C25.1612 16.9845 25.2471 16.9665 25.3211 16.9855C25.4547 17.014 25.5788 17.0763 25.6815 17.1664C25.7842 17.2565 25.8621 17.3714 25.9078 17.5002C26.0207 17.8 25.8988 18.1388 25.589 18.2248C25.0473 18.3737 24.6255 18.7115 24.1838 19.0243C23.78 19.3254 23.3555 19.5975 22.9135 19.8388C22.1126 20.2744 21.1854 20.4189 20.29 20.2476C19.8842 20.1559 19.4969 19.9961 19.1446 19.7749C19.0687 19.7309 18.9897 19.6939 18.9138 19.651C18.8349 19.6102 18.7719 19.5444 18.7347 19.4638C18.6974 19.3833 18.688 19.2927 18.7079 19.2062C18.7278 19.1238 18.7734 19.0499 18.838 18.9951C18.9027 18.9403 18.9831 18.9075 19.0677 18.9014C19.0756 18.9004 19.0837 18.9004 19.0917 18.9014C19.5334 18.9613 19.9192 18.7755 20.314 18.6235C20.4699 18.5636 20.6328 18.5236 20.7917 18.4686C20.8896 18.4478 20.9814 18.4043 21.0595 18.3417ZM20.5248 19.4411C21.3345 19.5596 22.1595 19.376 22.8425 18.9254C23.3202 18.6195 23.7866 18.2967 24.2417 17.9569C24.2797 17.9279 24.3537 17.9229 24.3417 17.833C24.2787 17.833 24.2147 17.833 24.1518 17.833C23.645 17.8569 23.1447 17.7124 22.7286 17.4222C22.6542 17.3756 22.576 17.3354 22.4947 17.3023C21.973 17.0644 21.4133 16.9615 20.8537 16.8905C20.172 16.8046 19.4834 16.7666 18.8548 16.6846C18.963 16.7278 19.0738 16.7642 19.1866 16.7936C19.9752 17.0215 20.7737 17.2213 21.5053 17.6121C21.6909 17.705 21.8647 17.8197 22.023 17.9539C22.1322 18.0486 22.2122 18.1723 22.2539 18.3107C22.3538 18.6625 22.1839 18.9713 21.8281 19.0333C21.4083 19.1063 21.0236 19.2872 20.6188 19.4031C20.5861 19.4115 20.5545 19.424 20.5248 19.4401V19.4411Z" fill="#4E3D35"/>
<path d="M21.656 21.8531C21.7829 21.6452 21.8908 21.4593 22.0068 21.2784C22.2759 20.858 22.6486 20.5138 23.0891 20.279C23.8707 19.8582 24.6193 19.3865 25.3718 18.9198C25.6977 18.7199 26.0475 18.557 26.3623 18.3361C26.423 18.29 26.4943 18.2597 26.5696 18.2478C26.6449 18.2359 26.722 18.2429 26.794 18.2681C27.1019 18.3681 27.2118 18.6599 27.0429 18.9378C26.9588 19.0659 26.858 19.1822 26.7431 19.2836C26.611 19.4112 26.4671 19.526 26.3133 19.6264C25.5747 20.1021 24.8851 20.6498 24.1495 21.1255C23.5853 21.4835 23.1482 22.0102 22.9003 22.6307C22.8306 22.8194 22.8328 23.0271 22.9063 23.2143C22.9749 23.3934 23.0144 23.5824 23.0232 23.774C23.0232 24.1128 22.8593 24.3337 22.5285 24.4156C22.3666 24.4574 22.2145 24.5304 22.0807 24.6305C21.8429 24.8024 21.659 24.7974 21.4191 24.6305C21.3736 24.5997 21.3299 24.5663 21.2882 24.5306C21.0763 24.3351 20.8266 24.185 20.5545 24.0896C20.2824 23.9942 19.9937 23.9555 19.7061 23.9759C18.9475 24.0209 18.1909 24.0848 17.4824 24.3847C17.1665 24.5176 16.8677 24.6845 16.5589 24.8394C16.4599 24.8909 16.357 24.9344 16.2511 24.9693C16.1555 25.0014 16.0521 25.0018 15.9562 24.9707C15.8603 24.9396 15.7769 24.8785 15.7184 24.7964C15.6044 24.6235 15.6184 24.4366 15.7943 24.2517C16.0093 24.0161 16.2096 23.7674 16.394 23.5072C16.9127 22.7826 17.6583 22.4538 18.5018 22.3078C18.9668 22.2264 19.4412 22.2133 19.91 22.2689C19.9288 22.2743 19.9487 22.2754 19.968 22.2721C19.9873 22.2689 20.0057 22.2613 20.0217 22.25C20.0378 22.2387 20.051 22.2239 20.0606 22.2067C20.0701 22.1896 20.0757 22.1705 20.0769 22.1509C20.0992 22.0574 20.1363 21.968 20.1868 21.8861C20.3617 21.6042 20.6066 21.4513 20.9454 21.4863C21.2172 21.5223 21.4751 21.5783 21.656 21.8531ZM22.0168 22.6626C21.8339 22.7076 21.666 22.7426 21.536 22.6177C21.4221 22.5067 21.3212 22.3898 21.1473 22.3828C21.1263 22.3828 21.1063 22.3588 21.0863 22.3468C20.9044 22.2319 20.8424 22.2619 20.8314 22.4737C20.8313 22.5215 20.8367 22.5691 20.8474 22.6157C20.8611 22.7032 20.8496 22.7929 20.8142 22.8741C20.7788 22.9553 20.721 23.0248 20.6475 23.0744C20.5936 23.1194 20.5066 23.1134 20.4736 23.1943C20.8784 23.3273 21.2822 23.4512 21.618 23.723C21.67 23.765 21.7179 23.849 21.7989 23.813C21.916 23.7627 22.0302 23.7056 22.1407 23.6421C22.1657 23.6281 22.1557 23.5841 22.1407 23.5531C22.0352 23.2685 21.9929 22.9643 22.0168 22.6616V22.6626Z" fill="#4E3D35"/>
<path d="M24.6418 22.7754C24.786 22.7723 24.9296 22.794 25.0665 22.8394C25.5662 23.0183 26.082 23.0523 26.5957 23.1162C27.2006 23.1927 27.7727 23.4348 28.2487 23.8158C28.2974 23.8688 28.3613 23.9054 28.4316 23.9208C28.6302 23.9443 28.8236 23.9999 29.0043 24.0857C29.138 24.1426 29.2879 24.149 29.426 24.1037C29.7881 24.0017 30.1622 23.9486 30.5384 23.9458C30.7303 23.9368 30.9212 23.9188 31.1121 23.9078C31.1831 23.8997 31.2514 23.8758 31.312 23.8378C31.541 23.7246 31.7642 23.5999 31.9806 23.464C32.1114 23.3702 32.267 23.3167 32.4279 23.3103C32.5889 23.3039 32.7481 23.3449 32.8861 23.4281C33.2209 23.6004 33.573 23.7371 33.9365 23.8358C34.3197 23.9512 34.6885 24.1098 35.0358 24.3086C35.0784 24.3305 35.1188 24.3563 35.1568 24.3855C35.2295 24.4375 35.2805 24.5146 35.2999 24.6019C35.3194 24.6892 35.3058 24.7806 35.262 24.8586C35.2181 24.9366 35.147 24.9956 35.0622 25.0243C34.9775 25.053 34.8852 25.0494 34.803 25.0142C34.7346 24.9889 34.6679 24.9595 34.6031 24.9262C34.3079 24.7848 33.9987 24.6746 33.6806 24.5974C33.3053 24.517 32.9418 24.3887 32.5992 24.2156C32.5633 24.1912 32.5208 24.1781 32.4773 24.1781C32.4338 24.1781 32.3913 24.1912 32.3554 24.2156C31.9076 24.4945 31.4259 24.7153 30.9612 24.9602C30.7956 25.0402 30.6608 25.1722 30.5774 25.336C30.3775 25.7278 30.0277 25.8717 29.6129 25.9007C29.413 25.9156 29.2132 25.9306 29.0133 25.9306C28.8527 25.93 28.6963 25.9816 28.5675 26.0776C28.4278 26.1846 28.2686 26.2633 28.0988 26.3094C28.0071 26.3403 27.9085 26.3438 27.8148 26.3197C27.7211 26.2956 27.6365 26.2448 27.5711 26.1735C27.5014 26.1008 27.4537 26.0098 27.4336 25.9111C27.4134 25.8124 27.4216 25.7101 27.4572 25.6158C27.4874 25.5335 27.5284 25.4555 27.5791 25.3839C27.6271 25.311 27.686 25.244 27.739 25.1741C28.0009 24.8293 27.9739 24.6254 27.6171 24.3825C27.298 24.1548 26.9288 24.007 26.5407 23.9518C26.2549 23.9168 25.97 23.8828 25.6852 23.8428C25.5357 23.8204 25.3876 23.7901 25.2414 23.7519C24.9972 23.6784 24.7475 23.6239 24.4949 23.589C24.4407 23.5853 24.3879 23.5706 24.3396 23.5459C24.2913 23.5211 24.2486 23.4868 24.214 23.445C24.1794 23.4032 24.1537 23.3548 24.1384 23.3028C24.1231 23.2507 24.1186 23.1961 24.1251 23.1422C24.1441 22.9263 24.31 22.7834 24.5528 22.7734L24.6418 22.7754Z" fill="#4E3D35"/>
<path d="M47.5863 45.2046C47.5863 44.8868 47.6353 44.57 47.5963 44.2502C47.5906 44.202 47.5949 44.1532 47.6091 44.1068C47.6232 44.0604 47.6468 44.0175 47.6783 43.9807C47.7099 43.9439 47.7487 43.914 47.7924 43.8929C47.8361 43.8719 47.8837 43.8601 47.9321 43.8584C48.1312 43.8337 48.3327 43.8337 48.5318 43.8584C48.6491 43.868 48.7588 43.9202 48.8403 44.005C48.9218 44.0899 48.9696 44.2016 48.9745 44.3191C49.0065 44.8368 49.0245 45.3545 49.0335 45.8733C49.0347 45.9904 48.9928 46.1039 48.9157 46.1921C48.8387 46.2804 48.732 46.3373 48.6157 46.352C48.4158 46.389 48.216 46.393 48.0241 46.4249C47.7932 46.4629 47.5993 46.274 47.5913 46.0252C47.5783 45.7473 47.5863 45.4765 47.5863 45.2046Z" fill="#4E3D35" fill-opacity="0.6"/>
<path d="M53.8251 60.1586C53.5793 60.1681 53.3342 60.1249 53.1065 60.0317C52.8777 59.9247 52.8067 59.7928 52.8437 59.538C52.8887 59.2151 52.9216 58.8903 52.9596 58.5655C52.9632 58.494 52.9719 58.4229 52.9856 58.3526C53.0456 58.1158 53.1955 58.0018 53.4403 58.0268C53.7266 58.0496 54.0138 58.057 54.3008 58.0488C54.6317 58.0488 54.8435 58.2347 54.8225 58.5625C54.7936 59.0043 54.8006 59.454 54.6416 59.8798C54.6161 59.956 54.5684 60.023 54.5047 60.0721C54.441 60.1212 54.3641 60.1503 54.2839 60.1556C54.1311 60.1643 53.978 60.1653 53.8251 60.1586ZM53.965 58.9743C53.965 58.9223 53.991 58.8623 53.9221 58.8304C53.8981 58.8145 53.8702 58.8057 53.8415 58.805C53.8129 58.8042 53.7845 58.8116 53.7598 58.8262C53.7351 58.8408 53.715 58.862 53.7018 58.8875C53.6886 58.913 53.6829 58.9417 53.6852 58.9703C53.6772 59.0702 53.6722 59.1702 53.6672 59.2771C53.6672 59.3151 53.6592 59.3571 53.7012 59.377C53.7224 59.3882 53.7459 59.3945 53.7698 59.3953C53.7938 59.3962 53.8177 59.3917 53.8396 59.3821C53.8616 59.3725 53.8812 59.3581 53.8968 59.3399C53.9125 59.3217 53.9238 59.3003 53.9301 59.2771C53.943 59.1782 53.952 59.0762 53.963 58.9743H53.965Z" fill="#4E3D35"/>
<path d="M51.1588 60.1616C50.9179 60.1826 50.6911 60.1296 50.4592 60.1506C50.2463 60.1696 50.0864 59.9627 50.0954 59.7049C50.1061 59.5374 50.1258 59.3706 50.1544 59.2052C50.1788 59.0552 50.1909 58.9034 50.1903 58.7514C50.201 58.569 50.2501 58.3909 50.3343 58.2287C50.3624 58.1604 50.4148 58.1048 50.4814 58.0727C50.548 58.0406 50.6241 58.0342 50.6951 58.0548C50.9311 58.0973 51.1711 58.1131 51.4107 58.1018C51.5384 58.1077 51.6648 58.1305 51.7865 58.1698C51.8303 58.1771 51.8723 58.1931 51.91 58.2168C51.9477 58.2404 51.9804 58.2713 52.0061 58.3076C52.0318 58.3439 52.0501 58.385 52.0599 58.4284C52.0698 58.4718 52.0709 58.5167 52.0633 58.5605C52.0303 58.9723 52.0363 59.3891 51.9424 59.7958C51.9304 59.8919 51.8852 59.9808 51.8145 60.0471C51.7439 60.1134 51.6523 60.1528 51.5556 60.1586C51.4235 60.1671 51.291 60.1681 51.1588 60.1616ZM50.9359 59.1502C50.9359 59.1732 50.9359 59.1972 50.9289 59.2212C50.9139 59.3961 50.9429 59.421 51.1228 59.4C51.1868 59.3931 51.2228 59.3731 51.2328 59.3001C51.2418 59.2132 51.2568 59.1272 51.2647 59.0403C51.2787 58.8854 51.2717 58.8784 51.1218 58.8674C50.9719 58.8564 50.9579 58.8544 50.9439 59.0283C50.9409 59.0702 50.9389 59.1102 50.9359 59.1502Z" fill="#4E3D35"/>
<path d="M46.7767 30.1105C46.7767 29.8956 46.7767 29.6807 46.7767 29.4659C46.7697 29.3726 46.7998 29.2803 46.8604 29.209C46.921 29.1378 47.0073 29.0932 47.1005 29.0851C47.299 29.0555 47.4995 29.0414 47.7001 29.0431C47.945 29.0431 48.0889 29.19 48.1229 29.4429C48.1519 29.6558 48.1729 29.8706 48.1929 30.0845C48.2128 30.2984 48.2478 30.4953 48.2848 30.6992C48.3558 31.083 48.1709 31.3118 47.7851 31.3918C47.4853 31.4537 47.2364 31.3618 46.9855 31.2429C46.9212 31.2095 46.8667 31.1598 46.8276 31.0988C46.7885 31.0377 46.7661 30.9675 46.7627 30.8951C46.7356 30.6339 46.7403 30.3705 46.7767 30.1105Z" fill="#4E3D35" fill-opacity="0.6"/>
<path d="M53.668 64.2C53.5171 64.189 53.3682 64.185 53.2153 64.167C53.1627 64.1685 53.1113 64.1514 53.0702 64.1186C53.029 64.0859 53.0008 64.0396 52.9904 63.9881C52.9285 63.6433 52.8425 63.3015 52.8815 62.9467C52.9175 62.6238 53.0024 62.5469 53.3222 62.5469H54.1588C54.3586 62.5469 54.4316 62.6078 54.4466 62.8087C54.4576 62.9437 54.4466 63.0796 54.4466 63.2145C54.4467 63.3658 54.4554 63.517 54.4726 63.6673C54.4835 63.7325 54.48 63.7994 54.4624 63.8632C54.4448 63.9269 54.4135 63.9861 54.3707 64.0366C54.3279 64.087 54.2746 64.1275 54.2145 64.1552C54.1544 64.1829 54.089 64.1971 54.0228 64.197C53.9039 64.204 53.784 64.197 53.664 64.197L53.668 64.2Z" fill="#4E3D35"/>
<path d="M55.7528 64.1845C55.5979 64.1845 55.479 64.1845 55.3591 64.1845C55.1382 64.1845 55.0692 64.1346 54.9923 63.9167C54.9249 63.7118 54.8865 63.4986 54.8783 63.2831C54.8629 63.1321 54.881 62.9795 54.9313 62.8363C54.9551 62.7503 55.0063 62.6745 55.0773 62.6203C55.1482 62.5662 55.2349 62.5368 55.3241 62.5365C55.5629 62.5295 55.8028 62.5295 56.0417 62.5365C56.1349 62.5375 56.2245 62.5723 56.294 62.6344C56.3635 62.6965 56.4081 62.7818 56.4194 62.8743C56.4346 62.9607 56.4383 63.0488 56.4304 63.1361C56.4109 63.3107 56.42 63.4872 56.4574 63.6588C56.4784 63.7367 56.4784 63.8188 56.4574 63.8967C56.4428 63.98 56.3984 64.0551 56.3327 64.1082C56.2669 64.1613 56.1841 64.1888 56.0996 64.1855C55.9848 64.1664 55.8677 64.1661 55.7528 64.1845Z" fill="#4E3D35"/>
<path d="M49.6703 64.1488C49.5194 64.1598 49.3705 64.1778 49.2166 64.1818C49.0627 64.1858 49.0047 64.1468 48.9907 63.9969C48.9416 63.6008 48.9229 63.2016 48.9347 62.8026C48.9417 62.6897 48.9967 62.6557 49.1046 62.6547C49.4874 62.6547 49.8712 62.6487 50.254 62.6367C50.3789 62.6367 50.4369 62.6917 50.4409 62.8006C50.4509 63.1004 50.5258 63.3843 50.5528 63.6761C50.5778 63.953 50.5078 64.1278 50.1261 64.1408C49.9741 64.1468 49.8262 64.1408 49.6703 64.1408V64.1488Z" fill="#4E3D35"/>
<path d="M51.7882 64.1724C51.6523 64.1724 51.5164 64.1724 51.3814 64.1724C51.3293 64.1742 51.2777 64.1603 51.2336 64.1325C51.1894 64.1047 51.1545 64.0643 51.1336 64.0165C51.0555 63.8675 51.0143 63.7019 51.0136 63.5338C51.0086 63.3337 51.0136 63.1336 51.0286 62.9341C51.033 62.853 51.0652 62.7759 51.1199 62.7158C51.1745 62.6557 51.2482 62.6163 51.3285 62.6043C51.5468 62.5537 51.772 62.5389 51.9951 62.5603C52.1082 62.5674 52.2146 62.6162 52.2938 62.6972C52.3731 62.7783 52.4194 62.8858 52.4239 62.999C52.4428 63.2369 52.4368 63.4768 52.4748 63.7147C52.4872 63.8188 52.4651 63.9241 52.4119 64.0145C52.3914 64.0669 52.3546 64.1114 52.3069 64.1413C52.2592 64.1712 52.2031 64.1849 52.147 64.1804C52.0281 64.1724 51.9081 64.1804 51.7882 64.1804V64.1724Z" fill="#4E3D35"/>
<path d="M63.9458 63.8477C64.1297 63.8477 64.3126 63.8477 64.4955 63.8477C64.6954 63.8477 64.7854 63.9276 64.8193 64.1265C64.8703 64.4263 64.8833 64.7261 64.9043 65.026C64.9091 65.0472 64.9093 65.0693 64.9047 65.0906C64.9002 65.1119 64.8912 65.132 64.8782 65.1494C64.8651 65.1669 64.8485 65.1814 64.8294 65.1918C64.8103 65.2022 64.7891 65.2084 64.7674 65.2099C64.5525 65.2508 64.3486 65.3298 64.1177 65.2898C63.9318 65.2588 63.737 65.2948 63.5451 65.2898C63.4451 65.2838 63.3871 65.2648 63.3632 65.1549C63.2866 64.7723 63.2438 64.3837 63.2352 63.9936C63.2352 63.9106 63.2702 63.8796 63.3492 63.8826C63.5487 63.8895 63.7485 63.8778 63.9458 63.8477Z" fill="#4E3D35"/>
<path d="M60.8647 65.139C60.7308 65.1251 60.5589 65.1451 60.382 65.1131C60.0701 65.0571 59.9322 64.8562 59.8822 64.5794C59.8483 64.3812 59.8296 64.1807 59.8263 63.9797C59.8193 63.7428 59.9002 63.6619 60.1341 63.6479C60.4999 63.6234 60.8672 63.6609 61.2205 63.7588C61.2425 63.763 61.2627 63.7741 61.2782 63.7904C61.2936 63.8068 61.3035 63.8275 61.3064 63.8498C61.3928 64.1646 61.4497 64.4868 61.4763 64.8122C61.5013 65.0391 61.3764 65.1361 61.1455 65.139H60.8647Z" fill="#4E3D35"/>
<path d="M67.0934 63.3907C67.4013 63.2688 67.6931 63.1529 67.9789 63.0419C68.2288 62.942 68.3887 63.0419 68.3987 63.3078C68.4117 63.6416 68.4117 63.9774 68.4237 64.3072C68.4242 64.3433 68.4152 64.3789 68.3977 64.4105C68.3801 64.442 68.3547 64.4684 68.3238 64.4871C68.1429 64.631 67.964 64.7769 67.7791 64.9158C67.7318 64.9558 67.6741 64.9815 67.6128 64.9899C67.5515 64.9984 67.489 64.9893 67.4327 64.9636C67.3764 64.938 67.3285 64.8968 67.2946 64.845C67.2607 64.7932 67.2423 64.7329 67.2414 64.671C67.2414 64.3302 67.1764 63.9894 67.1464 63.6476C67.1434 63.5636 67.1084 63.4847 67.0934 63.3907Z" fill="#4E3D35"/>
<path d="M53.9631 58.9736C53.9521 59.0736 53.9431 59.1735 53.9281 59.2785C53.9219 59.3016 53.9105 59.3231 53.8949 59.3413C53.8792 59.3594 53.8597 59.3738 53.8377 59.3834C53.8157 59.393 53.7919 59.3976 53.7679 59.3967C53.744 59.3958 53.7205 59.3896 53.6993 59.3784C53.6573 59.3544 53.6633 59.3124 53.6653 59.2785C53.6703 59.1785 53.6753 59.0786 53.6833 58.9716C53.6806 58.9424 53.6864 58.913 53.7 58.8869C53.7135 58.8609 53.7343 58.8393 53.7598 58.8248C53.7853 58.8102 53.8145 58.8033 53.8438 58.8049C53.8731 58.8065 53.9013 58.8165 53.9251 58.8337C53.9891 58.8617 53.9621 58.9216 53.9631 58.9736Z" fill="white"/>
<path d="M50.9358 59.152C50.9358 59.112 50.9408 59.0721 50.9438 59.0331C50.9578 58.8592 50.9578 58.8592 51.1217 58.8722C51.2856 58.8852 51.2786 58.8902 51.2646 59.0451C51.2566 59.132 51.2416 59.218 51.2326 59.3049C51.2266 59.3749 51.1866 59.3949 51.1227 59.4049C50.9428 59.4259 50.9138 59.4049 50.9288 59.226C50.9268 59.199 50.9338 59.175 50.9358 59.152Z" fill="white"/>
</svg>
