<svg width="84" height="84" viewBox="0 0 84 84" fill="none" xmlns="http://www.w3.org/2000/svg">
<path d="M15.1358 72.6889C15.3059 72.6149 15.4572 72.5029 15.5784 72.3615C15.7378 72.2073 15.8849 72.0397 16.0388 71.8799C16.5622 71.3357 17.1829 71.0161 17.9476 71.025C18.0361 71.025 18.1246 71.015 18.2132 71.0127C18.2441 71.0134 18.2746 71.0051 18.3011 70.9889C18.3275 70.9727 18.3489 70.9492 18.3625 70.9211C18.5529 70.5658 18.8638 70.3423 19.177 70.13C20.0942 69.4839 21.1354 69.0393 22.2333 68.8248C22.6319 68.7414 23.0345 68.6791 23.4395 68.6382C23.8363 68.6002 24.2365 68.6194 24.628 68.6952C24.8979 68.7466 25.1721 68.7724 25.4468 68.7723C26.1904 68.7857 26.934 68.7835 27.6766 68.8148C28.5622 68.8485 29.4483 68.7598 30.3102 68.5511C30.3434 68.5433 30.3744 68.5276 30.4297 68.5075C30.2914 68.2114 30.1586 67.9264 30.0103 67.6136C29.8587 67.7253 29.727 67.827 29.5942 67.9242C29.0255 68.3388 28.6581 68.3008 28.1834 67.7778C27.9195 67.4861 27.7246 67.1376 27.6135 66.7587C27.5858 66.6671 27.5604 66.5732 27.5338 66.476C27.4231 66.476 27.4043 66.5677 27.3579 66.6224C27.2166 66.8059 27.062 66.9785 26.8953 67.1387C26.6297 67.3621 26.2568 67.2884 26.1639 66.9588C25.9713 66.2805 25.656 65.6436 25.5221 64.9474C25.5055 64.8602 25.4922 64.772 25.4723 64.6848C25.4644 64.6176 25.4424 64.5529 25.4076 64.4951C25.3729 64.4373 25.3262 64.3877 25.2709 64.3496C25.1226 64.2568 25.0418 64.0848 24.9312 63.9462C24.9188 63.9228 24.9021 63.9022 24.8818 63.8853C24.8616 63.8685 24.8382 63.8559 24.8131 63.8483C24.7881 63.8406 24.7617 63.838 24.7356 63.8406C24.7096 63.8432 24.6842 63.851 24.6611 63.8635C24.3568 63.9976 24.0736 63.9149 23.8024 63.7518C23.6055 63.6304 23.4322 63.4736 23.2912 63.2892C22.9922 62.8901 22.7442 62.4546 22.5531 61.993C22.2289 61.2812 21.9434 60.5515 21.6236 59.8386C21.5098 59.5813 21.3728 59.3352 21.2142 59.1033C21.1577 59.0486 21.1378 59.0787 21.119 59.091C20.745 59.3469 20.4374 59.2475 20.3002 58.8105C20.1745 58.382 20.0828 57.9441 20.0257 57.5009C19.8199 56.0295 19.8199 54.5362 20.0257 53.0648C20.1297 52.2513 20.4318 51.5004 20.7361 50.7428C20.9324 50.2539 21.1954 49.795 21.5174 49.3795C21.6037 49.2678 21.6789 49.1449 21.7664 49.032C21.81 48.9893 21.8381 48.9329 21.8459 48.872C21.8537 48.8111 21.8409 48.7494 21.8095 48.6968C21.7232 48.5359 21.8095 48.385 21.8892 48.2442C22.1813 47.7436 22.4878 47.2531 22.822 46.7793C22.894 46.6776 22.9725 46.5793 23.0356 46.4731C23.3931 45.8815 23.8929 45.3907 24.4885 45.0462C24.6844 44.9277 24.6744 44.9233 24.5992 44.711C24.545 44.5512 24.5095 44.3858 24.4653 44.2238C24.3823 44.2238 24.3358 44.2875 24.2738 44.3187C23.9618 44.4808 23.6641 44.3824 23.5358 44.0506C23.4674 43.8477 23.4109 43.641 23.3665 43.4315C23.3244 43.2684 23.2879 43.1041 23.2447 42.9242C23.1341 42.9812 23.0898 43.0829 23.0234 43.1566C22.6571 43.5466 22.2267 43.4762 22.0131 42.9823C21.8637 42.6184 21.7819 42.2297 21.7719 41.8358C21.7487 41.3352 21.7719 40.8358 21.7918 40.3251C21.6745 40.3251 21.6148 40.41 21.5384 40.4569C21.3038 40.6011 21.077 40.7609 20.7981 40.8033C20.7305 40.817 20.6608 40.816 20.5936 40.8002C20.5264 40.7845 20.4633 40.7545 20.4085 40.7122C20.3537 40.6699 20.3085 40.6163 20.2759 40.5549C20.2433 40.4935 20.224 40.4259 20.2194 40.3564C20.2129 40.2405 20.2248 40.1243 20.2548 40.0122C20.3409 39.647 20.4518 39.2882 20.5868 38.9384C20.7262 38.5704 20.8782 38.2087 21.0427 37.8534C21.067 37.8008 21.0869 37.7416 21.1135 37.6802C21.0028 37.669 20.9464 37.7338 20.8778 37.764C20.7671 37.812 20.6565 37.8757 20.5381 37.9137C20.1353 38.0411 19.821 37.7573 19.8985 37.3394C19.9499 37.0948 20.0198 36.8546 20.1076 36.6209C20.4049 35.7508 20.6484 34.863 20.8368 33.9625C20.8652 33.8227 20.8815 33.6806 20.8855 33.5379C20.8933 33.3222 20.8612 33.2988 20.6642 33.3625C20.3331 33.4606 20.0153 33.5999 19.7181 33.777C19.6221 33.8411 19.5179 33.8915 19.4083 33.9268C19.3271 33.9513 19.2405 33.9505 19.1598 33.9246C19.0791 33.8987 19.0079 33.8488 18.9557 33.7815C18.8953 33.7209 18.8561 33.6422 18.8437 33.5572C18.8313 33.4722 18.8465 33.3855 18.8871 33.3099C18.9901 33.102 19.1147 32.9057 19.2589 32.7244C19.5963 32.2869 19.9726 31.8814 20.3831 31.5131C20.6598 31.2628 20.9298 31.0047 21.2042 30.7511C21.2563 30.7036 21.2985 30.6461 21.3285 30.5821C21.3586 30.518 21.3757 30.4486 21.3791 30.3778C21.4052 30.1021 21.4459 29.8279 21.5008 29.5565C21.5594 29.2627 21.69 29.0135 22.012 28.9386C22.1227 28.9129 22.0961 28.8425 22.0828 28.7755C22.0251 28.4955 21.9471 28.2203 21.8494 27.9519C21.7132 27.5742 21.5694 27.1999 21.4067 26.8345C21.3811 26.7777 21.3597 26.7191 21.3425 26.6591C21.3208 26.5976 21.3119 26.5323 21.3161 26.4672C21.3204 26.4021 21.3379 26.3386 21.3674 26.2806C21.397 26.2225 21.438 26.1713 21.488 26.1299C21.5379 26.0885 21.5958 26.0579 21.6579 26.04C21.7575 26.0031 21.8626 25.9819 21.9644 25.954C21.9855 25.859 21.9191 25.8009 21.8737 25.7417C21.7866 25.6298 21.6931 25.523 21.5937 25.4221C21.2418 25.0578 21.1998 24.7259 21.4554 24.2857C21.5519 24.1265 21.6708 23.9823 21.8084 23.8577C21.825 23.8467 21.8389 23.8319 21.8491 23.8147C21.8592 23.7975 21.8654 23.7781 21.8671 23.7581C21.8688 23.7381 21.866 23.718 21.8589 23.6992C21.8518 23.6805 21.8406 23.6636 21.8261 23.6499C21.6137 23.404 21.4266 23.1392 21.0902 23.023C19.9018 22.6129 18.7078 22.2218 17.4917 21.9056C17.3025 21.8606 17.1175 21.7997 16.9384 21.7234C16.838 21.6862 16.7491 21.623 16.6806 21.5402C16.6235 21.4766 16.5858 21.3979 16.5718 21.3133C16.5579 21.2287 16.5684 21.1418 16.602 21.063C16.6341 20.9884 16.6881 20.9255 16.7568 20.8829C16.8255 20.8403 16.9055 20.8201 16.986 20.825C17.1188 20.825 17.2516 20.825 17.3843 20.825C18.066 20.834 18.7476 20.8451 19.4293 20.853C19.5193 20.8697 19.6121 20.862 19.6982 20.8306C19.6572 20.7502 19.5765 20.7334 19.5112 20.6999C19.0661 20.4805 18.6324 20.2381 18.2121 19.9736C17.8294 19.7458 17.5002 19.437 17.2471 19.0684C17.163 18.9506 17.1042 18.8162 17.0745 18.674C17.0081 18.2997 17.3058 18.0427 17.6599 18.1767C17.7579 18.2174 17.8513 18.2683 17.9387 18.3287C18.575 18.7343 19.2168 19.131 19.8819 19.4864C20.1624 19.6414 20.4551 19.7726 20.7572 19.8786C20.7811 19.7793 20.7734 19.6748 20.735 19.5802C20.6277 19.1374 20.4795 18.7057 20.2924 18.2907C20.06 17.7786 19.9095 17.2324 19.8465 16.6727C19.828 16.5488 19.8359 16.4223 19.8697 16.3017C19.8896 16.2274 19.9307 16.1608 19.988 16.1101C20.0453 16.0594 20.1162 16.0269 20.1917 16.0168C20.2668 16.0043 20.3439 16.0154 20.4126 16.0485C20.4813 16.0817 20.5382 16.1354 20.5757 16.2023C20.6153 16.2717 20.6486 16.3447 20.6753 16.4202C20.9586 17.0839 21.1876 17.7711 21.4919 18.4315C21.7862 19.0515 22.1659 19.6263 22.6195 20.1389C22.8168 20.3908 23.0731 20.5889 23.3654 20.7155C23.3786 20.4675 23.3133 20.2362 23.2945 20.0015C23.2794 19.8865 23.2884 19.7696 23.3211 19.6584C23.3388 19.5932 23.372 19.5333 23.4179 19.4839C23.4637 19.4346 23.5208 19.3973 23.5841 19.3753C23.6475 19.3533 23.7152 19.3472 23.7814 19.3576C23.8476 19.368 23.9103 19.3945 23.964 19.435C24.0778 19.5205 24.1831 19.6171 24.2783 19.7233C24.608 20.0625 24.9799 20.357 25.3848 20.5993C25.8835 20.9003 26.4707 21.0157 27.0447 20.9256C27.0856 20.8306 27.006 20.7759 26.9761 20.7021C26.8887 20.5021 26.9064 20.3345 27.0336 20.2071C27.1003 20.1399 27.1887 20.0993 27.2826 20.0927C27.3766 20.0862 27.4697 20.1141 27.5449 20.1713C27.8505 20.3687 28.1718 20.5403 28.5054 20.6842C29.0009 20.9028 29.5321 21.0274 30.0723 21.0519C30.2419 21.065 30.4125 21.0541 30.5791 21.0195C30.5797 20.8945 30.5468 20.7717 30.4839 20.6641C30.4517 20.6005 30.4229 20.5353 30.3976 20.4686C30.3728 20.3959 30.3701 20.3173 30.3898 20.2431C30.4095 20.1688 30.4508 20.1022 30.5083 20.0518C30.5602 20.0022 30.625 19.9685 30.6952 19.9549C30.7654 19.9412 30.838 19.9481 30.9044 19.9747C30.994 20.0129 31.0809 20.0574 31.1645 20.1076C31.7366 20.4116 32.3142 20.7032 32.9527 20.8418C33.028 20.8747 33.1128 20.8783 33.1906 20.8518C33.1104 20.5591 32.9889 20.2794 32.8299 20.0216C32.7692 19.9333 32.7253 19.8344 32.7004 19.73C32.6818 19.6557 32.6865 19.5774 32.7138 19.506C32.7412 19.4345 32.7899 19.3734 32.8531 19.331C32.9124 19.2827 32.9855 19.2549 33.0617 19.2519C33.1378 19.2489 33.2129 19.2708 33.2758 19.3143C33.3492 19.3641 33.4165 19.4226 33.4761 19.4886C34.2706 20.3322 35.2532 20.8217 36.3808 21.063C36.4096 20.9591 36.3399 20.8753 36.3178 20.7848C36.2746 20.6027 36.2071 20.425 36.2613 20.2328C36.3487 19.8976 36.7183 19.7735 36.933 20.0428C37.4863 20.739 38.2399 21.1603 38.978 21.5949C39.6911 22.0188 40.2942 22.6079 40.7374 23.3135C40.8182 23.2979 40.837 23.2208 40.8746 23.1683C41.045 22.9284 41.2236 22.6948 41.4102 22.4676C41.7683 22.0337 42.2104 21.6782 42.7093 21.4228C42.9306 21.3111 43.1519 21.1994 43.3733 21.0876C43.8751 20.84 44.3394 20.5213 44.752 20.1412C44.8095 20.0858 44.8701 20.034 44.9335 19.9858C44.9951 19.9349 45.0709 19.9048 45.1504 19.8998C45.2298 19.8948 45.3088 19.9151 45.3761 19.9579C45.4499 20.0027 45.5072 20.0706 45.5393 20.1513C45.5715 20.2319 45.5767 20.3209 45.5543 20.4049C45.5311 20.5166 45.4923 20.6284 45.4625 20.7401C45.4204 20.8341 45.4118 20.9399 45.4381 21.0396C45.8226 20.8807 46.1832 20.6682 46.5093 20.4082C46.9676 20.0706 47.3711 19.6631 47.7055 19.2003C47.7357 19.156 47.7698 19.1145 47.8073 19.0763C47.8649 19.0133 47.9418 18.9717 48.0256 18.9579C48.1094 18.9441 48.1954 18.959 48.2698 19.0003C48.3439 19.0414 48.4032 19.1052 48.439 19.1825C48.4748 19.2599 48.4853 19.3467 48.469 19.4305C48.4236 19.7657 48.3805 20.1009 48.3373 20.4362C48.3311 20.46 48.3296 20.4848 48.3331 20.5092C48.3365 20.5335 48.3447 20.557 48.3572 20.5781C48.7412 20.5244 49.0909 20.3546 49.4428 20.1948C49.7659 20.0473 50.0791 19.8808 50.3856 19.7031C50.446 19.6654 50.5084 19.6311 50.5726 19.6003C50.9046 19.4528 51.21 19.6249 51.2509 19.9881C51.2646 20.1841 51.3122 20.3762 51.3915 20.5557C51.4955 20.768 51.5408 20.7893 51.7666 20.7334C51.9884 20.6715 52.2029 20.5853 52.4062 20.4764C53.1866 20.0716 53.9104 19.564 54.5585 18.9668C54.9413 18.6211 55.3231 18.2747 55.7038 17.9276C55.7624 17.8728 55.8144 17.8158 55.8808 17.7655C55.9376 17.708 56.0108 17.6698 56.0901 17.6562C56.1694 17.6426 56.251 17.6542 56.3234 17.6896C56.4011 17.7261 56.4666 17.7846 56.512 17.858C56.5573 17.9314 56.5807 18.0165 56.5791 18.103C56.5788 18.1923 56.5658 18.2812 56.5403 18.3667C56.4838 18.5475 56.454 18.7358 56.4518 18.9254C56.5414 18.9321 56.5702 18.8573 56.6134 18.8137C57.0893 18.2832 57.4958 17.6933 57.8228 17.0582C58.271 16.1967 58.7081 15.3296 59.019 14.4043C59.0426 14.326 59.0757 14.251 59.1175 14.1809C59.1537 14.1187 59.2072 14.0687 59.2714 14.0371C59.3355 14.0055 59.4075 13.9937 59.4783 14.0032C59.5499 14.0076 59.6187 14.0332 59.6761 14.0767C59.7335 14.1202 59.7771 14.1797 59.8014 14.2479C59.8393 14.3554 59.8573 14.4691 59.8545 14.5831C59.8793 15.361 59.8199 16.1392 59.6775 16.904C59.6609 17.0001 59.6531 17.0984 59.642 17.1957C59.7295 17.2303 59.7527 17.1588 59.797 17.123C60.4109 16.5397 60.974 15.9041 61.4801 15.2234C61.6051 15.0625 61.7324 14.9016 61.8685 14.7485C62.0367 14.5585 62.2359 14.5194 62.4107 14.6278C62.4994 14.6903 62.5628 14.7831 62.5892 14.889C62.6156 14.9949 62.6033 15.1069 62.5545 15.2044C62.5127 15.2933 62.4643 15.3788 62.4096 15.4603L61.3893 17.123C61.3714 17.153 61.3551 17.1839 61.3406 17.2158C61.4103 17.2694 61.4613 17.2158 61.5144 17.1968C62.3399 16.8526 63.1753 16.5345 64.0207 16.2425C64.0539 16.2313 64.0871 16.2179 64.1214 16.2079C64.3317 16.1475 64.491 16.19 64.5995 16.333C64.6546 16.4096 64.6836 16.5022 64.6822 16.5969C64.6808 16.6916 64.6491 16.7833 64.5917 16.8582C64.5238 16.9523 64.4425 17.0359 64.3505 17.1063C63.9948 17.4014 63.6086 17.6569 63.1986 17.8683C62.3945 18.2974 61.5896 18.7273 60.784 19.1578C60.3956 19.371 60.0206 19.608 59.6609 19.8674C59.5666 19.934 59.4768 20.0068 59.392 20.0853C59.2038 20.2563 59.205 20.2585 59.3466 20.4641C59.4228 20.5642 59.4676 20.6851 59.4753 20.8111C59.483 20.9371 59.4532 21.0626 59.3898 21.1714C59.3038 21.3277 59.1993 21.4729 59.0788 21.6039C58.8265 21.891 58.5698 22.1749 58.3042 22.4732C58.6749 22.6967 58.6672 23.0476 58.5842 23.4152C58.5089 23.7092 58.4113 23.9969 58.292 24.2756C58.1543 24.6149 58.0433 24.9646 57.9601 25.3215C57.9103 25.5506 57.9136 25.5584 58.115 25.688C58.4188 25.8744 58.676 26.1291 58.8663 26.4322C59.1131 26.8356 59.0644 27.1083 58.6948 27.4077L58.6008 27.4904C58.6904 27.5865 58.7723 27.6759 58.8564 27.7642C59.159 28.0904 59.4385 28.4377 59.693 28.8034C59.8346 29.0012 59.8877 29.2068 59.7516 29.4236C59.6974 29.5096 59.7372 29.5543 59.7892 29.6057C59.9087 29.7241 60.0271 29.8448 60.1489 29.9622C60.4698 30.2694 60.784 30.5846 61.0806 30.9176C61.2422 31.086 61.3405 31.3061 61.3583 31.54C61.3792 31.6827 61.3486 31.8282 61.272 31.95C61.2508 31.9788 61.2337 32.0104 61.2211 32.0439C61.0883 32.3959 61.0773 32.4048 60.69 32.4171C60.7184 32.5892 60.7625 32.7583 60.8217 32.9222C60.8626 33.0865 60.9224 33.2463 60.9578 33.4116C60.9976 33.6027 60.9578 33.7904 60.7719 33.8709C60.586 33.9513 60.6369 34.0519 60.6667 34.1715C60.8006 34.7302 60.9478 35.2777 61.0507 35.8409C61.0905 36.0644 61.1337 36.2789 61.1669 36.5002C61.2466 37.0343 60.9865 37.3572 60.4465 37.4008C60.3503 37.4086 60.2529 37.4109 60.1411 37.4165C60.1628 37.5919 60.1999 37.765 60.2518 37.9338C60.3436 38.3808 60.244 38.5931 59.8279 38.7507C59.7774 38.7622 59.733 38.7922 59.7031 38.8349C59.6733 38.8777 59.6602 38.93 59.6664 38.982C59.6664 39.2144 59.6564 39.4468 59.6487 39.6781C59.6549 39.8276 59.6092 39.9747 59.5195 40.0938C59.4298 40.2129 59.3017 40.2967 59.1574 40.3307C59.0091 40.3709 58.9538 40.4368 58.9593 40.5866C58.9645 40.7657 58.9451 40.9447 58.9018 41.1185C58.8066 41.5118 58.52 41.6973 58.1272 41.6179C57.8195 41.5554 57.8284 41.5598 57.7089 41.8493C57.6591 41.9688 57.6934 42.0213 57.7819 42.0906C58.3476 42.5249 58.8251 43.0651 59.1884 43.6818C59.5889 44.3646 60.0659 45.0048 60.3801 45.7379C60.7829 46.6799 61.2067 47.6151 61.4214 48.6264C61.4565 48.7831 61.4827 48.9416 61.5 49.1013C61.5216 49.2258 61.5047 49.3541 61.4514 49.4685C61.3981 49.5829 61.3111 49.6779 61.2023 49.7405C61.1633 49.7584 61.1321 49.7901 61.1146 49.8296C61.097 49.8691 61.0944 49.9137 61.1071 49.955C61.3041 51.2769 61.3063 52.6089 61.2742 53.9408C61.268 54.3077 61.2216 54.6727 61.1359 55.0292C61.1225 55.146 61.0641 55.2528 60.9733 55.3264C60.9177 55.3609 60.8721 55.4095 60.8411 55.4673C60.81 55.5252 60.7945 55.5903 60.7962 55.6561C60.7032 56.4628 60.6003 57.2696 60.5063 58.0764C60.3525 59.3882 59.984 60.6465 59.5624 61.8879C59.3256 62.5885 59.0899 63.2892 58.738 63.9451C58.4225 64.5044 58.0458 65.0262 57.6148 65.5005C57.5729 65.547 57.527 65.5896 57.4776 65.6279C57.1998 65.8514 56.8801 65.7475 56.7639 65.4044C56.7107 65.248 56.7384 65.086 56.7152 64.9206C56.6571 64.9762 56.62 65.0505 56.61 65.1307C56.4175 65.7266 56.225 66.3203 56.0324 66.9118C56.0108 66.9885 55.983 67.0632 55.9494 67.1353C55.9108 67.2222 55.8429 67.2924 55.7577 67.3334C55.6726 67.3743 55.5758 67.3833 55.4847 67.3588C55.4422 67.3541 55.4008 67.3428 55.3618 67.3253C55.1306 67.1845 54.9712 67.2515 54.8085 67.4638C54.5762 67.7667 54.3028 68.0382 54.0572 68.3309C53.8801 68.5421 53.671 68.6259 53.4231 68.5019C53.3004 68.43 53.1572 68.4019 53.0166 68.4221C52.8761 68.4424 52.7464 68.5099 52.6485 68.6137C52.565 68.6794 52.4778 68.7402 52.3874 68.7958C52.3807 68.7958 52.3796 68.8114 52.3719 68.8304C52.4261 68.9008 52.5113 68.8751 52.5821 68.8796C52.8732 68.8997 53.1653 68.9142 53.4574 68.9254C54.0656 68.9392 54.6481 69.175 55.0974 69.5892C55.1784 69.6692 55.2785 69.7269 55.3879 69.7569C55.4974 69.7868 55.6126 69.7879 55.7226 69.7601C56.2759 69.6607 56.8291 69.5199 57.3935 69.4573C57.8338 69.4005 58.2808 69.4338 58.708 69.5553C59.1353 69.6769 59.5338 69.8841 59.88 70.1646C60.0606 70.3048 60.2707 70.4012 60.4941 70.4462C61.3262 70.6339 62.1307 70.901 62.8257 71.4284C63.1532 71.6746 63.5254 71.8534 63.9212 71.9547C64.8178 72.2007 65.7356 72.3598 66.6621 72.4296C67.1925 72.4662 67.7254 72.4286 68.2456 72.3179V73.1761C68.1992 73.128 68.146 73.1593 68.0962 73.166C67.3759 73.2649 66.6455 73.2649 65.9252 73.166C65.3309 73.0733 64.74 72.9593 64.1491 72.8453C63.2085 72.6654 62.424 72.1749 61.6804 71.6016C61.3108 71.3189 60.929 71.1033 60.4631 71.082C60.3473 71.0706 60.2347 71.0373 60.1312 70.9837C59.7018 70.7971 59.2968 70.558 58.8486 70.4127C58.404 70.2591 57.9319 70.2038 57.4643 70.2507C56.8834 70.3177 56.3168 70.463 55.7414 70.5635C55.5467 70.6083 55.344 70.6021 55.1524 70.5453C54.9609 70.4886 54.7869 70.3833 54.647 70.2395C54.1092 69.7065 53.4298 69.6964 52.747 69.6964C52.7401 69.7736 52.7457 69.8513 52.7636 69.9266C52.8211 70.5289 52.8156 71.12 52.4803 71.6597C52.3807 71.8206 52.2657 71.9179 52.0731 71.8933C51.9846 71.8798 51.9032 71.8368 51.8416 71.7712C51.7801 71.7056 51.742 71.6212 51.7334 71.5312C51.7068 71.3916 51.6936 71.2485 51.6736 71.1066C51.6423 70.7953 51.5549 70.4923 51.4158 70.2127C51.3402 70.0607 51.2321 69.9275 51.0993 69.8227C51.0429 69.7825 50.9887 69.7344 50.9057 69.7802C50.8182 69.8408 50.7208 69.885 50.618 69.911C50.5073 69.93 50.4121 69.8529 50.286 69.8618C50.448 70.1775 50.56 70.5168 50.618 70.8675C50.7043 71.3815 50.6069 71.881 50.5128 72.3816C50.4188 72.8822 50.1366 73.2599 49.8489 73.6465C49.8002 73.698 49.7468 73.7447 49.6896 73.7862C49.654 73.8204 49.6082 73.8418 49.5593 73.8469C49.5104 73.8519 49.4612 73.8404 49.4196 73.8141C49.2148 73.7225 49.1307 73.5336 49.1883 73.2487C49.2697 72.8368 49.3134 72.4183 49.3189 71.9983C49.3446 71.4259 49.2785 70.8531 49.123 70.3021C49.0212 69.9769 48.812 69.6875 48.8253 69.2964C48.6947 69.3903 48.5752 69.4405 48.5088 69.5478C48.2189 70.0182 47.9379 70.492 47.7885 71.0329C47.6965 71.3871 47.6249 71.7464 47.5738 72.1089C47.534 72.357 47.3801 72.5056 47.1799 72.5112C47.0638 72.5118 46.951 72.472 46.8606 72.3985C46.7701 72.3251 46.7074 72.2224 46.683 72.1078C46.5533 71.3559 46.6091 70.5833 46.8457 69.8585C46.8877 69.7277 47.036 69.5992 46.9563 69.4729C46.8767 69.3467 46.735 69.2986 46.6244 69.2193C46.5684 69.1758 46.5041 69.1446 46.4355 69.1276C46.3669 69.1107 46.2955 69.1084 46.226 69.121C46.0491 69.1453 45.8691 69.1182 45.707 69.0427C45.4538 68.934 45.2285 68.7681 45.0486 68.5578C44.9966 68.5019 44.9612 68.4282 44.8826 68.3902C44.7821 68.4953 44.6708 68.5893 44.5506 68.6706C44.4134 68.771 44.2476 68.8236 44.0781 68.8204C44.0093 68.8141 43.9402 68.8279 43.8788 68.8599C43.8175 68.892 43.7665 68.9411 43.7318 69.0014C43.5547 69.2394 43.3733 69.274 43.1021 69.159C43.0125 69.121 42.924 69.0796 42.8332 69.0472C42.7149 68.9946 42.5846 68.9757 42.4564 68.9927C42.3283 69.0096 42.2071 69.0617 42.1062 69.1433C42.0022 69.2274 41.8911 69.3022 41.7743 69.3668C41.6792 69.4264 41.5662 69.45 41.4555 69.4332C41.3448 69.4164 41.2436 69.3604 41.1701 69.2752C41.1255 69.2314 41.0851 69.1836 41.0495 69.1321C41.0354 69.1072 41.0166 69.0855 40.994 69.0681C40.9713 69.0508 40.9455 69.0384 40.918 69.0315C40.8904 69.0246 40.8618 69.0234 40.8338 69.028C40.8058 69.0326 40.779 69.043 40.7551 69.0584C40.5069 69.1558 40.246 69.216 39.9805 69.2372C39.817 69.2597 39.6505 69.236 39.4995 69.1687C39.3485 69.1015 39.2189 68.9933 39.1251 68.8561C39.0365 68.7227 38.9602 68.5813 38.8972 68.4337C38.8728 68.3823 38.8773 68.3052 38.7865 68.2963C38.6139 68.648 38.3859 68.9692 38.1115 69.2472C37.9865 69.3724 37.8526 69.4707 37.6689 69.426C37.6402 69.4149 37.6086 69.4144 37.5796 69.4246C37.5506 69.4348 37.5262 69.4551 37.5106 69.4819C37.3598 69.7319 37.1387 69.9311 36.8755 70.054C37.1336 70.2653 37.3257 70.5474 37.4288 70.8664C37.504 71.1042 37.565 71.3464 37.6113 71.5916C37.6661 71.8538 37.6402 72.1267 37.5372 72.3738C37.4265 72.6475 37.3347 72.9325 37.234 73.2029C37.161 73.3996 37.1056 73.4208 36.9264 73.3236C36.8626 73.2912 36.8081 73.2427 36.7684 73.1828C36.7286 73.1228 36.7049 73.0536 36.6995 72.9816C36.6918 72.9023 36.6995 72.8207 36.6885 72.7414C36.6353 72.176 36.4306 71.6866 35.9791 71.3256C35.8619 71.2318 35.7379 71.1413 35.573 71.2463C35.5232 71.2648 35.4695 71.2702 35.417 71.2619C35.2401 71.2649 35.0642 71.2881 34.8925 71.3312C34.8338 71.3433 34.7787 71.3691 34.7316 71.4066C34.6845 71.444 34.6468 71.4921 34.6214 71.5469C34.468 71.8282 34.3607 72.1327 34.3038 72.4486C34.1387 73.1631 34.0705 73.8969 34.1013 74.6298C34.1079 74.676 34.1045 74.7231 34.0912 74.7678C34.078 74.8125 34.0552 74.8537 34.0245 74.8886C33.9939 74.9235 33.9561 74.9512 33.9137 74.9698C33.8713 74.9884 33.8255 74.9975 33.7793 74.9963C33.704 75.0003 33.6289 74.9853 33.5607 74.9527C33.4925 74.9202 33.4334 74.871 33.3887 74.8097C32.9151 74.2901 32.7568 73.6364 32.7745 72.9749C32.7955 72.1927 32.9958 71.4385 33.5558 70.8351C33.5653 70.8246 33.5706 70.8108 33.5706 70.7965C33.5706 70.7823 33.5653 70.7685 33.5558 70.758C33.3201 70.6462 33.1131 70.7502 32.9151 70.8697C32.6009 71.0886 32.3253 71.3591 32.0995 71.6698C31.8118 72.0341 31.5982 72.452 31.3515 72.8397C31.2253 73.0409 31.0604 73.1314 30.8734 73.0911C30.7801 73.0739 30.6957 73.024 30.635 72.9503C30.5743 72.8765 30.5412 72.7836 30.5415 72.6878C30.4596 71.7245 30.7097 70.8999 31.5296 70.3188L31.72 70.1803C31.4521 69.9571 31.2157 69.6981 31.0173 69.4104C30.9864 69.3477 30.9331 69.2994 30.8681 69.2751C30.8031 69.2508 30.7314 69.2524 30.6676 69.2796C29.6455 69.542 28.5908 69.6519 27.5371 69.6059C26.9617 69.578 26.3863 69.5825 25.812 69.5746C25.5021 69.5746 25.1923 69.5545 24.8836 69.5322C24.5306 69.5054 24.1897 69.397 23.8301 69.4115C23.3885 69.4355 22.9489 69.4892 22.5144 69.5724C21.4309 69.7699 20.4043 70.2081 19.509 70.8552C19.2821 71.015 19.0763 71.1904 18.9689 71.4631C18.9319 71.5552 18.8688 71.6342 18.7875 71.6903C18.7062 71.7463 18.6104 71.7769 18.5119 71.7782C18.3283 71.8013 18.1436 71.8151 17.9587 71.8195C17.4054 71.8083 16.9694 72.043 16.5976 72.4352C16.4261 72.6162 16.2601 72.8029 16.0775 72.9716C15.8086 73.2448 15.4853 73.4573 15.1292 73.5951L15.1358 72.6889ZM41.2221 42.9153C41.205 42.9447 41.1946 42.9776 41.1915 43.0116C41.1885 43.0456 41.1928 43.0799 41.2044 43.1119C41.239 43.0947 41.2685 43.0686 41.2901 43.0363C41.3116 43.0039 41.3244 42.9664 41.3272 42.9276C41.481 42.656 41.6359 42.3856 41.7864 42.113C42.1192 41.48 42.5701 40.918 43.1143 40.4581C43.3356 40.2748 43.5569 40.077 43.7705 39.8871C43.7245 39.8163 43.6563 39.7632 43.5769 39.7362C43.1061 39.4862 42.6613 39.1894 42.249 38.8501C41.9613 38.6121 41.6725 38.3763 41.4058 38.1148C41.3438 38.0534 41.2885 37.9629 41.1767 37.9673C41.1798 38.4095 41.2168 38.8507 41.2874 39.287C41.4561 40.4923 41.434 41.717 41.2221 42.9153ZM57.7963 63.9518C57.8852 63.8779 57.9519 63.7804 57.9888 63.6702C58.2297 63.2033 58.4393 62.7206 58.6163 62.2254C59.2614 60.4654 59.7228 58.6664 59.8689 56.7914C59.9121 56.2394 60.0039 55.6929 60.0791 55.1443C60.1068 54.9476 60.1621 54.7565 60.3425 54.6392C60.3756 54.617 60.4026 54.5867 60.4209 54.5512C60.4393 54.5156 60.4485 54.4759 60.4476 54.4359C60.462 54.2392 60.493 54.0436 60.4941 53.8481C60.5041 52.4368 60.5273 51.0244 60.2529 49.6287C60.1942 49.3326 60.2872 49.1628 60.5561 49.0566C60.6667 49.013 60.6911 48.9605 60.6667 48.8588C60.6512 48.7985 60.6424 48.737 60.628 48.6756C60.4155 47.7671 60.0426 46.9156 59.6642 46.0697C59.2857 45.2239 58.7535 44.4785 58.2622 43.7042C57.9785 43.2705 57.6272 42.886 57.222 42.5655C57.0866 42.4507 56.9262 42.3699 56.7539 42.3297C56.5536 42.285 56.5558 42.2806 56.4596 42.475C56.3942 42.6216 56.3203 42.7641 56.2382 42.9019C56.172 43.0205 56.0638 43.1095 55.9353 43.1509C55.8069 43.1924 55.6676 43.1832 55.5455 43.1253C55.4238 43.0784 55.3165 42.9421 55.1837 42.9957C55.0509 43.0494 55.0144 43.1957 54.9447 43.3086C54.6658 43.7556 54.2741 43.9556 53.7606 43.6047C53.7444 43.5898 53.7252 43.5785 53.7043 43.5718C53.6833 43.5651 53.6612 43.5631 53.6395 43.5658C53.6177 43.5686 53.5967 43.5761 53.5781 43.5878C53.5595 43.5996 53.5436 43.6152 53.5316 43.6338C53.3955 43.7869 53.2593 43.9399 53.1133 44.0807C52.5301 44.6473 51.8961 44.6931 51.2432 44.2204C51.1071 44.121 50.971 44.0204 50.8437 43.9098C50.743 43.8226 50.6866 43.8472 50.6102 43.9455C50.431 44.178 50.2451 44.4059 50.0569 44.6272C49.7847 44.9378 49.7814 44.9344 50.0702 45.2239C50.1266 45.2797 50.1809 45.3356 50.2473 45.3848C50.8345 45.8618 51.5255 46.1912 52.2634 46.3457C52.9163 46.4787 53.3601 46.8084 53.5913 47.4341C53.6068 47.4755 53.6323 47.5134 53.6444 47.5559C53.6801 47.6855 53.7477 47.8038 53.841 47.8997C53.9343 47.9957 54.0502 48.0662 54.1778 48.1046C54.3329 48.1603 54.4726 48.2527 54.5852 48.374C54.6978 48.4953 54.78 48.6419 54.8251 48.8018C55.0423 49.4277 55.118 50.0947 55.0465 50.754C55.0234 51.0476 55.0186 51.3425 55.0321 51.6367C55.0321 51.7373 55.0741 51.7708 55.1826 51.7607C55.5765 51.7228 55.7879 51.9306 55.758 52.3195C55.7431 52.5072 55.7165 52.6938 55.6783 52.8782C55.509 53.7084 55.2899 54.5275 55.1372 55.3622C54.9502 56.3891 54.7023 57.4059 54.6171 58.4496C54.5945 58.5567 54.5964 58.6675 54.6226 58.7737C54.682 58.7839 54.743 58.7707 54.7931 58.7368C55.2003 58.5379 55.6263 58.6161 55.8775 59.1648C56.0119 59.4566 56.1168 59.7613 56.1907 60.0743C56.3456 60.7258 56.4452 61.3873 56.5614 62.0466C56.62 62.3818 56.672 62.717 56.8314 63.0232C56.9343 63.221 57.0604 63.3696 57.316 63.373C57.5451 63.373 57.6867 63.5238 57.7399 63.7507C57.7531 63.811 57.7609 63.8724 57.7719 63.935C57.7399 63.954 57.7266 63.9976 57.7531 64.0088C57.7797 64.0199 57.7863 63.973 57.7963 63.9518ZM30.8081 45.606C30.7683 45.8574 30.7307 46.0865 30.6975 46.3156C30.5968 46.9961 30.4762 47.6721 30.225 48.3169C30.1293 48.5765 30.0054 48.8246 29.8554 49.0566C29.6474 49.3661 29.2833 49.5103 28.9701 49.2577C28.8838 49.1896 28.8263 49.2242 28.7643 49.2812C28.3792 49.641 28.0694 50.0455 27.9897 50.5886C27.9521 50.8545 27.92 51.1205 27.8912 51.3864C27.8746 51.5373 27.8293 51.6825 27.6876 51.7384C27.546 51.7943 27.5482 51.8803 27.5637 51.9921C27.5736 52.0625 27.5814 52.134 27.5925 52.2044C27.6891 52.8048 27.7702 53.4063 27.8359 54.009C27.9189 54.7644 28.0063 55.5186 28.086 56.2729C28.138 56.7612 28.2055 57.2484 28.2199 57.7412C28.2265 57.9647 28.2199 58.2049 28.0484 58.368C27.9804 58.4231 27.9348 58.5013 27.9202 58.588C27.9055 58.6747 27.9227 58.7638 27.9687 58.8385C27.9809 58.8719 27.9901 58.9063 27.9964 58.9413C28.252 59.9179 28.4113 60.9176 28.4722 61.9259C28.491 62.2466 28.4877 62.5695 28.5098 62.8902C28.5662 63.7261 28.3859 64.5239 28.1369 65.3106C28.0998 65.3908 28.0831 65.4791 28.0882 65.5676C28.1407 65.9108 28.2275 66.2477 28.3471 66.5732C28.4499 66.8404 28.6084 67.082 28.8119 67.2817C28.8279 67.3052 28.8491 67.3248 28.8737 67.3389C28.8983 67.3529 28.9257 67.3612 28.9539 67.363C28.9822 67.3649 29.0105 67.3602 29.0366 67.3494C29.0628 67.3386 29.0862 67.322 29.1051 67.3007C29.2944 67.1521 29.4847 67.0057 29.6861 66.8761C30.1022 66.6057 30.4042 66.6839 30.6521 67.1241C30.7473 67.2951 30.8314 67.4728 30.91 67.6527C31.1553 68.198 31.468 68.7097 31.8406 69.1757C32.0807 69.483 32.3684 69.6663 32.7723 69.6305C32.8966 69.6221 33.0211 69.6405 33.1378 69.6847C33.2544 69.7288 33.3603 69.7976 33.4484 69.8864C33.6697 70.0898 33.8999 70.2864 34.1256 70.4864C34.4322 70.2149 34.4322 70.2082 34.8482 70.1512C35.0248 70.1275 35.1858 70.0368 35.2986 69.8976C35.4369 69.7344 35.5753 69.5713 35.7257 69.4204C35.8012 69.3377 35.8981 69.2779 36.0055 69.2478C36.1128 69.2178 36.2264 69.2188 36.3333 69.2506C36.6331 69.3321 36.6508 69.3221 36.8367 69.0662C36.9563 68.9008 37.068 68.731 37.192 68.5656C37.2414 68.4843 37.3154 68.4211 37.403 68.3854C37.4906 68.3496 37.5873 68.343 37.6788 68.3667C37.8072 68.4025 37.8537 68.3388 37.909 68.255C38.1924 67.8433 38.3991 67.3828 38.5187 66.8962C38.5552 66.7409 38.5763 66.58 38.6194 66.4258C38.6388 66.3467 38.6851 66.277 38.7502 66.229C38.8154 66.1809 38.8953 66.1576 38.9757 66.1632C39.0601 66.1708 39.1388 66.209 39.1976 66.2705C39.2563 66.3321 39.2911 66.413 39.2955 66.4984C39.3007 66.5697 39.297 66.6414 39.2845 66.7118C39.2557 66.8872 39.2247 67.0638 39.1871 67.2381C39.1738 67.3029 39.1616 67.3577 39.2236 67.4046C39.3343 67.4895 39.3675 67.6281 39.4173 67.7477C39.4814 67.9041 39.5445 68.0616 39.622 68.2125C39.7548 68.4729 39.7846 68.4829 40.058 68.4282C40.2416 68.3985 40.421 68.3468 40.5924 68.274C40.7365 68.1916 40.9047 68.1628 41.0676 68.1926C41.2306 68.2224 41.378 68.3089 41.4843 68.4371C41.4964 68.4547 41.5122 68.4693 41.5305 68.4801C41.5488 68.4908 41.5693 68.4974 41.5903 68.4993C41.6114 68.5012 41.6327 68.4985 41.6526 68.4912C41.6725 68.4839 41.6906 68.4723 41.7057 68.4572C42.1361 68.1399 42.6053 68.122 43.0933 68.2952C43.1311 68.3157 43.1746 68.3229 43.2169 68.3156C43.2592 68.3083 43.2979 68.287 43.3268 68.255C43.406 68.1759 43.5012 68.115 43.6058 68.0764C43.7105 68.0378 43.8221 68.0225 43.9332 68.0315C44.2043 68.0527 44.3039 67.8192 44.4776 67.6963C44.5208 67.6661 44.4876 67.6147 44.4676 67.5756C44.2773 67.1778 44.2342 66.7364 44.0981 66.3229C44.061 66.2018 44.0668 66.0714 44.1147 65.9542C44.1404 65.8676 44.194 65.7922 44.2669 65.7398C44.3399 65.6873 44.428 65.661 44.5174 65.6648C44.6023 65.6692 44.6834 65.7017 44.7482 65.7572C44.813 65.8127 44.8579 65.8882 44.876 65.9721C44.9198 66.1358 44.9527 66.3023 44.9745 66.4704C45.0443 66.9395 45.2105 67.3887 45.4625 67.789C45.5579 67.951 45.6834 68.0929 45.8321 68.2069C45.8889 68.2572 45.9562 68.294 46.0289 68.3147C46.1017 68.3354 46.1781 68.3394 46.2525 68.3265C46.4635 68.2913 46.6801 68.3308 46.8656 68.4382C47.0603 68.5437 47.2455 68.6664 47.4189 68.8047C47.5182 68.8886 47.643 68.9355 47.7725 68.9378C47.9019 68.94 48.0283 68.8974 48.1304 68.817C48.2875 68.7131 48.4137 68.5745 48.5609 68.4595C48.9249 68.1723 49.2779 68.2661 49.4516 68.7008C49.5021 68.8436 49.5445 68.9891 49.5789 69.1366C49.6088 69.2483 49.6619 69.2863 49.7659 69.2115C49.819 69.1631 49.8834 69.1291 49.9531 69.1126C50.0228 69.0962 50.0954 69.0979 50.1643 69.1176C50.3457 69.1925 50.4675 69.1087 50.6069 69.0193C51.2708 68.5723 51.9348 68.1387 52.5987 67.6873C52.6887 67.6149 52.7963 67.5684 52.9103 67.5529C53.0243 67.5373 53.1403 67.5533 53.2461 67.599C53.2704 67.6102 53.297 67.6158 53.3213 67.627C53.4773 67.7063 53.5869 67.675 53.7042 67.5298C53.9609 67.2113 54.2497 66.9196 54.5087 66.6023C54.7045 66.3621 54.9247 66.2782 55.208 66.4123C55.3342 66.4727 55.3729 66.4123 55.4072 66.3006C55.5057 65.9765 55.613 65.6547 55.7182 65.3329C55.8841 64.8245 56.0402 64.3127 56.2216 63.8099C56.2464 63.7658 56.2587 63.7157 56.2571 63.665C56.2556 63.6144 56.2402 63.5651 56.2128 63.5227C56.0459 63.2582 55.933 62.9626 55.8808 62.6533C55.7702 62.0656 55.6661 61.4767 55.5588 60.8878C55.4903 60.4557 55.3791 60.0315 55.2268 59.6218C55.1792 59.5033 55.1217 59.4497 54.9878 59.5179C54.8833 59.5669 54.7739 59.6044 54.6614 59.6296C54.211 59.7414 53.9178 59.5469 53.8436 59.0854C53.796 58.6939 53.8091 58.2973 53.8824 57.9099C54.1037 56.3545 54.4224 54.8158 54.7853 53.2883C54.8185 53.1486 54.8473 53.0089 54.8794 52.8703C54.8938 52.8078 54.8794 52.7586 54.8108 52.753C54.4024 52.7039 54.3161 52.4055 54.2818 52.0647C54.2296 51.5664 54.2256 51.0642 54.2696 50.5651C54.3052 50.1297 54.2628 49.6914 54.1446 49.2711C54.0815 49.0309 53.9797 48.8599 53.7296 48.7694C53.5541 48.7049 53.3948 48.6019 53.2634 48.4678C53.132 48.3337 53.0316 48.1719 52.9694 47.9939C52.9141 47.852 52.851 47.7146 52.7879 47.5771C52.745 47.4734 52.6765 47.3824 52.5889 47.3128C52.5014 47.2431 52.3978 47.1972 52.2878 47.1793C51.8796 47.0989 51.482 46.9714 51.1026 46.7994C50.2893 46.4541 49.5601 46.0005 49.0599 45.235C49.0437 45.2031 49.0197 45.1758 48.9902 45.1557C48.718 45.0194 48.5476 44.778 48.3661 44.5456C48.3284 44.477 48.2661 44.4256 48.192 44.4019C48.1179 44.3782 48.0377 44.3841 47.9677 44.4182C47.5373 44.5646 47.2927 44.4551 47.0725 44.0416C47.0083 43.9209 46.9619 43.9299 46.8512 43.9668C46.4993 44.0953 46.3422 44.0506 46.112 43.7556C46.088 43.7201 46.0543 43.6924 46.0151 43.6757C45.9758 43.6591 45.9326 43.6542 45.8907 43.6617C45.6616 43.6807 45.4315 43.7075 45.2024 43.7086C44.6358 43.7086 44.2862 43.4706 44.0958 42.9331C44.0819 42.8789 44.0506 42.8308 44.0067 42.7965C43.9629 42.7621 43.909 42.7434 43.8535 42.7432C43.6852 42.7245 43.5254 42.6586 43.3922 42.5529C43.259 42.4473 43.1578 42.3061 43.0999 42.1454C43.0568 42.0392 43.007 41.9353 42.9461 41.799C42.7734 42.0199 42.6187 42.2545 42.4836 42.5007C42.0887 43.2604 41.6362 43.9882 41.1302 44.6774C40.9869 44.8701 40.8139 45.0384 40.6179 45.1758C40.5655 45.2183 40.5027 45.2457 40.4362 45.255C40.3696 45.2643 40.3018 45.2553 40.2399 45.2288C40.1781 45.2023 40.1245 45.1594 40.0848 45.1046C40.0452 45.0498 40.021 44.9852 40.0148 44.9177C39.9898 44.7773 39.9528 44.6393 39.9042 44.5054C39.7028 43.8774 39.4438 43.2706 39.2114 42.6527C39.1616 42.5197 39.1008 42.3878 39.051 42.256C39.0311 42.2068 39.0056 42.1443 38.9403 42.1688C38.7921 42.2336 38.6239 42.2515 38.5364 42.437C38.4037 42.7 38.2458 42.9493 38.065 43.1812C37.867 43.4472 37.5903 43.6427 37.2716 43.5824C36.8932 43.512 36.694 43.6651 36.5302 43.9589C36.5106 43.9885 36.4884 44.0162 36.4638 44.0416C36.1994 44.3456 36.0002 44.3769 35.6527 44.1657C35.6405 44.159 35.6217 44.1657 35.5952 44.1657C35.4723 44.3422 35.3495 44.5277 35.2189 44.7076C35.0884 44.8875 34.9423 45.0786 34.7984 45.2596C34.6383 45.4637 34.4387 45.6329 34.212 45.7569C33.7007 46.0317 33.3134 45.9904 32.8675 45.6127C32.7657 45.5267 32.6672 45.4362 32.5654 45.3501C32.3529 45.1702 32.3551 45.1725 32.1836 45.3803C32.0793 45.5138 31.9666 45.6403 31.8461 45.7591C31.4964 46.0831 31.1722 46.0452 30.8867 45.6585C30.8625 45.6382 30.8361 45.6206 30.8081 45.606ZM47.4709 20.6876C47.4549 20.6905 47.4393 20.6954 47.4244 20.7021L47.3215 20.7859C46.7096 21.3068 45.9919 21.6856 45.219 21.8955C45.11 21.9336 44.9957 21.9536 44.8804 21.9547C44.8135 21.954 44.7483 21.9341 44.6922 21.8973C44.6362 21.8605 44.5917 21.8083 44.5639 21.7469C44.5361 21.6905 44.525 21.6271 44.5321 21.5644C44.5391 21.5017 44.564 21.4425 44.6038 21.3938C44.6347 21.3491 44.7056 21.3268 44.6901 21.2184C44.201 21.5838 43.6742 21.8341 43.1519 22.0922C42.6803 22.3248 42.2648 22.6589 41.9347 23.071C41.7776 23.2655 41.6223 23.4606 41.4688 23.6566C41.2086 23.9772 41.0618 24.3763 41.0517 24.7907C41.0525 24.8715 41.0375 24.9517 41.0074 25.0265C40.9796 25.0976 40.931 25.1584 40.8682 25.2009C40.8053 25.2434 40.7312 25.2656 40.6555 25.2645C40.5802 25.2561 40.5093 25.2244 40.4525 25.1738C40.3957 25.1232 40.3557 25.0562 40.3379 24.9818C40.3122 24.8774 40.304 24.7694 40.3136 24.6622C40.3164 24.2464 40.1755 23.8425 39.9152 23.5202C39.5444 23.016 39.0775 22.5916 38.542 22.2721C38.2277 22.0899 37.9212 21.8933 37.6113 21.7033C37.5527 21.6676 37.5007 21.6061 37.4221 21.6229C37.2296 21.9581 37.0691 22.0453 36.6796 21.9648C35.8187 21.7871 34.9766 21.5491 34.2108 21.0954C34.1811 21.0815 34.1504 21.0695 34.119 21.0597C34.0814 21.1077 34.0969 21.1524 34.0947 21.1949C34.0825 21.4955 33.9408 21.6564 33.652 21.6921C33.5466 21.7041 33.4404 21.7071 33.3344 21.7011C32.7774 21.66 32.2325 21.5164 31.7266 21.2776C31.6283 21.2178 31.5185 21.1797 31.4046 21.1658C31.3293 21.6285 31.0106 21.7905 30.6112 21.8363C30.2587 21.8734 29.903 21.8662 29.5522 21.8151C29.0437 21.7391 28.5486 21.5905 28.0816 21.3737C27.9853 21.329 27.9145 21.3033 27.837 21.4173C27.729 21.5599 27.5703 21.6545 27.3944 21.681C26.9684 21.7695 26.5298 21.7779 26.1008 21.7056C25.4999 21.6117 24.9854 21.3178 24.4985 20.9669C24.4144 20.9055 24.3292 20.8463 24.2307 20.7759C24.211 20.8864 24.2062 20.9992 24.2163 21.1111C24.2128 21.2426 24.1579 21.3673 24.0635 21.458C23.9692 21.5487 23.8431 21.5979 23.7128 21.5949C23.4194 21.5966 23.1306 21.5219 22.874 21.3782C22.4886 21.1391 22.1475 20.8339 21.866 20.4764C21.8106 20.4105 21.7752 20.3244 21.6623 20.2853C21.6347 20.5189 21.4775 20.6552 21.2927 20.7781C21.3481 20.8295 21.389 20.863 21.4255 20.8999C21.5561 21.0329 21.6469 21.1793 21.5816 21.3782C21.5052 21.5949 21.3326 21.6687 21.1245 21.681C21.0283 21.681 20.9298 21.681 20.8324 21.681H19.7469C19.7847 21.7296 19.8371 21.7645 19.8963 21.7804C20.3854 21.9346 20.8711 22.1 21.3558 22.271C21.9567 22.4822 22.3418 22.9157 22.6184 23.4644C22.8099 23.8443 22.7656 24.0231 22.469 24.3248C22.3694 24.4265 22.271 24.5293 22.178 24.6377C22.1596 24.6541 22.1451 24.6745 22.1356 24.6975C22.1262 24.7204 22.122 24.7452 22.1235 24.77C22.125 24.7948 22.1321 24.8189 22.1442 24.8405C22.1564 24.8621 22.1732 24.8806 22.1935 24.8947C22.2268 24.9243 22.2582 24.9561 22.2876 24.9896C22.5446 25.2629 22.7399 25.5892 22.8597 25.9462C22.9703 26.3104 22.8453 26.5585 22.4856 26.6714C22.4074 26.6822 22.3321 26.7088 22.2643 26.7496C22.2455 26.8099 22.2798 26.8557 22.2986 26.9049C22.4093 27.1887 22.5199 27.4703 22.6217 27.7553C22.8012 28.2697 22.9215 28.8032 22.9803 29.3453C23.0201 29.6705 22.8065 29.8705 22.4812 29.8404C22.4137 29.8348 22.3517 29.7811 22.2698 29.818C22.2079 30.0669 22.1708 30.3215 22.1592 30.5779C22.1593 30.7488 22.1011 30.9145 21.9943 31.0472C21.9078 31.1603 21.8143 31.2678 21.7144 31.369C21.347 31.7187 20.9741 32.0607 20.6078 32.4082C20.5679 32.4451 20.4971 32.473 20.5259 32.5523C20.5971 32.5583 20.6687 32.546 20.7339 32.5166C20.8334 32.4928 20.9371 32.4937 21.0361 32.5192C21.1352 32.5447 21.2267 32.594 21.3027 32.663C21.4244 32.7536 21.5227 32.8725 21.5892 33.0096C21.6556 33.1468 21.6883 33.2981 21.6845 33.4507C21.685 33.6472 21.6695 33.8435 21.638 34.0374C21.461 34.8946 21.2353 35.7407 20.9619 36.5717C20.9227 36.6488 20.9076 36.7361 20.9187 36.822C21.0969 36.717 21.2618 36.6186 21.4289 36.5214C21.6291 36.4097 21.8372 36.3773 22.0275 36.5214C22.1114 36.5884 22.1742 36.6786 22.2083 36.7809C22.2425 36.8832 22.2466 36.9934 22.2201 37.098C22.1739 37.3171 22.0948 37.5277 21.9855 37.7226C21.6917 38.3033 21.437 38.9032 21.223 39.5183C21.2053 39.572 21.16 39.6301 21.223 39.6926C21.4289 39.553 21.628 39.4055 21.8383 39.2758C22.2355 39.0322 22.5974 39.2244 22.6129 39.6904C22.6186 39.9048 22.6116 40.1194 22.5919 40.3329C22.5518 40.8679 22.5433 41.4049 22.5664 41.9409C22.5673 42.0536 22.5918 42.1648 22.6383 42.2672C22.749 42.218 22.7678 42.1253 22.8198 42.056C22.8895 41.9632 22.9449 41.8582 23.0212 41.7733C23.2857 41.4772 23.6564 41.5498 23.8024 41.9185C23.8332 42.0024 23.8583 42.0883 23.8777 42.1755C23.9574 42.4962 24.0315 42.8169 24.1112 43.1376C24.1161 43.2202 24.1481 43.2988 24.2019 43.3611C24.234 43.3499 24.2661 43.3388 24.2982 43.3254C24.701 43.1533 24.9478 43.2471 25.1381 43.6494C25.1779 43.7343 25.1901 43.7947 25.3218 43.7545C25.6537 43.6516 25.8629 43.7768 25.968 44.1154C25.9968 44.2092 26.0167 44.3053 26.0466 44.3992C26.1163 44.6227 26.1318 44.6227 26.3088 44.4908C26.4859 44.359 26.6408 44.2227 26.8145 44.0986C27.1465 43.8584 27.4298 43.8595 27.7717 44.0886C27.9171 44.1914 28.0487 44.3127 28.1634 44.4495C28.2509 44.5489 28.3372 44.6529 28.429 44.7478C28.5862 44.9099 28.5884 44.9087 28.7455 44.7612C28.7964 44.7132 28.8451 44.6607 28.8993 44.6137C29.2379 44.3187 29.5422 44.3277 29.8598 44.6417C29.9174 44.6976 29.9705 44.7534 30.0247 44.8171C30.2327 45.0406 30.2327 45.0406 30.4142 44.8071C30.4795 44.7233 30.5393 44.6339 30.6101 44.5534C30.8657 44.2662 31.2486 44.3377 31.4002 44.6953C31.43 44.7657 31.4157 44.8562 31.4942 44.9188C31.5873 44.853 31.6661 44.7686 31.7255 44.6707C32.0331 44.3053 32.3529 44.2551 32.7557 44.5143C32.8452 44.5724 32.931 44.6363 33.0124 44.7054C33.1353 44.8071 33.2592 44.9087 33.3754 45.0183C33.4306 45.0772 33.5048 45.1144 33.5846 45.1232C33.6645 45.132 33.7449 45.1118 33.8114 45.0663C33.9424 44.991 34.0595 44.8935 34.1577 44.778C34.4031 44.4842 34.63 44.1752 34.8372 43.8528C34.9399 43.6856 35.0589 43.5291 35.1924 43.3857C35.3927 43.1935 35.6162 43.122 35.8685 43.2661C35.9681 43.322 36.0323 43.312 36.0898 43.2159C36.331 42.7856 36.6984 42.6761 37.1532 42.7868C37.2136 42.8038 37.2779 42.7994 37.3355 42.7744C37.3931 42.7494 37.4404 42.7053 37.4697 42.6493C37.5804 42.4851 37.691 42.323 37.7851 42.1532C37.95 41.8682 38.0938 41.5654 38.4734 41.4827C38.4103 41.4012 38.3738 41.352 38.3339 41.3051C38.1447 41.0816 37.9743 40.8346 37.6556 40.7788C37.6136 40.7656 37.5773 40.7384 37.5527 40.7017C37.2838 40.3005 37.3247 39.8982 37.701 39.6524C37.9907 39.462 38.2536 39.2327 38.4822 38.9708C38.6703 38.7562 38.854 38.5395 39.0355 38.3204C39.4434 37.8121 39.9362 37.3799 40.4917 37.0432C40.6024 36.9689 40.7314 36.927 40.8642 36.9223C40.9971 36.9175 41.1286 36.9501 41.2442 37.0164C41.5387 37.1808 41.8094 37.3853 42.0487 37.6243C42.6003 38.168 43.2233 38.6327 43.9 39.0054C44.0897 39.1023 44.2676 39.2212 44.43 39.3596C44.5084 39.4197 44.5654 39.5037 44.5928 39.5991C44.6201 39.6945 44.6162 39.7963 44.5816 39.8893C44.5571 39.956 44.5429 40.0261 44.5396 40.0971C44.5382 40.1734 44.5185 40.2482 44.4823 40.3151C44.4461 40.3821 44.3944 40.4392 44.3315 40.4815C44.1833 40.5933 44.035 40.705 43.8967 40.8335C43.6399 41.0626 43.6399 41.0749 43.6576 41.4045C43.6821 41.5269 43.7238 41.645 43.7816 41.7554C43.7981 41.8203 43.8363 41.8774 43.8897 41.9171C43.9432 41.9568 44.0086 41.9767 44.0748 41.9733C44.4544 41.9889 44.6945 42.1811 44.7963 42.5644C44.8826 42.8885 44.9767 42.941 45.3164 42.9175C45.5466 42.9019 45.7745 42.8784 46.0047 42.865C46.1106 42.852 46.2181 42.8638 46.3189 42.8994C46.4196 42.9351 46.5109 42.9936 46.5856 43.0706C46.6132 43.1046 46.6519 43.1275 46.6948 43.1351C46.7376 43.1427 46.7817 43.1345 46.8191 43.1119C47.2429 42.9421 47.4831 43.0393 47.6811 43.4472C47.7741 43.6371 47.7763 43.6449 47.9688 43.5813C48.1063 43.5277 48.2572 43.5199 48.3993 43.5591C48.5415 43.5983 48.6675 43.6824 48.7589 43.7991C48.8585 43.9109 48.9559 44.0282 49.0533 44.1455C49.2082 44.331 49.2093 44.3333 49.3742 44.169C49.5785 43.9584 49.7689 43.7345 49.9441 43.4986C50.0442 43.3619 50.1589 43.2368 50.286 43.1253C50.3813 43.0362 50.5029 42.981 50.6322 42.9683C50.7615 42.9556 50.8914 42.986 51.0019 43.0549C51.1613 43.1488 51.3063 43.2695 51.4579 43.3779C51.5873 43.4717 51.7124 43.5723 51.8474 43.6561C51.9295 43.7108 52.0265 43.7381 52.1248 43.7341C52.2231 43.7301 52.3177 43.695 52.3951 43.6338C52.5461 43.5239 52.6819 43.3942 52.799 43.2483C52.9096 43.1083 53.0334 42.9796 53.1686 42.8639C53.4375 42.6471 53.6776 42.6292 53.9786 42.7979C54.0175 42.818 54.0545 42.8416 54.0893 42.8683C54.1822 42.9454 54.2453 42.913 54.3028 42.8203C54.3868 42.673 54.487 42.5358 54.6016 42.4113C54.7004 42.3013 54.8276 42.2214 54.9691 42.1807C55.1105 42.14 55.2603 42.1402 55.4017 42.1811C55.4532 42.1945 55.5039 42.2113 55.5533 42.2314C55.5685 42.2415 55.5859 42.2476 55.604 42.2492C55.6222 42.2508 55.6404 42.2479 55.6571 42.2408C55.6739 42.2336 55.6886 42.2223 55.7 42.208C55.7114 42.1937 55.7192 42.1768 55.7226 42.1588C55.7469 42.1018 55.7757 42.047 55.8056 41.9912C56.059 41.5096 56.2869 41.4001 56.8203 41.5196C56.8425 41.5297 56.8667 41.5345 56.891 41.5336C56.9153 41.5327 56.9391 41.5262 56.9605 41.5145C56.9819 41.5029 57.0004 41.4864 57.0144 41.4663C57.0285 41.4463 57.0378 41.4232 57.0416 41.3989C57.0816 41.2715 57.1308 41.1471 57.1888 41.0268C57.336 40.7374 57.5584 40.6424 57.8704 40.7128C57.959 40.733 58.0464 40.7978 58.1526 40.7542C58.1736 40.5251 58.188 40.3072 58.2146 40.0837C58.2511 39.7865 58.396 39.6278 58.6893 39.5999C58.8309 39.5865 58.8697 39.5351 58.8674 39.4043C58.8603 39.1361 58.8713 38.8676 58.9006 38.6009C58.9294 38.3473 59.0456 38.154 59.2924 38.0802C59.4495 38.0333 59.4573 37.9517 59.4119 37.8221C59.3444 37.6288 59.2736 37.4355 59.2193 37.2377C59.1175 36.8633 59.3189 36.6019 59.7051 36.5974C59.8545 36.5974 60.005 36.6097 60.1555 36.6086C60.3646 36.6086 60.3657 36.6019 60.3436 36.3963C60.3436 36.3437 60.3314 36.2845 60.3215 36.2376C60.2263 35.737 60.1157 35.2401 59.9895 34.7469C59.892 34.413 59.8246 34.0708 59.7881 33.7245C59.7771 33.5502 59.7881 33.3669 59.9109 33.2463C60.057 33.1088 60.0382 32.9736 59.9906 32.8127C59.9348 32.6433 59.8897 32.4705 59.8556 32.2953C59.8003 31.9601 59.943 31.7634 60.2695 31.6986C60.3301 31.6861 60.3915 31.6775 60.4532 31.6729C60.5561 31.6662 60.5727 31.6092 60.535 31.5288C60.5095 31.4817 60.477 31.4387 60.4388 31.4014C60.2175 31.1712 60.0061 30.9298 59.7748 30.7108C59.4857 30.46 59.2204 30.1824 58.9825 29.8817C58.8354 29.6795 58.7391 29.4515 58.821 29.2045C58.8425 29.1424 58.8459 29.0753 58.8306 29.0112C58.8152 28.9472 58.7819 28.889 58.7347 28.8436C58.4776 28.5249 58.202 28.2219 57.9092 27.9363C57.4665 27.4893 57.4964 27.2357 58.0054 26.8971C58.1482 26.8032 58.1515 26.7853 58.0386 26.6568C57.8884 26.505 57.7196 26.3731 57.5362 26.2646C57.3927 26.1816 57.2781 26.0557 57.2084 25.9042C57.1386 25.7527 57.1171 25.5831 57.1467 25.4187C57.1578 25.3394 57.1689 25.2601 57.1844 25.1818C57.2939 24.6938 57.4465 24.2166 57.6403 23.756C57.7143 23.6065 57.7619 23.445 57.7808 23.2789C57.7349 23.2457 57.6787 23.2306 57.6226 23.2364C57.5201 23.2368 57.4199 23.2059 57.335 23.1479C57.2501 23.0899 57.1845 23.0074 57.1467 22.9113C57.0582 22.6878 57.1622 22.5302 57.2961 22.3794C57.4621 22.1939 57.631 22.011 57.8029 21.8307C58.0619 21.5603 58.3153 21.2854 58.5543 20.9982C58.5702 20.9844 58.583 20.9672 58.5917 20.9479C58.6005 20.9287 58.605 20.9077 58.605 20.8865C58.605 20.8653 58.6005 20.8443 58.5917 20.825C58.583 20.8057 58.5702 20.7886 58.5543 20.7747C58.3728 20.5636 58.3817 20.3177 58.4558 20.0663C58.5097 19.9048 58.6002 19.7582 58.7203 19.6383C58.8946 19.4602 59.085 19.299 59.2891 19.1567C59.4075 19.0696 59.5491 19.0092 59.6443 18.8751C59.5317 18.7872 59.4483 18.6668 59.4052 18.5299C59.3821 18.5315 59.3591 18.5352 59.3366 18.541C58.8774 18.731 58.6052 18.3667 58.7136 17.9823C58.778 17.695 58.8217 17.4033 58.8442 17.1096C58.8658 17.0232 58.8584 16.9321 58.8232 16.8504C58.7258 17.0403 58.6506 17.1856 58.5731 17.3376C58.1554 18.1679 57.6143 18.9287 56.9686 19.5936C56.8355 19.7385 56.6733 19.8528 56.4927 19.9289C56.3996 19.9666 56.2991 19.982 56.1991 19.9738C56.0991 19.9656 56.0023 19.934 55.9165 19.8815C55.8306 19.8291 55.758 19.7572 55.7044 19.6716C55.6508 19.5859 55.6176 19.4888 55.6075 19.388C55.5997 19.321 55.6296 19.2472 55.5787 19.1869C55.5013 19.178 55.4681 19.2383 55.4227 19.2774C55.2412 19.4338 55.0608 19.5936 54.8816 19.7523C54.2417 20.3186 53.5356 20.8039 52.7791 21.1971C52.5214 21.3367 52.2489 21.4465 51.9669 21.5245C51.3406 21.6866 50.9212 21.4798 50.6556 20.8843C50.6091 20.7815 50.5648 20.6786 50.5162 20.5647C50.3878 20.6284 50.2771 20.6764 50.1687 20.739C49.8558 20.9072 49.5332 21.0565 49.2027 21.186C48.8691 21.3325 48.5106 21.4126 48.147 21.4217C47.659 21.4106 47.5008 21.2541 47.4831 20.7602C47.4813 20.7342 47.4772 20.7084 47.4709 20.6831V20.6876ZM26.736 66.0738C26.8466 66.0335 26.8854 65.9397 26.9429 65.8637C27.3922 65.2782 27.5449 64.5798 27.6743 63.8758C27.7618 63.3975 27.7097 62.9137 27.692 62.431C27.6445 61.1415 27.4918 59.8687 27.0602 58.644C26.9849 58.4306 27.0115 58.2172 27.2018 58.0853C27.4143 57.9412 27.4464 57.7591 27.4143 57.5266C27.3955 57.3937 27.3944 57.2596 27.3789 57.1266C27.3025 56.4338 27.2184 55.7432 27.1487 55.0504C27.0646 54.2068 26.9739 53.3631 26.8389 52.5262C26.7788 52.21 26.7539 51.8881 26.7647 51.5663C26.7747 51.3987 26.8013 51.2244 26.9473 51.1417C27.0166 51.1042 27.0736 51.0471 27.1113 50.9775C27.149 50.9079 27.1659 50.8286 27.1598 50.7495C27.1676 50.6605 27.1809 50.572 27.1996 50.4847C27.3236 49.6924 27.7418 49.0823 28.346 48.5851C28.4494 48.5037 28.5674 48.4434 28.6935 48.4074C28.8102 48.3636 28.9366 48.3535 29.0587 48.3783C29.3098 48.442 29.3121 48.4375 29.415 48.2018C29.4537 48.1113 29.4902 48.0196 29.5256 47.9269C29.7316 47.2997 29.8932 46.6586 30.0092 46.0083C30.019 45.9815 30.0234 45.9529 30.0221 45.9244C30.0208 45.8958 30.0138 45.8678 30.0017 45.842C29.9895 45.8162 29.9724 45.7931 29.9512 45.774C29.9301 45.755 29.9054 45.7404 29.8786 45.7312C29.7865 45.678 29.7007 45.6142 29.623 45.5412C29.5345 45.4697 29.478 45.3278 29.3718 45.3177C29.2656 45.3077 29.197 45.4485 29.1096 45.5189C28.7676 45.7904 28.4301 45.7949 28.0948 45.5189C28.001 45.4374 27.9116 45.3508 27.827 45.2596C27.7042 45.1311 27.5891 44.9937 27.4652 44.8674C27.3224 44.7244 27.3191 44.7266 27.1609 44.8462C26.9551 45.0015 26.7614 45.1725 26.5412 45.3077C26.2535 45.4853 25.968 45.4976 25.708 45.2697C25.5873 45.1646 25.501 45.2049 25.4114 45.2842C25.1713 45.4976 24.9013 45.6686 24.6457 45.8608C24.4133 46.0249 24.2063 46.223 24.0315 46.4485C23.5889 47.0531 23.164 47.6665 22.7767 48.3079C22.75 48.3433 22.7323 48.3847 22.7252 48.4285C22.718 48.4723 22.7217 48.5173 22.7357 48.5593C22.7662 48.6581 22.7729 48.7627 22.7552 48.8646C22.7375 48.9665 22.6959 49.0626 22.6339 49.1449C22.4991 49.3766 22.3513 49.6005 22.1913 49.8153C21.8603 50.2466 21.594 50.7248 21.4012 51.2344C21.129 51.9239 20.8745 52.6178 20.7915 53.3631C20.7406 53.8246 20.7218 54.2884 20.6919 54.7521C20.6395 55.7518 20.7 56.7542 20.8723 57.7401C20.8911 57.8596 20.9243 57.9121 21.0559 57.892C21.1537 57.8786 21.2532 57.8955 21.3414 57.9404C21.4295 57.9853 21.502 58.0561 21.5495 58.1434C21.8523 58.5729 22.1191 59.027 22.3473 59.5011C22.6704 60.2353 22.9814 60.975 23.299 61.7114C23.4602 62.1273 23.6842 62.5155 23.9629 62.8623C24.1289 63.0556 24.307 63.1774 24.587 63.0601C24.8891 62.9327 25.1569 63.04 25.3837 63.2668C25.5442 63.4288 25.6626 63.6367 25.8773 63.7439C25.9271 63.7685 25.9569 63.8378 25.9879 63.8892C26.1371 64.1227 26.2356 64.3855 26.2767 64.6602C26.3698 65.1492 26.5241 65.6242 26.736 66.0738ZM40.4574 38.0333C40.3164 38.12 40.1886 38.2269 40.0779 38.3506C39.8798 38.5663 39.6862 38.7864 39.4892 39.0043C39.1805 39.3722 38.8341 39.7059 38.4557 39.9999C38.3782 40.0558 38.2576 40.0893 38.241 40.1843C38.2155 40.3296 38.3859 40.296 38.4557 40.3642C38.8781 40.7448 39.2617 41.167 39.601 41.6247C39.6944 41.7639 39.771 41.9139 39.8289 42.0716C39.9639 42.4203 40.0945 42.77 40.2328 43.1175C40.2572 43.1779 40.2527 43.2661 40.3512 43.2851C40.5321 42.4304 40.6175 41.5578 40.6057 40.6838C40.5836 39.8189 40.4397 38.954 40.4619 38.0333H40.4574Z" fill="#4E3D35"/>
<path d="M47.4709 20.6815C47.4782 20.7012 47.4842 20.7214 47.4886 20.7419C47.5085 21.2358 47.6668 21.3922 48.1526 21.4034C48.5162 21.3942 48.8747 21.3142 49.2082 21.1676C49.5388 21.0382 49.8613 20.8889 50.1743 20.7206C50.2849 20.6637 50.3956 20.6089 50.5217 20.5463C50.5704 20.6581 50.6147 20.7631 50.6612 20.8659C50.9267 21.4615 51.3461 21.6682 51.9724 21.5062C52.2545 21.4281 52.5269 21.3183 52.7847 21.1788C53.5412 20.7855 54.2473 20.3003 54.8872 19.734C55.0664 19.5753 55.2468 19.4155 55.4283 19.2591C55.4725 19.22 55.5068 19.1596 55.5843 19.1686C55.6352 19.2289 55.6053 19.3026 55.6131 19.3697C55.6232 19.4705 55.6563 19.5676 55.7099 19.6532C55.7636 19.7389 55.8362 19.8107 55.922 19.8632C56.0079 19.9156 56.1046 19.9472 56.2047 19.9554C56.3047 19.9637 56.4052 19.9483 56.4983 19.9105C56.6788 19.8344 56.8411 19.7201 56.9741 19.5753C57.6199 18.9103 58.161 18.1495 58.5787 17.3192C58.6561 17.1706 58.7314 17.022 58.8288 16.832C58.864 16.9137 58.8714 17.0049 58.8498 17.0913C58.8272 17.385 58.7836 17.6766 58.7192 17.964C58.6085 18.3495 58.883 18.7138 59.3422 18.5227C59.3647 18.5168 59.3877 18.5131 59.4108 18.5115C59.4539 18.6484 59.5373 18.7689 59.6498 18.8568C59.5547 18.9909 59.413 19.0512 59.2946 19.1384C59.0906 19.2806 58.9001 19.4419 58.7258 19.62C58.6042 19.7423 58.5132 19.892 58.4603 20.0569C58.3861 20.3083 58.3773 20.5542 58.5588 20.7653C58.5747 20.7792 58.5874 20.7963 58.5962 20.8156C58.6049 20.8349 58.6095 20.8559 58.6095 20.8771C58.6095 20.8983 58.6049 20.9193 58.5962 20.9385C58.5874 20.9578 58.5747 20.975 58.5588 20.9888C58.3197 21.276 58.0663 21.5475 57.8074 21.8213C57.6362 22.0016 57.4673 22.1845 57.3006 22.37C57.1667 22.5208 57.0627 22.6817 57.1512 22.9018C57.189 22.998 57.2546 23.0805 57.3395 23.1385C57.4243 23.1965 57.5245 23.2274 57.627 23.227C57.6831 23.2212 57.7394 23.2363 57.7853 23.2695C57.7664 23.4356 57.7188 23.5971 57.6447 23.7466C57.4509 24.2072 57.2984 24.6844 57.1888 25.1724C57.1733 25.2507 57.1623 25.33 57.1512 25.4093C57.1215 25.5737 57.1431 25.7433 57.2128 25.8948C57.2826 26.0463 57.3971 26.1722 57.5407 26.2552C57.7241 26.3638 57.8929 26.4956 58.0431 26.6474C58.1538 26.7759 58.1537 26.7938 58.0099 26.8877C57.5009 27.2229 57.4754 27.4821 57.9136 27.9269C58.2064 28.2125 58.4821 28.5155 58.7391 28.8342C58.7864 28.8796 58.8197 28.9378 58.835 29.0018C58.8503 29.0659 58.847 29.133 58.8254 29.1951C58.7435 29.4421 58.8398 29.6701 58.987 29.8723C59.2249 30.173 59.4902 30.4506 59.7793 30.7014C60.0128 30.9249 60.2219 31.1618 60.4432 31.392C60.4815 31.4293 60.5139 31.4723 60.5395 31.5194C60.5771 31.5998 60.5605 31.6568 60.4576 31.6635C60.3959 31.6681 60.3346 31.6767 60.2739 31.6892C59.9475 31.754 59.8048 31.9518 59.8601 32.2859C59.8941 32.4611 59.9392 32.6339 59.9951 32.8033C60.0427 32.9642 60.0615 33.0994 59.9154 33.2369C59.7882 33.3575 59.7815 33.5408 59.7926 33.7151C59.829 34.0614 59.8964 34.4036 59.994 34.7375C60.1179 35.2314 60.2286 35.7283 60.3259 36.2282C60.3359 36.2807 60.3425 36.3399 60.3481 36.3869C60.3702 36.5925 60.3691 36.5969 60.16 36.5992C60.0095 36.5992 59.859 36.5858 59.7096 36.588C59.3234 36.588 59.122 36.8539 59.2238 37.2283C59.278 37.4261 59.3488 37.6194 59.4163 37.8127C59.4617 37.9423 59.454 38.0239 59.2968 38.0708C59.0501 38.1457 58.9339 38.3379 58.9051 38.5915C58.8758 38.8582 58.8647 39.1267 58.8719 39.3949C58.8719 39.5257 58.8354 39.5771 58.6938 39.5905C58.4005 39.6184 58.2511 39.7771 58.219 40.0743C58.1925 40.2978 58.1781 40.5213 58.1571 40.7448C58.0464 40.7884 57.9634 40.7236 57.8749 40.7034C57.5628 40.633 57.3404 40.728 57.1932 41.0174C57.1353 41.1377 57.0861 41.2621 57.0461 41.3895C57.0423 41.4138 57.033 41.4369 57.0189 41.4569C57.0048 41.477 56.9864 41.4935 56.965 41.5051C56.9436 41.5168 56.9198 41.5233 56.8955 41.5242C56.8711 41.5251 56.8469 41.5203 56.8248 41.5102C56.2914 41.3907 56.0634 41.5002 55.81 41.9818C55.7802 42.0365 55.7514 42.0935 55.727 42.1494C55.7236 42.1674 55.7159 42.1843 55.7045 42.1986C55.6931 42.2129 55.6783 42.2242 55.6616 42.2314C55.6449 42.2385 55.6266 42.2414 55.6085 42.2398C55.5904 42.2382 55.573 42.2321 55.5577 42.222C55.5083 42.2019 55.4577 42.1851 55.4061 42.1717C55.2648 42.1308 55.1149 42.1306 54.9735 42.1713C54.8321 42.212 54.7048 42.2919 54.6061 42.4019C54.4915 42.5264 54.3913 42.6636 54.3073 42.8109C54.2498 42.9036 54.1867 42.936 54.0937 42.8589C54.059 42.8322 54.022 42.8087 53.9831 42.7885C53.6821 42.6198 53.442 42.6377 53.1731 42.8545C53.0378 42.9702 52.914 43.0989 52.8035 43.2389C52.6863 43.3848 52.5505 43.5145 52.3996 43.6244C52.3221 43.6856 52.2276 43.7207 52.1293 43.7247C52.031 43.7287 51.9339 43.7015 51.8518 43.6467C51.7168 43.5629 51.5918 43.4623 51.4623 43.3685C51.3107 43.2567 51.1658 43.1394 51.0064 43.0456C50.8959 42.9766 50.766 42.9462 50.6367 42.9589C50.5074 42.9716 50.3858 43.0268 50.2905 43.1159C50.1633 43.2274 50.0487 43.3525 49.9485 43.4892C49.7734 43.7251 49.583 43.949 49.3786 44.1596C49.2138 44.3239 49.2127 44.3216 49.0577 44.1362C48.9604 44.0188 48.863 43.9037 48.7634 43.7898C48.672 43.6731 48.546 43.5889 48.4038 43.5497C48.2616 43.5105 48.1108 43.5183 47.9733 43.5719C47.7808 43.6355 47.7785 43.6277 47.6856 43.4378C47.4842 43.0254 47.243 42.9282 46.8236 43.1025C46.7862 43.1251 46.7421 43.1333 46.6992 43.1257C46.6564 43.1181 46.6176 43.0952 46.5901 43.0612C46.5154 42.9842 46.4241 42.9257 46.3234 42.89C46.2226 42.8544 46.1151 42.8426 46.0091 42.8556C45.779 42.869 45.551 42.8925 45.3209 42.9081C44.9811 42.9316 44.8871 42.8791 44.8008 42.555C44.699 42.1717 44.4588 41.9795 44.0793 41.9639C44.013 41.9673 43.9476 41.9474 43.8942 41.9077C43.8408 41.868 43.8025 41.8109 43.786 41.746C43.7283 41.6356 43.6865 41.5175 43.6621 41.3951C43.6444 41.0655 43.6444 41.0532 43.9011 40.8241C44.0394 40.7001 44.1877 40.5861 44.336 40.4721C44.3988 40.4298 44.4506 40.3727 44.4868 40.3057C44.523 40.2388 44.5427 40.164 44.544 40.0877C44.5473 40.0167 44.5615 39.9466 44.5861 39.8799C44.6206 39.7869 44.6245 39.6851 44.5972 39.5897C44.5699 39.4943 44.5128 39.4103 44.4345 39.3502C44.272 39.2118 44.0942 39.0929 43.9044 38.996C43.2277 38.6233 42.6048 38.1586 42.0532 37.6149C41.8139 37.3759 41.5432 37.1714 41.2487 37.007C41.1331 36.9407 41.0015 36.9081 40.8687 36.9129C40.7358 36.9176 40.6069 36.9595 40.4962 37.0338C39.9417 37.3715 39.45 37.8045 39.0433 38.3133C38.8607 38.5368 38.677 38.7491 38.49 38.9636C38.2614 39.2255 37.9985 39.4548 37.7088 39.6452C37.3325 39.8911 37.2916 40.2934 37.5605 40.6945C37.5851 40.7313 37.6214 40.7584 37.6634 40.7716C37.9821 40.8275 38.1525 41.0744 38.3417 41.2979C38.3816 41.3448 38.4181 41.394 38.4811 41.4756C38.1016 41.5571 37.9577 41.86 37.7929 42.146C37.6955 42.3159 37.5848 42.4813 37.4775 42.6422C37.4482 42.6981 37.4008 42.7423 37.3433 42.7673C37.2857 42.7923 37.2214 42.7966 37.161 42.7796C36.7062 42.6679 36.3388 42.7796 36.0976 43.2087C36.0445 43.3048 35.9803 43.3204 35.8763 43.259C35.624 43.1148 35.4005 43.1863 35.2002 43.3785C35.0667 43.5219 34.9477 43.6784 34.845 43.8456C34.6378 44.168 34.4109 44.4771 34.1655 44.7708C34.0673 44.8863 33.9502 44.9838 33.8192 45.0591C33.7527 45.1047 33.6723 45.1248 33.5924 45.116C33.5126 45.1072 33.4384 45.07 33.3832 45.0111C33.267 44.8993 33.143 44.7999 33.0202 44.6982C32.9387 44.6291 32.853 44.5653 32.7635 44.5071C32.3607 44.2479 32.0409 44.2982 31.7333 44.6636C31.6738 44.7614 31.5951 44.8458 31.502 44.9116C31.4234 44.8491 31.4378 44.7586 31.4079 44.6882C31.2563 44.3306 30.8735 44.2591 30.6179 44.5462C30.547 44.6267 30.4873 44.7161 30.422 44.7999C30.2405 45.0346 30.2405 45.0346 30.0325 44.81C29.9772 44.7507 29.9218 44.6904 29.8676 44.6345C29.55 44.3205 29.2457 44.3116 28.9071 44.6066C28.8529 44.6535 28.8042 44.706 28.7533 44.7541C28.5962 44.9016 28.5939 44.9027 28.4368 44.7407C28.345 44.6457 28.2586 44.5418 28.1712 44.4423C28.0565 44.3056 27.9248 44.1843 27.7795 44.0814C27.4376 43.8579 27.1565 43.8512 26.8223 44.0915C26.6486 44.2155 26.4903 44.3552 26.3166 44.4837C26.1429 44.6122 26.1241 44.6111 26.0544 44.392C26.0245 44.2982 26.0046 44.2021 25.9758 44.1082C25.8651 43.773 25.666 43.6445 25.3296 43.7473C25.1979 43.7875 25.1857 43.7272 25.1459 43.6423C24.9555 43.24 24.7032 43.1461 24.306 43.3182C24.2739 43.3316 24.2418 43.3428 24.2097 43.354C24.1558 43.2916 24.1239 43.213 24.119 43.1305C24.0393 42.8098 23.9652 42.4891 23.8855 42.1684C23.8661 42.0811 23.841 41.9952 23.8102 41.9114C23.6642 41.5415 23.2935 41.47 23.029 41.7661C22.9526 41.851 22.8973 41.9561 22.8276 42.0488C22.7756 42.1181 22.7512 42.2108 22.6461 42.26C22.5996 42.1576 22.5751 42.0464 22.5742 41.9337C22.5511 41.3977 22.5596 40.8608 22.5996 40.3258C22.6194 40.1122 22.6264 39.8976 22.6207 39.6832C22.6008 39.2173 22.2389 39.0251 21.8461 39.2687C21.6358 39.3983 21.4366 39.5458 21.2308 39.6855C21.1622 39.6207 21.2076 39.5648 21.2308 39.5112C21.4448 38.896 21.6995 38.2961 21.9932 37.7155C22.1026 37.5206 22.1817 37.3099 22.2278 37.0908C22.2544 36.9862 22.2503 36.8761 22.2161 36.7737C22.1819 36.6714 22.1191 36.5813 22.0353 36.5142C21.845 36.3679 21.6369 36.3958 21.4366 36.5142C21.2695 36.6115 21.1047 36.7098 20.9265 36.8148C20.9154 36.7289 20.9305 36.6416 20.9697 36.5645C21.2431 35.7336 21.4688 34.8874 21.6458 34.0302C21.6773 33.8363 21.6928 33.6401 21.6923 33.4436C21.6961 33.2909 21.6634 33.1396 21.5969 33.0025C21.5305 32.8653 21.4322 32.7464 21.3105 32.6558C21.2327 32.5845 21.1385 32.5339 21.0365 32.5086C20.9345 32.4832 20.8279 32.4839 20.7262 32.5105C20.661 32.5399 20.5894 32.5522 20.5182 32.5463C20.4927 32.467 20.5602 32.4345 20.6001 32.4021C20.9697 32.0546 21.3426 31.7127 21.7066 31.3629C21.8066 31.2617 21.9001 31.1543 21.9866 31.0411C22.0982 30.9103 22.1612 30.7444 22.1648 30.5718C22.1764 30.3154 22.2135 30.0609 22.2754 29.812C22.3573 29.7751 22.4193 29.8287 22.4868 29.8343C22.8121 29.8645 23.0257 29.6645 22.9858 29.3393C22.9271 28.7971 22.8068 28.2636 22.6273 27.7492C22.5233 27.4643 22.406 27.1827 22.3042 26.8989C22.2854 26.8497 22.2511 26.8039 22.2699 26.7435C22.3377 26.7027 22.413 26.6761 22.4912 26.6653C22.8508 26.5536 22.9803 26.3044 22.8652 25.9401C22.7454 25.5832 22.5502 25.2568 22.2931 24.9836C22.2637 24.95 22.2323 24.9183 22.1991 24.8886C22.1788 24.8746 22.1619 24.8561 22.1498 24.8344C22.1377 24.8128 22.1306 24.7887 22.1291 24.7639C22.1276 24.7392 22.1317 24.7143 22.1412 24.6914C22.1506 24.6685 22.1651 24.648 22.1836 24.6316C22.2765 24.5199 22.375 24.4204 22.4746 24.3187C22.7712 24.0159 22.8154 23.8382 22.624 23.4583C22.3473 22.9097 21.96 22.4761 21.3614 22.2649C20.8767 22.094 20.3909 21.9297 19.9018 21.7744C19.8427 21.7585 19.7902 21.7236 19.7524 21.6749H20.8258C20.9232 21.6749 21.0217 21.685 21.1179 21.6749C21.326 21.6626 21.4986 21.5889 21.575 21.3721C21.6447 21.1732 21.5495 21.0268 21.4189 20.8938C21.3824 20.857 21.3415 20.8235 21.2861 20.772C21.4709 20.6491 21.6281 20.5128 21.6557 20.2793C21.7664 20.3184 21.804 20.4044 21.8594 20.4703C22.1409 20.8279 22.482 21.133 22.8674 21.3721C23.124 21.5159 23.4128 21.5905 23.7062 21.5889C23.8365 21.5919 23.9626 21.5427 24.0569 21.452C24.1513 21.3613 24.2062 21.2365 24.2097 21.105C24.1996 20.9932 24.2044 20.8804 24.2241 20.7698C24.3226 20.8402 24.4078 20.8994 24.4919 20.9609C24.9788 21.3118 25.4878 21.6056 26.0942 21.6995C26.5232 21.7718 26.9618 21.7635 27.3878 21.6749C27.5637 21.6485 27.7224 21.5539 27.8304 21.4112C27.9079 21.2995 27.9787 21.3229 28.075 21.3676C28.542 21.5844 29.0371 21.733 29.5456 21.809C29.8964 21.8602 30.2521 21.8673 30.6046 21.8302C31.004 21.7878 31.3227 21.6258 31.398 21.1598C31.5119 21.1736 31.6217 21.2117 31.72 21.2715C32.2259 21.5104 32.7708 21.6539 33.3278 21.695C33.4338 21.701 33.54 21.698 33.6454 21.6861C33.9387 21.6503 34.0803 21.4894 34.0881 21.1888C34.0881 21.1464 34.0748 21.1017 34.1124 21.0536C34.1438 21.0635 34.1745 21.0754 34.2043 21.0894C34.97 21.5431 35.8121 21.7811 36.673 21.9587C37.0625 22.0392 37.2263 21.9587 37.4155 21.6168C37.4963 21.6001 37.5461 21.6615 37.6047 21.6973C37.9146 21.8872 38.2211 22.0839 38.5354 22.266C39.0713 22.584 39.5389 23.0068 39.9108 23.5097C40.1711 23.832 40.312 24.2359 40.3092 24.6517C40.2996 24.7589 40.3078 24.8669 40.3335 24.9713C40.3513 25.0457 40.3913 25.1127 40.4481 25.1633C40.5049 25.2139 40.5758 25.2456 40.6511 25.254C40.7268 25.2551 40.8009 25.2329 40.8638 25.1904C40.9266 25.1478 40.9752 25.087 41.003 25.016C41.0331 24.9411 41.0481 24.861 41.0473 24.7802C41.0574 24.3658 41.2042 23.9667 41.4645 23.646C41.6179 23.4509 41.7732 23.2557 41.9303 23.0605C42.2604 22.6484 42.6759 22.3142 43.1476 22.0817C43.6699 21.8235 44.1966 21.5732 44.6857 21.2078C44.7012 21.3196 44.6304 21.3386 44.5994 21.3833C44.5596 21.4319 44.5347 21.4912 44.5277 21.5539C44.5206 21.6165 44.5317 21.6799 44.5595 21.7364C44.5873 21.7978 44.6318 21.85 44.6878 21.8868C44.7439 21.9236 44.8092 21.9435 44.876 21.9442C44.9913 21.9431 45.1057 21.9231 45.2146 21.885C45.9875 21.6751 46.7052 21.2963 47.3171 20.7754L47.42 20.6916C47.4365 20.6861 47.4536 20.6827 47.4709 20.6815ZM24.9312 36.7712C24.94 36.8964 24.9489 37.0204 24.9566 37.1456C25.0253 38.6351 25.6383 40.0461 26.6774 41.1057C28.0296 42.4991 29.6894 43.1405 31.6293 42.9193C32.3541 42.8463 33.0572 42.6279 33.6973 42.277C34.3375 41.926 34.9018 41.4496 35.3573 40.8755C36.5225 39.4441 36.953 37.7926 36.6509 35.9589C36.0976 32.6178 33.0711 30.4489 30.0281 30.8467C28.678 31.0058 27.4307 31.6532 26.5169 32.6692C25.4635 33.828 24.9622 35.2091 24.9312 36.7712ZM50.3701 30.3461C49.5248 30.3442 48.6899 30.5351 47.9279 30.9048C46.1652 31.7831 45.0829 33.1989 44.855 35.1745C44.6337 37.0875 45.3087 38.7089 46.8026 39.9056C48.5244 41.2845 50.462 41.5404 52.4992 40.7202C54.7035 39.833 56.0778 37.5691 55.8266 35.2236C55.7159 34.0384 55.2053 32.9275 54.3803 32.077C53.2848 30.9316 51.9315 30.3841 50.3701 30.3461ZM53.9421 24.3031C53.9034 24.3266 53.8813 24.3333 53.8791 24.3444C53.8724 24.3757 53.8957 24.3925 53.9233 24.397C53.951 24.4014 53.9787 24.397 53.9731 24.3657C53.9664 24.3432 53.956 24.322 53.9421 24.3031Z" fill="#4E3D35" fill-opacity="0.6"/>
<path d="M26.7362 66.0723C26.5245 65.6205 26.3709 65.1432 26.2791 64.652C26.238 64.3773 26.1395 64.1145 25.9903 63.881C25.956 63.8296 25.9261 63.7604 25.8797 63.7358C25.665 63.624 25.5477 63.4207 25.3861 63.2586C25.1648 63.0351 24.8915 62.9234 24.5894 63.0519C24.3094 63.1692 24.1313 63.0519 23.9653 62.8541C23.6866 62.5073 23.4626 62.1191 23.3014 61.7032C22.9838 60.9668 22.6728 60.2271 22.3497 59.4929C22.1215 59.0188 21.8547 58.5647 21.5519 58.1353C21.5044 58.0479 21.4319 57.9771 21.3438 57.9322C21.2556 57.8873 21.1561 57.8704 21.0583 57.8838C20.9267 57.904 20.8935 57.8514 20.8746 57.7319C20.7024 56.746 20.6419 55.7436 20.6943 54.7439C20.7242 54.2802 20.743 53.8164 20.7939 53.3549C20.8769 52.6096 21.1314 51.9157 21.4036 51.2263C21.5964 50.7166 21.8627 50.2384 22.1937 49.8071C22.3537 49.5923 22.5015 49.3685 22.6363 49.1367C22.6983 49.0544 22.7399 48.9583 22.7576 48.8564C22.7753 48.7546 22.7686 48.6499 22.7381 48.5512C22.7241 48.5091 22.7204 48.4641 22.7276 48.4203C22.7347 48.3765 22.7524 48.3351 22.7791 48.2997C23.1664 47.6584 23.5935 47.0449 24.0339 46.4404C24.2087 46.2148 24.4157 46.0168 24.6481 45.8526C24.9037 45.6604 25.1737 45.4894 25.4138 45.276C25.5034 45.1967 25.5897 45.1565 25.7104 45.2615C25.9704 45.485 26.2559 45.4771 26.5436 45.2995C26.7649 45.1643 26.9575 44.9933 27.1633 44.838C27.3215 44.7184 27.3248 44.7162 27.4676 44.8592C27.5915 44.9855 27.7066 45.1229 27.8294 45.2514C27.914 45.3426 28.0034 45.4292 28.0972 45.5107C28.4292 45.7878 28.77 45.7833 29.112 45.5107C29.1994 45.4403 29.2625 45.2972 29.3742 45.3095C29.486 45.3218 29.5369 45.4626 29.6254 45.533C29.7031 45.606 29.7889 45.6698 29.881 45.723C29.9078 45.7322 29.9325 45.7468 29.9536 45.7658C29.9748 45.7849 29.9919 45.808 30.0041 45.8338C30.0162 45.8596 30.0232 45.8876 30.0245 45.9162C30.0258 45.9447 30.0214 45.9733 30.0116 46.0001C29.8956 46.6504 29.734 47.2915 29.528 47.9187C29.4959 48.0115 29.4594 48.1031 29.4174 48.1936C29.3145 48.4294 29.3123 48.4338 29.0611 48.3701C28.939 48.3454 28.8126 48.3554 28.6959 48.3992C28.5685 48.4384 28.4501 48.5026 28.3473 48.588C27.7431 49.0842 27.3248 49.6943 27.2009 50.4877C27.1822 50.575 27.1689 50.6635 27.1611 50.7525C27.1672 50.8316 27.1503 50.9109 27.1126 50.9805C27.0749 51.0501 27.0179 51.1072 26.9486 51.1447C26.8025 51.2274 26.776 51.4017 26.766 51.5693C26.7552 51.8911 26.7801 52.213 26.8402 52.5292C26.9752 53.3661 27.0615 54.2053 27.15 55.0534C27.2197 55.7462 27.3038 56.4368 27.3802 57.1296C27.3957 57.2626 27.3968 57.3967 27.4156 57.5296C27.4477 57.7531 27.4156 57.9386 27.2031 58.0883C27.0128 58.2157 26.9818 58.4236 27.0615 58.647C27.493 59.8762 27.6458 61.1445 27.6933 62.434C27.711 62.9167 27.7631 63.4005 27.6756 63.8788C27.5462 64.5828 27.3935 65.2812 26.9442 65.8667C26.8855 65.9382 26.8424 66.0321 26.7362 66.0723Z" fill="#4E3D35" fill-opacity="0.6"/>
<path d="M57.7754 63.9337C57.7643 63.8722 57.7566 63.8108 57.7433 63.7505C57.6902 63.527 57.5485 63.3761 57.3195 63.3728C57.0638 63.3728 56.9377 63.2208 56.8348 63.023C56.6754 62.7168 56.6234 62.3805 56.5648 62.0464C56.4486 61.3871 56.349 60.7256 56.1941 60.0741C56.1202 59.7611 56.0153 59.4564 55.8809 59.1646C55.6297 58.6159 55.2037 58.5377 54.7965 58.7366C54.7465 58.7705 54.6855 58.7837 54.6261 58.7735C54.5998 58.6673 54.5979 58.5564 54.6205 58.4494C54.7057 57.4057 54.9525 56.3889 55.1406 55.362C55.2933 54.5273 55.5124 53.7082 55.6817 52.878C55.72 52.6936 55.7466 52.507 55.7614 52.3193C55.7913 51.9259 55.5799 51.7181 55.186 51.7606C55.0753 51.7706 55.0377 51.7371 55.0355 51.6365C55.022 51.3423 55.0268 51.0474 55.0499 50.7538C55.1214 50.0945 55.0458 49.4275 54.8286 48.8016C54.7835 48.6417 54.7012 48.4951 54.5886 48.3738C54.476 48.2525 54.3363 48.1601 54.1812 48.1044C54.0536 48.066 53.9377 47.9955 53.8445 47.8995C53.7512 47.8036 53.6835 47.6853 53.6479 47.5557C53.6357 47.5132 53.6102 47.4753 53.5948 47.4339C53.3613 46.8082 52.9175 46.4785 52.2669 46.3455C51.5267 46.1908 50.8337 45.8602 50.2452 45.3812C50.1832 45.3309 50.1246 45.2762 50.0681 45.2203C49.7793 44.9309 49.7826 44.9342 50.0548 44.6236C50.2485 44.4001 50.4344 44.1766 50.6081 43.942C50.6845 43.8436 50.7409 43.8191 50.8416 43.9062C50.9689 44.018 51.105 44.1174 51.2411 44.2169C51.8962 44.6895 52.528 44.6437 53.1112 44.0772C53.2573 43.9353 53.3934 43.7822 53.5295 43.6302C53.5415 43.6117 53.5574 43.596 53.576 43.5843C53.5946 43.5725 53.6156 43.565 53.6374 43.5623C53.6591 43.5595 53.6813 43.5616 53.7022 43.5683C53.7231 43.575 53.7423 43.5862 53.7585 43.6012C54.272 43.952 54.6637 43.7531 54.9426 43.305C55.0123 43.1933 55.0599 43.0413 55.1816 42.9922C55.3033 42.943 55.4217 43.0749 55.5434 43.1218C55.6655 43.1797 55.8047 43.1888 55.9332 43.1474C56.0617 43.1059 56.1699 43.0169 56.2361 42.8983C56.3182 42.7606 56.3921 42.618 56.4574 42.4715C56.5537 42.277 56.5515 42.2815 56.7518 42.3262C56.9241 42.3663 57.0845 42.4471 57.2199 42.562C57.6251 42.8824 57.9764 43.2669 58.2601 43.7006C58.7514 44.475 59.2858 45.2259 59.6621 46.0662C60.0383 46.9065 60.4134 47.7635 60.6259 48.672C60.6403 48.7335 60.6491 48.7949 60.6646 48.8553C60.689 48.957 60.6646 49.0095 60.554 49.053C60.2851 49.1592 60.1921 49.3291 60.2508 49.6252C60.5252 51.0208 60.502 52.4332 60.492 53.8445C60.492 54.0401 60.4599 54.2356 60.4455 54.4323C60.4464 54.4724 60.4372 54.5121 60.4188 54.5476C60.4005 54.5832 60.3735 54.6135 60.3404 54.6357C60.16 54.7474 60.1047 54.9441 60.077 55.1407C60.0018 55.6894 59.9099 56.2358 59.8668 56.7878C59.7185 58.6628 59.2593 60.4619 58.6142 62.2218C58.4372 62.717 58.2276 63.1997 57.9867 63.6666C57.9498 63.7768 57.8831 63.8743 57.7942 63.9482L57.7754 63.9337Z" fill="#4E3D35" fill-opacity="0.6"/>
<path d="M41.2222 42.9141C41.2373 42.9248 41.2548 42.9316 41.2732 42.9337C41.2916 42.9359 41.3102 42.9333 41.3273 42.9264C41.3245 42.9652 41.3117 43.0027 41.2902 43.035C41.2686 43.0674 41.2391 43.0935 41.2045 43.1107C41.1929 43.0786 41.1886 43.0444 41.1916 43.0104C41.1947 42.9764 41.2051 42.9435 41.2222 42.9141Z" fill="#4E3D35" fill-opacity="0.6"/>
<path d="M57.7963 63.9504C57.7897 63.9749 57.7963 64.0252 57.7598 64.0085C57.7233 63.9917 57.7465 63.9537 57.7786 63.9336L57.7963 63.9504Z" fill="#4E3D35" fill-opacity="0.6"/>
<path d="M24.931 36.7717C24.962 35.2073 25.4633 33.8284 26.5167 32.6741C27.4306 31.6581 28.6779 31.0107 30.0279 30.8516C33.071 30.4538 36.0985 32.6227 36.6507 35.9638C36.9528 37.793 36.5223 39.4445 35.3571 40.8804C34.9017 41.4544 34.3373 41.9309 33.6972 42.2818C33.057 42.6328 32.3539 42.8512 31.6291 42.9242C29.6882 43.1476 28.0327 42.504 26.6772 41.1106C25.6382 40.051 25.0251 38.64 24.9565 37.1505C24.9487 37.0209 24.9399 36.8968 24.931 36.7717ZM25.7399 36.7717C25.7477 38.1807 26.2036 39.4267 27.1597 40.4502C28.5086 41.8961 30.1684 42.4616 32.1005 42.0202C34.2616 41.5319 35.9027 39.5619 35.9458 37.1035C35.9735 35.5034 35.4091 34.1223 34.245 33.0317C32.9216 31.7902 31.3491 31.3343 29.5786 31.75C27.2947 32.2886 25.7311 34.3603 25.7399 36.775V36.7717Z" fill="#4E3D35"/>
<path d="M50.3702 30.3477C51.9304 30.3857 53.2849 30.9332 54.3804 32.0741C55.2054 32.9246 55.716 34.0355 55.8267 35.2208C56.0779 37.5673 54.7035 39.8301 52.4992 40.7174C50.462 41.5375 48.5244 41.2816 46.8026 39.9028C45.3087 38.706 44.6348 37.0846 44.855 35.1716C45.083 33.196 46.1652 31.7802 47.928 30.9019C48.6903 30.5338 49.5252 30.3444 50.3702 30.3477ZM49.974 40.3564C51.2311 40.3564 52.0765 40.1329 52.8511 39.6513C55.5677 37.9752 55.8532 34.2307 53.3491 32.2026C52.4515 31.4863 51.3319 31.1138 50.1884 31.151C49.0449 31.1882 47.9514 31.6328 47.1014 32.406C46.2813 33.1403 45.7596 34.1553 45.637 35.2552C45.5144 36.355 45.7996 37.4618 46.4374 38.3618C47.3824 39.6949 48.7103 40.3229 49.974 40.3564Z" fill="#4E3D35"/>
<path d="M53.942 24.3047C53.9558 24.3236 53.9663 24.3448 53.973 24.3673C53.9785 24.4041 53.9464 24.403 53.9232 24.3986C53.9 24.3941 53.8723 24.3773 53.8789 24.346C53.8811 24.3382 53.9033 24.3315 53.942 24.3047Z" fill="#4E3D35"/>
<path d="M34.3745 36.6105C34.3469 37.9045 33.9076 39.0197 32.936 39.8912C32.575 40.2233 32.1511 40.4782 31.6899 40.6404C31.2287 40.8026 30.7398 40.8689 30.2526 40.8351C29.7654 40.8014 29.29 40.6684 28.855 40.4442C28.4201 40.2199 28.0346 39.909 27.7218 39.5303C26.1483 37.6665 26.4559 34.6952 28.3825 33.2292C29.7104 32.2235 31.4455 32.2123 32.7512 33.2135C33.6199 33.884 34.1245 34.7779 34.3115 35.8618C34.3557 36.1088 34.3768 36.3595 34.3745 36.6105ZM33.58 36.6105C33.5827 36.369 33.5608 36.1279 33.5147 35.8909C33.3454 35.0763 32.9725 34.3801 32.3075 33.8795C31.1168 32.9778 29.5997 33.0973 28.5385 34.1488C27.402 35.2785 27.1708 37.1491 27.9941 38.5492C29.0674 40.3751 31.4178 40.5684 32.7645 38.937C33.3047 38.2858 33.5942 37.4598 33.58 36.6105Z" fill="#4E3D35"/>
<path d="M53.9411 35.4088C53.8525 36.8503 53.1311 38.0046 51.7987 38.7443C50.6712 39.3701 49.4849 39.4662 48.3108 38.8862C47.1368 38.3063 46.5315 37.3218 46.4684 36.0044C46.3909 34.3864 47.544 32.6231 49.4296 32.0845C50.6169 31.7493 51.7324 31.9057 52.715 32.6857C53.5493 33.3472 53.9234 34.2489 53.9411 35.4088ZM47.2585 35.6614C47.2518 37.0861 48.0121 38.0739 49.1684 38.3644C50.9069 38.8013 52.8002 37.5487 53.1045 35.7597C53.3402 34.3719 52.5346 33.1148 51.1923 32.8019C50.8036 32.708 50.4003 32.6926 50.0057 32.7566C49.6111 32.8207 49.2329 32.9629 48.8929 33.1751C47.8826 33.7841 47.3116 34.678 47.2585 35.6614Z" fill="#4E3D35"/>
<path d="M30.5966 36.6606C30.5965 37.0355 30.4493 37.3952 30.1872 37.6607C30.072 37.7786 29.9335 37.8705 29.7808 37.9305C29.628 37.9906 29.4643 38.0173 29.3006 38.0089C29.1368 38.0006 28.9767 37.9574 28.8307 37.8822C28.6846 37.8069 28.556 37.7014 28.4532 37.5724C28.2481 37.3183 28.1325 37.0026 28.1245 36.675C28.1165 36.3473 28.2165 36.0262 28.4089 35.7622C28.846 35.1811 29.7169 35.0191 30.3122 35.7745C30.5044 36.0284 30.6047 36.3411 30.5966 36.6606ZM29.3086 36.065C29.2929 36.2546 29.3075 36.4455 29.3517 36.6304C29.4037 36.8133 29.4407 37.0002 29.4624 37.1891C29.5872 37.1334 29.6887 37.0352 29.7494 36.9117C29.81 36.7882 29.8259 36.6472 29.7943 36.5131C29.749 36.2595 29.6162 36.1276 29.3086 36.065Z" fill="#4E3D35"/>
<path d="M47.855 35.6627C47.8555 35.3164 47.963 34.9789 48.1626 34.6972C48.5444 34.1966 49.174 34.1095 49.6587 34.5095C50.1212 34.8906 50.2717 35.4035 50.223 35.9912C50.204 36.268 50.1055 36.5332 49.9398 36.7544C49.8579 36.8716 49.7527 36.9703 49.6309 37.044C49.5091 37.1178 49.3734 37.1651 49.2325 37.1829C49.0916 37.2007 48.9485 37.1885 48.8125 37.1473C48.6765 37.106 48.5505 37.0365 48.4426 36.9433C48.0298 36.6114 47.8782 36.1577 47.855 35.6627ZM49.0722 35.0917C49.0833 35.523 49.1906 35.9119 49.2161 36.3488C49.5657 35.9365 49.4971 35.3688 49.0733 35.0917H49.0722Z" fill="#4E3D35"/>
</svg>
