<svg width="84" height="84" viewBox="0 0 84 84" fill="none" xmlns="http://www.w3.org/2000/svg">
<path d="M59.4853 78.3118C59.8738 78.319 59.886 78.9181 59.886 78.9181C59.886 78.9181 55.3978 82.1429 43.2657 82.4796C31.1335 82.8162 26.6454 79.5116 26.6454 79.5116L26.1598 78.4878C26.1598 78.4878 26.6969 67.2697 26.9085 61.664C26.9085 61.5824 26.9085 61.4996 26.9016 61.4168C26.901 61.4122 26.8994 61.4078 26.897 61.4039C26.8947 61.3999 26.8915 61.3965 26.8878 61.3938C26.8802 61.3872 26.8717 61.3818 26.8625 61.3777C26.6474 61.3961 26.4266 61.4087 26.2081 61.4363C26.0524 61.4426 25.9014 61.4911 25.7711 61.5766C25.695 61.6307 25.6039 61.6598 25.5106 61.6598C25.4172 61.6598 25.3262 61.6307 25.2501 61.5766C25.1661 61.5271 25.0981 61.4545 25.0543 61.3674C25.0105 61.2803 24.9926 61.1825 25.0028 61.0855C25.0135 60.9758 25.0304 60.8667 25.0534 60.7589C25.3409 59.074 25.6285 57.3891 25.9137 55.6984C26.0735 54.7473 26.2403 53.7973 26.4335 52.8519C26.4474 52.7312 26.5031 52.6192 26.5909 52.5351C26.6787 52.4511 26.7931 52.4005 26.9143 52.3919C27.0145 52.3782 27.1156 52.3709 27.2167 52.37C27.6664 52.3539 28.1173 52.3401 28.5681 52.3217C28.851 52.3102 28.8257 52.3401 28.8269 52.0388C28.8269 51.0635 28.8326 50.0836 28.8372 49.1129C28.8372 48.677 28.973 48.5149 29.4008 48.4378C30.1334 48.3055 30.8672 48.179 31.5998 48.0514C31.8298 48.0111 32.0702 47.9594 32.3083 47.9364C32.6326 47.9087 32.8327 48.0755 32.8833 48.3964C32.9061 48.5511 32.9204 48.707 32.9259 48.8633C32.9834 49.8984 33.0409 50.9335 33.0903 51.9767C33.0972 52.125 33.1467 52.163 33.2882 52.1561C33.831 52.1296 34.3727 52.1158 34.9156 52.0951C35.1283 52.0871 35.1272 52.0836 35.1387 51.8582C35.2015 50.6644 35.2656 49.4702 35.3307 48.2756C35.412 46.7506 35.4929 45.2255 35.5734 43.7005C35.6769 41.753 35.7793 39.8055 35.8805 37.858C35.9487 36.5629 36.0154 35.2675 36.0806 33.9718C36.0921 33.7624 36.0875 33.7578 35.8782 33.7613C35.2157 33.7728 34.5533 33.7858 33.8908 33.8004C33.8269 33.8025 33.7633 33.811 33.701 33.8257C33.2548 33.9269 32.9581 33.6739 32.9972 33.2196C33.0133 33.0275 33.0363 32.8354 33.0558 32.6445C33.18 31.4262 33.3035 30.209 33.4262 28.9929C33.5435 27.8428 33.6585 26.69 33.7712 25.5346C33.8931 24.327 34.0154 23.119 34.1381 21.9106C34.2569 20.749 34.3742 19.587 34.49 18.4246C34.6119 17.217 34.7342 16.009 34.8569 14.8006L35.2088 11.3146L35.5711 7.7493C35.6436 7.04544 35.7126 6.34042 35.7896 5.63656C35.8287 5.28117 36.0196 5.11671 36.3739 5.10636C36.5303 5.10636 36.6867 5.09831 36.842 5.08796L40.696 4.82573C41.5954 4.76363 42.4959 4.71072 43.3942 4.64056C43.7392 4.61411 44.0785 4.58766 44.4189 4.73947C44.6558 4.84528 44.7973 4.9833 44.8433 5.23057C44.92 5.62697 44.994 6.02453 45.0653 6.42323C45.1987 7.15547 45.3321 7.8877 45.4655 8.61994C45.5058 8.83846 45.5081 8.83731 45.7266 8.84996C45.9739 8.86721 46.2211 8.88791 46.4696 8.90286C46.6812 8.91551 46.6835 8.91322 46.6812 8.70505C46.6735 8.04258 46.6643 7.38012 46.6536 6.71766C46.6221 4.86905 46.5907 3.02006 46.5593 1.17069C46.5512 0.687646 46.7249 0.50938 47.2079 0.467976C47.9509 0.40587 48.6927 0.339164 49.4345 0.277058C49.8371 0.243705 50.0705 0.441523 50.0924 0.83946C50.1867 2.57612 50.2799 4.3124 50.3719 6.0483C50.4156 6.86641 50.4608 7.68375 50.5076 8.50033C50.4966 8.59696 50.5159 8.69461 50.5628 8.7798C50.9078 8.75565 51.2528 8.7338 51.5979 8.70735C52.0809 8.67169 52.4237 8.92242 52.5076 9.39741C52.7376 10.674 52.9619 11.9506 53.1804 13.2273C53.5009 15.0467 53.8214 16.8662 54.1419 18.6857C54.4839 20.6225 54.8262 22.5592 55.169 24.496C55.4902 26.3155 55.8107 28.135 56.1305 29.9544C56.4724 31.8912 56.8148 33.828 57.1575 35.7648C57.4795 37.5934 57.8023 39.4217 58.1259 41.2496C58.1895 41.5461 58.2355 41.846 58.2639 42.1479C58.274 42.2402 58.2578 42.3335 58.2172 42.417C58.1766 42.5006 58.1133 42.571 58.0345 42.6201C57.9557 42.6693 57.8646 42.6951 57.7717 42.6948C57.6788 42.6945 57.5879 42.6679 57.5094 42.6183C57.3989 42.5554 57.2731 42.5244 57.146 42.5286L56.732 42.5228C56.3616 42.5147 56.357 42.5159 56.3869 42.8793C56.4732 43.8132 56.5641 44.7471 56.6526 45.681C56.7523 46.7544 56.852 47.8259 56.9516 48.8955C57.0735 50.199 57.1962 51.499 57.3197 52.7956C57.4186 53.8491 57.5171 54.9022 57.6152 55.9549C57.7356 57.2376 57.8568 58.5196 57.9787 59.8009C58.0784 60.8628 58.1777 61.9251 58.2766 62.9878C58.4008 64.2614 58.5246 65.5338 58.648 66.805C58.7493 67.8769 58.8459 68.9477 58.9459 70.0253C59.0732 71.3893 59.2013 72.7537 59.3301 74.1185C59.3358 74.1726 59.3554 74.2519 59.3301 74.2773C59.2208 74.3808 59.2714 74.5073 59.2749 74.6154C59.2829 74.8638 59.3025 75.1111 59.3174 75.3595C59.3726 76.3382 59.429 77.3204 59.4853 78.3118ZM56.6687 41.4842H56.916C57.1023 41.4773 57.1058 41.4739 57.0758 41.2991C57.0137 40.946 56.9505 40.5941 56.8884 40.2421C56.7308 39.3474 56.5756 38.4526 56.4168 37.5578C56.2639 36.6906 56.1075 35.8234 55.9568 34.9562C55.7774 33.9457 55.5995 32.9336 55.4231 31.92C55.2698 31.0528 55.1165 30.1856 54.9631 29.3184C54.7852 28.3071 54.6073 27.2954 54.4295 26.2833C54.2765 25.4161 54.1212 24.5489 53.9694 23.6806C53.7923 22.6777 53.6244 21.6748 53.4415 20.6719C53.2882 19.7955 53.1325 18.9191 52.9746 18.0428C52.7974 17.0399 52.6211 16.037 52.4455 15.0341C52.2922 14.1485 52.1361 13.2629 51.9774 12.3773C51.8348 11.5723 51.6841 10.7672 51.5484 9.96211C51.5243 9.8195 51.4656 9.7781 51.3322 9.7873C50.9561 9.81375 50.5789 9.7873 50.2017 9.7873C49.6871 9.77581 49.1722 9.79193 48.6594 9.8356C48.425 9.88151 48.1861 9.90004 47.9474 9.89081C47.5628 9.85918 47.1762 9.85918 46.7916 9.89081C46.2411 9.92626 45.6886 9.9151 45.14 9.85745C44.8042 9.81605 44.6052 9.68034 44.542 9.35256C44.4005 8.61304 44.2717 7.87236 44.1383 7.1317C44.0612 6.70731 43.9865 6.28292 43.9083 5.85968C43.8703 5.66531 43.8427 5.64461 43.6483 5.66531C43.4758 5.68486 43.3033 5.70326 43.1273 5.71131C42.7328 5.72972 42.3383 5.75157 41.945 5.77917C41.2952 5.82517 40.6454 5.88153 39.9956 5.92523C39.2986 5.97239 38.6005 5.99539 37.9058 6.05865C37.6034 6.08625 37.2997 6.0782 36.9995 6.12305C36.8661 6.14261 36.7902 6.18401 36.7799 6.33927C36.7592 6.6498 36.7143 6.95918 36.6833 7.26971C36.6396 7.7079 36.5993 8.14724 36.5545 8.58543C36.4889 9.24214 36.4176 9.89886 36.352 10.5567C36.306 11.0041 36.2669 11.4527 36.2209 11.9C36.1554 12.5476 36.0864 13.1951 36.0197 13.8437C35.9748 14.2819 35.9357 14.7201 35.8908 15.1583C35.8253 15.807 35.7551 16.4545 35.6896 17.102C35.6447 17.5413 35.6045 17.9795 35.5608 18.4177C35.4941 19.0756 35.4239 19.7323 35.3572 20.389C35.3123 20.8364 35.2721 21.2849 35.2261 21.7323C35.1617 22.3706 35.0915 23.0101 35.0271 23.6484C34.9823 24.0866 34.9443 24.5259 34.9006 24.9641C34.8327 25.63 34.7626 26.2971 34.6947 26.963C34.6522 27.3828 34.6131 27.8037 34.5705 28.2281C34.5038 28.8756 34.4337 29.5231 34.3658 30.1718C34.314 30.664 34.2623 31.1574 34.214 31.6497C34.1841 31.9602 34.1634 32.2719 34.1346 32.5836C34.122 32.7135 34.1737 32.7733 34.306 32.763C34.4705 32.7503 34.6349 32.7331 34.8005 32.7308C36.3731 32.707 37.9449 32.6848 39.516 32.6641C40.1048 32.656 40.6948 32.679 41.2814 32.6434C41.8887 32.6077 42.4948 32.6169 43.1009 32.61C43.2368 32.6043 43.3702 32.6476 43.4768 32.7321C43.5834 32.8165 43.6561 32.9365 43.6817 33.0701C43.715 33.1931 43.7323 33.3219 43.761 33.4473C44.2579 35.6026 44.7563 37.7579 45.2562 39.9132L45.5219 41.0633C45.5472 41.1714 45.561 41.283 45.7151 41.2864C45.9072 41.2864 46.0992 41.3152 46.2901 41.3198C47.4483 41.3451 48.6065 41.3198 49.7646 41.3704C50.9032 41.4198 52.0441 41.3704 53.1839 41.4256C53.8739 41.4589 54.564 41.4394 55.2541 41.4451C55.3641 41.4526 55.4742 41.4316 55.5738 41.3842C55.6297 41.3508 55.6929 41.3317 55.7578 41.3285C55.8228 41.3253 55.8876 41.3381 55.9464 41.3658C56.1811 41.4808 56.4387 41.4727 56.6687 41.4842ZM55.4036 79.7529C55.4744 79.7481 55.5447 79.7381 55.6141 79.723C56.5341 79.4458 57.4347 79.148 58.3306 78.8167C58.4571 78.7696 58.4698 78.7017 58.4629 78.5867C58.4341 78.1635 58.4134 77.7414 58.387 77.3216C58.257 75.21 58.1926 73.0949 57.9982 70.9868C57.8809 69.7148 57.7625 68.442 57.6428 67.1684C57.5232 65.8949 57.4006 64.6236 57.2748 63.3547C57.1552 62.0811 57.0367 60.808 56.9194 59.5352C56.7975 58.2356 56.6748 56.9356 56.5514 55.6352C56.4916 54.9934 56.4364 54.3528 56.3708 53.7122C56.349 53.4822 56.3455 53.4822 56.127 53.5029C55.5037 53.55 54.8791 53.5949 54.2558 53.6409L51.009 53.879C49.6427 53.9809 48.2764 54.0837 46.91 54.1872C45.8002 54.27 44.6892 54.3471 43.5805 54.4299C42.2222 54.5299 40.8651 54.6357 39.5079 54.7369C38.4165 54.8186 37.3227 54.8945 36.2336 54.9739C36.0243 54.99 36.022 54.9923 36.0105 55.1958C35.9852 55.6375 35.9633 56.078 35.9391 56.5196L35.6907 61.2546C35.6263 62.476 35.5623 63.6978 35.4987 64.92C35.4274 66.307 35.3319 67.6929 35.3123 69.0822C35.287 70.8292 35.2675 72.5774 35.2422 74.3256C35.2123 76.4724 35.1797 78.6158 35.1444 80.7558C35.1444 80.9858 35.1444 80.9858 35.3687 81.0284C37.3199 81.3521 39.2906 81.5442 41.2676 81.6034C43.061 81.6587 44.856 81.6068 46.6432 81.4482C46.9031 81.4263 46.9077 81.4275 46.8974 81.1537C46.8085 78.6626 46.718 76.1707 46.626 73.678C46.6033 73.3878 46.656 73.0966 46.7789 72.8327C46.9694 72.4143 47.2054 72.0182 47.4828 71.6516C48.3787 70.5325 49.5288 69.8401 50.9688 69.778C52.6847 69.7033 53.9763 70.4681 54.8239 71.9632C54.8596 72.0276 54.8745 72.1151 54.9275 72.1553C55.0609 72.2542 55.0505 72.3911 55.0563 72.5256C55.1329 74.2623 55.2134 75.999 55.2978 77.7356C55.3254 78.4015 55.3576 79.0629 55.3978 79.7529H55.4036ZM36.4268 53.9135L39.6195 53.6834L42.7248 53.4534L46.8468 53.1406C47.9474 53.0589 49.0481 52.9819 50.1487 52.9002L54.4375 52.5805C54.97 52.5414 55.5014 52.5046 56.0327 52.4655C56.2363 52.4505 56.2386 52.4459 56.2236 52.2355C56.2087 52.025 56.1845 51.7961 56.1638 51.5764C56.0634 50.503 55.9633 49.4319 55.8636 48.363L55.5014 44.5182C55.4438 43.9041 55.3863 43.2911 55.3334 42.6781C55.3208 42.5331 55.261 42.4848 55.1253 42.4986C55.0797 42.5015 55.034 42.5015 54.9884 42.4986L46.5731 42.371C46.113 42.3641 45.653 42.3491 45.1929 42.3388C45.0817 42.3462 44.971 42.3177 44.8772 42.2575C44.7834 42.1972 44.7114 42.1084 44.6719 42.0041C44.6388 41.9186 44.6126 41.8305 44.5937 41.7407C44.1222 39.6997 43.6518 37.6586 43.1825 35.6176C43.0468 35.0264 42.9054 34.4364 42.7742 33.8452C42.7466 33.7153 42.6972 33.6474 42.5569 33.6681C42.5017 33.6716 42.4464 33.6716 42.3913 33.6681L37.371 33.7578C37.1307 33.7578 37.1318 33.7636 37.1203 33.9971C37.0751 34.878 37.0298 35.7598 36.9846 36.6423C36.9003 38.2394 36.8155 39.8373 36.7304 41.4359C36.6676 42.6298 36.6047 43.8236 36.5418 45.0174C36.459 46.5785 36.3758 48.1395 36.2922 49.7006C36.2232 50.9864 36.1565 52.2723 36.0852 53.5581C36.0691 53.933 36.0634 53.9319 36.421 53.9135H36.4268ZM34.1151 80.8076C34.1151 80.6109 34.1151 80.4556 34.1151 80.3004C34.1764 76.0411 34.237 71.7827 34.2968 67.525C34.2968 67.2754 34.3451 67.0316 34.3589 66.7843C34.4624 64.8276 34.5652 62.8724 34.6671 60.9188C34.6786 60.6887 34.6775 60.6887 34.4521 60.7037C33.8655 60.752 33.2801 60.8095 32.6936 60.8613L28.1598 61.2626C27.9712 61.2787 27.9701 61.2799 27.9609 61.4754C27.9068 62.7405 27.8585 63.9941 27.7998 65.2524C27.717 67.0258 27.6733 68.7993 27.5583 70.5716C27.4629 72.0219 27.4215 73.4745 27.3571 74.9271C27.3087 76.0005 27.2612 77.0739 27.2144 78.1474C27.2041 78.3854 27.2052 78.6281 26.9499 78.811C29.2781 79.6702 31.6725 80.338 34.1093 80.8076H34.1151ZM35.0352 53.7892C35.0455 53.634 35.0547 53.4787 35.0651 53.3223C35.0754 53.1659 35.0501 53.1302 34.9029 53.1498C34.2807 53.2303 33.655 53.1935 33.0317 53.2257C31.9126 53.2821 30.7924 53.3005 29.6734 53.3488C28.9572 53.3787 28.2411 53.399 27.525 53.4097C27.3582 53.4097 27.3099 53.4707 27.2846 53.6271C27.2363 53.9365 27.2236 54.2481 27.1788 54.5564C27.1063 55.0555 27.0063 55.5501 26.9223 56.0515C26.6923 57.4071 26.4623 58.7631 26.2323 60.1194C26.1885 60.3828 26.1862 60.3851 26.4496 60.3736C26.4956 60.3736 26.5416 60.3736 26.5865 60.3633C27.0891 60.315 27.5905 60.2621 28.092 60.216C28.5934 60.17 29.0983 60.1367 29.6009 60.0918C30.3128 60.0263 31.0236 59.9515 31.7367 59.8871C32.4497 59.8227 33.1628 59.7721 33.8747 59.7031C34.0944 59.6812 34.314 59.6732 34.5326 59.6479C34.7246 59.6249 34.7488 59.595 34.7534 59.4041C34.7614 59.0464 34.7879 58.6887 34.8051 58.3322C34.8381 57.6628 34.8764 56.9938 34.9202 56.3252C34.9581 55.4765 34.988 54.6323 35.0271 53.7892H35.0352ZM54.0108 73.2387C53.9154 73.2387 53.8153 73.2387 53.7152 73.2387L51.292 73.3928L47.8819 73.609C47.6737 73.6228 47.6737 73.6263 47.6772 73.831C47.6772 73.8678 47.6772 73.9046 47.6772 73.946C47.7607 76.2255 47.8451 78.505 47.9302 80.7846C47.9359 80.9479 47.8727 81.1653 47.9762 81.2619C48.0797 81.3585 48.3051 81.2619 48.4742 81.2458C50.3793 81.0038 52.2662 80.6353 54.1224 80.1428C54.3604 80.0795 54.3627 80.0795 54.3524 79.8357C54.2543 77.731 54.155 75.6271 54.0545 73.5239C54.0631 73.4267 54.0481 73.3289 54.0108 73.2387ZM49.285 5.15236C49.285 5.10636 49.2793 5.06035 49.277 5.01435C49.2187 3.87574 49.1597 2.73714 49.0999 1.59853C49.0872 1.35586 49.0872 1.35816 48.8457 1.38231C48.534 1.41336 48.2235 1.44212 47.9118 1.46742C47.6001 1.49272 47.6105 1.45132 47.6151 1.77565C47.6254 2.41856 47.6404 3.06262 47.6507 3.70668C47.6768 5.3797 47.7029 7.05311 47.7289 8.7269C47.7289 8.98222 47.7289 8.98452 47.9877 8.96727C48.419 8.93737 48.8491 8.90516 49.2804 8.87411C49.4863 8.85916 49.4897 8.85916 49.4782 8.64984C49.4108 7.4821 49.3464 6.31474 49.285 5.14776V5.15236ZM31.8482 49.0704C31.2398 49.1762 30.6268 49.2843 30.008 49.3866C29.908 49.4039 29.862 49.4487 29.8689 49.5499C29.8689 49.5684 29.8689 49.5868 29.8689 49.6052C29.8689 50.4332 29.8689 51.2605 29.8689 52.0871C29.8689 52.1837 29.8413 52.2918 30.0115 52.2838C30.6448 52.2531 31.2785 52.2297 31.9126 52.2136C32.0702 52.2136 32.061 52.1319 32.0552 52.0204C32.0023 51.1314 31.9552 50.2412 31.9023 49.351C31.9124 49.2542 31.8936 49.1565 31.8482 49.0704ZM48.1637 72.4727L48.1855 72.5394L53.706 72.1944C53.7066 72.1615 53.7001 72.1289 53.687 72.0988C53.6739 72.0686 53.6545 72.0416 53.6301 72.0196C52.8342 71.0155 51.7899 70.6395 50.5478 70.8695C49.53 71.0685 48.7571 71.6481 48.1637 72.4727Z" fill="#4E3D35"/>
<path d="M56.6689 41.4851C56.4388 41.4736 56.1812 41.4851 55.9408 41.3632C55.882 41.3354 55.8172 41.3226 55.7522 41.3258C55.6872 41.329 55.6241 41.3482 55.5682 41.3816C55.4686 41.429 55.3585 41.45 55.2485 41.4425C54.5584 41.4368 53.8683 41.4563 53.1783 41.423C52.0385 41.3678 50.8976 41.4172 49.759 41.3678C48.6009 41.3172 47.4427 41.3425 46.2845 41.3172C46.0913 41.3172 45.8992 41.2884 45.7095 41.2838C45.5554 41.2838 45.5416 41.1688 45.5163 41.0607L45.2506 39.9106C44.7522 37.7553 44.2538 35.6 43.7554 33.4447C43.7267 33.3193 43.7094 33.1905 43.6761 33.0674C43.6506 32.9338 43.5778 32.8139 43.4712 32.7294C43.3646 32.645 43.2312 32.6017 43.0953 32.6074C42.4892 32.6143 41.8831 32.6074 41.2758 32.6407C40.6893 32.6764 40.0993 32.6534 39.5104 32.6614C37.9386 32.6821 36.3668 32.7044 34.795 32.7282C34.6293 32.7282 34.4649 32.7477 34.3004 32.7604C34.1681 32.7707 34.1164 32.7109 34.129 32.5809C34.1578 32.2693 34.1785 31.9576 34.2084 31.6471C34.2567 31.1548 34.3085 30.6614 34.3602 30.1692C34.4281 29.5205 34.4982 28.873 34.5649 28.2255C34.6075 27.8057 34.6466 27.3848 34.6891 26.9604C34.757 26.2944 34.8272 25.6274 34.895 24.9615C34.9387 24.5233 34.9767 24.0839 35.0215 23.6458C35.0859 23.0074 35.1561 22.368 35.2205 21.7297C35.2665 21.2823 35.3068 20.8337 35.3516 20.3863C35.4183 19.7296 35.4885 19.0729 35.5552 18.4151C35.5989 17.9769 35.6391 17.5387 35.684 17.0993C35.7495 16.4518 35.8197 15.8043 35.8853 15.1557C35.9301 14.7175 35.9692 14.2793 36.0141 13.8411C36.0808 13.1924 36.1498 12.5449 36.2153 11.8974C36.2613 11.45 36.3004 11.0015 36.3465 10.5541C36.412 9.89621 36.4833 9.2395 36.5489 8.58278C36.5937 8.14459 36.634 7.70525 36.6777 7.26706C36.7087 6.95653 36.7536 6.64715 36.7743 6.33662C36.7846 6.18136 36.8605 6.13996 36.994 6.1204C37.2941 6.07555 37.5978 6.0836 37.9002 6.056C38.5903 5.99274 39.293 5.96974 39.99 5.92258C40.6398 5.87888 41.2896 5.82252 41.9394 5.77652C42.3328 5.74892 42.7272 5.72707 43.1217 5.70866C43.2966 5.70061 43.4668 5.68221 43.6427 5.66266C43.8371 5.64196 43.8647 5.66266 43.9027 5.85703C43.9843 6.28027 44.0591 6.70466 44.1327 7.12905C44.2661 7.86972 44.3949 8.61039 44.5364 9.34991C44.5996 9.67769 44.7986 9.80995 45.1344 9.8548C45.683 9.91245 46.2355 9.92361 46.786 9.88816C47.1706 9.85653 47.5572 9.85653 47.9418 9.88816C48.1805 9.89739 48.4194 9.87886 48.6538 9.83295C49.1666 9.78929 49.6815 9.77316 50.1961 9.78465C50.5733 9.78465 50.9505 9.8111 51.3266 9.78465C51.46 9.77545 51.5187 9.81685 51.5428 9.95946C51.6785 10.7645 51.8292 11.5696 51.9718 12.3747C52.1298 13.2603 52.2858 14.1459 52.4399 15.0314C52.617 16.0343 52.7934 17.0372 52.969 18.0401C53.1223 18.9165 53.278 19.7929 53.4359 20.6693C53.613 21.6722 53.7867 22.6751 53.9638 23.678C54.1156 24.5463 54.2709 25.4135 54.4238 26.2806C54.6025 27.2927 54.7804 28.3045 54.9575 29.3158C55.1108 30.1837 55.2642 31.0509 55.4175 31.9173C55.5962 32.9294 55.7741 33.9415 55.9512 34.9536C56.1042 35.8208 56.2606 36.688 56.4112 37.5552C56.5699 38.4499 56.7252 39.3447 56.8828 40.2395C56.9449 40.5914 57.0081 40.9434 57.0702 41.2965C57.1001 41.4713 57.0967 41.4747 56.9104 41.4816H56.6689V41.4851Z" fill="#4E3D35" fill-opacity="0.6"/>
<path d="M35.0273 53.7904C34.9882 54.6335 34.9583 55.4776 34.9065 56.3207C34.8651 56.9885 34.8268 57.6575 34.7915 58.3276C34.7743 58.6841 34.7478 59.0418 34.7398 59.3995C34.7398 59.5904 34.711 59.6203 34.519 59.6433C34.3004 59.6686 34.0808 59.6767 33.8611 59.6985C33.1492 59.771 32.435 59.8135 31.7231 59.8825C31.0111 59.9515 30.3038 60.0206 29.5954 60.0873C29.0928 60.1321 28.589 60.1666 28.0864 60.2115C27.5838 60.2563 27.0835 60.3104 26.5809 60.3587C26.5361 60.3587 26.4901 60.3667 26.4441 60.369C26.1807 60.3805 26.183 60.3782 26.2267 60.1149C26.4567 58.7585 26.6867 57.4025 26.9168 56.0469C27.0007 55.5501 27.1008 55.0555 27.1732 54.5518C27.2181 54.2436 27.2307 53.9319 27.279 53.6225C27.3043 53.4661 27.3527 53.4074 27.5194 53.4051C28.2348 53.3936 28.9509 53.3733 29.6678 53.3442C30.7869 53.2959 31.9071 53.2775 33.0261 53.2211C33.6495 53.1889 34.2751 53.2211 34.8973 53.1452C35.0446 53.1257 35.0699 53.1659 35.0595 53.3177C35.0492 53.4695 35.04 53.6294 35.0296 53.7847L35.0273 53.7904Z" fill="#4E3D35" fill-opacity="0.6"/>
<path d="M49.9944 61.056C50.0036 60.4809 49.9496 59.8989 49.9243 59.3204C49.8978 58.704 49.9105 58.0887 49.9346 57.4734C49.9275 57.3481 49.9663 57.2245 50.0438 57.1259C50.1213 57.0272 50.2322 56.9602 50.3556 56.9374C50.4175 56.9195 50.4811 56.9084 50.5454 56.9041C51.3711 56.8638 52.1958 56.789 53.0239 56.8569C53.1331 56.8646 53.2425 56.8453 53.3424 56.8005C53.7231 56.6476 54.0498 56.8535 54.0831 57.2606C54.1038 57.5263 54.1038 57.7931 54.1096 58.0657C54.1533 60.2233 54.1966 62.3816 54.2395 64.5408C54.2459 64.6323 54.2459 64.7241 54.2395 64.8157C54.235 64.8964 54.2109 64.9748 54.1694 65.0441C54.1278 65.1134 54.0701 65.1717 54.0011 65.2137C53.932 65.2558 53.8538 65.2805 53.7732 65.2857C53.6925 65.2909 53.6118 65.2764 53.538 65.2435C53.4204 65.1935 53.2927 65.1722 53.1653 65.1814C52.4591 65.2308 51.753 65.2711 51.048 65.3275C50.8279 65.3382 50.6076 65.315 50.3947 65.2584C50.304 65.2388 50.2209 65.1932 50.1556 65.1273C50.0903 65.0613 50.0455 64.9779 50.0266 64.887C50.0011 64.77 49.9914 64.65 49.9979 64.5304L49.9944 61.056ZM53.1205 59.3227H53.0722C53.0722 58.9777 53.0791 58.6235 53.0722 58.2738C53.0607 57.854 53.1435 57.9081 52.6846 57.8839C52.4706 57.8724 52.466 57.877 52.4729 58.114C52.4937 58.8673 52.5132 59.6218 52.5431 60.3751C52.5604 60.7914 52.4959 60.7339 52.9238 60.7374C53.1205 60.7374 53.1216 60.7374 53.1216 60.5396L53.1205 59.3227ZM51.4654 59.2951H51.4723C51.4551 58.8627 51.4367 58.4314 51.4252 58.0001C51.4252 57.8851 51.3953 57.8241 51.2699 57.8391C51.2243 57.8414 51.1787 57.8414 51.1331 57.8391C50.903 57.8391 50.903 57.8391 50.9088 58.0691C50.9444 58.9133 50.9881 59.7575 51.0238 60.5994C51.0238 60.7063 51.0641 60.7512 51.1722 60.7328C51.2181 60.7293 51.2642 60.7293 51.3102 60.7328C51.508 60.7328 51.5126 60.7328 51.5068 60.5373C51.4965 60.1198 51.4804 59.7069 51.4654 59.294V59.2951ZM51.0365 63.0272V63.8829C51.0365 64.2889 51.0365 64.2809 51.4516 64.2521C51.6035 64.2418 51.6276 64.1843 51.623 64.0497C51.5943 63.378 51.577 62.7075 51.554 62.037C51.5448 61.7564 51.5678 61.7667 51.2757 61.7736C51.2481 61.7759 51.2204 61.7759 51.1929 61.7736C51.0779 61.7541 51.0319 61.8035 51.033 61.9243C51.0399 62.2912 51.0365 62.6592 51.0365 63.0261V63.0272ZM52.6397 64.1405C52.7452 64.1728 52.8572 64.1779 52.9652 64.1555C53.2044 64.129 53.1952 64.1555 53.1872 63.9163C53.1757 63.3194 53.1642 62.7236 53.1492 62.1267C53.14 61.7564 53.1377 61.7564 52.7685 61.7713C52.5903 61.7782 52.5857 61.7782 52.5914 61.9622C52.6052 62.466 52.6248 62.9709 52.6386 63.4746C52.6443 63.6932 52.6397 63.9128 52.6397 64.1394V64.1405Z" fill="#4E3D35"/>
<path d="M38.5353 61.474C38.5353 60.5999 38.5353 59.7262 38.5353 58.8529C38.5353 58.6136 38.5353 58.3756 38.5502 58.1363C38.5652 57.8971 38.7112 57.7292 38.9873 57.6844C39.1862 57.6521 39.3898 57.6452 39.5911 57.6234C40.3128 57.5375 41.0419 57.5321 41.7648 57.6073C41.7829 57.608 41.801 57.6099 41.8189 57.613C42.069 57.7204 42.3054 57.8575 42.5227 58.0213C42.6233 58.1552 42.6708 58.3215 42.6561 58.4883C42.6561 59.1139 42.6665 59.7385 42.6711 60.3641C42.6811 61.6798 42.6903 62.9948 42.6987 64.309C42.6987 64.493 42.6987 64.677 42.6987 64.8599C42.7004 64.9669 42.6678 65.0715 42.6057 65.1586C42.5436 65.2458 42.4553 65.3107 42.3537 65.3441C42.2669 65.3746 42.1754 65.3894 42.0834 65.3878L39.4071 65.4396C39.3703 65.4396 39.3335 65.4396 39.2921 65.4396C38.8228 65.4304 38.5583 65.1693 38.556 64.7012C38.556 63.6247 38.556 62.5482 38.556 61.4728L38.5353 61.474ZM40.1972 59.9248V58.9621C40.1972 58.5366 40.1972 58.5366 39.7832 58.5791C39.5738 58.601 39.5727 58.601 39.5738 58.8299C39.5738 59.5199 39.5784 60.2077 39.5876 60.8932C39.5876 61.3256 39.5876 61.3199 40.027 61.2911C40.1592 61.2819 40.1983 61.2347 40.1972 61.1071C40.1926 60.7137 40.1972 60.3193 40.1972 59.9248ZM39.6014 63.2934C39.6014 63.5419 39.6014 63.7891 39.6014 64.0364C39.6083 64.4436 39.5324 64.3884 39.9729 64.3815C40.1822 64.3815 40.1868 64.3815 40.188 64.1687C40.188 63.673 40.1937 63.1784 40.188 62.6827C40.1811 62.1422 40.2835 62.2641 39.7429 62.2227C39.6129 62.2123 39.5888 62.2641 39.5911 62.378C39.6014 62.6885 39.6014 62.991 39.6014 63.2934ZM41.2703 58.6378C41.2128 58.9644 41.2277 61.168 41.291 61.3555C41.521 61.229 41.6567 61.0864 41.636 60.7805C41.6015 60.1663 41.6164 59.5487 41.6118 58.9322C41.6118 58.6332 41.6118 58.6332 41.3163 58.6182C41.3 58.6224 41.2845 58.629 41.2703 58.6378ZM41.2369 63.3533C41.2369 63.6293 41.2461 63.9042 41.2369 64.179C41.23 64.3458 41.3163 64.3527 41.4405 64.3492C41.6521 64.3435 41.6567 64.3492 41.6567 64.1698C41.6567 63.6649 41.6567 63.16 41.6567 62.6551C41.6567 62.4102 41.6567 62.4159 41.3991 62.378C41.2841 62.3619 41.245 62.3872 41.2461 62.4987C41.2392 62.7885 41.2369 63.0726 41.2369 63.3533Z" fill="#4E3D35"/>
<path d="M42.8606 40.5052L43.0055 43.2654C43.0147 43.4311 43.0227 43.5955 43.0273 43.7611C43.0342 43.8532 43.0166 43.9455 42.9762 44.0285C42.9357 44.1116 42.874 44.1824 42.7973 44.2338C42.7279 44.2777 42.6694 44.3367 42.626 44.4064C42.5783 44.485 42.5106 44.5494 42.4297 44.5931C42.3488 44.6368 42.2578 44.6581 42.1659 44.6548C41.0342 44.6674 39.9036 44.687 38.7731 44.6904C38.3752 44.6904 38.1635 44.4225 38.236 44.0349C38.2574 43.9084 38.2674 43.7802 38.2659 43.6519C38.2659 41.6936 38.2624 39.735 38.2555 37.776C38.2555 37.5368 38.2486 37.2987 38.2383 37.0595C38.2233 36.7052 38.4177 36.4844 38.7754 36.4672C39.0054 36.4568 39.2354 36.4672 39.4655 36.4614C40.2015 36.4614 40.9376 36.4614 41.6725 36.4419C41.9784 36.4327 42.2223 36.5672 42.4684 36.7018C42.6444 36.7984 42.6892 36.987 42.6984 37.1779C42.7122 37.4252 42.7249 37.6736 42.7375 37.9209C42.7797 38.7842 42.823 39.6476 42.8675 40.5109L42.8606 40.5052ZM40.1003 42.3454C40.1003 41.9693 40.1003 41.5932 40.1003 41.2171C40.1003 41.1021 40.0578 41.0492 39.9393 41.0618C39.7748 41.0779 39.6104 41.0998 39.4459 41.1021C39.3251 41.1021 39.2895 41.1504 39.2906 41.2654C39.2952 42.0084 39.2952 42.7513 39.2906 43.4943C39.2906 43.6174 39.3412 43.6519 39.4563 43.6461C39.6023 43.6381 39.7495 43.6461 39.8956 43.6404C40.0911 43.6404 40.0946 43.6346 40.0969 43.446C40.1072 43.0757 40.1049 42.7088 40.1049 42.3419L40.1003 42.3454ZM39.2837 38.8226C39.2837 39.2182 39.2837 39.6138 39.2837 40.0083C39.2837 40.1521 39.3378 40.1832 39.4655 40.159C39.5931 40.1348 39.7196 40.1187 39.8473 40.1061C40.052 40.0842 40.0543 40.0865 40.0543 39.8761C40.0543 39.278 40.0543 38.6807 40.0543 38.0842C40.0543 37.8944 40.1555 37.646 40.029 37.531C39.9025 37.416 39.6587 37.5138 39.4678 37.4988C39.3205 37.4873 39.278 37.5483 39.2814 37.6897C39.2941 38.0658 39.2883 38.443 39.2883 38.8191L39.2837 38.8226ZM41.9071 42.335H41.9129C41.9037 42.1981 41.8945 42.0601 41.8864 41.9221C41.8784 41.7841 41.8772 41.6461 41.8634 41.5092C41.8473 41.339 41.929 41.1124 41.7956 41.0147C41.6622 40.9169 41.462 41.0446 41.2895 41.0503C41.1665 41.0503 41.1377 41.1147 41.14 41.2252C41.1458 41.5288 41.1458 41.8324 41.1458 42.1349C41.1458 42.5765 41.1458 43.0182 41.1458 43.4587C41.1458 43.5886 41.1872 43.6427 41.3217 43.6346C41.477 43.6243 41.6334 43.6346 41.7898 43.6254C41.9715 43.6185 41.9761 43.6151 41.9681 43.4368C41.9543 43.0653 41.9324 42.6984 41.9117 42.3316L41.9071 42.335ZM41.1021 39.9968C41.2735 40.0054 41.4452 39.9883 41.6116 39.9462C41.7484 39.9244 41.7864 39.8634 41.7783 39.7231C41.7404 39.1366 41.7185 38.5489 41.6886 37.9611C41.661 37.4367 41.6599 37.4367 41.1389 37.485H41.1113C41.0342 37.485 40.9963 37.5184 40.9963 37.6C41.025 38.3959 41.1147 39.1918 41.1044 39.9934L41.1021 39.9968Z" fill="#4E3D35"/>
<path d="M33.3781 64.306C33.3781 65.1594 33.3781 65.8011 33.3781 66.4475C33.3813 66.5392 33.3782 66.631 33.3688 66.7223C33.3594 66.8483 33.3008 66.9654 33.2057 67.0485C33.1105 67.1316 32.9866 67.1739 32.8605 67.1663C31.9669 67.1065 31.0801 67.2537 30.1888 67.2399C30.0881 67.2444 29.9889 67.2662 29.8955 67.3043C29.8262 67.3302 29.752 67.3406 29.6782 67.3346C29.6045 67.3286 29.5329 67.3064 29.4687 67.2696C29.4044 67.2329 29.3491 67.1824 29.3066 67.1218C29.2641 67.0612 29.2354 66.9919 29.2227 66.919C29.1982 66.802 29.1839 66.6831 29.1802 66.5636C29.1121 65.4715 29.1056 64.3764 29.1606 63.2836C29.1875 63.0741 29.177 62.8614 29.1296 62.6556C29.1155 62.5995 29.1128 62.541 29.1218 62.4838C29.1307 62.4266 29.1511 62.3718 29.1817 62.3227C29.2123 62.2735 29.2524 62.231 29.2998 62.1977C29.3472 62.1644 29.4007 62.141 29.4573 62.1289C29.5642 62.1004 29.6747 62.0884 29.7851 62.0932C30.5292 62.0896 31.2724 62.0408 32.0106 61.9472C32.3027 61.9138 32.596 61.931 32.887 61.8655C33.117 61.8137 33.3148 61.9678 33.3826 62.2025C33.4077 62.3102 33.4174 62.421 33.4114 62.5314C33.401 63.1927 33.3562 63.854 33.3781 64.306ZM31.9979 64.191H32.2406C32.32 64.191 32.3556 64.1553 32.3556 64.076C32.3752 63.7471 32.397 63.417 32.4189 63.0869C32.4246 63.0029 32.3855 62.9719 32.3039 62.9719C32.1474 62.9845 31.9922 62.996 31.8369 63.011C31.5804 63.0363 31.577 63.0386 31.5908 63.3043C31.6023 63.5147 31.6299 63.7252 31.6437 63.9357C31.6621 64.2186 31.6437 64.2002 31.9301 64.191H31.9979ZM30.6535 63.655H30.6236C30.6236 63.54 30.6236 63.4181 30.6236 63.2985C30.6236 63.0524 30.6615 63.0685 30.3935 63.0558C30.3663 63.0576 30.3391 63.0576 30.3119 63.0558C30.1762 63.034 30.129 63.1041 30.1313 63.2261C30.1374 63.5289 30.1443 63.8306 30.152 64.1312C30.152 64.176 30.152 64.2335 30.213 64.2358C30.3406 64.2358 30.4694 64.2358 30.596 64.2358C30.6546 64.2358 30.6558 64.176 30.6558 64.13L30.6535 63.655ZM30.7006 65.7574H30.6937C30.6937 65.7022 30.6834 65.6424 30.6799 65.593C30.6765 65.5435 30.673 65.4779 30.6696 65.4285C30.6569 65.1985 30.6569 65.1985 30.4246 65.1847C30.3797 65.1847 30.3337 65.1847 30.2877 65.1847C30.2061 65.1778 30.1727 65.2134 30.1727 65.2997C30.1842 65.593 30.1946 65.8851 30.2038 66.1783C30.2038 66.2554 30.2337 66.2934 30.3188 66.2934C30.3728 66.2934 30.428 66.2934 30.4832 66.2865C30.6972 66.2738 30.6972 66.2738 30.7006 66.0714C30.7018 65.9587 30.7006 65.8575 30.7006 65.7574ZM32.3407 65.6723C32.3407 65.2019 32.3407 65.2031 31.8691 65.2249H31.8415C31.7484 65.2169 31.7069 65.2548 31.7127 65.3514C31.7254 65.5711 31.7334 65.7919 31.7415 66.0116C31.7415 66.0737 31.7633 66.1208 31.8346 66.1185C31.9899 66.1185 32.1704 66.1519 32.2947 66.0852C32.4189 66.0185 32.3234 65.8322 32.3418 65.6999C32.342 65.6907 32.3416 65.6815 32.3407 65.6723Z" fill="#4E3D35"/>
<path d="M52.3166 74.671C52.3239 74.8375 52.2903 75.0034 52.2189 75.154C52.0314 75.5623 51.8945 75.9936 51.668 76.3846C51.5109 76.6931 51.3708 77.0098 51.2482 77.3335C51.1631 77.5244 51.0538 77.5635 50.8951 77.4174C50.7721 77.3082 50.6618 77.1855 50.5662 77.0517C50.4823 76.9304 50.39 76.8151 50.2901 76.7067C49.9271 76.3012 49.6633 75.8169 49.5196 75.292C49.4848 75.1683 49.4705 75.0397 49.477 74.9113C49.4767 74.8096 49.4984 74.709 49.5406 74.6165C49.5828 74.524 49.6445 74.4416 49.7216 74.3752C49.7986 74.3088 49.8891 74.2598 49.9868 74.2316C50.0846 74.2035 50.1873 74.1968 50.2878 74.2121C50.4808 74.2264 50.6672 74.2881 50.8307 74.3915C50.8442 74.4035 50.86 74.4127 50.8771 74.4185C50.8943 74.4242 50.9124 74.4265 50.9305 74.4251C50.9485 74.4237 50.9661 74.4187 50.9821 74.4103C50.9982 74.402 51.0124 74.3905 51.0239 74.3765C51.0768 74.3259 51.1389 74.2903 51.1964 74.2397C51.4034 74.0419 51.6565 74.0189 51.9164 74.0603C52.1763 74.1017 52.2787 74.2075 52.3017 74.4755C52.3074 74.5433 52.312 74.6077 52.3166 74.671Z" fill="#4E3D35"/>
</svg>
