<svg width="84" height="84" viewBox="0 0 84 84" fill="none" xmlns="http://www.w3.org/2000/svg">
<path d="M30.0679 43.4691C29.895 43.2912 29.7271 43.1113 29.5512 42.9384C29.2989 42.6934 29.0954 42.4027 28.9515 42.0819C28.8366 41.8424 28.7922 41.5751 28.8236 41.3113C28.8313 41.1909 28.8752 41.0756 28.9495 40.9805C28.9815 40.9514 29.002 40.9117 29.0071 40.8688C29.0122 40.8258 29.0017 40.7825 28.9775 40.7466C28.9052 40.6161 28.8728 40.4673 28.8844 40.3186C28.8959 40.1699 28.9509 40.0278 29.0425 39.9101C29.1074 39.8211 29.0754 39.7712 29.0115 39.7102C28.8116 39.5213 28.6117 39.3414 28.4028 39.1675C28.2273 39.0283 28.0725 38.8647 27.9431 38.6818C27.8762 38.5915 27.831 38.487 27.8111 38.3764C27.7911 38.2658 27.797 38.1521 27.8282 38.0442C27.8751 37.8833 27.8931 37.7124 27.9811 37.5664C28.0021 37.5328 28.0115 37.4932 28.0079 37.4536C28.0043 37.4141 27.9878 37.3769 27.9611 37.3476C27.8871 37.2336 27.8162 37.1177 27.7522 36.9978C27.6588 36.8462 27.6124 36.6703 27.619 36.4924C27.6256 36.3145 27.6848 36.1426 27.7892 35.9983C27.8262 35.958 27.8457 35.9046 27.8435 35.8499C27.8412 35.7952 27.8174 35.7437 27.7772 35.7065C27.6558 35.5722 27.5815 35.402 27.5655 35.2217C27.5494 35.0414 27.5925 34.8607 27.6882 34.7071C27.7092 34.6784 27.7215 34.6444 27.7238 34.609C27.7261 34.5736 27.7183 34.5383 27.7012 34.5072C27.4904 34.0684 27.5273 33.9285 27.9331 33.6027C27.8082 33.4688 27.6852 33.3339 27.5593 33.2029C27.3673 33.0108 27.1868 32.8076 27.0186 32.5943C26.9161 32.4706 26.8436 32.3249 26.8067 32.1685C26.7734 32.0518 26.7801 31.9273 26.8257 31.8148C26.8714 31.7023 26.9534 31.6084 27.0586 31.5479C27.2643 31.4239 27.4898 31.336 27.7252 31.288C28.0981 31.1972 28.4799 31.1479 28.8636 31.1411C29.6136 31.1048 30.365 31.1751 31.0953 31.35C31.2112 31.38 31.3292 31.404 31.4481 31.4229C31.548 31.4379 31.582 31.399 31.548 31.301C31.5262 31.241 31.4977 31.1837 31.4631 31.1301C31.3631 30.9732 31.2712 30.8163 31.1693 30.6634C30.5226 29.6959 30.1288 28.6196 29.795 27.5142C29.481 26.4389 29.3317 25.3221 29.3523 24.2021C29.3556 22.7708 29.4679 21.3418 29.6881 19.9275C29.782 19.4332 29.9133 18.9468 30.0809 18.4723C30.1041 18.4032 30.1335 18.3363 30.1688 18.2725C30.3207 17.9886 30.5396 17.8197 30.8814 17.8497C31.2882 17.8809 31.6857 17.9873 32.0537 18.1635C32.4415 18.3547 32.8097 18.5834 33.1531 18.8461C33.427 19.0534 33.7038 19.2569 33.9836 19.4568C34.713 19.9645 35.3627 20.5778 35.9115 21.2767C36.2485 21.7139 36.6088 22.1326 36.9909 22.531C37.2997 22.8548 37.5636 23.2186 37.8464 23.5654C38.1463 23.9362 38.1463 23.9372 38.582 23.7443C38.9618 23.5754 39.3426 23.4115 39.7194 23.2366C40.7407 22.7728 41.841 22.5076 42.9615 22.4551C43.6391 22.4171 44.3197 22.3831 44.9954 22.495C45.1146 22.5073 45.2326 22.5293 45.3482 22.561C45.8788 22.7439 46.4315 22.8309 46.9752 22.9608C47.3562 23.0499 47.7275 23.1765 48.0836 23.3386C48.3674 23.4685 48.6663 23.5604 48.9551 23.6754C49.066 23.7194 49.113 23.6834 49.162 23.5924C49.3232 23.289 49.5021 22.9954 49.6977 22.7129C50.2853 21.8694 51.0429 21.1978 51.8334 20.5562C52.0193 20.4052 52.2062 20.2563 52.3851 20.0944C52.8919 19.6411 53.4577 19.2585 54.0672 18.9571C54.3197 18.8371 54.5655 18.7036 54.8037 18.5573C55.3673 18.2068 55.9768 17.936 56.6147 17.7528C56.6907 17.7288 56.7666 17.7048 56.8446 17.6858C57.2064 17.5968 57.4173 17.6798 57.6151 18.0006C57.7669 18.2637 57.8953 18.5396 57.9989 18.8251C58.2163 19.402 58.3443 20.0086 58.3787 20.6241C58.4528 21.6371 58.4675 22.6536 58.4227 23.6684C58.3737 24.8447 58.1528 25.998 57.896 27.1464C57.6789 28.1473 57.3081 29.1085 56.7966 29.9958C56.6127 30.3126 56.4568 30.6474 56.2969 30.9792C56.1993 31.1713 56.1393 31.3802 56.12 31.5949C56.3828 31.5779 56.6347 31.5669 56.8856 31.5429C57.3956 31.4888 57.9112 31.5329 58.4047 31.6728C58.5466 31.7015 58.6753 31.7755 58.7715 31.8837C58.8335 31.9574 58.8762 32.0455 58.8956 32.14C58.9149 32.2344 58.9104 32.3321 58.8824 32.4244C58.8404 32.5365 58.7882 32.6446 58.7265 32.7472C58.7715 32.8341 58.8654 32.8531 58.9364 32.8991C59.086 32.9918 59.2236 33.1026 59.3461 33.2289C59.546 33.4458 59.589 33.6207 59.4461 33.8795C59.3861 33.9915 59.3991 34.0474 59.4991 34.1084C59.5584 34.1489 59.6143 34.1944 59.666 34.2443C59.7253 34.2924 59.7737 34.3524 59.8083 34.4204C59.8428 34.4884 59.8626 34.563 59.8664 34.6392C59.8701 34.7154 59.8578 34.7915 59.8302 34.8626C59.8025 34.9337 59.7602 34.9982 59.7059 35.0519C59.675 35.0869 59.641 35.1198 59.606 35.1518C59.627 35.2308 59.6969 35.2458 59.7459 35.2777C59.9433 35.4 60.1258 35.5449 60.2896 35.7095C60.367 35.7898 60.4342 35.8795 60.4895 35.9763C60.6954 36.3451 60.6374 36.6939 60.3126 36.9628C60.1746 37.0714 60.03 37.1715 59.8798 37.2626C59.7319 37.3579 59.5804 37.4468 59.4251 37.5295C59.3332 37.5784 59.2982 37.6234 59.3472 37.7293C59.5221 38.1181 59.3472 38.4419 59.0863 38.6398C58.9464 38.7458 58.7985 38.8397 58.6506 38.9397C58.5776 38.9856 58.5506 39.0276 58.5846 39.1146C58.7055 39.4144 58.6096 39.6762 58.4287 39.9201C58.3016 40.0854 58.1491 40.2294 57.9769 40.3468C57.6616 40.5664 57.3271 40.757 56.9775 40.9165C56.8846 40.9605 56.8256 41.0055 56.8486 41.1324C56.8584 41.2202 56.8504 41.309 56.8252 41.3937C56.7999 41.4783 56.7579 41.557 56.7017 41.6251C56.133 42.4437 55.4874 43.1902 54.6798 43.7859C54.6498 43.8089 54.6089 43.8219 54.5989 43.8858C54.8987 43.9348 55.2085 43.9728 55.5083 44.0357C57.2733 44.4085 58.9804 44.9532 60.5874 45.7857C61.1471 46.0756 61.7288 46.3224 62.2995 46.5913C62.9196 46.8932 63.4978 47.2745 64.0195 47.7256C64.4322 48.0734 64.4262 48.3503 63.9985 48.7171C64.0598 48.7771 64.1361 48.8195 64.2194 48.84C65.6612 49.467 67.0981 50.1056 68.5299 50.7559C69.0501 50.9822 69.5514 51.2495 70.029 51.5554C70.2998 51.7272 70.5414 51.9411 70.7446 52.1891C70.831 52.2939 70.9011 52.4111 70.9525 52.5369C71.1194 52.9696 70.9105 53.3724 70.4628 53.4823C70.2512 53.5248 70.036 53.5469 69.8202 53.5483C69.7022 53.5418 69.5839 53.5509 69.4684 53.5753C69.4684 53.6752 69.5413 53.7212 69.5803 53.7882C69.7522 54.088 69.6583 54.3778 69.3364 54.5128C69.2089 54.5631 69.0737 54.5911 68.9367 54.5957C68.6598 54.6107 68.383 54.6287 68.1081 54.6447C68.0961 54.7256 68.1411 54.7786 68.1591 54.8386C68.2531 55.1534 68.1671 55.3813 67.8823 55.5532C67.6599 55.6806 67.4182 55.7708 67.1667 55.82C65.6476 56.1608 64.1464 56.5726 62.6593 57.0353C62.6063 57.0513 62.5593 57.0713 62.5053 57.0883C62.5053 57.1103 62.4963 57.1283 62.5053 57.1373C62.7242 57.4811 62.6543 57.8089 62.4444 58.1237C62.0844 58.6927 61.638 59.2022 61.1211 59.6338C60.7305 59.9517 60.3199 60.2441 59.8918 60.5093C59.8099 60.5593 59.7309 60.6093 59.635 60.6742C59.7384 60.813 59.8131 60.971 59.8547 61.139C59.8962 61.3071 59.9037 61.4817 59.8768 61.6527C59.8612 61.8034 59.8276 61.9517 59.7769 62.0944C59.6152 62.563 59.3949 63.0093 59.1213 63.4227C58.8125 63.8704 58.5116 64.3222 58.2128 64.7769C57.762 65.4419 57.2112 66.0332 56.5797 66.5299C55.7922 67.1705 55.0096 67.8162 54.1531 68.3658C53.8491 68.5732 53.5574 68.7981 53.2796 69.0395C52.8603 69.3846 52.4069 69.686 51.9264 69.9389C51.6146 70.1008 51.3037 70.2668 50.9989 70.4387C50.4089 70.7749 49.7933 71.0643 49.158 71.3042C48.6283 71.5041 48.1266 71.7779 47.5789 71.9298C46.7019 72.1752 45.806 72.3471 44.9004 72.4435C44.3117 72.5055 43.7211 72.5275 43.1294 72.5325C42.8406 72.5325 42.5547 72.4975 42.2679 72.4805C41.4454 72.4325 40.6218 72.4435 39.7983 72.4395C39.3824 72.449 38.9663 72.435 38.552 72.3975C38.3671 72.3756 38.1862 72.4275 38.0033 72.4285C36.5966 72.4472 35.1898 72.3928 33.7888 72.2656C32.9003 72.1747 32.0477 71.9398 31.1902 71.7369C30.0563 71.4635 28.9497 71.0871 27.8841 70.6126C26.6528 70.0729 25.4855 69.4072 24.4621 68.5138C24.1984 68.2814 23.9228 68.0629 23.6366 67.8591C23.017 67.4173 22.4669 66.8854 22.0045 66.281C21.6977 65.8913 21.3728 65.5175 21.039 65.1507C20.6444 64.719 20.3016 64.2427 20.0176 63.7315C19.8397 63.4107 19.6898 63.0649 19.4639 62.78C19.1131 62.3383 18.9642 61.8136 18.7563 61.3099C18.3186 60.2445 18.2356 59.1281 18.2976 57.9958C18.3236 57.2035 18.4653 56.4193 18.7184 55.6681C19.1451 54.4808 19.5989 53.3034 20.1176 52.1501C20.3419 51.6451 20.6359 51.1742 20.9911 50.7509C21.6037 50.0233 22.1964 49.2787 22.848 48.5851C23.1685 48.2387 23.5154 47.9176 23.8854 47.6247C24.3511 47.2599 24.8189 46.8981 25.2846 46.5303C25.6493 46.2477 26.036 45.9947 26.441 45.7738C27.2405 45.328 28.04 44.8743 28.8456 44.4275C29.1257 44.2729 29.3847 44.0827 29.6161 43.8618C29.7541 43.7299 29.904 43.611 30.0679 43.4691ZM41.7322 48.4522C41.963 48.3246 42.2057 48.2198 42.4568 48.1394C42.8334 48.0197 43.2393 48.0302 43.6091 48.1694C44.0269 48.3263 44.2088 48.6691 44.1159 49.1078C44.1049 49.1578 44.0559 49.2078 44.1159 49.2698C44.3587 49.2128 44.6066 49.1528 44.8544 49.0959C45.554 48.9329 46.2636 48.802 46.9892 48.839C47.2777 48.8403 47.5633 48.8966 47.8307 49.0049C48.0746 49.1178 48.2665 49.2887 48.3035 49.5666C48.3225 49.7095 48.3964 49.7325 48.5033 49.7435C48.6777 49.7572 48.8475 49.8055 49.0031 49.8854C49.1415 49.9518 49.2526 50.0643 49.3173 50.2036C49.382 50.3429 49.3964 50.5003 49.3579 50.649C49.3479 50.6969 49.2949 50.7439 49.3359 50.7969C49.3932 50.8057 49.4518 50.8006 49.5068 50.7819C49.7252 50.7343 49.9461 50.6989 50.1684 50.6759C50.831 50.64 51.1468 51.0667 50.9939 51.6344C50.8408 52.1816 50.5851 52.6948 50.2404 53.1465C50.1964 53.2055 50.1144 53.2465 50.1314 53.3464C50.3433 53.3464 50.5512 53.3354 50.7581 53.3464C51.1278 53.3694 51.4896 53.4354 51.8015 53.6552C52.0813 53.8551 52.2412 54.115 52.1872 54.4748C52.1784 54.4974 52.1775 54.5223 52.1845 54.5455C52.1916 54.5687 52.2063 54.5889 52.2262 54.6027C52.2822 54.6027 52.3611 54.5977 52.4391 54.6027C52.7579 54.6267 53.0797 54.6187 53.3886 54.7156C53.9133 54.8805 54.0642 55.2703 53.7883 55.7401C53.6526 55.9475 53.5031 56.1455 53.3406 56.3327C53.2886 56.3987 53.2117 56.4516 53.2017 56.5466C53.2664 56.5593 53.3333 56.5544 53.3956 56.5326C53.9113 56.4247 54.427 56.3157 54.9497 56.2418C55.3696 56.1685 55.8018 56.217 56.195 56.3817C56.5887 56.5576 56.9145 56.9654 56.6187 57.548C56.5049 57.7591 56.3777 57.9627 56.2379 58.1577C56.192 58.2266 56.124 58.2886 56.122 58.3736C56.1412 58.3916 56.1642 58.4051 56.1892 58.4132C56.2143 58.4214 56.2408 58.4238 56.2669 58.4205C56.5058 58.4405 56.7456 58.4565 56.9845 58.4755C57.2001 58.4848 57.4136 58.521 57.6201 58.5834C58.0109 58.7174 58.1598 59.0372 58.0069 59.42C57.9472 59.5601 57.8805 59.6972 57.807 59.8307C57.5922 60.2415 57.3733 60.6493 57.1594 61.06C57.1078 61.1332 57.0796 61.2203 57.0784 61.3099C57.2006 61.293 57.3241 61.2883 57.4472 61.2959C57.813 61.3678 57.9709 61.7026 57.78 62.0215C57.7231 62.1214 57.6491 62.2034 57.5902 62.2983C57.5312 62.3932 57.4412 62.4562 57.4222 62.5682C57.4348 62.5739 57.4479 62.5786 57.4612 62.5821C57.861 62.5821 58.2258 62.4232 58.6116 62.3663C58.6665 62.3583 58.6865 62.3133 58.7115 62.2663C58.7979 62.0863 58.8711 61.9003 58.9304 61.7096C58.9964 61.4808 58.9924 61.2679 58.7915 61.098C58.7569 61.0647 58.7264 61.0275 58.7005 60.9871C58.4796 60.6822 58.5176 60.3824 58.8075 60.1415C58.995 59.992 59.1931 59.856 59.4001 59.7348C59.8421 59.4617 60.2633 59.1564 60.6604 58.8213C61.0382 58.5055 61.33 58.1147 61.6179 57.7219C61.6318 57.7088 61.6426 57.6928 61.6497 57.675C61.6567 57.6572 61.6597 57.638 61.6584 57.6189C61.6572 57.5998 61.6517 57.5812 61.6425 57.5645C61.6332 57.5477 61.6204 57.5332 61.6049 57.522C61.5192 57.4382 61.4378 57.3502 61.361 57.2582C61.3055 57.2 61.2657 57.1287 61.2452 57.0509C61.2248 56.9731 61.2244 56.8914 61.2441 56.8134C61.2678 56.7119 61.3193 56.6189 61.3927 56.5448C61.4661 56.4708 61.5585 56.4184 61.6598 56.3937C63.3059 55.878 64.9579 55.4032 66.643 55.0085C66.7929 54.9735 66.9548 54.9685 67.1047 54.8825C67.0547 54.8066 67.0048 54.7436 66.9688 54.6757C66.9228 54.6004 66.894 54.5159 66.8845 54.4282C66.8749 54.3406 66.8848 54.2519 66.9134 54.1684C66.942 54.085 66.9887 54.0089 67.0501 53.9456C67.1115 53.8823 67.1861 53.8333 67.2686 53.8022C67.3452 53.7795 67.4246 53.768 67.5045 53.7682L68.2481 53.7142C68.1701 53.6043 68.1051 53.5243 68.0532 53.4354C67.9849 53.3255 67.9604 53.194 67.9847 53.067C68.0089 52.9399 68.0801 52.8267 68.1841 52.7498C68.2952 52.6695 68.4312 52.6313 68.5679 52.6418C68.8677 52.6418 69.1595 52.6528 69.4554 52.6558C69.6042 52.6647 69.7536 52.6526 69.8991 52.6198C69.7816 52.4972 69.6489 52.3901 69.5043 52.301C69.0938 52.0383 68.6634 51.8081 68.2171 51.6124C66.7779 50.9578 65.3357 50.3132 63.8836 49.6875C63.6937 49.6056 63.5108 49.5046 63.3289 49.4057C63.1951 49.3327 63.0726 49.2408 62.9651 49.1328C62.6872 48.853 62.7102 48.3843 63.0121 48.2144C63.0273 48.2062 63.0406 48.1949 63.0509 48.181C63.0613 48.1672 63.0685 48.1513 63.072 48.1344C62.7146 47.841 62.3213 47.5942 61.9017 47.3998C61.1191 47.036 60.3476 46.6512 59.568 46.2845C58.5235 45.8112 57.4401 45.4289 56.3299 45.1421C55.1462 44.8287 53.9253 44.6784 52.701 44.6954C51.4224 44.7084 50.149 44.8598 48.9031 45.1471C47.6042 45.4255 46.3392 45.8437 45.1303 46.3944C44.3647 46.7532 43.5902 47.099 42.8906 47.5847C42.4908 47.8616 42.082 48.1284 41.6772 48.4002C41.5123 48.4738 41.3651 48.5818 41.2455 48.7171C41.4207 48.6551 41.585 48.5657 41.7322 48.4522ZM43.1724 48.9839C43.0127 48.9613 42.85 48.9722 42.6947 49.0159C42.4756 49.0915 42.2638 49.1868 42.062 49.3007L40.4889 50.2182C40.362 50.2932 40.2291 50.3551 40.0802 50.2992C39.9852 50.2632 39.9282 50.3192 39.8633 50.3621C39.5635 50.562 39.2706 50.7679 38.9538 50.9408C38.9123 50.9641 38.874 50.9927 38.8399 51.0257C38.6056 51.2436 38.3937 51.4843 38.2072 51.7443C37.5796 52.6438 37.0079 53.5743 36.4322 54.5058C35.9655 55.2673 35.5777 56.0779 35.167 56.8724C34.8991 57.3901 34.6573 57.9218 34.3944 58.4415C34.2025 58.8193 33.9886 59.1851 33.7947 59.5619C33.4855 60.2029 33.1039 60.8065 32.6574 61.3608C32.3576 61.7206 32.0677 62.0974 31.7119 62.4102C31.5078 62.5894 31.3155 62.7817 31.1363 62.9859C30.9027 63.249 30.641 63.4856 30.3557 63.6915C29.793 64.1003 29.1564 64.3471 28.5078 64.591C28.0222 64.7799 27.4999 64.8554 26.9806 64.8119C26.434 64.7619 25.9113 64.637 25.4545 64.3122C24.8843 63.8994 24.3752 63.4081 23.9424 62.853C23.6814 62.5472 23.4977 62.1832 23.4067 61.7916C23.3054 61.2151 23.3501 60.6224 23.5366 60.0676C23.5537 60.0141 23.5783 59.9633 23.6096 59.9167C23.6656 59.8389 23.7435 59.7794 23.8334 59.746C23.9232 59.7125 24.021 59.7065 24.1143 59.7288C24.2023 59.7553 24.2792 59.81 24.3334 59.8843C24.3875 59.9586 24.4159 60.0486 24.4141 60.1405C24.4249 60.2449 24.3975 60.3496 24.3372 60.4354C24.3009 60.4781 24.2753 60.5288 24.2622 60.5833C24.1393 61.2589 24.2762 61.8626 24.7299 62.3943C25.0475 62.7642 25.3952 63.1071 25.7693 63.4197C26.337 63.8964 27.0076 63.9903 27.7092 63.8724C28.135 63.8004 28.5318 63.6176 28.9315 63.4546C29.4973 63.2278 30.0049 62.8767 30.4167 62.4272C30.5886 62.2373 30.7655 62.0534 30.9454 61.8716C30.9884 61.8286 31.0523 61.7986 31.0533 61.7206C30.8814 61.5677 30.6635 61.5088 30.4537 61.4288C29.7958 61.1701 29.08 61.0951 28.3828 61.2119C28.2201 61.2559 28.0517 61.2755 27.8831 61.2699C27.796 61.2594 27.7132 61.2262 27.6431 61.1735C27.5729 61.1209 27.5178 61.0507 27.4834 60.9701C27.4549 60.8775 27.4561 60.7784 27.487 60.6866C27.5178 60.5947 27.5767 60.5149 27.6553 60.4584C27.7063 60.4198 27.7638 60.3907 27.8252 60.3724C28.0306 60.3058 28.2245 60.2076 28.3998 60.0816C28.5817 59.9666 28.7606 59.8447 28.9415 59.7278C29.2589 59.5122 29.5448 59.2535 29.791 58.9592C30.2098 58.4865 30.6036 57.9928 31.0453 57.541C32.0085 56.557 32.8051 55.4228 33.404 54.1829C33.704 53.5996 33.9005 52.9686 33.9846 52.318C34.054 51.8219 33.9559 51.3169 33.7058 50.8828C33.314 50.2402 32.6864 49.9644 31.9588 49.9054C31.4591 49.8654 30.9724 49.9564 30.4856 50.0463C29.7762 50.1625 29.0829 50.3614 28.4198 50.639C28.191 50.7389 27.9521 50.8459 27.8152 51.0867C27.7927 51.1337 27.761 51.1758 27.7221 51.2105C27.6832 51.2452 27.6377 51.2717 27.5884 51.2887C27.5391 51.3056 27.487 51.3125 27.4349 51.3091C27.3829 51.3056 27.3321 51.2919 27.2855 51.2686C27.1943 51.2175 27.1231 51.1371 27.0833 51.0404C27.0436 50.9437 27.0377 50.8364 27.0666 50.7359C27.1089 50.6148 27.1794 50.5055 27.2725 50.4171C27.7402 49.9394 28.3289 49.6735 28.9505 49.4816C29.6672 49.2608 30.4035 49.1095 31.1493 49.0299C31.7029 48.9699 32.2486 48.9689 32.7843 49.1348C33.3346 49.2897 33.8291 49.5987 34.2095 50.0253C34.8032 50.7139 34.9691 51.5455 34.8881 52.424C34.8168 53.0958 34.6302 53.7504 34.3364 54.3588C33.6973 55.7393 32.8311 57.0028 31.7739 58.0967C31.5181 58.3616 31.2742 58.6384 31.0363 58.9162C30.7005 59.301 30.3767 59.6978 30.0079 60.0526C29.9151 60.1187 29.8326 60.1982 29.7631 60.2885C30.0904 60.3475 30.4123 60.4335 30.7255 60.5453C31.0476 60.6417 31.3515 60.7906 31.625 60.9861C31.6999 61.044 31.7549 61.021 31.8089 60.9561C31.9785 60.7649 32.1376 60.5648 32.2856 60.3564C32.8483 59.4999 33.298 58.5794 33.7598 57.669C34.1366 56.9284 34.4914 56.1768 34.8841 55.4442C35.108 55.0295 35.2989 54.5947 35.5507 54.1979C36.1574 53.2395 36.7501 52.275 37.3847 51.3316C37.6218 50.9807 37.8955 50.6561 38.2012 50.3631C38.541 50.0353 38.8878 49.7155 39.2007 49.3637C39.5135 49.0119 39.9003 48.6851 40.2461 48.3433C40.346 48.2433 40.4839 48.1834 40.5709 48.0335C40.388 47.9765 40.2201 47.9065 40.0442 47.8706C39.2145 47.7036 38.3981 47.4761 37.6016 47.1899C37.3087 47.085 37.0179 46.9701 36.7191 46.8841C36.1892 46.7329 35.6706 46.5449 35.167 46.3214C34.7222 46.1215 34.2985 45.8787 33.8337 45.7218C33.5453 45.6269 33.2643 45.5107 32.9932 45.374C32.2446 44.9962 31.4831 44.6414 30.8125 44.1267C30.7797 44.0975 30.7374 44.0814 30.6935 44.0814C30.6497 44.0814 30.6073 44.0975 30.5746 44.1267C30.419 44.2394 30.2768 44.3695 30.1508 44.5145C29.889 44.7973 29.5857 45.0385 29.2513 45.2301C28.5917 45.6058 27.9331 45.9816 27.2665 46.3454C26.6938 46.6451 26.1498 46.9967 25.6414 47.3958C25.2326 47.7276 24.8159 48.0504 24.4011 48.3753C24.0662 48.6468 23.7515 48.9424 23.4597 49.2598C22.9599 49.7825 22.5222 50.3501 22.0495 50.8908C21.5767 51.4315 21.174 51.9692 20.8931 52.6148C20.6503 53.1715 20.4244 53.7352 20.2015 54.2999C20.0016 54.8196 19.7948 55.3413 19.6069 55.867C19.4092 56.4409 19.2836 57.0371 19.2331 57.642C19.1616 58.2372 19.1616 58.8388 19.2331 59.4339C19.272 59.7168 19.2701 60.0096 19.433 60.2645C19.4659 60.3109 19.4804 60.3678 19.4739 60.4244C19.439 60.6103 19.5199 60.7682 19.5809 60.9331C19.7688 61.4428 19.9537 61.9535 20.2415 62.4182C20.4524 62.758 20.6772 63.0879 20.8851 63.4287C21.124 63.8257 21.4001 64.1992 21.7097 64.544C22.0525 64.9228 22.3873 65.3086 22.7031 65.7114C23.1043 66.2516 23.5895 66.7239 24.1403 67.1106C24.3002 67.2165 24.4451 67.3424 24.596 67.4614C25.0597 67.8271 25.4955 68.2239 25.9952 68.5547C27.5363 69.5911 29.2404 70.2678 31.0193 70.7535C31.9558 71.0093 32.8963 71.2592 33.8707 71.3601C34.7532 71.4521 35.6377 71.5021 36.5222 71.516C38.2212 71.542 39.9272 71.532 41.6303 71.538C41.7182 71.538 41.8062 71.538 41.8941 71.548C42.2519 71.572 42.6097 71.613 42.9675 71.62C44.0521 71.6417 45.1357 71.5435 46.1987 71.3271C46.8563 71.1942 47.5099 71.0463 48.1196 70.7535C48.2275 70.7025 48.3394 70.6535 48.4504 70.6126C49.0713 70.3804 49.6777 70.111 50.2663 69.806C50.6871 69.5762 51.1099 69.3513 51.5316 69.1214C51.9405 68.9031 52.3263 68.6439 52.683 68.3479C52.8599 68.1989 53.0458 68.061 53.2267 67.9161C53.6014 67.6163 54.0142 67.3704 54.404 67.0916C54.9117 66.7288 55.3744 66.309 55.8711 65.9342C56.7706 65.2556 57.4233 64.3781 58.0059 63.4357C58.0119 63.4257 58.0059 63.4077 58.0059 63.3827C57.7168 63.4356 57.4248 63.4717 57.1314 63.4906C56.9244 63.5121 56.7153 63.4847 56.5208 63.4107C56.4582 63.3894 56.4005 63.356 56.351 63.3123C56.3014 63.2686 56.2611 63.2156 56.2321 63.1562C56.2032 63.0968 56.1864 63.0323 56.1826 62.9663C56.1788 62.9004 56.1881 62.8344 56.2099 62.772C56.2525 62.6249 56.3261 62.4886 56.4258 62.3723C56.4968 62.2883 56.5198 62.2194 56.4088 62.1374C56.1979 61.9835 56.136 61.7566 56.127 61.5058C56.1293 61.2255 56.2026 60.9505 56.3399 60.7062C56.5238 60.3344 56.7256 59.9706 56.9165 59.6018C56.9465 59.5429 57.0085 59.4859 56.9605 59.395C56.7606 59.377 56.5537 59.355 56.3479 59.343C56.1484 59.3329 55.9503 59.3042 55.7562 59.257C55.2115 59.1211 55.0026 58.7333 55.1855 58.2066C55.2795 57.9368 55.4634 57.7229 55.6103 57.4861C55.6663 57.3951 55.7572 57.3192 55.7622 57.1972C55.5405 57.1146 55.2996 57.0979 55.0686 57.1493C54.6898 57.2042 54.316 57.2862 53.9392 57.3561C53.4535 57.4451 52.9748 57.573 52.4831 57.635C52.1343 57.6789 51.8604 57.4671 51.8384 57.1223C51.8282 56.9696 51.8679 56.8177 51.9514 56.6895C52.1175 56.4353 52.297 56.1901 52.4891 55.9549C52.6038 55.8353 52.7044 55.7028 52.7889 55.5602C52.6197 55.5242 52.4471 55.5068 52.2742 55.5082C52.0503 55.5082 51.8265 55.5082 51.6026 55.5022C51.4811 55.5065 51.3618 55.4692 51.2644 55.3966C51.167 55.3239 51.0973 55.2201 51.0669 55.1024C51.0089 54.9175 51.0739 54.7586 51.1578 54.6027C51.2798 54.3718 51.2678 54.3558 51.0059 54.3029C50.707 54.2475 50.401 54.2424 50.1004 54.2879C49.8636 54.3169 49.6247 54.3409 49.3858 54.3528C49.2728 54.3627 49.1594 54.3396 49.0592 54.2864C48.959 54.2332 48.8763 54.1522 48.8212 54.053C48.6892 53.8291 48.7382 53.6033 48.8771 53.3984C48.9603 53.2812 49.0504 53.169 49.147 53.0626C49.4778 52.6808 49.7896 52.287 49.9885 51.8173C50.0115 51.7613 50.0675 51.7004 50.0115 51.6424C49.9555 51.5844 49.9065 51.6274 49.8526 51.6424C49.5238 51.7084 49.197 51.7813 48.8661 51.8373C48.6089 51.8938 48.3459 51.9197 48.0826 51.9142C47.9979 51.9141 47.9149 51.891 47.8422 51.8476C47.7696 51.8041 47.71 51.7418 47.6699 51.6672C47.6297 51.5927 47.6105 51.5086 47.6142 51.424C47.6178 51.3395 47.6443 51.2574 47.6908 51.1867C47.7417 51.105 47.8047 51.0315 47.8777 50.9688C47.9936 50.8628 48.1116 50.7589 48.2585 50.627C48.1246 50.611 48.0236 50.602 47.9257 50.58C47.4929 50.4871 47.37 50.3571 47.35 49.9254C47.35 49.8334 47.312 49.7955 47.2301 49.7825C47.1821 49.7755 47.1361 49.7605 47.0892 49.7575C46.6819 49.7327 46.2732 49.7542 45.8709 49.8214C45.2822 49.9214 44.7015 50.0703 44.1199 50.2102C43.896 50.2632 43.6751 50.3391 43.4382 50.3311C43.3092 50.3343 43.1831 50.2925 43.0814 50.2131C42.9797 50.1336 42.9087 50.0213 42.8806 49.8954C42.8296 49.7195 42.8906 49.5656 42.9615 49.4127C43.0255 49.2718 43.0964 49.1398 43.1764 48.9839H43.1724ZM29.851 40.4518C29.8798 40.5374 29.9223 40.6177 29.9769 40.6897C30.1638 41.0045 30.1258 41.2403 29.826 41.4552C29.8051 41.4658 29.7867 41.4807 29.772 41.499C29.7573 41.5172 29.7466 41.5384 29.7408 41.5611C29.7349 41.5838 29.734 41.6075 29.738 41.6306C29.742 41.6537 29.7509 41.6757 29.7641 41.6951C29.8543 41.8994 29.9814 42.0854 30.1388 42.2438C30.3127 42.4207 30.4896 42.5946 30.6565 42.7775C31.0546 43.2057 31.5189 43.5671 32.0318 43.8478C32.4565 44.0847 32.8803 44.3326 33.326 44.5255C34.2125 44.9072 35.092 45.306 35.9865 45.6678C36.7171 45.9676 37.4796 46.1825 38.2282 46.4364C38.636 46.5753 39.0398 46.7362 39.4655 46.8072C40.0822 46.9131 40.6708 47.115 41.2705 47.2809C41.3098 47.2869 41.3474 47.3016 41.3804 47.3239C41.4974 47.4378 41.5913 47.3708 41.6952 47.3009C42.168 46.9881 42.6247 46.6502 43.1244 46.3784C44.8245 45.4382 46.6468 44.7386 48.5393 44.2996C50.1854 43.9298 51.8444 43.7309 53.5365 43.7999C53.554 43.803 53.572 43.8014 53.5887 43.7953C53.6054 43.7891 53.6201 43.7787 53.6314 43.7649C53.5645 43.4651 53.7044 43.2712 53.9832 43.1522C54.0702 43.1118 54.1521 43.0611 54.2271 43.0013C54.8528 42.5146 55.3999 41.9344 55.8492 41.2813C55.8743 41.2513 55.892 41.2157 55.9007 41.1774C55.9094 41.1392 55.9089 41.0994 55.8991 41.0614C55.8791 40.9713 55.8792 40.8779 55.8992 40.7877C55.9192 40.6976 55.9588 40.6129 56.0151 40.5397C56.1123 40.4016 56.2416 40.2891 56.3918 40.2119C56.5807 40.112 56.7746 40.012 56.9655 39.9121C57.1934 39.7956 57.4085 39.6556 57.6071 39.4943C57.6277 39.4829 57.6456 39.4674 57.6599 39.4488C57.6741 39.4301 57.6843 39.4087 57.6899 39.3858C57.6954 39.363 57.6962 39.3393 57.6921 39.3162C57.688 39.293 57.6791 39.271 57.6661 39.2515C57.4732 38.8517 57.5662 38.5729 57.928 38.328C58.0612 38.2394 58.1971 38.1558 58.3357 38.0771C58.4357 38.0222 58.4437 37.9772 58.3887 37.8703C58.1988 37.5175 58.2768 37.1986 58.6046 36.9708C58.7545 36.8708 58.9214 36.7859 59.0783 36.6909C59.2774 36.5867 59.4664 36.4642 59.643 36.3251C59.4727 36.1618 59.2802 36.0232 59.0713 35.9134C58.9143 35.8353 58.7698 35.7343 58.6426 35.6136C58.5359 35.5083 58.4726 35.3669 58.465 35.2172C58.4574 35.0676 58.5062 34.9205 58.6016 34.805C58.6386 34.755 58.7015 34.7261 58.7105 34.6551C58.2038 34.2703 58.1518 34.1144 58.3667 33.6107C57.944 33.3558 57.5842 33.062 57.796 32.4863C57.7638 32.4609 57.7267 32.4424 57.6869 32.4319C57.6472 32.4214 57.6058 32.4192 57.5652 32.4254C57.0198 32.4169 56.4749 32.4584 55.9371 32.5493C54.811 32.7424 53.71 33.0612 52.655 33.4998C51.6675 33.9165 50.7021 34.3633 49.8326 35.0089C48.7899 35.7903 47.7963 36.6351 46.8573 37.5385C46.4661 37.9049 46.1091 38.3064 45.7909 38.7378C44.6446 40.3239 43.892 42.0949 43.3283 43.9558C43.297 44.0367 43.2864 44.1241 43.2974 44.2101C43.3084 44.2962 43.3406 44.3781 43.3913 44.4485C43.6541 44.8133 43.6091 45.2141 43.4692 45.5959C43.1894 46.3604 42.3928 46.5273 41.7172 46.2015C41.3474 46.0236 41.2025 45.7278 41.2395 45.318C41.2599 44.9732 41.3746 44.6406 41.5713 44.3566C41.5958 44.3259 41.6127 44.29 41.6206 44.2516C41.6286 44.2132 41.6275 44.1735 41.6173 44.1357C41.5623 43.8868 41.4734 43.645 41.4384 43.3911C41.3455 42.6775 41.1622 41.9786 40.8927 41.3113C40.6049 40.6117 40.293 39.9121 39.9932 39.2225C39.6429 38.4324 39.1708 37.7023 38.594 37.0587C38.3272 36.7589 38.0373 36.4841 37.7685 36.1892C36.9569 35.2997 35.9975 34.6031 34.9591 34.0065C34.3364 33.6477 33.6868 33.3389 33.0512 33.007C32.4934 32.6957 31.8964 32.4604 31.2762 32.3074C30.4287 32.1175 29.5772 31.9986 28.7097 32.0586C28.4211 32.0648 28.1352 32.114 27.8611 32.2045L28.183 32.5503C28.4679 32.8306 28.7321 33.1312 28.9735 33.4498C29.1914 33.7626 29.1344 34.0634 28.8156 34.2703C28.7807 34.2867 28.7535 34.3158 28.7395 34.3518C28.7255 34.3877 28.726 34.4276 28.7406 34.4632C28.7616 34.5331 28.765 34.607 28.7506 34.6785C28.7361 34.75 28.7042 34.8168 28.6577 34.873C28.4668 35.0729 28.4968 35.2428 28.6837 35.4157C28.7001 35.4335 28.7142 35.4533 28.7256 35.4746C28.8836 35.7205 28.9185 35.9933 28.7256 36.2122C28.5018 36.4701 28.5487 36.6739 28.7386 36.8998C28.7596 36.9238 28.7726 36.9548 28.7916 36.9798C29.0165 37.2796 29.0495 37.5794 28.8286 37.9082C28.6667 38.1481 28.6927 38.2331 28.9095 38.418C29.2126 38.6661 29.5025 38.93 29.778 39.2085C29.911 39.3474 30.0459 39.4843 30.1688 39.6313C30.4207 39.9311 30.3417 40.2499 29.9839 40.4018L29.851 40.4518ZM30.6505 19.7716H30.6166C30.5776 20.0944 30.5516 20.4192 30.4986 20.7401C30.3746 21.5851 30.3019 22.4368 30.2808 23.2906C30.2548 23.8733 30.2678 24.4569 30.2808 25.0406C30.2808 25.2715 30.3237 25.5013 30.3467 25.7312C30.4129 26.286 30.5334 26.833 30.7065 27.3643C30.9704 28.2298 31.2622 29.0823 31.7439 29.8558C31.9208 30.1407 32.0867 30.4335 32.2756 30.7104C32.3617 30.8311 32.4227 30.9679 32.455 31.1126C32.4872 31.2573 32.4901 31.407 32.4635 31.5529C32.4555 31.5746 32.4523 31.5978 32.4539 31.6209C32.4555 31.644 32.462 31.6665 32.473 31.6868C32.484 31.7072 32.4991 31.7251 32.5174 31.7392C32.5358 31.7533 32.5569 31.7634 32.5794 31.7688C33.0032 31.9566 33.414 32.1685 33.8247 32.3844C34.6243 32.8012 35.4438 33.1839 36.1904 33.6986C36.7501 34.0824 37.3177 34.4592 37.7995 34.9429C38.3242 35.4696 38.8629 35.9833 39.3476 36.542C39.7966 37.0521 40.185 37.6125 40.5049 38.2121C40.8597 38.8937 41.1466 39.6053 41.4584 40.3059C41.8901 41.2733 42.2389 42.2618 42.3239 43.3291C42.3389 43.5156 42.3789 43.6991 42.4428 43.8748C42.5128 43.8568 42.5018 43.8109 42.5098 43.7749C42.644 43.2079 42.8081 42.6485 43.0015 42.0988C43.3253 41.1404 43.801 40.2499 44.3008 39.3764C44.8354 38.4449 45.4641 37.5774 46.2676 36.8518C46.4675 36.6699 46.6674 36.4841 46.8673 36.2982C47.4813 35.7149 48.1284 35.1673 48.8052 34.6581C49.3389 34.2643 49.8546 33.8456 50.4422 33.5307C51.3546 33.0515 52.3002 32.6384 53.2716 32.2945C53.8504 32.0871 54.4441 31.9241 55.0476 31.8067C55.1675 31.7827 55.2315 31.7358 55.2225 31.6008C55.2223 31.3766 55.2651 31.1544 55.3484 30.9462C55.4993 30.4975 55.7322 30.0857 55.9481 29.669C56.2479 29.1033 56.5697 28.5506 56.7526 27.9319C56.994 27.0893 57.1846 26.2329 57.3233 25.3674C57.4208 24.8092 57.4835 24.2454 57.5112 23.6794C57.5342 23.1367 57.5192 22.593 57.5182 22.0493C57.5288 21.9723 57.5209 21.8938 57.4952 21.8204C57.4722 21.8665 57.4639 21.9184 57.4712 21.9694C57.4455 22.7276 57.3471 23.4816 57.1774 24.2211C57.0385 24.8347 56.9325 25.4574 56.7386 26.059C56.4858 26.8436 56.149 27.5951 55.8282 28.3517C55.5923 28.9053 55.2604 29.4129 54.8477 29.8508C54.7979 29.9078 54.7337 29.9504 54.6618 29.974C54.5899 29.9976 54.5129 30.0015 54.439 29.9851C54.3651 29.9687 54.297 29.9328 54.2418 29.881C54.1865 29.8293 54.1462 29.7636 54.1251 29.6909C54.0118 29.3437 53.8634 29.0088 53.6824 28.6915C53.4715 28.3197 53.1767 28.0139 52.9238 27.6751C52.5929 27.2444 52.2068 26.8589 51.7755 26.5287C51.1988 26.073 50.5822 25.6722 49.9865 25.2425C49.5947 24.9617 49.1697 24.7304 48.7212 24.5539C48.4324 24.4369 48.1316 24.354 47.8477 24.2231C47.4102 24.027 46.9533 23.8776 46.4845 23.7773C46.1497 23.7064 45.8079 23.6634 45.4851 23.5464C45.1324 23.4193 44.7606 23.3537 44.3857 23.3526C43.7856 23.335 43.185 23.351 42.5867 23.4005C41.9024 23.4615 41.2298 23.6166 40.5879 23.8613C40.0762 24.0612 39.5804 24.308 39.0707 24.5169C38.6044 24.708 38.17 24.9692 37.7825 25.2915C37.3267 25.6682 36.865 26.037 36.4302 26.4378C36.1594 26.6867 35.8676 26.9145 35.6307 27.1994C35.2909 27.6121 34.9511 28.0259 34.5963 28.4267C34.4554 28.5866 34.2625 28.7155 34.1965 28.9264C34.1742 28.993 34.1359 29.0532 34.0849 29.1015C34.0338 29.1498 33.9717 29.1848 33.9039 29.2034C33.8361 29.2219 33.7648 29.2235 33.6962 29.208C33.6277 29.1924 33.5641 29.1603 33.5109 29.1143C33.4407 29.0624 33.3758 29.0038 33.317 28.9394C32.9614 28.5158 32.6808 28.0344 32.4875 27.5162C32.2276 26.8636 31.9518 26.2169 31.7069 25.5583C31.4214 24.8297 31.212 24.0734 31.0823 23.3016C30.9954 22.7099 30.8994 22.1193 30.8045 21.5296C30.7145 20.9689 30.6316 20.4092 30.6595 19.8386C30.6581 19.816 30.6547 19.7936 30.6495 19.7716H30.6505ZM49.8396 24.0692C50.5272 24.4799 51.1338 24.9486 51.7655 25.3824C52.8708 26.1511 53.8024 27.1433 54.4999 28.2947C54.5579 28.3877 54.6099 28.4826 54.6748 28.5946C54.6936 28.5724 54.711 28.549 54.7268 28.5246C54.7658 28.4556 54.8077 28.3867 54.8407 28.3147C55.4104 27.0814 55.9471 25.8401 56.2029 24.4919C56.3469 23.7303 56.5088 22.9738 56.5607 22.1992C56.6237 21.2648 56.6137 20.3303 56.6067 19.4008C56.6067 19.1879 56.5877 18.9751 56.5777 18.7472C56.3053 18.8008 56.0433 18.8983 55.8022 19.036C55.2435 19.3618 54.6748 19.6687 54.1031 19.9725C53.8346 20.1142 53.5817 20.2837 53.3486 20.4782C52.7669 20.9669 52.1802 21.4476 51.6076 21.9454C50.906 22.546 50.3523 23.2776 49.8366 24.0692H49.8396ZM31.5161 18.8881C31.5075 19.4554 31.5325 20.0228 31.591 20.5871C31.691 21.3147 31.7959 22.0423 31.9108 22.7679C31.9975 23.4006 32.1403 24.0244 32.3376 24.6318C32.6464 25.5233 33.0182 26.3888 33.361 27.2663C33.4526 27.4878 33.5622 27.7014 33.6888 27.905C33.7188 27.9549 33.7348 28.0229 33.8127 28.0409C34.3604 27.3933 34.8122 26.6707 35.4488 26.098C36.0854 25.5253 36.7161 24.9796 37.3947 24.4439C37.0049 23.9672 36.6561 23.4885 36.2493 23.0587C35.9069 22.7006 35.5836 22.3247 35.2809 21.9324C34.9234 21.4497 34.5052 21.015 34.0366 20.6391C33.318 20.0794 32.5924 19.5287 31.8249 19.04C31.7342 18.9676 31.6288 18.9157 31.5161 18.8881Z" fill="#4E3D35"/>
<path d="M42.9893 14.7875C43.4048 14.2381 43.9769 13.8276 44.6304 13.6101C44.832 13.5314 45.0466 13.4914 45.263 13.4922C45.7987 13.5162 46.1995 13.925 46.2435 14.4916C46.2735 14.8596 46.2213 15.2297 46.0906 15.575C45.905 16.051 45.688 16.5141 45.4409 16.9612C44.9152 17.9297 44.3106 18.8541 43.8588 19.8596C43.7019 20.2094 43.4541 20.2643 43.1143 20.0824C42.7145 19.8716 42.4986 19.5078 42.2858 19.144C41.9959 18.6443 41.7431 18.1276 41.4023 17.6628C41.1586 17.3167 40.9411 16.9529 40.7516 16.5744C40.4786 16.0884 40.4004 15.5169 40.5328 14.9754C40.5594 14.8666 40.5951 14.7603 40.6397 14.6575C40.8206 14.2508 41.1244 14.0679 41.5722 14.0879C42.1398 14.1118 42.5236 14.2987 42.9893 14.7875ZM43.2542 18.9561C43.2862 18.9311 43.3032 18.9241 43.3102 18.9111C43.7859 18.0623 44.2619 17.2134 44.7383 16.3646C44.9384 16.0009 45.1102 15.6223 45.252 15.2322C45.3196 15.0442 45.3511 14.8452 45.345 14.6455C45.345 14.4097 45.281 14.3607 45.0502 14.4267C44.5868 14.5539 44.1623 14.7943 43.8149 15.1263C43.6385 15.2793 43.527 15.4937 43.5031 15.7259C43.4995 15.8028 43.4714 15.8766 43.4228 15.9363C43.3742 15.996 43.3078 16.0386 43.2332 16.0577C43.1567 16.0826 43.0744 16.0838 42.9972 16.0611C42.92 16.0385 42.8514 15.9931 42.8005 15.9308C42.6472 15.758 42.5075 15.5735 42.3827 15.3791C42.3015 15.2601 42.1935 15.1618 42.0672 15.0924C41.941 15.0229 41.8001 14.9842 41.6561 14.9794C41.4922 14.9654 41.4612 14.9794 41.4202 15.1443C41.3391 15.4404 41.3675 15.7559 41.5002 16.0327C41.6465 16.3518 41.8187 16.6583 42.0149 16.9492C42.3342 17.3984 42.6246 17.8674 42.8844 18.3534C42.9811 18.5694 43.1054 18.772 43.2542 18.9561Z" fill="#4E3D35"/>
<path d="M43.1765 48.9824C43.0966 49.1393 43.0256 49.2703 42.9626 49.4052C42.8917 49.5581 42.8307 49.712 42.8817 49.8879C42.9099 50.0138 42.9809 50.1261 43.0825 50.2056C43.1842 50.285 43.3103 50.3268 43.4394 50.3236C43.6762 50.3316 43.8971 50.2557 44.121 50.2027C44.7026 50.0628 45.2833 49.9179 45.872 49.8139C46.2744 49.7467 46.6831 49.7252 47.0903 49.75C47.1373 49.75 47.1832 49.768 47.2312 49.775C47.3132 49.788 47.3471 49.8259 47.3511 49.9179C47.3711 50.3496 47.4941 50.4796 47.9268 50.5725C48.0267 50.5945 48.1267 50.6035 48.2596 50.6195C48.1127 50.7514 47.9948 50.8553 47.8788 50.9613C47.8059 51.024 47.7428 51.0975 47.6919 51.1792C47.6455 51.2499 47.619 51.332 47.6153 51.4166C47.6116 51.5011 47.6308 51.5852 47.671 51.6597C47.7111 51.7343 47.7707 51.7966 47.8433 51.8401C47.916 51.8835 47.999 51.9066 48.0837 51.9067C48.347 51.9122 48.61 51.8863 48.8673 51.8298C49.1981 51.7738 49.5249 51.7009 49.8537 51.6349C49.9077 51.6239 49.9706 51.5949 50.0126 51.6349C50.0546 51.6749 50.0126 51.7538 49.9896 51.8098C49.7897 52.2795 49.4789 52.6733 49.1481 53.0551C49.0515 53.1615 48.9614 53.2737 48.8783 53.3909C48.7393 53.5908 48.6904 53.8216 48.8223 54.0455C48.8774 54.1447 48.9601 54.2257 49.0603 54.2789C49.1605 54.3321 49.274 54.3552 49.387 54.3453C49.6258 54.3334 49.8647 54.3094 50.1016 54.2804C50.4021 54.2349 50.7082 54.24 51.007 54.2954C51.2689 54.3513 51.2809 54.3673 51.159 54.5952C51.075 54.7541 51.01 54.913 51.068 55.0949C51.0984 55.2126 51.1681 55.3164 51.2655 55.3891C51.3629 55.4617 51.4822 55.499 51.6037 55.4947C51.8276 55.5037 52.0514 55.5037 52.2753 55.5007C52.4483 55.4992 52.6209 55.5167 52.79 55.5527C52.7056 55.6953 52.605 55.8278 52.4902 55.9474C52.2981 56.1826 52.1186 56.4278 51.9525 56.682C51.869 56.8102 51.8294 56.9621 51.8396 57.1148C51.8616 57.4596 52.1394 57.6714 52.4842 57.6275C52.9759 57.5655 53.4547 57.4376 53.9404 57.3486C54.3172 57.2787 54.6909 57.1967 55.0697 57.1417C55.3007 57.0904 55.5416 57.1071 55.7633 57.1897C55.7633 57.3116 55.6634 57.3896 55.6114 57.4786C55.4645 57.7154 55.2806 57.9293 55.1867 58.1991C55.0038 58.7258 55.2126 59.1136 55.7573 59.2495C55.9514 59.2967 56.1495 59.3254 56.349 59.3355C56.5549 59.3475 56.7608 59.3695 56.9616 59.3875C57.0096 59.4784 56.9477 59.5354 56.9177 59.5943C56.7268 59.9631 56.5249 60.3269 56.341 60.6987C56.2037 60.943 56.1305 61.218 56.1281 61.4982C56.1371 61.7491 56.1991 61.976 56.41 62.1299C56.5209 62.2118 56.4979 62.2808 56.427 62.3648C56.3272 62.4811 56.2536 62.6174 56.2111 62.7645C56.1892 62.8269 56.1799 62.8929 56.1837 62.9588C56.1875 63.0248 56.2044 63.0893 56.2333 63.1487C56.2622 63.2081 56.3026 63.2611 56.3521 63.3048C56.4016 63.3485 56.4594 63.3819 56.5219 63.4032C56.7164 63.4772 56.9256 63.5046 57.1326 63.4831C57.4259 63.4641 57.7179 63.4281 58.0071 63.3752C58.0071 63.4002 58.0071 63.4181 58.0071 63.4281C57.4244 64.3716 56.7698 65.2491 55.8723 65.9267C55.3726 66.3015 54.9128 66.7263 54.4051 67.0841C54.0153 67.3629 53.6056 67.6088 53.2278 67.9086C53.0469 68.0535 52.861 68.1914 52.6841 68.3403C52.3274 68.6364 51.9417 68.8956 51.5327 69.1139C51.111 69.3438 50.6882 69.5686 50.2675 69.7985C49.6789 70.1035 49.0724 70.3728 48.4515 70.605C48.3406 70.65 48.2286 70.695 48.1207 70.746C47.511 71.0388 46.8574 71.1867 46.1998 71.3196C45.1351 71.536 44.0498 71.6339 42.9636 71.6115C42.6058 71.6045 42.248 71.5635 41.8902 71.5395C41.8023 71.5345 41.7143 71.5295 41.6264 71.5295C39.9274 71.5235 38.2203 71.5295 36.5183 71.5075C35.6338 71.4935 34.7493 71.4436 33.8668 71.3516C32.8924 71.2517 31.9519 71.0008 31.0155 70.745C29.2365 70.2572 27.5324 69.5806 25.9913 68.5462C25.4996 68.2154 25.0599 67.8186 24.5921 67.4528C24.4412 67.3339 24.2923 67.208 24.1364 67.102C23.5856 66.7154 23.1004 66.243 22.6992 65.7028C22.3834 65.3031 22.0486 64.9143 21.7058 64.5355C21.3977 64.1937 21.1227 63.8236 20.8842 63.4301C20.6764 63.0893 20.4515 62.7595 20.2406 62.4197C19.9528 61.955 19.7679 61.4443 19.58 60.9346C19.519 60.7697 19.4381 60.6118 19.473 60.4259C19.4796 60.3693 19.465 60.3124 19.4321 60.266C19.2732 60.0111 19.2752 59.7183 19.2322 59.4354C19.1607 58.8402 19.1607 58.2386 19.2322 57.6435C19.2827 57.0386 19.4083 56.4424 19.606 55.8685C19.7939 55.3428 19.9957 54.8211 20.2006 54.3014C20.4235 53.7367 20.6494 53.173 20.8922 52.6163C21.1731 51.9707 21.5918 51.417 22.0486 50.8923C22.5053 50.3676 22.9631 49.784 23.4588 49.2613C23.7506 48.9439 24.0653 48.6483 24.4002 48.3768C24.815 48.0519 25.2318 47.7291 25.6405 47.3973C26.1507 46.999 26.6963 46.6484 27.2706 46.3499C27.9372 45.9861 28.5958 45.6103 29.2555 45.2346C29.5899 45.043 29.8932 44.8018 30.1549 44.519C30.281 44.374 30.4231 44.2439 30.5787 44.1312C30.6115 44.102 30.6538 44.0859 30.6976 44.0859C30.7415 44.0859 30.7838 44.102 30.8166 44.1312C31.4872 44.6459 32.2488 45.0007 32.9973 45.3785C33.2684 45.5152 33.5494 45.6314 33.8378 45.7263C34.3026 45.8792 34.7263 46.1261 35.1711 46.3259C35.6747 46.5494 36.1934 46.7374 36.7232 46.8886C37.023 46.9746 37.3129 47.0885 37.6057 47.1944C38.4022 47.4806 39.2186 47.7081 40.0483 47.875C40.2242 47.911 40.3921 47.981 40.575 48.038C40.4881 48.1879 40.3501 48.2488 40.2502 48.3478C39.9034 48.6896 39.5306 49.0034 39.2048 49.3682C38.879 49.733 38.5432 50.0388 38.2054 50.3676C37.8996 50.6606 37.6259 50.9852 37.3888 51.3361C36.7582 52.2795 36.1615 53.244 35.5549 54.2024C35.303 54.6022 35.1121 55.034 34.8882 55.4487C34.4955 56.1813 34.1407 56.9329 33.7639 57.6734C33.3021 58.5839 32.8524 59.5044 32.2897 60.3609C32.1417 60.5692 31.9826 60.7694 31.813 60.9606C31.759 61.0255 31.7041 61.0485 31.6291 60.9905C31.3556 60.7951 31.0517 60.6461 30.7296 60.5498C30.4164 60.4379 30.0945 60.352 29.7672 60.2929C29.8367 60.2027 29.9192 60.1232 30.012 60.0571C30.3808 59.7023 30.7046 59.3055 31.0404 58.9207C31.2823 58.6429 31.5222 58.366 31.778 58.1012C32.8343 57.0052 33.6992 55.7396 34.3366 54.3573C34.636 53.7463 34.8271 53.0879 34.9012 52.4115C34.9822 51.532 34.8163 50.7004 34.2226 50.0128C33.8422 49.5862 33.3477 49.2772 32.7974 49.1223C32.2607 48.9564 31.7161 48.9574 31.1624 49.0174C30.4167 49.097 29.6803 49.2483 28.9636 49.4691C28.342 49.661 27.7533 49.9269 27.2856 50.4046C27.1925 50.493 27.122 50.6023 27.0797 50.7234C27.0508 50.8239 27.0567 50.9312 27.0964 51.0279C27.1362 51.1246 27.2074 51.205 27.2986 51.2561C27.3452 51.2794 27.396 51.2932 27.448 51.2966C27.5001 51.3 27.5522 51.2931 27.6015 51.2762C27.6508 51.2592 27.6963 51.2327 27.7352 51.198C27.7741 51.1633 27.8058 51.1212 27.8283 51.0742C27.9652 50.8334 28.2041 50.7274 28.4329 50.6265C29.0965 50.3502 29.7902 50.1526 30.4997 50.0378C30.9865 49.9479 31.4762 49.8569 31.9729 49.8969C32.7005 49.9559 33.3281 50.2317 33.7199 50.8743C33.97 51.3084 34.0681 51.8134 33.9988 52.3095C33.9146 52.9601 33.7181 53.5911 33.4181 54.1744C32.8192 55.4143 32.0226 56.5485 31.0594 57.5325C30.6177 57.9843 30.2239 58.478 29.8051 58.9507C29.559 59.245 29.273 59.5037 28.9556 59.7193C28.7747 59.8362 28.5958 59.9581 28.4139 60.0731C28.2386 60.1991 28.0447 60.2973 27.8393 60.3639C27.7779 60.3822 27.7204 60.4113 27.6694 60.4499C27.5908 60.5064 27.5319 60.5862 27.5011 60.678C27.4702 60.7698 27.469 60.869 27.4975 60.9616C27.5319 61.0422 27.587 61.1124 27.6572 61.165C27.7274 61.2177 27.8101 61.2509 27.8972 61.2614C28.0658 61.267 28.2342 61.2474 28.397 61.2034C29.0941 61.0866 29.8099 61.1616 30.4678 61.4203C30.6757 61.5003 30.8935 61.5592 31.0674 61.7121C31.0674 61.7901 31.0025 61.8201 30.9595 61.863C30.7796 62.0449 30.6027 62.2288 30.4308 62.4187C30.017 62.8682 29.5074 63.2186 28.9396 63.4441C28.5399 63.607 28.1401 63.7899 27.7173 63.8619C27.0177 63.9798 26.3451 63.8859 25.7774 63.4092C25.4047 63.0964 25.0583 62.7535 24.742 62.3837C24.2883 61.8521 24.1514 61.2484 24.2743 60.5728C24.2874 60.5183 24.313 60.4676 24.3493 60.4249C24.4096 60.3391 24.437 60.2344 24.4262 60.13C24.428 60.0381 24.3996 59.9481 24.3455 59.8738C24.2914 59.7994 24.2144 59.7448 24.1264 59.7183C24.0331 59.696 23.9353 59.702 23.8455 59.7355C23.7556 59.7689 23.6777 59.8283 23.6217 59.9062C23.5904 59.9528 23.5659 60.0036 23.5487 60.0571C23.3622 60.6119 23.3175 61.2046 23.4188 61.7811C23.5098 62.1727 23.6935 62.5367 23.9545 62.8425C24.3873 63.3976 24.8964 63.8889 25.4666 64.3016C25.9234 64.6305 26.4461 64.7554 26.9928 64.8014C27.512 64.8449 28.0343 64.7694 28.5199 64.5805C29.1655 64.3406 29.8051 64.0938 30.3678 63.681C30.6531 63.4751 30.9148 63.2385 31.1484 62.9754C31.3276 62.7712 31.5199 62.5789 31.7241 62.3997C32.0798 62.0869 32.3657 61.7101 32.6695 61.3503C33.116 60.796 33.4976 60.1924 33.8069 59.5514C33.9998 59.1746 34.2136 58.8088 34.4065 58.431C34.6694 57.9113 34.9112 57.3796 35.1791 56.8619C35.5898 56.0624 35.9786 55.2568 36.4444 54.4953C37.017 53.5638 37.5917 52.6313 38.2193 51.7338C38.4058 51.4738 38.6177 51.2331 38.852 51.0153C38.8862 50.9822 38.9245 50.9536 38.9659 50.9303C39.2827 50.7574 39.5776 50.5525 39.8754 50.3516C39.9404 50.3087 39.9973 50.2517 40.0923 50.2887C40.2412 50.3446 40.3741 50.2827 40.501 50.2077L42.0741 49.2902C42.276 49.1763 42.4877 49.081 42.7068 49.0054C42.8602 48.9658 43.02 48.958 43.1765 48.9824Z" fill="#4E3D35" fill-opacity="0.6"/>
<path d="M30.6494 19.7695C30.6547 19.7922 30.6581 19.8153 30.6594 19.8385C30.6314 20.4092 30.7144 20.9688 30.8043 21.5295C30.8993 22.1192 30.9952 22.7099 31.0822 23.3015C31.2119 24.0733 31.4212 24.8296 31.7068 25.5582C31.9517 26.2179 32.2275 26.8635 32.4874 27.5161C32.6807 28.0343 32.9612 28.5157 33.3169 28.9393C33.3757 29.0038 33.4406 29.0624 33.5108 29.1142C33.5639 29.1602 33.6276 29.1924 33.6961 29.2079C33.7647 29.2234 33.836 29.2219 33.9038 29.2033C33.9715 29.1847 34.0337 29.1497 34.0847 29.1014C34.1358 29.0531 34.1741 28.993 34.1964 28.9263C34.2634 28.7144 34.4562 28.5855 34.5962 28.4266C34.951 28.0268 35.2908 27.6121 35.6306 27.1993C35.8644 26.9145 36.1563 26.6866 36.4301 26.4377C36.8649 26.038 37.3296 25.6682 37.7823 25.2914C38.1698 24.9691 38.6043 24.7079 39.0706 24.5168C39.5803 24.3079 40.076 24.0651 40.5877 23.8612C41.2297 23.6165 41.9023 23.4614 42.5866 23.4005C43.1849 23.3509 43.7855 23.3349 44.3856 23.3525C44.7604 23.3536 45.1323 23.4192 45.4849 23.5464C45.8097 23.6633 46.1516 23.7063 46.4844 23.7772C46.9532 23.8775 47.4101 24.0269 47.8476 24.223C48.1284 24.3519 48.4282 24.4359 48.7211 24.5518C49.1676 24.7275 49.5909 24.9574 49.9814 25.2364C50.581 25.6662 51.1937 26.0669 51.7703 26.5227C52.2016 26.8529 52.5877 27.2383 52.9187 27.669C53.1715 28.0078 53.4664 28.3137 53.6772 28.6854C53.8583 29.0027 54.0066 29.3376 54.12 29.6849C54.1412 29.7582 54.1819 29.8245 54.2378 29.8765C54.2937 29.9286 54.3627 29.9645 54.4374 29.9804C54.5121 29.9963 54.5897 29.9916 54.6619 29.9668C54.7342 29.9421 54.7983 29.8982 54.8476 29.8398C55.2604 29.4047 55.5933 28.9003 55.831 28.3496C56.1518 27.5931 56.4886 26.8415 56.7415 26.0569C56.9354 25.4573 57.0413 24.8326 57.1802 24.219C57.3499 23.4795 57.4483 22.7255 57.4741 21.9673C57.4667 21.9164 57.4751 21.8644 57.4981 21.8184C57.5237 21.8918 57.5316 21.9702 57.521 22.0472C57.521 22.5909 57.537 23.1346 57.514 23.6773C57.4854 24.2434 57.4216 24.8071 57.3232 25.3653C57.1812 26.2314 56.9873 27.0881 56.7425 27.9309C56.5596 28.5495 56.2348 29.1022 55.938 29.6679C55.7191 30.0847 55.4862 30.4964 55.3383 30.9452C55.2549 31.1533 55.2122 31.3755 55.2124 31.5998C55.2214 31.7347 55.1574 31.7817 55.0375 31.8057C54.434 31.923 53.8403 32.086 53.2615 32.2934C52.29 32.6373 51.3445 33.0505 50.4321 33.5297C49.8444 33.8445 49.3327 34.2633 48.795 34.657C48.1182 35.1662 47.4712 35.7138 46.8571 36.2971C46.6573 36.483 46.4574 36.6689 46.2575 36.8508C45.458 37.5784 44.8253 38.4439 44.2906 39.3754C43.7909 40.2489 43.3172 41.1393 42.9914 42.0978C42.798 42.6474 42.6339 43.2069 42.4996 43.7738C42.4916 43.8098 42.4996 43.8558 42.4327 43.8738C42.3687 43.698 42.3287 43.5145 42.3138 43.3281C42.2288 42.2607 41.88 41.2723 41.4482 40.3048C41.1364 39.6052 40.8486 38.8926 40.4948 38.211C40.1761 37.6131 39.7895 37.0541 39.3425 36.545C38.8577 35.9813 38.319 35.4676 37.7943 34.9459C37.3126 34.4622 36.7449 34.0854 36.1853 33.7016C35.4387 33.1889 34.6202 32.8021 33.8196 32.3873C33.4088 32.1725 32.9981 31.9596 32.5743 31.7717C32.5518 31.7663 32.5307 31.7563 32.5123 31.7421C32.494 31.728 32.4788 31.7102 32.4679 31.6898C32.4569 31.6694 32.4504 31.6469 32.4488 31.6238C32.4471 31.6007 32.4504 31.5775 32.4584 31.5558C32.485 31.4099 32.4821 31.2602 32.4498 31.1155C32.4176 30.9708 32.3566 30.834 32.2705 30.7133C32.0816 30.4364 31.9157 30.1436 31.7388 29.8588C31.2571 29.0852 30.9652 28.2327 30.7014 27.3672C30.5282 26.8359 30.4077 26.289 30.3416 25.7341C30.3186 25.5043 30.2796 25.2744 30.2756 25.0435C30.2666 24.4599 30.2537 23.8762 30.2756 23.2935C30.2968 22.4397 30.3695 21.588 30.4935 20.743C30.5465 20.4222 30.5725 20.0973 30.6115 19.7745L30.6494 19.7695Z" fill="#4E3D35" fill-opacity="0.6"/>
<path d="M41.6813 48.3984C41.6813 48.4314 41.7112 48.4394 41.7362 48.4504C41.589 48.5639 41.4247 48.6532 41.2495 48.7152C41.3691 48.58 41.5164 48.472 41.6813 48.3984Z" fill="#4E3D35" fill-opacity="0.6"/>
<path d="M36.5205 42.5082C36.3594 42.4985 36.1994 42.4765 36.0417 42.4422C35.1842 42.2853 34.8264 41.2339 35.1682 40.5433C35.2016 40.4661 35.2515 40.3971 35.3143 40.3412C35.3772 40.2852 35.4515 40.2437 35.532 40.2195C35.6123 40.1932 35.6988 40.1925 35.7795 40.2174C35.8602 40.2422 35.9312 40.2915 35.9828 40.3584C36.0357 40.4246 36.065 40.5065 36.0661 40.5912C36.0672 40.6759 36.04 40.7586 35.9888 40.8261C35.8479 41.044 35.8479 41.2149 35.9888 41.4158C36.0071 41.4468 36.0317 41.4738 36.0609 41.4949C36.0902 41.5161 36.1234 41.531 36.1587 41.5387C36.2686 41.5577 36.3786 41.5797 36.4895 41.5887C36.5816 41.5948 36.6737 41.5758 36.7559 41.5337C36.838 41.4916 36.9073 41.4281 36.9562 41.3498C36.9932 41.2988 37.0172 41.2379 37.0562 41.1859C37.1132 41.1027 37.1967 41.0413 37.2931 41.0118C37.3895 40.9822 37.493 40.9861 37.5869 41.023C37.6805 41.06 37.7585 41.1281 37.808 41.2158C37.8575 41.3034 37.8754 41.4054 37.8587 41.5047C37.8505 41.568 37.8319 41.6294 37.8037 41.6866C37.5349 42.2173 37.0922 42.4632 36.5205 42.5082Z" fill="#4E3D35"/>
<path d="M49.9624 42.2874C49.4027 42.2674 48.918 42.0805 48.5382 41.6547C48.3883 41.4858 48.3693 41.2959 48.4912 41.131C48.5504 41.0488 48.6389 40.9925 48.7385 40.9739C48.8381 40.9553 48.941 40.9758 49.0259 41.0311C49.0888 41.0661 49.1469 41.1091 49.1988 41.159C49.3805 41.3183 49.6138 41.4064 49.8554 41.4069C49.9476 41.4158 50.0403 41.3969 50.1217 41.3527C50.203 41.3086 50.2694 41.2411 50.3122 41.159C50.3791 41.0499 50.4252 40.9292 50.4481 40.8032C50.4665 40.6918 50.5161 40.5879 50.591 40.5034C50.6512 40.4335 50.7319 40.3844 50.8217 40.3632C50.9115 40.3421 51.0056 40.3498 51.0907 40.3855C51.1787 40.4164 51.2537 40.4759 51.3037 40.5546C51.3537 40.6333 51.3759 40.7265 51.3665 40.8192C51.2756 41.3749 51.0607 41.8606 50.537 42.1494C50.3595 42.2415 50.1623 42.2888 49.9624 42.2874Z" fill="#4E3D35"/>
</svg>
