<svg width="84" height="84" viewBox="0 0 84 84" fill="none" xmlns="http://www.w3.org/2000/svg">
<path d="M50.9588 70.3803C50.8716 70.4907 50.8065 70.5889 50.7304 70.6727C50.6284 70.8024 50.4832 70.8913 50.3212 70.9231C50.1592 70.9548 49.9912 70.9275 49.8477 70.8459C49.7208 70.7853 49.5984 70.7135 49.4748 70.6451C49.4279 70.6123 49.3702 70.5984 49.3135 70.6064C49.2568 70.6144 49.2052 70.6436 49.1691 70.6882C49.0368 70.8179 48.8979 70.9409 48.7532 71.0567C48.3207 71.4098 48.0007 71.3733 47.6498 70.9353C47.6278 70.9088 47.6046 70.8834 47.5759 70.8503C47.4744 70.911 47.3795 70.9739 47.2802 71.0269C47.1456 71.1038 46.9951 71.1488 46.8403 71.1583C46.6855 71.1679 46.5307 71.1418 46.3876 71.0821C46.2486 71.0258 46.1095 70.9717 45.9727 70.9099C45.8359 70.8481 45.7222 70.8349 45.6064 70.9463C45.5589 70.9855 45.5062 71.0178 45.4497 71.0423C45.3324 71.1132 45.1973 71.1487 45.0603 71.1448C44.9233 71.1409 44.7904 71.0977 44.6774 71.0203C44.6601 71.002 44.6392 70.9877 44.616 70.9782C44.5928 70.9687 44.5678 70.9642 44.5428 70.9651C44.5251 71.242 44.5924 71.5168 44.6255 71.7849C44.7127 72.4855 44.7987 73.1851 44.8241 73.8923C44.8466 74.2171 44.8447 74.5432 44.8186 74.8677C44.8027 75.0804 44.7267 75.2843 44.5993 75.4555C44.4719 75.6266 44.2985 75.758 44.0992 75.8342C43.6071 76.0439 43.1062 76.0339 42.5931 75.9192C42.3853 75.8771 42.1831 75.8108 41.9907 75.7217C41.492 75.4778 41.2901 75.0233 41.439 74.4903C41.6155 73.8702 42.186 73.4863 42.88 73.5271C43.0389 73.5291 43.1969 73.5495 43.3511 73.5878C43.4924 73.6286 43.6358 73.6661 43.7925 73.7092C43.8005 73.467 43.7854 73.2246 43.7472 72.9854C43.6645 72.2406 43.5696 71.4969 43.4725 70.7533C43.4405 70.5028 43.2949 70.4222 43.072 70.5326C42.6748 70.7201 42.2897 70.7378 41.9322 70.4443C41.8945 70.4086 41.8453 70.3874 41.7934 70.3843C41.7416 70.3813 41.6903 70.3967 41.6486 70.4278C41.1941 70.6705 40.9425 70.6385 40.5707 70.3009C40.4802 70.2203 40.4217 70.1905 40.3059 70.2689C40.0322 70.4686 39.7387 70.4355 39.4563 70.2843C39.1738 70.1332 38.8891 69.9621 38.6056 69.7999C38.5449 69.7657 38.482 69.7349 38.4235 69.704C38.4015 69.7106 38.3794 69.704 38.3706 69.7205C38.0815 70.0592 37.7792 70.0934 37.4305 69.8176C37.2351 69.6512 37.0245 69.5034 36.8016 69.3763C36.5809 69.2659 36.5666 69.2659 36.5611 69.5076C36.5489 70.0019 36.539 70.5006 36.5346 70.9905C36.5346 71.5819 36.5346 72.1733 36.5346 72.7636C36.5346 72.8982 36.5291 73.0262 36.6449 73.1299C36.671 73.1543 36.6914 73.1841 36.7045 73.2173C36.7177 73.2505 36.7233 73.2862 36.721 73.3219C36.7111 73.4708 36.7729 73.5161 36.9185 73.5183C37.1313 73.5176 37.3416 73.5628 37.5353 73.6507C37.7065 73.7236 37.8598 73.8331 37.9842 73.9715C38.1087 74.1098 38.2014 74.2737 38.2558 74.4517C38.3243 74.65 38.3242 74.8656 38.2556 75.0638C38.187 75.2621 38.0538 75.4316 37.8774 75.5451C37.3389 75.8762 36.7475 75.9611 36.1539 75.7228C35.4831 75.4536 35.1421 74.6426 35.4047 73.9265C35.5028 73.6381 35.5451 73.3337 35.5294 73.0295C35.5162 72.0232 35.5129 71.017 35.5416 70.0107C35.5493 69.7194 35.5526 69.4281 35.5724 69.1379C35.5813 68.9978 35.5327 68.9592 35.397 68.9459C34.8751 68.893 34.3731 68.7749 33.9284 68.4737C33.8093 68.3979 33.6825 68.335 33.55 68.2861C32.7997 67.9871 32.1708 67.5061 31.5695 66.9831C31.4315 66.8628 31.2671 66.7789 31.1436 66.6366C30.2967 65.6895 29.5367 64.6681 28.8728 63.5847C28.3112 62.6458 27.9846 61.6086 27.7265 60.5527C27.5521 59.8421 27.3657 59.1327 27.2851 58.4045C27.2653 58.2345 27.145 58.1143 27.1163 57.9466C27.0115 57.3287 26.9199 56.7086 26.8747 56.0841C26.7643 54.5151 26.814 52.9439 26.8504 51.3738C26.8636 50.8222 26.8669 50.2595 26.932 49.7089C27.0633 48.5989 26.996 47.4867 27.0358 46.3767C27.0655 45.5658 27.0998 44.7537 27.1461 43.9438C27.2208 42.8415 27.2141 41.7351 27.1262 40.6337C27.077 39.7986 27.0718 38.9615 27.1108 38.1258C27.1571 36.2015 27.1604 34.2762 26.9585 32.3596C26.8007 30.8646 26.526 29.3905 25.8552 28.0234C25.6157 27.5325 25.362 27.047 25.0828 26.5758C24.721 25.9489 24.4488 25.2745 24.274 24.5721C24.2653 24.5078 24.2385 24.4473 24.1967 24.3977C24.1549 24.3481 24.0998 24.3114 24.0379 24.2919C23.9399 24.2519 23.8475 24.1992 23.7632 24.1352C23.2891 23.8086 22.8631 23.4172 22.4976 22.9723C22.3455 22.7934 22.2325 22.5846 22.1658 22.3595C22.0991 22.1343 22.0802 21.8977 22.1104 21.6648C22.1233 21.4891 22.1473 21.3145 22.1821 21.1418C22.2696 20.7588 22.498 20.4228 22.822 20.2006C22.9772 20.0809 23.1653 20.0113 23.3611 20.0013C23.5568 19.9912 23.751 20.0411 23.9177 20.1444C24.0858 20.242 24.2387 20.3639 24.3711 20.5063C24.8033 20.9491 25.2085 21.4174 25.5848 21.9086C25.6606 22.0291 25.7787 22.1168 25.9158 22.1547C26.505 22.265 27.0192 22.5519 27.5576 22.8012C28.095 23.0695 28.6703 23.2537 29.2634 23.3474C29.3352 23.3634 29.4098 23.3608 29.4802 23.34C29.5507 23.3191 29.6147 23.2807 29.6662 23.2282C30.0502 22.8753 30.4873 22.5849 30.9615 22.3676C31.9126 21.9031 32.8725 21.4596 33.8302 21.0138C34.148 20.8648 34.3643 20.9222 34.5551 21.2168C34.6335 21.3371 34.7096 21.3007 34.799 21.2786C35.3639 21.1352 35.9343 21.0248 36.5103 20.9333C36.8082 20.8858 37.0752 20.8968 37.2672 21.1683C37.3345 21.2654 37.425 21.2268 37.5066 21.2113C38.0881 21.101 38.6674 20.9906 39.2488 20.8803C39.8645 20.77 40.4747 20.6287 41.1014 20.5791C41.4324 20.5526 41.6983 20.621 41.8484 20.941C41.8947 21.0381 41.9741 21.0226 42.0514 21.0237C42.4751 21.0237 42.8988 21.0237 43.3213 21.0237C43.5865 21.0197 43.8511 21.0486 44.1091 21.1098C44.5383 21.2201 44.8462 21.4474 44.8649 21.9384C45.0244 21.9594 45.1854 21.9657 45.346 21.9572C45.7252 21.9579 46.1037 21.9918 46.4769 22.0587C46.587 22.071 46.6921 22.1113 46.7822 22.1756C46.8724 22.2399 46.9447 22.3261 46.9922 22.4261C47.0127 22.4697 47.0435 22.5076 47.082 22.5367C47.1204 22.5657 47.1653 22.5849 47.2129 22.5927C47.3843 22.6347 47.5513 22.6931 47.7116 22.767C47.8326 22.8131 47.9355 22.8969 48.0053 23.006C48.075 23.115 48.1078 23.2436 48.0989 23.3728C48.0912 23.5217 48.1541 23.5416 48.2754 23.5615C48.9562 23.6587 49.6308 23.7953 50.2957 23.9708C50.7096 24.0908 51.1151 24.2383 51.5094 24.4121C51.6066 24.4529 51.6988 24.5047 51.7841 24.5666C51.8481 24.6106 51.9024 24.6673 51.9436 24.7332C51.9847 24.799 52.0118 24.8727 52.0232 24.9495C52.0346 25.0263 52.03 25.1047 52.0098 25.1797C51.9895 25.2547 51.954 25.3247 51.9055 25.3853C51.8702 25.4361 51.8304 25.4835 51.7951 25.5321C51.8415 25.6314 51.9408 25.66 52.0158 25.7097C52.2374 25.8372 52.4511 25.9779 52.6558 26.1312C52.9272 26.3519 53.0728 26.6145 52.9327 26.9642C52.8853 27.0746 52.9504 27.1242 53.0177 27.1849C53.2549 27.3824 53.4954 27.5766 53.7271 27.7818C53.9225 27.9475 54.096 28.1373 54.2435 28.3467C54.3759 28.542 54.4642 28.7495 54.4002 28.9922C54.3737 29.0893 54.42 29.1378 54.4895 29.1875C54.7161 29.3408 54.9544 29.4758 55.2023 29.5913C55.6307 29.8026 56.0199 30.0855 56.3531 30.4277C56.4837 30.5584 56.5952 30.707 56.6841 30.869C56.8551 31.1846 56.864 31.4957 56.6345 31.7848C56.6133 31.8029 56.5967 31.8256 56.5859 31.8512C56.5751 31.8769 56.5704 31.9046 56.5722 31.9324C56.5741 31.9601 56.5823 31.9871 56.5964 32.0111C56.6105 32.035 56.6299 32.0554 56.6532 32.0706C56.9418 32.3691 57.1968 32.6984 57.4134 33.0526C57.606 33.3276 57.7452 33.6364 57.8239 33.9628C57.8677 34.1155 57.9323 34.2614 58.0159 34.3965C58.1829 34.7177 58.3036 35.0609 58.3745 35.416C58.4022 35.5274 58.4057 35.6435 58.3845 35.7564C58.3634 35.8693 58.3182 35.9764 58.252 36.0702C58.2364 36.0849 58.224 36.1026 58.2155 36.1222C58.207 36.1419 58.2026 36.163 58.2026 36.1844C58.2026 36.2058 58.207 36.227 58.2155 36.2467C58.224 36.2663 58.2364 36.284 58.252 36.2986C58.4032 36.484 58.5444 36.6749 58.7044 36.8503C59.4751 37.7166 60.0572 38.7337 60.4135 39.8371C60.5238 40.1593 60.5536 40.4704 60.3307 40.7684C60.2436 40.8853 60.2822 41.0221 60.3407 41.1468C60.4642 41.4105 60.5889 41.6731 60.7125 41.9368C60.9253 42.3825 61.0849 42.8517 61.188 43.3348C61.2366 43.572 61.2421 43.7938 61.0777 43.9858C61.0503 44.0199 61.0337 44.0614 61.0299 44.105C61.0262 44.1487 61.0355 44.1924 61.0567 44.2307C61.1663 44.5753 61.3005 44.9116 61.4584 45.237C61.5491 45.4182 61.6261 45.6059 61.689 45.7986C61.7286 45.9022 61.7421 46.014 61.7282 46.1241C61.7144 46.2341 61.6736 46.3391 61.6095 46.4297C61.575 46.4749 61.5531 46.5284 61.5461 46.5848C61.5391 46.6413 61.5473 46.6985 61.5698 46.7508C61.6592 47.009 61.7397 47.2705 61.8258 47.5297C61.931 47.8389 61.9977 48.1598 62.0244 48.4853C62.0467 48.6347 62.0225 48.7875 61.955 48.9227C61.8874 49.0579 61.7799 49.1691 61.647 49.2411L61.5566 49.2962C61.3624 49.4187 61.3359 49.4606 61.3977 49.6857C61.4595 49.9108 61.5444 50.1568 61.6184 50.3908C61.7011 50.6423 61.7993 50.8873 61.8611 51.1466C61.9017 51.2828 61.8927 51.429 61.8357 51.5592C61.8091 51.6091 61.7951 51.6648 61.7951 51.7214C61.7951 51.778 61.8091 51.8337 61.8357 51.8836C62.2848 52.8512 62.4536 53.8829 62.5132 54.9377C62.5319 55.2687 62.4172 55.5335 62.0862 55.6516C61.9438 55.7023 61.9494 55.7707 61.988 55.8888C62.0864 56.2002 62.1537 56.5207 62.1888 56.8454C62.2263 57.1588 62.1656 57.4291 61.8765 57.6001C61.7662 57.6663 61.7662 57.748 61.7927 57.8462C61.8523 58.122 61.9118 58.3978 61.9747 58.6726C62.0736 59.0863 62.1269 59.5095 62.1336 59.9348C62.1336 60.385 61.9891 60.6167 61.5665 60.7855C61.5429 60.7908 61.5207 60.8008 61.501 60.8148C61.4814 60.8288 61.4648 60.8467 61.4521 60.8672C61.4395 60.8878 61.4311 60.9107 61.4274 60.9346C61.4237 60.9584 61.4249 60.9828 61.4308 61.0062C61.4635 61.2506 61.5084 61.4933 61.5654 61.7333C61.5912 61.8721 61.6067 62.0126 61.6117 62.1537C61.6212 62.2604 61.6004 62.3677 61.5516 62.4632C61.5028 62.5586 61.428 62.6384 61.3359 62.6932C61.2687 62.732 61.2136 62.7886 61.1766 62.8567C61.1396 62.9249 61.1222 63.0019 61.1263 63.0794C61.0759 63.6776 60.9503 64.267 60.7522 64.8337C60.729 64.8999 60.7059 64.9672 60.6805 65.0323C60.6375 65.1682 60.55 65.2856 60.4321 65.3657C60.3142 65.4458 60.1728 65.4838 60.0306 65.4737C59.9796 65.4642 59.9268 65.4744 59.883 65.5022C59.8392 65.5301 59.8076 65.5735 59.7945 65.6237C59.6742 65.936 59.5407 66.2438 59.4304 66.5594C59.2881 66.9643 59.0354 67.2214 58.5918 67.2512C58.5434 67.2557 58.4971 67.2736 58.4581 67.3028C58.4192 67.332 58.3891 67.3714 58.3712 67.4167C58.2321 67.6833 58.0769 67.9412 57.9067 68.189C57.7886 68.349 57.654 68.5289 57.4653 68.5377C57.1751 68.5509 57.0317 68.7142 56.8618 68.9106C56.6576 69.149 56.352 69.1677 56.053 69.139C55.8776 69.1225 55.7021 69.1037 55.5278 69.0728C55.4175 69.0519 55.3546 69.0728 55.3127 69.192C55.1361 69.7007 54.7974 69.8662 54.2821 69.7018C54.1398 69.6565 54.0019 69.5914 53.8639 69.5385C53.8488 69.5294 53.832 69.5237 53.8145 69.5217C53.797 69.5197 53.7793 69.5214 53.7625 69.5267C53.7457 69.532 53.7302 69.5408 53.7171 69.5526C53.704 69.5643 53.6935 69.5787 53.6863 69.5947C53.4292 70.0019 53.0408 70.0769 52.6006 70.0184C52.5653 70.0169 52.5303 70.0125 52.4958 70.0052C52.3005 69.9368 52.1857 69.9963 52.0754 70.1828C52.0294 70.2691 51.9659 70.3448 51.8889 70.405C51.8119 70.4652 51.7231 70.5086 51.6283 70.5325C51.5335 70.5563 51.4348 70.5599 51.3385 70.5432C51.2421 70.5265 51.1504 70.4898 51.0691 70.4355C51.0316 70.4167 51.0007 70.4024 50.9588 70.3803ZM30.7497 23.642C31.3958 23.8099 32.0512 23.9396 32.7125 24.0304C33.3594 24.1103 33.995 24.264 34.607 24.4883C34.9104 24.607 35.2207 24.7076 35.536 24.7895C36.0579 24.9194 36.5668 25.0966 37.0565 25.3191C37.6773 25.6133 38.3062 25.8903 38.9432 26.1499C39.6812 26.4471 40.3672 26.8598 40.9756 27.3725C41.3846 27.7197 41.8024 28.0577 42.229 28.3865C42.957 28.9318 43.6018 29.58 44.1433 30.3107C44.7436 31.1404 45.4045 31.9194 46.04 32.7193C46.5215 33.3169 46.9575 33.9498 47.3442 34.6127C47.5947 35.0541 47.8032 35.5075 48.0382 35.9522C48.623 37.05 49.1702 38.1666 49.7219 39.2821C49.8654 39.5723 49.9338 39.9 50.1633 40.1494C50.1834 40.1786 50.1984 40.211 50.2074 40.2454C50.5483 41.2009 50.7591 42.1928 50.9952 43.177C51.2015 44.0409 51.3262 44.9225 51.4443 45.803C51.5546 46.6129 51.6594 47.4249 51.7378 48.2392C51.7973 48.8615 51.8635 49.4838 51.9739 50.0973C52.1511 51.0579 52.2654 52.0291 52.3159 53.0046C52.3424 53.5684 52.3424 54.1322 52.3656 54.6961C52.3987 55.4982 52.3788 56.3026 52.3799 57.1058C52.3862 57.2379 52.3825 57.3703 52.3689 57.5019C52.2696 58.1463 52.2718 58.7995 52.1769 59.446C52.0942 60.0109 52.1118 60.5869 52.0136 61.1529C51.911 61.7421 51.8426 62.3368 51.7091 62.9183C51.5987 63.3751 51.4332 63.8098 51.292 64.2545C51.1288 64.7666 50.9338 65.2682 50.7083 65.7561C50.3578 66.4815 49.8708 67.1326 49.274 67.6738C48.8209 68.1209 48.2729 68.4603 47.6708 68.6668C47.5019 68.7175 47.3362 68.778 47.1743 68.8478C46.6469 69.0927 46.0864 69.203 45.5247 69.3134C45.1794 69.3818 44.8296 69.4303 44.4821 69.4877C44.6796 69.5768 44.8504 69.7161 44.9775 69.8915C44.9928 69.9181 45.0139 69.9409 45.0392 69.9584C45.0644 69.9758 45.0932 69.9875 45.1235 69.9924C45.1538 69.9974 45.1848 69.9955 45.2144 69.9871C45.2439 69.9786 45.2711 69.9637 45.2941 69.9434C45.4035 69.8765 45.5263 69.8347 45.6537 69.8207C45.7811 69.8068 45.91 69.8212 46.0312 69.8628C46.1755 69.9029 46.317 69.9522 46.4549 70.0107C46.7947 70.1541 46.7969 70.1607 47.0496 69.9125C47.3983 69.5682 47.8054 69.5583 48.1353 69.9125C48.3074 70.0979 48.3151 70.0912 48.5138 69.9125C48.5469 69.8838 48.5788 69.8529 48.6119 69.8231C48.7262 69.7182 48.8635 69.6414 49.0127 69.5991C49.162 69.5567 49.3191 69.5499 49.4715 69.5793C49.6094 69.6084 49.7442 69.6505 49.8742 69.7051C50.0882 69.7867 50.0871 69.79 50.2173 69.5947C50.4788 69.1997 50.7381 69.1115 51.1618 69.2979C51.2986 69.3575 51.3704 69.363 51.4608 69.2218C51.5267 69.1107 51.6237 69.0213 51.7397 68.9647C51.8558 68.908 51.9859 68.8866 52.114 68.9029C52.245 68.9194 52.375 68.943 52.5035 68.9735C52.7893 69.0298 52.8091 69.0199 52.9713 68.776C53.1335 68.5322 53.3476 68.3965 53.6333 68.4252C53.8091 68.4434 53.9812 68.4873 54.1442 68.5554C54.3649 68.6491 54.3759 68.6469 54.4818 68.4351C54.5356 68.3085 54.6275 68.2017 54.7448 68.1298C54.8621 68.0578 54.9988 68.0241 55.1361 68.0335C55.3578 68.0293 55.5793 68.0452 55.7981 68.0809C56.0354 68.1317 56.2318 68.1096 56.3619 67.8382C56.4921 67.5668 56.7051 67.4101 57.024 67.4553C57.142 67.4719 57.1961 67.4101 57.2513 67.3196C57.3848 67.0989 57.4984 66.8727 57.6452 66.6576C57.7155 66.54 57.813 66.4411 57.9296 66.369C58.0461 66.297 58.1783 66.2541 58.3149 66.2438C58.3632 66.2443 58.4102 66.2276 58.4474 66.1967C58.4846 66.1657 58.5095 66.1226 58.5179 66.075C58.5367 66.0165 58.5554 65.9581 58.5786 65.9007C58.7342 65.5068 58.8688 65.1052 59.1093 64.7499C59.2384 64.559 59.4072 64.4045 59.6389 64.3946C59.8188 64.3869 59.8596 64.2931 59.8949 64.1585C60.0021 63.7495 60.0759 63.3326 60.1156 62.9117C60.1443 62.6038 60.184 62.2861 60.4201 62.0588C60.4735 62.014 60.5114 61.9536 60.5285 61.886C60.5455 61.8185 60.5408 61.7473 60.515 61.6825C60.4235 61.3408 60.3947 60.9853 60.43 60.6332C60.4565 60.2758 60.5922 59.9834 60.9707 59.8708C60.9954 59.8674 61.019 59.8587 61.04 59.8453C61.061 59.8319 61.0788 59.8141 61.0922 59.7931C61.1057 59.7721 61.1144 59.7485 61.1178 59.7238C61.1212 59.6991 61.1192 59.674 61.1119 59.6501C61.0843 59.467 61.0667 59.2827 61.0314 59.0985C60.9486 58.6759 60.8504 58.2555 60.771 57.8318C60.707 57.492 60.761 57.1698 61.0325 56.937C61.0865 56.9012 61.1264 56.8477 61.1454 56.7857C61.1643 56.7237 61.1611 56.657 61.1362 56.5971C61.0567 56.3191 60.9806 56.0378 60.9265 55.752C60.8526 55.3559 60.9376 54.9443 61.3679 54.7876C61.4106 54.7757 61.447 54.7476 61.4692 54.7093C61.4915 54.6709 61.4979 54.6254 61.4871 54.5824C61.4749 54.4721 61.4551 54.3551 61.4418 54.2426C61.3794 53.652 61.2361 53.0729 61.0159 52.5213C60.9074 52.2901 60.813 52.0524 60.7335 51.8097C60.6754 51.6598 60.6778 51.4933 60.7401 51.3452C60.7718 51.2828 60.7889 51.214 60.7901 51.144C60.7912 51.074 60.7764 51.0047 60.7467 50.9413C60.6209 50.5838 60.4697 50.2319 60.4058 49.8578C60.3252 49.3911 60.3285 48.9167 60.7754 48.621C61.0071 48.4676 61.0214 48.312 60.9442 48.0936C60.9177 48.0185 60.8912 47.9435 60.8681 47.8674C60.7699 47.5474 60.6386 47.2374 60.568 46.9097C60.5172 46.6746 60.4863 46.4297 60.5834 46.2068C60.6225 46.1187 60.6395 46.0225 60.6329 45.9263C60.6264 45.8302 60.5965 45.7371 60.5459 45.6551C60.3279 45.2314 60.1577 44.7847 60.0383 44.3234C59.9788 44.0795 59.9523 43.8202 60.0714 43.5996C60.1101 43.527 60.1324 43.4467 60.1366 43.3645C60.1408 43.2823 60.1268 43.2002 60.0957 43.124C60.056 42.9886 60.0085 42.8556 59.9534 42.7257C59.7824 42.3395 59.6113 41.9534 59.4249 41.5716C59.3243 41.3795 59.271 41.1661 59.2695 40.9493C59.268 40.7324 59.3182 40.5183 59.416 40.3248C59.4371 40.2819 59.4486 40.2349 59.4497 40.1871C59.4509 40.1392 59.4416 40.0918 59.4227 40.0479C59.1408 39.2289 58.7189 38.4651 58.1759 37.7904C57.868 37.4163 57.5448 37.0544 57.259 36.6628C57.046 36.3704 56.992 36.0394 57.2071 35.7525C57.3726 35.5318 57.3351 35.3553 57.2468 35.15C57.1906 35.021 57.1277 34.8941 57.0637 34.7683C56.965 34.5909 56.8879 34.4024 56.8342 34.2067C56.7828 34.0115 56.7017 33.8254 56.5937 33.655C56.3454 33.2335 56.0045 32.8826 55.6977 32.513C55.391 32.1434 55.3866 31.8378 55.6205 31.4406C55.7308 31.2464 55.7308 31.232 55.5587 31.072C55.2578 30.799 54.917 30.5735 54.548 30.4034C54.1632 30.2248 53.8111 29.9827 53.5065 29.6873C53.4095 29.6022 53.3392 29.491 53.3037 29.3669C53.2683 29.2429 53.2694 29.1112 53.3067 28.9878C53.3251 28.9385 53.3267 28.8846 53.3113 28.8344C53.2959 28.7841 53.2645 28.7403 53.2218 28.7097C53.0927 28.5906 52.9724 28.4626 52.8334 28.3511C52.5653 28.1371 52.3038 27.9098 52.0456 27.6891C51.9411 27.6055 51.8631 27.4933 51.8212 27.3662C51.7793 27.239 51.7752 27.1025 51.8095 26.973C51.8481 26.8186 51.7819 26.7645 51.6804 26.7027C51.4342 26.5646 51.1982 26.409 50.9742 26.2371C50.6852 26.001 50.5329 25.7141 50.6565 25.3335C50.6962 25.2231 50.6565 25.168 50.5572 25.1349C50.4071 25.0852 50.2571 25.0322 50.1059 24.9859C49.4218 24.7785 48.7157 24.6759 48.0095 24.56C47.7385 24.5237 47.4736 24.4513 47.2217 24.3448C47.1239 24.3025 47.0395 24.2343 46.9774 24.1476C46.9154 24.0609 46.8782 23.959 46.8697 23.8527C46.83 23.5504 46.8344 23.5493 46.5387 23.4842C46.478 23.471 46.4174 23.4622 46.3589 23.4434C46.2143 23.3971 46.0577 23.3441 45.9915 23.2029C45.8988 23.0021 45.741 22.9822 45.5578 22.9822C45.2268 22.9822 44.887 22.9745 44.5516 22.9767C44.4104 22.9757 44.27 22.9549 44.1345 22.9149C43.9976 22.8756 43.8791 22.7891 43.7999 22.6708C43.7207 22.5524 43.686 22.4098 43.702 22.2683C43.7075 22.2109 43.7594 22.158 43.702 22.0918C43.5907 22.0684 43.4767 22.061 43.3633 22.0697C42.6935 22.0521 42.0238 22.0951 41.354 22.0344C41.2482 22.0345 41.1438 22.0092 41.0498 21.9606C40.9557 21.9121 40.8746 21.8416 40.8134 21.7553C40.7926 21.7172 40.7592 21.6875 40.719 21.6714C40.6787 21.6553 40.634 21.6537 40.5927 21.667C40.1955 21.7442 39.7972 21.817 39.3989 21.8877C38.7247 22.0146 38.0528 22.1514 37.3753 22.2661C37.0752 22.3169 36.7729 22.2981 36.5434 22.0454C36.5173 22.0159 36.4831 21.9947 36.4449 21.9847C36.4068 21.9747 36.3666 21.9763 36.3294 21.9892C36.0623 22.0488 35.7953 22.0995 35.5272 22.1503C35.119 22.2253 34.7284 22.3709 34.3257 22.4625C34.1171 22.5122 33.8909 22.5552 33.7133 22.4162C33.5356 22.2772 33.3977 22.3235 33.2322 22.4029C32.643 22.6854 32.0505 22.9546 31.4668 23.2404C31.2132 23.3464 30.9726 23.4811 30.7497 23.642ZM28.0255 47.8652C27.9626 48.1962 28.0376 48.5051 28.0255 48.8096C28.01 49.1848 27.9471 49.5588 27.9151 49.9306C27.7816 51.621 27.7916 53.3169 27.8048 55.0061C27.8048 55.2003 27.8158 55.3945 27.8213 55.5887C27.8161 55.6597 27.8319 55.7306 27.8666 55.7928C27.9477 55.9305 27.9829 56.0905 27.967 56.2496C27.9631 56.364 27.9697 56.4785 27.9869 56.5916C28.1899 57.6211 28.2936 58.6671 28.5385 59.6888C28.7669 60.6321 29.0053 61.57 29.4069 62.4582C29.4407 62.5397 29.4702 62.6229 29.4951 62.7076C29.6695 63.225 29.9883 63.662 30.3216 64.079C30.5676 64.3869 30.8732 64.6561 31.0939 64.9816C31.5595 65.6436 32.2447 66.0684 32.8427 66.5859C32.8772 66.6113 32.9141 66.6332 32.9531 66.651L33.9042 67.1718C34.3172 67.409 34.7563 67.5974 35.2128 67.7334C35.3008 67.7488 35.3833 67.7868 35.4522 67.8437C35.6258 67.9956 35.8375 68.0975 36.0645 68.1383C36.7166 68.2928 37.3588 68.4803 37.9932 68.69C38.1167 68.7389 38.2477 68.7662 38.3805 68.7705C38.698 68.7732 39.0139 68.8162 39.3206 68.8985C39.4143 68.9195 39.5114 68.9272 39.6074 68.9415C39.9131 68.9879 40.2253 68.9272 40.5298 69C40.7108 69.0408 40.8961 69.0586 41.0815 69.053C41.7692 69.0502 42.4556 68.9949 43.1349 68.8875C43.8064 68.7907 44.4669 68.6281 45.1066 68.402C45.2137 68.3593 45.3245 68.3264 45.4376 68.3038C46.1724 68.1736 46.8477 67.8624 47.5472 67.6219C47.5886 67.607 47.6285 67.5882 47.6664 67.5656C48.4586 67.0879 49.1239 66.4822 49.5487 65.6469C49.7483 65.2654 49.9159 64.8679 50.0496 64.4586C50.2184 63.9201 50.3199 63.3652 50.4413 62.8135C50.6675 61.7807 50.9202 60.7535 51.0934 59.7086C51.223 58.8987 51.3001 58.0812 51.324 57.2614C51.3737 55.9031 51.3417 54.5449 51.2876 53.1867C51.2719 52.534 51.2162 51.8829 51.121 51.237C50.9798 50.3665 50.8242 49.497 50.7436 48.6188C50.6157 47.2131 50.4343 45.8155 50.1997 44.426C50.1467 44.1115 50.1125 43.7882 49.979 43.4815C49.9253 43.5205 49.8864 43.5765 49.8687 43.6404C49.6455 44.0912 49.3822 44.521 49.082 44.9247C48.7223 45.4157 48.3703 45.9122 48.0139 46.4054C47.5009 47.1138 46.8841 47.7107 46.0764 48.0869C45.2688 48.4632 44.4479 48.8074 43.5497 48.9034C43.502 48.9025 43.4554 48.9183 43.4181 48.9481C43.3808 48.9779 43.3552 49.0199 43.3456 49.0667C42.9396 50.372 42.2345 51.5393 41.62 52.7475C41.5732 52.8434 41.5006 52.9244 41.4104 52.9813C41.3201 53.0382 41.2158 53.0688 41.1091 53.0697C40.8884 53.0867 40.6665 53.0585 40.457 52.987C40.0598 52.8446 39.6637 52.6935 39.2632 52.56C38.8968 52.4356 38.5386 52.2882 38.1907 52.1186C37.1977 51.6409 36.2378 51.1002 35.2039 50.7085C34.9694 50.6036 34.7047 50.5875 34.4592 50.6633C34.3073 50.7103 34.1501 50.7378 33.9913 50.7449C33.422 50.7858 32.867 50.6644 32.3076 50.5982C31.8499 50.5583 31.4039 50.4317 30.9935 50.2252C29.9619 49.6658 29.013 49.0027 28.2517 48.0947C28.1922 48.0039 28.1153 47.9259 28.0255 47.8652ZM43.8774 47.7857C43.937 47.8277 43.9878 47.799 44.0341 47.7857C44.3431 47.682 44.6531 47.5794 44.9598 47.4702C45.9604 47.1221 46.8119 46.4423 47.3729 45.5437C47.5935 45.1961 47.8517 44.8673 48.1011 44.5363C48.7049 43.7413 49.1776 42.8547 49.5013 41.9103C49.5428 41.8042 49.5447 41.6867 49.5068 41.5793C49.2819 40.8738 49.0118 40.1835 48.698 39.5127C48.1265 38.3597 47.5207 37.2233 46.9591 36.0647C46.3891 34.9183 45.681 33.846 44.8506 32.8716C44.375 32.3023 43.9116 31.7252 43.478 31.1239C42.9488 30.3829 42.3095 29.7269 41.5824 29.1787C41.2018 28.8929 40.8344 28.5884 40.4725 28.2783C39.8018 27.7038 39.035 27.2522 38.2073 26.9444C37.8109 26.7968 37.423 26.6274 37.0454 26.4368C36.5374 26.1713 36.0006 25.9647 35.4456 25.8211C35.0436 25.7208 34.6486 25.5947 34.2628 25.4438C33.8088 25.2737 33.3379 25.1528 32.8582 25.083C32.0483 24.9539 31.2362 24.8358 30.4451 24.6152C30.1914 24.5446 29.9398 24.4552 29.6673 24.4927C29.6232 24.4964 29.579 24.4868 29.5404 24.4651C29.3429 24.3548 29.1178 24.3437 28.9026 24.3073C28.5206 24.2408 28.1459 24.1374 27.7838 23.9984C27.2531 23.8009 26.7676 23.5118 26.2601 23.2647C26.1132 23.1844 25.9572 23.1218 25.7956 23.0782C25.6113 23.0363 25.6102 23.0352 25.5749 23.2161C25.5197 23.5471 25.4304 23.8561 25.1998 24.0988C25.1137 24.1904 25.1435 24.2731 25.1755 24.3647C25.313 24.7931 25.4872 25.2087 25.6963 25.6071C25.992 26.1477 26.2888 26.6895 26.579 27.2334C27.295 28.5663 27.6316 30.015 27.8511 31.4946C28.0184 32.7186 28.1065 33.9522 28.1148 35.1876C28.1424 36.6881 28.1016 38.1876 28.0641 39.6882C28.0255 41.2218 28.0939 42.7566 27.9791 44.2903C27.9405 44.8078 27.9791 45.3307 27.9791 45.8515C27.969 45.9219 27.9813 45.9938 28.0144 46.0568C28.1711 46.2774 28.2859 46.5301 28.4558 46.7497C29.2022 47.7617 30.1591 48.6 31.2605 49.2068C31.5183 49.3604 31.801 49.4676 32.0958 49.5235C32.4102 49.5721 32.7236 49.6173 33.038 49.6647C33.2069 49.6786 33.377 49.6693 33.5434 49.6372C33.551 49.6174 33.5515 49.5956 33.5449 49.5755C33.5383 49.5554 33.5249 49.5382 33.507 49.5268C33.1214 49.1278 32.77 48.697 32.4566 48.2392C31.8883 47.4481 31.6169 46.5842 31.7239 45.6011C31.8122 44.7901 32.0229 44.0299 32.5261 43.3668C32.9189 42.8493 33.4352 42.4841 33.9737 42.1442C34.4461 41.8441 35.0004 41.6991 35.5592 41.7294C35.9297 41.7289 36.2972 41.7958 36.6438 41.9269C36.7385 41.5792 36.8648 41.2409 37.0212 40.9162C37.2523 40.4063 37.6225 39.9719 38.0892 39.6628C38.6674 39.2921 39.283 39.025 39.9848 38.9886C41.5736 38.907 42.8392 39.5116 43.7042 40.8357C44.5494 42.1321 44.7237 43.5941 44.5637 45.1079C44.5063 45.6441 44.343 46.1605 44.2018 46.679C44.1014 47.0487 43.9889 47.4172 43.8818 47.7857H43.8774ZM39.1815 47.4547C39.229 47.49 39.2411 47.5055 39.2577 47.5099C39.9517 47.7063 40.6457 47.9148 41.375 47.9281C41.7546 47.9358 42.1341 47.9214 42.5126 47.917C42.7244 47.917 42.7189 47.9115 42.8105 47.7019C42.9873 47.2589 43.1347 46.8048 43.2518 46.3425C43.4615 45.6033 43.6281 44.864 43.606 44.0817C43.5954 43.4025 43.4662 42.7304 43.2242 42.0957C42.9252 41.3289 42.4673 40.7044 41.7104 40.3303C41.4092 40.1825 41.1069 40.0368 40.7638 40.0159C40.5012 39.9892 40.2368 39.9862 39.9737 40.007C39.1926 40.1008 38.5394 40.4197 38.087 41.0817C37.9314 41.3172 37.7984 41.567 37.6898 41.8276C37.5411 42.121 37.5019 42.4579 37.5795 42.7776C37.5975 42.8561 37.5912 42.9383 37.5615 43.0132C37.5317 43.088 37.4799 43.1521 37.4128 43.1968C37.3542 43.2511 37.2798 43.2852 37.2005 43.2943C37.1211 43.3034 37.0409 43.2871 36.9715 43.2476C36.8174 43.1814 36.6765 43.088 36.5555 42.9718C36.4419 42.8431 36.2847 42.761 36.1142 42.7412C35.6563 42.6827 35.1907 42.6661 34.7637 42.868C34.2648 43.0973 33.8169 43.424 33.4463 43.8291C33.3631 43.8987 33.3085 43.9965 33.2929 44.1038C33.4121 44.1038 33.5136 44.1038 33.6239 44.1038C33.6326 44.103 33.641 44.1002 33.6485 44.0956C33.656 44.091 33.6623 44.0847 33.6669 44.0773C33.7 44.0056 33.7243 43.9284 33.7607 43.8567C33.9549 43.4892 34.3466 43.4263 34.6346 43.7287C34.7812 43.8819 34.9117 44.0498 35.0241 44.2296C35.3275 44.714 35.5945 45.2116 35.3871 45.8162C35.3595 45.8979 35.4058 45.9464 35.4698 45.9894C35.7293 46.1876 36.008 46.3591 36.3018 46.5014C36.6008 46.6305 36.8921 46.7784 37.1845 46.9141C37.2708 46.9577 37.3619 46.9914 37.4559 47.0145C37.4894 47.0208 37.524 47.0192 37.5568 47.0099C37.5897 47.0005 37.6199 46.9837 37.6452 46.9607C37.6704 46.9377 37.69 46.9092 37.7023 46.8773C37.7146 46.8455 37.7194 46.8112 37.7163 46.7773C37.596 46.316 37.671 45.8703 37.8211 45.4311C37.8626 45.3062 37.9329 45.1928 38.0263 45.1001C38.0713 45.0513 38.1255 45.0118 38.1858 44.984C38.2462 44.9563 38.3114 44.9407 38.3777 44.9382C38.4441 44.9358 38.5103 44.9465 38.5725 44.9697C38.6347 44.993 38.6917 45.0283 38.7402 45.0737C38.7932 45.1178 38.8251 45.184 38.9024 45.2061C39.0293 45.1211 39.0403 44.9655 39.1142 44.8475C39.1733 44.754 39.2585 44.6799 39.3594 44.6346C39.4603 44.5893 39.5722 44.5747 39.6814 44.5926C39.8855 44.6323 40.0013 44.7769 40.0311 45.0339C40.0366 45.0759 40.0311 45.1222 40.0797 45.1641C40.169 45.1321 40.2661 45.0935 40.3654 45.0637C40.4303 45.0423 40.4994 45.0367 40.5669 45.0473C40.6344 45.0579 40.6984 45.0846 40.7536 45.1249C40.8087 45.1653 40.8534 45.2182 40.884 45.2794C40.9146 45.3405 40.9301 45.408 40.9293 45.4764C40.9415 45.6806 40.8935 45.8839 40.7913 46.0612C40.5067 46.5025 40.1889 46.9063 39.688 47.1369C39.5139 47.2319 39.3463 47.3381 39.1859 47.4547H39.1815ZM42.3813 48.9476C42.2761 48.9162 42.1649 48.9101 42.0569 48.9299C41.6155 49.0204 41.1742 48.942 40.745 48.8825C40.0399 48.7854 39.3415 48.6485 38.6486 48.493C38.5283 48.4665 38.4081 48.4411 38.2889 48.408C38.2227 48.3849 38.1511 48.3818 38.0832 48.3993C38.0152 48.4168 37.954 48.454 37.9072 48.5062C37.6973 48.7071 37.4722 48.8915 37.2341 49.0579C36.891 49.305 36.5577 49.5654 36.2212 49.8203C36.1749 49.8556 36.1109 49.8854 36.1363 49.9737L36.2709 50.0421C36.9329 50.3665 37.6092 50.6721 38.2569 51.0208C38.9995 51.4191 39.8016 51.6541 40.5806 51.9597C40.7946 52.0436 40.8167 52.0292 40.905 51.8737C41.2029 51.3441 41.503 50.8155 41.7656 50.2661C41.9708 49.838 42.1683 49.4066 42.3824 48.9476H42.3813ZM32.7445 45.9906C32.7354 46.0047 32.728 46.0199 32.7225 46.0358C32.7208 46.0622 32.7208 46.0888 32.7225 46.1152C32.7207 46.5883 32.8643 47.0506 33.134 47.4393C33.495 48.0259 33.9346 48.5605 34.4404 49.0281C34.5043 49.0892 34.5746 49.1432 34.65 49.1892C34.7005 49.2247 34.761 49.2432 34.8227 49.2421C34.8844 49.2409 34.9441 49.22 34.9932 49.1826C35.279 48.9906 35.5758 48.8152 35.8549 48.6154C36.1186 48.4226 36.3648 48.207 36.5908 47.9711C36.6868 47.8729 36.6857 47.8199 36.5688 47.7736C36.4518 47.7272 36.3481 47.6224 36.2378 47.5662C35.7678 47.3422 35.3272 47.0613 34.9259 46.7298C34.8864 46.6875 34.835 46.658 34.7785 46.6454C34.722 46.6328 34.663 46.6376 34.6092 46.6592C34.4625 46.7232 34.3378 46.6702 34.2054 46.6117C33.7398 46.4032 33.2499 46.2487 32.8052 45.9928C32.7843 45.9817 32.7622 45.9895 32.7456 45.9906H32.7445Z" fill="#4E3D35"/>
<path d="M30.7501 23.6424C30.9712 23.4811 31.21 23.3456 31.4618 23.2386C32.0499 22.9572 32.6424 22.6869 33.2272 22.4011C33.3927 22.3217 33.5339 22.2797 33.7082 22.4143C33.8826 22.549 34.1121 22.5103 34.3206 22.4607C34.7233 22.3647 35.1139 22.2235 35.5222 22.1484C35.7903 22.0999 36.0573 22.0469 36.3243 21.9873C36.3615 21.9744 36.4018 21.9729 36.4399 21.9829C36.478 21.9929 36.5123 22.0141 36.5384 22.0436C36.7678 22.2963 37.0702 22.315 37.3703 22.2643C38.0477 22.154 38.7197 22.0127 39.3938 21.8858C39.7922 21.8108 40.1905 21.738 40.5877 21.6652C40.629 21.6519 40.6736 21.6535 40.7139 21.6696C40.7542 21.6857 40.7876 21.7153 40.8084 21.7534C40.8696 21.8398 40.9506 21.9102 41.0447 21.9588C41.1388 22.0074 41.2431 22.0327 41.349 22.0326C42.0187 22.0933 42.6885 22.0502 43.3582 22.0679C43.4716 22.0591 43.5857 22.0666 43.697 22.09C43.7543 22.1517 43.7025 22.2091 43.697 22.2665C43.681 22.408 43.7157 22.5506 43.7949 22.6689C43.874 22.7873 43.9926 22.8738 44.1295 22.9131C44.2649 22.9531 44.4053 22.9739 44.5465 22.9749C44.8776 22.9749 45.2174 22.9749 45.5528 22.9804C45.736 22.9804 45.8937 23.0035 45.9864 23.201C46.0526 23.3423 46.2071 23.3952 46.3538 23.4416C46.4123 23.4603 46.473 23.4692 46.5337 23.4824C46.8338 23.5475 46.8294 23.5486 46.8647 23.8509C46.8732 23.9572 46.9104 24.0591 46.9724 24.1458C47.0344 24.2325 47.1189 24.3007 47.2167 24.343C47.4685 24.4495 47.7335 24.5219 48.0045 24.5582C48.7073 24.674 49.4135 24.7788 50.1009 24.9841C50.252 25.0304 50.4021 25.0834 50.5521 25.133C50.6503 25.1661 50.6912 25.2169 50.6514 25.3316C50.5223 25.7123 50.6801 25.9992 50.9692 26.2353C51.1932 26.4071 51.4292 26.5627 51.6754 26.7009C51.7769 26.7627 51.8431 26.8167 51.8044 26.9712C51.7702 27.1006 51.7743 27.2372 51.8162 27.3643C51.8581 27.4914 51.9361 27.6037 52.0406 27.6873C52.2988 27.908 52.5602 28.1375 52.8284 28.3493C52.9674 28.4596 53.0877 28.5887 53.2167 28.7079C53.2595 28.7385 53.2909 28.7823 53.3063 28.8326C53.3216 28.8828 53.32 28.9367 53.3017 28.9859C53.2643 29.1094 53.2633 29.241 53.2987 29.3651C53.3341 29.4891 53.4045 29.6003 53.5014 29.6855C53.806 29.9809 54.1581 30.2229 54.543 30.4016C54.9119 30.5717 55.2528 30.7972 55.5537 31.0702C55.7214 31.2302 55.7302 31.2445 55.6155 31.4387C55.3815 31.8359 55.3948 32.1504 55.6927 32.5112C55.9906 32.872 56.3404 33.2317 56.5886 33.6532C56.6967 33.8236 56.7778 34.0097 56.8291 34.2048C56.8829 34.4005 56.96 34.5891 57.0586 34.7664C57.1226 34.8922 57.1855 35.0191 57.2418 35.1482C57.3301 35.3534 57.3676 35.53 57.2021 35.7506C56.9814 36.0375 57.041 36.3685 57.2539 36.6609C57.5397 37.0526 57.863 37.4145 58.1708 37.7885C58.7139 38.4632 59.1357 39.2271 59.4176 40.046C59.4366 40.0899 59.4458 40.1374 59.4447 40.1852C59.4435 40.233 59.4321 40.28 59.411 40.323C59.3132 40.5165 59.2629 40.7306 59.2645 40.9474C59.266 41.1643 59.3193 41.3776 59.4198 41.5698C59.6063 41.9493 59.7773 42.3421 59.9483 42.7239C60.0035 42.8538 60.051 42.9868 60.0907 43.1222C60.1218 43.1984 60.1357 43.2805 60.1316 43.3627C60.1274 43.4448 60.1051 43.5251 60.0664 43.5977C59.9472 43.8184 59.9737 44.0777 60.0333 44.3215C60.1527 44.7829 60.3229 45.2295 60.5409 45.6533C60.5915 45.7353 60.6214 45.8283 60.6279 45.9245C60.6345 46.0206 60.6174 46.1169 60.5784 46.205C60.4813 46.4256 60.5122 46.6728 60.5629 46.9078C60.6335 47.2388 60.7648 47.5455 60.863 47.8655C60.8862 47.9416 60.9127 48.0167 60.9392 48.0917C61.0164 48.3124 61.0021 48.4657 60.7704 48.6191C60.3235 48.9148 60.3202 49.3915 60.4007 49.856C60.4647 50.23 60.6159 50.582 60.7417 50.9395C60.7713 51.0029 60.7862 51.0722 60.785 51.1422C60.7839 51.2121 60.7668 51.2809 60.735 51.3433C60.6727 51.4914 60.6704 51.658 60.7284 51.8078C60.808 52.0506 60.9023 52.2882 61.0109 52.5195C61.2323 53.0767 61.3752 53.6619 61.4357 54.2584C61.4489 54.3687 61.4688 54.479 61.4809 54.5982C61.4918 54.6412 61.4854 54.6867 61.4631 54.7251C61.4408 54.7634 61.4045 54.7915 61.3618 54.8034C60.9337 54.9601 60.8487 55.3717 60.9204 55.7678C60.9745 56.0535 61.0506 56.3349 61.1301 56.6129C61.1549 56.6728 61.1582 56.7395 61.1392 56.8015C61.1203 56.8635 61.0804 56.917 61.0263 56.9528C60.7549 57.1867 60.7008 57.5045 60.7648 57.8476C60.8443 58.2713 60.9425 58.6917 61.0252 59.1143C61.0605 59.2952 61.0782 59.4795 61.1058 59.6659C61.113 59.6898 61.115 59.7149 61.1116 59.7396C61.1082 59.7642 61.0995 59.7879 61.0861 59.8089C61.0727 59.8299 61.0548 59.8477 61.0339 59.8611C61.0129 59.8745 60.9892 59.8832 60.9645 59.8866C60.5861 59.9969 60.4504 60.2915 60.4239 60.649C60.3886 61.001 60.4174 61.3566 60.5089 61.6983C60.5347 61.763 60.5394 61.8342 60.5223 61.9018C60.5053 61.9694 60.4674 62.0298 60.414 62.0746C60.1778 62.3019 60.1381 62.6196 60.1094 62.9275C60.0698 63.3483 59.996 63.7653 59.8888 64.1743C59.8524 64.3089 59.8126 64.4027 59.6328 64.4104C59.4011 64.4203 59.2323 64.5748 59.1032 64.7657C58.8626 65.1209 58.728 65.5226 58.5725 65.9165C58.5493 65.9738 58.5305 66.0323 58.5118 66.0908C58.5034 66.1384 58.4784 66.1815 58.4412 66.2124C58.4041 66.2434 58.3571 66.2601 58.3088 66.2596C58.1721 66.2699 58.04 66.3128 57.9234 66.3848C57.8069 66.4568 57.7093 66.5558 57.639 66.6734C57.4923 66.8852 57.3786 67.1147 57.2451 67.3354C57.1899 67.4259 57.1348 67.4876 57.0178 67.4711C56.699 67.4259 56.4783 67.598 56.3558 67.854C56.2333 68.1099 56.0248 68.1474 55.792 68.0967C55.5732 68.061 55.3516 68.0451 55.13 68.0492C54.9927 68.0399 54.8559 68.0736 54.7387 68.1455C54.6214 68.2175 54.5295 68.3242 54.4757 68.4509C54.3653 68.6627 54.3653 68.6649 54.1381 68.5711C53.975 68.5031 53.8029 68.4592 53.6272 68.4409C53.3381 68.4123 53.1197 68.5513 52.9652 68.7918C52.8107 69.0323 52.7831 69.0456 52.4974 68.9893C52.3689 68.9588 52.2389 68.9352 52.1079 68.9187C51.9798 68.9023 51.8497 68.9238 51.7336 68.9805C51.6175 69.0371 51.5206 69.1265 51.4547 69.2376C51.3642 69.3788 51.2925 69.3733 51.1557 69.3137C50.732 69.1272 50.4727 69.2155 50.2112 69.6105C50.081 69.8069 50.0821 69.8036 49.868 69.7208C49.7381 69.6663 49.6032 69.6242 49.4653 69.5951C49.313 69.5657 49.1559 69.5725 49.0066 69.6149C48.8573 69.6572 48.7201 69.7339 48.6058 69.8389C48.5727 69.8687 48.5407 69.8996 48.5076 69.9283C48.309 70.1026 48.3013 70.1092 48.1292 69.9283C47.7981 69.573 47.3921 69.5829 47.0434 69.9283C46.7908 70.1765 46.7886 70.1699 46.4487 70.0265C46.3109 69.968 46.1693 69.9186 46.025 69.8786C45.9038 69.837 45.7749 69.8226 45.6475 69.8365C45.5201 69.8504 45.3973 69.8923 45.288 69.9592C45.265 69.9795 45.2377 69.9944 45.2082 70.0028C45.1787 70.0113 45.1477 70.0131 45.1174 70.0082C45.0871 70.0032 45.0583 69.9916 45.033 69.9742C45.0078 69.9567 44.9867 69.9339 44.9713 69.9073C44.8442 69.7318 44.6734 69.5926 44.4759 69.5035C44.8235 69.4461 45.1733 69.3931 45.5186 69.3291C46.0802 69.2188 46.6407 69.1019 47.167 68.8624C47.3289 68.7926 47.4947 68.7322 47.6635 68.6815C48.2657 68.475 48.8136 68.1356 49.2667 67.6885C49.8635 67.1473 50.3505 66.4962 50.7011 65.7708C50.9266 65.2828 51.1215 64.7813 51.2848 64.2691C51.426 63.8278 51.597 63.3865 51.7018 62.933C51.8353 62.3493 51.9038 61.7546 52.0064 61.1676C52.1046 60.6016 52.0869 60.0256 52.1697 59.4607C52.2645 58.8141 52.2623 58.161 52.3616 57.5166C52.3753 57.385 52.379 57.2526 52.3727 57.1205C52.3727 56.3172 52.3914 55.5129 52.3583 54.7108C52.3352 54.1469 52.3352 53.5831 52.3087 53.0193C52.2581 52.0438 52.1439 51.0726 51.9666 50.112C51.8563 49.4985 51.7901 48.8762 51.7305 48.2539C51.6522 47.4396 51.5518 46.6275 51.437 45.8177C51.3134 44.935 51.1943 44.0523 50.988 43.1917C50.754 42.2075 50.5466 41.2156 50.2002 40.2601C50.1911 40.2257 50.1762 40.1933 50.156 40.1641C49.9354 39.9147 49.8625 39.587 49.7147 39.2968C49.163 38.1813 48.6113 37.0647 48.031 35.9669C47.7959 35.5256 47.5896 35.0644 47.3369 34.6274C46.9502 33.9646 46.5143 33.3317 46.0328 32.7341C45.3972 31.9341 44.7363 31.1552 44.1361 30.3254C43.5945 29.5947 42.9497 28.9465 42.2218 28.4012C41.7959 28.0738 41.3781 27.7358 40.9683 27.3872C40.365 26.8706 39.6835 26.4531 38.9492 26.1503C38.3115 25.8907 37.6825 25.6137 37.0624 25.3195C36.5728 25.097 36.0639 24.9197 35.542 24.7899C35.2266 24.708 34.9164 24.6074 34.613 24.4887C34.001 24.2643 33.3654 24.1107 32.7185 24.0308C32.0553 23.9402 31.398 23.8105 30.7501 23.6424Z" fill="#4E3D35" fill-opacity="0.6"/>
<path d="M39.1863 47.4563C39.3489 47.3375 39.5192 47.2295 39.696 47.1331C40.1925 46.9025 40.5103 46.4964 40.7994 46.0573C40.9015 45.88 40.9495 45.6767 40.9373 45.4725C40.9381 45.4042 40.9226 45.3366 40.892 45.2755C40.8615 45.2144 40.8168 45.1614 40.7616 45.121C40.7065 45.0807 40.6425 45.0541 40.5749 45.0434C40.5074 45.0328 40.4384 45.0384 40.3735 45.0598C40.2742 45.0896 40.1771 45.1283 40.0877 45.1602C40.0347 45.1183 40.0447 45.072 40.0391 45.0301C40.0094 44.7774 39.8935 44.6328 39.6894 44.5887C39.5803 44.5708 39.4683 44.5854 39.3674 44.6307C39.2666 44.676 39.1813 44.7501 39.1223 44.8436C39.0483 44.9616 39.0373 45.1172 38.9104 45.2022C38.8332 45.1845 38.8001 45.1139 38.7482 45.0698C38.6997 45.0244 38.6427 44.9891 38.5805 44.9658C38.5183 44.9426 38.4521 44.9319 38.3858 44.9343C38.3194 44.9368 38.2542 44.9524 38.1939 44.9802C38.1336 45.008 38.0793 45.0474 38.0343 45.0963C37.9409 45.189 37.8706 45.3023 37.8291 45.4273C37.6791 45.8686 37.6084 46.31 37.7243 46.7734C37.7274 46.8074 37.7227 46.8416 37.7103 46.8735C37.698 46.9053 37.6784 46.9338 37.6532 46.9568C37.6279 46.9798 37.5977 46.9966 37.5649 47.006C37.532 47.0153 37.4975 47.0169 37.4639 47.0106C37.3672 46.9903 37.2731 46.9588 37.1837 46.9168C36.8869 46.7811 36.5956 46.6332 36.301 46.5041C36.0072 46.3618 35.7285 46.1903 35.469 45.9922C35.405 45.9492 35.3587 45.9006 35.3863 45.819C35.5937 45.2143 35.3267 44.7156 35.0233 44.2323C34.9109 44.0525 34.7804 43.8847 34.6338 43.7314C34.3458 43.4291 33.9541 43.492 33.7599 43.8594C33.7235 43.9289 33.6993 44.0061 33.6662 44.0801C33.6615 44.0875 33.6552 44.0937 33.6477 44.0983C33.6403 44.1029 33.6318 44.1057 33.6231 44.1065C33.5128 44.1065 33.4124 44.1065 33.2921 44.1065C33.3077 43.9992 33.3623 43.9014 33.4455 43.8318C33.8161 43.4268 34.264 43.1 34.7629 42.8708C35.1899 42.6689 35.6555 42.6854 36.1134 42.7439C36.2839 42.7637 36.4411 42.8458 36.5547 42.9745C36.6757 43.0907 36.8166 43.1841 36.9707 43.2503C37.0401 43.2898 37.1203 43.3062 37.1997 43.297C37.279 43.2879 37.3534 43.2538 37.4121 43.1996C37.4791 43.1548 37.5309 43.0908 37.5607 43.0159C37.5904 42.941 37.5967 42.8588 37.5787 42.7803C37.5012 42.4606 37.5403 42.1237 37.689 41.8303C37.7976 41.5697 37.9306 41.32 38.0862 41.0844C38.5419 40.4224 39.1896 40.1035 39.9729 40.0098C40.236 39.989 40.5004 39.9919 40.763 40.0186C41.1061 40.0395 41.4084 40.1852 41.7096 40.333C42.4665 40.7038 42.9233 41.3261 43.2234 42.0984C43.4654 42.7331 43.5946 43.4053 43.6052 44.0845C43.6273 44.8668 43.4607 45.606 43.251 46.3453C43.1342 46.8072 42.9871 47.2609 42.8108 47.7035C42.7192 47.9131 42.7247 47.9153 42.5129 47.9187C42.1344 47.9187 41.7549 47.9374 41.3753 47.9297C40.646 47.9164 39.952 47.709 39.258 47.5115C39.2458 47.5071 39.2337 47.4917 39.1863 47.4563Z" fill="#4E3D35" fill-opacity="0.6"/>
<path d="M42.3825 48.9473C42.1684 49.4063 41.9709 49.8377 41.7668 50.2647C41.5042 50.8164 41.2041 51.3427 40.9062 51.8723C40.8179 52.0279 40.7959 52.0422 40.5818 51.9583C39.8039 51.6527 39.0007 51.4177 38.2581 51.0194C37.6083 50.6707 36.9341 50.3651 36.2721 50.0407L36.1375 49.9723C36.1132 49.884 36.1761 49.8542 36.2224 49.8189C36.559 49.5641 36.8922 49.3037 37.2353 49.0565C37.4735 48.8901 37.6985 48.7057 37.9084 48.5048C37.9552 48.4526 38.0164 48.4154 38.0844 48.3979C38.1523 48.3804 38.2239 48.3835 38.2901 48.4066C38.4093 48.4397 38.5296 48.4651 38.6498 48.4916C39.3449 48.6472 40.0434 48.784 40.7462 48.8811C41.1787 48.9407 41.6168 49.019 42.0581 48.9285C42.1662 48.9091 42.2774 48.9155 42.3825 48.9473Z" fill="#4E3D35" fill-opacity="0.6"/>
<path d="M32.7459 45.9922C32.7624 45.9922 32.7845 45.9834 32.7966 45.9922C33.238 46.2482 33.7312 46.4027 34.1968 46.6112C34.3292 46.6697 34.4539 46.7215 34.6006 46.6586C34.6544 46.6371 34.7134 46.6323 34.7699 46.6449C34.8264 46.6575 34.8778 46.6869 34.9173 46.7293C35.3186 47.0608 35.7592 47.3417 36.2292 47.5656C36.3494 47.6219 36.4377 47.7234 36.5602 47.773C36.6827 47.8227 36.6782 47.8723 36.5822 47.9705C36.3562 48.2064 36.11 48.4221 35.8463 48.6149C35.5672 48.8146 35.2704 48.9901 34.9846 49.1821C34.9355 49.2195 34.8758 49.2403 34.8141 49.2415C34.7524 49.2427 34.6919 49.2242 34.6414 49.1887C34.566 49.1427 34.4957 49.0886 34.4318 49.0276C33.926 48.56 33.4865 48.0254 33.1254 47.4387C32.8557 47.05 32.7121 46.5878 32.7139 46.1147C32.7122 46.0882 32.7122 46.0617 32.7139 46.0352C32.7227 46.0196 32.7334 46.0051 32.7459 45.9922Z" fill="#4E3D35" fill-opacity="0.6"/>
<path d="M35.9156 29.4949C35.5349 29.4832 35.1611 29.3895 34.8199 29.2202C34.2826 28.9377 34.0586 28.4478 34.1833 27.8498C34.2538 27.4749 34.443 27.1326 34.7228 26.8733C34.9175 26.6906 35.1731 26.5868 35.44 26.5821C35.6426 26.5813 35.8446 26.6027 36.0425 26.646C36.1997 26.6758 36.343 26.756 36.4507 26.8744C36.571 27.0024 36.7045 27.1172 36.8237 27.2474C37.0403 27.4992 37.1651 27.8171 37.1775 28.149C37.1899 28.4809 37.0893 28.8073 36.8921 29.0746C36.6493 29.3791 36.3216 29.5016 35.9156 29.4949ZM35.5548 28.4037C35.6876 28.4498 35.8269 28.474 35.9674 28.4754C36.0348 28.4754 36.0932 28.4556 36.1109 28.3883C36.1536 28.2787 36.1632 28.159 36.1385 28.044C35.9634 28.193 35.7666 28.3143 35.5548 28.4037Z" fill="#4E3D35"/>
<path d="M30.6735 34.8966C30.1362 34.8812 29.7125 34.7565 29.3495 34.4652C29.2618 34.4041 29.1869 34.3265 29.1288 34.2368C29.0779 34.1535 29.0556 34.0557 29.0654 33.9585C29.0751 33.8613 29.1164 33.77 29.1829 33.6984C29.2497 33.6271 29.3382 33.58 29.4346 33.5644C29.5311 33.5488 29.63 33.5657 29.7158 33.6123C29.793 33.6532 29.8603 33.7127 29.9365 33.758C30.2984 33.9709 30.7783 34.0283 31.1502 33.6399C31.3366 33.4424 31.5452 33.2681 31.682 33.022C31.7399 32.9105 31.8396 32.8264 31.9593 32.7882C32.079 32.7499 32.209 32.7606 32.3208 32.8179C32.4382 32.8725 32.5303 32.9698 32.5782 33.09C32.6262 33.2101 32.6265 33.3441 32.579 33.4645C32.5662 33.5067 32.5481 33.5471 32.5249 33.5847C32.1807 34.1221 31.7581 34.5723 31.1491 34.8106C30.9981 34.8714 30.8362 34.9007 30.6735 34.8966Z" fill="#4E3D35"/>
</svg>
