<svg width="41" height="41" viewBox="0 0 41 41" fill="none" xmlns="http://www.w3.org/2000/svg">
<path d="M7.22807 33.9348L1.92974 28.7047C1.65497 28.4287 1.50151 28.0537 1.50151 27.661L1.5 7.54199L1.51466 5.51818C1.51466 5.32775 1.53658 5.13585 1.61258 4.9528C1.83912 4.40071 2.37259 4.04199 2.96305 4.04199H31.3472C31.7345 4.04199 32.1072 4.19699 32.3805 4.47452L39.0703 10.3778C39.3363 10.645 39.5 11.014 39.5 11.4229V24.7087V27.661V32.9369C39.5 34.1194 39.4999 35.042 37.4422 35.042H10.4241C8.23287 35.042 8.14046 34.8575 7.22807 33.9348ZM7.50103 30.0023V12.0341L4.5 9.0738V27.042L7.50103 30.0023ZM9.56765 9.94675H19.7898L16.8668 6.99437H6.64457L9.56765 9.94675ZM30.7421 6.99437H21L23.9231 9.94675H33.6652L30.7421 6.99437ZM36.5 32.0896V12.8991H24.7795V20.2801H21.8565V12.8991H10.4241V32.0896H36.5Z" fill="#4E3D35"/>
</svg>
