<svg width="85" height="84" viewBox="0 0 85 84" fill="none" xmlns="http://www.w3.org/2000/svg">
<g clip-path="url(#clip0)">
<g clip-path="url(#clip1)">
<path d="M41.3386 36.2864C40.8723 35.7922 40.0933 35.7696 39.599 36.2354L36.0992 39.5348C33.9505 37.9907 30.2384 36.9115 26.3457 36.7624C23.1675 36.6398 17.181 37.059 12.7579 41.229C8.20203 45.5239 4.75442 52.2815 2.51037 61.314C0.85482 67.9777 0.515866 73.3281 0.502249 73.5527C0.481741 73.8917 0.602163 74.2242 0.835132 74.4713C1.06761 74.7179 1.39163 74.8577 1.73042 74.8577H1.73255C1.95748 74.8573 7.31872 74.8339 14.0682 73.5737C23.2172 71.8655 30.1661 68.8216 34.7219 64.5265C39.145 60.3565 39.9153 54.403 39.9808 51.2253C40.061 47.3304 39.2025 43.5613 37.7874 41.3253L41.2872 38.0258C41.7818 37.5597 41.8047 36.7809 41.3386 36.2864ZM33.0339 62.7361C24.4391 70.8386 7.90065 72.147 3.07721 72.357C3.56858 67.5567 5.84199 51.1313 14.4459 43.0195C20.2441 37.5538 30.4448 38.8961 34.2681 41.2611L22.7642 52.1065L15.9617 51.906C15.2753 51.8835 14.7155 52.4205 14.6955 53.0997C14.6754 53.7789 15.21 54.3457 15.8892 54.3658L20.2319 54.4937L17.0166 57.525C16.522 57.9911 16.4992 58.7699 16.9653 59.2643C17.2074 59.5211 17.5337 59.6507 17.8607 59.6507C18.1636 59.6507 18.4669 59.5396 18.7047 59.3155L28.372 50.2015L28.1517 57.678C28.1317 58.3572 28.6662 58.9242 29.3454 58.9441C29.3577 58.9444 29.37 58.9446 29.3823 58.9446C30.0451 58.9446 30.592 58.4173 30.6117 57.7504L30.9045 47.8139L35.9562 43.0514C38.0921 47.0077 38.8315 57.2702 33.0339 62.7361Z" fill="#4E3D35"/>
<path d="M14.4551 61.6314C13.989 61.1369 13.21 61.1143 12.7157 61.5802L11.6399 62.5943C11.1453 63.0604 11.1225 63.8392 11.5886 64.3337C11.8307 64.5904 12.157 64.72 12.484 64.72C12.7869 64.72 13.0902 64.609 13.328 64.3849L14.4037 63.3708C14.8984 62.9047 14.9212 62.1259 14.4551 61.6314Z" fill="#4E3D35"/>
<path d="M84.4691 53.4138C84.4304 53.244 83.4951 49.2 81.391 44.3257C78.5307 37.6999 75.0301 32.9616 70.986 30.2424C67.0183 27.5749 62.334 28.0157 59.8944 28.5163C57.0211 29.1058 54.3792 30.3471 52.8643 31.7616L49.982 29.8237C49.418 29.4446 48.6533 29.5942 48.2745 30.1584C47.8952 30.7223 48.0451 31.4868 48.609 31.8661L51.4894 33.8029C49.8509 38.0665 50.9894 47.1702 56.9224 51.1594C62.1717 54.6889 69.4456 55.5057 75.0559 55.5057C79.669 55.5057 83.1576 54.9532 83.4683 54.9023C83.8035 54.8475 84.1011 54.6564 84.2906 54.3745C84.4801 54.0925 84.5448 53.7449 84.4691 53.4138ZM73.9414 53.0205C69.3104 52.9252 62.8368 52.1705 58.2954 49.1171C55.0731 46.9505 53.944 43.1562 53.5576 41.0874C53.1219 38.7535 53.2392 36.6111 53.6114 35.2297L63.2855 41.7342L64.2699 46.7579C64.3849 47.3449 64.8997 47.7521 65.4763 47.7521C65.5547 47.7521 65.6343 47.7446 65.7142 47.7288C66.3809 47.5982 66.8157 46.9517 66.6851 46.2848L66.174 43.6762L68.4274 45.1913C68.6381 45.3329 68.8766 45.4008 69.1129 45.4008C69.5088 45.4008 69.8976 45.21 70.135 44.8568C70.5143 44.2929 70.3643 43.5283 69.8005 43.149L65.0897 39.9818C65.0848 39.9784 65.0797 39.9751 65.0746 39.9716L61.8846 37.8268L66.8608 36.852C67.5275 36.7214 67.9623 36.0748 67.8317 35.4079C67.7011 34.7412 67.0559 34.3062 66.3875 34.437L58.9964 35.885L54.9846 33.1875C56.1234 32.3214 58.0631 31.4044 60.389 30.9274C62.4506 30.5042 66.3904 30.1184 69.6131 32.285C74.1438 35.3313 77.2806 41.0226 79.1141 45.2607C80.4404 48.3262 81.2947 51.097 81.7283 52.652C80.1339 52.8363 77.2684 53.0888 73.9414 53.0205Z" fill="#4E3D35"/>
<path d="M74.519 46.3214L73.575 45.6866C73.0109 45.3073 72.2461 45.4571 71.8673 46.0211C71.4879 46.5852 71.6379 47.3497 72.2016 47.7289L73.1456 48.3636C73.3563 48.5054 73.595 48.5731 73.8312 48.5731C74.2271 48.5731 74.6159 48.3823 74.8533 48.0291C75.2327 47.4651 75.0829 46.7005 74.519 46.3214Z" fill="#4E3D35"/>
<path d="M51.6315 13.5669C51.379 12.9359 50.6629 12.6291 50.0321 12.8814L47.7396 13.7984C46.764 12.501 45.0301 11.2106 42.9846 10.3124C39.8745 8.94688 36.7242 8.77019 34.1131 9.81461C25.7459 13.1615 20.2567 24.7746 20.0273 25.2673C19.8838 25.5751 19.874 25.9287 20.0001 26.244C20.1264 26.5593 20.3771 26.8085 20.6934 26.9326C21.0659 27.0786 27.651 29.6201 34.4383 29.6201C36.8756 29.6201 39.3398 29.2921 41.5505 28.4078C44.1618 27.3634 46.3213 25.0624 47.6314 21.9291C48.5015 19.8479 48.8659 17.6963 48.6649 16.0787L50.9459 15.1663C51.5769 14.914 51.8839 14.1979 51.6315 13.5669ZM45.3607 20.9794C44.7509 22.4389 43.3257 25.0472 40.6366 26.1229C34.6566 28.5146 26.096 26.1472 22.8786 25.0918C24.478 22.1088 29.0368 14.4955 35.0271 12.0993C38.7981 10.5913 43.4614 12.8542 45.3376 14.7591L37.4034 17.9328L33.9479 16.4234C33.3253 16.1515 32.5999 16.4358 32.3278 17.0585C32.0558 17.6812 32.3401 18.4066 32.9629 18.6786L34.1941 19.2164L30.5503 20.6739C29.9193 20.9262 29.6124 21.6424 29.8647 22.2734C30.0571 22.7544 30.5191 23.0471 31.0076 23.0471C31.1598 23.0471 31.3144 23.0187 31.4641 22.9586L40.0549 19.5224L38.7662 22.5293C38.4985 23.154 38.7879 23.8774 39.4125 24.145C39.5705 24.2127 39.7349 24.2447 39.8965 24.2447C40.3739 24.2447 40.8282 23.9652 41.028 23.4987L43.2862 18.2297L46.2591 17.0406C46.2475 18.0784 45.9791 19.5005 45.3607 20.9794Z" fill="#4E3D35"/>
</g>
</g>
<defs>
<clipPath id="clip0">
<rect width="84" height="84" fill="white" transform="translate(0.5)"/>
</clipPath>
<clipPath id="clip1">
<rect width="84" height="84" fill="white" transform="translate(0.5)"/>
</clipPath>
</defs>
</svg>
