<svg width="85" height="84" viewBox="0 0 85 84" fill="none" xmlns="http://www.w3.org/2000/svg">
<g clip-path="url(#clip0)">
<g clip-path="url(#clip1)">
<path d="M41.1849 40.8564C39.0561 40.8564 37.3242 42.5884 37.3242 44.7172C37.3242 46.8462 39.0562 48.578 41.1849 48.578C43.3136 48.578 45.0457 46.846 45.0457 44.7172C45.0457 42.5884 43.3136 40.8564 41.1849 40.8564ZM41.1849 46.1171C40.413 46.1171 39.7852 45.4891 39.7852 44.7172C39.7852 43.9452 40.4132 43.3174 41.1849 43.3174C41.9567 43.3174 42.5847 43.9452 42.5847 44.7172C42.5847 45.4891 41.9567 46.1171 41.1849 46.1171Z" fill="#4E3D35"/>
<path d="M62.2272 17.1842H61.7316C61.3396 16.3439 60.591 14.9879 59.3533 13.6378C57.5365 11.656 54.2787 9.29346 49.0758 9.29346C48.3962 9.29346 47.8453 9.84422 47.8453 10.5239C47.8453 11.1803 48.3593 11.7168 49.0069 11.7524C49.4261 11.8322 50.4757 12.8029 50.4757 16.369C50.4757 18.6626 51.4114 20.1508 52.2958 21.0451C51.4112 21.9394 50.4757 23.4276 50.4757 25.7212C50.4757 29.2871 49.4261 30.2579 49.0069 30.3378C48.3593 30.3735 47.8453 30.9098 47.8453 31.5663C47.8453 32.246 48.3962 32.7967 49.0758 32.7967C54.2787 32.7967 57.5365 30.4342 59.3533 28.4523C60.591 27.1023 61.3396 25.7463 61.7316 24.906H64.2001C67.51 24.906 70.2029 27.5989 70.2029 30.9089C70.2029 34.2188 67.51 36.9117 64.2001 36.9117H6.99097C3.41195 36.9114 0.5 39.8232 0.5 43.4022C0.5 52.6238 4.70525 61.1201 12.0375 66.7125C17.2311 70.6738 23.4144 72.7367 29.7405 72.7367C32.3455 72.7367 34.9751 72.3868 37.5693 71.6756L46.9942 69.0913C48.379 70.8691 50.3264 72.7528 53.0202 74.2314C53.5993 74.5493 54.2298 74.7065 54.858 74.7065C55.6445 74.7065 56.4276 74.4601 57.1026 73.9738C58.3294 73.0898 58.9241 71.6201 58.6547 70.1383L57.9196 66.0955L65.8384 63.9243C76.8261 60.9116 84.5 50.85 84.5 39.457C84.5 27.1754 74.5084 17.1842 62.2272 17.1842ZM49.011 11.7526C49.0325 11.7536 49.054 11.7542 49.0758 11.7542C49.0758 11.7542 49.0523 11.7573 49.011 11.7526ZM49.011 30.3371C49.0287 30.335 49.0431 30.3343 49.0538 30.3343C49.0681 30.3343 49.0758 30.3355 49.0758 30.3355C49.054 30.3356 49.0325 30.3361 49.011 30.3371ZM13.5298 64.7559C7.49382 60.1522 3.77321 53.3997 3.08054 45.9478H8.14466C9.27767 53.5217 13.2664 60.2262 19.4446 64.9006C22.9631 67.5627 26.9229 69.3615 31.0837 70.2382C24.8275 70.5519 18.6527 68.6632 13.5298 64.7559ZM19.4536 53.1725C21.9042 57.9767 25.6477 62.0202 30.2793 64.8655C32.8743 66.4597 35.6752 67.6305 38.5837 68.3507C32.2661 68.7162 26.0824 66.8367 20.9297 62.9381C15.3695 58.7312 11.746 52.7318 10.6364 45.9476H16.9084V45.9478C17.03 46.5279 17.1676 47.1056 17.3231 47.6731C17.4729 48.2196 17.9686 48.5787 18.5091 48.5787C18.6168 48.5787 18.7262 48.5644 18.8351 48.5346C19.4906 48.3549 19.8763 47.678 19.6966 47.0226C19.5995 46.668 19.5101 46.3089 19.4272 45.9478H29.4987C29.6375 47.5538 30.0703 50.5399 31.4207 53.7966C33.2237 58.1454 37.0585 63.7814 45.0919 66.1539C45.1916 66.3426 45.2973 66.5363 45.4124 66.7373C35.4855 66.685 26.1851 60.9535 21.6459 52.0541C21.3369 51.449 20.596 51.2085 19.9906 51.5172C19.3852 51.826 19.1449 52.5669 19.4536 53.1725ZM65.1875 61.5508L57.4776 63.6647L56.862 60.279C56.7405 59.6103 56.1001 59.166 55.4312 59.2885C54.7627 59.4101 54.3192 60.0508 54.4408 60.7193L56.2335 70.5787C56.3329 71.1258 56.1201 71.6485 55.6639 71.9771C55.2209 72.2964 54.6752 72.3325 54.2042 72.0739C48.1193 68.7344 46.3397 62.8804 46.3127 62.789C46.1248 62.137 45.4449 61.7603 44.7921 61.9462C44.2471 62.1021 43.8949 62.602 43.9009 63.1427C39.1979 61.2588 35.7805 57.8336 33.7264 52.9324C32.5363 50.0927 32.1193 47.4352 31.9731 45.9478H33.294C33.9735 45.9478 34.5244 45.397 34.5244 44.7173C34.5244 44.0376 33.9735 43.4869 33.294 43.4869H2.96209C2.96192 43.4586 2.96094 43.4306 2.96094 43.4022C2.96094 41.18 4.76891 39.3722 6.99097 39.3722H64.1999C68.8668 39.3722 72.6637 35.5753 72.6637 30.9084C72.6637 26.2414 68.8668 22.4445 64.1999 22.4445H60.9119C60.3823 22.4445 59.9121 22.7833 59.7446 23.2859C59.7246 23.3461 57.955 28.445 52.3167 29.9325C52.6881 28.9244 52.9365 27.5618 52.9365 25.7209C52.9365 23.1019 54.7715 22.2001 54.8362 22.1692C55.2805 21.9717 55.5737 21.5342 55.5737 21.0479C55.5737 20.5616 55.2939 20.124 54.8496 19.9265C54.7715 19.8894 52.9367 18.9877 52.9367 16.3687C52.9367 14.5234 52.6871 13.1591 52.3144 12.1503C57.9019 13.6022 59.6623 18.5613 59.7449 18.8037C59.9124 19.3062 60.3826 19.645 60.9122 19.645H62.2274C73.1515 19.6451 82.0391 28.5327 82.0391 39.457C82.0391 49.745 75.1096 58.8305 65.1875 61.5508Z" fill="#4E3D35"/>
</g>
</g>
<defs>
<clipPath id="clip0">
<rect width="84" height="84" fill="white" transform="translate(0.5)"/>
</clipPath>
<clipPath id="clip1">
<rect width="84" height="84" fill="white" transform="translate(0.5)"/>
</clipPath>
</defs>
</svg>
