<svg width="85" height="84" viewBox="0 0 85 84" fill="none" xmlns="http://www.w3.org/2000/svg">
<g clip-path="url(#clip0)">
<path d="M75.1219 28.8618C75.1174 28.8468 75.1113 28.8325 75.1062 28.818C74.7577 24.5449 72.8814 20.5661 69.8042 17.5755C71.4216 16.6826 72.77 15.5679 73.8261 14.2478C76.2494 11.2188 76.2773 8.16844 76.2773 8.04003C76.2773 7.67963 76.0906 7.34487 75.784 7.15531C75.4771 6.96575 75.0943 6.94869 74.772 7.10983C72.0141 8.48877 68.3246 8.73491 64.4184 8.99548C61.9078 9.16299 59.3457 9.33439 56.8389 9.80129C52.457 7.94393 47.8032 7 43.0009 7C38.1993 7 33.5442 7.94338 29.1613 9.80102C26.6549 9.33425 24.0933 9.16285 21.583 8.99548C17.6768 8.73491 13.9873 8.48877 11.2294 7.10983C10.9072 6.94869 10.5243 6.96575 10.2175 7.15531C9.91094 7.34487 9.72429 7.67963 9.72429 8.04003C9.72429 8.16844 9.75216 11.2187 12.1754 14.2478C13.2316 15.5679 14.58 16.6826 16.1975 17.5755C13.1192 20.5659 11.2436 24.5419 10.8954 28.8178C10.8902 28.8325 10.8843 28.8467 10.8797 28.8616C10.7417 29.3215 7.50098 40.1762 7.50098 44.723C7.50098 45.2973 7.9665 45.763 8.54101 45.763H10.8359V48.0577C10.8359 48.5349 11.1606 48.9509 11.6237 49.0667C11.7691 49.103 13.1952 49.4498 15.4156 49.6641C16.0732 56.4159 19.1743 62.6638 24.1799 67.2956C26.1754 69.1421 28.4055 70.6644 30.7963 71.838L23.2547 72.4665C21.952 72.5751 20.8434 73.4465 20.43 74.6866L19.782 76.6306C19.6003 77.1756 19.8948 77.7645 20.4397 77.9462C20.5488 77.9825 20.6598 77.9999 20.7688 77.9999C21.2042 77.9999 21.6099 77.7242 21.7553 77.2885L22.4033 75.3445C22.5532 74.8947 22.955 74.5788 23.4275 74.5395L24.1751 74.4772V76.9596C24.1751 77.5339 24.6406 77.9996 25.2151 77.9996C25.7896 77.9996 26.2551 77.5339 26.2551 76.9596V74.3039L27.6414 74.1884L28.6749 77.2886C28.8203 77.7245 29.2262 78 29.6615 78C29.7705 78 29.8814 77.9827 29.9905 77.9463C30.5355 77.7647 30.8299 77.1756 30.6482 76.6308L29.7747 74.0107L35.2241 73.5566C37.7256 74.286 40.3401 74.665 43.0008 74.665C45.6615 74.665 48.276 74.2861 50.7775 73.5566L56.2268 74.0107L55.3533 76.6308C55.1717 77.1757 55.4661 77.7647 56.011 77.9463C56.1202 77.9827 56.2311 78 56.3401 78C56.7755 78 57.1813 77.7243 57.3266 77.2886L58.3601 74.1884L59.7464 74.3039V76.9596C59.7464 77.5339 60.212 77.9996 60.7865 77.9996C61.361 77.9996 61.8265 77.5339 61.8265 76.9596V74.4772L62.5741 74.5395C63.0464 74.5788 63.4484 74.8949 63.5983 75.3445L64.2463 77.2885C64.3916 77.7243 64.7974 77.9999 65.2328 77.9999C65.3418 77.9999 65.4528 77.9825 65.5619 77.9462C66.1067 77.7645 66.4013 77.1756 66.2196 76.6306L65.5716 74.6865C65.1582 73.4465 64.0494 72.5751 62.7469 72.4665L55.2052 71.838C57.5961 70.6644 59.8262 69.1421 61.8216 67.2956C66.8273 62.6638 69.9285 56.4159 70.5859 49.664C72.8062 49.4497 74.2326 49.103 74.3779 49.0667C74.8409 48.951 75.1657 48.535 75.1657 48.0577V45.763H77.4606C78.0351 45.763 78.5006 45.2973 78.5006 44.723C78.5006 40.1762 75.26 29.3216 75.1219 28.8618ZM43.0009 9.08007C46.5422 9.08007 49.9966 9.6256 53.3096 10.7009C52.865 10.8499 52.4239 11.0127 51.9871 11.1927C48.0454 12.8174 45.0899 15.5542 43.0009 19.5234C40.912 15.5541 37.9565 12.8174 34.0148 11.1927C33.5782 11.0127 33.1372 10.8501 32.6928 10.701C36.0058 9.62601 39.4605 9.08007 43.0009 9.08007ZM18.2348 18.5252C19.5379 19.0357 20.9766 19.4302 22.5428 19.7071C18.8733 21.8019 16.394 25.7528 16.394 30.2721C16.394 36.9749 21.8471 42.4281 28.55 42.4281C35.253 42.4281 40.7061 36.9749 40.7061 30.2721C40.7061 23.5691 35.253 18.1159 28.55 18.1159C21.6752 18.1159 16.6021 16.3628 13.879 13.0461C12.8972 11.8503 12.3798 10.6419 12.1074 9.71185C14.8756 10.6326 18.0842 10.8466 21.4448 11.0707C29.498 11.6079 37.8256 12.1633 42.0397 22.3739C42.2052 22.7751 42.5927 23.0175 43.0015 23.0175C43.1336 23.0175 43.2681 22.9921 43.3978 22.9386C43.6642 22.8286 43.8604 22.6207 43.9623 22.3739H43.9625C48.1765 12.1633 56.504 11.6078 64.5574 11.0707C67.9179 10.8465 71.1262 10.6326 73.8946 9.71185C73.6219 10.6423 73.1046 11.8506 72.1231 13.0459C69.4 16.3627 64.3269 18.1157 57.4521 18.1157C50.7492 18.1157 45.2961 23.569 45.2961 30.2719C45.2961 36.9747 50.7492 42.428 57.4521 42.428C64.1551 42.428 69.6082 36.9747 69.6082 30.2719C69.6082 28.4136 69.1995 26.6294 68.3934 24.9693C68.1426 24.4527 67.5203 24.2371 67.0036 24.4878C66.4868 24.7387 66.2715 25.3609 66.5222 25.8776C67.1896 27.2525 67.5281 28.7309 67.5281 30.2718C67.5281 35.8276 63.008 40.3478 57.4521 40.3478C51.8963 40.3478 47.3761 35.8276 47.3761 30.2718C47.3761 24.7158 51.8963 20.1957 57.4521 20.1957C59.6532 20.1957 61.744 20.8923 63.4985 22.2106C63.9576 22.5558 64.6096 22.4631 64.9546 22.0038C65.2997 21.5445 65.207 20.8926 64.7479 20.5476C64.3358 20.238 63.9078 19.9576 63.467 19.7055C65.0305 19.4285 66.4669 19.0343 67.7681 18.5245C71.1538 21.4985 73.0862 25.7518 73.0862 30.2718C73.0862 38.8924 66.0729 45.9058 57.4523 45.9058C53.5062 45.9058 49.7752 44.443 46.8843 41.7766L47.31 40.6413C47.4531 40.2596 47.3599 39.8291 47.0716 39.5407L45.3087 37.7779C44.0362 36.5057 41.9662 36.5057 40.6937 37.7779L38.9309 39.5407C38.6426 39.8291 38.5494 40.2594 38.6926 40.6413L39.1183 41.7766C36.2274 44.4433 32.4981 45.9057 28.5503 45.9057C19.9297 45.9057 12.9164 38.8923 12.9164 30.2716C12.9159 25.7482 14.8479 21.4992 18.2348 18.5252ZM28.55 20.1961C34.1059 20.1961 38.626 24.7162 38.626 30.2722C38.626 35.8281 34.1059 40.3482 28.55 40.3482C22.9941 40.3482 18.474 35.8281 18.474 30.2722C18.474 24.7162 22.9941 20.1961 28.55 20.1961ZM45.1269 40.5386L43.0009 46.2076L40.875 40.5384L42.1642 39.2493C42.6257 38.7881 43.3763 38.7881 43.8375 39.2493L45.1269 40.5386ZM12.9159 47.2107V44.723C12.9159 44.1486 12.4503 43.6829 11.8759 43.6829H9.63152C9.83925 41.2882 10.6526 37.7222 11.4123 34.7596C13.0138 40.8712 17.8062 45.7039 23.894 47.3641C18.9434 48.1267 14.6301 47.5263 12.9159 47.2107ZM43.0008 72.5846C39.3418 72.5846 35.8617 70.9527 32.9364 67.8655C30.0402 64.8091 27.8976 60.4634 26.9033 55.6289C26.7875 55.0663 26.2372 54.7044 25.6751 54.8197C25.1123 54.9354 24.7501 55.4854 24.8658 56.048C25.9373 61.257 28.2673 65.962 31.4266 69.2962C31.7715 69.66 32.124 70.0052 32.4827 70.3334C29.9789 69.2067 27.6511 67.6736 25.5926 65.7688C21.0472 61.563 18.1993 55.9176 17.5211 49.8055C17.9695 49.8227 18.436 49.8327 18.92 49.8327C20.5204 49.8327 22.3018 49.7265 24.1773 49.4356C24.1824 50.1117 24.206 50.7914 24.2497 51.4604C24.2857 52.0104 24.7432 52.4325 25.2865 52.4325C25.3094 52.4325 25.3324 52.4318 25.3556 52.4302C25.9287 52.3926 26.363 51.8975 26.3254 51.3244C26.2787 50.6127 26.2551 49.8876 26.2551 49.1693C26.2551 49.1263 26.256 49.0833 26.2562 49.0404C27.4899 48.7623 28.7486 48.3982 30.0108 47.9257C33.6623 47.6283 37.0912 46.218 39.899 43.8599L42.027 49.5344C42.1793 49.9403 42.5673 50.2094 43.0008 50.2094C43.4343 50.2094 43.8224 49.9405 43.9745 49.5344L46.1026 43.8599C48.9105 46.2177 52.3404 47.6279 55.9907 47.9256C57.253 48.398 58.5118 48.7623 59.7453 49.0404C59.7455 49.0833 59.7464 49.1263 59.7464 49.1693C59.7464 62.0806 52.2343 72.5846 43.0008 72.5846ZM60.409 65.7689C58.3547 67.6698 56.0321 69.2005 53.5341 70.3265C54.5617 69.3849 55.5276 68.2982 56.4183 67.0736C59.8599 62.3414 61.7742 56.0866 61.8241 49.4356C63.6997 49.7265 65.481 49.8326 67.0817 49.8326C67.5657 49.8326 68.0322 49.8226 68.4806 49.8054C67.8023 55.9176 64.9544 61.563 60.409 65.7689ZM74.1258 43.6829C73.5513 43.6829 73.0858 44.1486 73.0858 44.723V47.2118C71.3723 47.5294 67.0615 48.1329 62.1023 47.3655C68.1926 45.7067 72.9873 40.8729 74.5894 34.7596C75.3492 37.7222 76.1623 41.2884 76.3702 43.6829H74.1258Z" fill="#4E3D35"/>
<path d="M28.5494 23.6743C25.5243 23.6743 23.063 26.1356 23.063 29.1608V31.384C23.063 34.4093 25.5243 36.8704 28.5494 36.8704C31.5745 36.8704 34.0358 34.4091 34.0358 31.384V29.1608C34.0356 26.1356 31.5745 23.6743 28.5494 23.6743ZM31.9555 31.384C31.9555 33.2623 30.4274 34.7903 28.5492 34.7903C26.6711 34.7903 25.1429 33.2622 25.1429 31.384V29.1608C25.1429 27.2825 26.6711 25.7544 28.5492 25.7544C30.4274 25.7544 31.9555 27.2825 31.9555 29.1608V31.384Z" fill="#4E3D35"/>
<path d="M57.4507 23.6743C54.4256 23.6743 51.9644 26.1356 51.9644 29.1608V31.384C51.9644 34.4093 54.4256 36.8704 57.4507 36.8704C60.4758 36.8704 62.9371 34.4091 62.9371 31.384V29.1608C62.9372 26.1355 60.4758 23.6743 57.4507 23.6743ZM60.8572 31.384C60.8572 33.2623 59.329 34.7903 57.4509 34.7903C55.5727 34.7903 54.0446 33.2622 54.0446 31.384V29.1608C54.0446 27.2825 55.5727 25.7544 57.4509 25.7544C59.329 25.7544 60.8572 27.2825 60.8572 29.1608V31.384Z" fill="#4E3D35"/>
<path d="M28.5493 28.1206C27.9748 28.1206 27.5093 28.5863 27.5093 29.1606V31.3838C27.5093 31.9582 27.9749 32.4238 28.5493 32.4238C29.1238 32.4238 29.5893 31.9582 29.5893 31.3838V29.1606C29.5893 28.5863 29.1238 28.1206 28.5493 28.1206Z" fill="#4E3D35"/>
<path d="M57.4507 28.1206C56.8762 28.1206 56.4106 28.5863 56.4106 29.1606V31.3838C56.4106 31.9582 56.8762 32.4238 57.4507 32.4238C58.0252 32.4238 58.4907 31.9582 58.4907 31.3838V29.1606C58.4907 28.5863 58.0252 28.1206 57.4507 28.1206Z" fill="#4E3D35"/>
</g>
<defs>
<clipPath id="clip0">
<rect width="71" height="71" fill="white" transform="translate(7.5 7)"/>
</clipPath>
</defs>
</svg>
