<svg width="85" height="84" viewBox="0 0 85 84" fill="none" xmlns="http://www.w3.org/2000/svg">
<g clip-path="url(#clip0)">
<g clip-path="url(#clip1)">
<path d="M18.8275 44.7153C16.6986 44.7153 14.9668 46.4473 14.9668 48.576C14.9668 50.7048 16.6988 52.4368 18.8275 52.4368C20.9562 52.4368 22.6882 50.7048 22.6882 48.576C22.6882 46.4473 20.9562 44.7153 18.8275 44.7153ZM18.8275 49.976C18.0556 49.976 17.4277 49.3481 17.4277 48.5762C17.4277 47.8043 18.0558 47.1764 18.8275 47.1764C19.5993 47.1764 20.2273 47.8043 20.2273 48.5762C20.2273 49.3481 19.5993 49.976 18.8275 49.976Z" fill="#4E3D35"/>
<path d="M80.9182 40.8307L84.1394 37.6097C84.388 37.3611 84.5184 37.0184 84.4979 36.6678C84.4774 36.317 84.3081 35.9919 84.0323 35.7741C83.7929 35.585 78.9058 31.7505 73.8325 29.7345L76.3563 28.1679C76.7249 27.939 76.9459 27.5331 76.9377 27.0994C76.9295 26.6654 76.6936 26.2682 76.3166 26.0533C76.0464 25.8994 70.1908 22.6149 61.5393 21.7311L63.8853 19.5591C64.1968 19.2705 64.3378 18.8415 64.2577 18.4242C64.1776 18.007 63.8879 17.6607 63.4915 17.508C63.1424 17.3736 55.4658 14.493 46.54 17.1482L47.6272 13.4107C47.7496 12.9902 47.639 12.536 47.3371 12.2188C47.0349 11.9013 46.5869 11.7686 46.161 11.8698C45.7569 11.9659 36.6918 14.1875 28.772 21.4814L28.2068 19.8887C28.0848 19.5449 27.8167 19.2729 27.4748 19.1464C27.1329 19.0196 26.7523 19.0511 26.4358 19.2322C26.2967 19.3118 22.9961 21.2246 20.049 24.8691C16.2267 29.5964 14.7857 35.0565 15.8625 40.6955C15.862 40.6957 15.8615 40.6958 15.861 40.696C13.0048 41.7801 9.76756 43.0093 5.56084 43.4052C2.98375 43.6478 1.7354 45.0415 1.14182 46.1681C0.523636 47.341 0.500667 48.4476 0.500011 48.57C0.499191 48.7631 0.543652 48.9536 0.629948 49.1263C2.90779 53.682 8.00504 57.6374 15.3708 60.5648C17.2926 61.3286 19.3629 62.0162 21.5425 62.6213V65.4085L20.5103 65.5375C18.8494 65.7452 17.5969 67.1638 17.5969 68.8378C17.5969 70.6718 19.0889 72.1636 20.923 72.1636H34.6092C36.7381 72.1636 38.4699 70.4316 38.4699 68.3029V65.4195C38.6235 65.4297 38.777 65.4402 38.9308 65.4495C40.7666 65.5611 42.5993 65.6161 44.417 65.6161C46.4643 65.6161 48.4898 65.544 50.4757 65.4061V65.4084L49.4437 65.5373C47.7827 65.745 46.5301 67.1637 46.5301 68.8376C46.5301 70.6716 48.0221 72.1635 49.856 72.1635H64.8575C66.9864 72.1635 68.7182 70.4315 68.7182 68.3028V61.6366C74.2263 59.4698 78.3877 56.4898 80.9133 52.8755C81.5904 53.3145 82.1154 53.7037 82.4707 54.0047C82.698 54.1988 82.9823 54.2994 83.2697 54.2994C83.4443 54.2994 83.6201 54.2621 83.7849 54.1863C84.2208 53.9852 84.5 53.549 84.5 53.0689C84.4998 52.7818 84.4572 46.3032 80.9182 40.8307ZM3.6587 49.4363C3.41261 49.0717 3.18883 48.7027 2.98851 48.3297C3.0264 48.0878 3.11467 47.7031 3.31876 47.3154C3.7614 46.4754 4.53561 46.0046 5.67601 45.8713C5.75 46.9251 5.40186 47.8401 4.61945 48.6514C4.29854 48.9843 3.95418 49.2441 3.6587 49.4363ZM25.6061 69.7029H20.9231C20.4459 69.7029 20.0579 69.3149 20.0579 68.8378C20.0579 68.4025 20.3835 68.0335 20.8157 67.9795L22.9255 67.7159C23.5412 67.6388 24.0034 67.1154 24.0034 66.495V63.258C25.7612 63.6806 27.5767 64.0514 29.4334 64.3656V65.4087L28.4014 65.5376C26.7404 65.7453 25.488 67.164 25.488 68.8379C25.488 69.1375 25.5315 69.4266 25.6061 69.7029ZM36.0093 68.3031H36.009C36.009 69.075 35.3809 69.7029 34.6092 69.7029H28.8139C28.3369 69.7029 27.9489 69.3149 27.9489 68.8379C27.9489 68.4027 28.2746 68.0337 28.7067 67.9797L30.8166 67.7161C31.4323 67.639 31.8945 67.1156 31.8945 66.4951V64.7456C33.2514 64.9355 34.6253 65.0953 36.0093 65.2243V68.3031ZM54.539 69.7029H49.856C49.3791 69.7029 48.9911 69.3149 48.9911 68.8378C48.9911 68.4025 49.3167 68.0335 49.7489 67.9795L51.8587 67.7159C52.4744 67.6388 52.9364 67.1154 52.9364 66.495V65.198C54.7974 65.0122 56.6137 64.7664 58.3664 64.4593V65.4087L57.3344 65.5376C55.6735 65.7453 54.4209 67.164 54.4209 68.8379C54.4209 69.1375 54.4643 69.4266 54.539 69.7029ZM64.8575 69.7029H57.7469C57.27 69.7029 56.8819 69.3149 56.8819 68.8379C56.8819 68.4027 57.2076 68.0337 57.6398 67.9797L59.7496 67.7161C60.3653 67.639 60.8273 67.1156 60.8273 66.4951V63.9786C61.8776 63.7522 62.902 63.5044 63.8928 63.2327C64.703 63.0104 65.4908 62.773 66.2573 62.5219V68.3031C66.2573 69.075 65.6294 69.7029 64.8575 69.7029ZM70.8586 45.9583C70.2314 45.799 69.5871 46.1539 69.3864 46.7696L68.2237 50.335C60.3926 45.6463 55.0126 43.5714 54.7752 43.4808C54.1677 43.2491 53.4852 43.5294 53.216 44.1211L50.9545 49.0965C48.6846 47.5281 46.3124 46.0804 43.8848 44.7825C43.2855 44.4622 42.54 44.6881 42.2195 45.2875C41.8991 45.8866 42.1252 46.6323 42.7245 46.9527C45.4957 48.4342 48.1921 50.1179 50.7391 51.9571C51.0382 52.1728 51.419 52.243 51.775 52.1487C52.1317 52.054 52.427 51.8043 52.5796 51.4685L54.9649 46.2206C57.044 47.1112 61.9861 49.3749 68.2674 53.2402C68.5884 53.4379 68.9825 53.4771 69.3366 53.3472C69.6906 53.2172 69.9653 52.9321 70.0822 52.5736L71.364 48.6425C74.3324 49.4899 76.8531 50.5949 78.7831 51.626C75.8733 55.6772 70.5165 58.8633 63.2417 60.8589C56.3108 62.7601 47.7299 63.5184 39.0797 62.9929C33.426 62.6497 27.8772 61.7664 22.8996 60.4407C28.0526 56.7803 28.3804 51.7246 28.0423 48.8094C27.964 48.1343 27.3535 47.65 26.6783 47.7289C26.0033 47.8073 25.5195 48.4179 25.5978 49.0929C25.969 52.2937 25.2268 56.6599 19.7023 59.5021C18.5163 59.1199 17.3723 58.7115 16.2797 58.2772C11.4457 56.3561 7.69857 54.0069 5.21614 51.3687C6.76062 50.2927 8.375 48.3444 8.11676 45.5482C11.5306 44.9703 14.2681 43.9326 16.734 42.9965C19.546 41.9289 21.8519 41.0573 24.377 41.1288C24.2444 41.6162 24.1725 42.1283 24.1725 42.657C24.1725 43.3218 24.3279 43.9097 24.4959 44.446C24.699 45.0944 25.3894 45.4556 26.0379 45.2523C26.6865 45.0492 27.0474 44.3589 26.8445 43.7103C26.7178 43.3062 26.6335 42.9724 26.6335 42.657C26.6335 40.7974 28.1465 39.2844 30.0059 39.2844C31.8656 39.2844 33.3786 40.7974 33.3786 42.657C33.3786 43.5707 33.0191 44.4265 32.3661 45.0663C31.8808 45.5419 31.873 46.3209 32.3486 46.8062C32.5896 47.0521 32.9084 47.1755 33.2275 47.1755C33.5382 47.1755 33.8493 47.0585 34.0886 46.8237C34.9562 45.9736 35.5229 44.9024 35.7394 43.7349C36.3921 43.9837 37.2242 44.3178 38.2051 44.7492C38.3662 44.82 38.5344 44.8537 38.6999 44.8537C39.1731 44.8537 39.6241 44.5792 39.8269 44.1183C40.1005 43.4964 39.818 42.7702 39.1959 42.4966C37.5799 41.7859 36.3438 41.3231 35.6177 41.0678C34.9239 38.6213 32.6716 36.8235 30.0059 36.8235C28.2844 36.8235 26.7352 37.5736 25.6665 38.7635C24.0858 38.5635 22.5191 38.6597 20.7701 39.0688C19.9122 39.2697 19.0638 39.5335 18.2066 39.8309C17.3987 35.0403 18.6427 30.5522 21.9123 26.4781C23.5186 24.4765 25.2734 23.0324 26.4159 22.2001L27.093 24.1083C27.2349 24.5083 27.5731 24.8071 27.9876 24.8985C28.4019 24.99 28.8345 24.8614 29.1315 24.558C34.6733 18.9031 41.3105 16.0658 44.6272 14.9122L43.5106 18.7502C43.379 19.2024 43.5171 19.6901 43.8662 20.0061C44.2154 20.3219 44.7144 20.4112 45.1512 20.2353C51.4984 17.682 57.5858 18.5192 60.6153 19.2319L57.7746 21.8623C57.4086 22.2011 57.2834 22.7278 57.4576 23.1952C57.632 23.6627 58.0716 23.9786 58.5701 23.995C65.1453 24.2105 70.4509 26.0899 73.1528 27.2592L70.2912 29.0353C69.8708 29.2963 69.6473 29.7841 69.7247 30.273C69.8022 30.7619 70.1651 31.1571 70.6458 31.2754C74.6617 32.2649 79.3076 35.3722 81.3933 36.8747L78.4542 39.8138C78.0243 40.2435 77.9726 40.9227 78.3326 41.4125C80.5733 44.4626 81.4599 48.1379 81.8102 50.5351C79.6397 49.1762 75.9422 47.2464 70.8586 45.9583Z" fill="#4E3D35"/>
<path d="M40.7838 21.8101C40.4068 21.2444 39.6428 21.0915 39.0774 21.4685C35.6938 23.7242 33.1279 26.6591 31.5712 28.724C31.1621 29.2665 31.2705 30.0381 31.8131 30.4471C32.0349 30.6145 32.2949 30.6952 32.5528 30.6952C32.9259 30.6952 33.2946 30.5264 33.5364 30.2055C34.9782 28.2932 37.3467 25.5802 40.4426 23.5163C41.0081 23.1393 41.1608 22.3754 40.7838 21.8101Z" fill="#4E3D35"/>
<path d="M54.2191 23.0868C54.0632 22.4253 53.4006 22.0153 52.7391 22.1713C49.3597 22.9673 46.7598 24.4432 45.1738 25.5412C44.615 25.928 44.4756 26.6945 44.8625 27.2533C45.1015 27.5985 45.4852 27.7836 45.8754 27.7836C46.117 27.7836 46.361 27.7125 46.5746 27.5647C47.986 26.5875 50.299 25.2744 53.3036 24.5666C53.965 24.4109 54.375 23.7484 54.2191 23.0868Z" fill="#4E3D35"/>
<path d="M65.3982 27.7319C65.2639 27.7206 62.0648 27.4628 58.4618 27.9174C57.7877 28.0027 57.3099 28.6181 57.3951 29.2924C57.4737 29.9144 58.0034 30.369 58.6144 30.369C58.6657 30.369 58.7179 30.3657 58.7701 30.3592C62.1075 29.9379 65.1641 30.1818 65.1943 30.1844C65.8704 30.2391 66.4658 29.7375 66.5222 29.0603C66.5788 28.383 66.0755 27.7883 65.3982 27.7319Z" fill="#4E3D35"/>
<path d="M75.6455 37.4853C75.5879 37.4451 74.2108 36.4888 72.1301 35.7054C71.4949 35.4655 70.7846 35.7873 70.5451 36.4233C70.3056 37.0592 70.627 37.769 71.2631 38.0084C73.0369 38.6762 74.2244 39.4946 74.236 39.5026C74.4504 39.6521 74.6959 39.7239 74.9387 39.7239C75.3267 39.7239 75.7085 39.5409 75.9478 39.1989C76.3377 38.6421 76.2023 37.8751 75.6455 37.4853Z" fill="#4E3D35"/>
</g>
</g>
<defs>
<clipPath id="clip0">
<rect width="84" height="84" fill="white" transform="translate(0.5)"/>
</clipPath>
<clipPath id="clip1">
<rect width="84" height="84" fill="white" transform="translate(0.5)"/>
</clipPath>
</defs>
</svg>
