<svg width="85" height="84" viewBox="0 0 85 84" fill="none" xmlns="http://www.w3.org/2000/svg">
<g clip-path="url(#clip0)">
<path d="M77.4802 58.5613C75.5878 48.9875 71.7023 40.1849 66.4336 33.4345C66.9346 32.1361 70.2956 23.0182 70.8271 10.8033C70.8747 9.70987 70.3719 8.67413 69.4822 8.03263C68.5808 7.38267 67.4219 7.23166 66.3824 7.62896C62.6089 9.07059 55.311 12.6873 48.4763 20.7694C46.3446 20.2119 44.1806 19.9281 42 19.9281C39.8194 19.9281 37.6554 20.2118 35.5237 20.7694C28.6891 12.6877 21.3917 9.07087 17.6174 7.6291C16.5777 7.23166 15.4189 7.38281 14.5177 8.03277C13.628 8.67427 13.1251 9.71001 13.1727 10.8034C13.7042 23.0184 17.0652 32.1362 17.5663 33.4346C12.2977 40.1849 8.41223 48.9876 6.51977 58.5613C6.45321 58.8979 6.55694 59.2456 6.79698 59.4907C7.03688 59.7357 7.38245 59.8466 7.7204 59.7873C9.69911 59.4391 11.9896 59.1092 13.3527 58.9956L12.5598 61.3745C12.4705 61.6426 12.494 61.9353 12.625 62.1856C12.756 62.4359 12.9831 62.6222 13.2542 62.7016C13.3555 62.7313 23.4139 65.7019 29.9045 69.7779C30.5876 70.9095 31.4977 71.8526 32.6079 72.5478C33.152 72.8884 33.7308 73.1597 34.3363 73.3641C34.749 75.7718 37.9662 77.5889 42.0001 77.5889C46.034 77.5889 49.2512 75.7716 49.664 73.364C50.2694 73.1596 50.8484 72.8884 51.3924 72.5478C52.5025 71.8527 53.4126 70.9096 54.0957 69.7782C60.5862 65.7021 70.6442 62.7313 70.746 62.7016C71.0171 62.6222 71.2443 62.4359 71.3753 62.1856C71.5062 61.9353 71.5298 61.6425 71.4405 61.3745L70.6476 58.9956C72.0109 59.1093 74.3012 59.4391 76.2799 59.7873C76.618 59.8468 76.9632 59.7357 77.2033 59.4907C77.4431 59.2456 77.5468 58.8979 77.4802 58.5613ZM67.1249 9.57203C67.2357 9.52974 67.3488 9.50561 67.4616 9.4959C66.8136 9.98361 65.7536 10.8267 64.4165 12.0537C63.9933 12.442 63.965 13.0999 64.3534 13.5232C64.5585 13.7468 64.8387 13.8601 65.12 13.8601C65.3712 13.8601 65.6232 13.7695 65.8229 13.5863C67.11 12.4052 68.1291 11.5975 68.7285 11.1468C68.2472 20.8565 65.8925 28.6447 64.8937 31.5654C64.7684 31.4215 64.6435 31.277 64.5169 31.1353C62.0714 28.3997 59.4248 26.1314 56.6237 24.3613C58.435 21.6972 60.4046 19.1974 62.4888 16.9279C62.8774 16.5048 62.8493 15.8469 62.4263 15.4584C62.0032 15.0697 61.3452 15.0977 60.9567 15.5209C58.7752 17.8965 56.7162 20.5144 54.8274 23.3039C54.5939 23.177 54.3594 23.0533 54.1241 22.9332C52.9788 22.3487 51.8184 21.8512 50.6465 21.4364C57.007 14.1834 63.6453 10.9016 67.1249 9.57203ZM16.8751 9.57203C20.3552 10.9016 26.9932 14.1839 33.3535 21.4364C32.1816 21.8513 31.0212 22.3489 29.8759 22.9332C29.6413 23.0529 29.4076 23.176 29.1749 23.3025C23.7496 15.2881 18.4275 10.9097 16.5416 9.49618C16.6534 9.50616 16.7653 9.53015 16.8751 9.57203ZM15.2715 11.1469C15.9575 11.6629 17.1943 12.6474 18.7556 14.1256C20.9095 16.1649 24.1229 19.5728 27.3786 24.3599C24.5765 26.1302 21.9293 28.399 19.4831 31.1353C19.3565 31.2769 19.2317 31.4215 19.1063 31.5654C18.1076 28.6449 15.753 20.8568 15.2715 11.1469ZM46.2105 74.553C45.1189 75.1604 43.5842 75.5088 42 75.5088C40.4158 75.5088 38.8811 75.1605 37.7895 74.553C37.3842 74.3274 37.0572 74.0768 36.8193 73.8159C36.9515 73.8213 37.0842 73.8251 37.2178 73.8251C38.7567 73.8251 40.3804 73.4645 42 72.7459C43.6198 73.4645 45.2431 73.8251 46.7822 73.8251C46.9158 73.8251 47.0484 73.8213 47.1806 73.8159C46.9427 74.0768 46.6158 74.3274 46.2105 74.553ZM41.1441 67.4982C39.6261 66.6502 38.4648 65.9037 38.4648 64.6729C38.4648 63.2135 40.0218 62.0262 41.9355 62.0262C43.8492 62.0262 45.4062 63.2135 45.4062 64.6729C45.4063 65.9038 44.2451 66.6503 42.7271 67.4983L42.6752 67.5271C42.1983 67.7937 41.6729 67.7937 41.1961 67.5271L41.1441 67.4982ZM61.7271 53.7162C61.8304 54.2813 62.3719 54.6557 62.9373 54.5521C67.2683 53.7602 70.8737 55.5492 73.1281 57.1793C69.543 56.6876 69.0028 56.9422 68.7702 57.0527C68.2956 57.2782 68.0637 57.8225 68.23 58.321L69.1299 61.0212C66.7076 61.7847 60.5199 63.8623 55.2925 66.681C55.459 65.8883 55.5458 65.0507 55.5458 64.1778C55.5458 61.5644 56.1763 58.0981 59.1799 56.4267C59.6818 56.1474 59.8623 55.5141 59.5831 55.0121C59.3038 54.5101 58.6706 54.3299 58.1685 54.609C55.1358 56.2965 53.4657 59.6948 53.4657 64.1777C53.4657 67.1124 52.3076 69.5206 50.2884 70.7847C48.3254 72.0136 45.7117 72.0588 43.04 70.9302V69.6301C43.2611 69.5568 43.4785 69.4612 43.69 69.3432L43.7416 69.3144C45.2329 68.4813 47.4866 67.2226 47.4866 64.6731C47.4866 62.0668 44.9964 59.9464 41.9358 59.9464C38.875 59.9464 36.385 62.0668 36.385 64.6731C36.385 67.2225 38.6387 68.4813 40.13 69.3144L40.1816 69.3432C40.4338 69.4842 40.6948 69.5916 40.96 69.6687V70.9303C38.2883 72.059 35.6746 72.0137 33.7116 70.7848C31.6924 69.5207 30.5343 67.1127 30.5343 64.1778C30.5343 59.6949 28.8641 56.2966 25.8315 54.6091C25.3295 54.3299 24.6962 54.5104 24.4169 55.0123C24.1376 55.5143 24.3182 56.1476 24.8201 56.4269C27.8237 58.0983 28.4542 61.5644 28.4542 64.1779C28.4542 65.051 28.541 65.8886 28.7074 66.6812C23.4796 63.8626 17.2921 61.785 14.8701 61.0215L15.77 58.3213C15.9362 57.8227 15.7043 57.2784 15.2298 57.053C14.9969 56.9424 14.4554 56.6871 10.8572 57.1818C13.1052 55.55 16.71 53.757 21.0629 54.5526C21.6277 54.6562 22.1696 54.2816 22.2731 53.7166C22.3765 53.1517 22.0021 52.6098 21.4371 52.5065C16.0956 51.5292 11.8173 53.8068 9.28198 55.7447C11.5518 46.6839 15.664 38.529 21.034 32.5221C24.0241 29.1775 27.317 26.5749 30.8216 24.7864C34.4334 22.9428 38.1944 22.0081 42 22.0081C45.8056 22.0081 49.5666 22.9428 53.1786 24.786C56.6832 26.5745 59.9762 29.1771 62.9662 32.5217C68.3363 38.5287 72.4485 46.6836 74.7183 55.7444C72.1831 53.8064 67.9049 51.5285 62.563 52.506C61.9979 52.6094 61.6238 53.1511 61.7271 53.7162Z" fill="#4E3D35"/>
<path d="M34.7833 43.865C34.5368 43.3462 33.9162 43.1252 33.3976 43.3721C32.8788 43.6187 32.6582 44.2391 32.9048 44.7579C33.0866 45.1405 33.1788 45.5515 33.1788 45.9796V48.2028C33.1788 49.7746 31.8999 51.0535 30.3281 51.0535C28.7564 51.0535 27.4775 49.7746 27.4775 48.2028V45.9796C27.4775 44.4077 28.7564 43.1289 30.3281 43.1289C30.9025 43.1289 31.3681 42.6632 31.3681 42.0889C31.3681 41.5145 30.9025 41.0488 30.3281 41.0488C27.6093 41.0488 25.3975 43.2608 25.3975 45.9796V48.2028C25.3975 50.9216 27.6093 53.1335 30.3281 53.1335C33.0469 53.1335 35.2589 50.9216 35.2589 48.2028V45.9796C35.2589 45.2402 35.0988 44.5288 34.7833 43.865Z" fill="#4E3D35"/>
<path d="M58.1271 43.865C57.8805 43.3462 57.2598 43.1252 56.7413 43.3721C56.2226 43.6187 56.0019 44.2391 56.2485 44.7579C56.4303 45.1403 56.5225 45.5514 56.5225 45.9796V48.2028C56.5225 49.7746 55.2437 51.0535 53.672 51.0535C52.1001 51.0535 50.8213 49.7746 50.8213 48.2028V45.9796C50.8213 44.4077 52.1001 43.1289 53.672 43.1289C54.2464 43.1289 54.712 42.6632 54.712 42.0889C54.712 41.5145 54.2464 41.0488 53.672 41.0488C50.9532 41.0488 48.7412 43.2608 48.7412 45.9796V48.2028C48.7412 50.9216 50.9532 53.1335 53.672 53.1335C56.3908 53.1335 58.6026 50.9216 58.6026 48.2028V45.9796C58.6026 45.24 58.4427 44.5287 58.1271 43.865Z" fill="#4E3D35"/>
</g>
<defs>
<clipPath id="clip0">
<rect width="71" height="71" fill="white" transform="translate(6.5 7)"/>
</clipPath>
</defs>
</svg>
