<svg width="85" height="84" viewBox="0 0 85 84" fill="none" xmlns="http://www.w3.org/2000/svg">
<g clip-path="url(#clip0)">
<g clip-path="url(#clip1)">
<path d="M67.0931 71.1853C66.3156 71.0686 65.5389 70.9447 64.7847 70.8171C64.1617 70.7114 63.5726 71.1309 63.4674 71.7529C63.3621 72.3751 63.781 72.9648 64.4032 73.0701C65.1715 73.2002 65.9624 73.3265 66.7542 73.4451C66.8116 73.4538 66.8687 73.4579 66.9251 73.4579C67.4811 73.4579 67.9686 73.0513 68.0537 72.4848C68.1472 71.8608 67.7171 71.2788 67.0931 71.1853Z" fill="#4E3D35"/>
<path d="M80.5042 63.8553C72.9966 62.881 63.7853 59.8666 55.8639 55.7915C47.2304 51.3503 40.9558 46.1691 38.1961 41.2027C36.3948 37.9613 36.1384 34.8756 37.4338 32.0315C38.259 30.2197 39.768 28.9301 41.9192 28.1986C43.1019 27.7964 44.1721 27.6765 44.7126 27.6405C44.813 27.7825 44.9126 27.9251 45.0093 28.0702C45.9467 29.4763 47.2812 30.2311 48.7701 30.2311C49.1083 30.2311 49.4546 30.1921 49.8059 30.1131C52.0229 29.6138 53.8733 27.599 54.2055 25.3222C54.552 22.9482 53.2435 20.7406 50.6153 19.2657C50.3243 19.1023 50.0309 18.9474 49.7367 18.7966C49.54 17.8327 48.6977 14.7464 45.6946 12.6177C42.7787 10.551 38.7758 10.0241 33.7968 11.0527C27.0628 12.4431 20.4174 16.3908 13.4812 23.1213C13.0283 23.5608 13.0175 24.2841 13.4569 24.7369C13.681 24.9678 13.9788 25.0838 14.2769 25.0838C14.5636 25.0838 14.8506 24.9765 15.0725 24.7613C21.6873 18.3426 27.9633 14.5904 34.2587 13.2905C38.5736 12.3993 41.9665 12.7932 44.343 14.4609C45.6675 15.3904 46.4549 16.5811 46.9155 17.5603C46.4866 17.404 46.0564 17.261 45.6257 17.1322C45.0206 16.9506 44.3846 17.2949 44.2038 17.8996C44.0229 18.5042 44.3666 19.1407 44.9713 19.3216C46.4971 19.7777 48.0196 20.4292 49.4968 21.2583C51.3061 22.2738 52.1526 23.5651 51.9441 24.9922C51.7498 26.324 50.5898 27.5942 49.3036 27.8838C48.3388 28.1011 47.5337 27.7376 46.9104 26.8027C44.7706 23.5929 41.8103 21.0219 38.5748 19.5632C37.7941 19.2111 37.0074 18.9278 36.2189 18.7117C37.561 18.5129 38.9434 18.4334 40.3554 18.5116C40.9857 18.5483 41.5245 18.0641 41.5595 17.4342C41.5946 16.8042 41.1121 16.265 40.482 16.2301C34.2373 15.8817 27.5679 18.2492 21.1979 23.0715C17.195 26.1017 14.5086 29.1714 13.68 30.1669C12.0364 30.5968 10.321 31.2147 8.60977 32.0265C9.52916 30.8321 10.6461 29.4621 11.9449 28.0158C12.3664 27.5462 12.3275 26.8238 11.858 26.4023C11.3885 25.9805 10.6661 26.0195 10.2446 26.489C6.12216 31.0798 3.81112 34.8477 3.67035 35.0791C3.43559 35.4595 3.43727 35.9595 3.71408 36.3456C4.08183 36.8582 4.79571 36.9758 5.3085 36.6079C8.38948 34.3977 12.0384 32.7887 15.5831 32.0771C17.8055 31.6309 20.9086 31.4385 22.3398 32.3647C23.2904 32.9799 23.6545 33.8593 23.2898 34.6597C22.7982 35.7389 21.0932 36.4796 18.392 35.701C15.6154 34.9011 13.1394 34.9055 11.0323 35.7146C9.13748 36.4422 7.64544 37.7945 6.71767 39.6258C5.79447 41.4478 5.50898 43.6003 5.91376 45.6865C6.27877 47.5679 7.18719 49.2446 8.50069 50.4906C7.98775 51.422 7.57886 52.465 7.29749 53.6267C6.51368 56.863 7.15489 60.4267 9.1518 63.9324C10.6295 66.5268 12.3245 68.1822 12.3959 68.2513C12.6179 68.4663 12.9045 68.5732 13.1907 68.5732C13.4892 68.5732 13.7874 68.4569 14.0115 68.2258C14.4506 67.7724 14.4392 67.0491 13.9859 66.6102C13.9255 66.5514 7.94433 60.6647 9.51834 54.1648C10.2833 51.0063 12.1656 48.7574 15.1131 47.4806C17.5812 46.4113 20.7209 46.1196 23.7267 46.6794C27.3284 47.3505 29.981 49.1585 29.7656 50.7956C29.7103 51.2167 29.5548 51.5098 29.2903 51.6921C28.9542 51.924 28.4268 51.9849 27.8798 51.8554C27.8463 51.8475 27.8127 51.8417 27.7794 51.8369C27.3775 51.2909 26.8592 50.7967 26.2276 50.3756C25.7028 50.0255 24.9932 50.1673 24.6432 50.6925C24.2932 51.2174 24.435 51.9269 24.9601 52.2768C26.3816 53.2246 26.5518 54.3577 26.4442 55.1416C26.2963 56.2189 25.5209 57.2188 24.6004 57.5189C23.8878 57.7511 23.2019 57.5324 22.5622 56.8683C20.0311 54.2416 16.9073 53.0975 14.4104 53.8825C12.7553 54.4028 11.6492 55.6867 11.3759 57.4051C11.2767 58.0284 11.7016 58.614 12.3248 58.7132C12.947 58.8122 13.5336 58.3875 13.6327 57.7642C13.8045 56.6837 14.5231 56.2423 15.0958 56.0624C17.088 55.4364 19.4767 56.9592 20.9169 58.4537C21.8272 59.3982 22.9283 59.8932 24.0598 59.8932C24.4748 59.8932 24.894 59.8265 25.3091 59.6912C26.4866 59.3071 27.4844 58.4191 28.0994 57.2891C29.1626 58.4222 30.993 60.1295 33.8313 62.047C38.3335 65.0889 46.3929 69.2975 59.2207 72.0735C59.3022 72.0912 59.3834 72.0997 59.4635 72.0997C59.9898 72.0997 60.4633 71.7339 60.5791 71.1986C60.7125 70.5817 60.3209 69.9736 59.704 69.8401C47.3356 67.1633 39.5835 63.1489 35.2583 60.2527C30.6105 57.1404 28.8228 54.6218 28.7874 54.5713C28.7748 54.553 28.7608 54.5362 28.7474 54.5189C28.7422 54.4105 28.7333 54.303 28.7212 54.196C29.4114 54.1499 30.0567 53.9393 30.588 53.5728C31.3919 53.0184 31.8911 52.161 32.0316 51.0933C32.2418 49.4954 31.4341 47.9303 29.7572 46.6871C28.3531 45.6458 26.3603 44.8452 24.1458 44.4325C19.0978 43.4923 13.2603 44.5704 9.82348 48.5789C7.93032 46.5539 7.4384 43.26 8.75678 40.6581C9.46868 39.2527 11.7716 36.1705 17.7599 37.8964C21.7699 39.0516 24.4716 37.5788 25.3701 35.6066C26.2125 33.7568 25.4939 31.683 23.5819 30.4456C22.2365 29.5752 20.0199 29.2473 17.3783 29.4967C18.6522 28.1884 20.4393 26.5071 22.6233 24.8583C24.2325 23.6435 26.1927 22.3514 28.4096 21.2495C28.4163 21.247 28.4232 21.2453 28.4299 21.2428C31.3591 20.1116 34.5426 20.2509 37.6363 21.6459C39.5887 22.5261 41.4323 23.8743 43.0126 25.555C40.7041 25.9828 37.0959 27.2608 35.3545 31.084C33.7421 34.6242 34.0262 38.402 36.1989 42.3122C42.5857 53.806 64.5196 64.0848 80.2103 66.1208C80.2603 66.1274 80.3098 66.1304 80.3588 66.1304C80.9243 66.1304 81.4158 65.7106 81.4904 65.1347C81.5713 64.5097 81.1298 63.9365 80.5042 63.8553Z" fill="#4E3D35"/>
<path d="M32.4667 41.2562C32.2857 40.8077 32.1207 40.3564 31.9766 39.9151C31.7807 39.3153 31.1354 38.9876 30.5357 39.1838C29.9358 39.3796 29.6084 40.0248 29.8043 40.6246C29.9644 41.1149 30.1471 41.6151 30.3474 42.1114C30.527 42.5566 30.9551 42.8267 31.4074 42.8267C31.5499 42.8267 31.6946 42.7999 31.8348 42.7433C32.4199 42.5071 32.7028 41.8413 32.4667 41.2562Z" fill="#4E3D35"/>
<path d="M36.1196 23.7444C35.7667 23.2212 35.0564 23.0833 34.5334 23.4363C34.2815 23.6062 28.372 27.6923 28.8817 35.9511C28.9192 36.5571 29.4221 37.0233 30.0211 37.0233C30.0449 37.0233 30.0687 37.0226 30.0926 37.021C30.7224 36.9822 31.2015 36.4401 31.1626 35.8104C30.7356 28.8946 35.6011 25.4745 35.8144 25.3284C36.3351 24.975 36.4719 24.2663 36.1196 23.7444Z" fill="#4E3D35"/>
<path d="M29.7776 69.2952C29.078 68.9697 28.3877 68.6182 27.7261 68.2505C27.1746 67.944 26.4789 68.1428 26.1724 68.6941C25.8659 69.2457 26.0645 69.9415 26.6161 70.2478C27.3253 70.6419 28.0645 71.0185 28.8132 71.3671C28.9692 71.4398 29.1333 71.474 29.2946 71.474C29.7252 71.474 30.1375 71.2295 30.3312 70.8133C30.5976 70.2413 30.3498 69.5615 29.7776 69.2952Z" fill="#4E3D35"/>
<path d="M23.7568 65.6171C19.853 62.5423 18.2621 59.5994 18.2464 59.5701C17.9523 59.0133 17.263 58.7993 16.705 59.0921C16.1463 59.3855 15.9311 60.0762 16.2245 60.6348C16.2961 60.7713 18.0273 64.0135 22.3429 67.4121C22.5523 67.5772 22.8016 67.6571 23.0491 67.6571C23.3872 67.6571 23.722 67.5078 23.9475 67.2215C24.3379 66.7258 24.2525 66.0074 23.7568 65.6171Z" fill="#4E3D35"/>
</g>
</g>
<defs>
<clipPath id="clip0">
<rect width="84" height="84" fill="white" transform="translate(0.5)"/>
</clipPath>
<clipPath id="clip1">
<rect width="78" height="78" fill="white" transform="translate(3.5 3)"/>
</clipPath>
</defs>
</svg>
