<svg width="40" height="41" viewBox="0 0 40 41" fill="none" xmlns="http://www.w3.org/2000/svg">
<g clip-path="url(#clip0)">
<path d="M36.6573 27.9707C35.7561 23.4118 33.9059 19.2201 31.397 16.0056C31.6356 15.3873 33.236 11.0455 33.4892 5.22883C33.5118 4.70815 33.2724 4.21494 32.8487 3.90947C32.4195 3.59996 31.8676 3.52805 31.3726 3.71724C29.5757 4.40373 26.1005 6.12597 22.8459 9.97459C21.8308 9.70913 20.8003 9.57396 19.7619 9.57396C18.7236 9.57396 17.6931 9.70906 16.678 9.97459C13.4234 6.12617 9.94845 4.40386 8.15119 3.71731C7.65606 3.52805 7.10428 3.60003 6.67512 3.90953C6.25145 4.21501 6.01201 4.70822 6.03466 5.2289C6.28777 11.0455 7.88824 15.3874 8.12682 16.0056C5.61798 19.2201 3.76776 23.4119 2.86659 27.9707C2.8349 28.131 2.88429 28.2966 2.9986 28.4133C3.11284 28.53 3.27739 28.5828 3.43832 28.5545C4.38056 28.3887 5.47125 28.2316 6.12037 28.1776L5.74279 29.3104C5.70026 29.438 5.71149 29.5774 5.77382 29.6966C5.83622 29.8158 5.94439 29.9045 6.07349 29.9423C6.12169 29.9565 10.9114 31.371 14.0022 33.312C14.3274 33.8508 14.7608 34.2999 15.2895 34.631C15.5486 34.7931 15.8242 34.9224 16.1126 35.0197C16.3091 36.1662 17.8411 37.0315 19.762 37.0315C21.6829 37.0315 23.2149 36.1661 23.4115 35.0196C23.6998 34.9223 23.9755 34.7931 24.2345 34.631C24.7631 34.3 25.1965 33.8509 25.5218 33.3121C28.6125 31.3711 33.4021 29.9565 33.4505 29.9423C33.5796 29.9045 33.6878 29.8158 33.7502 29.6966C33.8125 29.5774 33.8238 29.438 33.7812 29.3104L33.4036 28.1776C34.0528 28.2317 35.1434 28.3887 36.0857 28.5545C36.2467 28.5829 36.4111 28.53 36.5254 28.4133C36.6396 28.2966 36.689 28.131 36.6573 27.9707ZM31.7262 4.64251C31.7789 4.62237 31.8328 4.61088 31.8865 4.60626C31.5779 4.8385 31.0732 5.23999 30.4365 5.82426C30.2349 6.00916 30.2214 6.32243 30.4064 6.52403C30.5041 6.63048 30.6375 6.68443 30.7714 6.68443C30.8911 6.68443 31.0111 6.64131 31.1062 6.55408C31.7191 5.99166 32.2044 5.60701 32.4898 5.3924C32.2606 10.0161 31.1393 13.7247 30.6637 15.1156C30.6041 15.047 30.5446 14.9782 30.4843 14.9107C29.3197 13.6081 28.0595 12.5279 26.7256 11.685C27.5881 10.4164 28.526 9.22602 29.5185 8.14531C29.7035 7.94383 29.6902 7.63057 29.4887 7.44554C29.2873 7.26045 28.9739 7.27378 28.789 7.47532C27.7501 8.60656 26.7696 9.85315 25.8702 11.1815C25.759 11.1211 25.6474 11.0622 25.5353 11.005C24.9899 10.7267 24.4374 10.4897 23.8793 10.2922C26.9081 6.83842 30.0692 5.27565 31.7262 4.64251ZM7.79771 4.64251C9.45491 5.27565 12.6158 6.83862 15.6446 10.2922C15.0865 10.4898 14.5339 10.7267 13.9886 11.005C13.8768 11.062 13.7656 11.1206 13.6548 11.1808C11.0713 7.36445 8.53696 5.27948 7.6389 4.60639C7.69212 4.61115 7.74541 4.62257 7.79771 4.64251ZM7.03409 5.39247C7.36076 5.63818 7.94972 6.10696 8.6932 6.81088C9.71884 7.78198 11.2491 9.40478 12.7993 11.6844C11.4651 12.5273 10.2045 13.6077 9.03962 14.9107C8.97933 14.9781 8.9199 15.047 8.8602 15.1156C8.38462 13.7248 7.26336 10.0162 7.03409 5.39247ZM21.7669 35.5858C21.2471 35.875 20.5163 36.041 19.7619 36.041C19.0076 36.041 18.2768 35.8751 17.7569 35.5858C17.5639 35.4784 17.4082 35.3591 17.295 35.2348C17.3579 35.2374 17.4211 35.2392 17.4847 35.2392C18.2175 35.2392 18.9907 35.0675 19.7619 34.7253C20.5333 35.0675 21.3063 35.2392 22.0392 35.2392C22.1028 35.2392 22.1659 35.2374 22.2289 35.2348C22.1156 35.3591 21.96 35.4784 21.7669 35.5858ZM19.3544 32.2264C18.6315 31.8226 18.0785 31.4671 18.0785 30.881C18.0785 30.1861 18.82 29.6207 19.7312 29.6207C20.6425 29.6207 21.3839 30.1861 21.3839 30.881C21.384 31.4672 20.831 31.8227 20.1082 32.2265L20.0835 32.2402C19.8564 32.3671 19.6062 32.3671 19.3791 32.2402L19.3544 32.2264ZM29.1558 25.6636C29.205 25.9327 29.4628 26.1109 29.7321 26.0616C31.7945 25.6845 33.5113 26.5364 34.5849 27.3126C32.8777 27.0785 32.6204 27.1997 32.5097 27.2523C32.2836 27.3597 32.1732 27.6189 32.2524 27.8563L32.681 29.1421C31.5275 29.5057 28.581 30.495 26.0917 31.8372C26.171 31.4598 26.2123 31.0609 26.2123 30.6453C26.2123 29.4008 26.5126 27.7502 27.9429 26.9543C28.1818 26.8213 28.2678 26.5197 28.1348 26.2807C28.0018 26.0416 27.7003 25.9558 27.4612 26.0887C26.0171 26.8923 25.2218 28.5105 25.2218 30.6452C25.2218 32.0427 24.6703 33.1894 23.7088 33.7914C22.774 34.3766 21.5294 34.3981 20.2572 33.8607V33.2416C20.3625 33.2067 20.466 33.1612 20.5667 33.105L20.5913 33.0912C21.3014 32.6946 22.3746 32.0952 22.3746 30.8811C22.3746 29.64 21.1888 28.6303 19.7314 28.6303C18.2739 28.6303 17.0881 29.64 17.0881 30.8811C17.0881 32.0951 18.1613 32.6946 18.8715 33.0912L18.896 33.105C19.0161 33.1721 19.1404 33.2232 19.2667 33.26V33.8607C17.9945 34.3982 16.7499 34.3767 15.8151 33.7915C14.8535 33.1895 14.3021 32.0428 14.3021 30.6453C14.3021 28.5106 13.5068 26.8923 12.0627 26.0888C11.8236 25.9558 11.522 26.0417 11.3891 26.2807C11.2561 26.5198 11.342 26.8213 11.581 26.9543C13.0113 27.7502 13.3116 29.4008 13.3116 30.6453C13.3116 31.0611 13.3529 31.4599 13.4322 31.8374C10.9427 30.4952 7.99627 29.5058 6.84292 29.1423L7.27148 27.8564C7.35059 27.619 7.24018 27.3599 7.01421 27.2525C6.90334 27.1999 6.64547 27.0783 4.93202 27.3138C6.0025 26.5368 7.71906 25.683 9.79188 26.0618C10.0608 26.1111 10.3189 25.9328 10.3682 25.6638C10.4174 25.3947 10.2391 25.1367 9.97011 25.0875C7.42653 24.6221 5.38924 25.7067 4.18193 26.6295C5.26278 22.3148 7.22096 18.4315 9.77814 15.5711C11.202 13.9785 12.77 12.7391 14.4389 11.8875C16.1588 11.0095 17.9498 10.5645 19.7619 10.5645C21.5741 10.5645 23.3651 11.0095 25.0851 11.8873C26.7539 12.7389 28.322 13.9783 29.7459 15.5709C32.303 18.4314 34.2612 22.3147 35.3421 26.6294C34.1348 25.7065 32.0976 24.6218 29.5538 25.0873C29.2848 25.1365 29.1066 25.3945 29.1558 25.6636Z" fill="#4E3D35"/>
<path d="M16.3254 20.9724C16.208 20.7253 15.9125 20.6201 15.6655 20.7377C15.4185 20.8551 15.3134 21.1505 15.4309 21.3976C15.5174 21.5798 15.5613 21.7755 15.5613 21.9793V23.038C15.5613 23.7865 14.9524 24.3955 14.2039 24.3955C13.4554 24.3955 12.8465 23.7865 12.8465 23.038V21.9793C12.8465 21.2308 13.4554 20.6219 14.2039 20.6219C14.4774 20.6219 14.6991 20.4001 14.6991 20.1266C14.6991 19.8531 14.4774 19.6313 14.2039 19.6313C12.9092 19.6313 11.856 20.6847 11.856 21.9793V23.038C11.856 24.3327 12.9092 25.386 14.2039 25.386C15.4985 25.386 16.5519 24.3327 16.5519 23.038V21.9793C16.5519 21.6272 16.4757 21.2885 16.3254 20.9724Z" fill="#4E3D35"/>
<path d="M27.4416 20.9724C27.3242 20.7253 27.0286 20.6201 26.7817 20.7377C26.5347 20.8551 26.4296 21.1505 26.547 21.3976C26.6336 21.5797 26.6775 21.7754 26.6775 21.9793V23.038C26.6775 23.7865 26.0685 24.3955 25.3201 24.3955C24.5716 24.3955 23.9626 23.7865 23.9626 23.038V21.9793C23.9626 21.2308 24.5716 20.6219 25.3201 20.6219C25.5936 20.6219 25.8153 20.4001 25.8153 20.1266C25.8153 19.8531 25.5936 19.6313 25.3201 19.6313C24.0254 19.6313 22.9721 20.6847 22.9721 21.9793V23.038C22.9721 24.3327 24.0254 25.386 25.3201 25.386C26.6148 25.386 27.668 24.3327 27.668 23.038V21.9793C27.668 21.6272 27.5919 21.2884 27.4416 20.9724Z" fill="#4E3D35"/>
</g>
<defs>
<clipPath id="clip0">
<rect width="33.8095" height="33.8095" fill="white" transform="translate(2.85718 3.41748)"/>
</clipPath>
</defs>
</svg>
