<svg width="48" height="48" viewBox="0 0 48 48" fill="none" xmlns="http://www.w3.org/2000/svg">
<path fill-rule="evenodd" clip-rule="evenodd" d="M25.6 8H22.4C19.3755 8 17.2355 8.00177 15.5666 8.14708C13.9234 8.29015 12.9259 8.56076 12.146 8.98955C10.8157 9.72089 9.72089 10.8157 8.98955 12.146C8.56076 12.9259 8.29015 13.9234 8.14708 15.5666C8.00177 17.2355 8 19.3755 8 22.4V25.6C8 28.6245 8.00177 30.7645 8.14708 32.4334C8.29015 34.0766 8.56076 35.0741 8.98955 35.854C9.72089 37.1843 10.8157 38.2791 12.146 39.0105C12.9259 39.4392 13.9234 39.7099 15.5666 39.8529C17.2355 39.9982 19.3755 40 22.4 40H25.6C28.6245 40 30.7645 39.9982 32.4334 39.8529C34.0766 39.7099 35.0741 39.4392 35.854 39.0105C37.1843 38.2791 38.2791 37.1843 39.0105 35.854C39.4392 35.0741 39.7099 34.0766 39.8529 32.4334C39.9982 30.7645 40 28.6245 40 25.6V22.4C40 19.3755 39.9982 17.2355 39.8529 15.5666C39.7099 13.9234 39.4392 12.9259 39.0105 12.146C38.2791 10.8157 37.1843 9.72089 35.854 8.98955C35.0741 8.56076 34.0766 8.29015 32.4334 8.14708C30.7645 8.00177 28.6245 8 25.6 8ZM7.23693 11.1825C6 13.4324 6 16.4216 6 22.4V25.6C6 31.5784 6 34.5676 7.23693 36.8175C8.15112 38.4804 9.51957 39.8489 11.1825 40.7631C13.4324 42 16.4216 42 22.4 42H25.6C31.5784 42 34.5676 42 36.8175 40.7631C38.4804 39.8489 39.8489 38.4804 40.7631 36.8175C42 34.5676 42 31.5784 42 25.6V22.4C42 16.4216 42 13.4324 40.7631 11.1825C39.8489 9.51957 38.4804 8.15112 36.8175 7.23693C34.5676 6 31.5784 6 25.6 6H22.4C16.4216 6 13.4324 6 11.1825 7.23693C9.51957 8.15112 8.15112 9.51957 7.23693 11.1825Z" fill="#4E3D35" fill-opacity="0.6"/>
<path fill-rule="evenodd" clip-rule="evenodd" d="M24 16C19.5838 16 16 19.5836 16 24C16 28.4164 19.5838 32 24 32C28.4165 32 32 28.4165 32 24C32 19.5835 28.4165 16 24 16ZM14 24C14 18.479 18.4793 14 24 14C29.521 14 34 18.479 34 24C34 29.521 29.521 34 24 34C18.4793 34 14 29.521 14 24Z" fill="#4E3D35" fill-opacity="0.6"/>
<path d="M36.6286 14.3141C36.6286 15.5921 35.5924 16.6283 34.3141 16.6283C33.0362 16.6283 32 15.5921 32 14.3141C32 13.0359 33.0362 12 34.3141 12C35.5924 12 36.6286 13.0359 36.6286 14.3141V14.3141Z" fill="#4E3D35" fill-opacity="0.6"/>
</svg>
