<svg width="48" height="48" viewBox="0 0 48 48" fill="none" xmlns="http://www.w3.org/2000/svg">
<path fill-rule="evenodd" clip-rule="evenodd" d="M24.5 9H23.5C19.9264 9 17.472 9.00363 15.5882 9.19526C13.7546 9.38179 12.797 9.72132 12.111 10.1797C11.3467 10.6904 10.6904 11.3467 10.1797 12.111C9.72132 12.797 9.38179 13.7546 9.19526 15.5882C9.00363 17.472 9 19.9264 9 23.5V24.5C9 28.0736 9.00363 30.528 9.19526 32.4118C9.38179 34.2454 9.72132 35.203 10.1797 35.889C10.6904 36.6533 11.3467 37.3096 12.111 37.8203C12.797 38.2787 13.7546 38.6182 15.5882 38.8047C17.472 38.9964 19.9264 39 23.5 39H24.5C28.0736 39 30.528 38.9964 32.4118 38.8047C34.2454 38.6182 35.203 38.2787 35.889 37.8203C36.6533 37.3096 37.3096 36.6533 37.8203 35.889C38.2787 35.203 38.6182 34.2454 38.8047 32.4118C38.9964 30.528 39 28.0736 39 24.5V23.5C39 19.9264 38.9964 17.472 38.8047 15.5882C38.6182 13.7546 38.2787 12.797 37.8203 12.111C37.3096 11.3467 36.6533 10.6904 35.889 10.1797C35.203 9.72132 34.2454 9.38179 32.4118 9.19526C30.528 9.00363 28.0736 9 24.5 9ZM7.6853 10.4443C6 12.9665 6 16.4777 6 23.5V24.5C6 31.5223 6 35.0335 7.6853 37.5557C8.41489 38.6476 9.3524 39.5851 10.4443 40.3147C12.9665 42 16.4777 42 23.5 42H24.5C31.5223 42 35.0335 42 37.5557 40.3147C38.6476 39.5851 39.5851 38.6476 40.3147 37.5557C42 35.0335 42 31.5223 42 24.5V23.5C42 16.4777 42 12.9665 40.3147 10.4443C39.5851 9.3524 38.6476 8.41489 37.5557 7.6853C35.0335 6 31.5223 6 24.5 6H23.5C16.4777 6 12.9665 6 10.4443 7.6853C9.3524 8.41489 8.41489 9.3524 7.6853 10.4443Z" fill="url(#paint0_linear)"/>
<path fill-rule="evenodd" clip-rule="evenodd" d="M24 17C20.1361 17 17 20.1359 17 24C17 27.8641 20.1361 31 24 31C27.8642 31 31 27.8642 31 24C31 20.1358 27.8642 17 24 17ZM14 24C14 18.479 18.4793 14 24 14C29.521 14 34 18.479 34 24C34 29.521 29.521 34 24 34C18.4793 34 14 29.521 14 24Z" fill="url(#paint1_linear)"/>
<path d="M36.6286 14.3141C36.6286 15.5921 35.5924 16.6283 34.3141 16.6283C33.0362 16.6283 32 15.5921 32 14.3141C32 13.0359 33.0362 12 34.3141 12C35.5924 12 36.6286 13.0359 36.6286 14.3141Z" fill="url(#paint2_linear)"/>
<defs>
<linearGradient id="paint0_linear" x1="8.4171" y1="39.6546" x2="41.7736" y2="10.7793" gradientUnits="userSpaceOnUse">
<stop stop-color="#FFDD55"/>
<stop offset="0.5" stop-color="#FF543E"/>
<stop offset="1" stop-color="#C837AB"/>
</linearGradient>
<linearGradient id="paint1_linear" x1="15.3428" y1="32.697" x2="33.8742" y2="16.6552" gradientUnits="userSpaceOnUse">
<stop stop-color="#FFDD55"/>
<stop offset="0.5" stop-color="#FF543E"/>
<stop offset="1" stop-color="#C837AB"/>
</linearGradient>
<linearGradient id="paint2_linear" x1="32.3108" y1="16.3267" x2="36.5992" y2="12.6142" gradientUnits="userSpaceOnUse">
<stop stop-color="#FFDD55"/>
<stop offset="0.5" stop-color="#FF543E"/>
<stop offset="1" stop-color="#C837AB"/>
</linearGradient>
</defs>
</svg>
