<svg width="277" height="69" viewBox="0 0 277 69" fill="none" xmlns="http://www.w3.org/2000/svg">
<path d="M89.308 54.6592C89.4582 54.5457 89.5873 54.4075 89.6893 54.2507C89.7867 54.0934 89.8604 53.9231 89.9083 53.7452C89.9612 53.5723 89.9874 53.3926 89.986 53.212C89.9996 52.9048 89.9314 52.5994 89.7882 52.3257C89.6649 52.1087 89.4905 51.9235 89.2797 51.7856C89.0641 51.6549 88.8239 51.5678 88.5734 51.5295C88.3408 51.4846 88.1043 51.4614 87.8672 51.4602C87.5093 51.4602 87.1774 51.4741 86.8713 51.5018C86.5653 51.5295 86.2969 51.5641 86.0662 51.6056V58.793C86.2031 58.8264 86.3424 58.8496 86.4829 58.8622L86.9561 58.9038H87.401H87.7753C88.0788 58.9037 88.3808 58.8617 88.6723 58.7791C88.954 58.6994 89.2177 58.5678 89.4492 58.3914C89.683 58.2036 89.8712 57.967 90.0001 57.699C90.2464 57.1574 90.2791 56.5456 90.0919 55.9817C90.0164 55.7882 89.909 55.6081 89.7741 55.4486C89.6469 55.3064 89.4935 55.189 89.3221 55.1024C89.1516 55.022 88.9711 54.9638 88.7853 54.9293V54.8877C88.9723 54.8436 89.1495 54.7662 89.308 54.6592ZM88.8065 55.7394C88.9724 55.8387 89.1107 55.9767 89.2091 56.141C89.3162 56.3562 89.3671 56.5941 89.3574 56.8334C89.365 57.0384 89.3239 57.2422 89.2373 57.4289C89.1548 57.5928 89.0366 57.7369 88.8913 57.8513C88.7449 57.9657 88.5769 58.0504 88.3969 58.1006C88.2088 58.1544 88.0136 58.1801 87.8177 58.1767H87.5564H87.2668H87.0055C86.9444 58.1827 86.8829 58.1827 86.8219 58.1767V55.4832H87.6341C87.8401 55.4845 88.0457 55.503 88.2485 55.5386C88.4478 55.5711 88.6393 55.6392 88.8136 55.7394H88.8065ZM88.4816 54.5138C88.3493 54.5931 88.2098 54.6603 88.0649 54.7146C87.9403 54.7234 87.8152 54.7234 87.6906 54.7146C87.5423 54.7146 87.4151 54.7146 87.3092 54.7146H86.8219V52.2703C86.9498 52.2448 87.0798 52.2309 87.2103 52.2288C87.3798 52.2288 87.5705 52.2288 87.7753 52.2288C87.9468 52.2286 88.1177 52.2496 88.2839 52.2911C88.4458 52.323 88.5995 52.3866 88.7359 52.4781C88.8648 52.5747 88.9708 52.6975 89.0466 52.8381C89.132 53.0179 89.1731 53.2147 89.1667 53.4128C89.169 53.572 89.1377 53.73 89.0749 53.8768C89.0169 54.0138 88.9357 54.1402 88.8348 54.2507C88.7294 54.3503 88.6134 54.4386 88.4887 54.5138H88.4816Z" fill="#4E3D35"/>
<path d="M94.0462 57.9342C94.2587 58.2658 94.5567 58.5365 94.9102 58.7189C95.2636 58.9013 95.66 58.9889 96.0591 58.9728C96.4474 58.99 96.8338 58.9092 97.1812 58.7383C97.5287 58.5674 97.8256 58.312 98.0437 57.9965C98.5575 57.1637 98.8036 56.1986 98.75 55.2268C98.7561 54.7058 98.704 54.1857 98.5946 53.6758C98.5056 53.2557 98.3406 52.8547 98.1073 52.4917C97.8965 52.1711 97.6077 51.907 97.2668 51.7231C96.8988 51.5352 96.488 51.4423 96.0732 51.4531C95.6869 51.4364 95.3027 51.5174 94.9576 51.6884C94.6125 51.8594 94.3181 52.1146 94.1027 52.4294C93.589 53.2622 93.3429 54.2273 93.3964 55.1991C93.3921 55.7204 93.4466 56.2406 93.5589 56.7501C93.6488 57.1699 93.8138 57.5708 94.0462 57.9342ZM94.7101 52.921C94.8492 52.6932 95.0472 52.5053 95.2841 52.3764C95.5209 52.2476 95.7883 52.1822 96.0591 52.187C96.3572 52.179 96.6498 52.2665 96.8925 52.4363C97.1411 52.6165 97.3402 52.8544 97.4717 53.1288C97.6361 53.4274 97.7506 53.75 97.8107 54.0843C97.8822 54.4611 97.9177 54.8436 97.9166 55.2268C97.9754 56.0145 97.8039 56.8024 97.4222 57.498C97.2736 57.7159 97.0699 57.8923 96.831 58.01C96.5921 58.1277 96.3261 58.1827 96.0591 58.1696C95.7642 58.1787 95.4742 58.0936 95.2328 57.9273C94.9879 57.745 94.7917 57.5075 94.6607 57.2348C94.503 56.9339 94.3912 56.612 94.3287 56.2793C94.2696 55.9199 94.2436 55.5561 94.251 55.1922C94.1875 54.4081 94.3464 53.6221 94.7101 52.921Z" fill="#4E3D35"/>
<path d="M106.456 58.8621V51.5432H103.002C103.002 52.4295 102.96 53.212 102.924 53.8767C102.889 54.5414 102.833 55.1092 102.776 55.5939C102.732 55.9923 102.664 56.3877 102.571 56.7779C102.512 57.0363 102.429 57.2889 102.324 57.5327C102.259 57.6972 102.155 57.8443 102.02 57.962C101.932 58.0318 101.823 58.0708 101.71 58.0728C101.644 58.0834 101.577 58.0834 101.512 58.0728L101.406 58.8206C101.481 58.8544 101.559 58.8821 101.639 58.9037C101.735 58.9113 101.832 58.9113 101.929 58.9037C102.153 58.9021 102.368 58.8209 102.536 58.6752C102.754 58.4868 102.921 58.2491 103.023 57.9828C103.27 57.2848 103.424 56.5588 103.482 55.8224C103.591 54.8992 103.675 53.7451 103.737 52.3603H105.686V58.8621H106.456Z" fill="#4E3D35"/>
<path d="M110.983 51.5432H110.213V58.8483H116.81V51.5432H116.033V58.0728H113.9V51.5432H113.123V58.0728H110.983V51.5432Z" fill="#4E3D35"/>
<path d="M124.119 52.3118V51.5432H120.559V58.8483H124.168V58.0728H121.336V55.4762H123.886V54.7076H121.336V52.3118H124.119Z" fill="#4E3D35"/>
<path d="M131.28 52.3118V51.5432H127.749V58.7721C127.881 58.8116 128.015 58.8416 128.151 58.8621L128.582 58.9037C128.731 58.9037 128.872 58.9037 129.006 58.9037H129.359C129.669 58.9045 129.977 58.8554 130.27 58.7583C130.552 58.6711 130.811 58.5272 131.033 58.3359C131.26 58.1294 131.439 57.8765 131.556 57.595C131.696 57.2519 131.763 56.8843 131.753 56.5148C131.766 56.1592 131.701 55.805 131.563 55.4762C131.449 55.2185 131.269 54.9942 131.04 54.8253C130.818 54.6564 130.56 54.5403 130.284 54.486C129.988 54.4153 129.685 54.3805 129.38 54.3822C129.231 54.3839 129.083 54.3955 128.935 54.4168L128.54 54.4791V52.3118H131.28ZM128.646 55.22H128.851H129.077H129.274C129.478 55.2209 129.681 55.2395 129.882 55.2754C130.068 55.3103 130.245 55.386 130.397 55.497C130.558 55.6194 130.683 55.7821 130.758 55.9678C130.857 56.2142 130.903 56.4784 130.892 56.7433C130.902 56.9792 130.864 57.2148 130.779 57.4357C130.708 57.6111 130.6 57.7694 130.461 57.8997C130.323 58.0216 130.162 58.1157 129.988 58.1766C129.806 58.2384 129.615 58.2688 129.423 58.2667H128.914H128.681C128.622 58.2733 128.563 58.2733 128.505 58.2667V55.2477L128.646 55.22Z" fill="#4E3D35"/>
<path d="M139.72 58.8483V51.5432H138.944V54.7284H135.808V51.5432H135.031V58.8483H135.808V55.497H138.944V58.8483H139.72Z" fill="#4E3D35"/>
<path d="M149.064 51.5432H148.287V58.8483H149.064V51.5432Z" fill="#4E3D35"/>
<path d="M144.227 58.9036H144.594H144.898C145.233 58.9075 145.567 58.8584 145.886 58.7582C146.172 58.6657 146.435 58.5147 146.656 58.315C146.88 58.1018 147.052 57.8413 147.158 57.5534C147.283 57.202 147.343 56.8314 147.334 56.4593C147.347 56.0948 147.282 55.7316 147.143 55.393C147.033 55.1257 146.858 54.8883 146.635 54.7006C146.427 54.5384 146.186 54.4206 145.929 54.3543C145.649 54.2868 145.362 54.2542 145.074 54.2574H144.848H144.615H144.41H144.269V51.4185H143.499V58.772C143.622 58.8085 143.747 58.8363 143.873 58.8551C143.99 58.8771 144.108 58.8933 144.227 58.9036ZM144.227 55.1437L144.537 55.0814C144.661 55.0605 144.786 55.0489 144.912 55.0468C145.114 55.0447 145.316 55.0679 145.512 55.116C145.697 55.1596 145.871 55.2424 146.021 55.3584C146.173 55.483 146.292 55.6423 146.367 55.8223C146.456 56.0425 146.502 56.2776 146.501 56.5147C146.517 56.7375 146.487 56.9613 146.412 57.1722C146.337 57.3831 146.218 57.5764 146.063 57.7403C145.759 58.0126 145.358 58.1568 144.947 58.1419C144.71 58.1474 144.473 58.1265 144.241 58.0796L144.227 55.1437Z" fill="#4E3D35"/>
<path d="M156.417 58.0728H153.585V55.4762H156.135V54.7076H153.585V52.3118H156.368V51.5432H152.815V58.8483H156.417V58.0728Z" fill="#4E3D35"/>
<path d="M165.416 51.5432H164.639V58.8483H165.098L168.255 53.9182L168.658 53.0665H168.693L168.636 53.8975V58.8483H169.413V51.5432H168.954L165.797 56.5218L165.388 57.3734H165.352L165.416 56.5495V51.5432Z" fill="#4E3D35"/>
<path d="M172.93 51.7716L173.135 52.464C173.315 52.3747 173.508 52.3117 173.707 52.277C173.988 52.2171 174.274 52.1892 174.562 52.194C174.733 52.1925 174.904 52.2134 175.07 52.2563C175.224 52.2894 175.369 52.3556 175.494 52.4501C175.616 52.5517 175.713 52.6797 175.776 52.8241C175.853 53.0061 175.889 53.202 175.882 53.3988C175.877 53.7064 175.754 54.0008 175.536 54.2228C175.427 54.3275 175.3 54.414 175.162 54.479C175.015 54.5427 174.861 54.5892 174.703 54.6175H174.512H174.272H173.665V55.3999H174.371H174.583C174.969 55.4137 175.343 55.539 175.656 55.76C175.798 55.8766 175.909 56.0249 175.981 56.1924C176.052 56.3598 176.081 56.5416 176.066 56.7224C176.074 56.9467 176.028 57.1696 175.932 57.3733C175.849 57.5465 175.728 57.7 175.579 57.8234C175.432 57.9474 175.261 58.0415 175.077 58.1004C174.894 58.1555 174.704 58.1835 174.512 58.1834C174.197 58.1869 173.883 58.1615 173.573 58.1073C173.363 58.069 173.158 58.0038 172.965 57.9134L172.775 58.6889C172.986 58.7765 173.206 58.8415 173.432 58.8828C173.765 58.9381 174.103 58.9636 174.442 58.959C174.748 58.9599 175.053 58.9155 175.346 58.8274C175.634 58.745 175.901 58.6034 176.13 58.412C176.361 58.2223 176.549 57.9862 176.681 57.7195C176.829 57.398 176.902 57.0476 176.892 56.6947C176.916 56.2602 176.778 55.832 176.504 55.4899C176.237 55.1861 175.864 54.991 175.459 54.9429V54.9013C175.841 54.7859 176.169 54.5404 176.384 54.2089C176.583 53.9127 176.691 53.5665 176.695 53.2118C176.706 52.916 176.645 52.6218 176.518 52.3532C176.419 52.1332 176.263 51.9423 176.066 51.7993C175.872 51.6598 175.651 51.5608 175.416 51.5084C175.186 51.4488 174.948 51.4186 174.71 51.4184C174.341 51.4118 173.974 51.4514 173.615 51.5361C173.377 51.5843 173.147 51.6635 172.93 51.7716Z" fill="#4E3D35"/>
<path d="M185.035 60.1916H185.565V58.0728H184.717V51.5432H181.228C181.228 52.6303 181.186 53.5651 181.108 54.3545C181.03 55.1438 180.931 55.8016 180.833 56.3279C180.759 56.7386 180.655 57.1436 180.522 57.5396C180.463 57.7236 180.387 57.9021 180.296 58.0728H179.632V60.1916H180.176L180.31 58.8483H184.894L185.035 60.1916ZM183.947 58.0728H181.122C181.239 57.7959 181.336 57.5113 181.412 57.2211C181.504 56.8749 181.588 56.4733 181.666 56.0024C181.744 55.5316 181.8 54.9915 181.857 54.3822C181.913 53.7728 181.941 53.0804 181.963 52.3049H183.947V58.0728Z" fill="#4E3D35"/>
<path d="M192.345 52.3118V51.5432H188.786V58.8483H192.388V58.0728H189.563V55.4762H192.112V54.7076H189.563V52.3118H192.345Z" fill="#4E3D35"/>
<path d="M200.192 58.8621V51.5432H196.738C196.738 52.4295 196.696 53.212 196.661 53.8767C196.625 54.5414 196.569 55.1092 196.512 55.5939C196.469 55.9946 196.4 56.3924 196.307 56.7849C196.248 57.0432 196.165 57.2958 196.06 57.5396C195.995 57.7042 195.891 57.8512 195.757 57.9689C195.668 58.0388 195.559 58.0778 195.446 58.0797C195.38 58.0903 195.314 58.0903 195.248 58.0797L195.142 58.8275C195.217 58.8613 195.295 58.8891 195.375 58.9106C195.472 58.9183 195.568 58.9183 195.665 58.9106C195.889 58.909 196.105 58.8279 196.272 58.6821C196.49 58.4937 196.657 58.256 196.759 57.9897C197.006 57.2917 197.16 56.5657 197.219 55.8293C197.324 54.9084 197.409 53.7521 197.466 52.3672H199.422V58.8621H200.192Z" fill="#4E3D35"/>
<path d="M205.107 56.5218L204.691 57.3734H204.655L204.719 56.5495V51.5432H203.949V58.8483H204.401L207.558 53.9182L207.961 53.0665H207.996L207.94 53.8975V58.8483H208.716V51.5432H208.257L205.107 56.5218Z" fill="#4E3D35"/>
<path d="M214.812 51.4601C214.496 51.4573 214.18 51.4945 213.873 51.5709C213.593 51.6352 213.33 51.758 213.103 51.931C212.873 52.1153 212.693 52.3534 212.58 52.6234C212.441 52.9594 212.373 53.3201 212.383 53.6828C212.379 53.9596 212.42 54.2352 212.503 54.4999C212.572 54.7229 212.682 54.9317 212.828 55.1161C212.964 55.2917 213.131 55.4418 213.322 55.5593C213.515 55.6739 213.725 55.7602 213.943 55.8155L213.378 56.2655L211.917 58.8621H212.835L214.459 55.9055L215.42 55.677V58.8621H216.196V51.6124C215.965 51.5503 215.729 51.5086 215.49 51.4878C215.25 51.467 215.024 51.4601 214.812 51.4601ZM215.42 55.1646H214.784C214.578 55.1666 214.374 55.1386 214.177 55.0815C213.991 55.0293 213.82 54.9371 213.675 54.8115C213.528 54.6836 213.412 54.5251 213.336 54.3475C213.244 54.1281 213.201 53.8921 213.209 53.6551C213.203 53.4182 213.246 53.1826 213.336 52.9627C213.416 52.7872 213.537 52.6329 213.689 52.5126C213.839 52.4023 214.009 52.3223 214.191 52.2772C214.383 52.2325 214.579 52.2092 214.777 52.2079C214.902 52.1994 215.027 52.1994 215.151 52.2079C215.242 52.2145 215.331 52.2284 215.42 52.2495V55.1646Z" fill="#4E3D35"/>
<path d="M225.759 56.5218L225.349 57.3734H225.314L225.377 56.5495V51.5432H224.6V58.8483H225.06L228.217 53.9182L228.619 53.0665H228.654L228.598 53.8975V58.8483H229.375V51.5432H228.916L225.759 56.5218Z" fill="#4E3D35"/>
<path d="M235.435 54.936V54.8944C235.815 54.7748 236.142 54.5302 236.36 54.202C236.557 53.9052 236.662 53.559 236.664 53.2049C236.673 52.9099 236.615 52.6165 236.494 52.3463C236.391 52.127 236.233 51.9365 236.035 51.7923C235.844 51.653 235.625 51.554 235.392 51.5015C235.162 51.4429 234.924 51.4126 234.686 51.4115C234.318 51.4054 233.95 51.4449 233.591 51.5292C233.358 51.5796 233.133 51.6587 232.92 51.7647L233.125 52.4571C233.306 52.3689 233.499 52.3059 233.697 52.2701C233.978 52.2101 234.265 52.1822 234.552 52.187C234.726 52.186 234.899 52.2069 235.067 52.2493C235.219 52.2838 235.361 52.35 235.484 52.4432C235.609 52.5429 235.706 52.6714 235.767 52.8171C235.843 52.9991 235.879 53.1951 235.873 53.3919C235.875 53.545 235.845 53.6969 235.785 53.8385C235.726 53.9801 235.638 54.1085 235.527 54.2158C235.417 54.3206 235.29 54.4071 235.152 54.472C235.006 54.5368 234.851 54.5833 234.693 54.6105H234.502H234.262H233.662V55.3999H234.368H234.573C234.959 55.4129 235.333 55.5382 235.647 55.7599C235.79 55.8759 235.902 56.0239 235.975 56.1914C236.047 56.3589 236.078 56.541 236.063 56.7224C236.069 56.9472 236.021 57.1702 235.922 57.3733C235.841 57.548 235.72 57.702 235.569 57.8234C235.422 57.9474 235.252 58.0415 235.067 58.1004C234.884 58.1555 234.694 58.1835 234.502 58.1834C234.188 58.1866 233.873 58.1611 233.563 58.1073C233.355 58.0703 233.153 58.005 232.963 57.9134L232.765 58.6889C232.977 58.7745 233.197 58.8395 233.422 58.8828C233.758 58.9382 234.098 58.9637 234.439 58.959C234.743 58.9599 235.045 58.9155 235.336 58.8274C235.624 58.745 235.891 58.6034 236.12 58.4119C236.352 58.2223 236.539 57.9862 236.671 57.7195C236.819 57.398 236.892 57.0476 236.883 56.6947C236.905 56.2615 236.77 55.8344 236.501 55.4899C236.23 55.1801 235.849 54.9822 235.435 54.936Z" fill="#4E3D35"/>
<path d="M246.707 55.0261L247.102 54.6799L249.285 51.5432H248.388L246.191 54.7976L245.774 54.943V51.5432H244.997V58.8483H245.774V55.4623H246.212L248.592 58.8483H249.574L247.187 55.4416L246.707 55.0261Z" fill="#4E3D35"/>
<path d="M257.28 52.4572C257.072 52.1369 256.785 51.8727 256.446 51.6886C256.076 51.5007 255.663 51.4078 255.246 51.4185C254.86 51.4023 254.477 51.4837 254.134 51.6546C253.79 51.8256 253.497 52.0806 253.282 52.3948C252.769 53.2276 252.522 54.1927 252.576 55.1646C252.57 55.6856 252.622 56.2057 252.731 56.7156C252.82 57.1391 252.987 57.5429 253.226 57.9066C253.431 58.2266 253.715 58.4909 254.052 58.6752C254.415 58.8622 254.821 58.9552 255.232 58.9452C255.62 58.963 256.007 58.8825 256.354 58.7115C256.702 58.5406 256.999 58.2848 257.216 57.9689C257.73 57.1361 257.976 56.171 257.923 55.1992C257.926 54.6779 257.872 54.1578 257.76 53.6481C257.674 53.2262 257.511 52.8228 257.28 52.4572ZM256.609 57.4773C256.466 57.6943 256.27 57.872 256.037 57.9932C255.805 58.1145 255.544 58.1752 255.281 58.1697C254.988 58.1777 254.701 58.0927 254.462 57.9273C254.213 57.7476 254.014 57.5095 253.883 57.2349C253.725 56.934 253.613 56.6121 253.551 56.2794C253.478 55.9004 253.443 55.5155 253.445 55.1299C253.388 54.3424 253.56 53.5552 253.939 52.8588C254.077 52.631 254.273 52.443 254.509 52.314C254.745 52.1851 255.011 52.1198 255.281 52.1248C255.581 52.1182 255.875 52.2056 256.122 52.3741C256.368 52.5561 256.567 52.7935 256.701 53.0665C256.86 53.3669 256.971 53.689 257.033 54.022C257.104 54.3988 257.14 54.7813 257.139 55.1646C257.195 55.9695 257.011 56.7731 256.609 57.4773Z" fill="#4E3D35"/>
<path d="M265.6 55.0469L265.974 54.7145L267.86 51.5432H266.998L265.105 54.7976L264.703 54.943V51.5432H263.961V54.8184H263.537L261.644 51.5432H260.74L262.69 54.8184L263.121 55.1854L262.669 55.5801L260.606 58.8483H261.503L263.565 55.49L263.961 55.3377V58.8483H264.703V55.4623H265.133L267.196 58.8483H268.149L266.066 55.4762L265.6 55.0469Z" fill="#4E3D35"/>
<path d="M272.261 56.5218L271.844 57.3734H271.808L271.872 56.5495V51.5432H271.102V58.8483H271.554L274.711 53.9182L275.114 53.0665H275.149L275.093 53.8975V58.8483H275.869V51.5432H275.41L272.261 56.5218Z" fill="#4E3D35"/>
<path d="M182.536 28.5338C183.15 28.5239 183.764 28.4777 184.372 28.3953C185.432 32.446 187.529 41.9738 187.529 41.9738H193.618L189.253 26.9482C190.494 26.3771 191.526 25.4457 192.21 24.2802C192.893 23.1148 193.195 21.7715 193.074 20.4324C192.636 12.3241 182.536 14.2421 182.536 14.2421V12.428H177.43V41.9669H183.08L182.536 28.5338Z" fill="#4E3D35"/>
<path d="M128.709 37.1684H120.877V32.903H127.516V28.0006H120.99V17.2265H128.709V12.428H116.095V41.9669H128.709V37.1684Z" fill="#4E3D35"/>
<path d="M111.724 27.5989C111.724 11.2369 97.3589 12.5248 97.3589 12.5248L96.6526 42.6661C96.6526 42.6661 111.724 44.231 111.724 27.5989Z" fill="#4E3D35"/>
<path d="M90.6493 19.74H86.1503V43.5733H90.6493V19.74Z" fill="#4E3D35"/>
<path d="M88.3968 17.0534C89.0254 17.0534 89.6399 16.8706 90.1625 16.5282C90.6852 16.1859 91.0926 15.6992 91.3331 15.1299C91.5737 14.5605 91.6366 13.934 91.514 13.3296C91.3914 12.7251 91.0887 12.1699 90.6442 11.7342C90.1997 11.2984 89.6334 11.0016 89.0169 10.8814C88.4003 10.7612 87.7613 10.8229 87.1806 11.0587C86.5998 11.2946 86.1034 11.6939 85.7542 12.2063C85.405 12.7187 85.2186 13.3212 85.2186 13.9374C85.2176 14.3469 85.2992 14.7525 85.4586 15.1309C85.618 15.5094 85.8521 15.8532 86.1474 16.1428C86.4427 16.4323 86.7934 16.6618 87.1795 16.818C87.5655 16.9743 87.9792 17.0543 88.3968 17.0534Z" fill="#4E3D35"/>
<path d="M138.04 16.1948H133.541V44.2034H138.04V16.1948Z" fill="#4E3D35"/>
<path d="M135.999 13.5082C136.627 13.5082 137.242 13.3255 137.764 12.9831C138.287 12.6407 138.694 12.1541 138.935 11.5847C139.175 11.0153 139.238 10.3888 139.116 9.7844C138.993 9.17997 138.69 8.62477 138.246 8.189C137.801 7.75323 137.235 7.45647 136.619 7.33624C136.002 7.21601 135.363 7.27772 134.782 7.51355C134.202 7.74939 133.705 8.14876 133.356 8.66117C133.007 9.17358 132.82 9.77601 132.82 10.3923C132.82 11.2187 133.155 12.0112 133.751 12.5956C134.347 13.1799 135.156 13.5082 135.999 13.5082Z" fill="#4E3D35"/>
<path d="M245.217 16.3262C239.715 16.3262 235.259 21.2147 235.259 27.2526C235.259 33.2906 239.715 38.1791 245.217 38.1791C250.719 38.1791 255.183 33.2837 255.183 27.2526C255.183 21.2216 250.719 16.3262 245.217 16.3262Z" fill="#4E3D35"/>
<path d="M270.82 12.1096L267.232 24.1578L263.644 12.1096H257.768V41.8839L263.206 42.3063V25.6258C263.206 25.6258 265.925 33.9349 267.126 33.9349C268.326 33.9349 271.039 25.6258 271.039 25.6258V42.244H276.689V12.1096H270.82Z" fill="#4E3D35"/>
<path d="M232.97 27.3842C232.97 13.1549 221.542 12.0747 218.06 12.0747C217.439 12.0747 217.064 12.1093 217.064 12.1093L216.245 42.2437C216.245 42.2437 216.768 42.2991 217.615 42.2991C221.606 42.306 232.97 41.1012 232.97 27.3842ZM226.825 33.2422C226.209 34.3412 225.304 35.2591 224.205 35.9011C223.293 36.4328 222.305 36.8273 221.274 37.0713L221.811 17.4064C222.645 17.6418 223.442 17.9915 224.177 18.445C226.79 20.0722 228.054 22.9943 228.054 27.3842C228.144 29.4064 227.722 31.4191 226.825 33.2422Z" fill="#4E3D35"/>
<path d="M213.759 38.9064V15.4885H209.268V18.736C208.52 17.9018 207.603 17.2296 206.575 16.7623C205.548 16.2949 204.432 16.0427 203.3 16.0217C198.221 16.0217 194.118 21.0972 194.118 27.3636C194.118 33.6301 198.236 38.6986 203.3 38.6986C204.43 38.6811 205.544 38.4332 206.572 37.9707C207.599 37.5082 208.517 36.8412 209.268 36.012V38.9341L213.759 38.9064ZM203.3 33.8932C201.265 33.8932 198.998 31.2135 198.998 27.3636C198.998 23.5137 201.265 20.8271 203.3 20.8271C205.334 20.8271 207.601 23.5068 207.601 27.3636C207.601 31.2204 205.334 33.8932 203.3 33.8932Z" fill="#4E3D35"/>
<path d="M164.688 42.1192C169.124 42.1192 171.949 40.0419 173.319 35.6727C174.411 32.4016 174.654 28.915 174.025 25.5287L165.649 25.4317L165.458 30.6526L168.848 30.7565V31.0611C168.848 33.0692 168.41 34.4886 167.542 35.2919C167.198 35.5906 166.794 35.8143 166.355 35.948C165.917 36.0817 165.455 36.1224 164.999 36.0674C164.59 36.0592 164.187 35.9675 163.816 35.7982C163.445 35.6289 163.115 35.3857 162.845 35.0841C161.785 33.9001 161.383 31.6566 161.616 28.2222C162.054 21.7688 164.907 18.4313 166.856 18.4313H166.955C167.534 18.5029 168.085 18.7195 168.554 19.0603C169.023 19.4011 169.394 19.8546 169.632 20.377L173.926 17.7596C173.614 16.2949 172.825 14.9689 171.679 13.9802C170.533 12.9916 169.092 12.3935 167.57 12.2756H167.414C165.152 12.4243 163.004 13.3033 161.305 14.7753C158.219 17.3303 156.361 21.5264 155.98 26.9066C155.535 32.9238 156.51 37.2445 158.89 39.7442C159.634 40.5141 160.535 41.1231 161.533 41.5321C162.532 41.9411 163.606 42.1411 164.688 42.1192Z" fill="#4E3D35"/>
<path d="M147.71 31.1649C148.338 31.1649 148.953 30.9822 149.475 30.6398C149.998 30.2974 150.405 29.8108 150.646 29.2414C150.887 28.6721 150.949 28.0456 150.827 27.4411C150.704 26.8367 150.401 26.2815 149.957 25.8457C149.513 25.41 148.946 25.1132 148.33 24.993C147.713 24.8728 147.074 24.9345 146.493 25.1703C145.913 25.4061 145.416 25.8055 145.067 26.3179C144.718 26.8303 144.531 27.4328 144.531 28.049C144.531 28.8754 144.866 29.668 145.462 30.2523C146.058 30.8367 146.867 31.1649 147.71 31.1649Z" fill="#4E3D35"/>
<path d="M66.6288 6.83994C66.7065 5.95364 66.6359 2.08298 66.0002 1.62598C65.3646 1.16898 64.8702 1.42518 63.5071 1.39056C62.144 1.35593 56.0135 0.0610982 54.0713 0.00570417C52.129 -0.0496899 35.807 0.317296 35.3409 0.289599C34.8747 0.261902 28.2146 0.0680225 26.3924 0.407311C24.6208 0.665889 22.8287 0.763243 21.0388 0.69813C18.9624 0.69813 11.3628 1.73677 9.67484 1.64675L5.1335 1.39056C3.72095 1.32131 1.56681 1.12051 0.66278 2.31148C0.104823 3.03853 0.613341 5.61435 0.938227 6.92996C1.26647 9.51195 1.26647 12.1239 0.938227 14.7059C0.578027 16.07 1.02298 20.3007 1.02298 22.7242C1.02298 25.1477 0.366145 27.2873 0.316705 30.6317C0.267266 33.9761 0.917039 38.9408 1.02298 41.4751C1.12892 44.0094 2.64035 64.7683 4.25065 66.4024C5.86096 68.0365 8.1846 68.1335 9.61834 68.0781C11.0521 68.0227 13.856 67.3856 15.7771 67.2472C17.6981 67.1087 21.3566 67.5311 22.6562 67.6003C23.9557 67.6695 32.9325 67.4895 34.3733 67.441C35.8141 67.3926 43.5548 68.0365 45.7867 68.0227C48.0185 68.0088 54.5303 67.4549 55.9711 67.2749C57.4119 67.0948 59.1918 67.8219 60.5125 67.5034C61.8332 67.1848 64.5453 67.4549 65.4564 66.9979C66.3675 66.5409 65.9932 61.7978 65.8519 59.492C65.7107 57.1862 65.4564 37.7914 65.527 34.0038C65.5977 30.2162 66.7489 23.3197 66.9396 19.1236C67.1259 16.2039 66.9576 13.2728 66.4381 10.3921C66.2262 9.49886 66.5794 7.73317 66.6288 6.83994ZM62.1793 19.4906C61.9745 23.3058 61.0069 34.1007 61.0563 40.0971C61.0563 40.7896 61.0563 41.3781 61.0563 41.9805C57.5249 45.0549 53.5345 49.0225 53.5345 49.0225C53.5345 49.0225 49.876 56.7084 48.3857 60.1013L45.2499 56.9439L45.9915 36.1711L47.9196 31.9265C47.9196 31.9265 51.451 28.4644 52.3338 27.9451C53.2167 27.4258 59.3966 21.0208 59.3966 21.0208L62.2217 16.8109C62.2358 17.8841 62.2146 18.812 62.1793 19.4906ZM61.473 4.03562C61.7979 4.24335 62.038 7.31079 62.1793 10.7591L57.6309 18.4312L48.4917 26.6987L45.4477 29.4684L44.9744 25.0507L43.7385 20.7785L41.9163 12.3101L37.4385 2.81003C42.1423 3.01083 50.2009 3.5717 52.4892 3.68941C55.4697 3.84174 60.8162 3.64094 61.4448 4.03562H61.473ZM33.3562 2.83772L36.9724 8.59871L41.9163 25.5908V26.491L30.962 17.1225L26.4489 9.00724L24.6126 4.07717C25.0081 4.07717 25.4106 4.0287 25.8062 3.98023C28.2004 3.65479 31.0962 3.07315 33.3562 2.83772ZM19.2307 3.64094C19.6686 3.64094 20.6009 3.82789 21.7592 3.95253L23.2777 9.99741L29.055 18.7012L41.9445 31.5249V35.1602L42.2059 41.8698L40.5955 52.2561L36.3579 47.97C35.4044 47.0906 27.0351 37.646 25.9545 35.8664C24.8739 34.0869 17.4792 24.3375 14.979 11.2992C14.2939 7.76087 13.9125 5.54511 13.7359 4.11871C16.0949 3.94561 18.4185 3.59939 19.1954 3.64094H19.2307ZM23.8074 49.4033C23.8074 49.4033 14.7741 50.4697 13.2133 50.6428C11.6524 50.8159 8.50949 50.9128 6.22116 50.0265C5.9669 48.7386 5.29594 42.2021 5.26063 40.291C5.26063 39.2455 5.26063 36.8704 5.19706 34.7516L7.54896 36.3511L11.3275 38.7123L17.4933 40.2426L18.8352 40.6926L24.0405 40.9627C28.4759 47.0353 30.1497 48.1708 30.9337 48.6486L28.2428 48.4755L23.8074 49.4033ZM5.16175 30.7079C5.10525 29.5584 4.99931 23.5689 5.26063 20.5292L8.89794 23.5482L12.5776 25.1754L16.9565 28.2359C18.1377 31.2443 19.5815 34.1471 21.2719 36.912L18.2843 37.639L13.2274 36.1711L10.5506 35.0771L6.14347 31.1649L5.1335 30.8602C5.1335 30.8048 5.12644 30.7563 5.12644 30.7217L5.16175 30.7079ZM10.9956 4.2572C11.3932 7.61393 11.9994 10.9438 12.8107 14.2281C13.0014 15.0798 13.743 18.6804 15.212 23.2297L7.83147 19.7675L5.59258 17.6903C5.7974 15.2806 5.8539 12.3309 5.86096 10.3644C5.82862 8.52181 5.69896 6.68211 5.47251 4.85268C7.29016 4.56508 9.12191 4.37094 10.9603 4.27105L10.9956 4.2572ZM6.83562 62.047C6.28473 61.0084 6.26354 56.6323 6.24941 53.4263L10.1127 54.3126L18.6798 53.094L22.3666 52.7201C21.0741 54.3265 19.2307 57.0754 19.2307 57.0754L16.0878 61.7216L13.969 63.5773L12.5564 63.4873C6.26354 63.0164 7.31589 62.961 6.83562 62.047ZM17.1049 63.7089L22.5926 56.84C22.5926 56.84 23.426 55.8637 24.2524 55.0189L26.9221 52.2492L29.9802 51.9376L34.7123 52.2908C38.2589 56.0055 41.5615 59.9371 44.6001 64.062H43.8938C37.0854 64.242 24.8386 64.0481 17.1049 63.7089ZM61.7626 61.8116C58.683 62.5642 55.5537 63.1056 52.3974 63.4319C52.5104 57.9687 55.9782 51.3491 56.4726 50.8228C56.8045 50.4766 59.2977 47.3607 61.1128 45.2003C61.1128 48.2539 61.1128 50.2827 61.1128 51.3214C61.11 53.4026 61.2161 55.4826 61.4306 57.5532C61.7626 59.5128 62.144 61.5762 61.7626 61.8116Z" fill="#4E3D35"/>
</svg>
