<svg width="25" height="24" viewBox="0 0 25 24" fill="none" xmlns="http://www.w3.org/2000/svg">
<path d="M6.43415 12.7341C5.92331 13.7382 6.50331 14.2182 7.82665 15.0382C8.95165 15.7332 10.5058 15.9874 11.5041 16.0891L10.6675 16.8941C9.48165 18.0232 8.35665 19.1166 7.56998 19.8741C6.42498 20.9716 8.26831 22.7324 9.41248 21.6583L12.51 18.6707C13.6958 19.8116 14.8325 20.9049 15.6075 21.6624C16.7525 22.7408 18.595 20.9949 17.4625 19.8783L14.365 16.8982L13.5166 16.0932C14.5275 15.9916 16.0583 15.7224 17.17 15.0424L17.1691 15.0416C18.4925 14.2174 19.0725 13.7382 18.5691 12.7341C18.265 12.1641 17.445 11.6874 16.3533 12.5116C16.3533 12.5116 14.8791 13.6407 12.5016 13.6407C10.1233 13.6407 8.64998 12.5116 8.64998 12.5116C7.55831 11.6832 6.73498 12.1641 6.43415 12.7341Z" fill="#F58220"/>
<path d="M12.4991 12.1183C15.3974 12.1183 17.7641 9.85333 17.7641 7.065C17.7641 4.265 15.3974 2 12.4991 2C9.59994 2 7.23328 4.265 7.23328 7.065C7.23328 9.85333 9.59994 12.1183 12.4991 12.1183ZM12.4991 4.56583C13.9233 4.56583 15.0849 5.68333 15.0849 7.065C15.0849 8.435 13.9233 9.5525 12.4991 9.5525C11.0749 9.5525 9.91328 8.435 9.91328 7.065C9.91244 5.6825 11.0741 4.56583 12.4991 4.56583Z" fill="#F58220"/>
</svg>
