<svg width="40" height="41" viewBox="0 0 40 41" fill="none" xmlns="http://www.w3.org/2000/svg">
<path d="M6 4.33594H29C32.3137 4.33594 35 7.02223 35 10.3359V11.3359H32V10.3359C32 8.67908 30.6569 7.33594 29 7.33594H6C4.34315 7.33594 3 8.67908 3 10.3359V23.3359C3 24.9928 4.34315 26.3359 6 26.3359H7V29.3359H6C2.68629 29.3359 0 26.6496 0 23.3359V10.3359C0 7.02223 2.68629 4.33594 6 4.33594Z" fill="#4E3D35"/>
<rect x="7.5" y="11.8359" width="31" height="22" rx="4.5" stroke="#4E3D35" stroke-width="3"/>
<path d="M33.3077 23.9345C32.1346 23.1364 30.5962 23.1364 29.4135 23.9345C28.8365 23.5403 28.1635 23.3383 27.4712 23.3383C25.5481 23.3383 24 24.896 24 26.8095C24 28.723 25.5481 30.2903 27.4712 30.2903C28.1635 30.2903 28.8365 30.0884 29.4135 29.6941C31 30.771 33.1635 30.348 34.2404 28.7614C35.3173 27.1749 34.8942 25.0114 33.3077 23.9345ZM32.5288 27.8191C31.9808 28.473 31.0096 28.5595 30.3558 28.0114C30.2788 27.9537 30.2211 27.8864 30.1538 27.8095C29.9711 27.5883 29.6923 27.4633 29.4135 27.473C29.125 27.473 28.8558 27.598 28.6731 27.8191C28.3846 28.1749 27.9423 28.3864 27.4808 28.3768C26.625 28.3768 25.9231 27.6845 25.9231 26.8287C25.9135 25.9633 26.6058 25.271 27.4712 25.271C27.9327 25.271 28.375 25.4826 28.6635 25.8383C29 26.2518 29.6058 26.3191 30.0192 25.9826C30.0673 25.9441 30.1154 25.896 30.1635 25.8383C30.7115 25.1845 31.6827 25.098 32.3365 25.646C32.9904 26.1941 33.0769 27.1653 32.5288 27.8191Z" fill="#4E3D35"/>
<rect x="8" y="17.3359" width="31" height="3" fill="#4E3D35"/>
</svg>
