<svg width="58" height="40" viewBox="0 0 58 40" fill="none" xmlns="http://www.w3.org/2000/svg">
<rect width="58" height="40" rx="4" fill="#FEFDFA"/>
<path d="M29 28.8889C31.4127 26.7301 32.9365 23.5555 32.9365 20C32.9365 16.4444 31.4127 13.3333 29 11.1111C26.9048 9.20631 24.0476 7.99996 21 7.99996C14.3968 7.99996 9 13.3968 9 20C9 26.6031 14.3968 31.9365 21 31.9365C24.0476 32 26.9048 30.7936 29 28.8889Z" fill="#07A9E2"/>
<path d="M9 20C9 26.6031 14.3968 31.9365 21 31.9365C24.1111 31.9365 26.9048 30.7936 29 28.8254C31.4127 26.6666 32.9365 23.492 32.9365 19.9365C32.9365 16.3809 31.4127 13.3333 29 11.1111C26.9048 9.20631 24.0476 7.99996 21 7.99996" fill="#009DDD"/>
<path d="M29.0002 11.1111C26.9049 9.20631 24.0478 7.99996 21.0002 7.99996C20.8097 7.99996 20.6192 7.99996 20.4288 7.99996C16.6827 10.7301 14.27 15.1111 14.27 20C14.27 24.8888 16.6827 29.2698 20.3653 31.9365C20.5557 31.9365 20.7462 31.9365 20.9367 31.9365C24.0478 31.9365 26.8415 30.7936 28.9367 28.8254C31.3494 26.6666 32.8732 23.492 32.8732 19.9365C32.8732 16.3809 31.4129 13.3333 29.0002 11.1111Z" fill="#0284CC"/>
<path d="M37.0634 7.99996C33.9523 7.99996 31.1587 9.14282 28.9999 11.1111C28.5555 11.492 28.1745 11.9365 27.7936 12.3809H30.2063C30.5237 12.7619 30.8412 13.2063 31.0952 13.6508H26.8412C26.5872 14.0952 26.3333 14.4762 26.1428 14.9206H31.7936C31.9841 15.365 32.1745 15.746 32.3015 16.1904H25.6983C25.5714 16.6349 25.4444 17.0158 25.3174 17.4603H32.6825C32.8729 18.2857 32.9364 19.1111 32.9364 20C32.9364 21.3333 32.746 22.6031 32.3015 23.8095H25.6983C25.8253 24.2539 26.0158 24.6349 26.2063 25.0793H31.8571C31.6666 25.5238 31.4126 25.9682 31.1587 26.3492H26.9047C27.1587 26.7936 27.4761 27.2381 27.7936 27.619H30.2063C29.8253 28.0635 29.4444 28.5079 28.9999 28.8889C31.1587 30.7936 33.9523 32 37.0634 32C43.6666 32 48.9999 26.6666 48.9999 20.0635C48.9999 13.3968 43.6666 7.99996 37.0634 7.99996Z" fill="#FF2957"/>
<path d="M37.0634 7.99996C33.9523 7.99996 31.1587 9.14282 28.9999 11.1111C28.5555 11.492 28.1745 11.9365 27.7936 12.3809H30.2063C30.5237 12.7619 30.8412 13.2063 31.0952 13.6508H26.8412C26.5872 14.0952 26.3333 14.4762 26.1428 14.9206H31.7936C31.9841 15.365 32.1745 15.746 32.3015 16.1904H25.6983C25.5714 16.6349 25.4444 17.0158 25.3174 17.4603H32.6825C32.8729 18.2857 32.9364 19.1111 32.9364 20C32.9364 21.3333 32.746 22.6031 32.3015 23.8095H25.6983C25.8253 24.2539 26.0158 24.6349 26.2063 25.0793H31.8571C31.6666 25.5238 31.4126 25.9682 31.1587 26.3492H26.9047C27.1587 26.7936 27.4761 27.2381 27.7936 27.619H30.2063C29.8253 28.0635 29.4444 28.5079 28.9999 28.8889C31.1587 30.7936 33.9523 32 37.0634 32C43.6666 32 48.9999 26.6666 48.9999 20.0635" fill="#ED1C2E"/>
<path d="M29 28.8889C31.4127 26.7302 32.9365 23.5556 32.9365 20C32.9365 16.4444 31.4127 13.3333 29 11.1111V28.8889Z" fill="#0466B5"/>
<path d="M44.873 22.603C44.873 22.4125 45.0635 22.2221 45.254 22.2221C45.4445 22.2221 45.635 22.4125 45.635 22.603C45.635 22.7935 45.4445 22.984 45.254 22.984C45.0635 22.984 44.873 22.7935 44.873 22.603ZM45.254 22.9205C45.4445 22.9205 45.508 22.7935 45.508 22.603C45.508 22.4125 45.381 22.3491 45.254 22.3491C45.0635 22.3491 44.9365 22.476 44.9365 22.603C44.9365 22.73 45.127 22.9205 45.254 22.9205ZM45.254 22.73H45.1905V22.4125H45.3175C45.381 22.4125 45.381 22.4125 45.381 22.4125L45.4445 22.476C45.4445 22.5395 45.4445 22.5395 45.381 22.5395L45.4445 22.6665H45.381L45.3175 22.5395H45.254V22.73ZM45.254 22.5395C45.3175 22.5395 45.3175 22.5395 45.3175 22.5395C45.3175 22.5395 45.3175 22.5395 45.3175 22.476H45.254V22.5395Z" fill="white"/>
<path d="M28.9999 11.1111C28.5555 11.4921 28.1745 11.9365 27.7936 12.381H30.2063C30.5237 12.7619 30.8412 13.2064 31.0952 13.6508H26.8412C26.5872 14.0953 26.3333 14.4762 26.1428 14.9207H31.7936C31.984 15.3651 32.1745 15.7461 32.3015 16.1905H25.6983C25.5714 16.635 25.4444 17.0159 25.3174 17.4604H32.6825C32.8729 18.2858 32.9364 19.1111 32.9364 20C32.9364 21.3334 32.746 22.6032 32.3015 23.8096H25.6983C25.8253 24.254 26.0158 24.635 26.2063 25.0794H31.8571C31.6666 25.5238 31.4126 25.9683 31.1587 26.3492H26.9047C27.1587 26.7937 27.4761 27.2381 27.7936 27.6191H30.2063C29.8253 28.0635 29.4444 28.508 28.9999 28.8889C31.1587 30.7937 33.9523 32 37.0634 32C37.2539 32 37.4444 32 37.6348 32C41.3174 29.3334 43.7301 24.9524 43.7301 20.0635C43.7301 15.1746 41.3174 10.7937 37.6348 8.12702C37.4444 8.12702 37.2539 8.12702 37.0634 8.12702C33.9523 8.00004 31.1587 9.20639 28.9999 11.1111Z" fill="#D1094B"/>
<path d="M19.4762 22.9842H17.9524L18.8413 18.3493L16.8095 22.9842H15.4762L15.2222 18.3493L14.3333 22.9842H13L14.1429 16.8889H16.4921L16.619 20.6985L18.2698 16.8889H20.6825L19.4762 22.9842Z" fill="white"/>
<path d="M18.0156 20.3173L18.9045 18.3491L18.2061 22.0316C18.2696 22.3491 18.3331 22.73 18.4601 23.0475H19.476L20.6188 16.9522H18.3966C18.1426 17.9046 17.9521 18.984 17.9521 20.0633C18.0156 20.1268 18.0156 20.1903 18.0156 20.3173Z" fill="#DCE5E5"/>
<path d="M36.1109 22.9205C35.6665 23.0475 35.4125 23.111 35.0315 23.111C34.2696 23.111 33.8887 22.73 33.8887 22.0316C33.8887 21.9046 33.8887 21.7776 33.9522 21.5872L34.0157 21.0792L34.0791 20.6983L34.7776 16.9522H36.2379L36.0474 18.0951H36.8093L36.6188 19.2379H35.8569L35.476 21.2697C35.476 21.3332 35.4125 21.4602 35.4125 21.4602C35.4125 21.7141 35.603 21.8411 35.9204 21.8411C36.1109 21.8411 36.2379 21.8411 36.3014 21.7776L36.1109 22.9205Z" fill="#DCE5E5"/>
<path d="M40.4917 18.0952C40.3647 18.0317 40.3647 18.0317 40.3012 18.0317C40.2377 18.0317 40.1742 18.0317 40.1742 17.9682C40.1107 17.9682 40.1107 17.9682 39.9837 17.9682C39.4758 17.9682 39.1583 18.1587 38.7139 18.7936L38.8409 18.0317H37.5075L36.6187 22.9841H38.1425C38.6504 19.9365 38.9044 19.4285 39.6028 19.4285C39.6663 19.4285 39.7298 19.4285 39.7933 19.4285L39.9837 19.492L40.4917 18.0952Z" fill="#DCE5E5"/>
<path d="M30.2062 19.619C30.2062 20.2539 30.5871 20.6984 31.349 20.9523C31.984 21.2063 32.0475 21.2698 32.0475 21.5238C32.0475 21.8412 31.7935 21.9682 31.1586 21.9682C30.7141 21.9682 30.2697 21.9047 29.8252 21.7777L29.6348 22.9206H29.6983L29.9522 22.9841C30.0157 22.9841 30.2062 22.9841 30.3332 22.9841C30.7141 23.0476 30.9681 23.0476 31.1586 23.0476C32.7459 23.0476 33.5078 22.5396 33.5078 21.3968C33.5078 20.6984 33.1903 20.3174 32.4284 19.9999C31.7935 19.746 31.73 19.6825 31.73 19.492C31.73 19.238 31.984 19.1111 32.4919 19.1111C32.7459 19.1111 33.1903 19.1111 33.5713 19.1746L33.7617 18.0317C33.3808 17.9682 32.8094 17.9682 32.4284 17.9682C30.7776 17.9682 30.2062 18.7301 30.2062 19.619Z" fill="#DCE5E5"/>
<path d="M24.3013 22.9841H23.095V22.4762C22.714 22.8571 22.2061 23.0476 21.5077 23.0476C20.6823 23.0476 20.1743 22.4762 20.1743 21.7143C20.1743 20.5079 21.1267 19.8095 22.7775 19.8095C22.968 19.8095 23.1584 19.8095 23.4124 19.8095C23.4759 19.619 23.4759 19.5556 23.4759 19.4921C23.4759 19.1746 23.2219 19.0476 22.5235 19.0476C22.0791 19.0476 21.6346 19.1111 21.3172 19.1746L21.1267 19.2381H20.9997L21.1902 18.1587C21.9521 17.9683 22.3965 17.9048 22.968 17.9048C24.2378 17.9048 24.9362 18.4127 24.9362 19.3651C24.9362 19.619 24.9362 19.8095 24.8092 20.3809L24.4918 22.1587L24.4283 22.4762L24.3648 22.7302V22.9206L24.3013 22.9841ZM23.2219 20.7619C23.0315 20.7619 22.968 20.7619 22.9045 20.7619C22.0791 20.7619 21.6346 21.0159 21.6346 21.5238C21.6346 21.8413 21.8251 22.0317 22.1426 22.0317C22.7775 22.0317 23.2219 21.5238 23.2219 20.7619Z" fill="#DCE5E5"/>
<path d="M29.1904 22.8571C28.6825 22.9841 28.1746 23.0476 27.6666 23.0476C26.0158 23.0476 25.127 22.2857 25.127 20.8254C25.127 19.1111 26.2063 17.9048 27.7301 17.9048C28.9365 17.9048 29.6984 18.6032 29.6984 19.6825C29.6984 20.0635 29.6349 20.381 29.5079 20.8889H26.5238C26.5238 20.9524 26.5238 21.0159 26.5238 21.0794C26.5238 21.6508 26.9682 21.9683 27.7936 21.9683C28.365 21.9683 28.8095 21.9048 29.3174 21.6508L29.1904 22.8571ZM28.4285 19.9365C28.4285 19.873 28.4285 19.746 28.4285 19.6825C28.4285 19.3016 28.1746 19.0476 27.7301 19.0476C27.2857 19.0476 26.9047 19.3651 26.7777 19.9365H28.4285Z" fill="#DCE5E5"/>
<path d="M45.1268 20.7619C44.8728 22.4127 43.73 23.1111 42.2061 23.1111C40.5553 23.1111 39.8569 22.0952 39.8569 20.8254C39.8569 19.1111 40.9998 17.9047 42.7776 17.9047C44.3014 17.9047 45.1268 18.9206 45.1268 20.127C45.1268 20.4444 45.1268 20.4444 45.1268 20.7619ZM43.5395 20.127C43.5395 19.619 43.349 19.1746 42.7141 19.1746C41.9522 19.1746 41.5077 20.0635 41.5077 20.8889C41.5077 21.5238 41.8252 21.9682 42.3331 21.9682C42.6506 21.9682 43.349 21.5238 43.476 20.7619C43.5395 20.5079 43.5395 20.3174 43.5395 20.127Z" fill="white"/>
<path d="M39.9207 21.3968C39.9842 20.9524 40.0477 20.4445 40.0477 20C40.0477 19.9365 40.0477 19.873 40.0477 19.873C39.9842 20.1905 39.9207 20.5079 39.9207 20.8889C39.8572 21.0159 39.8572 21.2064 39.9207 21.3968Z" fill="white"/>
</svg>
