<svg width="58" height="40" viewBox="0 0 58 40" fill="none" xmlns="http://www.w3.org/2000/svg">
<rect width="58" height="40" rx="4" fill="#FEFDFA"/>
<path d="M49 20C49 26.6032 43.6667 32 37 32C30.3968 32 25 26.6032 25 20C25 13.3968 30.3333 8 36.9365 8C43.6667 8 49 13.3968 49 20Z" fill="#FFB600"/>
<path d="M37 8C43.6032 8 49 13.3968 49 20C49 26.6032 43.6667 32 37 32C30.3968 32 25 26.6032 25 20" fill="#F7981D"/>
<path d="M37 8C43.6032 8 49 13.3968 49 20C49 26.6032 43.6667 32 37 32" fill="#FF8500"/>
<path d="M20.873 8C14.3333 8.06349 9 13.3968 9 20C9 26.6032 14.3333 32 21 32C24.1111 32 26.9048 30.7936 29.0635 28.8889C29.5079 28.5079 29.8889 28.0635 30.2698 27.619H27.7937C27.4762 27.2381 27.1587 26.7936 26.9048 26.4127H31.1587C31.4127 26.0317 31.6667 25.5873 31.8571 25.1429H26.2064C26.0159 24.7619 25.8254 24.3175 25.6984 23.873H32.3016C32.6825 22.6667 32.9365 21.3968 32.9365 20.0635C32.9365 19.1746 32.8095 18.3492 32.6825 17.5238H25.3175C25.381 17.0794 25.5079 16.6984 25.6349 16.254H32.2381C32.1111 15.8095 31.9206 15.3651 31.7302 14.9841H26.1429C26.3333 14.5397 26.5873 14.1587 26.8413 13.7143H31.0952C30.8413 13.2698 30.5238 12.8254 30.1429 12.4444H27.7937C28.1746 12 28.5556 11.619 29 11.2381C26.9048 9.26984 24.0476 8.12698 20.9365 8.12698C20.9365 8 20.9365 8 20.873 8Z" fill="#FF5050"/>
<path d="M9 19.9998C9 26.603 14.3333 31.9998 21 31.9998C24.1111 31.9998 26.9048 30.7935 29.0635 28.8887C29.5079 28.5078 29.8889 28.0633 30.2698 27.6189H27.7937C27.4762 27.2379 27.1587 26.7935 26.9048 26.4125H31.1587C31.4127 26.0316 31.6667 25.5871 31.8571 25.1427H26.2064C26.0159 24.7617 25.8254 24.3173 25.6984 23.8729H32.3016C32.6825 22.6665 32.9365 21.3967 32.9365 20.0633C32.9365 19.1744 32.8095 18.3491 32.6825 17.5237H25.3175C25.381 17.0792 25.5079 16.6983 25.6349 16.2538H32.2381C32.1111 15.8094 31.9206 15.3649 31.7302 14.984H26.1429C26.3333 14.5395 26.5873 14.1586 26.8413 13.7141H31.0952C30.8413 13.2697 30.5238 12.8252 30.1429 12.4443H27.7937C28.1746 11.9998 28.5556 11.6189 29 11.2379C26.9048 9.26969 24.0476 8.12683 20.9365 8.12683H20.873" fill="#E52836"/>
<path d="M21 31.9998C24.1111 31.9998 26.9048 30.7935 29.0635 28.8887C29.508 28.5078 29.8889 28.0633 30.2699 27.6189H27.7937C27.4762 27.2379 27.1588 26.7935 26.9048 26.4125H31.1588C31.4127 26.0316 31.6667 25.5871 31.8572 25.1427H26.2064C26.0159 24.7617 25.8254 24.3173 25.6984 23.8729H32.3016C32.6826 22.6665 32.9365 21.3967 32.9365 20.0633C32.9365 19.1744 32.8096 18.3491 32.6826 17.5237H25.3175C25.381 17.0792 25.508 16.6983 25.635 16.2538H32.2381C32.1111 15.8094 31.9207 15.3649 31.7302 14.984H26.1429C26.3334 14.5395 26.5873 14.1586 26.8413 13.7141H31.0953C30.8413 13.2697 30.5238 12.8252 30.1429 12.4443H27.7937C28.1746 11.9998 28.5556 11.6189 29 11.2379C26.9048 9.26969 24.0476 8.12683 20.9365 8.12683H20.873" fill="#CB2026"/>
<path d="M25.2544 23.0475L25.4448 21.9681C25.3813 21.9681 25.2544 22.0316 25.1274 22.0316C24.6829 22.0316 24.6194 21.7776 24.6829 21.6506L25.0639 19.4284H25.7623L25.9528 18.2221H25.3178L25.4448 17.4602H24.175C24.175 17.4602 23.4131 21.6506 23.4131 22.1586C23.4131 22.9205 23.8575 23.2379 24.429 23.2379C24.8099 23.2379 25.1274 23.1109 25.2544 23.0475Z" fill="white"/>
<path d="M25.6987 21.0159C25.6987 22.7937 26.9051 23.2381 27.921 23.2381C28.8733 23.2381 29.2543 23.0476 29.2543 23.0476L29.5083 21.8413C29.5083 21.8413 28.8098 22.1588 28.1749 22.1588C26.7781 22.1588 27.0321 21.1429 27.0321 21.1429H29.6352C29.6352 21.1429 29.8257 20.3175 29.8257 20C29.8257 19.1746 29.3813 18.1588 27.9844 18.1588C26.6511 18.0318 25.6987 19.4286 25.6987 21.0159ZM27.921 19.1746C28.6194 19.1746 28.4924 20 28.4924 20.0635H27.0956C27.0956 20 27.2225 19.1746 27.921 19.1746Z" fill="white"/>
<path d="M35.9843 23.0476L36.2382 21.6508C36.2382 21.6508 35.6033 21.9683 35.1589 21.9683C34.27 21.9683 33.889 21.2699 33.889 20.508C33.889 18.9842 34.6509 18.1588 35.5398 18.1588C36.1747 18.1588 36.6827 18.5397 36.6827 18.5397L36.8731 17.2064C36.8731 17.2064 36.1112 16.8889 35.4128 16.8889C33.9525 16.8889 32.4922 18.1588 32.4922 20.5715C32.4922 22.1588 33.2541 23.2381 34.7779 23.2381C35.2858 23.2381 35.9843 23.0476 35.9843 23.0476Z" fill="white"/>
<path d="M18.2701 18.0318C17.3812 18.0318 16.7463 18.2857 16.7463 18.2857L16.5558 19.3651C16.5558 19.3651 17.1273 19.1111 17.9527 19.1111C18.3971 19.1111 18.7781 19.1746 18.7781 19.5556C18.7781 19.8095 18.7146 19.873 18.7146 19.873C18.7146 19.873 18.3336 19.873 18.1431 19.873C17.0638 19.873 15.8574 20.3175 15.8574 21.7778C15.8574 22.9207 16.6193 23.1746 17.0638 23.1746C17.9527 23.1746 18.3336 22.6032 18.3971 22.6032L18.3336 23.1111H19.4765L19.9844 19.6191C19.9844 18.0953 18.7146 18.0318 18.2701 18.0318ZM18.5241 20.8889C18.5241 21.0794 18.3971 22.0953 17.6352 22.0953C17.2542 22.0953 17.1273 21.7778 17.1273 21.5873C17.1273 21.2699 17.3177 20.8254 18.2701 20.8254C18.4606 20.8889 18.5241 20.8889 18.5241 20.8889Z" fill="white"/>
<path d="M21.1908 23.1747C21.5082 23.1747 23.0956 23.2382 23.0956 21.5239C23.0956 19.9366 21.5717 20.254 21.5717 19.6191C21.5717 19.3017 21.8257 19.1747 22.2702 19.1747C22.4606 19.1747 23.159 19.2382 23.159 19.2382L23.3495 18.0953C23.3495 18.0953 22.9051 17.9683 22.1432 17.9683C21.1908 17.9683 20.2384 18.3493 20.2384 19.6191C20.2384 21.0794 21.8257 20.9524 21.8257 21.5239C21.8257 21.9048 21.3813 21.9683 21.0638 21.9683C20.4924 21.9683 19.9209 21.7778 19.9209 21.7778L19.7305 22.9207C19.794 23.0477 20.1114 23.1747 21.1908 23.1747Z" fill="white"/>
<path d="M46.5238 17.0159L46.2699 18.7302C46.2699 18.7302 45.7619 18.0953 45.0635 18.0953C43.9207 18.0953 42.9048 19.4921 42.9048 21.1429C42.9048 22.1588 43.4127 23.2382 44.4921 23.2382C45.254 23.2382 45.6984 22.7302 45.6984 22.7302L45.6349 23.1747H46.9048L47.8572 17.0794L46.5238 17.0159ZM45.9524 20.381C45.9524 21.0794 45.6349 21.9683 44.9365 21.9683C44.4921 21.9683 44.2381 21.5874 44.2381 20.9524C44.2381 19.9366 44.6826 19.3016 45.254 19.3016C45.6984 19.3016 45.9524 19.6191 45.9524 20.381Z" fill="white"/>
<path d="M11.3494 23.1112L12.1113 18.5397L12.2383 23.1112H13.1272L14.778 18.5397L14.0796 23.1112H15.4129L16.4288 17.0159H14.3335L13.0637 20.762L13.0002 17.0159H11.1589L10.1431 23.1112H11.3494Z" fill="white"/>
<path d="M31.0321 23.1112C31.413 21.016 31.4765 19.3017 32.3654 19.6191C32.4924 18.7937 32.6829 18.4763 32.8099 18.1588C32.8099 18.1588 32.7464 18.1588 32.5559 18.1588C31.9845 18.1588 31.54 18.9207 31.54 18.9207L31.667 18.2223H30.4607L29.6353 23.1747H31.0321V23.1112Z" fill="white"/>
<path d="M38.9049 18.0318C38.016 18.0318 37.3811 18.2857 37.3811 18.2857L37.1906 19.3651C37.1906 19.3651 37.762 19.1111 38.5874 19.1111C39.0319 19.1111 39.4128 19.1746 39.4128 19.5556C39.4128 19.8095 39.3493 19.873 39.3493 19.873C39.3493 19.873 38.9684 19.873 38.7779 19.873C37.6985 19.873 36.4922 20.3175 36.4922 21.7778C36.4922 22.9207 37.2541 23.1746 37.6985 23.1746C38.5874 23.1746 38.9684 22.6032 39.0319 22.6032L38.9684 23.1111H40.1112L40.6192 19.6191C40.6827 18.0953 39.3493 18.0318 38.9049 18.0318ZM39.2223 20.8889C39.2223 21.0794 39.0954 22.0953 38.3335 22.0953C37.9525 22.0953 37.8255 21.7778 37.8255 21.5873C37.8255 21.2699 38.016 20.8254 38.9684 20.8254C39.1589 20.8889 39.1589 20.8889 39.2223 20.8889Z" fill="white"/>
<path d="M41.6986 23.1112C42.0795 21.016 42.143 19.3017 43.0319 19.6191C43.1589 18.7937 43.3494 18.4763 43.4764 18.1588C43.4764 18.1588 43.4129 18.1588 43.2224 18.1588C42.651 18.1588 42.2065 18.9207 42.2065 18.9207L42.3335 18.2223H41.1272L40.3018 23.1747H41.6986V23.1112Z" fill="white"/>
<path d="M23.2861 22.1586C23.2861 22.9205 23.7306 23.2379 24.302 23.2379C24.7464 23.2379 25.1274 23.1109 25.2544 23.0475L25.4449 21.9681C25.3814 21.9681 25.2544 22.0316 25.1274 22.0316C24.683 22.0316 24.6195 21.7776 24.683 21.6506L25.0639 19.4284H25.7623L25.9528 18.2221H25.3179L25.4449 17.4602" fill="#DCE5E5"/>
<path d="M26.3335 21.0159C26.3335 22.7937 26.9049 23.2381 27.9208 23.2381C28.8732 23.2381 29.2541 23.0476 29.2541 23.0476L29.5081 21.8413C29.5081 21.8413 28.8097 22.1588 28.1748 22.1588C26.7779 22.1588 27.0319 21.1429 27.0319 21.1429H29.6351C29.6351 21.1429 29.8256 20.3175 29.8256 20C29.8256 19.1746 29.3811 18.1588 27.9843 18.1588C26.651 18.0318 26.3335 19.4286 26.3335 21.0159ZM27.9208 19.1746C28.6192 19.1746 28.7462 20 28.7462 20.0635H27.0954C27.0954 20 27.2224 19.1746 27.9208 19.1746Z" fill="#DCE5E5"/>
<path d="M35.9841 23.0476L36.2381 21.6508C36.2381 21.6508 35.6031 21.9683 35.1587 21.9683C34.2698 21.9683 33.8889 21.2699 33.8889 20.508C33.8889 18.9842 34.6508 18.1588 35.5397 18.1588C36.1746 18.1588 36.6825 18.5397 36.6825 18.5397L36.873 17.2064C36.873 17.2064 36.1111 16.8889 35.4127 16.8889C33.9523 16.8889 33.127 18.1588 33.127 20.5715C33.127 22.1588 33.2539 23.2381 34.7777 23.2381C35.2857 23.2381 35.9841 23.0476 35.9841 23.0476Z" fill="#DCE5E5"/>
<path d="M16.5558 19.4287C16.5558 19.4287 17.1273 19.1747 17.9527 19.1747C18.3971 19.1747 18.7781 19.2382 18.7781 19.6191C18.7781 19.8731 18.7146 19.9366 18.7146 19.9366C18.7146 19.9366 18.3336 19.9366 18.1431 19.9366C17.0638 19.9366 15.8574 20.381 15.8574 21.8414C15.8574 22.9842 16.6193 23.2382 17.0638 23.2382C17.9527 23.2382 18.3336 22.6668 18.3971 22.6668L18.3336 23.1747H19.4765L19.9844 19.6826C19.9844 18.2223 18.7146 18.1588 18.2066 18.1588L16.5558 19.4287ZM19.159 20.889C19.159 21.0795 18.3971 22.0953 17.6352 22.0953C17.2542 22.0953 17.1273 21.7779 17.1273 21.5874C17.1273 21.2699 17.3177 20.8255 18.2701 20.8255C18.4606 20.889 19.159 20.889 19.159 20.889Z" fill="#DCE5E5"/>
<path d="M19.7939 23.0477C19.7939 23.0477 20.1749 23.1747 21.2543 23.1747C21.5717 23.1747 23.159 23.2382 23.159 21.5239C23.159 19.9366 21.6352 20.254 21.6352 19.6191C21.6352 19.3017 21.8892 19.1747 22.3336 19.1747C22.5241 19.1747 23.2225 19.2382 23.2225 19.2382L23.413 18.0953C23.413 18.0953 22.9685 17.9683 22.2066 17.9683C21.2543 17.9683 20.9368 18.3493 20.9368 19.6191C20.9368 21.0794 21.8892 20.9524 21.8892 21.5239C21.8892 21.9048 21.4447 21.9683 21.1273 21.9683" fill="#DCE5E5"/>
<path d="M46.2699 18.7302C46.2699 18.7302 45.762 18.0952 45.0636 18.0952C43.9207 18.0952 43.5398 19.4921 43.5398 21.1429C43.5398 22.1587 43.4128 23.2381 44.4921 23.2381C45.254 23.2381 45.6985 22.7302 45.6985 22.7302L45.635 23.1746H46.9048L47.8572 17.0794L46.2699 18.7302ZM46.2064 20.381C46.2064 21.0794 45.635 21.9683 44.9366 21.9683C44.4921 21.9683 44.2382 21.5873 44.2382 20.9524C44.2382 19.9365 44.6826 19.3016 45.254 19.3016C45.6985 19.3016 46.2064 19.619 46.2064 20.381Z" fill="#DCE5E5"/>
<path d="M11.3494 23.1112L12.1113 18.5397L12.2383 23.1112H13.1272L14.778 18.5397L14.0796 23.1112H15.4129L16.4288 17.0159H14.8415L13.0637 20.762L13.0002 17.0159H12.3018L10.1431 23.1112H11.3494Z" fill="#DCE5E5"/>
<path d="M29.6987 23.1112H31.0321C31.413 21.016 31.4765 19.3017 32.3654 19.6191C32.4924 18.7937 32.6829 18.4763 32.8098 18.1588C32.8098 18.1588 32.7463 18.1588 32.5559 18.1588C31.9844 18.1588 31.54 18.9207 31.54 18.9207L31.667 18.2223" fill="#DCE5E5"/>
<path d="M37.1906 19.4287C37.1906 19.4287 37.762 19.1747 38.5874 19.1747C39.0319 19.1747 39.4128 19.2382 39.4128 19.6191C39.4128 19.8731 39.3493 19.9366 39.3493 19.9366C39.3493 19.9366 38.9684 19.9366 38.7779 19.9366C37.6985 19.9366 36.4922 20.381 36.4922 21.8414C36.4922 22.9842 37.2541 23.2382 37.6985 23.2382C38.5874 23.2382 38.9684 22.6668 39.0319 22.6668L38.9684 23.1747H40.1112L40.6192 19.6826C40.6192 18.2223 39.3493 18.1588 38.8414 18.1588L37.1906 19.4287ZM39.7938 20.889C39.7938 21.0795 39.0319 22.0953 38.27 22.0953C37.889 22.0953 37.762 21.7779 37.762 21.5874C37.762 21.2699 37.9525 20.8255 38.9049 20.8255C39.1589 20.889 39.7938 20.889 39.7938 20.889Z" fill="#DCE5E5"/>
<path d="M40.3652 23.1112H41.6986C42.0795 21.016 42.143 19.3017 43.0319 19.6191C43.1589 18.7937 43.3494 18.4763 43.4763 18.1588C43.4763 18.1588 43.4129 18.1588 43.2224 18.1588C42.651 18.1588 42.2065 18.9207 42.2065 18.9207L42.3335 18.2223" fill="#DCE5E5"/>
</svg>
