<svg width="70" height="40" viewBox="0 0 70 40" fill="none" xmlns="http://www.w3.org/2000/svg">
<rect width="70" height="40" rx="4" fill="#FEFDFA"/>
<path d="M26.0669 27.4697L28.7082 12.6126H32.8351L30.2764 27.4697H26.0669Z" fill="#3C58BF"/>
<path d="M26.0669 27.4697L29.451 12.6126H32.8351L30.2764 27.4697H26.0669Z" fill="#293688"/>
<path d="M45.216 12.7778C44.3906 12.4477 43.0699 12.1175 41.4191 12.1175C37.2922 12.1175 34.3207 14.181 34.3207 17.1524C34.3207 19.381 36.3842 20.5365 38.035 21.2794C39.6858 22.0223 40.1811 22.5175 40.1811 23.1778C40.1811 24.1683 38.8604 24.6635 37.7049 24.6635C36.0541 24.6635 35.1461 24.4159 33.743 23.8381L33.1652 23.5905L32.5874 26.9746C33.5779 27.3873 35.3938 27.8 37.2922 27.8C41.6668 27.8 44.5557 25.7365 44.5557 22.6C44.5557 20.8667 43.4826 19.5461 41.0065 18.473C39.5207 17.7302 38.6128 17.3175 38.6128 16.5746C38.6128 15.9143 39.3557 15.254 41.0065 15.254C42.4096 15.254 43.4001 15.5016 44.143 15.8318L44.5557 15.9969L45.216 12.7778Z" fill="#3C58BF"/>
<path d="M45.216 12.7778C44.3906 12.4477 43.0699 12.1175 41.4191 12.1175C37.2922 12.1175 35.0636 14.181 35.0636 17.1524C35.0636 19.381 36.3842 20.5365 38.035 21.2794C39.6858 22.0223 40.1811 22.5175 40.1811 23.1778C40.1811 24.1683 38.8604 24.6635 37.7049 24.6635C36.0541 24.6635 35.1461 24.4159 33.743 23.8381L33.1652 23.5905L32.5874 26.9746C33.5779 27.3873 35.3938 27.8 37.2922 27.8C41.6668 27.8 44.5557 25.7365 44.5557 22.6C44.5557 20.8667 43.4826 19.5461 41.0065 18.473C39.5207 17.7302 38.6128 17.3175 38.6128 16.5746C38.6128 15.9143 39.3557 15.254 41.0065 15.254C42.4096 15.254 43.4001 15.5016 44.143 15.8318L44.5557 15.9969L45.216 12.7778Z" fill="#293688"/>
<path d="M52.3141 12.6126C51.3236 12.6126 50.5807 12.6952 50.168 13.6856L43.9775 27.4697H48.4347L49.2601 24.9936H54.5426L55.0379 27.4697H58.9998L55.5331 12.6126H52.3141ZM50.4156 22.5174C50.6633 21.7745 52.0664 18.1428 52.0664 18.1428C52.0664 18.1428 52.3966 17.2348 52.6442 16.6571L52.8918 18.0602C52.8918 18.0602 53.7172 21.7745 53.8823 22.5999H50.4156V22.5174Z" fill="#3C58BF"/>
<path d="M53.3045 12.6126C52.314 12.6126 51.5712 12.6952 51.1585 13.6856L43.9775 27.4697H48.4347L49.2601 24.9936H54.5426L55.0379 27.4697H58.9998L55.5331 12.6126H53.3045ZM50.4156 22.5174C50.7458 21.692 52.0664 18.1428 52.0664 18.1428C52.0664 18.1428 52.3966 17.2348 52.6442 16.6571L52.8918 18.0602C52.8918 18.0602 53.7172 21.7745 53.8823 22.5999H50.4156V22.5174Z" fill="#293688"/>
<path d="M18.4732 23.0125L18.0605 20.8665C17.3176 18.3903 14.924 15.6665 12.2827 14.3459L15.997 27.5522H20.4541L27.1399 12.6951H22.6827L18.4732 23.0125Z" fill="#3C58BF"/>
<path d="M18.4732 23.0125L18.0605 20.8665C17.3176 18.3903 14.924 15.6665 12.2827 14.3459L15.997 27.5522H20.4541L27.1399 12.6951H23.5081L18.4732 23.0125Z" fill="#293688"/>
<path d="M7 12.6126L7.74286 12.7777C13.0254 14.0158 16.6571 17.1523 18.0603 20.8666L16.5746 13.8507C16.327 12.8602 15.5841 12.6126 14.6762 12.6126H7Z" fill="#FFBC00"/>
<path d="M7 12.6126C12.2825 13.8507 16.6571 17.0698 18.0603 20.784L16.6571 14.9237C16.4095 13.9332 15.5841 13.3555 14.6762 13.3555L7 12.6126Z" fill="#F7981D"/>
<path d="M7 12.6126C12.2825 13.8507 16.6571 17.0698 18.0603 20.784L17.0698 17.565C16.8222 16.5745 16.4921 15.584 15.3365 15.1713L7 12.6126Z" fill="#ED7C00"/>
</svg>
