<svg width="35" height="28" viewBox="0 0 35 28" fill="none" xmlns="http://www.w3.org/2000/svg">
<path d="M15.5556 10.5778C15.5556 12.8593 15.0475 14.9333 14.0315 16.8C13.0155 18.7012 11.8243 20.3432 10.458 21.7259C9.05656 23.1432 7.51501 24.4049 5.83333 25.5111C4.15165 26.6519 2.8028 27.4815 1.78679 28L0 24.9407C1.43644 24.1111 2.8028 23.2469 4.0991 22.3481C5.43043 21.4839 6.44645 20.6543 7.14715 19.8593C8.09309 18.8222 8.84635 17.7333 9.40691 16.5926C9.96747 15.4864 10.3178 14.0173 10.458 12.1852H7.93544C5.72823 12.1852 4.01151 11.6321 2.78529 10.5259C1.55906 9.41975 0.945946 7.88148 0.945946 5.91111C0.945946 4.49383 1.50651 3.16296 2.62763 1.91852C3.74875 0.639506 5.27277 0 7.1997 0C10.1777 0 12.3148 0.985185 13.6111 2.95556C14.9074 4.89136 15.5556 7.4321 15.5556 10.5778ZM35 10.5778C35 12.8593 34.492 14.9333 33.476 16.8C32.46 18.7012 31.2688 20.3432 29.9024 21.7259C28.501 23.1432 26.9595 24.4049 25.2778 25.5111C23.5961 26.6519 22.2472 27.4815 21.2312 28L19.4444 24.9407C20.8809 24.1111 22.2472 23.2469 23.5435 22.3481C24.8749 21.4839 25.8909 20.6543 26.5916 19.8593C27.5375 18.8222 28.2908 17.7333 28.8514 16.5926C29.4119 15.4864 29.7623 14.0173 29.9024 12.1852H27.3799C25.1727 12.1852 23.456 11.6321 22.2297 10.5259C21.0035 9.41975 20.3904 7.88148 20.3904 5.91111C20.3904 4.49383 20.951 3.16296 22.0721 1.91852C23.1932 0.639506 24.7172 0 26.6441 0C29.6221 0 31.7593 0.985185 33.0556 2.95556C34.3519 4.89136 35 7.4321 35 10.5778Z" fill="#4E3D35" fill-opacity="0.4"/>
</svg>
