<svg width="48" height="48" viewBox="0 0 48 48" fill="none" xmlns="http://www.w3.org/2000/svg">
<path fill-rule="evenodd" clip-rule="evenodd" d="M44 24C44 35.0457 35.0457 44 24 44C12.9543 44 4 35.0457 4 24C4 12.9543 12.9543 4 24 4C35.0457 4 44 12.9543 44 24ZM32.435 16.1318L13.1516 23.5668C11.83 24.0834 11.8533 24.8151 12.925 25.1551L17.8616 26.6951L29.3133 19.4851C29.845 19.1318 30.3383 19.3318 29.935 19.6868L20.6683 28.0584L20.3133 33.1468C20.83 33.1468 21.055 32.9218 21.3216 32.6551L23.7333 30.3318L28.7333 34.0168C29.645 34.5334 30.2966 34.2668 30.54 33.1701L33.8233 17.7018L33.8216 17.7035C34.1116 16.3501 33.33 15.8085 32.435 16.1318Z" fill="#039BE5"/>
</svg>
