<svg width="25" height="24" viewBox="0 0 25 24" fill="none" xmlns="http://www.w3.org/2000/svg">
<path d="M22.5 6.77577C21.7934 7.07692 21.0406 7.27654 20.2556 7.37346C21.0631 6.905 21.6794 6.16885 21.9692 5.28154C21.2163 5.71769 20.3851 6.02577 19.4992 6.19769C18.7843 5.45808 17.7654 5 16.6539 5C14.4974 5 12.7613 6.70077 12.7613 8.78577C12.7613 9.08577 12.7874 9.37423 12.8516 9.64885C9.61325 9.49538 6.74781 7.98731 4.82287 5.69C4.48681 6.25654 4.28969 6.905 4.28969 7.60308C4.28969 8.91385 4.98438 10.0758 6.01988 10.7485C5.39406 10.7369 4.78013 10.5604 4.26 10.2823C4.26 10.2938 4.26 10.3088 4.26 10.3238C4.26 12.1631 5.61019 13.6908 7.38075 14.0427C7.06369 14.1269 6.71812 14.1673 6.3595 14.1673C6.11013 14.1673 5.85837 14.1535 5.62206 14.1027C6.12675 15.6015 7.55888 16.7035 9.26175 16.7392C7.9365 17.7465 6.25381 18.3535 4.43219 18.3535C4.11275 18.3535 3.80637 18.3396 3.5 18.3015C5.22544 19.3827 7.27031 20 9.4755 20C16.6432 20 20.562 14.2308 20.562 9.23C20.562 9.06269 20.5561 8.90115 20.5478 8.74077C21.3208 8.20769 21.9704 7.54192 22.5 6.77577Z" fill="#2AA3EF"/>
</svg>
