<svg width="24" height="24" viewBox="0 0 24 24" fill="none" xmlns="http://www.w3.org/2000/svg">
<g clip-path="url(#clip0)">
<path d="M19.0321 17.6381L19.033 17.6384C21.3585 18.411 22.9413 20.5604 22.9984 23H1.0016C1.05871 20.5604 2.64155 18.411 4.96702 17.6384L4.96796 17.6381L8.59666 16.4285H15.4033L19.0321 17.6381ZM2.83079e-06 23.1428C2.83079e-06 23.6162 0.383758 24 0.857162 24H23.1428C23.6163 24 24 23.6162 24 23.1428H2.83079e-06Z" stroke="#4E3D35" stroke-width="2"/>
<path d="M7.85718 5.14285C7.85718 2.85482 9.71199 1 12 1C14.2881 1 16.1429 2.85482 16.1429 5.14285L16.1429 8.57045C16.1429 8.57074 16.1429 8.57103 16.1429 8.57132C16.1429 8.57136 16.1429 8.5714 16.1429 8.57144C16.1401 10.8583 14.2869 12.7115 12 12.7143C9.71298 12.7115 7.85969 10.858 7.85718 8.57091V5.14285Z" stroke="#4E3D35" stroke-width="2"/>
</g>
<defs>
<clipPath id="clip0">
<rect width="24" height="24" fill="white"/>
</clipPath>
</defs>
</svg>
