<svg width="48" height="48" viewBox="0 0 48 48" fill="none" xmlns="http://www.w3.org/2000/svg">
<path d="M27.2006 4H18.7995C10.6928 4 4.09766 10.5952 4.09766 18.7019V25.0027C4.09766 30.6941 7.38005 35.8591 12.4987 38.2886V45.3053C12.4987 45.9145 13.2609 46.2331 13.6938 45.8003L19.7895 39.7046H27.2005C35.3072 39.7046 41.9024 33.1094 41.9024 25.0027V18.7019C41.9024 10.5952 35.3072 4 27.2006 4Z" fill="#665CAC"/>
<path d="M14.599 38.2885C9.4803 35.8589 6.1979 30.694 6.1979 25.0026V18.7018C6.1979 10.5951 12.7931 4 20.8998 4H18.7995C10.6928 4 4.09766 10.5952 4.09766 18.7019V25.0027C4.09766 30.6941 7.38005 35.8591 12.4987 38.2886V45.3053C12.4987 45.9145 13.2609 46.2331 13.6938 45.8003L14.599 44.8952V38.2885Z" fill="#523494"/>
<path d="M33.5697 30.0943L32.9403 26.6846C32.8882 26.4029 32.67 26.1813 32.3892 26.1251L27.4388 25.1351C27.2089 25.0893 26.972 25.1611 26.8063 25.3266L24.7952 27.3378C21.4066 25.8195 19.526 23.9347 17.8713 20.4008L19.8759 18.3962C20.0414 18.2306 20.1133 17.9932 20.0674 17.7637L19.0774 12.8133C19.0212 12.5325 18.7996 12.3141 18.5179 12.2621L15.1082 11.6328C15.0149 11.6156 14.9187 11.6174 14.826 11.6385C13.9257 11.843 13.1043 12.2966 12.4504 12.9507C11.3182 14.0829 10.8855 15.735 11.1992 17.7284C11.7257 21.0758 13.3657 25.7342 16.3914 28.772L16.4328 28.8131C19.4682 31.8366 24.1267 33.4768 27.4742 34.0034C27.896 34.0699 28.3021 34.1028 28.6916 34.1028C30.1431 34.1028 31.3592 33.6449 32.2522 32.7521C32.906 32.0982 33.3598 31.2767 33.5642 30.3766C33.585 30.2838 33.587 30.1878 33.5697 30.0943Z" fill="white"/>
<path d="M19.1914 19.0805L19.8758 18.3959L19.8766 18.3952L19.1913 19.0804L19.1914 19.0805Z" fill="#E5E5E5"/>
<path d="M26.8064 25.3258L26.1152 26.017L26.1153 26.0171L26.8065 25.3259L26.8064 25.3258Z" fill="#E5E5E5"/>
<path d="M30.0114 32.7824C29.622 32.7824 29.2158 32.7495 28.7941 32.6831C25.4466 32.1564 20.7882 30.5163 17.7526 27.4927L17.7113 27.4517C14.6855 24.4138 13.0456 19.7554 12.519 16.4081C12.2656 14.7975 12.4999 13.41 13.1963 12.3392C12.9296 12.5172 12.6793 12.7213 12.45 12.9505C11.3178 14.0827 10.8851 15.7348 11.1988 17.7283C11.7254 21.0756 13.3653 25.734 16.3911 28.7719L16.4324 28.8129C19.4679 31.8365 24.1264 33.4766 27.4739 34.0033C27.8956 34.0697 28.3017 34.1026 28.6912 34.1026C30.1428 34.1026 31.3589 33.6448 32.2518 32.752C32.481 32.5227 32.6851 32.2725 32.863 32.0058C32.0725 32.52 31.1094 32.7824 30.0114 32.7824Z" fill="#E5E5E5"/>
<path d="M24.4004 15.9017C24.0138 15.9017 23.7003 16.2152 23.7003 16.6018C23.7003 16.9884 24.0138 17.3018 24.4004 17.3018C25.9445 17.3018 27.2007 18.5581 27.2007 20.1022C27.2007 20.4837 27.5194 20.8023 27.9008 20.8023C28.2822 20.8023 28.6009 20.4837 28.6009 20.1022C28.6009 17.786 26.7166 15.9017 24.4004 15.9017Z" fill="white"/>
<path d="M24.4003 13.1013C24.1413 13.1013 23.88 13.1156 23.6234 13.1439C23.2391 13.1863 22.9619 13.5322 23.0043 13.9166C23.0467 14.301 23.3934 14.5775 23.777 14.5357C23.9828 14.513 24.1924 14.5014 24.4003 14.5014C27.4885 14.5014 30.001 17.0139 30.001 20.1021C30.001 20.3101 29.9894 20.5198 29.9667 20.7255C29.9249 21.1046 30.2065 21.4565 30.5858 21.4982C30.9649 21.54 31.3166 21.2584 31.3585 20.8791C31.3868 20.6225 31.4012 20.3612 31.4012 20.1021C31.4012 16.2419 28.2606 13.1013 24.4003 13.1013Z" fill="white"/>
<path d="M24.4017 10.3009C24.1515 10.3009 23.8981 10.3104 23.6488 10.3294C23.2632 10.3586 22.9743 10.6949 23.0035 11.0804C23.0326 11.4659 23.3701 11.7548 23.7545 11.7256C23.9688 11.7093 24.1866 11.7011 24.4017 11.7011C29.0341 11.7011 32.8028 15.4698 32.8028 20.1022C32.8028 20.7576 32.7272 21.4101 32.578 22.0414C32.4925 22.4031 32.7153 22.7792 33.074 22.8774C33.4514 22.9808 33.8507 22.7441 33.9406 22.3634C34.1147 21.6267 34.203 20.866 34.203 20.1022C34.203 14.6977 29.8062 10.3009 24.4017 10.3009Z" fill="white"/>
</svg>
