<svg width="36" height="48" viewBox="0 0 36 48" fill="none" xmlns="http://www.w3.org/2000/svg">
<path d="M3.63539 46.1408L3.63879 46.1385L34.263 25.1392L3.63539 46.1408ZM3.63539 46.1408C3.44648 46.2715 3.23111 46.3346 3.02082 46.3346C2.83879 46.3346 2.64919 46.2857 2.47723 46.1856L2.47694 46.1854M3.63539 46.1408L2.47694 46.1854M2.47694 46.1854C2.09814 45.9651 1.83325 45.5215 1.83325 45.0013V3.00186C1.83325 2.48165 2.09814 2.03803 2.47694 1.81768L2.47694 1.81768M2.47694 46.1854L2.47694 1.81768M2.47694 1.81768L2.47965 1.81609M2.47694 1.81768L2.47965 1.81609M2.47965 1.81609C2.83961 1.60517 3.28616 1.61906 3.63277 1.86048L3.63275 1.86051M2.47965 1.81609L3.63275 1.86051M3.63275 1.86051L3.6388 1.86465M3.63275 1.86051L3.6388 1.86465M3.6388 1.86465L34.2632 22.864L3.6388 1.86465ZM34.8333 24.0016C34.8333 23.5213 34.6018 23.0968 34.2637 22.8644L34.8333 24.0016ZM34.8333 24.0016C34.8333 24.4816 34.602 24.906 34.2637 25.1388L34.8333 24.0016Z" stroke="white" stroke-width="2"/>
</svg>
