<svg width="48" height="48" viewBox="0 0 48 48" fill="none" xmlns="http://www.w3.org/2000/svg">
<path d="M43.6435 32.9451C43.536 32.7651 42.8709 31.32 39.6707 28.3498C36.3205 25.2395 36.7705 25.7446 40.8058 20.3667C43.2635 17.0914 44.246 15.0913 43.9385 14.2362C43.646 13.4212 41.8384 13.6362 41.8384 13.6362L35.8279 13.6712C35.8279 13.6712 35.3829 13.6112 35.0504 13.8087C34.7278 14.0037 34.5203 14.4537 34.5203 14.4537C34.5203 14.4537 33.5677 16.9889 32.2977 19.1441C29.62 23.6919 28.5474 23.9319 28.1098 23.6494C27.0923 22.9919 27.3473 21.0042 27.3473 19.5941C27.3473 15.1863 28.0148 13.3486 26.0447 12.8736C25.3896 12.7161 24.9096 12.6111 23.237 12.5936C21.0918 12.5711 19.2742 12.6011 18.2466 13.1036C17.5616 13.4387 17.034 14.1862 17.3565 14.2287C17.7541 14.2812 18.6541 14.4712 19.1317 15.1213C19.7492 15.9588 19.7267 17.844 19.7267 17.844C19.7267 17.844 20.0817 23.0319 18.8992 23.6769C18.0866 24.1194 16.974 23.2169 14.5863 19.0891C13.3638 16.9764 12.4387 14.6387 12.4387 14.6387C12.4387 14.6387 12.2612 14.2037 11.9436 13.9712C11.5586 13.6887 11.0186 13.5987 11.0186 13.5987L5.30315 13.6337C5.30315 13.6337 4.44559 13.6587 4.13057 14.0312C3.85055 14.3637 4.10807 15.0488 4.10807 15.0488C4.10807 15.0488 8.5834 25.5171 13.6488 30.7949C18.2966 35.6328 23.572 35.3153 23.572 35.3153H25.9622C25.9622 35.3153 26.6847 35.2353 27.0523 34.8377C27.3923 34.4727 27.3798 33.7877 27.3798 33.7877C27.3798 33.7877 27.3323 30.5799 28.8224 30.1074C30.29 29.6424 32.1751 33.2076 34.1728 34.5802C35.6829 35.6178 36.8305 35.3903 36.8305 35.3903L42.1734 35.3153C42.1734 35.3153 44.9686 35.1428 43.6435 32.9451Z" stroke="#4E3D35" stroke-opacity="0.6" stroke-width="2"/>
</svg>
