<svg width="24" height="24" viewBox="0 0 24 24" fill="none" xmlns="http://www.w3.org/2000/svg">
<g clip-path="url(#clip0)">
<path d="M21.8217 16.4726C21.768 16.3826 21.4355 15.6601 19.8353 14.1749C18.1602 12.6198 18.3852 12.8723 20.4029 10.1834C21.6317 8.54577 22.123 7.5457 21.9693 7.11817C21.823 6.71064 20.9192 6.81815 20.9192 6.81815L17.914 6.83565C17.914 6.83565 17.6914 6.80564 17.5252 6.9044C17.3639 7.00191 17.2602 7.22693 17.2602 7.22693C17.2602 7.22693 16.7839 8.49452 16.1488 9.5721C14.81 11.846 14.2737 11.966 14.0549 11.8248C13.5461 11.496 13.6736 10.5022 13.6736 9.79712C13.6736 7.5932 14.0074 6.67438 13.0223 6.43687C12.6948 6.35811 12.4548 6.30561 11.6185 6.29686C10.5459 6.28561 9.63709 6.30061 9.12331 6.55188C8.78078 6.71939 8.51701 7.09317 8.67827 7.11442C8.87704 7.14067 9.32707 7.23568 9.56584 7.5607C9.87461 7.97948 9.86336 8.92205 9.86336 8.92205C9.86336 8.92205 10.0409 11.516 9.44958 11.8385C9.0433 12.0598 8.48701 11.6085 7.29317 9.5446C6.68188 8.48827 6.21934 7.31943 6.21934 7.31943C6.21934 7.31943 6.13058 7.10192 5.97182 6.98566C5.77931 6.8444 5.50929 6.79939 5.50929 6.79939L2.65158 6.8169C2.65158 6.8169 2.2228 6.8294 2.06528 7.01566C1.92527 7.18192 2.05403 7.52445 2.05403 7.52445C2.05403 7.52445 4.2917 12.7586 6.82439 15.3975C9.14831 17.8165 11.786 17.6577 11.786 17.6577H12.9811C12.9811 17.6577 13.3424 17.6177 13.5261 17.4189C13.6961 17.2364 13.6899 16.8939 13.6899 16.8939C13.6899 16.8939 13.6661 15.29 14.4112 15.0538C15.145 14.8212 16.0876 16.6039 17.0864 17.2902C17.8415 17.809 18.4152 17.6952 18.4152 17.6952L21.0867 17.6577C21.0867 17.6577 22.4843 17.5714 21.8217 16.4726Z" fill="#5181B8"/>
</g>
<defs>
<clipPath id="clip0">
<rect width="20" height="20" fill="white" transform="translate(2 2)"/>
</clipPath>
</defs>
</svg>
