<svg width="48" height="48" viewBox="0 0 48 48" fill="none" xmlns="http://www.w3.org/2000/svg">
<g clip-path="url(#clip0)">
<path d="M43.6434 32.9452C43.5359 32.7652 42.8708 31.3201 39.6706 28.3499C36.3203 25.2397 36.7704 25.7447 40.8057 20.3668C43.2633 17.0915 44.2459 15.0914 43.9384 14.2363C43.6459 13.4213 41.8382 13.6363 41.8382 13.6363L35.8278 13.6713C35.8278 13.6713 35.3828 13.6113 35.0502 13.8088C34.7277 14.0038 34.5202 14.4539 34.5202 14.4539C34.5202 14.4539 33.5676 16.989 32.2975 19.1442C29.6198 23.692 28.5473 23.9321 28.1097 23.6495C27.0921 22.992 27.3472 21.0043 27.3472 19.5942C27.3472 15.1864 28.0147 13.3488 26.0446 12.8737C25.3895 12.7162 24.9095 12.6112 23.2369 12.5937C21.0917 12.5712 19.2741 12.6012 18.2465 13.1038C17.5614 13.4388 17.0339 14.1863 17.3564 14.2288C17.754 14.2813 18.654 14.4714 19.1316 15.1214C19.7491 15.959 19.7266 17.8441 19.7266 17.8441C19.7266 17.8441 20.0816 23.032 18.899 23.677C18.0865 24.1196 16.9739 23.217 14.5862 19.0892C13.3636 16.9765 12.4386 14.6389 12.4386 14.6389C12.4386 14.6389 12.261 14.2038 11.9435 13.9713C11.5585 13.6888 11.0185 13.5988 11.0185 13.5988L5.30303 13.6338C5.30303 13.6338 4.44547 13.6588 4.13045 14.0313C3.85042 14.3638 4.10794 15.0489 4.10794 15.0489C4.10794 15.0489 8.58328 25.5172 13.6487 30.7951C18.2965 35.6329 23.5719 35.3154 23.5719 35.3154H25.9621C25.9621 35.3154 26.6846 35.2354 27.0521 34.8379C27.3922 34.4728 27.3797 33.7878 27.3797 33.7878C27.3797 33.7878 27.3322 30.5801 28.8223 30.1075C30.2899 29.6425 32.175 33.2077 34.1727 34.5803C35.6828 35.6179 36.8304 35.3904 36.8304 35.3904L42.1733 35.3154C42.1733 35.3154 44.9685 35.1429 43.6434 32.9452Z" fill="#5181B8"/>
</g>
<defs>
<clipPath id="clip0">
<rect width="40" height="40" fill="white" transform="translate(4 4)"/>
</clipPath>
</defs>
</svg>
