<svg width="48" height="48" viewBox="0 0 48 48" fill="none" xmlns="http://www.w3.org/2000/svg">
<path fill-rule="evenodd" clip-rule="evenodd" d="M25.1169 43.4999L25.1284 43.5019C42.1369 43.5019 50.484 22.0519 38.5949 9.75193C26.6771 -2.67806 6.08252 6.11593 6.08252 23.7019C6.08252 27.4399 7.09069 31.0699 8.98819 34.2219L9.44627 34.9719L7.52002 42.2619L14.7075 40.3119C14.7531 40.3326 14.8482 40.3934 14.9908 40.4844C16.048 41.1597 19.7121 43.4999 25.0863 43.4999H25.1169ZM35.5378 28.7639L35.5551 28.6139C35.6167 28.6428 35.676 28.6703 35.7329 28.6968C36.2079 28.9174 36.5209 29.0628 36.6476 29.3039C36.7913 29.5739 36.7913 30.7439 36.3026 32.1539C35.8253 33.5639 33.5388 34.8239 32.4386 35.0059C31.4515 35.1539 30.2038 35.2179 28.8353 34.7639C23.7676 32.9479 20.9961 31.6399 15.7943 24.5359C13.1473 20.6439 12.3673 16.9839 15.4608 13.4359C16.1718 12.6639 16.9788 12.6479 18.0828 12.7479C18.1176 12.7479 18.1536 12.7464 18.1906 12.745C18.5302 12.7315 18.9559 12.7146 19.3708 13.7679C19.5809 14.2818 19.9188 15.1355 20.2442 15.9576C20.661 17.0105 21.0572 18.0114 21.1379 18.1799C21.2798 18.4779 21.3775 18.8079 21.1858 19.2279C20.735 20.1182 20.2654 20.6588 19.9151 21.0621C19.4344 21.6155 19.1782 21.9105 19.503 22.4959C19.8403 23.0959 20.9827 25.0459 22.6847 26.6359C24.5134 28.3432 26.1045 29.0629 26.9119 29.4281C27.0691 29.4993 27.1967 29.557 27.2904 29.6059C27.8597 29.8759 28.1932 29.8459 28.5286 29.4559C29.1812 28.6759 29.6173 28.0896 29.9359 27.6612C30.7187 26.6088 30.7928 26.5092 31.6278 26.8319C32.1511 27.0299 34.9609 28.4639 35.5378 28.7639Z" fill="#4CAF50"/>
</svg>
