<svg width="40" height="40" viewBox="0 0 40 40" fill="none" xmlns="http://www.w3.org/2000/svg">
<g clip-path="url(#clip0)">
<path d="M20 28.8889C22.4127 26.7301 23.9365 23.5555 23.9365 20C23.9365 16.4444 22.4127 13.3333 20 11.1111C17.9048 9.20632 15.0476 7.99997 12 7.99997C5.39683 7.99997 0 13.3968 0 20C0 26.6031 5.39683 31.9365 12 31.9365C15.0476 32 17.9048 30.7936 20 28.8889Z" fill="#07A9E2"/>
<path d="M0 20C0 26.6031 5.39683 31.9365 12 31.9365C15.1111 31.9365 17.9048 30.7936 20 28.8254C22.4127 26.6666 23.9365 23.492 23.9365 19.9365C23.9365 16.3809 22.4127 13.3333 20 11.1111C17.9048 9.20632 15.0476 7.99997 12 7.99997" fill="#009DDD"/>
<path d="M19.9999 11.1111C17.9047 9.20632 15.0476 7.99997 11.9999 7.99997C11.8095 7.99997 11.619 7.99997 11.4285 7.99997C7.68247 10.7301 5.26978 15.1111 5.26978 20C5.26978 24.8889 7.68247 29.2698 11.365 31.9365C11.5555 31.9365 11.746 31.9365 11.9364 31.9365C15.0476 31.9365 17.8412 30.7936 19.9364 28.8254C22.3491 26.6666 23.873 23.492 23.873 19.9365C23.873 16.3809 22.4126 13.3333 19.9999 11.1111Z" fill="#0284CC"/>
<path d="M28.0635 7.99997C24.9524 7.99997 22.1588 9.14283 20 11.1111C19.5556 11.492 19.1746 11.9365 18.7937 12.3809H21.2064C21.5239 12.7619 21.8413 13.2063 22.0953 13.6508H17.8413C17.5873 14.0952 17.3334 14.4762 17.1429 14.9206H22.7937C22.9842 15.3651 23.1746 15.746 23.3016 16.1904H16.6985C16.5715 16.6349 16.4445 17.0158 16.3175 17.4603H23.6826C23.8731 18.2857 23.9366 19.1111 23.9366 20C23.9366 21.3333 23.7461 22.6031 23.3016 23.8095H16.6985C16.8254 24.2539 17.0159 24.6349 17.2064 25.0793H22.8572C22.6667 25.5238 22.4127 25.9682 22.1588 26.3492H17.9048C18.1588 26.7936 18.4762 27.2381 18.7937 27.619H21.2064C20.8254 28.0635 20.4445 28.5079 20 28.8889C22.1588 30.7936 24.9524 32 28.0635 32C34.6667 32 40 26.6666 40 20.0635C40 13.3968 34.6667 7.99997 28.0635 7.99997Z" fill="#FF2957"/>
<path d="M28.0635 7.99997C24.9524 7.99997 22.1588 9.14283 20 11.1111C19.5556 11.492 19.1746 11.9365 18.7937 12.3809H21.2064C21.5239 12.7619 21.8413 13.2063 22.0953 13.6508H17.8413C17.5873 14.0952 17.3334 14.4762 17.1429 14.9206H22.7937C22.9842 15.3651 23.1746 15.746 23.3016 16.1904H16.6985C16.5715 16.6349 16.4445 17.0158 16.3175 17.4603H23.6826C23.8731 18.2857 23.9366 19.1111 23.9366 20C23.9366 21.3333 23.7461 22.6031 23.3016 23.8095H16.6985C16.8254 24.2539 17.0159 24.6349 17.2064 25.0793H22.8572C22.6667 25.5238 22.4127 25.9682 22.1588 26.3492H17.9048C18.1588 26.7936 18.4762 27.2381 18.7937 27.619H21.2064C20.8254 28.0635 20.4445 28.5079 20 28.8889C22.1588 30.7936 24.9524 32 28.0635 32C34.6667 32 40 26.6666 40 20.0635" fill="#ED1C2E"/>
<path d="M20 28.8889C22.4127 26.7302 23.9365 23.5556 23.9365 20C23.9365 16.4445 22.4127 13.3334 20 11.1111V28.8889Z" fill="#0466B5"/>
<path d="M35.873 22.6031C35.873 22.4126 36.0635 22.2221 36.254 22.2221C36.4445 22.2221 36.635 22.4126 36.635 22.6031C36.635 22.7935 36.4445 22.984 36.254 22.984C36.0635 22.984 35.873 22.7935 35.873 22.6031ZM36.254 22.9205C36.4445 22.9205 36.508 22.7935 36.508 22.6031C36.508 22.4126 36.381 22.3491 36.254 22.3491C36.0635 22.3491 35.9365 22.4761 35.9365 22.6031C35.9365 22.73 36.127 22.9205 36.254 22.9205ZM36.254 22.73H36.1905V22.4126H36.3175C36.381 22.4126 36.381 22.4126 36.381 22.4126L36.4445 22.4761C36.4445 22.5396 36.4445 22.5396 36.381 22.5396L36.4445 22.6666H36.381L36.3175 22.5396H36.254V22.73ZM36.254 22.5396C36.3175 22.5396 36.3175 22.5396 36.3175 22.5396C36.3175 22.5396 36.3175 22.5396 36.3175 22.4761H36.254V22.5396Z" fill="white"/>
<path d="M20 11.1112C19.5556 11.4921 19.1746 11.9366 18.7937 12.381H21.2064C21.5239 12.762 21.8413 13.2064 22.0953 13.6509H17.8413C17.5873 14.0953 17.3334 14.4763 17.1429 14.9207H22.7937C22.9842 15.3652 23.1746 15.7461 23.3016 16.1906H16.6985C16.5715 16.635 16.4445 17.0159 16.3175 17.4604H23.6826C23.8731 18.2858 23.9366 19.1112 23.9366 20.0001C23.9366 21.3334 23.7461 22.6033 23.3016 23.8096H16.6985C16.8254 24.254 17.0159 24.635 17.2064 25.0794H22.8572C22.6667 25.5239 22.4127 25.9683 22.1588 26.3493H17.9048C18.1588 26.7937 18.4762 27.2382 18.7937 27.6191H21.2064C20.8254 28.0636 20.4445 28.508 20 28.889C22.1588 30.7937 24.9524 32.0001 28.0635 32.0001C28.254 32.0001 28.4445 32.0001 28.635 32.0001C32.3175 29.3334 34.7302 24.9525 34.7302 20.0636C34.7302 15.1747 32.3175 10.7937 28.635 8.12706C28.4445 8.12706 28.254 8.12706 28.0635 8.12706C24.9524 8.00008 22.1588 9.20643 20 11.1112Z" fill="#D1094B"/>
<path d="M10.4762 22.9842H8.95238L9.84127 18.3493L7.80952 22.9842H6.47619L6.22222 18.3493L5.33333 22.9842H4L5.14286 16.8889H7.49206L7.61905 20.6985L9.26984 16.8889H11.6825L10.4762 22.9842Z" fill="white"/>
<path d="M9.01588 20.3174L9.90477 18.3491L9.20636 22.0316C9.26985 22.3491 9.33334 22.7301 9.46033 23.0475H10.4762L11.6191 16.9523H9.39684C9.14287 17.9047 8.95239 18.984 8.95239 20.0634C9.01588 20.1269 9.01588 20.1904 9.01588 20.3174Z" fill="#DCE5E5"/>
<path d="M27.1111 22.9205C26.6667 23.0475 26.4127 23.111 26.0318 23.111C25.2699 23.111 24.8889 22.7301 24.8889 22.0316C24.8889 21.9047 24.8889 21.7777 24.9524 21.5872L25.0159 21.0793L25.0794 20.6983L25.7778 16.9523H27.2381L27.0476 18.0951H27.8096L27.6191 19.238H26.8572L26.4762 21.2697C26.4762 21.3332 26.4127 21.4602 26.4127 21.4602C26.4127 21.7142 26.6032 21.8412 26.9207 21.8412C27.1111 21.8412 27.2381 21.8412 27.3016 21.7777L27.1111 22.9205Z" fill="#DCE5E5"/>
<path d="M31.492 18.0952C31.365 18.0317 31.365 18.0317 31.3016 18.0317C31.2381 18.0317 31.1746 18.0317 31.1746 17.9682C31.1111 17.9682 31.1111 17.9682 30.9841 17.9682C30.4762 17.9682 30.1587 18.1587 29.7143 18.7936L29.8412 18.0317H28.5079L27.619 22.9841H29.1428C29.6508 19.9365 29.9047 19.4286 30.6031 19.4286C30.6666 19.4286 30.7301 19.4286 30.7936 19.4286L30.9841 19.4921L31.492 18.0952Z" fill="#DCE5E5"/>
<path d="M21.2063 19.619C21.2063 20.254 21.5873 20.6984 22.3492 20.9524C22.9841 21.2063 23.0476 21.2698 23.0476 21.5238C23.0476 21.8413 22.7936 21.9682 22.1587 21.9682C21.7143 21.9682 21.2698 21.9048 20.8254 21.7778L20.6349 22.9206H20.6984L20.9523 22.9841C21.0158 22.9841 21.2063 22.9841 21.3333 22.9841C21.7142 23.0476 21.9682 23.0476 22.1587 23.0476C23.746 23.0476 24.5079 22.5397 24.5079 21.3968C24.5079 20.6984 24.1904 20.3175 23.4285 20C22.7936 19.746 22.7301 19.6825 22.7301 19.4921C22.7301 19.2381 22.9841 19.1111 23.492 19.1111C23.746 19.1111 24.1904 19.1111 24.5714 19.1746L24.7619 18.0317C24.3809 17.9682 23.8095 17.9682 23.4285 17.9682C21.7777 17.9682 21.2063 18.7302 21.2063 19.619Z" fill="#DCE5E5"/>
<path d="M15.3017 22.9842H14.0953V22.4762C13.7144 22.8572 13.2064 23.0477 12.508 23.0477C11.6826 23.0477 11.1747 22.4762 11.1747 21.7143C11.1747 20.508 12.1271 19.8096 13.7779 19.8096C13.9683 19.8096 14.1588 19.8096 14.4128 19.8096C14.4763 19.6191 14.4763 19.5556 14.4763 19.4921C14.4763 19.1746 14.2223 19.0477 13.5239 19.0477C13.0794 19.0477 12.635 19.1112 12.3175 19.1746L12.1271 19.2381H12.0001L12.1906 18.1588C12.9525 17.9683 13.3969 17.9048 13.9683 17.9048C15.2382 17.9048 15.9366 18.4127 15.9366 19.3651C15.9366 19.6191 15.9366 19.8096 15.8096 20.381L15.4921 22.1588L15.4287 22.4762L15.3652 22.7302V22.9207L15.3017 22.9842ZM14.2223 20.7619C14.0318 20.7619 13.9683 20.7619 13.9048 20.7619C13.0794 20.7619 12.635 21.0159 12.635 21.5238C12.635 21.8413 12.8255 22.0318 13.1429 22.0318C13.7779 22.0318 14.2223 21.5238 14.2223 20.7619Z" fill="#DCE5E5"/>
<path d="M20.1904 22.8572C19.6825 22.9842 19.1746 23.0477 18.6666 23.0477C17.0158 23.0477 16.127 22.2858 16.127 20.8254C16.127 19.1111 17.2063 17.9048 18.7301 17.9048C19.9365 17.9048 20.6984 18.6032 20.6984 19.6826C20.6984 20.0635 20.6349 20.381 20.5079 20.8889H17.5238C17.5238 20.9524 17.5238 21.0159 17.5238 21.0794C17.5238 21.6508 17.9682 21.9683 18.7936 21.9683C19.365 21.9683 19.8095 21.9048 20.3174 21.6508L20.1904 22.8572ZM19.4285 19.9365C19.4285 19.8731 19.4285 19.7461 19.4285 19.6826C19.4285 19.3016 19.1746 19.0477 18.7301 19.0477C18.2857 19.0477 17.9047 19.3651 17.7777 19.9365H19.4285Z" fill="#DCE5E5"/>
<path d="M36.127 20.7619C35.8731 22.4127 34.7302 23.1111 33.2064 23.1111C31.5556 23.1111 30.8572 22.0953 30.8572 20.8254C30.8572 19.1111 32 17.9048 33.7778 17.9048C35.3016 17.9048 36.127 18.9207 36.127 20.127C36.127 20.4445 36.127 20.4445 36.127 20.7619ZM34.5397 20.127C34.5397 19.6191 34.3492 19.1746 33.7143 19.1746C32.9524 19.1746 32.508 20.0635 32.508 20.8889C32.508 21.5238 32.8254 21.9683 33.3334 21.9683C33.6508 21.9683 34.3492 21.5238 34.4762 20.7619C34.5397 20.508 34.5397 20.3175 34.5397 20.127Z" fill="white"/>
<path d="M30.9207 21.3969C30.9842 20.9524 31.0477 20.4445 31.0477 20.0001C31.0477 19.9366 31.0477 19.8731 31.0477 19.8731C30.9842 20.1905 30.9207 20.508 30.9207 20.889C30.8572 21.0159 30.8572 21.2064 30.9207 21.3969Z" fill="white"/>
</g>
<defs>
<clipPath id="clip0">
<rect width="40" height="40" fill="white"/>
</clipPath>
</defs>
</svg>
