<svg width="40" height="40" viewBox="0 0 40 40" fill="none" xmlns="http://www.w3.org/2000/svg">
<g clip-path="url(#clip0)">
<path d="M40 20.0001C40 26.6032 34.6667 32.0001 28 32.0001C21.3968 32.0001 16 26.6032 16 20.0001C16 13.3969 21.3333 8.00005 27.9365 8.00005C34.6667 8.00005 40 13.3969 40 20.0001Z" fill="#FFB600"/>
<path d="M28 8.00005C34.6032 8.00005 40 13.3969 40 20.0001C40 26.6032 34.6667 32.0001 28 32.0001C21.3968 32.0001 16 26.6032 16 20.0001" fill="#F7981D"/>
<path d="M28 8.00005C34.6032 8.00005 40 13.3969 40 20.0001C40 26.6032 34.6667 32.0001 28 32.0001" fill="#FF8500"/>
<path d="M11.873 8.00005C5.33333 8.06355 0 13.3969 0 20.0001C0 26.6032 5.33333 32.0001 12 32.0001C15.1111 32.0001 17.9048 30.7937 20.0635 28.8889C20.5079 28.508 20.8889 28.0635 21.2698 27.6191H18.7937C18.4762 27.2381 18.1587 26.7937 17.9048 26.4128H22.1587C22.4127 26.0318 22.6667 25.5874 22.8571 25.1429H17.2064C17.0159 24.762 16.8254 24.3175 16.6984 23.8731H23.3016C23.6825 22.6667 23.9365 21.3969 23.9365 20.0635C23.9365 19.1747 23.8095 18.3493 23.6825 17.5239H16.3175C16.381 17.0794 16.5079 16.6985 16.6349 16.254H23.2381C23.1111 15.8096 22.9206 15.3651 22.7302 14.9842H17.1429C17.3333 14.5397 17.5873 14.1588 17.8413 13.7143H22.0952C21.8413 13.2699 21.5238 12.8254 21.1429 12.4445H18.7937C19.1746 12.0001 19.5556 11.6191 20 11.2381C17.9048 9.26989 15.0476 8.12704 11.9365 8.12704C11.9365 8.00005 11.9365 8.00005 11.873 8.00005Z" fill="#FF5050"/>
<path d="M0 19.9999C0 26.6031 5.33333 31.9999 12 31.9999C15.1111 31.9999 17.9048 30.7935 20.0635 28.8888C20.5079 28.5078 20.8889 28.0634 21.2698 27.6189H18.7937C18.4762 27.238 18.1587 26.7935 17.9048 26.4126H22.1587C22.4127 26.0316 22.6667 25.5872 22.8571 25.1427H17.2064C17.0159 24.7618 16.8254 24.3173 16.6984 23.8729H23.3016C23.6825 22.6665 23.9365 21.3967 23.9365 20.0634C23.9365 19.1745 23.8095 18.3491 23.6825 17.5237H16.3175C16.381 17.0792 16.5079 16.6983 16.6349 16.2539H23.2381C23.1111 15.8094 22.9206 15.365 22.7302 14.984H17.1429C17.3333 14.5396 17.5873 14.1586 17.8413 13.7142H22.0952C21.8413 13.2697 21.5238 12.8253 21.1429 12.4443H18.7937C19.1746 11.9999 19.5556 11.6189 20 11.238C17.9048 9.26973 15.0476 8.12687 11.9365 8.12687H11.873" fill="#E52836"/>
<path d="M12 31.9999C15.1111 31.9999 17.9048 30.7935 20.0635 28.8888C20.508 28.5078 20.8889 28.0634 21.2699 27.6189H18.7937C18.4762 27.238 18.1588 26.7935 17.9048 26.4126H22.1588C22.4127 26.0316 22.6667 25.5872 22.8572 25.1427H17.2064C17.0159 24.7618 16.8254 24.3173 16.6984 23.8729H23.3016C23.6826 22.6665 23.9365 21.3967 23.9365 20.0634C23.9365 19.1745 23.8096 18.3491 23.6826 17.5237H16.3175C16.381 17.0792 16.508 16.6983 16.635 16.2539H23.2381C23.1111 15.8094 22.9207 15.365 22.7302 14.984H17.1429C17.3334 14.5396 17.5873 14.1586 17.8413 13.7142H22.0953C21.8413 13.2697 21.5238 12.8253 21.1429 12.4443H18.7937C19.1746 11.9999 19.5556 11.6189 20 11.238C17.9048 9.26973 15.0476 8.12687 11.9365 8.12687H11.873" fill="#CB2026"/>
<path d="M16.254 23.0475L16.4445 21.9681C16.381 21.9681 16.254 22.0316 16.127 22.0316C15.6826 22.0316 15.6191 21.7777 15.6826 21.6507L16.0635 19.4285H16.7619L16.9524 18.2221H16.3175L16.4445 17.4602H15.1746C15.1746 17.4602 14.4127 21.6507 14.4127 22.1586C14.4127 22.9205 14.8572 23.238 15.4286 23.238C15.8095 23.238 16.127 23.111 16.254 23.0475Z" fill="white"/>
<path d="M16.6984 21.0159C16.6984 22.7937 17.9047 23.2382 18.9206 23.2382C19.873 23.2382 20.2539 23.0477 20.2539 23.0477L20.5079 21.8413C20.5079 21.8413 19.8095 22.1588 19.1746 22.1588C17.7777 22.1588 18.0317 21.1429 18.0317 21.1429H20.6349C20.6349 21.1429 20.8253 20.3175 20.8253 20.0001C20.8253 19.1747 20.3809 18.1588 18.9841 18.1588C17.6507 18.0318 16.6984 19.4286 16.6984 21.0159ZM18.9206 19.1747C19.619 19.1747 19.492 20.0001 19.492 20.0636H18.0952C18.0952 20.0001 18.2222 19.1747 18.9206 19.1747Z" fill="white"/>
<path d="M26.9841 23.0477L27.2381 21.6509C27.2381 21.6509 26.6032 21.9683 26.1587 21.9683C25.2698 21.9683 24.8889 21.2699 24.8889 20.508C24.8889 18.9842 25.6508 18.1588 26.5397 18.1588C27.1746 18.1588 27.6825 18.5398 27.6825 18.5398L27.873 17.2064C27.873 17.2064 27.1111 16.889 26.4127 16.889C24.9524 16.889 23.4921 18.1588 23.4921 20.5715C23.4921 22.1588 24.254 23.2382 25.7778 23.2382C26.2857 23.2382 26.9841 23.0477 26.9841 23.0477Z" fill="white"/>
<path d="M9.26975 18.0318C8.38086 18.0318 7.74594 18.2858 7.74594 18.2858L7.55547 19.3651C7.55547 19.3651 8.1269 19.1112 8.95229 19.1112C9.39674 19.1112 9.77769 19.1747 9.77769 19.5556C9.77769 19.8096 9.7142 19.8731 9.7142 19.8731C9.7142 19.8731 9.33325 19.8731 9.14277 19.8731C8.0634 19.8731 6.85706 20.3175 6.85706 21.7778C6.85706 22.9207 7.61896 23.1747 8.0634 23.1747C8.95229 23.1747 9.33325 22.6032 9.39674 22.6032L9.33325 23.1112H10.4761L10.984 19.6191C10.984 18.0953 9.7142 18.0318 9.26975 18.0318ZM9.52372 20.889C9.52372 21.0794 9.39674 22.0953 8.63483 22.0953C8.25388 22.0953 8.1269 21.7778 8.1269 21.5874C8.1269 21.2699 8.31737 20.8255 9.26975 20.8255C9.46023 20.889 9.52372 20.889 9.52372 20.889Z" fill="white"/>
<path d="M12.1904 23.1747C12.5079 23.1747 14.0952 23.2382 14.0952 21.5239C14.0952 19.9366 12.5714 20.2541 12.5714 19.6192C12.5714 19.3017 12.8253 19.1747 13.2698 19.1747C13.4603 19.1747 14.1587 19.2382 14.1587 19.2382L14.3492 18.0953C14.3492 18.0953 13.9047 17.9684 13.1428 17.9684C12.1904 17.9684 11.238 18.3493 11.238 19.6192C11.238 21.0795 12.8253 20.9525 12.8253 21.5239C12.8253 21.9049 12.3809 21.9684 12.0634 21.9684C11.492 21.9684 10.9206 21.7779 10.9206 21.7779L10.7301 22.9207C10.7936 23.0477 11.1111 23.1747 12.1904 23.1747Z" fill="white"/>
<path d="M37.5238 17.016L37.2699 18.7303C37.2699 18.7303 36.7619 18.0953 36.0635 18.0953C34.9207 18.0953 33.9048 19.4922 33.9048 21.143C33.9048 22.1588 34.4127 23.2382 35.4921 23.2382C36.254 23.2382 36.6984 22.7303 36.6984 22.7303L36.6349 23.1747H37.9048L38.8572 17.0795L37.5238 17.016ZM36.9524 20.3811C36.9524 21.0795 36.6349 21.9684 35.9365 21.9684C35.4921 21.9684 35.2381 21.5874 35.2381 20.9525C35.2381 19.9366 35.6826 19.3017 36.254 19.3017C36.6984 19.3017 36.9524 19.6191 36.9524 20.3811Z" fill="white"/>
<path d="M2.34917 23.1112L3.11108 18.5398L3.23806 23.1112H4.12695L5.77774 18.5398L5.07933 23.1112H6.41266L7.42854 17.016H5.3333L4.06346 20.762L3.99997 17.016H2.1587L1.14282 23.1112H2.34917Z" fill="white"/>
<path d="M22.0317 23.1112C22.4127 21.016 22.4762 19.3017 23.365 19.6192C23.492 18.7938 23.6825 18.4763 23.8095 18.1589C23.8095 18.1589 23.746 18.1589 23.5555 18.1589C22.9841 18.1589 22.5396 18.9208 22.5396 18.9208L22.6666 18.2224H21.4603L20.6349 23.1747H22.0317V23.1112Z" fill="white"/>
<path d="M29.9048 18.0318C29.0159 18.0318 28.381 18.2858 28.381 18.2858L28.1905 19.3651C28.1905 19.3651 28.7619 19.1112 29.5873 19.1112C30.0317 19.1112 30.4127 19.1747 30.4127 19.5556C30.4127 19.8096 30.3492 19.8731 30.3492 19.8731C30.3492 19.8731 29.9683 19.8731 29.7778 19.8731C28.6984 19.8731 27.4921 20.3175 27.4921 21.7778C27.4921 22.9207 28.254 23.1747 28.6984 23.1747C29.5873 23.1747 29.9683 22.6032 30.0317 22.6032L29.9683 23.1112H31.1111L31.619 19.6191C31.6825 18.0953 30.3492 18.0318 29.9048 18.0318ZM30.2222 20.889C30.2222 21.0794 30.0952 22.0953 29.3333 22.0953C28.9524 22.0953 28.8254 21.7778 28.8254 21.5874C28.8254 21.2699 29.0159 20.8255 29.9683 20.8255C30.1587 20.889 30.1587 20.889 30.2222 20.889Z" fill="white"/>
<path d="M32.6983 23.1112C33.0793 21.016 33.1428 19.3017 34.0317 19.6192C34.1587 18.7938 34.3491 18.4763 34.4761 18.1589C34.4761 18.1589 34.4126 18.1589 34.2221 18.1589C33.6507 18.1589 33.2063 18.9208 33.2063 18.9208L33.3333 18.2224H32.1269L31.3015 23.1747H32.6983V23.1112Z" fill="white"/>
<path d="M14.2856 22.1586C14.2856 22.9205 14.7301 23.238 15.3015 23.238C15.746 23.238 16.1269 23.111 16.2539 23.0475L16.4444 21.9681C16.3809 21.9681 16.2539 22.0316 16.1269 22.0316C15.6825 22.0316 15.619 21.7777 15.6825 21.6507L16.0634 19.4285H16.7618L16.9523 18.2221H16.3174L16.4444 17.4602" fill="#DCE5E5"/>
<path d="M17.3333 21.0159C17.3333 22.7937 17.9047 23.2382 18.9206 23.2382C19.8729 23.2382 20.2539 23.0477 20.2539 23.0477L20.5079 21.8413C20.5079 21.8413 19.8094 22.1588 19.1745 22.1588C17.7777 22.1588 18.0317 21.1429 18.0317 21.1429H20.6348C20.6348 21.1429 20.8253 20.3175 20.8253 20.0001C20.8253 19.1747 20.3809 18.1588 18.984 18.1588C17.6507 18.0318 17.3333 19.4286 17.3333 21.0159ZM18.9206 19.1747C19.619 19.1747 19.746 20.0001 19.746 20.0636H18.0952C18.0952 20.0001 18.2221 19.1747 18.9206 19.1747Z" fill="#DCE5E5"/>
<path d="M26.9841 23.0477L27.2381 21.6509C27.2381 21.6509 26.6031 21.9683 26.1587 21.9683C25.2698 21.9683 24.8889 21.2699 24.8889 20.508C24.8889 18.9842 25.6508 18.1588 26.5397 18.1588C27.1746 18.1588 27.6825 18.5398 27.6825 18.5398L27.873 17.2064C27.873 17.2064 27.1111 16.889 26.4127 16.889C24.9523 16.889 24.127 18.1588 24.127 20.5715C24.127 22.1588 24.2539 23.2382 25.7777 23.2382C26.2857 23.2382 26.9841 23.0477 26.9841 23.0477Z" fill="#DCE5E5"/>
<path d="M7.55547 19.4287C7.55547 19.4287 8.1269 19.1747 8.95229 19.1747C9.39674 19.1747 9.77769 19.2382 9.77769 19.6192C9.77769 19.8731 9.7142 19.9366 9.7142 19.9366C9.7142 19.9366 9.33325 19.9366 9.14277 19.9366C8.0634 19.9366 6.85706 20.3811 6.85706 21.8414C6.85706 22.9843 7.61896 23.2382 8.0634 23.2382C8.95229 23.2382 9.33325 22.6668 9.39674 22.6668L9.33325 23.1747H10.4761L10.984 19.6827C10.984 18.2224 9.7142 18.1589 9.20626 18.1589L7.55547 19.4287ZM10.1586 20.889C10.1586 21.0795 9.39674 22.0954 8.63483 22.0954C8.25388 22.0954 8.1269 21.7779 8.1269 21.5874C8.1269 21.27 8.31737 20.8255 9.26975 20.8255C9.46023 20.889 10.1586 20.889 10.1586 20.889Z" fill="#DCE5E5"/>
<path d="M10.7936 23.0477C10.7936 23.0477 11.1745 23.1747 12.2539 23.1747C12.5714 23.1747 14.1587 23.2382 14.1587 21.5239C14.1587 19.9366 12.6348 20.2541 12.6348 19.6192C12.6348 19.3017 12.8888 19.1747 13.3333 19.1747C13.5237 19.1747 14.2221 19.2382 14.2221 19.2382L14.4126 18.0953C14.4126 18.0953 13.9682 17.9684 13.2063 17.9684C12.2539 17.9684 11.9364 18.3493 11.9364 19.6192C11.9364 21.0795 12.8888 20.9525 12.8888 21.5239C12.8888 21.9049 12.4444 21.9684 12.1269 21.9684" fill="#DCE5E5"/>
<path d="M37.2698 18.7302C37.2698 18.7302 36.7619 18.0953 36.0634 18.0953C34.9206 18.0953 34.5396 19.4921 34.5396 21.1429C34.5396 22.1588 34.4127 23.2381 35.492 23.2381C36.2539 23.2381 36.6984 22.7302 36.6984 22.7302L36.6349 23.1746H37.9047L38.8571 17.0794L37.2698 18.7302ZM37.2063 20.381C37.2063 21.0794 36.6349 21.9683 35.9365 21.9683C35.492 21.9683 35.2381 21.5873 35.2381 20.9524C35.2381 19.9365 35.6825 19.3016 36.2539 19.3016C36.6984 19.3016 37.2063 19.6191 37.2063 20.381Z" fill="#DCE5E5"/>
<path d="M2.34917 23.1112L3.11108 18.5398L3.23806 23.1112H4.12695L5.77774 18.5398L5.07933 23.1112H6.41266L7.42854 17.016H5.84123L4.06346 20.762L3.99997 17.016H3.30155L1.14282 23.1112H2.34917Z" fill="#DCE5E5"/>
<path d="M20.6984 23.1112H22.0317C22.4127 21.016 22.4761 19.3017 23.365 19.6192C23.492 18.7938 23.6825 18.4763 23.8095 18.1589C23.8095 18.1589 23.746 18.1589 23.5555 18.1589C22.9841 18.1589 22.5396 18.9208 22.5396 18.9208L22.6666 18.2224" fill="#DCE5E5"/>
<path d="M28.1905 19.4287C28.1905 19.4287 28.7619 19.1747 29.5873 19.1747C30.0317 19.1747 30.4127 19.2382 30.4127 19.6192C30.4127 19.8731 30.3492 19.9366 30.3492 19.9366C30.3492 19.9366 29.9683 19.9366 29.7778 19.9366C28.6984 19.9366 27.4921 20.3811 27.4921 21.8414C27.4921 22.9843 28.254 23.2382 28.6984 23.2382C29.5873 23.2382 29.9683 22.6668 30.0317 22.6668L29.9683 23.1747H31.1111L31.619 19.6827C31.619 18.2224 30.3492 18.1589 29.8413 18.1589L28.1905 19.4287ZM30.7936 20.889C30.7936 21.0795 30.0317 22.0954 29.2698 22.0954C28.8889 22.0954 28.7619 21.7779 28.7619 21.5874C28.7619 21.27 28.9524 20.8255 29.9048 20.8255C30.1587 20.889 30.7936 20.889 30.7936 20.889Z" fill="#DCE5E5"/>
<path d="M31.365 23.1112H32.6983C33.0793 21.016 33.1428 19.3017 34.0317 19.6192C34.1586 18.7938 34.3491 18.4763 34.4761 18.1589C34.4761 18.1589 34.4126 18.1589 34.2221 18.1589C33.6507 18.1589 33.2063 18.9208 33.2063 18.9208L33.3332 18.2224" fill="#DCE5E5"/>
</g>
<defs>
<clipPath id="clip0">
<rect width="40" height="40" fill="white"/>
</clipPath>
</defs>
</svg>
