<svg width="96" height="27" viewBox="0 0 96 27" fill="none" xmlns="http://www.w3.org/2000/svg">
<path fill-rule="evenodd" clip-rule="evenodd" d="M14.7322 20.4461H10.5518C4.03031 20.4461 8.76814 6.52593 14.2585 6.52593H20.8636C21.9226 6.52593 23.7899 6.72199 24.7096 4.08921L26.1309 0H17.0733C12.1682 0 8.3501 1.73651 5.59101 4.64938C0.825307 9.63485 -0.791129 17.4212 0.351525 21.1463C1.43844 24.5913 4.39262 26.86 9.01897 26.916L12.6141 26.944H17.0454L18.1323 23.667C18.9405 21.3423 17.129 20.4461 14.7322 20.4461ZM65.6221 14.6763L66.9877 10.223H52.4119C49.9873 10.223 48.9004 10.8952 48.4823 12.2956L47.1167 16.749H61.6925C64.1172 16.749 65.2041 16.0768 65.6221 14.6763ZM44.9429 22.5187L43.5773 26.972H58.1531C60.5499 26.972 61.6647 26.2998 62.0827 24.8994L63.4483 20.4461H48.8725C46.4757 20.4461 45.3888 21.1183 44.9429 22.5187ZM69.0222 4.48133L70.3878 0.0280079H55.812C53.3874 0.0280079 52.3005 0.700207 51.8824 2.10062L50.5168 6.55394H65.0926C67.4894 6.55394 68.5763 5.88174 69.0222 4.48133ZM47.0052 5.37759C46.3921 1.23237 44.1904 0.0280079 38.8395 0.0280079H29.0851L23.3997 16.749H26.9949C29.1408 16.749 30.2277 16.777 31.3704 13.6961L33.7393 6.52593H37.3624C40.4559 6.52593 39.7591 10.4191 38.1984 14.2002C36.805 17.5332 34.3803 20.4741 31.454 20.4741H25.4063C22.9816 20.4741 21.8669 21.1463 21.4209 22.5467L19.916 27H24.3473L28.6949 26.972C32.5409 26.944 35.6902 26.6639 39.369 23.3309C43.2707 19.7739 47.7856 10.6432 47.0052 5.37759ZM96 0H87.5555L79.6127 8.48651C78.693 9.4668 77.7454 10.4471 76.8257 11.5954H76.7421L80.6996 0H73.8158L64.5352 26.972H71.419L74.3732 18.4855L77.4388 15.8807L79.8635 23.555C80.616 25.9357 81.3963 26.972 83.0685 26.972H88.3359L82.9292 11.9035L96 0Z" fill="#00B33C"/>
</svg>
