<svg width="52" height="52" viewBox="0 0 52 52" fill="none" xmlns="http://www.w3.org/2000/svg">
<path d="M19.0667 33.4697L21.7079 18.6126H25.8349L23.2762 33.4697H19.0667Z" fill="#3C58BF"/>
<path d="M19.0667 33.4697L22.4508 18.6126H25.8349L23.2762 33.4697H19.0667Z" fill="#293688"/>
<path d="M38.2159 18.7778C37.3905 18.4476 36.0698 18.1175 34.419 18.1175C30.292 18.1175 27.3206 20.181 27.3206 23.1524C27.3206 25.381 29.3841 26.5365 31.0349 27.2794C32.6857 28.0222 33.1809 28.5175 33.1809 29.1778C33.1809 30.1683 31.8603 30.6635 30.7047 30.6635C29.0539 30.6635 28.146 30.4159 26.7428 29.8381L26.1651 29.5905L25.5873 32.9746C26.5778 33.3873 28.3936 33.8 30.292 33.8C34.6666 33.8 37.5555 31.7365 37.5555 28.6C37.5555 26.8667 36.4825 25.546 34.0063 24.473C32.5206 23.7302 31.6127 23.3175 31.6127 22.5746C31.6127 21.9143 32.3555 21.254 34.0063 21.254C35.4095 21.254 36.4 21.5016 37.1428 21.8318L37.5555 21.9968L38.2159 18.7778Z" fill="#3C58BF"/>
<path d="M38.2159 18.7778C37.3905 18.4476 36.0698 18.1175 34.419 18.1175C30.292 18.1175 28.0635 20.181 28.0635 23.1524C28.0635 25.381 29.3841 26.5365 31.0349 27.2794C32.6857 28.0222 33.1809 28.5175 33.1809 29.1778C33.1809 30.1683 31.8603 30.6635 30.7047 30.6635C29.0539 30.6635 28.146 30.4159 26.7428 29.8381L26.1651 29.5905L25.5873 32.9746C26.5778 33.3873 28.3936 33.8 30.292 33.8C34.6666 33.8 37.5555 31.7365 37.5555 28.6C37.5555 26.8667 36.4825 25.546 34.0063 24.473C32.5206 23.7302 31.6127 23.3175 31.6127 22.5746C31.6127 21.9143 32.3555 21.254 34.0063 21.254C35.4095 21.254 36.4 21.5016 37.1428 21.8318L37.5555 21.9968L38.2159 18.7778Z" fill="#293688"/>
<path d="M45.3143 18.6126C44.3238 18.6126 43.581 18.6951 43.1683 19.6856L36.9778 33.4697H41.4349L42.2603 30.9935H47.5429L48.0381 33.4697H52L48.5333 18.6126H45.3143ZM43.4159 28.5174C43.6635 27.7745 45.0667 24.1428 45.0667 24.1428C45.0667 24.1428 45.3968 23.2348 45.6445 22.657L45.8921 24.0602C45.8921 24.0602 46.7175 27.7745 46.8825 28.5999H43.4159V28.5174Z" fill="#3C58BF"/>
<path d="M46.3048 18.6126C45.3143 18.6126 44.5714 18.6951 44.1587 19.6856L36.9778 33.4697H41.4349L42.2603 30.9935H47.5429L48.0381 33.4697H52L48.5333 18.6126H46.3048ZM43.4159 28.5174C43.746 27.692 45.0667 24.1428 45.0667 24.1428C45.0667 24.1428 45.3968 23.2348 45.6445 22.657L45.8921 24.0602C45.8921 24.0602 46.7175 27.7745 46.8825 28.5999H43.4159V28.5174Z" fill="#293688"/>
<path d="M11.4729 29.0125L11.0602 26.8665C10.3174 24.3903 7.92374 21.6665 5.28247 20.3458L8.99676 33.5522H13.4539L20.1396 18.695H15.6825L11.4729 29.0125Z" fill="#3C58BF"/>
<path d="M11.4729 29.0125L11.0602 26.8665C10.3174 24.3903 7.92374 21.6665 5.28247 20.3458L8.99676 33.5522H13.4539L20.1396 18.695H16.5079L11.4729 29.0125Z" fill="#293688"/>
<path d="M0 18.6126L0.742857 18.7777C6.0254 20.0158 9.65714 23.1523 11.0603 26.8666L9.5746 19.8507C9.32698 18.8602 8.58413 18.6126 7.67619 18.6126H0Z" fill="#FFBC00"/>
<path d="M0 18.6126C5.28254 19.8507 9.65714 23.0697 11.0603 26.784L9.65714 20.9237C9.40952 19.9332 8.58413 19.3555 7.67619 19.3555L0 18.6126Z" fill="#F7981D"/>
<path d="M0 18.6126C5.28254 19.8507 9.65714 23.0697 11.0603 26.784L10.0698 23.565C9.82222 22.5745 9.49206 21.584 8.33651 21.1713L0 18.6126Z" fill="#ED7C00"/>
</svg>
